<svg width="20vw" height="20vw" viewBox="0 0 45 45" fill="none" xmlns="http://www.w3.org/2000/svg">
<g clip-path="url(#clip0_112_1490)">
<path d="M22.2196 44.3852C34.3998 44.3852 44.2737 34.4912 44.2737 22.2863C44.2737 10.0815 34.3998 0.1875 22.2196 0.1875C10.0395 0.1875 0.165527 10.0815 0.165527 22.2863C0.165527 34.4912 10.0395 44.3852 22.2196 44.3852Z" fill="#221F51"/>
<path d="M22.2104 44.0056C10.1903 44.0011 0.456055 34.2624 0.456055 22.2423C0.456055 10.2266 10.2037 0.478927 22.2239 0.4834C34.2485 0.487873 43.9872 10.2445 43.9782 22.2736C43.9693 34.2803 34.2216 44.0101 22.2104 44.0056ZM8.74983 33.6361C8.65141 33.9448 8.553 34.2445 8.45458 34.5487C8.35617 34.8574 8.2488 35.1661 8.15486 35.4792C8.11907 35.6045 8.04302 35.5955 7.95355 35.5866C7.64936 35.5508 7.34517 35.515 7.04097 35.4837C6.56231 35.43 6.08813 35.3808 5.60947 35.3271C5.60052 35.3495 5.59157 35.3763 5.58263 35.3987C10.1277 40.8026 15.8939 43.6298 23.0022 43.3838C29.6587 43.1512 34.9866 40.2032 39.0977 35.005C38.2657 35.0676 37.4425 35.1482 36.6284 35.2555C36.436 35.2824 36.3823 35.1974 36.3376 35.0498C36.1721 34.5219 36.0021 33.994 35.8276 33.4572C32.2578 37.5683 27.7933 39.8095 22.3357 39.8498C16.8826 39.8855 12.3823 37.7114 8.74983 33.6361ZM5.20238 22.2244C5.15765 31.556 12.7536 39.2324 22.1433 39.2727C31.551 39.3129 39.2409 31.7126 39.2498 22.2691C39.2632 12.8525 31.6405 5.22526 22.2283 5.22078C12.7804 5.21184 5.17554 12.9062 5.20238 22.2244ZM10.4632 8.34325C10.4766 8.49088 10.4408 8.6385 10.6018 8.7056C10.7584 8.7727 10.8702 8.68323 10.9821 8.58929C11.076 8.50877 11.1744 8.42825 11.2729 8.34773C11.3579 8.28062 11.3176 8.22694 11.2729 8.15984C11.2147 8.07485 11.1655 8.11511 11.1118 8.15984C11.0313 8.22694 10.9552 8.29852 10.8702 8.35667C10.7495 8.43272 10.6913 8.38799 10.6913 8.24931C10.6913 8.17773 10.7181 8.12405 10.7584 8.0659C10.991 7.73039 11.0268 7.37251 10.8837 6.9878C10.7092 6.50914 10.1813 6.20047 9.66689 6.29441C9.1927 6.37941 8.85719 6.81333 8.85272 7.32331C8.86167 7.95854 9.4969 8.74139 10.4632 8.34325ZM27.6009 3.04669C27.6323 3.13616 27.6591 3.18984 27.668 3.24352C27.7754 3.75797 27.9007 4.27241 27.9722 4.79133C28.0125 5.07316 28.1557 5.18052 28.4017 5.22973C28.5001 5.2521 28.5359 5.22526 28.5627 5.14026C28.7551 4.55871 28.9475 3.97717 29.1398 3.39562C29.1756 3.28825 29.1756 3.20326 29.028 3.16747C28.8893 3.13168 28.8401 3.15852 28.8222 3.30167C28.8132 3.38667 28.7685 3.46719 28.7417 3.55219C28.603 3.97717 28.4643 4.39767 28.3256 4.82712C28.2541 4.78239 28.263 4.72871 28.2541 4.6795C28.1422 4.14268 28.0125 3.60587 27.923 3.06458C27.8828 2.82749 27.7665 2.74249 27.5652 2.68881C27.4488 2.6575 27.3862 2.64855 27.3415 2.79617C27.167 3.37772 26.9747 3.9548 26.7778 4.5274C26.7331 4.6616 26.7599 4.70186 26.8852 4.74212C27.0149 4.78239 27.0507 4.74213 27.0865 4.62582C27.252 4.10242 27.422 3.59245 27.6009 3.04669ZM1.81151 20.605C1.75783 20.8108 1.82493 20.8913 2.0486 20.9092C2.60331 20.9539 3.16249 21.021 3.71273 21.0926C3.84693 21.1105 3.90956 21.106 3.9364 20.945C3.96324 20.7615 3.86482 20.7705 3.74851 20.7615C3.57852 20.7481 3.40853 20.7258 3.23854 20.7034C3.19381 20.6989 3.1446 20.6944 3.11328 20.6676C3.04618 20.6095 3.17144 20.1308 3.26091 20.095C3.49353 20.0011 3.73062 19.9071 3.96771 19.8176C4.1377 19.755 4.10639 19.5984 4.07955 19.4956C4.03929 19.3524 3.93192 19.4821 3.8693 19.5C3.68588 19.5627 3.50247 19.6298 3.33248 19.7148C3.19828 19.7819 3.14907 19.7371 3.10434 19.6163C3.00592 19.3658 2.81356 19.2451 2.5541 19.2406C2.29017 19.2361 2.10229 19.3658 1.99492 19.6074C1.84283 19.9295 1.86519 20.2784 1.81151 20.605ZM16.2518 4.07558C16.5694 3.75797 16.6231 3.51193 16.4397 3.2122C16.2831 2.95274 15.961 2.87222 15.5808 2.99301C15.3258 3.07353 15.0753 3.163 14.8203 3.25247C14.7621 3.27483 14.6906 3.28378 14.7264 3.38667C14.9366 3.98611 15.1469 4.58556 15.3437 5.185C15.3884 5.32367 15.4645 5.26999 15.5495 5.2521C15.6524 5.22526 15.6747 5.1671 15.6389 5.07316C15.5718 4.88528 15.5092 4.69739 15.4466 4.5095C15.4332 4.46924 15.3884 4.41556 15.4376 4.3932C15.5853 4.32609 15.7418 4.27241 15.8984 4.22768C15.9923 4.20084 16.0371 4.30373 16.0908 4.35293C16.2518 4.49608 16.4039 4.64818 16.556 4.80028C16.6813 4.92554 16.8155 4.84501 16.896 4.77344C16.9855 4.69292 16.8423 4.64371 16.7976 4.59897C16.6276 4.41556 16.4352 4.24557 16.2518 4.07558ZM19.1506 4.30373C19.7321 4.31267 20.184 3.86085 20.1974 3.25694C20.2108 2.63513 19.759 2.12963 19.1819 2.12068C18.6048 2.11174 18.1441 2.51882 18.1217 3.17642C18.0993 3.78481 18.5869 4.29478 19.1506 4.30373ZM35.6263 7.57829C35.671 7.62303 35.7113 7.65434 35.7471 7.69013C35.9529 7.89143 36.1586 8.09721 36.3644 8.30299C36.4539 8.39246 36.5255 8.36562 36.6105 8.28062C36.7044 8.18668 36.6373 8.14195 36.5747 8.08379C36.2839 7.80644 35.9976 7.52908 35.7113 7.24726C35.6263 7.16226 35.5547 7.14884 35.4697 7.23831C35.0403 7.69013 34.6064 8.14195 34.1724 8.58929C34.0964 8.66534 34.1188 8.70113 34.1859 8.76376C34.4945 9.05453 34.7987 9.34978 35.0984 9.6495C35.1969 9.74344 35.255 9.71213 35.3355 9.6316C35.4295 9.54214 35.3713 9.4974 35.3087 9.43477C35.17 9.30057 35.0313 9.16189 34.8927 9.02769C34.5303 8.67876 34.5348 8.67876 34.8971 8.31641C34.9866 8.23142 35.0313 8.23589 35.1119 8.32088C35.2953 8.50877 35.4876 8.67876 35.671 8.86217C35.7695 8.96059 35.8187 8.89349 35.8902 8.83086C35.9708 8.75928 35.9439 8.71455 35.8813 8.65192C35.7426 8.52666 35.6129 8.39246 35.4787 8.2672C35.1924 7.99432 35.1924 7.9988 35.4787 7.7125C35.5234 7.66776 35.5726 7.6275 35.6263 7.57829ZM40.1445 21.6786C40.149 21.6786 40.149 21.6786 40.1534 21.6786C40.1534 21.8933 40.1579 22.1125 40.1534 22.3273C40.149 22.4346 40.1892 22.4704 40.2966 22.4704C40.3995 22.4659 40.4711 22.4525 40.4576 22.3228C40.4397 22.1304 40.4263 21.9381 40.4263 21.7412C40.4263 21.115 40.2787 21.276 40.9229 21.2223C41.0616 21.2089 41.0839 21.2715 41.0839 21.3878C41.0884 21.6249 41.1018 21.862 41.1152 22.1036C41.1197 22.1931 41.0929 22.2959 41.2539 22.2915C41.4284 22.287 41.3971 22.1796 41.3926 22.0812C41.3881 21.9381 41.3881 21.7994 41.3747 21.6562C41.3434 21.1999 41.3434 21.2044 41.8131 21.1999C41.9428 21.1999 41.9786 21.2402 41.9786 21.361C41.9786 21.6518 41.9965 21.9425 41.9965 22.2333C41.9965 22.363 42.0412 22.3944 42.1665 22.3944C42.3052 22.3944 42.3007 22.3183 42.2962 22.2244C42.2783 21.8218 42.2604 21.4191 42.2515 21.021C42.247 20.8913 42.2112 20.8555 42.0815 20.8644C41.4776 20.8868 40.8737 20.9092 40.2742 20.9181C40.1311 20.9226 40.0953 20.9807 40.1087 21.1105C40.1221 21.2939 40.1311 21.4862 40.1445 21.6786ZM2.61673 27.588C3.1938 27.4538 3.82904 27.3017 4.46874 27.1496C4.52689 27.1362 4.53584 27.096 4.52242 27.0512C4.41953 26.6128 4.31664 26.1744 4.20928 25.736C4.18244 25.6287 4.10639 25.66 4.03034 25.6689C3.9364 25.6823 3.90508 25.7137 3.93193 25.8165C3.98561 26.0179 4.03481 26.2192 4.07955 26.4205C4.18244 26.8902 4.17797 26.8812 3.7172 27.002C3.54721 27.0467 3.498 26.9931 3.47116 26.8365C3.42643 26.5905 3.35932 26.3489 3.30117 26.1028C3.26985 25.9776 3.18039 26.0268 3.10434 26.0357C3.00592 26.0492 3.01934 26.0939 3.04171 26.1744C3.09092 26.3578 3.13118 26.5502 3.15802 26.7381C3.17591 26.8589 3.30117 27.002 3.22512 27.0825C3.1446 27.1631 2.97461 27.1496 2.84935 27.1988C2.67936 27.2659 2.63015 27.1854 2.60331 27.0378C2.54516 26.756 2.47358 26.4741 2.41542 26.1923C2.38858 26.0715 2.32148 26.0894 2.23201 26.1073C2.14702 26.1252 2.10229 26.1386 2.12913 26.2505C2.23202 26.6576 2.32596 27.0736 2.42437 27.4851C2.44674 27.5612 2.46463 27.6193 2.61673 27.588ZM37.5454 11.2465C37.948 11.4478 38.1941 11.4255 38.4133 11.1749C38.6146 10.9468 38.5922 10.6113 38.3551 10.2758C38.2075 10.07 38.0509 9.87317 37.9078 9.66739C37.8451 9.57792 37.8004 9.57345 37.7154 9.63608C37.2278 10.0029 36.7357 10.3653 36.2436 10.7187C36.1408 10.7947 36.1631 10.835 36.2213 10.9289C36.2929 11.0452 36.3555 11.0094 36.4315 10.9513C36.6149 10.8126 36.7984 10.6739 36.9952 10.5308C37.0623 10.6158 37.116 10.7008 37.1875 10.7768C37.3307 10.92 37.362 11.0631 37.2457 11.242C37.1562 11.3762 37.107 11.5373 37.0176 11.676C36.8968 11.8594 36.9549 11.9846 37.1204 12.1099C37.2904 11.837 37.4067 11.5373 37.5454 11.2465ZM24.5322 4.26347C24.9571 4.26347 25.2882 3.98164 25.3508 3.56114C25.4045 3.18089 25.4492 2.79617 25.5118 2.41593C25.5387 2.26383 25.5029 2.21015 25.3508 2.18779C25.1853 2.16542 25.1853 2.25936 25.1719 2.3712C25.1227 2.73802 25.0779 3.10932 25.0198 3.47614C24.9661 3.82059 24.7558 3.99059 24.4427 3.96375C24.1072 3.93243 23.9282 3.73113 23.9596 3.37325C23.9953 2.98406 24.049 2.59039 24.1117 2.20568C24.134 2.08042 24.1251 2.03121 23.9909 2.01332C23.8656 1.9999 23.7851 1.99095 23.7717 2.16094C23.7404 2.51435 23.6911 2.87222 23.633 3.22115C23.5391 3.83401 23.9059 4.26794 24.5322 4.26347ZM4.92056 11.4255C4.81767 11.4478 4.78635 11.5865 4.70583 11.6804C4.62084 11.7789 4.67452 11.8325 4.7282 11.9041C5.11739 12.4007 5.5021 12.9017 5.89577 13.3982C5.94498 13.4609 5.98524 13.5996 6.07918 13.5146C6.15076 13.4475 6.29391 13.3311 6.13286 13.1969C5.85551 12.9733 5.88235 12.7362 6.10155 12.4901C6.12392 12.4633 6.14181 12.4275 6.1597 12.3962C6.37443 12.0473 6.37443 12.0473 6.78599 12.1233C6.8173 12.1278 6.84414 12.1412 6.87545 12.1367C7.00518 12.1233 7.01861 11.9981 7.06334 11.9131C7.09465 11.8504 7.00966 11.837 6.96492 11.8281C6.29391 11.6983 5.63183 11.5686 4.92056 11.4255ZM4.27191 15.2547C4.36585 15.2368 4.41506 15.2279 4.46874 15.2189C4.73267 15.1742 4.99661 15.1339 5.26054 15.0892C5.43948 15.0579 5.44842 14.8879 5.44395 14.7805C5.43948 14.6777 5.30527 14.7582 5.23817 14.7671C4.95187 14.8163 4.66557 14.87 4.38374 14.9371C4.26296 14.964 4.19586 14.9416 4.12876 14.8342C3.95876 14.5792 3.77983 14.3377 3.59642 14.0916C3.56958 14.0558 3.52931 13.9485 3.47563 14.038C3.40853 14.1498 3.30564 14.2661 3.43985 14.4182C3.60089 14.6016 3.73062 14.8119 3.88719 14.9997C3.98561 15.1205 3.95429 15.1518 3.81561 15.1697C3.5651 15.2055 3.31906 15.2592 3.06855 15.295C2.88961 15.3218 2.84935 15.4739 2.87172 15.5947C2.89408 15.7244 3.02381 15.6216 3.09539 15.6126C3.35038 15.5723 3.60984 15.5231 3.86035 15.4605C4.0035 15.4247 4.07507 15.465 4.15112 15.5768C4.32559 15.8363 4.509 16.0868 4.68794 16.3418C4.71925 16.3865 4.78635 16.476 4.8132 16.4134C4.85793 16.3015 5.01003 16.1986 4.87582 16.0376C4.67004 15.796 4.48663 15.5366 4.27191 15.2547ZM3.65904 23.4411C3.54273 23.4904 3.48905 23.5127 3.43537 23.5351C2.93882 23.7364 2.44674 23.9466 1.94571 24.139C1.75783 24.2106 1.82046 24.3493 1.85177 24.4521C1.89203 24.5863 1.99045 24.479 2.05308 24.4521C2.62568 24.2195 3.19381 23.9735 3.76193 23.7409C3.88719 23.6872 3.95876 23.6335 3.92745 23.4814C3.89614 23.3427 3.96324 23.1817 3.73062 23.1235C3.13118 22.9759 2.54068 22.797 1.94571 22.6315C1.88308 22.6136 1.80256 22.5375 1.74441 22.627C1.6952 22.6986 1.73099 22.788 1.74441 22.8685C1.7623 22.967 1.86072 22.9535 1.92335 22.9714C2.48253 23.128 3.04171 23.2756 3.65904 23.4411ZM38.0822 13.6711C38.1046 13.9664 38.2254 14.2348 38.4759 14.4406C38.6906 14.615 38.9546 14.6284 39.1827 14.4808C39.4019 14.3421 39.4645 14.1587 39.393 13.8635C39.3438 13.6488 39.2901 13.4296 39.2453 13.2148C39.223 13.1075 39.2453 13.0091 39.3482 12.942C39.4511 12.8749 39.5585 12.8704 39.6614 12.933C39.9387 13.0896 40.0461 13.5146 39.8492 13.7517C39.7374 13.8859 39.8627 13.953 39.9029 14.0111C39.9521 14.0827 40.0103 13.9798 40.0506 13.9395C40.1311 13.859 40.1803 13.7606 40.1937 13.6443C40.2384 13.3043 40.0998 13.0314 39.8761 12.7988C39.6837 12.5975 39.4377 12.5572 39.2274 12.6736C39.0127 12.7899 38.9322 12.9777 38.9903 13.264C39.0306 13.4519 39.0843 13.6398 39.138 13.8232C39.1917 14.0066 39.1603 14.1677 38.9814 14.2616C38.7935 14.36 38.6235 14.2974 38.5072 14.1408C38.3193 13.8948 38.212 13.604 38.4535 13.3535C38.5564 13.2506 38.4714 13.1656 38.4133 13.103C38.3238 13.0046 38.288 13.1343 38.2478 13.1746C38.127 13.3043 38.0867 13.4698 38.0822 13.6711ZM32.3965 6.9878C32.3965 6.93412 32.392 6.91175 32.3965 6.89386C32.5531 6.33467 32.6962 5.77549 32.8662 5.22526C32.9288 5.02843 32.7723 5.00159 32.6828 4.96132C32.562 4.90764 32.5844 5.05527 32.562 5.1179C32.4636 5.44446 32.3741 5.77102 32.2846 6.09758C32.2086 6.37493 32.137 6.65676 32.0565 6.93411C31.9939 7.15331 32.1907 7.18015 32.2936 7.27857C32.3965 7.37251 32.4681 7.32331 32.5575 7.2562C33.0586 6.88043 33.5641 6.51361 34.0606 6.13784C34.1098 6.10205 34.2619 6.07521 34.1635 5.9768C34.0919 5.90522 34.0025 5.7576 33.8459 5.88733C33.658 6.0439 33.4567 6.18705 33.2599 6.33467C32.978 6.5494 32.7007 6.75965 32.3965 6.9878ZM14.0598 5.84707C13.5588 5.41762 13.0533 4.98816 12.5612 4.54977C12.4404 4.4424 12.3599 4.40662 12.2033 4.49609C12.0512 4.58108 12.0199 4.67502 12.0468 4.83159C12.1541 5.48024 12.257 6.12889 12.3688 6.79096C12.4628 6.72386 12.6373 6.75965 12.6059 6.56282C12.5344 6.111 12.5344 6.111 12.9236 5.90075C12.9817 5.86944 13.0443 5.8426 13.098 5.79786C13.3038 5.63234 13.4827 5.62339 13.6572 5.84707C13.7735 6.02153 13.9167 6.02153 14.0598 5.84707ZM40.14 24.4611C40.0282 24.4164 39.9924 24.4879 39.97 24.6177C39.9432 24.7653 40.0148 24.7877 40.1356 24.8011C40.6321 24.8637 41.1242 24.9398 41.6207 24.9979C41.7594 25.0158 41.7952 25.0561 41.7594 25.1903C41.7281 25.32 41.7281 25.4542 41.7057 25.5884C41.6923 25.6913 41.746 25.7137 41.831 25.7226C41.9205 25.7316 41.9876 25.736 42.0055 25.6152C42.0681 25.1455 42.1307 24.6713 42.1978 24.2016C42.2112 24.0987 42.2023 24.0361 42.0726 24.0227C41.9428 24.0093 41.8981 24.0495 41.8891 24.1748C41.8802 24.2911 41.8444 24.4119 41.8444 24.5282C41.8444 24.6848 41.7773 24.6848 41.6521 24.6669C41.16 24.5908 40.6634 24.5282 40.14 24.4611ZM39.7866 18.6501C39.7732 18.8067 39.8358 18.8559 40.0013 18.8156C40.3682 18.7306 40.7439 18.6635 41.1152 18.5875C41.6207 18.4846 41.6207 18.4846 41.7281 18.9856C41.7505 19.0795 41.7505 19.169 41.907 19.1377C42.0591 19.1064 42.0278 19.0169 42.0099 18.9274C41.9249 18.4846 41.8355 18.0417 41.7505 17.5943C41.7326 17.4915 41.6968 17.4378 41.576 17.4646C41.4597 17.487 41.4284 17.5451 41.4597 17.648C41.4865 17.7464 41.5089 17.8493 41.5357 17.9477C41.5805 18.1133 41.5357 18.1893 41.3479 18.2206C40.8781 18.2967 40.4129 18.3996 39.9477 18.4935C39.8582 18.5114 39.7464 18.5069 39.7866 18.6501ZM6.59363 9.17979C6.49969 9.2111 6.4639 9.29162 6.41021 9.34978C6.36101 9.40346 6.40127 9.45714 6.45048 9.50188C6.92466 9.91791 7.39437 10.3384 7.86409 10.7544C7.92224 10.8036 7.97145 10.8305 8.0296 10.7589C8.29354 10.4502 8.56194 10.1416 8.83035 9.83291C8.92429 9.72555 8.83483 9.68081 8.77667 9.61818C8.7051 9.53766 8.66036 9.57345 8.60668 9.64055C8.43669 9.84633 8.2488 10.0387 8.08329 10.2489C7.98934 10.3653 7.93119 10.3653 7.82383 10.2668C7.46595 9.9358 7.09465 9.61371 6.72783 9.29162C6.6831 9.24689 6.63836 9.2111 6.59363 9.17979ZM41.4507 27.6999C41.5939 27.7357 41.5402 27.5701 41.5849 27.4986C41.6565 27.3823 41.5536 27.3823 41.4865 27.3644C41.1152 27.2615 40.7395 27.1631 40.3682 27.0602C40.1311 26.9975 39.894 26.9349 39.6614 26.8633C39.5048 26.8186 39.5137 26.9528 39.4824 27.0289C39.4466 27.1049 39.4645 27.1675 39.5629 27.1944C40.1848 27.3509 40.7976 27.5209 41.4507 27.6999ZM31.1618 4.13821C31.1305 4.05321 31.0366 4.04874 30.9695 4.00848C30.8889 3.95927 30.8442 4.01295 30.8129 4.08005C30.54 4.63924 30.2716 5.19842 29.9898 5.74865C29.9227 5.87838 29.9808 5.90969 30.0703 5.96338C30.1821 6.026 30.2403 6.00364 30.294 5.8918C30.5579 5.34604 30.8263 4.80475 31.0947 4.26347C31.1171 4.2232 31.1394 4.18294 31.1618 4.13821ZM39.2543 16.476C39.2811 16.467 39.299 16.4581 39.3214 16.4536C39.9119 16.2523 40.5024 16.0465 41.0973 15.8452C41.2271 15.8005 41.1734 15.7379 41.1465 15.6618C41.1197 15.5813 41.1197 15.5008 40.99 15.5455C40.395 15.7558 39.7956 15.9615 39.1961 16.1673C39.129 16.1897 39.0798 16.2255 39.129 16.2926C39.1738 16.3507 39.1424 16.467 39.2543 16.476Z" fill="white"/>
<path d="M22.2193 43.7776C19.3116 43.7776 16.4933 43.2094 13.8361 42.0821C11.2728 40.9995 8.96899 39.4428 6.99172 37.4655C5.01446 35.4883 3.46217 33.1844 2.37513 30.6211C1.25229 27.9639 0.679688 25.1456 0.679688 22.2379C0.679688 19.3302 1.24782 16.5119 2.37513 13.8547C3.46217 11.2914 5.01446 8.98754 6.99172 7.01028C8.96899 5.03301 11.2728 3.48073 13.8361 2.39368C16.4933 1.27084 19.3116 0.698242 22.2193 0.698242C25.1271 0.698242 27.9454 1.26637 30.6026 2.39368C33.1659 3.48073 35.4697 5.03301 37.447 7.01028C39.4242 8.98754 40.9765 11.2914 42.0636 13.8547C43.1864 16.5119 43.759 19.3302 43.759 22.2379C43.759 25.1456 43.1909 27.9639 42.0636 30.6211C40.9765 33.1844 39.4242 35.4883 37.447 37.4655C35.4697 39.4428 33.1659 40.9951 30.6026 42.0821C27.9454 43.2094 25.1226 43.7776 22.2193 43.7776ZM22.2193 5.17616C12.8072 5.17616 5.14866 12.8347 5.14866 22.2468C5.14866 31.659 12.8072 39.3175 22.2193 39.3175C31.6315 39.3175 39.29 31.659 39.29 22.2468C39.2855 12.8302 31.6315 5.17616 22.2193 5.17616Z" fill="white"/>
<path d="M8.78578 33.5955C12.4182 37.6664 16.9185 39.8449 22.3761 39.8047C27.8382 39.7644 32.3027 37.5232 35.868 33.4121C36.038 33.9489 36.2125 34.4768 36.378 35.0047C36.4227 35.1523 36.4764 35.2373 36.6688 35.2104C37.4874 35.1075 38.3061 35.0226 39.1381 34.9599C35.027 40.1581 29.6947 43.1061 23.0427 43.3387C15.9343 43.5892 10.1591 40.762 5.62305 35.3536C5.63199 35.3312 5.64094 35.3044 5.64989 35.282C6.12855 35.3357 6.60273 35.3849 7.08139 35.4386C7.38558 35.4744 7.68978 35.5057 7.99397 35.5415C8.08792 35.5504 8.15949 35.5594 8.19528 35.4341C8.28475 35.121 8.39211 34.8123 8.495 34.5036C8.58894 34.2084 8.68736 33.9042 8.78578 33.5955ZM20.967 41.6209C20.967 41.7014 20.9625 41.7864 20.967 41.8669C20.9804 42.2024 21.2443 42.453 21.5933 42.4574C21.9601 42.4664 22.224 42.2472 22.2464 41.9027C22.2553 41.7461 22.2509 41.5896 22.2509 41.433C22.2464 41.102 22.0719 40.8828 21.7767 40.8246C21.4322 40.7575 21.1549 40.8917 21.0162 41.1825C20.9491 41.3256 20.9759 41.4733 20.967 41.6209ZM23.0784 42.0727C23.1948 41.9653 23.2753 41.8982 23.3424 41.8222C23.4184 41.7417 23.4989 41.6612 23.5571 41.5672C23.6958 41.348 23.6689 41.1199 23.49 40.9633C23.2261 40.7307 22.7653 40.762 22.5461 41.0393C22.5103 41.0841 22.394 41.1691 22.4879 41.2093C22.5908 41.2541 22.6982 41.4464 22.8414 41.2809C22.9442 41.1646 23.0695 41.1064 23.1858 41.2183C23.3111 41.3346 23.2037 41.4464 23.1232 41.5448C23.0784 41.5941 23.0292 41.6433 22.98 41.688C22.8369 41.8222 22.6982 41.9519 22.555 42.0817C22.4611 42.1667 22.4835 42.2785 22.5014 42.3724C22.5237 42.4753 22.6266 42.4261 22.6893 42.4261C22.9577 42.4306 23.2261 42.4216 23.4945 42.4306C23.6063 42.4351 23.6421 42.4037 23.651 42.283C23.66 42.1085 23.6108 42.0414 23.4318 42.0638C23.3334 42.0861 23.235 42.0727 23.0784 42.0727ZM24.501 42.0727C24.6039 41.9743 24.6755 41.9117 24.7381 41.849C24.8097 41.773 24.8857 41.7014 24.9439 41.6164C25.1273 41.3525 25.0825 41.0886 24.8365 40.9186C24.5547 40.7217 24.1073 40.8112 23.9284 41.0975C23.9016 41.1378 23.8434 41.2049 23.915 41.2272C24.0402 41.2675 24.1521 41.4688 24.3086 41.2541C24.3847 41.1512 24.501 41.1467 24.6084 41.2183C24.7336 41.3077 24.6665 41.3972 24.5994 41.4822C24.5457 41.5493 24.4876 41.6164 24.4205 41.679C24.2729 41.8222 24.1208 41.9653 23.9642 42.104C23.8658 42.189 23.9016 42.3009 23.9195 42.3948C23.9373 42.4753 24.0358 42.4306 24.0939 42.4351C24.3668 42.4395 24.6442 42.4306 24.9215 42.4395C25.0378 42.444 25.0647 42.4037 25.0736 42.2874C25.087 42.104 25.0199 42.0503 24.8499 42.0727C24.756 42.0817 24.6531 42.0727 24.501 42.0727ZM20.1707 42.0727C20.3273 41.9072 20.4838 41.8043 20.5867 41.6522C20.6807 41.518 20.7612 41.3793 20.7075 41.2004C20.6494 40.9901 20.5062 40.8738 20.3049 40.8291C20.0365 40.7709 19.7994 40.838 19.6294 41.0572C19.5981 41.093 19.4684 41.1646 19.5936 41.2228C19.692 41.2675 19.7905 41.4151 19.9157 41.2943C20.032 41.1825 20.1573 41.102 20.2781 41.2228C20.4123 41.357 20.2825 41.4822 20.1841 41.5806C20.0097 41.7506 19.8307 41.9206 19.6518 42.0861C19.5578 42.1711 19.5802 42.283 19.5981 42.3769C19.616 42.4798 19.7234 42.4306 19.786 42.4306C20.0454 42.4351 20.3049 42.4261 20.5688 42.4351C20.7209 42.444 20.7478 42.3858 20.7523 42.2472C20.7567 42.0861 20.6941 42.0593 20.5599 42.0682C20.4391 42.0817 20.3228 42.0727 20.1707 42.0727ZM19.0031 41.2764C18.8018 41.2764 18.6497 41.4241 18.6497 41.6254C18.6497 41.8267 18.7974 41.9832 18.9942 41.9877C19.191 41.9922 19.3476 41.8311 19.3521 41.6343C19.3521 41.4375 19.2 41.2809 19.0031 41.2764ZM25.6507 41.2764C25.4538 41.2764 25.3017 41.4285 25.2973 41.6254C25.2928 41.8222 25.4494 41.9832 25.6417 41.9832C25.843 41.9877 26.013 41.8177 26.0086 41.6209C26.0086 41.433 25.8475 41.2809 25.6507 41.2764Z" fill="#221F51"/>
<path d="M20.967 41.6209C20.9715 41.4733 20.9491 41.3256 21.0162 41.1825C21.1549 40.8917 21.4322 40.7575 21.7767 40.8246C22.0719 40.8828 22.2464 41.102 22.2509 41.433C22.2553 41.5896 22.2598 41.7461 22.2464 41.9027C22.224 42.2472 21.9601 42.4619 21.5933 42.4574C21.2443 42.4485 20.9759 42.2024 20.967 41.8669C20.967 41.7819 20.967 41.7014 20.967 41.6209ZM21.8706 41.6432C21.8706 41.5627 21.8706 41.4777 21.8706 41.3972C21.8706 41.2317 21.7588 41.178 21.6246 41.1735C21.4904 41.1691 21.3741 41.2227 21.3696 41.3883C21.3651 41.5538 21.3651 41.7148 21.3696 41.8803C21.3741 42.0459 21.4859 42.0951 21.6246 42.0906C21.7633 42.0861 21.8706 42.0369 21.8706 41.8669C21.8706 41.7953 21.8706 41.7193 21.8706 41.6432Z" fill="white"/>
<path d="M23.0783 42.0728C23.2349 42.0728 23.3378 42.0817 23.4407 42.0683C23.6196 42.0459 23.6688 42.113 23.6599 42.2875C23.6509 42.4083 23.6151 42.4396 23.5033 42.4351C23.2349 42.4262 22.9665 42.4351 22.6981 42.4307C22.631 42.4307 22.5281 42.4799 22.5102 42.377C22.4923 42.283 22.4699 42.1712 22.5639 42.0862C22.707 41.9565 22.8502 41.8267 22.9889 41.6925C23.0381 41.6478 23.0873 41.6031 23.132 41.5494C23.2125 41.451 23.3199 41.3347 23.1946 41.2228C23.0783 41.1155 22.9531 41.1691 22.8502 41.2854C22.7026 41.451 22.5997 41.2541 22.4968 41.2139C22.4028 41.1736 22.5192 41.0886 22.5549 41.0439C22.7697 40.7665 23.2349 40.7352 23.4988 40.9678C23.6733 41.1244 23.7046 41.357 23.5659 41.5717C23.5078 41.6657 23.4273 41.7462 23.3512 41.8267C23.2662 41.8983 23.1946 41.9654 23.0783 42.0728Z" fill="white"/>
<path d="M24.5012 42.0731C24.6533 42.0731 24.7562 42.082 24.8546 42.0731C25.0246 42.0507 25.0917 42.1088 25.0783 42.2878C25.0693 42.4041 25.0425 42.4399 24.9262 42.4399C24.6533 42.4309 24.3759 42.4399 24.0986 42.4354C24.0404 42.4354 23.942 42.4801 23.9241 42.3951C23.9062 42.3012 23.8704 42.1894 23.9688 42.1044C24.1209 41.9657 24.273 41.8225 24.4251 41.6794C24.4878 41.6168 24.5459 41.5497 24.6041 41.4826C24.6712 41.3976 24.7338 41.3036 24.613 41.2186C24.5057 41.1426 24.3894 41.1515 24.3133 41.2544C24.1612 41.4691 24.0449 41.2634 23.9196 41.2276C23.8481 41.2052 23.9062 41.1381 23.9331 41.0978C24.112 40.8115 24.5638 40.7266 24.8412 40.9189C25.0872 41.0889 25.1319 41.3573 24.9485 41.6168C24.8904 41.7018 24.8143 41.7733 24.7428 41.8494C24.6757 41.9165 24.6041 41.9746 24.5012 42.0731Z" fill="white"/>
<path d="M20.1707 42.0731C20.3273 42.0731 20.4391 42.082 20.5554 42.0731C20.6896 42.0641 20.7523 42.091 20.7478 42.252C20.7433 42.3952 20.7165 42.4489 20.5644 42.4399C20.3049 42.4265 20.0454 42.4399 19.7815 42.4354C19.7144 42.4354 19.6115 42.4846 19.5936 42.3818C19.5757 42.2878 19.5534 42.176 19.6473 42.091C19.8262 41.9255 20.0052 41.7555 20.1797 41.5855C20.2825 41.4871 20.4123 41.3663 20.2736 41.2276C20.1528 41.1068 20.0231 41.1874 19.9112 41.2992C19.7905 41.42 19.6876 41.2723 19.5892 41.2276C19.4639 41.1695 19.5936 41.0979 19.6249 41.0621C19.7949 40.8384 20.0365 40.7758 20.3004 40.8339C20.5017 40.8787 20.6449 40.995 20.703 41.2052C20.7567 41.3842 20.6717 41.5229 20.5823 41.6571C20.4838 41.8047 20.3273 41.9076 20.1707 42.0731Z" fill="white"/>
<path d="M19.0034 41.2764C19.2002 41.2764 19.3568 41.4374 19.3523 41.6342C19.3479 41.8311 19.1913 41.9876 18.9945 41.9876C18.7976 41.9832 18.6455 41.8266 18.65 41.6253C18.65 41.4285 18.8021 41.2764 19.0034 41.2764Z" fill="white"/>
<path d="M25.6509 41.2764C25.8477 41.2764 26.0043 41.4285 26.0087 41.6253C26.0132 41.8221 25.8432 41.9921 25.6419 41.9876C25.4451 41.9832 25.293 41.8266 25.2975 41.6298C25.3019 41.4285 25.454 41.2764 25.6509 41.2764Z" fill="white"/>
<path d="M3.94141 22.4932L4.03535 24.0768L1.82099 24.211L1.72705 22.6497L1.95967 22.6363L2.03572 23.9202L2.76042 23.8755L2.69331 22.7303L2.92593 22.7168L2.99304 23.862L3.78484 23.8128L3.70431 22.5066L3.94141 22.4932Z" fill="#221F51"/>
<path d="M1.79373 24.2328L1.69531 22.6269L1.97267 22.609L2.04871 23.8929L2.72868 23.8526L2.66158 22.7074L2.93893 22.6895L3.00603 23.8347L3.7531 23.79L3.67258 22.4837L3.95888 22.4658L4.05729 24.0942H4.03493L1.79373 24.2328ZM1.74452 22.6716L1.83399 24.1881L4.00361 24.0584L3.91414 22.5195L3.71731 22.5284L3.79783 23.8347L2.9613 23.8884L2.8942 22.7432L2.70631 22.7521L2.77341 23.8973L2.00398 23.9465L1.92793 22.6627L1.74452 22.6716Z" fill="#221F51"/>
<path d="M4.05756 20.3321L4.0173 20.7928L1.73584 21.3565L1.76268 21.0612L3.90994 20.5513L1.89241 19.6566L1.91925 19.3613L4.05756 20.3321Z" fill="#221F51"/>
<path d="M1.70898 21.3834L1.7403 21.0434L3.83834 20.5469L1.86556 19.6701L1.89687 19.3301L4.07991 20.3187L4.03518 20.8108L1.70898 21.3834ZM1.78056 21.0747L1.75819 21.3208L3.99492 20.7705L4.03071 20.3411L1.93266 19.3927L1.91029 19.6387L3.97702 20.5513L1.78056 21.0747Z" fill="#221F51"/>
<path d="M3.84258 17.075L4.74174 16.8558L4.6657 17.16L3.65022 17.4015L3.48918 18.0412L4.38387 18.2694L4.31677 18.5423L2.16504 17.9965L2.4066 17.0481C2.44239 16.905 2.50055 16.7797 2.58107 16.6813C2.66159 16.5784 2.75553 16.5068 2.86737 16.4666C2.97921 16.4263 3.09552 16.4219 3.22077 16.4532C3.39524 16.4979 3.52497 16.5918 3.60549 16.735C3.68601 16.8781 3.71732 17.0481 3.69048 17.2405C3.72627 17.1421 3.77548 17.0884 3.84258 17.075ZM3.4355 17.321C3.47128 17.1734 3.46681 17.0437 3.41313 16.9318C3.35945 16.82 3.27445 16.7484 3.1492 16.7171C3.02394 16.6858 2.91658 16.7082 2.81816 16.7842C2.71975 16.8603 2.65264 16.9676 2.61686 17.1152L2.45134 17.7773L3.26998 17.9831L3.4355 17.321Z" fill="#221F51"/>
<path d="M4.33025 18.5694L2.13379 18.0147L2.37983 17.044C2.41562 16.8964 2.47824 16.7666 2.55877 16.6682C2.64376 16.5608 2.7377 16.4893 2.85401 16.449C2.97032 16.4087 3.09111 16.4043 3.22084 16.4356C3.40425 16.4803 3.53845 16.5787 3.61897 16.7264C3.68608 16.8471 3.72186 16.9858 3.71739 17.1379C3.75318 17.0932 3.78896 17.0663 3.83817 17.0574L4.77312 16.8293L4.68366 17.1827L3.66818 17.4242L3.51609 18.0281L4.41078 18.2563L4.33025 18.5694ZM2.18747 17.9834L4.29894 18.5157L4.35709 18.2876L3.4624 18.0595L3.63239 17.384L3.64581 17.3795L3.66371 17.2363C3.69055 17.0529 3.66371 16.8874 3.58319 16.7443C3.50714 16.6101 3.38188 16.5161 3.21189 16.4714C3.09111 16.4401 2.97927 16.4445 2.87191 16.4848C2.76455 16.5251 2.67508 16.5922 2.59455 16.6906C2.51851 16.7845 2.46035 16.9053 2.42456 17.0485L2.18747 17.9834ZM4.71049 16.8874L3.84712 17.0977C3.78896 17.1111 3.74423 17.1558 3.70844 17.2498L3.65476 17.3795L4.64787 17.1424L4.71049 16.8874ZM3.28347 18.0102L2.42456 17.7955L2.59455 17.1111C2.63034 16.959 2.69744 16.8471 2.80481 16.7666C2.9077 16.6861 3.024 16.6637 3.15373 16.695C3.28347 16.7264 3.37293 16.8024 3.43109 16.9232C3.48477 17.035 3.49372 17.1692 3.45346 17.3258L3.28347 18.0102ZM2.47825 17.7642L3.25215 17.961L3.41319 17.3213C3.44898 17.1737 3.44004 17.0529 3.39083 16.9456C3.33715 16.8382 3.25662 16.7711 3.14032 16.7443C3.01953 16.7129 2.92112 16.7353 2.82717 16.8069C2.73323 16.8829 2.66613 16.9858 2.63482 17.1245L2.47825 17.7642Z" fill="#221F51"/>
<path d="M5.12159 13.2462L5.75682 14.293L5.60472 14.5793L4.94265 13.3983L3.6543 13.5146L3.80192 13.2373L4.97396 13.1657L4.36558 12.1637L4.5132 11.8818L5.14843 13.0091L6.49494 12.8928L6.34731 13.1747L5.12159 13.2462Z" fill="#221F51"/>
<path d="M5.60494 14.6283L4.92945 13.425L3.61426 13.5458L3.78872 13.2192L4.93393 13.1476L4.33896 12.1679L4.51342 11.8369L5.16207 12.9866L6.53542 12.8703L6.36096 13.2013L5.16207 13.2729L5.78388 14.2973L5.60494 14.6283ZM4.95629 13.3758L5.60494 14.5344L5.7302 14.2973L5.08602 13.2282L6.33412 13.1566L6.4549 12.924L5.13523 13.0358L4.5179 11.9309L4.39711 12.1635L5.01892 13.1834L3.82451 13.255L3.70373 13.4831L4.95629 13.3758Z" fill="#221F51"/>
<path d="M6.85371 11.3544L7.18475 11.8555L7.01028 12.0881L5.73535 10.0884L5.98586 9.75293L8.2539 10.4329L8.07944 10.6655L7.50684 10.4866L6.85371 11.3544ZM5.94113 9.98108L6.71056 11.1486L7.27422 10.4016L5.94113 9.98108Z" fill="#221F51"/>
<path d="M7.00531 12.1277L5.70801 10.0923L5.97641 9.73438L8.29366 10.4278L8.09236 10.6962L7.51975 10.5172L6.88005 11.3582L7.21109 11.8593L7.00531 12.1277ZM5.76169 10.0878L7.00978 12.0427L7.1574 11.8503L6.82637 11.3493L7.50186 10.4591L8.07446 10.638L8.22208 10.4457L5.99878 9.77911L5.76169 10.0878ZM6.71006 11.1882L5.89142 9.94462L7.31397 10.392L6.71006 11.1882ZM5.99431 10.0207L6.71006 11.1077L7.23345 10.4099L5.99431 10.0207Z" fill="#221F51"/>
<path d="M10.0474 8.60228L8.99166 9.63118L7.44385 8.03863L7.64515 7.8418L9.02745 9.25988L9.88188 8.42782L10.0474 8.60228Z" fill="#221F51"/>
<path d="M8.99172 9.65808L7.4126 8.03869L7.64522 7.81055L9.02751 9.22863L9.88194 8.39657L10.0832 8.60235L8.99172 9.65808ZM7.47523 8.03869L8.9962 9.59545L10.0206 8.59787L9.88194 8.45472L9.02304 9.29126L7.64074 7.87317L7.47523 8.03869Z" fill="#221F51"/>
<path d="M11.8149 7.56524C11.8372 7.60103 11.873 7.61892 11.9133 7.6234C11.9535 7.62787 11.9938 7.60998 12.0385 7.57866L12.3919 7.32815L12.4904 7.46683L12.0117 7.80234C11.9401 7.85154 11.8686 7.87391 11.797 7.86944C11.7254 7.86496 11.6717 7.82918 11.627 7.76655C11.5867 7.70839 11.5733 7.64576 11.5867 7.56972C11.6001 7.49814 11.6315 7.42209 11.6807 7.34604C11.5151 7.45788 11.3407 7.51603 11.1528 7.52498C10.9649 7.53393 10.786 7.49367 10.6115 7.40867C10.4415 7.32368 10.2939 7.19395 10.1731 7.02395C10.0523 6.84949 9.97628 6.66608 9.95391 6.47372C9.93155 6.27689 9.95839 6.09348 10.0344 5.91901C10.1105 5.74455 10.2313 5.59692 10.3968 5.48061C10.5623 5.3643 10.7412 5.2972 10.9336 5.28378C11.126 5.27036 11.3094 5.31062 11.4838 5.39562C11.6583 5.48062 11.8059 5.61034 11.9267 5.78481C12.0296 5.93243 12.1012 6.09348 12.1325 6.26347C12.1638 6.43346 12.1549 6.59898 12.1101 6.76002C12.0654 6.92107 11.9804 7.06422 11.8641 7.18947C11.7791 7.36394 11.7612 7.48919 11.8149 7.56524ZM10.7457 7.17158C10.8799 7.24315 11.0186 7.27894 11.1617 7.27447C11.3049 7.27 11.4436 7.22526 11.5688 7.13579C11.6941 7.04632 11.7836 6.93449 11.8372 6.79581C11.8909 6.65713 11.9043 6.51398 11.8775 6.36636C11.8551 6.21426 11.797 6.07558 11.7075 5.95033C11.6136 5.81612 11.4973 5.71324 11.3631 5.64166C11.2288 5.57008 11.0902 5.5343 10.9425 5.53877C10.7949 5.54324 10.6607 5.58798 10.5355 5.67745C10.4102 5.76692 10.3207 5.87875 10.2671 6.01296C10.2134 6.14716 10.2 6.29031 10.2223 6.43793C10.2447 6.58556 10.3028 6.72871 10.3968 6.85844C10.4997 6.99264 10.6115 7.09553 10.7457 7.17158Z" fill="#221F51"/>
<path d="M11.8099 7.89156C11.8054 7.89156 11.7965 7.89156 11.792 7.89156C11.716 7.88708 11.6578 7.85129 11.6041 7.77972C11.5594 7.71709 11.546 7.64552 11.5594 7.56499C11.5683 7.51579 11.5862 7.4621 11.6131 7.4129C11.4699 7.49789 11.3133 7.53815 11.1478 7.5471C10.9599 7.55605 10.7765 7.51579 10.5976 7.43079C10.4231 7.34579 10.2755 7.21159 10.1502 7.0416C10.025 6.85819 9.94894 6.6703 9.92657 6.48242C9.9042 6.28111 9.93104 6.0977 10.0071 5.91876C10.0831 5.73982 10.2084 5.58773 10.3784 5.47142C10.5484 5.35063 10.7318 5.28353 10.9241 5.27011C11.112 5.25669 11.3044 5.29695 11.4833 5.38195C11.6623 5.46694 11.8099 5.60115 11.9351 5.78009C12.0425 5.93666 12.1141 6.0977 12.1454 6.26769C12.1767 6.43768 12.1678 6.60768 12.123 6.77319C12.0783 6.92976 11.9933 7.07739 11.8725 7.20712C11.792 7.37264 11.7741 7.48894 11.8233 7.55605C11.8412 7.58289 11.868 7.60078 11.9038 7.60525C11.9351 7.60973 11.9665 7.59631 12.0157 7.56499L12.387 7.30106L12.5122 7.47552L12.0157 7.82445C11.953 7.86919 11.8815 7.89156 11.8099 7.89156ZM11.7562 7.26527L11.6981 7.35921C11.6533 7.43079 11.622 7.50236 11.6086 7.57394C11.5952 7.64104 11.6086 7.6992 11.6444 7.75288C11.6891 7.81103 11.7338 7.84235 11.7965 7.84682C11.8636 7.85129 11.9307 7.82893 11.9978 7.78419L12.4585 7.4621L12.387 7.35921L12.0515 7.59631C11.9978 7.63657 11.953 7.64999 11.9128 7.64552C11.8636 7.64104 11.8233 7.61867 11.7965 7.57841C11.7383 7.49789 11.7562 7.36369 11.8457 7.18028L11.8502 7.1758C11.9665 7.05055 12.047 6.9074 12.0917 6.7553C12.1365 6.59425 12.1454 6.43321 12.1141 6.26769C12.0828 6.10665 12.0157 5.94561 11.9128 5.79798C11.7965 5.62799 11.6488 5.49826 11.4789 5.41774C11.3044 5.33274 11.121 5.29695 10.942 5.31037C10.7586 5.32379 10.5797 5.38642 10.4186 5.50273C10.2576 5.61457 10.1413 5.75772 10.0652 5.93218C9.9892 6.10218 9.96236 6.28111 9.98472 6.47347C10.0071 6.65688 10.0787 6.83582 10.1994 7.01476C10.3202 7.18028 10.4634 7.31001 10.6289 7.39053C10.8034 7.47552 10.9778 7.51131 11.1568 7.50236C11.3447 7.49342 11.5102 7.43526 11.6712 7.3279L11.7562 7.26527ZM11.1344 7.29659C11.0002 7.29659 10.8615 7.2608 10.7318 7.18922C10.5976 7.11317 10.4858 7.01029 10.3784 6.87161C10.2844 6.74188 10.2218 6.59425 10.1994 6.44216C10.1771 6.28559 10.1905 6.14243 10.2442 6.00823C10.2979 5.86955 10.3918 5.75325 10.5215 5.66378C10.6513 5.57431 10.7855 5.5251 10.942 5.52063C11.0897 5.51615 11.2328 5.55194 11.3715 5.62799C11.5102 5.70404 11.631 5.80693 11.7249 5.94113C11.8188 6.07086 11.877 6.21401 11.8994 6.36611C11.9262 6.5182 11.9128 6.66583 11.8591 6.80451C11.8054 6.94766 11.716 7.05949 11.5817 7.15344C11.4565 7.24291 11.3133 7.29211 11.1612 7.29659C11.1523 7.29659 11.1433 7.29659 11.1344 7.29659ZM10.7542 7.15344C10.8884 7.22501 11.0226 7.25633 11.1568 7.25185C11.2999 7.24738 11.4341 7.20264 11.5504 7.11765C11.6757 7.02818 11.7607 6.92082 11.8099 6.78661C11.8636 6.65241 11.877 6.51373 11.8502 6.37058C11.8278 6.22296 11.7741 6.08875 11.6846 5.9635C11.5952 5.83377 11.4789 5.73088 11.3491 5.66378C11.2149 5.5922 11.0807 5.56089 10.942 5.56536C10.7989 5.56983 10.6692 5.61457 10.5484 5.69956C10.4276 5.78456 10.3381 5.8964 10.2889 6.02613C10.2397 6.15138 10.2218 6.29453 10.2442 6.43768C10.2666 6.58531 10.3247 6.72399 10.4142 6.84924C10.5171 6.98345 10.6244 7.07739 10.7542 7.15344Z" fill="#221F51"/>
<path d="M13.6126 5.48028L13.6753 6.07525L13.4158 6.20051L13.2056 3.843L13.5858 3.66406L15.2902 5.31476L15.0307 5.44002L14.6058 5.01504L13.6126 5.48028ZM13.4382 3.84747L13.5858 5.23872L14.4268 4.83611L13.4382 3.84747Z" fill="#221F51"/>
<path d="M13.3978 6.23579L13.1831 3.82908L13.5902 3.63672L13.5991 3.64567L15.3259 5.31874L15.0217 5.46636L14.5967 5.04138L13.6349 5.49768L13.6976 6.09264L13.3978 6.23579ZM13.2278 3.85592L13.4336 6.16869L13.6483 6.0658L13.5857 5.47083L14.6057 4.9877L15.0306 5.41268L15.2454 5.30979L13.5768 3.69488L13.2278 3.85592ZM13.5678 5.26953L13.4113 3.78434L14.467 4.84008L13.5678 5.26953ZM13.4694 3.90513L13.6081 5.20243L14.3909 4.82666L13.4694 3.90513Z" fill="#221F51"/>
<path d="M17.3214 3.79433L17.9701 4.46088L17.6704 4.55035L16.9457 3.79433L16.3104 3.97775L16.5699 4.86349L16.3015 4.93954L15.6797 2.8057L16.6191 2.53282C16.7623 2.49256 16.8965 2.47914 17.0262 2.49703C17.1559 2.51493 17.2633 2.55966 17.3572 2.63571C17.4467 2.71176 17.5138 2.81018 17.5496 2.93543C17.5988 3.1099 17.5854 3.26647 17.5004 3.40962C17.4154 3.55277 17.2857 3.66461 17.1067 3.74065C17.2007 3.72276 17.2767 3.74065 17.3214 3.79433ZM16.9054 3.56619C17.053 3.52145 17.1604 3.44988 17.2275 3.35146C17.2991 3.24857 17.3125 3.13674 17.2767 3.01596C17.2409 2.89517 17.1649 2.81018 17.053 2.76544C16.9412 2.72071 16.8115 2.71623 16.6638 2.76097L16.0062 2.95333L16.2433 3.76302L16.9054 3.56619Z" fill="#221F51"/>
<path d="M16.2876 4.96572L15.6523 2.79162L16.6141 2.51427C16.7662 2.47401 16.9004 2.46059 17.0302 2.47848C17.1644 2.49637 17.2762 2.54558 17.3701 2.62163C17.4686 2.70215 17.5357 2.80951 17.5715 2.9303C17.6251 3.11371 17.6072 3.27475 17.5222 3.42238C17.4507 3.54316 17.3478 3.64158 17.2136 3.71315C17.2673 3.7221 17.3075 3.74446 17.3388 3.78025L18.0099 4.47364L17.6609 4.57653L16.9362 3.82051L16.3368 3.99498L16.5962 4.88072L16.2876 4.96572ZM15.7105 2.82294L16.3189 4.91203L16.5426 4.84941L16.2831 3.96367L16.9541 3.7713L16.9631 3.78025L17.1017 3.7221C17.2717 3.65052 17.4015 3.54316 17.4865 3.40001C17.567 3.26581 17.5804 3.11371 17.5312 2.94372C17.4999 2.82741 17.4372 2.73347 17.3478 2.65742C17.2583 2.58584 17.1554 2.54111 17.0302 2.52321C16.9049 2.50532 16.7752 2.51874 16.632 2.559L15.7105 2.82294ZM16.972 3.7892L17.6788 4.52285L17.9293 4.4468L17.3075 3.80709C17.2583 3.74894 17.1733 3.74894 17.1152 3.76236L16.972 3.7892ZM16.2294 3.7892L15.9789 2.93924L16.6589 2.74241C16.8065 2.69768 16.9407 2.69768 17.0615 2.74689C17.1778 2.79162 17.2628 2.88556 17.2986 3.01082C17.3388 3.14055 17.3209 3.26133 17.2449 3.36422C17.1733 3.46711 17.0615 3.54316 16.9094 3.58789L16.2294 3.7892ZM16.0371 2.97056L16.2607 3.73552L16.9004 3.54316C17.0436 3.49843 17.1465 3.43132 17.2091 3.33738C17.2762 3.24344 17.2896 3.14055 17.2538 3.01977C17.2181 2.90346 17.1509 2.82741 17.0436 2.78267C16.9317 2.73794 16.8065 2.73794 16.6678 2.7782L16.0371 2.97056Z" fill="#221F51"/>
<path d="M19.495 4.04398C19.3206 3.96345 19.1774 3.84267 19.0656 3.68163C18.9538 3.52058 18.8867 3.33717 18.8598 3.12692C18.833 2.91667 18.8598 2.71983 18.9314 2.53642C19.003 2.35301 19.1148 2.20539 19.2669 2.08461C19.419 1.9683 19.5935 1.89672 19.7948 1.86988C19.9961 1.84751 20.184 1.87435 20.3584 1.95487C20.5329 2.0354 20.676 2.15618 20.7879 2.31722C20.8997 2.47827 20.9713 2.66168 20.9937 2.87193C21.016 3.07771 20.9937 3.27454 20.9221 3.45795C20.8505 3.64136 20.7387 3.79346 20.5866 3.90977C20.4345 4.03056 20.26 4.10213 20.0587 4.1245C19.8574 4.15581 19.6695 4.1245 19.495 4.04398ZM20.43 3.71741C20.5418 3.62347 20.6224 3.50269 20.6716 3.35954C20.7208 3.21639 20.7387 3.06876 20.7208 2.91219C20.7029 2.75115 20.6492 2.60353 20.5687 2.47827C20.4837 2.34854 20.3763 2.2546 20.2466 2.18749C20.1169 2.12039 19.9737 2.09802 19.8261 2.11592C19.674 2.13381 19.5398 2.19197 19.4324 2.28591C19.3206 2.37985 19.2401 2.49616 19.1909 2.63931C19.1416 2.78246 19.1238 2.93456 19.1461 3.09113C19.164 3.25218 19.2177 3.3998 19.2982 3.52505C19.3787 3.65478 19.4861 3.74873 19.6158 3.81583C19.7456 3.88293 19.8887 3.9053 20.0408 3.88741C20.184 3.86951 20.3182 3.81583 20.43 3.71741Z" fill="#221F51"/>
<path d="M19.9065 4.15572C19.7634 4.15572 19.6202 4.1244 19.486 4.06177C19.3071 3.98125 19.1594 3.856 19.0476 3.69048C18.9358 3.52943 18.8642 3.34155 18.8374 3.12683C18.8105 2.92105 18.8374 2.71974 18.9089 2.52738C18.9805 2.34397 19.0923 2.19187 19.2489 2.06662C19.4055 1.94583 19.5799 1.87426 19.7857 1.84742C19.9915 1.82505 20.1883 1.85189 20.3628 1.93241C20.5417 2.01294 20.6894 2.13819 20.8012 2.30371C20.9175 2.4737 20.9891 2.66159 21.0115 2.86737C21.0338 3.07762 21.0115 3.27892 20.9399 3.46233C20.8683 3.65022 20.752 3.80679 20.5954 3.9231C20.4389 4.04836 20.2644 4.11993 20.0586 4.1423C20.0094 4.15572 19.9602 4.15572 19.9065 4.15572ZM19.9289 1.88768C19.8841 1.88768 19.8439 1.89215 19.7991 1.89663C19.6023 1.92347 19.4323 1.99057 19.2847 2.10688C19.1326 2.22766 19.0252 2.37081 18.9581 2.54975C18.8866 2.73316 18.8642 2.92999 18.8866 3.12683C18.9134 3.33708 18.9805 3.51602 19.0879 3.67259C19.1952 3.82916 19.3384 3.94994 19.5084 4.02599C19.6828 4.10651 19.8707 4.13335 20.0586 4.10651C20.2554 4.08414 20.4254 4.01704 20.5775 3.89626C20.7252 3.78442 20.837 3.6368 20.9041 3.45339C20.9712 3.27892 20.998 3.08209 20.9757 2.88079C20.9533 2.68395 20.8862 2.50054 20.7744 2.33502C20.667 2.17845 20.5238 2.05767 20.3539 1.98162C20.2197 1.91899 20.0765 1.88768 19.9289 1.88768ZM19.9423 3.91415C19.8215 3.91415 19.7097 3.88731 19.6068 3.83363C19.4681 3.76205 19.3608 3.66364 19.2802 3.53391C19.1952 3.40418 19.1416 3.25208 19.1237 3.09104C19.1013 2.93894 19.1192 2.78237 19.1684 2.63027C19.2176 2.48265 19.2981 2.36634 19.4144 2.26792C19.5263 2.17398 19.6649 2.11135 19.8215 2.09346C19.9781 2.07556 20.1212 2.09793 20.2554 2.16951C20.3941 2.24108 20.5015 2.3395 20.5865 2.46923C20.6715 2.59896 20.7252 2.75106 20.743 2.9121C20.7609 3.06867 20.743 3.21629 20.6938 3.36839C20.6446 3.51601 20.5596 3.64127 20.4478 3.73521C20.336 3.83363 20.2018 3.89179 20.0452 3.90968C20.0094 3.91415 19.9781 3.91415 19.9423 3.91415ZM19.9244 2.13372C19.8931 2.13372 19.8618 2.13372 19.8305 2.13819C19.6828 2.15609 19.5531 2.20977 19.4502 2.30371C19.3384 2.39765 19.2623 2.50949 19.2131 2.64817C19.1639 2.79579 19.1505 2.94341 19.1684 3.09104C19.1863 3.24314 19.2355 3.39076 19.316 3.51602C19.3921 3.6368 19.4905 3.73074 19.6247 3.79784C19.7455 3.86047 19.8841 3.88284 20.0362 3.86494C20.1839 3.84705 20.3091 3.79337 20.412 3.69943C20.5194 3.60996 20.5999 3.49365 20.6446 3.3505C20.6938 3.20735 20.7117 3.0642 20.6938 2.9121C20.6759 2.76 20.6267 2.61238 20.5462 2.48712C20.4657 2.36634 20.3628 2.27239 20.2331 2.20529C20.1391 2.16056 20.0362 2.13372 19.9244 2.13372Z" fill="#221F51"/>
<path d="M24.2467 1.84813L24.0723 3.19464C24.0454 3.40042 24.0812 3.56146 24.1751 3.69119C24.2691 3.81645 24.4122 3.8925 24.6001 3.91934C24.788 3.9417 24.9446 3.90592 25.0698 3.8075C25.1951 3.70909 25.2711 3.55699 25.298 3.36016L25.4724 2.01365L25.7498 2.04943L25.5753 3.40042C25.553 3.57935 25.4948 3.73145 25.4053 3.85224C25.3159 3.97302 25.1951 4.06249 25.0519 4.11617C24.9088 4.16985 24.7477 4.18327 24.5733 4.1609C24.3943 4.13853 24.2422 4.08038 24.117 3.99538C23.9917 3.90592 23.9023 3.79408 23.8441 3.65093C23.786 3.50778 23.7725 3.35121 23.7949 3.17227L23.9694 1.82129L24.2467 1.84813Z" fill="#221F51"/>
<path d="M24.7293 4.19156C24.6801 4.19156 24.6264 4.18708 24.5682 4.18261C24.3938 4.16024 24.2372 4.10209 24.103 4.01262C23.9733 3.91868 23.8793 3.80237 23.8212 3.65922C23.763 3.51607 23.7451 3.3595 23.772 3.17161L23.9509 1.80273L24.273 1.83405L24.0941 3.20293C24.0672 3.39976 24.103 3.55633 24.1925 3.68158C24.2819 3.80237 24.4206 3.87394 24.604 3.90078C24.7874 3.92315 24.9351 3.88736 25.0558 3.79342C25.1766 3.69948 25.2482 3.55633 25.275 3.3595L25.454 1.99062L25.7761 2.03088L25.5971 3.40423C25.5748 3.58317 25.5166 3.73974 25.4227 3.865C25.3287 3.99025 25.2079 4.07972 25.0603 4.13788C24.9574 4.17366 24.8501 4.19156 24.7293 4.19156ZM23.9912 1.84747L23.8212 3.17608C23.7988 3.35502 23.8122 3.50712 23.8704 3.64132C23.9241 3.78 24.0135 3.88736 24.1343 3.97683C24.2596 4.06183 24.4117 4.11551 24.5817 4.13788C24.7561 4.16024 24.9127 4.14682 25.0514 4.09314C25.1901 4.03946 25.3064 3.95446 25.3958 3.83815C25.4853 3.71737 25.539 3.56975 25.5613 3.39528L25.7313 2.06667L25.4987 2.03535L25.3287 3.3595C25.3019 3.56528 25.2214 3.72185 25.0916 3.82026C24.9619 3.91868 24.8009 3.95894 24.604 3.93657C24.4072 3.90973 24.2596 3.82921 24.1656 3.69948C24.0672 3.5608 24.0314 3.39528 24.0583 3.18503L24.2283 1.86089L23.9912 1.84747Z" fill="#221F51"/>
<path d="M28.5226 5.06842L28.0752 4.92975L27.5295 2.57672L26.9166 4.57635L26.6616 4.5003L27.3147 2.37988L27.7576 2.51409L28.3034 4.87159L28.9207 2.86749L29.1757 2.94354L28.5226 5.06842Z" fill="#221F51"/>
<path d="M28.536 5.09533L28.0573 4.94771L27.5295 2.66177L26.9345 4.60325L26.6348 4.51378L27.3013 2.34863L27.7755 2.49178L27.78 2.5052L28.3078 4.78219L28.9073 2.83624L29.207 2.92571L28.536 5.09533ZM28.0931 4.91192L28.5047 5.04165L29.1444 2.95702L28.9341 2.89439L28.2989 4.95665L27.7397 2.52757L27.3326 2.40231L26.6929 4.48247L26.9032 4.5451L27.5339 2.48284L28.0931 4.91192Z" fill="#221F51"/>
<path d="M30.8621 3.66807L29.9361 5.68559L29.6812 5.56928L30.6072 3.55176L30.8621 3.66807Z" fill="#221F51"/>
<path d="M29.9495 5.71697L29.6543 5.58277L30.5982 3.52051L30.8934 3.65471L29.9495 5.71697ZM29.7125 5.5604L29.9272 5.65882L30.8353 3.68155L30.6206 3.58314L29.7125 5.5604Z" fill="#221F51"/>
<path d="M31.9581 6.78588L31.5645 6.54431L32.0744 4.25391L32.3249 4.41048L31.8284 6.56221L33.5283 5.14412L33.7833 5.30069L31.9581 6.78588Z" fill="#221F51"/>
<path d="M31.9625 6.81294L31.542 6.55348L32.0609 4.21387L32.3517 4.39728L31.8686 6.4998L33.5282 5.1175L33.8235 5.30091L31.9625 6.81294ZM31.5912 6.53559L31.958 6.75926L33.7429 5.30539L33.5282 5.17566L31.7925 6.62506L32.298 4.42412L32.0878 4.29439L31.5912 6.53559Z" fill="#221F51"/>
<path d="M34.6645 8.84876L33.4521 7.82434L34.8881 6.12891L36.0825 7.13991L35.9304 7.31885L34.9508 6.48678L34.481 7.04149L35.3578 7.78408L35.2057 7.96302L34.3289 7.22043L33.8145 7.82434L34.8121 8.66982L34.6645 8.84876Z" fill="#221F51"/>
<path d="M34.6645 8.87957L33.4209 7.82831L34.8837 6.10156L36.1094 7.1394L35.9305 7.35413L34.9508 6.52207L34.5124 7.04099L35.3892 7.78358L35.2103 7.9983L34.3335 7.25571L33.8503 7.82384L34.8479 8.66932L34.6645 8.87957ZM33.4835 7.81937L34.66 8.81247L34.7808 8.66932L33.7832 7.82384L34.3245 7.18861L35.2013 7.9312L35.3266 7.78805L34.4498 7.04546L34.9463 6.45944L35.926 7.2915L36.0468 7.14835L34.8882 6.16866L33.4835 7.81937Z" fill="#221F51"/>
<path d="M36.9415 10.0881L36.6105 10.956L36.4047 10.7189L36.7849 9.74817L36.351 9.25161L35.6531 9.86L35.4697 9.64975L37.1473 8.19141L37.7914 8.92953C37.8899 9.04136 37.957 9.15767 37.9928 9.28293C38.0285 9.40818 38.033 9.52449 38.0062 9.6408C37.9749 9.75711 37.9122 9.85553 37.8138 9.94052C37.6796 10.0568 37.5275 10.1105 37.362 10.0971C37.1965 10.0837 37.0444 10.0076 36.8968 9.87789C36.9504 9.94947 36.9639 10.021 36.9415 10.0881ZM36.9683 9.60949C37.0667 9.7258 37.1786 9.7929 37.2994 9.81527C37.4202 9.83764 37.5275 9.80632 37.6259 9.72132C37.7199 9.63633 37.7646 9.53344 37.7601 9.41266C37.7557 9.29187 37.702 9.17109 37.6036 9.05925L37.1562 8.54481L36.521 9.09952L36.9683 9.60949Z" fill="#221F51"/>
<path d="M36.6195 11.0002L36.3824 10.7229L36.7626 9.75214L36.3511 9.28242L35.6532 9.89082L35.4385 9.64925L37.1473 8.16406L37.8049 8.92008C37.9078 9.03639 37.9749 9.15269 38.0107 9.28242C38.0465 9.41215 38.051 9.53294 38.0241 9.64925C37.9928 9.77003 37.9257 9.87292 37.8228 9.96239C37.6842 10.0832 37.5276 10.1369 37.3531 10.1234C37.2189 10.1145 37.0892 10.0608 36.9594 9.96686C36.9729 10.0116 36.9729 10.0563 36.9594 10.1011L36.6195 11.0002ZM36.4316 10.7139L36.6016 10.9108L36.9192 10.0787C36.9416 10.0161 36.9237 9.95344 36.8789 9.89082L36.7984 9.77898L36.4316 10.7139ZM36.8029 9.76556L36.9102 9.8595C37.0579 9.98923 37.2055 10.0608 37.3621 10.0742C37.5186 10.0876 37.6663 10.0384 37.796 9.92213C37.8899 9.84161 37.9526 9.74766 37.9794 9.63583C38.0062 9.52399 38.0018 9.41216 37.966 9.29137C37.9302 9.17059 37.8676 9.05875 37.7691 8.94692L37.1384 8.22669L35.4966 9.65372L35.6487 9.82819L36.3466 9.2198L36.8029 9.74319V9.76556ZM37.371 9.84608C37.3442 9.84608 37.3173 9.84161 37.2905 9.83713C37.1608 9.81477 37.0444 9.74319 36.946 9.62241L36.4853 9.09454L37.1518 8.51299L37.6126 9.04533C37.7155 9.16164 37.7691 9.2869 37.7736 9.41216C37.7781 9.53741 37.7289 9.64925 37.6305 9.73872C37.5589 9.81029 37.4694 9.84608 37.371 9.84608ZM36.5524 9.10349L36.9863 9.59557C37.0802 9.70293 37.1876 9.77003 37.3039 9.7924C37.4157 9.81477 37.5186 9.78345 37.6126 9.70293C37.702 9.62241 37.7423 9.52847 37.7378 9.41216C37.7334 9.29585 37.6797 9.17953 37.5857 9.07217L37.1518 8.57562L36.5524 9.10349Z" fill="#221F51"/>
<path d="M37.5141 11.9673C37.5275 11.7749 37.6125 11.605 37.7736 11.4618L37.9167 11.6855C37.8138 11.7928 37.7557 11.9136 37.7467 12.0434C37.7378 12.1731 37.7825 12.3118 37.872 12.4549C37.9614 12.5936 38.0643 12.6875 38.1851 12.7323C38.3059 12.777 38.4177 12.7681 38.5251 12.701C38.619 12.6428 38.6772 12.5712 38.6996 12.4862C38.7219 12.4012 38.7085 12.2983 38.6638 12.1776L38.4759 11.6721C38.4133 11.511 38.3954 11.3679 38.4222 11.2516C38.449 11.1352 38.5296 11.0368 38.6593 10.9518C38.7667 10.8847 38.874 10.8624 38.9903 10.8758C39.1022 10.8937 39.214 10.9384 39.3169 11.0234C39.4198 11.1084 39.5137 11.2068 39.5898 11.3321C39.7106 11.5244 39.7642 11.7078 39.7508 11.8823C39.7374 12.0568 39.6569 12.2044 39.5048 12.3341L39.3616 12.1105C39.46 12.021 39.5093 11.9181 39.5137 11.8018C39.5182 11.6855 39.4824 11.5692 39.4019 11.4439C39.3169 11.3097 39.223 11.2158 39.1156 11.1666C39.0082 11.1174 38.9098 11.1218 38.8159 11.18C38.7354 11.2337 38.6817 11.2918 38.6638 11.3634C38.6459 11.435 38.6593 11.52 38.6996 11.6273L38.9009 12.1552C38.968 12.3297 38.9859 12.4773 38.9501 12.6025C38.9188 12.7278 38.8338 12.8307 38.6906 12.9202C38.5743 12.9917 38.458 13.023 38.3327 13.0186C38.2075 13.0096 38.0912 12.9694 37.9749 12.8888C37.863 12.8128 37.7646 12.7054 37.6796 12.5712C37.5588 12.361 37.5007 12.1597 37.5141 11.9673Z" fill="#221F51"/>
<path d="M38.355 13.0405C38.3461 13.0405 38.3371 13.0405 38.3326 13.0405C38.1984 13.0315 38.0777 12.9868 37.9613 12.9063C37.8495 12.8302 37.7466 12.7229 37.6616 12.5842C37.5364 12.365 37.4782 12.1592 37.4916 11.9669C37.5051 11.7655 37.5945 11.5911 37.76 11.4479L37.7779 11.43L37.9435 11.6895L37.93 11.7029C37.8316 11.8058 37.7735 11.9221 37.7645 12.0474C37.7556 12.1682 37.7958 12.3024 37.8853 12.4455C37.9748 12.5842 38.0732 12.6692 38.185 12.7139C38.3013 12.7587 38.4042 12.7452 38.5071 12.6826C38.5966 12.6289 38.6503 12.5618 38.6726 12.4813C38.695 12.4008 38.6816 12.3068 38.6368 12.1861L38.449 11.6806C38.3863 11.515 38.3684 11.3719 38.3953 11.2466C38.4221 11.1258 38.5026 11.023 38.6413 10.9335C38.7487 10.8664 38.865 10.8395 38.9858 10.853C39.111 10.8753 39.2273 10.9245 39.3258 11.0051C39.4421 11.1035 39.5315 11.2064 39.6031 11.3182C39.7239 11.515 39.782 11.7029 39.7686 11.8819C39.7552 12.0608 39.6702 12.2129 39.5136 12.3471L39.4957 12.365L39.3302 12.1055L39.3436 12.0921C39.4376 12.0071 39.4823 11.9132 39.4868 11.8013C39.4913 11.6895 39.4555 11.5777 39.3794 11.4569C39.2944 11.3227 39.205 11.2332 39.1021 11.1885C39.0037 11.1437 38.9097 11.1482 38.8247 11.2019C38.7442 11.2556 38.6995 11.3093 38.6816 11.3719C38.6637 11.4345 38.6771 11.515 38.7174 11.6224L38.9187 12.1503C38.9902 12.3337 39.0037 12.4813 38.9679 12.611C38.9366 12.7408 38.8471 12.8481 38.6995 12.9421C38.5876 13.0047 38.4758 13.0405 38.355 13.0405ZM37.769 11.4971C37.6258 11.6313 37.5498 11.7879 37.5364 11.9713C37.523 12.1547 37.5766 12.3516 37.6974 12.5618C37.7824 12.696 37.8764 12.7989 37.9837 12.8705C38.0911 12.9465 38.2074 12.9868 38.3282 12.9957C38.449 13.0002 38.5608 12.9689 38.6726 12.9018C38.8113 12.8168 38.8918 12.7139 38.9231 12.5976C38.9589 12.4768 38.941 12.3381 38.8739 12.1637L38.6726 11.6358C38.6279 11.5195 38.6189 11.4345 38.6368 11.3585C38.6547 11.2869 38.7084 11.2243 38.7979 11.1616C38.9008 11.099 39.0037 11.0945 39.12 11.1482C39.2273 11.1974 39.3258 11.2914 39.4152 11.4345C39.4957 11.5642 39.536 11.685 39.5315 11.8058C39.5271 11.9221 39.4778 12.0295 39.3884 12.119L39.5092 12.3068C39.6434 12.1861 39.7149 12.0474 39.7284 11.8863C39.7418 11.7163 39.6881 11.5374 39.5718 11.3495C39.5047 11.2377 39.4152 11.1393 39.3034 11.0453C39.2094 10.9693 39.1066 10.9201 38.9858 10.9022C38.8695 10.8888 38.771 10.9111 38.6726 10.9737C38.5429 11.0587 38.4713 11.1527 38.4445 11.26C38.4176 11.3719 38.4355 11.5106 38.4982 11.6671L38.686 12.1726C38.7353 12.3024 38.7442 12.4052 38.7218 12.4947C38.6995 12.5842 38.6368 12.6602 38.5384 12.7229C38.4266 12.7944 38.3103 12.8034 38.1805 12.7542C38.0553 12.7094 37.9524 12.6155 37.8585 12.4679C37.7645 12.3158 37.7198 12.1726 37.7287 12.0429C37.7377 11.9132 37.7914 11.7924 37.8942 11.685L37.769 11.4971Z" fill="#221F51"/>
<path d="M40.8065 13.6226L38.8024 14.571L38.6816 14.3204L40.6857 13.3721L40.8065 13.6226Z" fill="#221F51"/>
<path d="M38.7891 14.6018L38.6504 14.311L40.6992 13.3447L40.8379 13.6355L38.7891 14.6018ZM38.7085 14.3334L38.8114 14.5436L40.7753 13.6176L40.6724 13.4074L38.7085 14.3334Z" fill="#221F51"/>
<path d="M41.46 15.9392L39.5812 16.5655L39.4917 16.3016L41.3705 15.6753L41.1379 14.9774L41.3661 14.9014L41.9208 16.561L41.6926 16.6371L41.46 15.9392Z" fill="#221F51"/>
<path d="M41.6791 16.6634L41.4465 15.9655L39.5721 16.5918L39.4692 16.2876L41.3481 15.6614L41.1155 14.9635L41.3839 14.874L41.952 16.5739L41.6791 16.6634ZM41.4733 15.9074L41.706 16.6052L41.8894 16.5426L41.3481 14.9277L41.1647 14.9903L41.3973 15.6882L39.5229 16.3145L39.599 16.5337L41.4733 15.9074Z" fill="#221F51"/>
<path d="M40.3506 19.8977L40.0732 18.332L42.2563 17.9473L42.5292 19.4906L42.2965 19.5309L42.0729 18.2649L41.3616 18.3901L41.5584 19.5174L41.3258 19.5577L41.129 18.4304L40.3461 18.5691L40.5743 19.8574L40.3506 19.8977Z" fill="#221F51"/>
<path d="M40.3327 19.9201L40.3282 19.8978L40.0464 18.3097L42.2742 17.916L42.556 19.4996L42.2786 19.5488L42.055 18.2828L41.3884 18.3991L41.5853 19.5265L41.3079 19.5757L41.1111 18.4484L40.373 18.5781L40.6011 19.8664L40.3327 19.9201ZM40.1001 18.3499L40.3685 19.8709L40.5519 19.8396L40.3237 18.5512L41.1513 18.4036L41.3482 19.5309L41.536 19.4996L41.3392 18.3723L42.0952 18.2381L42.3189 19.5041L42.5068 19.4728L42.2428 17.9742L40.1001 18.3499Z" fill="#221F51"/>
<path d="M42.4574 21.8481L40.4801 21.9018L40.4712 21.6244L42.4485 21.5707L42.4306 20.8326L42.6721 20.8281L42.7169 22.5772L42.4753 22.5817L42.4574 21.8481Z" fill="#221F51"/>
<path d="M42.4572 22.604L42.4393 21.8703L40.4621 21.924L40.4531 21.6019L42.4349 21.5483L42.417 20.8101L42.7033 20.8057L42.748 22.5995L42.4572 22.604ZM42.4796 21.8256L42.4975 22.5593L42.6943 22.5548L42.6496 20.8504L42.4528 20.8549L42.4706 21.593L40.4934 21.6467L40.5023 21.8793L42.4796 21.8256Z" fill="#221F51"/>
<path d="M42.6049 24.2511L40.395 24.0498L40.4219 23.7725L42.6317 23.9738L42.6049 24.2511Z" fill="#221F51"/>
<path d="M42.6272 24.273L40.3726 24.0672L40.4039 23.7451L42.6585 23.9509L42.6272 24.273ZM40.4173 24.0269L42.5824 24.2238L42.6048 23.9912L40.4397 23.7943L40.4173 24.0269Z" fill="#221F51"/>
<path d="M21.8706 41.6438C21.8706 41.7198 21.8706 41.7914 21.8706 41.8675C21.8706 42.033 21.7632 42.0867 21.6246 42.0911C21.4859 42.0956 21.374 42.0419 21.3696 41.8809C21.3651 41.7154 21.3651 41.5543 21.3696 41.3888C21.374 41.2233 21.4903 41.1696 21.6246 41.1741C21.7588 41.1786 21.8751 41.2322 21.8706 41.3978C21.8706 41.4828 21.8706 41.5633 21.8706 41.6438Z" fill="#221F51"/>
<path d="M26.7555 36.5166C28.4912 35.8053 29.9495 34.7183 31.1484 33.2868C31.3363 33.0631 31.5108 32.826 31.7165 32.5621C30.7458 32.5621 29.8332 32.5621 28.9206 32.5576C28.8088 32.5576 28.7864 32.6203 28.7596 32.7008C28.527 33.3852 28.2317 34.0428 27.9007 34.6825C27.5696 35.3267 27.1447 35.9082 26.7286 36.4898C26.7107 36.4943 26.6884 36.4987 26.7018 36.5256C26.7063 36.5301 26.7376 36.5211 26.7555 36.5166ZM17.8623 36.5166C17.8802 36.5211 17.9115 36.5345 17.9159 36.5256C17.9338 36.4987 17.9115 36.4943 17.8891 36.4898C17.8846 36.4764 17.8846 36.4585 17.8757 36.4495C16.9676 35.3446 16.3413 34.0875 15.8805 32.7455C15.8268 32.5979 15.7553 32.5576 15.6076 32.5621C14.7711 32.571 13.939 32.5666 13.107 32.5666C13.0578 32.5666 13.0041 32.5397 12.9638 32.5934C12.9549 32.6471 12.9952 32.6784 13.0175 32.7097C13.8585 33.8683 14.8829 34.8257 16.0863 35.5951C16.6455 35.9574 17.236 36.2751 17.8623 36.5166ZM31.8015 23.3289C31.891 23.3021 31.9581 23.2797 32.0297 23.2618C32.7096 23.0694 33.1346 22.6221 33.2822 21.9421C33.4433 21.1951 33.4388 20.4346 33.3001 19.683C33.1525 18.8868 32.6783 18.3857 31.8776 18.2113C31.6718 18.1665 31.466 18.1307 31.2558 18.1307C29.4798 18.1263 27.7128 18.1263 25.9368 18.1263C25.7892 18.1263 25.6863 18.18 25.6147 18.3186C25.4313 18.672 25.2345 19.0254 25.0466 19.3744C24.1967 20.9624 23.3467 22.5416 22.4968 24.1296C22.4565 24.2102 22.4341 24.3175 22.2999 24.3086C22.1836 24.2996 22.1657 24.2057 22.1255 24.1296C21.0787 22.215 20.0364 20.2959 18.994 18.3768C18.8912 18.1889 18.7614 18.1218 18.5467 18.1218C16.9452 18.1308 15.3482 18.1263 13.7422 18.1263C13.4828 18.1263 13.2233 18.1442 12.9638 18.18C11.9797 18.3097 11.3489 18.8286 11.1074 19.7054C11.0045 20.0812 10.9597 20.4659 10.9553 20.8506C10.9418 21.5887 10.9463 22.3268 10.9508 23.0605C10.9508 23.4855 10.991 23.9104 11.0939 24.322C11.2773 25.0512 11.7023 25.5701 12.4404 25.7938C12.8207 25.9101 13.2144 25.9548 13.608 25.9593C15.0843 25.9638 16.556 25.9638 18.0323 25.9593C18.2962 25.9593 18.3588 25.8967 18.3588 25.6283C18.3633 25.3285 18.3588 25.0333 18.3588 24.7336C18.3588 24.3981 18.3051 24.3488 17.9696 24.3488C16.5829 24.3488 15.2006 24.3488 13.8138 24.3488C13.6125 24.3488 13.4112 24.3399 13.2144 24.2952C12.8609 24.2102 12.6373 23.991 12.5702 23.6331C12.5299 23.4139 12.5075 23.1947 12.4941 22.971C12.4852 22.7831 12.521 22.7205 12.7312 22.7205C14.4624 22.7295 16.1847 22.725 17.9159 22.725C18.247 22.725 18.3186 22.6534 18.3186 22.3179C18.3186 22.0942 18.3186 21.8706 18.3186 21.6469C18.3141 21.3695 18.238 21.289 17.9562 21.289C17.0839 21.289 16.2116 21.289 15.3437 21.289C14.458 21.289 13.5678 21.2845 12.6865 21.2935C12.5389 21.2935 12.4941 21.2577 12.4986 21.1056C12.5075 20.8819 12.5299 20.6582 12.5746 20.4435C12.6373 20.1304 12.8252 19.9112 13.1428 19.8172C13.362 19.7546 13.5812 19.7412 13.8048 19.7412C15.0708 19.7412 16.3368 19.7457 17.6028 19.7367C17.746 19.7367 17.822 19.777 17.8936 19.9112C18.8464 21.6514 19.8127 23.3826 20.7611 25.1272C21.0742 25.6998 21.5126 26.013 22.1791 25.9638C22.282 25.9548 22.3894 25.9548 22.4923 25.9638C23.1588 26.0309 23.5838 25.7043 23.888 25.1362C24.8319 23.3826 25.7937 21.6424 26.7421 19.8888C26.8092 19.7636 26.8852 19.7099 27.0328 19.7144C27.9141 19.7233 28.7909 19.7188 29.6677 19.7188C30.0793 19.7188 30.4863 19.7144 30.8979 19.7367C31.3497 19.7636 31.6092 20.032 31.6315 20.4793C31.645 20.7611 31.645 21.0474 31.6315 21.3293C31.6092 21.7677 31.3497 22.0271 30.9158 22.0719C30.7682 22.0853 30.6161 22.0898 30.4684 22.0898C29.283 22.0898 28.102 22.0942 26.9165 22.0853C26.7107 22.0853 26.666 22.1434 26.675 22.3313C26.6928 22.6489 26.6884 22.971 26.675 23.2931C26.666 23.4631 26.7107 23.5168 26.8897 23.5168C27.8604 23.5078 28.8222 23.5168 29.793 23.5078C29.945 23.5078 30.0345 23.557 30.124 23.6778C30.6384 24.3802 31.1574 25.0735 31.6763 25.7669C31.7434 25.8564 31.806 25.9548 31.9357 25.9548C32.4412 25.9593 32.9512 25.9638 33.4567 25.9548C33.6401 25.9503 33.7072 25.7938 33.6088 25.6372C33.582 25.5925 33.5462 25.5567 33.5149 25.5119C32.9512 24.7872 32.3831 24.0715 31.8015 23.3289ZM15.3392 17.0616C16.7573 17.0616 18.1665 17.0616 19.5845 17.0571C19.7993 17.0571 19.9916 17.0929 20.1929 17.1734C20.6626 17.3568 21.0742 17.6342 21.4679 17.9429C22.0897 18.4305 22.7204 18.2918 23.2796 17.9294C23.5704 17.7416 23.8522 17.5358 24.1475 17.3524C24.4964 17.1332 24.8677 17.0526 25.2882 17.0526C28.0349 17.0661 30.7861 17.0616 33.5328 17.0616C33.5909 17.0616 33.6535 17.0571 33.7117 17.0616C33.8459 17.0705 33.8996 17.0034 33.8996 16.8737C33.8996 16.6724 33.8862 16.4711 33.904 16.2698C33.9219 16.0506 33.8325 15.988 33.6222 15.9924C32.8259 16.0014 32.0252 15.9924 31.2334 16.0014C31.0768 16.0014 31.0321 15.9611 31.0366 15.8046C31.05 15.5227 31.0455 15.2364 31.0366 14.9546C31.0321 14.8428 31.0634 14.7891 31.1708 14.7354C31.4258 14.6101 31.5197 14.3686 31.4437 14.0957C31.3765 13.8452 31.1752 13.6931 30.8934 13.7065C30.7771 13.711 30.7234 13.6752 30.6653 13.5813C30.0032 12.4808 29.3367 11.3848 28.6746 10.2843C28.6254 10.1993 28.6075 10.1412 28.6656 10.0472C28.8088 9.80119 28.773 9.55515 28.5985 9.36726C28.4285 9.1928 28.187 9.15254 27.9409 9.27779C27.8649 9.31806 27.8112 9.32253 27.7441 9.26885C27.2028 8.88413 26.6615 8.50389 26.1202 8.11917C26.0487 8.06996 26.0174 8.01181 26.0263 7.91339C26.0487 7.61814 25.9458 7.43473 25.7176 7.32737C25.4984 7.22448 25.2658 7.27369 25.069 7.475C24.9929 7.55104 24.9303 7.56446 24.8319 7.53762C24.5814 7.46605 24.3309 7.40342 24.0759 7.34526C23.9685 7.31842 23.9059 7.28264 23.8791 7.15291C23.8209 6.89345 23.6285 6.75477 23.387 6.74135C23.132 6.72793 22.9441 6.83529 22.8502 7.09028C22.8054 7.21106 22.7294 7.21553 22.631 7.22448C21.9465 7.27816 21.2666 7.32737 20.5866 7.39447C20.4255 7.40789 20.3182 7.39447 20.2153 7.24685C20.0721 7.0366 19.8261 6.97844 19.6024 7.05896C19.3877 7.13501 19.2267 7.33632 19.2401 7.56894C19.249 7.71656 19.1864 7.77919 19.0746 7.84182C18.2112 8.32495 17.3523 8.81256 16.4934 9.30016C16.4084 9.34937 16.3547 9.36279 16.2608 9.30016C16.0237 9.14359 15.7508 9.1749 15.5674 9.36279C15.384 9.5462 15.3571 9.81461 15.5092 10.0562C15.5629 10.1456 15.5674 10.2127 15.5182 10.3022C15.0082 11.2103 14.5027 12.1184 13.9972 13.0221C13.948 13.1115 13.9077 13.1652 13.7825 13.1607C13.4962 13.1429 13.2949 13.3084 13.2233 13.5768C13.1607 13.8139 13.2725 14.0778 13.5096 14.1941C13.617 14.2478 13.6438 14.306 13.6393 14.4178C13.6349 14.8562 13.6259 15.2991 13.6438 15.7375C13.6527 15.9522 13.608 16.0282 13.3709 16.0238C12.5791 16.0059 11.7918 16.0193 11.0045 16.0148C10.8121 16.0148 10.7271 16.073 10.745 16.2698C10.7584 16.4085 10.7495 16.5516 10.7495 16.6948C10.7495 17.0661 10.7495 17.0661 11.1074 17.0661C12.5075 17.0616 13.9212 17.0616 15.3392 17.0616ZM18.9359 27.0061C18.1217 27.0061 17.312 27.0105 16.5023 27.0016C16.3279 27.0016 16.2742 27.0374 16.2876 27.2208C16.3592 28.4868 16.5247 29.7349 16.8468 30.9606C16.8826 31.0993 16.9273 31.1351 17.066 31.1351C18.5109 31.1306 19.9514 31.1306 21.3963 31.1351C21.5752 31.1351 21.5976 31.0724 21.5976 30.9159C21.5931 29.6812 21.5886 28.4465 21.5976 27.2119C21.5976 27.024 21.535 26.9971 21.3694 26.9971C20.5553 27.0106 19.7411 27.0061 18.9359 27.0061ZM25.3732 31.1351C25.9547 31.1351 26.5363 31.1351 27.1178 31.1351C27.7665 31.1351 27.7531 31.1351 27.8917 30.4909C28.1244 29.4038 28.2675 28.3079 28.3301 27.1984C28.3391 27.0374 28.3033 26.9971 28.1422 26.9971C26.496 27.0016 24.8543 27.0016 23.2036 26.9971C23.0649 26.9971 23.0112 27.024 23.0157 27.1761C23.0246 28.4376 23.0246 29.6901 23.0157 30.9517C23.0157 31.1082 23.0694 31.1306 23.2036 31.1306C23.9283 31.1351 24.653 31.1395 25.3732 31.1351ZM29.2293 31.1351C30.3253 31.1351 31.3855 31.1351 32.4502 31.1351C32.5262 31.1351 32.562 31.1082 32.5978 31.0322C33.1838 29.8109 33.5283 28.5315 33.658 27.185C33.6714 27.0374 33.6222 26.9971 33.4791 26.9971C32.3026 27.0016 31.1305 27.0016 29.954 26.9971C29.8153 26.9971 29.7661 27.024 29.7572 27.1761C29.7035 28.5047 29.5424 29.8154 29.2293 31.1351ZM12.9191 27.0061C12.3241 27.0061 11.7247 27.0105 11.1297 27.0016C10.9776 27.0016 10.9463 27.0463 10.9597 27.1895C11.0671 28.3839 11.3802 29.5202 11.8231 30.634C11.9752 31.0188 12.1676 31.1664 12.6015 31.144C13.4693 31.0993 14.3461 31.1306 15.214 31.1261C15.2721 31.1261 15.4153 31.2022 15.3706 31.0143C15.0574 29.7528 14.9187 28.4689 14.8651 27.1716C14.8561 27.015 14.798 26.9927 14.6682 26.9971C14.0822 27.0106 13.5007 27.0061 12.9191 27.0061ZM17.3747 32.571C17.3747 32.5979 17.3657 32.6113 17.3702 32.6247C17.7952 33.7207 18.3364 34.7451 19.0969 35.6488C19.7187 36.3824 20.4434 36.9729 21.3739 37.2682C21.5618 37.3263 21.5931 37.2861 21.5931 37.1026C21.5842 35.6577 21.5886 34.2173 21.5931 32.7679C21.5931 32.6024 21.5573 32.5532 21.3873 32.5576C20.099 32.5666 18.8151 32.5621 17.5223 32.5621C17.4731 32.5621 17.4239 32.5666 17.3747 32.571ZM23.0246 34.9554C23.0246 35.6846 23.0291 36.4137 23.0202 37.1384C23.0202 37.304 23.0604 37.3218 23.208 37.2771C23.7851 37.0982 24.2996 36.8074 24.7558 36.4137C25.9189 35.4117 26.6392 34.1189 27.2073 32.7231C27.261 32.5934 27.2252 32.5576 27.0865 32.5576C25.7847 32.5621 24.483 32.5621 23.1812 32.5576C23.0291 32.5576 23.0157 32.6203 23.0157 32.7455C23.0291 33.4836 23.0246 34.2173 23.0246 34.9554Z" fill="#221F51"/>
<path d="M31.8018 23.3292C32.3834 24.0673 32.9515 24.792 33.5196 25.5077C33.5509 25.548 33.5867 25.5883 33.6136 25.633C33.712 25.7896 33.6449 25.9461 33.4615 25.9506C32.956 25.9596 32.446 25.9506 31.9405 25.9506C31.8108 25.9506 31.7481 25.8567 31.681 25.7627C31.1621 25.0649 30.6432 24.367 30.1288 23.6736C30.0438 23.5573 29.9543 23.5036 29.7977 23.5036C28.827 23.5126 27.8652 23.5036 26.8945 23.5126C26.7155 23.5126 26.6708 23.4589 26.6797 23.2889C26.6931 22.9668 26.6976 22.6492 26.6797 22.3271C26.6708 22.1348 26.7155 22.0766 26.9213 22.0811C28.1068 22.0945 29.2878 22.0855 30.4732 22.0855C30.6208 22.0855 30.7729 22.0811 30.9206 22.0677C31.3545 22.0229 31.6139 21.7635 31.6363 21.3251C31.6497 21.0432 31.6497 20.7569 31.6363 20.4751C31.6139 20.0278 31.3545 19.7594 30.9027 19.7325C30.4956 19.7057 30.084 19.7146 29.6725 19.7146C28.7912 19.7101 27.9144 19.7191 27.0376 19.7101C26.89 19.7101 26.8139 19.7594 26.7468 19.8846C25.794 21.6337 24.8367 23.3784 23.8928 25.132C23.5886 25.7001 23.1636 26.0222 22.4971 25.9596C22.3942 25.9506 22.2868 25.9506 22.1839 25.9596C21.5174 26.0088 21.079 25.6956 20.7658 25.123C19.8175 23.3784 18.8512 21.6471 17.8984 19.907C17.8268 19.7728 17.7507 19.7325 17.6076 19.7325C16.3416 19.737 15.0756 19.737 13.8096 19.737C13.5859 19.737 13.3623 19.7504 13.1475 19.813C12.8299 19.907 12.6465 20.1262 12.5794 20.4393C12.5347 20.6585 12.5123 20.8777 12.5034 21.1014C12.4989 21.2535 12.5436 21.2893 12.6913 21.2893C13.577 21.2848 14.4672 21.2848 15.3485 21.2848C16.2208 21.2848 17.0931 21.2848 17.961 21.2848C18.2428 21.2848 18.3189 21.3608 18.3233 21.6427C18.3278 21.8663 18.3233 22.09 18.3233 22.3137C18.3233 22.6537 18.2518 22.7208 17.9207 22.7208C16.1895 22.7208 14.4672 22.7252 12.736 22.7163C12.5257 22.7163 12.49 22.7789 12.4989 22.9668C12.5123 23.1905 12.5302 23.4142 12.5749 23.6289C12.642 23.9868 12.8657 24.206 13.2191 24.291C13.416 24.3357 13.6173 24.3446 13.8186 24.3446C15.2053 24.3446 16.5876 24.3446 17.9744 24.3446C18.3099 24.3446 18.3636 24.3938 18.3636 24.7294C18.3636 25.0291 18.3681 25.3243 18.3636 25.624C18.3591 25.8969 18.301 25.9551 18.037 25.9551C16.5608 25.9551 15.089 25.9551 13.6128 25.9551C13.2146 25.9551 12.8255 25.9059 12.4452 25.7896C11.7026 25.5659 11.2821 25.047 11.0987 24.3178C10.9958 23.9062 10.9556 23.4813 10.9556 23.0563C10.9556 22.3182 10.9466 21.58 10.96 20.8464C10.969 20.4617 11.0092 20.077 11.1121 19.7012C11.3492 18.8333 11.9755 18.31 12.9597 18.1802C13.2191 18.1444 13.4786 18.1265 13.738 18.1265C15.3395 18.1265 16.9366 18.131 18.5425 18.1221C18.7528 18.1221 18.887 18.1847 18.9899 18.3771C20.0322 20.2962 21.0745 22.2153 22.1213 24.1299C22.1615 24.206 22.1794 24.2999 22.2958 24.3088C22.43 24.3178 22.4523 24.206 22.4926 24.1299C23.347 22.5463 24.197 20.9627 25.0424 19.3746C25.2303 19.0212 25.4272 18.6723 25.6106 18.3189C25.6822 18.1802 25.785 18.1265 25.9327 18.1265C27.7086 18.131 29.4756 18.131 31.2516 18.131C31.4618 18.131 31.6676 18.1668 31.8734 18.2115C32.6742 18.386 33.1483 18.887 33.296 19.6833C33.4346 20.4348 33.4391 21.1953 33.2781 21.9424C33.1304 22.6224 32.7055 23.0697 32.0255 23.2621C31.9584 23.2844 31.8913 23.3023 31.8018 23.3292Z" fill="white"/>
<path d="M15.3395 17.0572C13.9214 17.0572 12.5123 17.0572 11.0942 17.0572C10.7363 17.0572 10.7363 17.0572 10.7363 16.6859C10.7363 16.5428 10.7452 16.3996 10.7318 16.261C10.7139 16.0597 10.7989 16.0015 10.9913 16.006C11.7831 16.0149 12.5704 15.997 13.3577 16.0149C13.5948 16.0194 13.6396 15.9434 13.6306 15.7286C13.6396 15.2679 13.6396 14.8653 13.6261 14.409C13.6217 14.3016 13.6038 14.239 13.4964 14.1853C13.2548 14.069 13.1475 13.805 13.2101 13.568C13.2817 13.2995 13.483 13.1385 13.7693 13.1519C13.8946 13.1609 13.9348 13.1072 13.984 13.0132C14.4895 12.1051 14.995 11.197 15.505 10.2934C15.5542 10.2039 15.5497 10.1368 15.496 10.0473C15.3439 9.80578 15.3753 9.53738 15.5542 9.35396C15.7376 9.17055 16.0105 9.13476 16.2476 9.29134C16.3415 9.35396 16.3997 9.33607 16.4802 9.29134C17.3391 8.80373 18.2025 8.31612 19.0614 7.83299C19.1732 7.77036 19.2358 7.71221 19.2269 7.56011C19.2135 7.32749 19.3701 7.12619 19.5893 7.05014C19.8129 6.96962 20.059 7.02777 20.2021 7.23802C20.3005 7.39012 20.4124 7.40354 20.5734 7.38565C21.2534 7.32302 21.9378 7.26934 22.6178 7.21565C22.7162 7.20671 22.7922 7.20671 22.837 7.08145C22.9309 6.83094 23.1188 6.7191 23.3738 6.73252C23.6198 6.74594 23.8077 6.88462 23.8659 7.14408C23.8972 7.27381 23.9553 7.3096 24.0627 7.33644C24.3177 7.39907 24.5682 7.46169 24.8187 7.5288C24.9171 7.55564 24.9798 7.54669 25.0558 7.46617C25.2526 7.26486 25.4853 7.22013 25.7045 7.31855C25.9326 7.42591 26.04 7.60484 26.0131 7.90457C26.0042 8.00298 26.0355 8.05666 26.1071 8.11034C26.6484 8.49059 27.1896 8.8753 27.7309 9.26002C27.8025 9.30923 27.8517 9.30476 27.9278 9.26897C28.1738 9.14371 28.4154 9.18397 28.5854 9.35844C28.7643 9.54185 28.8001 9.79236 28.6525 10.0384C28.5943 10.1368 28.6122 10.195 28.6614 10.2755C29.328 11.376 29.9945 12.472 30.6521 13.5724C30.7102 13.6664 30.7639 13.7022 30.8802 13.6977C31.1621 13.6843 31.3634 13.8364 31.4305 14.0869C31.5021 14.3598 31.4081 14.5968 31.1576 14.7266C31.0502 14.7803 31.0234 14.8339 31.0234 14.9458C31.0234 15.2231 31.0234 15.4915 31.0234 15.7957C31.0144 15.9523 31.0636 15.997 31.2202 15.9926C32.0165 15.9836 32.8172 15.997 33.609 15.9836C33.8193 15.9791 33.9088 16.0418 33.8909 16.261C33.873 16.4623 33.8864 16.6636 33.8864 16.8649C33.8864 16.9946 33.8327 17.0617 33.6985 17.0528C33.6404 17.0483 33.5777 17.0528 33.5196 17.0528C30.7729 17.0528 28.0217 17.0617 25.275 17.0438C24.8545 17.0393 24.4832 17.1243 24.1343 17.3435C23.839 17.527 23.5572 17.7327 23.2664 17.9206C22.7072 18.283 22.072 18.4216 21.4547 17.934C21.0655 17.6254 20.6495 17.348 20.1797 17.1646C19.9829 17.0886 19.7861 17.0483 19.5714 17.0483C18.1667 17.0572 16.7531 17.0572 15.3395 17.0572ZM14.1809 13.2593C15.1695 12.6285 16.1581 11.9978 17.1467 11.367C17.1915 11.3402 17.2183 11.3044 17.2183 11.2418C17.2228 11.0091 17.4375 11.0181 17.2139 10.8391C17.1244 10.7944 16.7218 10.4813 16.6189 10.4097C16.4534 10.3023 16.2834 10.1234 16.0418 10.2755C16.0015 10.2979 15.9389 10.2979 15.8897 10.2889C15.7958 10.2665 15.7555 10.3113 15.7152 10.3829C15.1919 11.3312 14.6685 12.2796 14.1451 13.2235C14.1316 13.2414 14.1272 13.2638 14.1495 13.2772C14.154 13.2906 14.1719 13.2682 14.1809 13.2593ZM18.2204 10.6423C18.2472 10.6289 18.2741 10.6199 18.3009 10.6021C19.7861 9.58211 21.2668 8.57111 22.752 7.55116C22.7833 7.5288 22.8146 7.50643 22.7878 7.45722C22.0139 7.51538 21.2355 7.578 20.4616 7.63616C20.3721 7.64511 20.3274 7.68089 20.2916 7.77036C20.2155 7.95825 20.0679 8.12377 19.8577 8.1014C19.6071 8.07456 19.54 8.22665 19.4506 8.3877C19.4237 8.44138 19.3924 8.49059 19.3611 8.54427C18.9719 9.23765 18.5827 9.92656 18.1935 10.6155C18.1756 10.6199 18.1577 10.6289 18.1756 10.6513C18.1801 10.6602 18.207 10.6468 18.2204 10.6423ZM23.754 10.2665C23.4856 10.3113 23.1993 10.3605 22.913 10.4052C21.4413 10.6423 19.9784 10.8839 18.5067 11.121C18.4038 11.1389 18.3054 11.1344 18.2606 11.2865C18.2159 11.4431 18.3322 11.4654 18.3993 11.5281C18.5022 11.6354 18.623 11.7249 18.7348 11.8233C19.7369 12.7046 20.73 13.5814 21.732 14.4582C21.9825 14.6774 22.3225 14.6013 22.4478 14.3016C22.658 13.8095 22.8683 13.3174 23.0785 12.8254C23.3872 12.0917 23.6959 11.3625 24.0045 10.6334C24.0716 10.4723 23.9374 10.2621 23.754 10.2665ZM15.6347 16.0105C16.1715 16.0105 16.7084 16.0105 17.2452 16.0105C17.3615 16.0105 17.442 16.0015 17.4465 15.8494C17.4957 14.4984 17.5494 13.1474 17.6075 11.7965C17.612 11.6846 17.5673 11.6444 17.4823 11.5952C17.3973 11.5415 17.3346 11.5325 17.2452 11.5907C16.2878 12.208 15.335 12.8254 14.3777 13.4382C14.2882 13.4964 14.2748 13.5501 14.2882 13.6529C14.3151 13.8856 14.2211 14.0869 14.0019 14.1853C13.8767 14.2434 13.8677 14.315 13.8677 14.4269C13.8722 14.8876 13.8767 15.3529 13.8632 15.8136C13.8588 15.9881 13.9169 16.0194 14.078 16.0194C14.5969 16.006 15.1203 16.0105 15.6347 16.0105ZM17.6701 15.8002C17.612 15.9791 17.697 16.0194 17.8849 16.0149C18.4575 16.006 19.0345 16.0283 19.6071 16.006C19.9158 15.9926 20.1932 16.0552 20.466 16.1715C20.5645 16.2162 20.6271 16.2028 20.7076 16.1402C20.9134 15.9702 21.1326 15.8136 21.3428 15.6436C21.5531 15.4736 21.8483 15.3484 21.7276 14.986C21.7231 14.9726 21.7276 14.9547 21.7365 14.9413C21.7857 14.8339 21.741 14.7713 21.656 14.6953C20.5018 13.6887 19.3522 12.6822 18.2025 11.6667C18.1264 11.5996 18.0638 11.5862 17.9654 11.6265C17.8625 11.6667 17.858 11.7294 17.8536 11.8144C17.7909 13.1385 17.7328 14.4582 17.6701 15.8002ZM22.7967 14.7758C22.837 14.7624 22.8817 14.7489 22.922 14.7355C24.4295 14.2479 25.9326 13.7603 27.4402 13.2817C27.6012 13.2324 27.6325 13.134 27.6728 13.0043C27.713 12.8701 27.6057 12.8343 27.5386 12.7762C26.6663 12.0604 25.7895 11.3446 24.9216 10.6334C24.6845 10.4365 24.3132 10.526 24.1924 10.8078C23.9017 11.4923 23.6154 12.1767 23.3246 12.8567C23.0964 13.398 22.8638 13.9348 22.6357 14.4761C22.573 14.6326 22.6536 14.7847 22.7967 14.7758ZM29.5516 15.9926C29.158 15.241 28.7732 14.5208 28.3975 13.805C28.3483 13.7111 28.2767 13.7066 28.1917 13.7156C28.0396 13.7245 27.9054 13.6753 27.8115 13.5635C27.7265 13.4695 27.6549 13.4651 27.5386 13.5009C26.0176 13.9974 24.5011 14.485 22.9801 14.9771C22.913 14.9995 22.8146 14.9905 22.8057 15.0889C22.7967 15.2008 22.913 15.2008 22.9801 15.2276C23.6198 15.4692 24.264 15.7063 24.8992 15.9434C24.9842 15.9747 25.0692 16.0015 25.1587 16.0015C26.6215 15.9926 28.0664 15.9926 29.5516 15.9926ZM18.3098 10.8884C18.3769 10.8928 18.3993 10.8973 18.4217 10.8928C20.0679 10.6244 21.7097 10.3515 23.3559 10.0876C23.6154 10.0473 23.8972 10.0518 23.9598 9.70737C23.9643 9.68947 23.9867 9.67158 24.0045 9.65816C24.0851 9.59553 24.0761 9.5329 24.0403 9.44343C23.8927 9.07661 23.754 8.70979 23.6198 8.33849C23.5259 8.07456 23.4767 7.80615 23.1054 7.76589C22.9801 7.75247 22.8996 7.73457 22.7922 7.80615C22.1928 8.22218 21.5889 8.62927 20.9894 9.04082C20.1082 9.65369 19.2314 10.2576 18.3098 10.8884ZM28.0709 11.4699C28.0709 11.1881 28.0664 10.9063 28.0709 10.62C28.0754 10.4321 28.0933 10.2531 27.8562 10.1816C27.8025 10.1637 27.7444 10.0966 27.722 10.0384C27.6772 9.92209 27.6012 9.91314 27.4938 9.92209C26.6931 9.98919 25.8923 10.0518 25.1005 10.1145C25.02 10.1189 24.944 10.11 24.9082 10.2173C24.8724 10.3247 24.9529 10.3471 25.0066 10.3918C25.9192 11.1433 26.8318 11.8904 27.7399 12.6375C27.807 12.6956 27.8562 12.718 27.9546 12.6733C28.053 12.6241 28.0754 12.5704 28.0754 12.4675C28.0709 12.1364 28.0709 11.8054 28.0709 11.4699ZM18.3725 9.79236C18.7125 9.19292 19.0524 8.59795 19.3924 8.00745C19.3477 7.96272 19.3208 7.98061 19.294 7.99404C18.3859 8.50848 17.4823 9.02293 16.5831 9.53738C16.4578 9.60895 16.4265 9.96683 16.5384 10.0518C16.7889 10.2487 17.0483 10.4365 17.3033 10.6289C17.3391 10.6557 17.3749 10.696 17.4196 10.6781M28.3617 10.2755C28.3438 10.2844 28.3214 10.2934 28.3035 10.3023C28.3035 11.0449 28.3035 11.7875 28.3035 12.5301C28.3035 12.6106 28.3483 12.633 28.4064 12.6554C28.6077 12.7314 28.7196 12.8925 28.7375 13.0982C28.7509 13.2369 28.8135 13.2861 28.9298 13.3264C29.3906 13.5009 29.8424 13.6887 30.3032 13.8677C30.3613 13.89 30.4284 13.9527 30.4866 13.8945C30.5671 13.814 30.4687 13.7558 30.4374 13.7022C29.9363 12.8656 29.4308 12.0336 28.9253 11.206C28.7285 10.8973 28.5451 10.5842 28.3617 10.2755ZM30.7908 15.0442C30.755 14.8653 30.7773 14.7668 30.6074 14.6908C30.4553 14.6237 30.3747 14.4716 30.3703 14.3105C30.3658 14.1719 30.2987 14.1227 30.1824 14.0779C29.7306 13.9035 29.2832 13.72 28.8314 13.5456C28.7643 13.5187 28.6883 13.4338 28.6077 13.5143C28.5183 13.6037 28.6033 13.6798 28.639 13.7514C28.9746 14.3866 29.3235 15.0174 29.6411 15.6615M25.1408 9.86394C25.9237 9.80131 26.711 9.74315 27.4894 9.68053C27.552 9.67605 27.6325 9.68947 27.6594 9.60895C27.6951 9.50606 27.5923 9.48817 27.5386 9.45238C27.1136 9.15266 26.6886 8.85294 26.2681 8.54874C26.0444 8.39217 25.8431 8.1685 25.5345 8.36981C25.5255 8.37875 25.5032 8.37875 25.4897 8.37428C25.36 8.34744 25.3108 8.42349 25.2616 8.53085C25.1229 8.8261 24.9753 9.11687 24.8277 9.40764C24.6979 9.685 24.8321 9.88183 25.1408 9.86394ZM23.6556 7.79273C23.6601 7.80615 23.669 7.81957 23.6735 7.83299C23.8748 8.35191 24.0761 8.87083 24.273 9.38975C24.2998 9.46133 24.3401 9.49264 24.4206 9.50159C24.5011 9.51054 24.5458 9.47475 24.5771 9.40764C24.7427 9.05872 24.9127 8.71426 25.0782 8.36533C25.0961 8.32954 25.1274 8.29823 25.1005 8.24455C24.9663 7.97167 24.8321 7.71221 24.4564 7.70326C24.2819 7.69879 24.1119 7.61827 23.9419 7.578C23.839 7.55116 23.6556 7.69879 23.6556 7.79273ZM24.5235 16.0507C23.9285 15.827 23.3783 15.6257 22.8325 15.42C22.7609 15.3931 22.7072 15.3976 22.6536 15.4513C22.5999 15.5094 22.6223 15.5542 22.6536 15.6123C22.8101 15.921 22.9667 16.2341 23.1143 16.5473C23.1546 16.6323 23.1859 16.6815 23.2933 16.6144C23.6601 16.3773 24.0627 16.2118 24.5235 16.0507ZM22.4075 17.1959C22.5775 17.1199 22.7609 16.9588 22.9443 16.8023C22.998 16.7575 22.9399 16.7038 22.922 16.6636C22.7654 16.346 22.5999 16.0284 22.4388 15.7107C22.4165 15.6615 22.3941 15.6123 22.3315 15.6213C22.2599 15.6302 22.2733 15.6928 22.2644 15.7421C22.1973 16.1133 22.1346 16.4846 22.0675 16.8604C22.0273 17.0707 22.1346 17.2004 22.4075 17.1959ZM21.817 16.8873C21.8931 16.4623 21.9647 16.0865 22.0362 15.7063C22.0452 15.6481 22.0541 15.59 21.9915 15.5497C21.9289 15.5094 21.8841 15.5229 21.8305 15.5631C21.5128 15.8136 21.1907 16.0597 20.8508 16.3236C21.1863 16.507 21.5084 16.6546 21.817 16.8873Z" fill="white"/>
<path d="M18.9363 27.0064C19.7505 27.0064 20.5602 27.0109 21.3699 27.002C21.5309 27.002 21.598 27.0288 21.598 27.2167C21.5891 28.4513 21.5891 29.686 21.598 30.9207C21.598 31.0773 21.5801 31.1399 21.3967 31.1399C19.9518 31.1309 18.5114 31.1354 17.0664 31.1399C16.9278 31.1399 16.883 31.1041 16.8472 30.9654C16.5251 29.7352 16.3596 28.4916 16.288 27.2256C16.2791 27.0422 16.3328 27.0064 16.5028 27.0064C17.3125 27.0109 18.1222 27.0064 18.9363 27.0064Z" fill="white"/>
<path d="M25.3733 31.1353C24.6486 31.1353 23.9284 31.1308 23.2082 31.1397C23.0695 31.1397 23.0158 31.1174 23.0203 30.9608C23.0292 29.6993 23.0292 28.4467 23.0203 27.1852C23.0203 27.0331 23.0695 27.0018 23.2082 27.0063C24.8544 27.0107 26.4961 27.0107 28.1468 27.0063C28.3079 27.0063 28.3437 27.0465 28.3347 27.2076C28.2721 28.317 28.129 29.413 27.8963 30.5C27.7577 31.1397 27.7666 31.1442 27.1224 31.1442C26.5364 31.1353 25.9549 31.1353 25.3733 31.1353Z" fill="white"/>
<path d="M29.2295 31.1354C29.5426 29.8158 29.7037 28.5095 29.7529 27.1809C29.7574 27.0288 29.811 27.002 29.9497 27.002C31.1262 27.0064 32.2983 27.0064 33.4748 27.002C33.6224 27.002 33.6716 27.0377 33.6537 27.1898C33.524 28.5363 33.1796 29.8158 32.5935 31.037C32.5577 31.1086 32.522 31.1399 32.4459 31.1399C31.3812 31.1354 30.321 31.1354 29.2295 31.1354Z" fill="white"/>
<path d="M12.9193 27.0064C13.5008 27.0064 14.0824 27.0109 14.6639 27.002C14.7981 27.002 14.8563 27.0198 14.8608 27.1764C14.9189 28.4737 15.0531 29.7531 15.3663 31.0191C15.411 31.207 15.2723 31.1309 15.2097 31.1309C14.3374 31.1354 13.465 31.1041 12.5972 31.1488C12.1633 31.1712 11.9709 31.0236 11.8188 30.6389C11.3759 29.525 11.0628 28.3887 10.9554 27.1943C10.942 27.0512 10.9733 27.002 11.1254 27.0064C11.7293 27.0154 12.3198 27.0064 12.9193 27.0064Z" fill="white"/>
<path d="M17.375 32.571C17.4242 32.5666 17.4734 32.5621 17.5226 32.5621C18.811 32.5621 20.0948 32.5666 21.3877 32.5576C21.5577 32.5576 21.5979 32.6024 21.5934 32.7679C21.5845 34.2128 21.5845 35.6532 21.5934 37.1026C21.5934 37.2905 21.5621 37.3263 21.3742 37.2682C20.4393 36.9729 19.7146 36.3824 19.0973 35.6488C18.3368 34.7496 17.7955 33.7207 17.3705 32.6247C17.366 32.6113 17.3705 32.5979 17.375 32.571Z" fill="white"/>
<path d="M23.025 34.9558C23.025 34.2177 23.0295 33.4796 23.0205 32.7504C23.0205 32.6251 23.0339 32.5625 23.186 32.5625C24.4878 32.567 25.7896 32.567 27.0913 32.5625C27.23 32.5625 27.2613 32.5983 27.2121 32.728C26.644 34.1237 25.9193 35.4166 24.7607 36.4186C24.3044 36.8123 23.7899 37.1031 23.2129 37.282C23.0652 37.3267 23.0205 37.3088 23.025 37.1433C23.0295 36.4097 23.025 35.685 23.025 34.9558Z" fill="white"/>
<path d="M17.8623 36.5163C17.2316 36.2792 16.6455 35.9572 16.0819 35.5948C14.8785 34.8254 13.8541 33.8636 13.0131 32.7094C12.9863 32.6736 12.9505 32.6468 12.9594 32.5931C12.9952 32.5394 13.0534 32.5663 13.1026 32.5663C13.9391 32.5663 14.7712 32.5708 15.6032 32.5618C15.7508 32.5618 15.8269 32.5976 15.8761 32.7452C16.3413 34.0873 16.9676 35.3443 17.8713 36.4492C17.8802 36.4582 17.8802 36.4761 17.8847 36.4895C17.8802 36.4984 17.8713 36.5074 17.8623 36.5163Z" fill="white"/>
<path d="M26.7334 36.4898C27.1539 35.9038 27.5789 35.3222 27.9054 34.6825C28.232 34.0383 28.5317 33.3807 28.7643 32.7008C28.7912 32.6202 28.8136 32.5576 28.9254 32.5576C29.8424 32.5621 30.755 32.5621 31.7213 32.5621C31.5155 32.826 31.341 33.0631 31.1532 33.2868C29.9498 34.7228 28.4915 35.8053 26.7602 36.5166C26.7468 36.5077 26.7423 36.4987 26.7334 36.4898Z" fill="white"/>
<path d="M26.7562 36.5174C26.738 36.522 26.7063 36.531 26.7063 36.5265C26.6927 36.4993 26.7154 36.4993 26.7335 36.4902C26.7426 36.4993 26.7471 36.5084 26.7562 36.5174Z" fill="white"/>
<path d="M17.8895 36.4902C17.9076 36.4948 17.9303 36.5038 17.9167 36.5265C17.9122 36.531 17.8804 36.5174 17.8623 36.5174C17.8714 36.5084 17.8804 36.4993 17.8895 36.4902Z" fill="white"/>
<path d="M23.7541 10.2667C23.9375 10.2622 24.0717 10.4724 24.0046 10.638C23.696 11.3716 23.3873 12.1053 23.0786 12.83C22.8684 13.322 22.6581 13.8141 22.4479 14.3062C22.3226 14.6059 21.9782 14.682 21.7321 14.4628C20.7301 13.5815 19.737 12.7047 18.7349 11.8279C18.6231 11.7295 18.5068 11.6355 18.3994 11.5327C18.3368 11.47 18.2205 11.4477 18.2607 11.2911C18.3055 11.139 18.4039 11.1435 18.5068 11.1256C19.9785 10.884 21.4413 10.6469 22.9131 10.4098C23.2084 10.3606 23.4902 10.3114 23.7541 10.2667Z" fill="#221F51"/>
<path d="M15.6347 16.0149C15.1113 16.0149 14.5924 16.0104 14.069 16.0193C13.9079 16.0238 13.8498 15.9925 13.8542 15.8136C13.8587 15.3618 13.8632 14.892 13.8587 14.4268C13.8587 14.315 13.8677 14.2434 13.9929 14.1852C14.2076 14.0868 14.3061 13.8855 14.2792 13.6529C14.2658 13.5455 14.2792 13.4963 14.3687 13.4382C15.3305 12.8253 16.2833 12.2124 17.2362 11.5906C17.3256 11.5325 17.3883 11.5414 17.4733 11.5951C17.5538 11.6443 17.603 11.6846 17.5985 11.7964C17.5404 13.1474 17.4867 14.4984 17.4375 15.8494C17.433 16.0015 17.3525 16.0104 17.2362 16.0104C16.7083 16.0149 16.1715 16.0149 15.6347 16.0149Z" fill="#221F51"/>
<path d="M17.6703 15.8042C17.7284 14.4622 17.7866 13.147 17.8447 11.8228C17.8492 11.7378 17.8581 11.6752 17.9566 11.635C18.055 11.5947 18.1131 11.6081 18.1937 11.6752C19.3433 12.6907 20.493 13.6972 21.6472 14.7037C21.7277 14.7753 21.7769 14.8424 21.7277 14.9498C21.7232 14.9632 21.7187 14.9811 21.7187 14.9945C21.835 15.3569 21.5443 15.4821 21.334 15.6521C21.1238 15.8176 20.909 15.9787 20.6988 16.1487C20.6183 16.2113 20.5556 16.2247 20.4572 16.18C20.1843 16.0592 19.907 16.001 19.5983 16.0145C19.0257 16.0413 18.4531 16.0145 17.876 16.0234C17.7016 16.0234 17.6166 15.9787 17.6703 15.8042Z" fill="#221F51"/>
<path d="M22.7968 14.7803C22.6536 14.7848 22.5731 14.6372 22.6402 14.4806C22.8683 13.9393 23.101 13.4025 23.3291 12.8612C23.6199 12.1768 23.9062 11.4923 24.197 10.8124C24.3177 10.5305 24.689 10.4411 24.9261 10.6379C25.7985 11.3537 26.6752 12.0694 27.5431 12.7807C27.6102 12.8388 27.7176 12.8746 27.6773 13.0088C27.637 13.1386 27.6057 13.2325 27.4447 13.2862C25.9327 13.7604 24.434 14.2524 22.9265 14.7401C22.8818 14.7535 22.8415 14.7669 22.7968 14.7803Z" fill="#221F51"/>
<path d="M29.5515 15.9969C28.0663 15.9969 26.6214 15.9969 25.1675 15.9969C25.078 15.9969 24.993 15.9701 24.908 15.9388C24.2683 15.7017 23.6241 15.4646 22.9889 15.223C22.9218 15.1962 22.8055 15.1962 22.8145 15.0844C22.8189 14.9859 22.9218 14.9949 22.9889 14.9725C24.5099 14.4804 26.0264 13.9884 27.5474 13.4963C27.6592 13.4605 27.7352 13.465 27.8202 13.5589C27.9142 13.6708 28.0529 13.72 28.2005 13.711C28.2855 13.7065 28.3571 13.7065 28.4063 13.8005C28.7776 14.5252 29.1578 15.2454 29.5515 15.9969Z" fill="#221F51"/>
<path d="M18.3096 10.893C19.2266 10.2623 20.1079 9.65387 20.9892 9.04995C21.5886 8.6384 22.1925 8.22684 22.792 7.81528C22.8993 7.74371 22.9799 7.7616 23.1051 7.77502C23.4764 7.81528 23.5256 8.08369 23.6196 8.34762C23.7538 8.71892 23.8924 9.08574 24.0401 9.45256C24.0758 9.54203 24.0848 9.60466 24.0043 9.66729C23.9864 9.68071 23.964 9.6986 23.9595 9.7165C23.8969 10.0654 23.6151 10.0565 23.3556 10.0967C21.7094 10.3607 20.0676 10.6336 18.4214 10.902C18.399 10.902 18.3767 10.8975 18.3096 10.893Z" fill="#221F51"/>
<path d="M28.071 11.4697C28.071 11.8053 28.0665 12.1408 28.071 12.4718C28.071 12.5702 28.0486 12.6284 27.9502 12.6776C27.8563 12.7223 27.8071 12.6955 27.7355 12.6418C26.8229 11.8902 25.9103 11.1432 25.0022 10.3961C24.9485 10.3514 24.8725 10.329 24.9038 10.2216C24.9396 10.1143 25.0156 10.1232 25.0962 10.1188C25.8969 10.0561 26.6977 9.9935 27.4895 9.9264C27.5968 9.91746 27.6729 9.9264 27.7176 10.0427C27.74 10.1009 27.7937 10.168 27.8518 10.1859C28.0889 10.2574 28.071 10.4364 28.0665 10.6243C28.0665 10.9061 28.071 11.1879 28.071 11.4697Z" fill="#221F51"/>
<path d="M18.1978 10.6241C18.5869 9.93069 18.9761 9.24178 19.3653 8.55287C19.3966 8.49919 19.428 8.44998 19.4548 8.3963C19.5443 8.23525 19.6114 8.08315 19.8619 8.11C20.0677 8.13236 20.2198 7.96685 20.2958 7.77896C20.3316 7.68502 20.3763 7.64923 20.4658 7.64476C21.2442 7.5866 22.0226 7.52398 22.792 7.46582C22.8188 7.5195 22.7875 7.54187 22.7562 7.55976C21.271 8.57971 19.7903 9.59071 18.3051 10.6107C18.2828 10.6285 18.2514 10.6375 18.2246 10.6509C18.2156 10.6375 18.2067 10.633 18.1978 10.6241Z" fill="#221F51"/>
<path d="M17.169 10.8029C17.424 10.9774 17.2227 11.0177 17.2182 11.2503C17.2182 11.3129 17.1914 11.3487 17.1466 11.3755C16.158 12.0063 15.1694 12.6371 14.1807 13.2678C14.1718 13.2589 14.1628 13.2499 14.1494 13.241C14.6728 12.2926 15.1962 11.3442 15.7196 10.4003C15.7599 10.3288 15.8001 10.2795 15.8941 10.3064C15.9433 10.3198 16.0059 10.3198 16.0462 10.293" fill="#221F51"/>
<path d="M19.3926 8.01147C19.0571 8.60197 18.7126 9.20141 18.3726 9.79638C18.3011 9.91716 18.0461 10.3735 17.9745 10.4942C17.6882 10.9997 17.7106 10.5748 17.4198 10.6866C17.3706 10.7045 17.3348 10.6642 17.3035 10.6374C17.0485 10.445 16.789 10.2571 16.5385 10.0603C16.4267 9.97084 16.458 9.61744 16.5833 9.54587C17.4869 9.03142 18.395 8.51697 19.2942 8.00253C19.321 7.98463 19.3479 7.96674 19.3926 8.01147Z" fill="#221F51"/>
<path d="M28.3615 10.2803C28.5449 10.5889 28.7328 10.8976 28.9162 11.2063C29.4217 12.0383 29.9272 12.8704 30.4283 13.7025C30.4596 13.7561 30.558 13.8143 30.4775 13.8948C30.4148 13.953 30.3522 13.8903 30.2941 13.868C29.8378 13.689 29.3815 13.5012 28.9207 13.3267C28.8044 13.282 28.7418 13.2372 28.7284 13.0985C28.7105 12.8928 28.6031 12.7362 28.3973 12.6557C28.3392 12.6333 28.2944 12.6109 28.2944 12.5304C28.2989 11.7878 28.2944 11.0452 28.2944 10.3026C28.3213 10.2982 28.3392 10.2892 28.3615 10.2803Z" fill="#221F51"/>
<path d="M30.7461 15.9615C30.6343 16.0599 30.3748 16.0152 30.1869 16.0018C29.9946 15.9884 29.8157 15.8989 29.6501 15.6752C29.3325 15.0311 28.9836 14.4003 28.6481 13.7651C28.6078 13.689 28.5273 13.613 28.6168 13.528C28.6973 13.4475 28.7689 13.5324 28.8404 13.5593C29.2923 13.7338 29.7396 13.9172 30.1914 14.0916C30.3077 14.1364 30.3748 14.1811 30.3793 14.3242C30.3838 14.4853 30.4643 14.6374 30.6164 14.7045C30.7864 14.7805 30.8088 14.879 30.7998 15.0579" fill="#221F51"/>
<path d="M25.1408 9.86844C24.8322 9.88634 24.698 9.68503 24.8322 9.41662C24.9753 9.12585 25.1274 8.83508 25.2661 8.53983C25.3153 8.43694 25.3645 8.36089 25.4942 8.38326C25.5077 8.38773 25.5256 8.38326 25.539 8.37878C25.8476 8.173 26.0534 8.40115 26.2726 8.55772C26.6976 8.85744 27.1226 9.15716 27.5431 9.46136C27.5968 9.50162 27.6997 9.51951 27.6639 9.61793C27.637 9.69845 27.5565 9.68503 27.4939 9.6895C26.711 9.74766 25.9282 9.80581 25.1408 9.86844Z" fill="#221F51"/>
<path d="M23.6558 7.79764C23.6558 7.7037 23.8392 7.55608 23.9376 7.57845C24.1121 7.61871 24.282 7.69923 24.452 7.7037C24.8278 7.71265 24.9575 7.97211 25.0962 8.24499C25.1231 8.29867 25.0917 8.32999 25.0738 8.36577C24.9083 8.7147 24.7428 9.05916 24.5728 9.40809C24.5415 9.47519 24.4968 9.5065 24.4162 9.50203C24.3357 9.49308 24.2999 9.46177 24.2686 9.39019C24.0718 8.87127 23.8705 8.35235 23.6692 7.83343C23.6692 7.82449 23.6602 7.81107 23.6558 7.79764Z" fill="#221F51"/>
<path d="M24.5235 16.0553C24.0627 16.2164 23.6601 16.3819 23.2933 16.619C23.1904 16.6861 23.1591 16.6369 23.1143 16.5519C22.9622 16.2387 22.8101 15.9256 22.6536 15.6169C22.6267 15.5588 22.5999 15.514 22.6536 15.4559C22.7072 15.3977 22.7609 15.3977 22.8325 15.4245C23.3827 15.6259 23.9285 15.8316 24.5235 16.0553Z" fill="#221F51"/>
<path d="M22.4073 17.2006C22.1344 17.2006 22.027 17.0709 22.0673 16.8651C22.1344 16.4938 22.197 16.1225 22.2641 15.7468C22.2731 15.6976 22.2596 15.6349 22.3312 15.626C22.3983 15.617 22.4162 15.6707 22.4386 15.7155C22.5996 16.0331 22.7607 16.3507 22.9217 16.6683C22.9441 16.7086 22.9978 16.7667 22.9441 16.807C22.7607 16.9635 22.5772 17.1246 22.4073 17.2006Z" fill="#221F51"/>
<path d="M21.8168 16.8921C21.5127 16.655 21.1861 16.5074 20.8506 16.3284C21.1906 16.0645 21.5082 15.8185 21.8303 15.568C21.884 15.5277 21.9287 15.5098 21.9913 15.5545C22.0539 15.5993 22.0495 15.653 22.036 15.7111C21.9645 16.0958 21.8929 16.4716 21.8168 16.8921Z" fill="#221F51"/>
<path d="M14.1812 13.2645C14.1722 13.2736 14.1586 13.2962 14.1541 13.2917C14.1314 13.2781 14.1359 13.2554 14.1495 13.2373C14.1586 13.2464 14.1722 13.2509 14.1812 13.2645Z" fill="#221F51"/>
<path d="M18.2208 10.6467C18.2072 10.6512 18.18 10.6648 18.1755 10.6603C18.1573 10.6422 18.1755 10.6286 18.1936 10.624C18.2072 10.6331 18.2163 10.6376 18.2208 10.6467Z" fill="#221F51"/>
<path d="M15.8044 10.4907C16.1627 10.4907 16.4531 10.2002 16.4531 9.84201C16.4531 9.48377 16.1627 9.19336 15.8044 9.19336C15.4462 9.19336 15.1558 9.48377 15.1558 9.84201C15.1558 10.2002 15.4462 10.4907 15.8044 10.4907Z" fill="white"/>
<path d="M22.3314 15.8542C22.739 15.8542 23.0695 15.5237 23.0695 15.116C23.0695 14.7084 22.739 14.3779 22.3314 14.3779C21.9237 14.3779 21.5933 14.7084 21.5933 15.116C21.5933 15.5237 21.9237 15.8542 22.3314 15.8542Z" fill="white"/>
<path d="M30.9071 14.9596C31.3147 14.9596 31.6452 14.6292 31.6452 14.2215C31.6452 13.8139 31.3147 13.4834 30.9071 13.4834C30.4994 13.4834 30.1689 13.8139 30.1689 14.2215C30.1689 14.6292 30.4994 14.9596 30.9071 14.9596Z" fill="white"/>
<path d="M15.8494 10.5348C16.2571 10.5348 16.5876 10.2044 16.5876 9.79671C16.5876 9.38906 16.2571 9.05859 15.8494 9.05859C15.4418 9.05859 15.1113 9.38906 15.1113 9.79671C15.1113 10.2044 15.4418 10.5348 15.8494 10.5348Z" fill="white"/>
<path d="M17.7728 11.8327C18.1804 11.8327 18.5109 11.5022 18.5109 11.0946C18.5109 10.6869 18.1804 10.3564 17.7728 10.3564C17.3651 10.3564 17.0347 10.6869 17.0347 11.0946C17.0347 11.5022 17.3651 11.8327 17.7728 11.8327Z" fill="white"/>
<path d="M28.1825 13.8854C28.5901 13.8854 28.9206 13.555 28.9206 13.1473C28.9206 12.7396 28.5901 12.4092 28.1825 12.4092C27.7748 12.4092 27.4443 12.7396 27.4443 13.1473C27.4443 13.555 27.7748 13.8854 28.1825 13.8854Z" fill="white"/>
<path d="M28.1825 10.4899C28.5901 10.4899 28.9206 10.1594 28.9206 9.75179C28.9206 9.34414 28.5901 9.01367 28.1825 9.01367C27.7748 9.01367 27.4443 9.34414 27.4443 9.75179C27.4443 10.1594 27.7748 10.4899 28.1825 10.4899Z" fill="white"/>
<path d="M24.3846 10.8034C24.7923 10.8034 25.1227 10.4729 25.1227 10.0653C25.1227 9.65762 24.7923 9.32715 24.3846 9.32715C23.977 9.32715 23.6465 9.65762 23.6465 10.0653C23.6465 10.4729 23.977 10.8034 24.3846 10.8034Z" fill="white"/>
<path d="M13.7513 14.4225C14.159 14.4225 14.4894 14.0921 14.4894 13.6844C14.4894 13.2768 14.159 12.9463 13.7513 12.9463C13.3437 12.9463 13.0132 13.2768 13.0132 13.6844C13.0132 14.0921 13.3437 14.4225 13.7513 14.4225Z" fill="white"/>
<path d="M25.4583 8.61589C25.866 8.61589 26.1965 8.28542 26.1965 7.87777C26.1965 7.47012 25.866 7.13965 25.4583 7.13965C25.0507 7.13965 24.7202 7.47012 24.7202 7.87777C24.7202 8.28542 25.0507 8.61589 25.4583 8.61589Z" fill="white"/>
<path d="M23.3558 8.07878C23.7634 8.07878 24.0939 7.74831 24.0939 7.34066C24.0939 6.93301 23.7634 6.60254 23.3558 6.60254C22.9481 6.60254 22.6177 6.93301 22.6177 7.34066C22.6177 7.74831 22.9481 8.07878 23.3558 8.07878Z" fill="white"/>
<path d="M19.7367 8.30241C20.1443 8.30241 20.4748 7.97194 20.4748 7.56429C20.4748 7.15664 20.1443 6.82617 19.7367 6.82617C19.329 6.82617 18.9985 7.15664 18.9985 7.56429C18.9985 7.97194 19.329 8.30241 19.7367 8.30241Z" fill="white"/>
<path d="M22.2194 39.0266C19.9469 39.0266 17.7415 38.5837 15.6658 37.7069C13.6617 36.8615 11.8589 35.6536 10.3156 34.1103C8.76775 32.567 7.55545 30.7731 6.70549 28.7779C5.82869 26.7067 5.38135 24.5103 5.38135 22.2467C5.38135 19.9831 5.82869 17.7822 6.70549 15.7155C7.55545 13.7158 8.76775 11.922 10.3156 10.3831C11.8634 8.83978 13.6617 7.63195 15.6658 6.78646C17.7415 5.90967 19.9469 5.4668 22.2194 5.4668C24.4919 5.4668 26.6973 5.90967 28.773 6.78646C30.7771 7.63195 32.5799 8.83978 34.1233 10.3831C35.6711 11.9265 36.8834 13.7203 37.7333 15.7155C38.6101 17.7867 39.0575 19.9831 39.0575 22.2467C39.0575 24.5103 38.6101 26.7112 37.7333 28.7779C36.8834 30.7776 35.6711 32.5714 34.1233 34.1103C32.5754 35.6536 30.7771 36.8615 28.773 37.7069C26.6973 38.5793 24.4919 39.0266 22.2194 39.0266ZM22.2194 5.68152C13.0578 5.68152 5.60502 13.1119 5.60502 22.2422C5.60502 31.3725 13.0578 38.8029 22.2194 38.8029C31.381 38.8029 38.8338 31.3725 38.8338 22.2422C38.8293 13.1119 31.3766 5.68152 22.2194 5.68152Z" fill="white"/>
<path d="M22.242 44.5377C19.2403 44.5377 16.3281 43.9472 13.5859 42.7885C10.9376 41.6657 8.55771 40.0597 6.51782 38.0154C4.47345 35.971 2.87196 33.5867 1.74912 30.9384C0.590497 28.1917 0 25.275 0 22.2688C0 19.2627 0.586024 16.346 1.74912 13.5993C2.86748 10.9465 4.47345 8.56666 6.51782 6.52229C8.56218 4.47792 10.9376 2.87196 13.5859 1.74912C16.3281 0.586024 19.2403 0 22.242 0C25.2437 0 28.1559 0.590497 30.8981 1.74912C33.5464 2.87196 35.9263 4.47792 37.9662 6.52229C40.0105 8.56666 41.612 10.951 42.7349 13.5993C43.8935 16.346 44.484 19.2627 44.484 22.2688C44.484 25.275 43.898 28.1917 42.7349 30.9384C41.6165 33.5911 40.0105 35.971 37.9662 38.0154C35.9218 40.0597 33.5464 41.6657 30.8981 42.7885C28.1559 43.9472 25.2437 44.5377 22.242 44.5377ZM22.242 0.290774C10.1413 0.290774 0.295248 10.1503 0.295248 22.2644C0.295248 34.3829 10.1413 44.2379 22.242 44.2379C34.3427 44.2379 44.1887 34.3785 44.1887 22.2644C44.1887 10.1458 34.3427 0.290774 22.242 0.290774Z" fill="white"/>
</g>
<defs>
<clipPath id="clip0_112_1490">
<rect width="44.484" height="44.5377" fill="white"/>
</clipPath>
</defs>
</svg>
