<svg width="79" height="79" viewBox="0 0 79 79" fill="none" xmlns="http://www.w3.org/2000/svg">
<path d="M39.3502 78.6704C60.921 78.6704 78.4075 61.134 78.4075 39.5017C78.4075 17.8694 60.921 0.333008 39.3502 0.333008C17.7795 0.333008 0.292969 17.8694 0.292969 39.5017C0.292969 61.134 17.7795 78.6704 39.3502 78.6704Z" fill="#221F51"/>
<path d="M39.3343 77.9966C18.0469 77.9887 0.807861 60.7275 0.807861 39.4226C0.807861 18.1256 18.0707 0.848519 39.3581 0.856448C60.6534 0.864377 77.9004 18.1573 77.8846 39.4781C77.8687 60.7592 60.6059 78.0045 39.3343 77.9966ZM15.4959 59.6174C15.3216 60.1645 15.1473 60.6958 14.973 61.2349C14.7988 61.782 14.6086 62.3291 14.4423 62.8841C14.3789 63.1062 14.2442 63.0903 14.0857 63.0744C13.547 63.011 13.0083 62.9476 12.4696 62.8921C11.6219 62.7969 10.7821 62.7097 9.93443 62.6146C9.91858 62.6542 9.90274 62.7018 9.88689 62.7414C17.936 72.3195 28.1479 77.3306 40.7366 76.8945C52.5251 76.4822 61.9606 71.2571 69.2413 62.0437C67.7677 62.1547 66.31 62.2974 64.8681 62.4877C64.5274 62.5353 64.4324 62.3846 64.3532 62.123C64.06 61.1874 63.759 60.2518 63.45 59.3003C57.128 66.5869 49.2214 70.5593 39.5561 70.6307C29.8988 70.6941 21.9289 66.8407 15.4959 59.6174ZM9.21349 39.3908C9.13427 55.9305 22.5864 69.5365 39.2155 69.6078C55.8762 69.6792 69.4948 56.208 69.5106 39.4701C69.5344 22.7798 56.0347 9.26107 39.366 9.25314C22.634 9.23729 9.16596 22.875 9.21349 39.3908ZM18.5302 14.7875C18.554 15.0492 18.4906 15.3108 18.7758 15.4297C19.0531 15.5487 19.2511 15.3901 19.4492 15.2236C19.6156 15.0809 19.7898 14.9382 19.9641 14.7954C20.1147 14.6765 20.0434 14.5814 19.9641 14.4624C19.8611 14.3118 19.774 14.3831 19.6789 14.4624C19.5363 14.5814 19.4017 14.7082 19.2511 14.8113C19.0372 14.9461 18.9342 14.8668 18.9342 14.621C18.9342 14.4941 18.9818 14.399 19.0531 14.2959C19.465 13.7012 19.5284 13.0669 19.2749 12.3851C18.9659 11.5367 18.0311 10.9896 17.12 11.1561C16.2802 11.3067 15.6861 12.0758 15.6781 12.9797C15.694 14.1056 16.819 15.4932 18.5302 14.7875ZM48.8808 5.39971C48.9362 5.55828 48.9838 5.65343 48.9996 5.74857C49.1898 6.6604 49.4116 7.57222 49.5383 8.49197C49.6096 8.99149 49.8631 9.18178 50.2989 9.269C50.4732 9.30865 50.5366 9.26107 50.5841 9.11042C50.9247 8.07967 51.2654 7.04891 51.6061 6.01816C51.6694 5.82786 51.6694 5.67721 51.408 5.61378C51.1624 5.55035 51.0753 5.59792 51.0436 5.85165C51.0277 6.0023 50.9485 6.14502 50.901 6.29567C50.6554 7.04891 50.4098 7.79423 50.1642 8.5554C50.0374 8.47611 50.0533 8.38097 50.0374 8.29375C49.8394 7.34228 49.6096 6.39081 49.4512 5.43142C49.3799 5.01119 49.1739 4.86054 48.8174 4.76539C48.6114 4.70989 48.5005 4.69403 48.4213 4.95568C48.1123 5.98644 47.7716 7.00927 47.4231 8.02417C47.3438 8.26203 47.3914 8.33339 47.6132 8.40475C47.8429 8.47611 47.9063 8.40475 47.9697 8.1986C48.2628 7.27092 48.5639 6.36703 48.8808 5.39971ZM3.20834 36.5206C3.11327 36.8853 3.2321 37.028 3.62822 37.0598C4.61059 37.139 5.60089 37.258 6.57534 37.3848C6.81301 37.4166 6.92393 37.4086 6.97146 37.1232C7.01899 36.7981 6.8447 36.814 6.63872 36.7981C6.33767 36.7743 6.03662 36.7347 5.73557 36.695C5.65635 36.6871 5.5692 36.6792 5.51375 36.6316C5.39491 36.5285 5.61674 35.6801 5.77519 35.6167C6.18715 35.4502 6.60703 35.2837 7.02692 35.1251C7.32797 35.0141 7.27251 34.7366 7.22498 34.5542C7.15368 34.3005 6.96354 34.5304 6.85263 34.5622C6.52781 34.6732 6.20299 34.7921 5.90194 34.9427C5.66427 35.0617 5.57713 34.9824 5.4979 34.7683C5.32361 34.3243 4.98295 34.1102 4.52345 34.1023C4.05603 34.0944 3.72329 34.3243 3.53316 34.7524C3.2638 35.3233 3.30341 35.9418 3.20834 36.5206ZM28.7817 7.22335C29.3442 6.6604 29.4393 6.22431 29.1145 5.69307C28.8372 5.23319 28.2668 5.09048 27.5934 5.30456C27.1418 5.44728 26.6981 5.60585 26.2466 5.76443C26.1436 5.80408 26.0168 5.81993 26.0802 6.0023C26.4526 7.06477 26.8249 8.12724 27.1735 9.18971C27.2527 9.43551 27.3874 9.34036 27.5379 9.30865C27.7201 9.26107 27.7598 9.158 27.6964 8.99149C27.5775 8.65848 27.4666 8.32546 27.3557 7.99245C27.3319 7.92109 27.2527 7.82594 27.3399 7.7863C27.6013 7.66737 27.8786 7.57222 28.1559 7.49293C28.3222 7.44536 28.4015 7.62772 28.4965 7.71494C28.7817 7.96866 29.0511 8.23824 29.3205 8.50783C29.5423 8.72983 29.78 8.58712 29.9226 8.46025C30.081 8.31753 29.8275 8.23031 29.7483 8.15103C29.4472 7.82594 29.1065 7.52465 28.7817 7.22335ZM33.9154 7.62772C34.9453 7.64358 35.7455 6.84276 35.7693 5.77236C35.793 4.67024 34.9929 3.77428 33.9709 3.75842C32.9489 3.74257 32.1329 4.46409 32.0933 5.62964C32.0537 6.70797 32.9172 7.61186 33.9154 7.62772ZM63.0935 13.4317C63.1727 13.511 63.244 13.5665 63.3074 13.6299C63.6718 13.9867 64.0363 14.3514 64.4007 14.7161C64.5591 14.8747 64.6859 14.8272 64.8364 14.6765C65.0028 14.51 64.884 14.4307 64.773 14.3276C64.2581 13.836 63.7511 13.3444 63.244 12.8449C63.0935 12.6943 62.9667 12.6705 62.8162 12.8291C62.0557 13.6299 61.2872 14.4307 60.5187 15.2236C60.384 15.3584 60.4237 15.4218 60.5425 15.5328C61.0891 16.0482 61.6279 16.5715 62.1587 17.1027C62.333 17.2692 62.4359 17.2137 62.5785 17.071C62.7449 16.9124 62.6419 16.8332 62.531 16.7222C62.2854 16.4843 62.0398 16.2385 61.7942 16.0006C61.1525 15.3822 61.1604 15.3822 61.8022 14.7399C61.9606 14.5893 62.0398 14.5972 62.1824 14.7479C62.5072 15.0809 62.8479 15.3822 63.1727 15.7073C63.347 15.8817 63.4342 15.7628 63.5609 15.6518C63.7035 15.5249 63.656 15.4456 63.5451 15.3346C63.2995 15.1126 63.0697 14.8747 62.8321 14.6527C62.325 14.1691 62.325 14.177 62.8321 13.6695C62.9113 13.5902 62.9984 13.5189 63.0935 13.4317ZM71.0951 38.4235C71.103 38.4235 71.103 38.4235 71.1109 38.4235C71.1109 38.8041 71.1189 39.1926 71.1109 39.5732C71.103 39.7635 71.1743 39.8269 71.3644 39.8269C71.5467 39.819 71.6734 39.7952 71.6496 39.5653C71.618 39.2243 71.5942 38.8834 71.5942 38.5345C71.5942 37.4245 71.3328 37.7099 72.4736 37.6148C72.7192 37.591 72.7588 37.702 72.7588 37.9081C72.7667 38.3284 72.7905 38.7486 72.8142 39.1768C72.8222 39.3353 72.7746 39.5177 73.0598 39.5098C73.3688 39.5019 73.3133 39.3116 73.3054 39.1371C73.2975 38.8834 73.2975 38.6376 73.2737 38.3839C73.2183 37.5751 73.2183 37.5831 74.0501 37.5751C74.2799 37.5751 74.3433 37.6465 74.3433 37.8606C74.3433 38.3759 74.3749 38.8913 74.3749 39.4067C74.3749 39.6366 74.4542 39.6921 74.676 39.6921C74.9216 39.6921 74.9137 39.5574 74.9057 39.3908C74.8741 38.6772 74.8424 37.9636 74.8265 37.258C74.8186 37.028 74.7552 36.9646 74.5255 36.9805C73.456 37.0201 72.3864 37.0598 71.3248 37.0756C71.0713 37.0835 71.0079 37.1866 71.0317 37.4166C71.0555 37.7416 71.0713 38.0826 71.0951 38.4235ZM4.63436 48.8976C5.65635 48.6597 6.78133 48.3901 7.91422 48.1206C8.01721 48.0968 8.03306 48.0254 8.00929 47.9461C7.82708 47.1691 7.64486 46.3921 7.45473 45.615C7.40719 45.4247 7.27251 45.4802 7.13783 45.4961C6.97146 45.5199 6.91601 45.5754 6.96354 45.7577C7.05861 46.1145 7.14575 46.4713 7.22498 46.8281C7.40719 47.6607 7.39927 47.6448 6.58327 47.8589C6.28222 47.9382 6.19507 47.843 6.14754 47.5655C6.06831 47.1294 5.94947 46.7013 5.84648 46.2652C5.79103 46.0432 5.63258 46.1304 5.4979 46.1463C5.32361 46.1701 5.34738 46.2493 5.38699 46.3921C5.47413 46.7171 5.54544 47.0581 5.59297 47.3911C5.62466 47.6052 5.84649 47.8589 5.71181 48.0016C5.5692 48.1443 5.26815 48.1206 5.04633 48.2078C4.74528 48.3267 4.65813 48.184 4.6106 47.9223C4.50761 47.4228 4.38085 46.9233 4.27786 46.4238C4.23032 46.2097 4.11149 46.2414 3.95304 46.2731C3.80252 46.3048 3.72329 46.3286 3.77083 46.5268C3.95304 47.2484 4.11941 47.9858 4.2937 48.7152C4.33331 48.85 4.365 48.9531 4.63436 48.8976ZM66.4922 19.9334C67.2052 20.2902 67.6409 20.2505 68.0291 19.8065C68.3856 19.4021 68.346 18.8075 67.9261 18.2128C67.6647 17.8481 67.3874 17.4992 67.1339 17.1345C67.023 16.9759 66.9438 16.968 66.7932 17.079C65.9297 17.7291 65.0582 18.3714 64.1868 18.9977C64.0046 19.1325 64.0442 19.2039 64.1472 19.3704C64.2739 19.5766 64.3848 19.5131 64.5195 19.41C64.8443 19.1643 65.1692 18.9185 65.5177 18.6647C65.6366 18.8154 65.7316 18.966 65.8584 19.1008C66.1119 19.3545 66.1674 19.6083 65.9614 19.9254C65.8029 20.1633 65.7158 20.4487 65.5574 20.6945C65.3435 21.0196 65.4464 21.2416 65.7396 21.4636C66.0406 20.98 66.2466 20.4487 66.4922 19.9334ZM43.446 7.55636C44.1987 7.55636 44.7849 7.05684 44.8958 6.31153C44.9909 5.63757 45.0701 4.95568 45.181 4.28173C45.2286 4.01215 45.1652 3.917 44.8958 3.87736C44.6027 3.83771 44.6027 4.00422 44.5789 4.20244C44.4918 4.85261 44.4126 5.51071 44.3096 6.16088C44.2145 6.7714 43.8421 7.0727 43.2876 7.02513C42.6934 6.96963 42.3765 6.61282 42.432 5.97851C42.4954 5.2887 42.5904 4.59095 42.7013 3.90907C42.7409 3.68706 42.7251 3.59984 42.4874 3.56813C42.2656 3.54434 42.123 3.52848 42.0992 3.82978C42.0438 4.45616 41.9566 5.09048 41.8536 5.70893C41.6873 6.79519 42.3369 7.56429 43.446 7.55636ZM8.71438 20.2505C8.53217 20.2902 8.47671 20.536 8.33411 20.7025C8.18358 20.8769 8.27865 20.972 8.37372 21.0989C9.06297 21.979 9.74429 22.867 10.4415 23.7471C10.5286 23.8582 10.5999 24.104 10.7663 23.9533C10.893 23.8344 11.1466 23.6282 10.8613 23.3903C10.3702 22.9939 10.4177 22.5737 10.8059 22.1376C10.8455 22.09 10.8772 22.0266 10.9089 21.9711C11.2892 21.3526 11.2892 21.3526 12.018 21.4874C12.0735 21.4953 12.121 21.5191 12.1765 21.5112C12.4062 21.4874 12.43 21.2654 12.5092 21.1148C12.5647 21.0038 12.4141 20.98 12.3349 20.9641C11.1465 20.7342 9.97404 20.5042 8.71438 20.2505ZM7.56564 27.0376C7.73201 27.0059 7.81916 26.9901 7.91422 26.9742C8.38164 26.8949 8.84906 26.8236 9.31648 26.7443C9.63338 26.6888 9.64922 26.3875 9.6413 26.1972C9.63338 26.0148 9.39571 26.1575 9.27687 26.1734C8.76984 26.2606 8.26281 26.3558 7.7637 26.4747C7.54979 26.5223 7.43096 26.4826 7.31212 26.2923C7.01107 25.8404 6.69418 25.4122 6.36936 24.9761C6.32183 24.9127 6.25053 24.7224 6.15546 24.881C6.03662 25.0792 5.85441 25.2854 6.09208 25.5549C6.37729 25.88 6.60703 26.2527 6.88432 26.5857C7.05861 26.7998 7.00315 26.8553 6.75756 26.887C6.3139 26.9504 5.87818 27.0456 5.43452 27.109C5.11763 27.1566 5.04633 27.4262 5.08594 27.6402C5.12555 27.8702 5.3553 27.6878 5.48206 27.6719C5.93363 27.6006 6.39313 27.5134 6.83678 27.4024C7.0903 27.3389 7.21705 27.4103 7.35173 27.6085C7.66071 28.0684 7.98552 28.5124 8.30242 28.9644C8.35787 29.0436 8.47671 29.2022 8.52425 29.0912C8.60347 28.893 8.87283 28.7106 8.63516 28.4252C8.27073 27.997 7.94591 27.5372 7.56564 27.0376ZM6.48027 41.5475C6.27429 41.6347 6.17922 41.6744 6.08415 41.714C5.20477 42.0708 4.33331 42.4435 3.44601 42.7844C3.11327 42.9113 3.22418 43.1571 3.27964 43.3394C3.35094 43.5773 3.52523 43.387 3.63615 43.3394C4.65021 42.9271 5.65635 42.491 6.66249 42.0787C6.88432 41.9836 7.01107 41.8884 6.95562 41.6189C6.90016 41.3731 7.019 41.0876 6.60703 40.9846C5.54544 40.7229 4.49968 40.4057 3.44601 40.1124C3.33509 40.0807 3.19249 39.9459 3.0895 40.1044C3.00236 40.2313 3.06573 40.3899 3.0895 40.5326C3.12119 40.707 3.29548 40.6833 3.4064 40.715C4.39669 40.9925 5.38699 41.2541 6.48027 41.5475ZM67.4429 24.2308C67.4825 24.7541 67.6964 25.2299 68.14 25.5946C68.5203 25.9038 68.9877 25.9276 69.3918 25.6659C69.78 25.4201 69.8909 25.0951 69.7641 24.5718C69.677 24.1912 69.5819 23.8027 69.5027 23.4221C69.4631 23.2318 69.5027 23.0573 69.6849 22.9384C69.8671 22.8195 70.0573 22.8115 70.2395 22.9225C70.7307 23.2001 70.9208 23.9533 70.5722 24.3735C70.3742 24.6114 70.596 24.7303 70.6673 24.8334C70.7544 24.9603 70.8574 24.7779 70.9287 24.7065C71.0713 24.5638 71.1585 24.3894 71.1822 24.1832C71.2615 23.5806 71.0159 23.097 70.6197 22.6847C70.2791 22.3279 69.8434 22.2565 69.471 22.4627C69.0907 22.6688 68.9481 23.0018 69.0511 23.5093C69.1224 23.8423 69.2175 24.1753 69.3126 24.5004C69.4076 24.8255 69.3522 25.1109 69.0353 25.2774C68.7025 25.4519 68.4015 25.3409 68.1955 25.0633C67.8628 24.6273 67.6726 24.1119 68.1004 23.6679C68.2827 23.4855 68.1321 23.3348 68.0291 23.2238C67.8707 23.0494 67.8073 23.2793 67.736 23.3507C67.5221 23.5806 67.4508 23.874 67.4429 24.2308ZM57.3736 12.3851C57.3736 12.2899 57.3656 12.2503 57.3736 12.2185C57.6508 11.2274 57.9043 10.2363 58.2054 9.26107C58.3163 8.9122 58.039 8.86463 57.8806 8.79327C57.6667 8.69812 57.7063 8.95978 57.6667 9.07078C57.4924 9.64959 57.3339 10.2284 57.1755 10.8072C57.0408 11.2988 56.9141 11.7983 56.7715 12.2899C56.6605 12.6784 57.0091 12.726 57.1913 12.9004C57.3735 13.0669 57.5003 12.9797 57.6588 12.8608C58.5461 12.1948 59.4413 11.5446 60.3207 10.8786C60.4078 10.8151 60.6772 10.7676 60.5029 10.5931C60.3761 10.4663 60.2177 10.2046 59.9404 10.4345C59.6077 10.7121 59.2512 10.9658 58.9026 11.2274C58.4035 11.608 57.9123 11.9807 57.3736 12.3851ZM24.8998 10.3632C24.0125 9.60201 23.1172 8.84084 22.2458 8.06381C22.0319 7.87352 21.8893 7.81008 21.612 7.96866C21.3426 8.11931 21.2872 8.28582 21.3347 8.56333C21.5248 9.71302 21.7071 10.8627 21.9051 12.0362C22.0715 11.9172 22.3805 11.9807 22.325 11.6318C22.1982 10.831 22.1982 10.831 22.8875 10.4583C22.9905 10.4028 23.1014 10.3553 23.1965 10.276C23.5609 9.9826 23.8778 9.96674 24.1868 10.3632C24.3927 10.6724 24.6463 10.6724 24.8998 10.3632ZM71.0872 43.3553C70.8891 43.276 70.8257 43.4029 70.7861 43.6328C70.7386 43.8945 70.8653 43.9341 71.0792 43.9579C71.9586 44.0689 72.8301 44.2037 73.7095 44.3068C73.9551 44.3385 74.0184 44.4098 73.9551 44.6477C73.8996 44.8776 73.8996 45.1155 73.86 45.3534C73.8362 45.5357 73.9313 45.5754 74.0818 45.5912C74.2403 45.6071 74.3591 45.615 74.3908 45.4009C74.5017 44.5684 74.6126 43.728 74.7315 42.8954C74.7552 42.7131 74.7394 42.6021 74.5096 42.5783C74.2799 42.5545 74.2007 42.6258 74.1848 42.8478C74.169 43.054 74.1056 43.2681 74.1056 43.4742C74.1056 43.7517 73.9868 43.7517 73.7649 43.72C72.8935 43.5852 72.0141 43.4742 71.0872 43.3553ZM70.4613 33.0557C70.4375 33.3332 70.5484 33.4204 70.8416 33.349C71.4912 33.1984 72.1567 33.0795 72.8142 32.9447C73.7095 32.7623 73.7095 32.7623 73.8996 33.6503C73.9392 33.8168 73.9392 33.9754 74.2165 33.9199C74.4859 33.8644 74.4304 33.7058 74.3987 33.5473C74.2482 32.7623 74.0897 31.9773 73.9392 31.1844C73.9075 31.0021 73.8441 30.9069 73.6302 30.9545C73.4243 30.9942 73.3688 31.0972 73.4243 31.2796C73.4718 31.454 73.5114 31.6364 73.5589 31.8108C73.6382 32.1042 73.5589 32.239 73.2262 32.2945C72.3944 32.4293 71.5704 32.6116 70.7465 32.7782C70.5881 32.8099 70.39 32.8019 70.4613 33.0557ZM11.6773 16.2702C11.511 16.3257 11.4476 16.4684 11.3525 16.5715C11.2654 16.6667 11.3367 16.7618 11.4238 16.8411C12.2636 17.5785 13.0954 18.3238 13.9273 19.0612C14.0303 19.1484 14.1174 19.196 14.2204 19.0691C14.6878 18.522 15.1632 17.9749 15.6385 17.4278C15.8049 17.2375 15.6465 17.1582 15.5435 17.0472C15.4167 16.9045 15.3375 16.968 15.2424 17.0869C14.9414 17.4516 14.6086 17.7926 14.3155 18.1652C14.1491 18.3714 14.0461 18.3714 13.856 18.1969C13.2222 17.6102 12.5647 17.0393 11.915 16.4684C11.8358 16.3891 11.7566 16.3257 11.6773 16.2702ZM73.4084 49.0958C73.6619 49.1592 73.5669 48.8659 73.6461 48.739C73.7728 48.5329 73.5906 48.5329 73.4718 48.5011C72.8142 48.3188 72.1488 48.1443 71.4912 47.962C71.0713 47.851 70.6514 47.74 70.2395 47.6131C69.9622 47.5338 69.978 47.7717 69.9226 47.9065C69.8592 48.0413 69.8909 48.1523 70.0652 48.1998C71.1664 48.4774 72.2518 48.7787 73.4084 49.0958ZM55.187 7.33435C55.1315 7.1837 54.9652 7.17578 54.8463 7.10442C54.7037 7.0172 54.6245 7.11234 54.569 7.23128C54.0858 8.22239 53.6104 9.2135 53.1113 10.1888C52.9925 10.4187 53.0955 10.4742 53.2539 10.5693C53.452 10.6803 53.555 10.6407 53.65 10.4425C54.1175 9.47515 54.5928 8.51575 55.0681 7.55636C55.1078 7.485 55.1474 7.41364 55.187 7.33435ZM69.5185 29.2022C69.5661 29.1864 69.5978 29.1705 69.6374 29.1626C70.6831 28.8058 71.7289 28.4411 72.7826 28.0843C73.0123 28.005 72.9172 27.894 72.8697 27.7592C72.8222 27.6165 72.8222 27.4737 72.5924 27.553C71.5387 27.9257 70.4771 28.2904 69.4155 28.6551C69.2967 28.6948 69.2096 28.7582 69.2967 28.8771C69.3759 28.9802 69.3205 29.1864 69.5185 29.2022Z" fill="white"/>
<path d="M39.3503 77.592C34.2008 77.592 29.2097 76.585 24.5038 74.5869C19.9643 72.6682 15.8842 69.9089 12.3826 66.4043C8.88087 62.8998 6.13181 58.8164 4.20668 54.2731C2.21817 49.5634 1.2041 44.5682 1.2041 39.4144C1.2041 34.2606 2.21024 29.2654 4.20668 24.5557C6.13181 20.0124 8.88087 15.929 12.3826 12.4245C15.8842 8.91991 19.9643 6.16858 24.5038 4.24186C29.2097 2.25171 34.2008 1.23682 39.3503 1.23682C44.4998 1.23682 49.4909 2.24378 54.1968 4.24186C58.7363 6.16858 62.8163 8.91991 66.318 12.4245C69.8197 15.929 72.5688 20.0124 74.4939 24.5557C76.4824 29.2654 77.4965 34.2606 77.4965 39.4144C77.4965 44.5682 76.4903 49.5634 74.4939 54.2731C72.5688 58.8164 69.8197 62.8998 66.318 66.4043C62.8163 69.9089 58.7363 72.6602 54.1968 74.5869C49.4909 76.585 44.4919 77.592 39.3503 77.592ZM39.3503 9.17363C22.6816 9.17363 9.11855 22.7479 9.11855 39.4303C9.11855 56.1126 22.6816 69.6869 39.3503 69.6869C56.0189 69.6869 69.582 56.1126 69.582 39.4303C69.5741 22.74 56.0189 9.17363 39.3503 9.17363Z" fill="white"/>
<path d="M15.5594 59.5458C21.9923 66.7611 29.9622 70.6224 39.6275 70.5511C49.3007 70.4797 57.2072 66.5074 63.5214 59.2207C63.8224 60.1722 64.1314 61.1078 64.4245 62.0434C64.5037 62.305 64.5988 62.4557 64.9395 62.4081C66.3893 62.2258 67.839 62.0751 69.3126 61.9641C62.032 71.1775 52.5885 76.4026 40.8079 76.8149C28.2193 77.2589 17.9915 72.2479 9.95825 62.6618C9.9741 62.6222 9.98994 62.5746 10.0058 62.535C10.8535 62.6301 11.6932 62.7173 12.5409 62.8125C13.0797 62.8759 13.6184 62.9314 14.1571 62.9949C14.3235 63.0107 14.4502 63.0266 14.5136 62.8046C14.6721 62.2495 14.8622 61.7024 15.0444 61.1554C15.2108 60.632 15.3851 60.0929 15.5594 59.5458ZM37.132 73.7702C37.132 73.9129 37.124 74.0636 37.132 74.2063C37.1557 74.801 37.6231 75.245 38.2411 75.2529C38.8907 75.2688 39.3581 74.8803 39.3978 74.2697C39.4136 73.9922 39.4057 73.7147 39.4057 73.4372C39.3978 72.8505 39.0888 72.462 38.5659 72.3589C37.9559 72.2399 37.4647 72.4778 37.2191 72.9932C37.1003 73.2469 37.1478 73.5086 37.132 73.7702ZM40.8713 74.571C41.0773 74.3807 41.2199 74.2618 41.3387 74.127C41.4734 73.9843 41.616 73.8416 41.719 73.6751C41.9646 73.2866 41.9171 72.8822 41.6002 72.6047C41.1328 72.1924 40.3168 72.2479 39.9286 72.7395C39.8652 72.8187 39.6592 72.9694 39.8256 73.0408C40.0078 73.12 40.1979 73.461 40.4514 73.1676C40.6337 72.9615 40.8555 72.8584 41.0615 73.0566C41.2833 73.2628 41.0931 73.461 40.9505 73.6354C40.8713 73.7226 40.7842 73.8099 40.697 73.8891C40.4435 74.127 40.1979 74.357 39.9444 74.5869C39.778 74.7375 39.8176 74.9358 39.8493 75.1023C39.8889 75.2846 40.0712 75.1974 40.1821 75.1974C40.6574 75.2053 41.1328 75.1895 41.6081 75.2053C41.8062 75.2133 41.8695 75.1578 41.8854 74.9437C41.9012 74.6345 41.8141 74.5155 41.4972 74.5552C41.3229 74.5948 41.1486 74.571 40.8713 74.571ZM43.3906 74.571C43.5728 74.3966 43.6996 74.2856 43.8105 74.1746C43.9373 74.0398 44.072 73.9129 44.1749 73.7623C44.4998 73.2945 44.4205 72.8267 43.9848 72.5254C43.4857 72.1765 42.6935 72.3351 42.3766 72.8425C42.329 72.9139 42.226 73.0328 42.3528 73.0725C42.5746 73.1438 42.7727 73.5006 43.05 73.12C43.1846 72.9377 43.3906 72.9297 43.5808 73.0566C43.8026 73.2152 43.6838 73.3738 43.5649 73.5244C43.4699 73.6434 43.3669 73.7623 43.248 73.8733C42.9866 74.127 42.7172 74.3807 42.4399 74.6265C42.2657 74.7772 42.329 74.9754 42.3607 75.1419C42.3924 75.2846 42.5667 75.2053 42.6697 75.2133C43.153 75.2212 43.6441 75.2053 44.1353 75.2212C44.3413 75.2291 44.3889 75.1578 44.4047 74.9516C44.4285 74.6265 44.3096 74.5314 44.0086 74.571C43.8422 74.5869 43.66 74.571 43.3906 74.571ZM35.7218 74.571C35.9991 74.2777 36.2763 74.0953 36.4586 73.8257C36.6249 73.5879 36.7675 73.3421 36.6725 73.0249C36.5695 72.6522 36.316 72.4461 35.9595 72.3668C35.4841 72.2637 35.0642 72.3827 34.7632 72.7712C34.7077 72.8346 34.478 72.9615 34.6998 73.0645C34.8741 73.1438 35.0484 73.4055 35.2702 73.1914C35.4762 72.9932 35.698 72.8505 35.9119 73.0645C36.1496 73.3024 35.9198 73.5244 35.7455 73.6989C35.4366 74.0002 35.1197 74.3014 34.8028 74.5948C34.6364 74.7455 34.676 74.9437 34.7077 75.1102C34.7394 75.2926 34.9295 75.2053 35.0405 75.2053C35.5 75.2133 35.9595 75.1974 36.4269 75.2133C36.6962 75.2291 36.7438 75.1261 36.7517 74.8803C36.7596 74.5948 36.6487 74.5472 36.411 74.5631C36.1971 74.5869 35.9911 74.571 35.7218 74.571ZM33.654 73.1597C33.2975 73.1597 33.0282 73.4213 33.0282 73.7781C33.0282 74.1349 33.2896 74.4125 33.6382 74.4204C33.9868 74.4283 34.2641 74.1429 34.272 73.794C34.272 73.4451 34.0026 73.1676 33.654 73.1597ZM45.4267 73.1597C45.0781 73.1597 44.8087 73.4293 44.8008 73.7781C44.7929 74.127 45.0702 74.4125 45.4108 74.4125C45.7673 74.4204 46.0684 74.1191 46.0605 73.7702C46.0605 73.4372 45.7753 73.1676 45.4267 73.1597Z" fill="#221F51"/>
<path d="M37.1322 73.7703C37.1401 73.5087 37.1005 73.247 37.2193 72.9933C37.4649 72.4779 37.9561 72.24 38.5661 72.359C39.089 72.462 39.398 72.8506 39.4059 73.4373C39.4138 73.7148 39.4217 73.9923 39.398 74.2698C39.3583 74.8804 38.8909 75.2609 38.2413 75.253C37.6233 75.2372 37.148 74.8011 37.1322 74.2064C37.1322 74.0557 37.1322 73.913 37.1322 73.7703ZM38.7325 73.8099C38.7325 73.6672 38.7325 73.5166 38.7325 73.3739C38.7325 73.0805 38.5344 72.9853 38.2967 72.9774C38.0591 72.9695 37.8531 73.0646 37.8452 73.358C37.8372 73.6514 37.8372 73.9368 37.8452 74.2302C37.8531 74.5236 38.0512 74.6108 38.2967 74.6028C38.5423 74.5949 38.7325 74.5077 38.7325 74.2064C38.7325 74.0795 38.7325 73.9447 38.7325 73.8099Z" fill="white"/>
<path d="M40.8715 74.5712C41.1488 74.5712 41.331 74.587 41.5132 74.5632C41.8301 74.5236 41.9172 74.6425 41.9014 74.9517C41.8855 75.1658 41.8222 75.2213 41.6241 75.2134C41.1487 75.1975 40.6734 75.2134 40.1981 75.2055C40.0792 75.2055 39.897 75.2927 39.8653 75.1103C39.8336 74.9438 39.794 74.7456 39.9604 74.5949C40.2139 74.365 40.4674 74.1351 40.713 73.8972C40.8002 73.8179 40.8873 73.7386 40.9665 73.6435C41.1091 73.469 41.2993 73.2629 41.0775 73.0647C40.8715 72.8744 40.6496 72.9695 40.4674 73.1757C40.206 73.469 40.0238 73.1202 39.8416 73.0488C39.6752 72.9774 39.8812 72.8268 39.9446 72.7475C40.3248 72.2559 41.1488 72.2004 41.6162 72.6127C41.9251 72.8902 41.9806 73.3025 41.735 73.6831C41.632 73.8496 41.4894 73.9923 41.3547 74.1351C41.2042 74.2619 41.0775 74.3809 40.8715 74.5712Z" fill="white"/>
<path d="M43.3909 74.5711C43.6602 74.5711 43.8424 74.587 44.0167 74.5711C44.3178 74.5315 44.4366 74.6345 44.4128 74.9517C44.397 75.1578 44.3495 75.2213 44.1435 75.2213C43.6602 75.2054 43.169 75.2213 42.6778 75.2133C42.5748 75.2133 42.4006 75.2926 42.3689 75.142C42.3372 74.9755 42.2738 74.7773 42.4481 74.6266C42.7174 74.3808 42.9868 74.1271 43.2562 73.8734C43.3671 73.7624 43.4701 73.6434 43.5731 73.5245C43.6919 73.3738 43.8028 73.2073 43.5889 73.0567C43.3988 72.9219 43.1928 72.9378 43.0581 73.1201C42.7888 73.5007 42.5828 73.136 42.3609 73.0725C42.2342 73.0329 42.3372 72.914 42.3847 72.8426C42.7016 72.3352 43.5018 72.1845 43.9929 72.5255C44.4287 72.8267 44.5079 73.3025 44.1831 73.7624C44.0801 73.913 43.9454 74.0399 43.8187 74.1747C43.6998 74.2936 43.5731 74.3967 43.3909 74.5711Z" fill="white"/>
<path d="M35.7218 74.5712C35.9991 74.5712 36.1972 74.5871 36.4032 74.5712C36.6408 74.5554 36.7517 74.6029 36.7438 74.8884C36.7359 75.1421 36.6884 75.2372 36.419 75.2214C35.9595 75.1976 35.5 75.2214 35.0326 75.2135C34.9138 75.2135 34.7315 75.3007 34.6999 75.1183C34.6682 74.9518 34.6286 74.7536 34.7949 74.6029C35.1118 74.3096 35.4287 74.0083 35.7377 73.707C35.9199 73.5325 36.1496 73.3184 35.9041 73.0727C35.6902 72.8586 35.4604 73.0013 35.2623 73.1995C35.0484 73.4136 34.8662 73.1519 34.6919 73.0727C34.4701 72.9696 34.6999 72.8427 34.7553 72.7793C35.0564 72.3828 35.4842 72.2718 35.9516 72.3749C36.3081 72.4542 36.5616 72.6603 36.6646 73.033C36.7597 73.3502 36.6091 73.596 36.4507 73.8338C36.2764 74.0955 35.9991 74.2778 35.7218 74.5712Z" fill="white"/>
<path d="M33.6541 73.1599C34.0027 73.1599 34.28 73.4454 34.2721 73.7942C34.2641 74.1431 33.9869 74.4206 33.6383 74.4206C33.2897 74.4127 33.0203 74.1352 33.0282 73.7784C33.0282 73.4295 33.2976 73.1599 33.6541 73.1599Z" fill="white"/>
<path d="M45.4268 73.1599C45.7754 73.1599 46.0527 73.4295 46.0606 73.7784C46.0685 74.1272 45.7675 74.4285 45.411 74.4206C45.0624 74.4127 44.793 74.1352 44.801 73.7863C44.8089 73.4295 45.0782 73.1599 45.4268 73.1599Z" fill="white"/>
<path d="M6.97943 39.8665L7.1458 42.6733L3.22423 42.9111L3.05786 40.144L3.46982 40.1202L3.6045 42.3958L4.88793 42.3165L4.76909 40.2867L5.18105 40.2629L5.29989 42.2927L6.70215 42.2055L6.55954 39.8902L6.97943 39.8665Z" fill="#221F51"/>
<path d="M3.17673 42.951L3.00244 40.1045L3.49363 40.0728L3.62831 42.3484L4.83251 42.277L4.71367 40.2473L5.20486 40.2155L5.32369 42.2453L6.64673 42.166L6.50413 39.8508L7.01116 39.8191L7.18545 42.7052H7.14584L3.17673 42.951ZM3.08959 40.1838L3.24803 42.8717L7.09038 42.6418L6.93193 39.9142L6.58335 39.9301L6.72595 42.2453L5.24447 42.3405L5.12563 40.3107L4.79289 40.3265L4.91173 42.3563L3.54908 42.4436L3.41441 40.168L3.08959 40.1838Z" fill="#221F51"/>
<path d="M7.18544 36.037L7.11414 36.8537L3.07373 37.8527L3.12127 37.3294L6.924 36.4255L3.35101 34.8397L3.39855 34.3164L7.18544 36.037Z" fill="#221F51"/>
<path d="M3.02637 37.9003L3.08182 37.2977L6.79741 36.4176L3.30365 34.8636L3.35911 34.261L7.22522 36.0133L7.146 36.8854L3.02637 37.9003ZM3.15312 37.3533L3.11351 37.7893L7.07469 36.8141L7.13808 36.0529L3.42249 34.372L3.38287 34.8081L7.04301 36.4256L3.15312 37.3533Z" fill="#221F51"/>
<path d="M6.80536 30.2648L8.39775 29.8762L8.26307 30.4154L6.4647 30.8436L6.17949 31.9774L7.76396 32.3818L7.64513 32.8654L3.83447 31.8981L4.26228 30.2172C4.32566 29.9635 4.42865 29.7415 4.57125 29.567C4.71385 29.3847 4.88023 29.2578 5.07829 29.1864C5.27634 29.1151 5.48232 29.1071 5.70415 29.1626C6.01312 29.2419 6.24287 29.4084 6.38548 29.6622C6.52808 29.9159 6.58353 30.2172 6.536 30.5581C6.59938 30.3837 6.68652 30.2885 6.80536 30.2648ZM6.08442 30.7008C6.1478 30.4392 6.13988 30.2093 6.04481 30.011C5.94974 29.8128 5.79922 29.686 5.57739 29.6304C5.35557 29.5749 5.16543 29.6146 4.99114 29.7494C4.81684 29.8842 4.69801 30.0745 4.63463 30.3361L4.3415 31.5096L5.7913 31.8743L6.08442 30.7008Z" fill="#221F51"/>
<path d="M7.66893 32.913L3.77905 31.9298L4.21478 30.2092C4.27816 29.9476 4.38907 29.7176 4.53168 29.5432C4.6822 29.3529 4.84857 29.2261 5.05455 29.1547C5.26053 29.0833 5.47444 29.0754 5.70419 29.1309C6.029 29.2102 6.26668 29.3846 6.40928 29.6463C6.52811 29.8604 6.59149 30.1062 6.58357 30.3757C6.64695 30.2965 6.71033 30.2489 6.79747 30.233L8.45325 29.8286L8.2948 30.455L6.49642 30.8832L6.22707 31.9536L7.81154 32.358L7.66893 32.913ZM3.87412 31.8743L7.61348 32.8178L7.71647 32.4135L6.132 32.0091L6.43305 30.8118L6.45681 30.8039L6.4885 30.5502C6.53604 30.2251 6.4885 29.9317 6.3459 29.678C6.21122 29.4401 5.98939 29.2736 5.68834 29.1943C5.47444 29.1388 5.27638 29.1468 5.08624 29.2181C4.89611 29.2895 4.73766 29.4084 4.59506 29.5829C4.46038 29.7494 4.35739 29.9634 4.29401 30.2172L3.87412 31.8743ZM8.34233 29.9317L6.81332 30.3044C6.71033 30.3282 6.63111 30.4075 6.56773 30.574L6.47266 30.8039L8.23142 30.3837L8.34233 29.9317ZM5.8151 31.9219L4.29401 31.5413L4.59506 30.3282C4.65843 30.0586 4.77727 29.8604 4.96741 29.7176C5.14962 29.5749 5.3556 29.5353 5.58535 29.5908C5.8151 29.6463 5.97355 29.7811 6.07654 29.9952C6.17161 30.1934 6.18745 30.4312 6.11615 30.7088L5.8151 31.9219ZM4.38908 31.4858L5.75964 31.8347L6.04485 30.7008C6.10823 30.4392 6.09238 30.2251 6.00524 30.0348C5.91017 29.8445 5.76757 29.7256 5.56158 29.678C5.34768 29.6225 5.17339 29.6621 5.00702 29.789C4.84065 29.9238 4.72182 30.1062 4.66636 30.352L4.38908 31.4858Z" fill="#221F51"/>
<path d="M9.07095 23.4776L10.1959 25.333L9.92656 25.8404L8.75405 23.7472L6.47241 23.9534L6.73385 23.4618L8.80951 23.3349L7.73207 21.5588L7.99351 21.0593L9.11848 23.0574L11.5031 22.8513L11.2417 23.3508L9.07095 23.4776Z" fill="#221F51"/>
<path d="M9.92682 25.9276L8.73054 23.7947L6.40137 24.0088L6.71034 23.43L8.73847 23.3031L7.68479 21.5667L7.99377 20.98L9.14251 23.0177L11.5747 22.8116L11.2657 23.3983L9.14251 23.5252L10.2437 25.3409L9.92682 25.9276ZM8.77808 23.7075L9.92682 25.7611L10.1486 25.3409L9.00783 23.4459L11.2182 23.319L11.4321 22.9067L9.09497 23.1049L8.00169 21.1465L7.78778 21.5588L8.88899 23.3666L6.77372 23.4934L6.55981 23.8978L8.77808 23.7075Z" fill="#221F51"/>
<path d="M12.1368 20.1235L12.7231 21.0115L12.4141 21.4238L10.1562 17.8796L10.5999 17.2849L14.6165 18.4901L14.3076 18.9024L13.2935 18.5853L12.1368 20.1235ZM10.5207 17.6893L11.8833 19.7587L12.8815 18.4346L10.5207 17.6893Z" fill="#221F51"/>
<path d="M12.4064 21.4954L10.1089 17.8877L10.5842 17.2534L14.688 18.4824L14.3315 18.9581L13.3174 18.641L12.1845 20.1316L12.7708 21.0196L12.4064 21.4954ZM10.204 17.8798L12.4143 21.3447L12.6757 21.0038L12.0895 20.1157L13.2858 18.5379L14.2998 18.855L14.5613 18.5141L10.6238 17.3327L10.204 17.8798ZM11.8835 19.8303L10.4337 17.6261L12.953 18.419L11.8835 19.8303ZM10.6159 17.7609L11.8835 19.6876L12.8104 18.4507L10.6159 17.7609Z" fill="#221F51"/>
<path d="M17.7937 15.2473L15.924 17.071L13.1829 14.2483L13.5394 13.8994L15.9874 16.4129L17.5006 14.9381L17.7937 15.2473Z" fill="#221F51"/>
<path d="M15.924 17.1186L13.1274 14.2484L13.5394 13.844L15.9874 16.3574L17.5006 14.8827L17.8571 15.2474L15.924 17.1186ZM13.2384 14.2484L15.932 17.0076L17.7462 15.2395L17.5006 14.9858L15.9795 16.4685L13.5315 13.955L13.2384 14.2484Z" fill="#221F51"/>
<path d="M20.923 13.4078C20.9626 13.4713 21.026 13.503 21.0973 13.5109C21.1686 13.5188 21.2399 13.4871 21.3191 13.4316L21.945 12.9876L22.1193 13.2334L21.2716 13.8281C21.1448 13.9153 21.018 13.9549 20.8913 13.947C20.7645 13.9391 20.6695 13.8756 20.5902 13.7646C20.5189 13.6616 20.4952 13.5506 20.5189 13.4158C20.5427 13.2889 20.5982 13.1541 20.6853 13.0193C20.3922 13.2175 20.0832 13.3206 19.7505 13.3365C19.4177 13.3523 19.1008 13.281 18.7919 13.1303C18.4908 12.9797 18.2294 12.7497 18.0155 12.4484C17.8016 12.1392 17.6669 11.8141 17.6273 11.4732C17.5877 11.1243 17.6352 10.7992 17.7699 10.49C17.9046 10.1808 18.1185 9.91913 18.4116 9.71298C18.7047 9.50683 19.0216 9.3879 19.3623 9.36411C19.7029 9.34032 20.0278 9.41168 20.3367 9.56233C20.6457 9.71298 20.9071 9.94292 21.121 10.2521C21.3033 10.5138 21.43 10.7992 21.4855 11.1005C21.5409 11.4018 21.5251 11.6952 21.4459 11.9806C21.3666 12.2661 21.2161 12.5198 21.0101 12.7418C20.8596 13.051 20.8279 13.2731 20.923 13.4078ZM19.0295 12.7101C19.2672 12.837 19.5128 12.9004 19.7663 12.8925C20.0198 12.8845 20.2654 12.8052 20.4873 12.6467C20.7091 12.4881 20.8675 12.2899 20.9626 12.0441C21.0577 11.7983 21.0814 11.5446 21.0339 11.2829C20.9943 11.0133 20.8913 10.7675 20.7328 10.5455C20.5665 10.3076 20.3605 10.1253 20.1228 9.99842C19.8851 9.87156 19.6396 9.80812 19.3781 9.81605C19.1167 9.82398 18.879 9.90327 18.6572 10.0619C18.4354 10.2204 18.2769 10.4187 18.1818 10.6565C18.0868 10.8944 18.063 11.1481 18.1026 11.4098C18.1422 11.6714 18.2452 11.9251 18.4116 12.1551C18.5938 12.3929 18.7919 12.5753 19.0295 12.7101Z" fill="#221F51"/>
<path d="M20.915 13.9868C20.9071 13.9868 20.8912 13.9868 20.8833 13.9868C20.7486 13.9788 20.6456 13.9154 20.5506 13.7885C20.4713 13.6775 20.4476 13.5507 20.4713 13.408C20.4872 13.3207 20.5189 13.2256 20.5664 13.1384C20.3129 13.289 20.0356 13.3604 19.7425 13.3762C19.4097 13.3921 19.0849 13.3207 18.768 13.1701C18.459 13.0194 18.1976 12.7816 17.9758 12.4803C17.754 12.1552 17.6193 11.8222 17.5797 11.4892C17.5401 11.1324 17.5876 10.8073 17.7223 10.4901C17.8569 10.173 18.0788 9.90338 18.3798 9.69723C18.6809 9.48315 19.0057 9.36422 19.3464 9.34043C19.6791 9.31664 20.0198 9.388 20.3366 9.53865C20.6535 9.6893 20.915 9.92717 21.1368 10.2443C21.3269 10.5218 21.4537 10.8073 21.5092 11.1086C21.5646 11.4099 21.5488 11.7112 21.4695 12.0045C21.3903 12.282 21.2398 12.5437 21.0259 12.7736C20.8833 13.067 20.8516 13.2732 20.9387 13.3921C20.9704 13.4397 21.018 13.4714 21.0814 13.4793C21.1368 13.4872 21.1923 13.4635 21.2794 13.408L21.937 12.9401L22.1588 13.2494L21.2794 13.8678C21.1685 13.9471 21.0417 13.9868 20.915 13.9868ZM20.8199 12.8767L20.7169 13.0432C20.6377 13.1701 20.5822 13.2969 20.5585 13.4238C20.5347 13.5427 20.5585 13.6458 20.6219 13.741C20.7011 13.844 20.7803 13.8995 20.8912 13.9075C21.01 13.9154 21.1289 13.8758 21.2477 13.7965L22.0637 13.2256L21.937 13.0432L21.3428 13.4635C21.2477 13.5348 21.1685 13.5586 21.0972 13.5507C21.01 13.5427 20.9387 13.5031 20.8912 13.4317C20.7882 13.289 20.8199 13.0511 20.9784 12.7261L20.9863 12.7181C21.1923 12.4961 21.3349 12.2424 21.4141 11.9728C21.4933 11.6874 21.5092 11.4019 21.4537 11.1086C21.3982 10.8231 21.2794 10.5377 21.0972 10.276C20.8912 9.97474 20.6298 9.74481 20.3287 9.60209C20.0198 9.45144 19.6949 9.388 19.378 9.41179C19.0532 9.43558 18.7363 9.54658 18.4511 9.75273C18.1659 9.95095 17.9599 10.2047 17.8253 10.5139C17.6906 10.8152 17.643 11.1324 17.6827 11.4733C17.7223 11.7984 17.849 12.1155 18.0629 12.4327C18.2768 12.7261 18.5304 12.956 18.8235 13.0987C19.1325 13.2494 19.4414 13.3128 19.7583 13.2969C20.0911 13.2811 20.3842 13.178 20.6694 12.9877L20.8199 12.8767ZM19.7187 12.9322C19.481 12.9322 19.2354 12.8688 19.0057 12.7419C18.768 12.6071 18.57 12.4248 18.3798 12.179C18.2135 11.949 18.1025 11.6874 18.0629 11.4178C18.0233 11.1403 18.0471 10.8866 18.1422 10.6487C18.2372 10.4029 18.4036 10.1968 18.6333 10.0382C18.8631 9.8796 19.1008 9.79238 19.378 9.78445C19.6395 9.77652 19.893 9.83995 20.1386 9.97474C20.3842 10.1095 20.5981 10.2919 20.7645 10.5298C20.9308 10.7597 21.0338 11.0134 21.0734 11.283C21.121 11.5526 21.0972 11.8142 21.0021 12.06C20.9071 12.3138 20.7486 12.512 20.5109 12.6785C20.2891 12.8371 20.0356 12.9243 19.7662 12.9322C19.7504 12.9322 19.7345 12.9322 19.7187 12.9322ZM19.0453 12.6785C19.283 12.8054 19.5206 12.8609 19.7583 12.8529C20.0118 12.845 20.2495 12.7657 20.4555 12.6151C20.6773 12.4565 20.8278 12.2662 20.915 12.0283C21.01 11.7905 21.0338 11.5447 20.9863 11.2909C20.9467 11.0293 20.8516 10.7914 20.6932 10.5694C20.5347 10.3395 20.3287 10.1571 20.099 10.0382C19.8613 9.91131 19.6236 9.85581 19.378 9.86374C19.1245 9.87167 18.8948 9.95096 18.6809 10.1016C18.467 10.2523 18.3085 10.4505 18.2214 10.6804C18.1342 10.9024 18.1025 11.1561 18.1422 11.4099C18.1818 11.6715 18.2848 11.9173 18.4432 12.1393C18.6254 12.3772 18.8156 12.5437 19.0453 12.6785Z" fill="#221F51"/>
<path d="M24.1077 9.71302L24.2186 10.7676L23.7591 10.9896L23.3867 6.81105L24.0601 6.4939L27.0785 9.41965L26.619 9.64167L25.8664 8.88842L24.1077 9.71302ZM23.7987 6.81898L24.0601 9.28487L25.5495 8.57127L23.7987 6.81898Z" fill="#221F51"/>
<path d="M23.7274 11.053L23.3472 6.78724L24.0681 6.44629L24.0839 6.46215L27.142 9.42755L26.6033 9.68921L25.8506 8.93596L24.1473 9.74471L24.2582 10.7992L23.7274 11.053ZM23.4264 6.83481L23.7908 10.934L24.1711 10.7517L24.0602 9.69713L25.8665 8.84081L26.6191 9.59406L26.9994 9.41169L24.0443 6.54937L23.4264 6.83481ZM24.0285 9.34033L23.7512 6.70795L25.6209 8.57916L24.0285 9.34033ZM23.8542 6.92202L24.0998 9.2214L25.4862 8.55538L23.8542 6.92202Z" fill="#221F51"/>
<path d="M30.6753 6.7238L31.8241 7.90521L31.2933 8.06379L30.0099 6.7238L28.8849 7.04889L29.3444 8.61881L28.869 8.7536L27.7678 4.97152L29.4315 4.48786C29.685 4.4165 29.9227 4.39271 30.1525 4.42443C30.3822 4.45614 30.5723 4.53543 30.7387 4.67023C30.8972 4.80502 31.016 4.97945 31.0794 5.20146C31.1665 5.51069 31.1428 5.7882 30.9922 6.04192C30.8417 6.29565 30.612 6.49387 30.2951 6.62866C30.4614 6.59695 30.5961 6.62866 30.6753 6.7238ZM29.9386 6.31943C30.2 6.24014 30.3901 6.11328 30.509 5.93885C30.6357 5.75648 30.6595 5.55826 30.5961 5.34418C30.5327 5.1301 30.398 4.97945 30.2 4.90016C30.0019 4.82087 29.7722 4.81294 29.5107 4.89223L28.3462 5.23317L28.766 6.66831L29.9386 6.31943Z" fill="#221F51"/>
<path d="M28.8452 8.80115L27.7202 4.94771L29.4235 4.45612C29.6929 4.38476 29.9306 4.36097 30.1603 4.39269C30.398 4.42441 30.596 4.51162 30.7624 4.64642C30.9367 4.78913 31.0555 4.97943 31.1189 5.19351C31.214 5.51859 31.1823 5.80403 31.0318 6.06568C30.905 6.27976 30.7228 6.4542 30.4851 6.58106C30.5802 6.59692 30.6515 6.63656 30.7069 6.69999L31.8953 7.92897L31.2774 8.11133L29.9939 6.77136L28.9323 7.08058L29.3918 8.6505L28.8452 8.80115ZM27.8232 5.00321L28.9006 8.706L29.2968 8.595L28.8373 7.02508L30.0256 6.68414L30.0415 6.69999L30.2871 6.59692C30.5881 6.47006 30.8179 6.27976 30.9684 6.02604C31.111 5.78817 31.1348 5.51859 31.0476 5.21729C30.9922 5.01114 30.8812 4.84464 30.7228 4.70985C30.5643 4.58298 30.3821 4.50369 30.1603 4.47198C29.9385 4.44026 29.7087 4.46405 29.4552 4.53541L27.8232 5.00321ZM30.0573 6.71585L31.309 8.01619L31.7527 7.8814L30.6515 6.74757C30.5643 6.64449 30.4138 6.64449 30.3108 6.66828L30.0573 6.71585ZM28.7422 6.71585L28.2985 5.20936L29.5027 4.86049C29.7642 4.7812 30.0019 4.78121 30.2158 4.86842C30.4217 4.94771 30.5723 5.11422 30.6356 5.33622C30.7069 5.56616 30.6753 5.78024 30.5406 5.96261C30.4138 6.14497 30.2158 6.27976 29.9464 6.35905L28.7422 6.71585ZM28.4015 5.26487L28.7977 6.6207L29.9306 6.27976C30.1841 6.20047 30.3663 6.08154 30.4772 5.91504C30.596 5.74853 30.6198 5.56616 30.5564 5.35208C30.493 5.14593 30.3742 5.01114 30.1841 4.93185C29.986 4.85256 29.7642 4.85257 29.5186 4.92393L28.4015 5.26487Z" fill="#221F51"/>
<path d="M34.5256 7.16789C34.2166 7.02517 33.9631 6.81109 33.7651 6.52565C33.567 6.24021 33.4482 5.91513 33.4006 5.54247C33.3531 5.16981 33.4006 4.82094 33.5274 4.49585C33.6542 4.17077 33.8522 3.90912 34.1216 3.69504C34.3909 3.48889 34.6999 3.36202 35.0564 3.31445C35.4129 3.2748 35.7457 3.32238 36.0546 3.4651C36.3636 3.60782 36.6171 3.8219 36.8152 4.10734C37.0132 4.39278 37.14 4.71786 37.1796 5.09052C37.2192 5.45525 37.1796 5.80412 37.0529 6.1292C36.9261 6.45429 36.728 6.72387 36.4587 6.93002C36.1893 7.1441 35.8803 7.27097 35.5238 7.31061C35.1673 7.36611 34.8346 7.31061 34.5256 7.16789ZM36.1814 6.58908C36.3795 6.42258 36.5221 6.2085 36.6092 5.95477C36.6964 5.70105 36.728 5.43939 36.6964 5.16188C36.6647 4.87644 36.5696 4.61479 36.427 4.39278C36.2765 4.16284 36.0863 3.99634 35.8566 3.8774C35.6268 3.75847 35.3733 3.71882 35.1119 3.75054C34.8425 3.78225 34.6048 3.88533 34.4147 4.05184C34.2167 4.21835 34.074 4.42449 33.9869 4.67822C33.8998 4.93194 33.8681 5.20153 33.9077 5.47904C33.9394 5.76448 34.0344 6.02613 34.177 6.24814C34.3196 6.47807 34.5098 6.64458 34.7395 6.76351C34.9693 6.88245 35.2228 6.9221 35.4922 6.89038C35.7457 6.85866 35.9833 6.76352 36.1814 6.58908Z" fill="#221F51"/>
<path d="M35.2543 7.36596C35.0008 7.36596 34.7473 7.31046 34.5096 7.19945C34.1927 7.05673 33.9313 6.83473 33.7332 6.54136C33.5351 6.25592 33.4084 5.9229 33.3609 5.54232C33.3133 5.17759 33.3609 4.82079 33.4876 4.47985C33.6144 4.15476 33.8124 3.88518 34.0897 3.66317C34.367 3.44909 34.676 3.32223 35.0404 3.27465C35.4048 3.23501 35.7534 3.28258 36.0624 3.4253C36.3793 3.56802 36.6407 3.79003 36.8388 4.0834C37.0448 4.3847 37.1715 4.71771 37.2111 5.08244C37.2507 5.4551 37.2111 5.8119 37.0844 6.13698C36.9576 6.47 36.7516 6.74751 36.4743 6.95366C36.1971 7.17567 35.8881 7.30253 35.5237 7.34218C35.4365 7.36596 35.3494 7.36596 35.2543 7.36596ZM35.2939 3.34602C35.2147 3.34602 35.1434 3.35395 35.0642 3.36187C34.7156 3.40945 34.4145 3.52838 34.1531 3.73453C33.8837 3.94861 33.6936 4.20233 33.5748 4.51949C33.448 4.84457 33.4084 5.19345 33.448 5.54232C33.4955 5.91498 33.6144 6.23213 33.8045 6.50964C33.9946 6.78715 34.2482 7.00123 34.5492 7.13602C34.8582 7.27874 35.1909 7.32632 35.5237 7.27874C35.8722 7.2391 36.1733 7.12017 36.4427 6.90609C36.7041 6.70787 36.9021 6.44621 37.021 6.12113C37.1398 5.8119 37.1874 5.46303 37.1477 5.10623C37.1081 4.75736 36.9893 4.43227 36.7912 4.1389C36.6011 3.86139 36.3476 3.64731 36.0465 3.51252C35.8089 3.40152 35.5553 3.34602 35.2939 3.34602ZM35.3177 6.9378C35.1038 6.9378 34.9057 6.89023 34.7235 6.79508C34.4779 6.66822 34.2878 6.49378 34.1452 6.26385C33.9946 6.03391 33.8996 5.76433 33.8679 5.47889C33.8283 5.20931 33.86 4.93179 33.9471 4.66221C34.0343 4.40056 34.1769 4.19441 34.3828 4.01997C34.5809 3.85346 34.8265 3.74246 35.1038 3.71074C35.3811 3.67903 35.6346 3.71867 35.8722 3.84553C36.1178 3.9724 36.308 4.14683 36.4585 4.37677C36.609 4.60671 36.7041 4.87629 36.7358 5.16173C36.7675 5.43924 36.7358 5.70089 36.6486 5.97048C36.5615 6.23213 36.411 6.45414 36.2129 6.62065C36.0148 6.79508 35.7772 6.89816 35.4999 6.92987C35.4365 6.9378 35.3811 6.9378 35.3177 6.9378ZM35.286 3.7821C35.2305 3.7821 35.1751 3.7821 35.1196 3.79003C34.8582 3.82175 34.6284 3.91689 34.4462 4.0834C34.2482 4.24991 34.1135 4.44813 34.0263 4.69393C33.9392 4.95558 33.9154 5.21723 33.9471 5.47889C33.9788 5.74847 34.0659 6.01012 34.2085 6.23213C34.3432 6.44621 34.5175 6.61272 34.7552 6.73165C34.9691 6.84266 35.2147 6.8823 35.484 6.85058C35.7455 6.81887 35.9673 6.72372 36.1495 6.55721C36.3397 6.39864 36.4823 6.19249 36.5615 5.93876C36.6486 5.68504 36.6803 5.43131 36.6486 5.16173C36.6169 4.89215 36.5298 4.6305 36.3872 4.40849C36.2446 4.19441 36.0624 4.0279 35.8326 3.90896C35.6663 3.82968 35.484 3.7821 35.286 3.7821Z" fill="#221F51"/>
<path d="M42.9394 3.27462L42.6304 5.66122C42.5829 6.02595 42.6462 6.31139 42.8126 6.54132C42.979 6.76333 43.2325 6.89813 43.5652 6.9457C43.898 6.98534 44.1753 6.92191 44.3971 6.74748C44.6189 6.57304 44.7536 6.30346 44.8011 5.95459L45.1101 3.56799L45.6013 3.63142L45.2923 6.02595C45.2527 6.3431 45.1497 6.61269 44.9913 6.82677C44.8328 7.04085 44.6189 7.19942 44.3654 7.29457C44.1119 7.38972 43.8267 7.4135 43.5177 7.37386C43.2008 7.33421 42.9314 7.23114 42.7096 7.08049C42.4878 6.92191 42.3293 6.72369 42.2264 6.46997C42.1234 6.21624 42.0996 5.93873 42.1392 5.62158L42.4482 3.22705L42.9394 3.27462Z" fill="#221F51"/>
<path d="M43.7949 7.42934C43.7077 7.42934 43.6127 7.42141 43.5097 7.41348C43.2007 7.37384 42.9234 7.27076 42.6857 7.11218C42.456 6.94568 42.2896 6.73953 42.1866 6.4858C42.0837 6.23208 42.052 5.95457 42.0995 5.62156L42.4164 3.19531L42.9868 3.25082L42.6699 5.67706C42.6224 6.02593 42.6857 6.30344 42.8442 6.52545C43.0026 6.73953 43.2482 6.86639 43.5731 6.91396C43.8979 6.95361 44.1593 6.89017 44.3732 6.72367C44.5871 6.55716 44.7139 6.30344 44.7614 5.95457L45.0783 3.52833L45.6487 3.59969L45.3318 6.03386C45.2922 6.35101 45.1892 6.62852 45.0228 6.85053C44.8565 7.07254 44.6426 7.23112 44.3811 7.33419C44.1989 7.39762 44.0088 7.42934 43.7949 7.42934ZM42.4877 3.2746L42.1866 5.62948C42.147 5.94664 42.1708 6.21622 42.2738 6.45409C42.3689 6.69988 42.5273 6.89018 42.7412 7.04875C42.963 7.1994 43.2324 7.29455 43.5334 7.33419C43.8424 7.37384 44.1197 7.35005 44.3653 7.2549C44.6109 7.15976 44.8169 7.00911 44.9753 6.80296C45.1338 6.58888 45.2288 6.32723 45.2684 6.018L45.5695 3.66312L45.1575 3.60762L44.8565 5.95457C44.8089 6.3193 44.6663 6.59681 44.4366 6.77124C44.2068 6.94568 43.9216 7.01704 43.5731 6.97739C43.2245 6.92982 42.963 6.7871 42.7967 6.55716C42.6224 6.31137 42.559 6.018 42.6065 5.64534L42.9076 3.29839L42.4877 3.2746Z" fill="#221F51"/>
<path d="M50.5132 8.98352L49.721 8.73773L48.7545 4.56713L47.6691 8.11134L47.2175 7.97656L48.3742 4.21826L49.1585 4.45613L50.125 8.63465L51.2183 5.08251L51.6699 5.2173L50.5132 8.98352Z" fill="#221F51"/>
<path d="M50.5367 9.03118L49.689 8.76953L48.7542 4.71786L47.7005 8.159L47.1697 8.00042L48.3501 4.16284L49.1899 4.41657L49.1978 4.44035L50.1326 8.47616L51.1942 5.02709L51.725 5.18567L50.5367 9.03118ZM49.7524 8.70609L50.4812 8.93603L51.6141 5.24117L51.2418 5.13017L50.1168 8.78538L49.1265 4.48L48.4056 4.25799L47.2727 7.94492L47.645 8.05593L48.7621 4.40071L49.7524 8.70609Z" fill="#221F51"/>
<path d="M54.6564 6.5018L53.0165 10.0777L52.5649 9.87158L54.2049 6.29565L54.6564 6.5018Z" fill="#221F51"/>
<path d="M53.0402 10.1333L52.5173 9.89545L54.189 6.24023L54.7118 6.4781L53.0402 10.1333ZM52.6203 9.8558L53.0006 10.0302L54.6088 6.52567L54.2286 6.35124L52.6203 9.8558Z" fill="#221F51"/>
<path d="M56.5973 12.0283L55.9001 11.6001L56.8033 7.54053L57.2469 7.81804L56.3676 11.6318L59.3781 9.11837L59.8296 9.39588L56.5973 12.0283Z" fill="#221F51"/>
<path d="M56.6053 12.0759L55.8606 11.616L56.7796 7.46924L57.2945 7.79432L56.4389 11.5209L59.3781 9.07087L59.901 9.39596L56.6053 12.0759ZM55.9477 11.5843L56.5974 11.9808L59.7584 9.40389L59.3781 9.17395L56.3042 11.7429L57.1995 7.8419L56.8271 7.61196L55.9477 11.5843Z" fill="#221F51"/>
<path d="M61.3904 15.6833L59.2434 13.8676L61.7865 10.8625L63.9018 12.6545L63.6324 12.9716L61.8974 11.4969L61.0656 12.48L62.6183 13.7962L62.349 14.1134L60.7962 12.7972L59.8851 13.8676L61.6518 15.3662L61.3904 15.6833Z" fill="#221F51"/>
<path d="M61.3904 15.739L59.188 13.8757L61.7786 10.8152L63.9493 12.6547L63.6324 13.0353L61.8974 11.5605L61.121 12.4803L62.6738 13.7964L62.3569 14.177L60.8042 12.8608L59.9485 13.8678L61.7152 15.3664L61.3904 15.739ZM59.2989 13.8599L61.3825 15.6201L61.5964 15.3664L59.8297 13.8678L60.7883 12.7419L62.3411 14.0581L62.5629 13.8044L61.0101 12.4882L61.8895 11.4495L63.6245 12.9243L63.8384 12.6705L61.7865 10.9341L59.2989 13.8599Z" fill="#221F51"/>
<path d="M65.4229 17.8797L64.8366 19.4179L64.4722 18.9976L65.1456 17.2771L64.3771 16.397L63.1412 17.4753L62.8164 17.1026L65.7873 14.5178L66.9281 15.8261C67.1024 16.0243 67.2212 16.2305 67.2846 16.4525C67.348 16.6745 67.3559 16.8806 67.3084 17.0868C67.2529 17.2929 67.142 17.4674 66.9677 17.618C66.7301 17.8242 66.4607 17.9193 66.1676 17.8955C65.8744 17.8717 65.6051 17.7369 65.3436 17.507C65.4387 17.6339 65.4625 17.7607 65.4229 17.8797ZM65.4704 17.0313C65.6447 17.2374 65.8428 17.3564 66.0567 17.396C66.2706 17.4357 66.4607 17.3801 66.635 17.2295C66.8014 17.0788 66.8806 16.8965 66.8727 16.6824C66.8647 16.4683 66.7697 16.2542 66.5954 16.056L65.8031 15.1442L64.6782 16.1274L65.4704 17.0313Z" fill="#221F51"/>
<path d="M64.8525 19.4971L64.4326 19.0055L65.106 17.285L64.3772 16.4524L63.1413 17.5308L62.761 17.1026L65.7873 14.4702L66.9519 15.8102C67.1341 16.0163 67.253 16.2225 67.3163 16.4524C67.3797 16.6824 67.3877 16.8965 67.3401 17.1026C67.2847 17.3167 67.1658 17.4991 66.9836 17.6576C66.738 17.8717 66.4607 17.9669 66.1518 17.9431C65.9141 17.9272 65.6843 17.8321 65.4546 17.6656C65.4784 17.7448 65.4784 17.8241 65.4546 17.9034L64.8525 19.4971ZM64.5197 18.9897L64.8208 19.3386L65.3833 17.8638C65.4229 17.7528 65.3912 17.6418 65.312 17.5308L65.1694 17.3325L64.5197 18.9897ZM65.1773 17.3088L65.3674 17.4753C65.6289 17.7052 65.8903 17.8321 66.1676 17.8559C66.4449 17.8796 66.7063 17.7924 66.9361 17.5863C67.1024 17.4435 67.2134 17.277 67.2609 17.0788C67.3084 16.8806 67.3005 16.6824 67.2371 16.4683C67.1737 16.2542 67.0628 16.056 66.8885 15.8578L65.7715 14.5812L62.864 17.1105L63.1333 17.4198L64.3692 16.3414L65.1773 17.2691V17.3088ZM66.1834 17.4515C66.1359 17.4515 66.0884 17.4435 66.0408 17.4356C65.8111 17.396 65.6051 17.2691 65.4308 17.055L64.6148 16.1194L65.7953 15.0887L66.6113 16.0322C66.7935 16.2384 66.8885 16.4604 66.8965 16.6824C66.9044 16.9044 66.8172 17.1026 66.6429 17.2612C66.5162 17.388 66.3577 17.4515 66.1834 17.4515ZM64.7337 16.1353L65.5021 17.0075C65.6685 17.1978 65.8586 17.3167 66.0646 17.3563C66.2627 17.396 66.4449 17.3405 66.6113 17.1978C66.7697 17.055 66.841 16.8885 66.8331 16.6824C66.8252 16.4762 66.7301 16.2701 66.5637 16.0798L65.7953 15.1997L64.7337 16.1353Z" fill="#221F51"/>
<path d="M66.4369 21.2098C66.4607 20.8688 66.6112 20.5676 66.8964 20.3138L67.15 20.7103C66.9677 20.9006 66.8648 21.1146 66.8489 21.3446C66.8331 21.5745 66.9123 21.8203 67.0707 22.074C67.2292 22.3198 67.4114 22.4863 67.6253 22.5656C67.8392 22.6449 68.0373 22.6291 68.2274 22.5101C68.3938 22.4071 68.4968 22.2802 68.5364 22.1295C68.576 21.9789 68.5522 21.7965 68.473 21.5824L68.1403 20.6865C68.0293 20.401 67.9976 20.1473 68.0452 19.9412C68.0927 19.735 68.2353 19.5606 68.4651 19.4099C68.6552 19.291 68.8453 19.2514 69.0513 19.2751C69.2494 19.3069 69.4474 19.3861 69.6297 19.5368C69.8119 19.6874 69.9782 19.8619 70.1129 20.0839C70.3268 20.4248 70.4219 20.7499 70.3981 21.0591C70.3744 21.3684 70.2318 21.63 69.9624 21.86L69.7089 21.4635C69.8832 21.3049 69.9703 21.1226 69.9782 20.9164C69.9862 20.7103 69.9228 20.5041 69.7802 20.2821C69.6297 20.0442 69.4633 19.8777 69.2732 19.7905C69.083 19.7033 68.9087 19.7112 68.7424 19.8143C68.5998 19.9095 68.5047 20.0125 68.473 20.1394C68.4413 20.2663 68.4651 20.4169 68.5364 20.6072L68.8929 21.5428C69.0117 21.852 69.0434 22.1137 68.98 22.3357C68.9246 22.5577 68.774 22.7401 68.5205 22.8986C68.3145 23.0255 68.1086 23.081 67.8867 23.0731C67.6649 23.0572 67.4589 22.9859 67.2529 22.8431C67.0549 22.7084 66.8806 22.5181 66.7301 22.2802C66.5162 21.9075 66.4132 21.5507 66.4369 21.2098Z" fill="#221F51"/>
<path d="M67.9262 23.1129C67.9103 23.1129 67.8945 23.1129 67.8865 23.1129C67.6489 23.097 67.435 23.0178 67.229 22.875C67.0309 22.7402 66.8487 22.55 66.6982 22.3042C66.4764 21.9156 66.3734 21.5509 66.3971 21.21C66.4209 20.8532 66.5794 20.5439 66.8725 20.2902L66.9042 20.2585L67.1973 20.7184L67.1735 20.7422C66.9992 20.9245 66.8963 21.1307 66.8804 21.3527C66.8646 21.5668 66.9359 21.8046 67.0943 22.0584C67.2528 22.3042 67.4271 22.4548 67.6251 22.5341C67.8311 22.6134 68.0133 22.5896 68.1955 22.4786C68.354 22.3834 68.449 22.2645 68.4887 22.1218C68.5283 21.9791 68.5045 21.8126 68.4253 21.5985L68.0925 20.7025C67.9816 20.4092 67.9499 20.1554 67.9975 19.9334C68.045 19.7193 68.1876 19.537 68.4332 19.3784C68.6233 19.2595 68.8293 19.2119 69.0432 19.2357C69.265 19.2753 69.471 19.3625 69.6453 19.5053C69.8513 19.6797 70.0097 19.8621 70.1365 20.0603C70.3504 20.4092 70.4534 20.7422 70.4296 21.0593C70.4059 21.3765 70.2553 21.6461 69.9781 21.8839L69.9464 21.9156L69.6532 21.4558L69.677 21.432C69.8434 21.2813 69.9226 21.1148 69.9305 20.9166C69.9384 20.7184 69.8751 20.5202 69.7404 20.3061C69.5899 20.0682 69.4314 19.9096 69.2492 19.8303C69.0749 19.7511 68.9085 19.759 68.758 19.8541C68.6154 19.9493 68.5362 20.0444 68.5045 20.1554C68.4728 20.2664 68.4966 20.4092 68.5679 20.5994L68.9244 21.5351C69.0511 21.8601 69.0749 22.1218 69.0115 22.3517C68.9561 22.5817 68.7976 22.772 68.5362 22.9385C68.3381 23.0495 68.1401 23.1129 67.9262 23.1129ZM66.8883 20.3774C66.6348 20.6153 66.5001 20.8928 66.4764 21.2179C66.4526 21.543 66.5477 21.8919 66.7616 22.2645C66.9121 22.5024 67.0785 22.6847 67.2686 22.8116C67.4587 22.9464 67.6647 23.0178 67.8786 23.0336C68.0925 23.0415 68.2906 22.986 68.4887 22.8671C68.7342 22.7165 68.8768 22.5341 68.9323 22.3279C68.9957 22.1139 68.964 21.8681 68.8452 21.5588L68.4887 20.6232C68.4094 20.4171 68.3936 20.2664 68.4253 20.1316C68.457 20.0048 68.552 19.8938 68.7105 19.7828C68.8927 19.6718 69.0749 19.6638 69.2809 19.759C69.471 19.8462 69.6453 20.0127 69.8038 20.2664C69.9464 20.4964 70.0177 20.7105 70.0097 20.9245C70.0018 21.1307 69.9147 21.321 69.7562 21.4796L69.9701 21.8126C70.2078 21.5985 70.3346 21.3527 70.3583 21.0673C70.3821 20.766 70.287 20.4488 70.081 20.1158C69.9622 19.9176 69.8038 19.7431 69.6057 19.5766C69.4393 19.4418 69.2571 19.3546 69.0432 19.3229C68.8372 19.2991 68.6629 19.3388 68.4887 19.4498C68.2589 19.6004 68.1321 19.7669 68.0846 19.9572C68.0371 20.1554 68.0688 20.4012 68.1797 20.6787L68.5124 21.5747C68.5996 21.8046 68.6154 21.987 68.5758 22.1456C68.5362 22.3042 68.4253 22.439 68.251 22.55C68.0529 22.6768 67.8469 22.6927 67.6172 22.6055C67.3954 22.5262 67.2131 22.3597 67.0468 22.098C66.8804 21.8284 66.8012 21.5747 66.817 21.3448C66.8329 21.1148 66.9279 20.9007 67.1102 20.7105L66.8883 20.3774Z" fill="#221F51"/>
<path d="M72.2678 24.1435L68.7185 25.8244L68.5046 25.3804L72.0539 23.6995L72.2678 24.1435Z" fill="#221F51"/>
<path d="M68.6948 25.8799L68.4492 25.3645L72.0777 23.6519L72.3232 24.1672L68.6948 25.8799ZM68.5522 25.4041L68.7344 25.7768L72.2123 24.1355L72.0301 23.7629L68.5522 25.4041Z" fill="#221F51"/>
<path d="M73.4243 28.2506L70.0969 29.3607L69.9385 28.8929L73.2659 27.7828L72.8539 26.5459L73.2579 26.4111L74.2403 29.3527L73.8363 29.4875L73.4243 28.2506Z" fill="#221F51"/>
<path d="M73.8126 29.5351L73.4006 28.2982L70.0811 29.4082L69.8989 28.8691L73.2263 27.759L72.8144 26.5221L73.2897 26.3635L74.2958 29.3765L73.8126 29.5351ZM73.4481 28.1951L73.8601 29.432L74.1849 29.321L73.2263 26.4587L72.9015 26.5697L73.3135 27.8066L69.994 28.9166L70.1287 29.3051L73.4481 28.1951Z" fill="#221F51"/>
<path d="M71.4597 35.2678L70.9685 32.4927L74.8346 31.8108L75.3179 34.5463L74.9059 34.6176L74.5098 32.3737L73.2502 32.5958L73.5987 34.5938L73.1868 34.6652L72.8382 32.6671L71.4518 32.9129L71.8558 35.1964L71.4597 35.2678Z" fill="#221F51"/>
<path d="M71.4279 35.3075L71.42 35.2679L70.9209 32.4531L74.8662 31.7554L75.3653 34.5622L74.8742 34.6494L74.478 32.4055L73.2976 32.6117L73.6462 34.6098L73.155 34.697L72.8064 32.6989L71.4992 32.9288L71.9033 35.2124L71.4279 35.3075ZM71.016 32.5245L71.4913 35.2203L71.8161 35.1648L71.4121 32.8813L72.8777 32.6196L73.2263 34.6177L73.5591 34.5622L73.2105 32.5641L74.5493 32.3263L74.9455 34.5701L75.2782 34.5146L74.8108 31.8584L71.016 32.5245Z" fill="#221F51"/>
<path d="M75.1911 38.7248L71.6894 38.8199L71.6736 38.3283L75.1753 38.2332L75.1436 36.9249L75.5714 36.917L75.6506 40.0172L75.2228 40.0251L75.1911 38.7248Z" fill="#221F51"/>
<path d="M75.1911 40.0649L75.1594 38.7645L71.6577 38.8597L71.6418 38.2888L75.1515 38.1936L75.1198 36.8854L75.6268 36.8774L75.706 40.0569L75.1911 40.0649ZM75.2307 38.6852L75.2624 39.9856L75.6109 39.9776L75.5317 36.9567L75.1831 36.9647L75.2148 38.2729L71.7131 38.3681L71.729 38.7804L75.2307 38.6852Z" fill="#221F51"/>
<path d="M75.4525 42.9827L71.5388 42.6259L71.5864 42.1343L75.5 42.4911L75.4525 42.9827Z" fill="#221F51"/>
<path d="M75.4921 43.0223L71.4993 42.6576L71.5547 42.0867L75.5476 42.4514L75.4921 43.0223ZM71.5785 42.5862L75.4129 42.9351L75.4525 42.5228L71.6181 42.1739L71.5785 42.5862Z" fill="#221F51"/>
<path d="M38.7324 73.81C38.7324 73.9448 38.7324 74.0717 38.7324 74.2065C38.7324 74.4998 38.5422 74.595 38.2966 74.6029C38.051 74.6109 37.853 74.5157 37.8451 74.2303C37.8371 73.9369 37.8371 73.6515 37.8451 73.3581C37.853 73.0647 38.059 72.9696 38.2966 72.9775C38.5343 72.9854 38.7403 73.0806 38.7324 73.3739C38.7324 73.5246 38.7324 73.6673 38.7324 73.81Z" fill="#221F51"/>
<path d="M47.3837 64.7234C50.4575 63.4627 53.0402 61.536 55.1634 58.9988C55.4962 58.6023 55.8051 58.1821 56.1696 57.7143C54.4504 57.7143 52.8343 57.7143 51.2181 57.7064C51.02 57.7064 50.9804 57.8174 50.9329 57.9601C50.5209 59.1732 49.998 60.3387 49.4118 61.4726C48.8255 62.6143 48.0729 63.6451 47.3361 64.6759C47.3044 64.6838 47.2648 64.6917 47.2886 64.7393C47.2965 64.7472 47.352 64.7314 47.3837 64.7234ZM31.634 64.7234C31.6657 64.7314 31.7211 64.7551 31.7291 64.7393C31.7608 64.6917 31.7211 64.6838 31.6815 64.6759C31.6736 64.6521 31.6736 64.6203 31.6578 64.6045C30.0495 62.6461 28.9404 60.418 28.1244 58.0394C28.0293 57.7777 27.9026 57.7064 27.6411 57.7143C26.1596 57.7301 24.6861 57.7222 23.2125 57.7222C23.1254 57.7222 23.0303 57.6746 22.959 57.7698C22.9432 57.8649 23.0145 57.9204 23.0541 57.9759C24.5435 60.0295 26.3577 61.7263 28.4888 63.0901C29.4791 63.7323 30.5249 64.2953 31.634 64.7234ZM56.3201 41.3491C56.4785 41.3015 56.5974 41.2618 56.7241 41.2301C57.9283 40.8892 58.681 40.0963 58.9424 38.8911C59.2276 37.567 59.2197 36.2191 58.9741 34.887C58.7126 33.4757 57.8729 32.5876 56.4548 32.2784C56.0903 32.1991 55.7259 32.1357 55.3536 32.1357C52.2084 32.1278 49.079 32.1278 45.9339 32.1278C45.6724 32.1278 45.4902 32.2229 45.3635 32.4687C45.0386 33.0951 44.6901 33.7215 44.3573 34.3399C42.8521 37.1547 41.3468 39.9536 39.8416 42.7683C39.7703 42.9111 39.7307 43.1013 39.493 43.0855C39.287 43.0696 39.2553 42.9031 39.184 42.7683C37.3302 39.3748 35.4843 35.9733 33.6384 32.5718C33.4561 32.2388 33.2264 32.1198 32.8461 32.1198C30.0099 32.1357 27.1816 32.1278 24.3375 32.1278C23.878 32.1278 23.4185 32.1595 22.959 32.2229C21.2161 32.4529 20.099 33.3726 19.6712 34.9267C19.489 35.5927 19.4098 36.2746 19.4019 36.9565C19.3781 38.2647 19.386 39.573 19.3939 40.8733C19.3939 41.6266 19.4652 42.3798 19.6475 43.1093C19.9723 44.4017 20.7249 45.3214 22.0321 45.7179C22.7055 45.924 23.4027 46.0033 24.0998 46.0112C26.7142 46.0192 29.3207 46.0192 31.9351 46.0112C32.4025 46.0112 32.5134 45.9002 32.5134 45.4245C32.5213 44.8933 32.5134 44.37 32.5134 43.8387C32.5134 43.2441 32.4183 43.1568 31.8241 43.1568C29.3682 43.1568 26.9202 43.1568 24.4643 43.1568C24.1078 43.1568 23.7512 43.141 23.4027 43.0617C22.7768 42.9111 22.3807 42.5225 22.2618 41.8882C22.1905 41.4997 22.1509 41.1112 22.1272 40.7148C22.1113 40.3817 22.1747 40.2707 22.5471 40.2707C25.613 40.2866 28.6631 40.2787 31.7291 40.2787C32.3153 40.2787 32.4421 40.1518 32.4421 39.5571C32.4421 39.1607 32.4421 38.7642 32.4421 38.3678C32.4342 37.8762 32.2995 37.7335 31.8004 37.7335C30.2555 37.7335 28.7106 37.7335 27.1737 37.7335C25.6051 37.7335 24.0285 37.7256 22.4678 37.7414C22.2064 37.7414 22.1272 37.678 22.1351 37.4084C22.1509 37.012 22.1905 36.6155 22.2698 36.2349C22.3807 35.6799 22.7134 35.2914 23.2759 35.1249C23.6641 35.0139 24.0523 34.9901 24.4484 34.9901C26.6904 34.9901 28.9325 34.998 31.1745 34.9822C31.428 34.9822 31.5627 35.0535 31.6895 35.2914C33.3769 38.3757 35.0882 41.4442 36.7677 44.5365C37.3223 45.5514 38.0986 46.1064 39.2791 46.0192C39.4613 46.0033 39.6514 46.0033 39.8336 46.0192C41.0141 46.1381 41.7667 45.5593 42.3054 44.5523C43.977 41.4442 45.6804 38.3599 47.3599 35.2518C47.4787 35.0297 47.6134 34.9346 47.8748 34.9425C49.4356 34.9584 50.9883 34.9505 52.5411 34.9505C53.27 34.9505 53.9909 34.9425 54.7198 34.9822C55.5199 35.0297 55.9794 35.5055 56.019 36.2984C56.0428 36.7979 56.0428 37.3053 56.019 37.8049C55.9794 38.5819 55.5199 39.0418 54.7515 39.121C54.49 39.1448 54.2207 39.1528 53.9592 39.1528C51.8598 39.1528 49.7683 39.1607 47.6689 39.1448C47.3044 39.1448 47.2252 39.2479 47.2411 39.5809C47.2727 40.1439 47.2648 40.7148 47.2411 41.2856C47.2252 41.5869 47.3044 41.6821 47.6213 41.6821C49.3405 41.6662 51.0438 41.6821 52.763 41.6662C53.0323 41.6662 53.1908 41.7534 53.3492 41.9675C54.2603 43.2124 55.1793 44.4413 56.0983 45.6703C56.2171 45.8289 56.328 46.0033 56.5578 46.0033C57.453 46.0113 58.3561 46.0192 59.2514 46.0033C59.5762 45.9954 59.695 45.7179 59.5207 45.4404C59.4732 45.3611 59.4098 45.2976 59.3544 45.2184C58.3561 43.9339 57.35 42.6653 56.3201 41.3491ZM27.1658 30.2407C29.6772 30.2407 32.1727 30.2407 34.6841 30.2328C35.0644 30.2328 35.405 30.2962 35.7616 30.4389C36.5934 30.764 37.3223 31.2556 38.0194 31.8027C39.1206 32.6669 40.2377 32.4211 41.228 31.7789C41.7429 31.4459 42.242 31.0812 42.7649 30.7561C43.3829 30.3676 44.0404 30.2248 44.7851 30.2248C49.6495 30.2486 54.5217 30.2407 59.386 30.2407C59.489 30.2407 59.6 30.2328 59.7029 30.2407C59.9406 30.2566 60.0357 30.1376 60.0357 29.9077C60.0357 29.5509 60.0119 29.1941 60.0436 28.8373C60.0753 28.4488 59.9168 28.3378 59.5445 28.3457C58.1343 28.3615 56.7162 28.3457 55.3139 28.3615C55.0367 28.3615 54.9574 28.2902 54.9654 28.0127C54.9891 27.5132 54.9812 27.0057 54.9654 26.5062C54.9574 26.308 55.0129 26.2128 55.203 26.1177C55.6546 25.8957 55.821 25.4675 55.6863 24.9838C55.5675 24.5398 55.211 24.2702 54.7119 24.294C54.5059 24.302 54.4108 24.2385 54.3078 24.072C53.1353 22.1215 51.9549 20.1789 50.7824 18.2284C50.6952 18.0778 50.6635 17.9747 50.7665 17.8082C51.02 17.3721 50.9566 16.936 50.6477 16.603C50.3466 16.2938 49.9188 16.2224 49.4831 16.4444C49.3484 16.5158 49.2533 16.5237 49.1345 16.4286C48.1759 15.7467 47.2173 15.0727 46.2587 14.3908C46.1319 14.3036 46.0765 14.2006 46.0923 14.0261C46.1319 13.5028 45.9497 13.1777 45.5457 12.9874C45.1575 12.8051 44.7455 12.8923 44.3969 13.2491C44.2622 13.3839 44.1513 13.4077 43.977 13.3601C43.5334 13.2332 43.0897 13.1222 42.6382 13.0192C42.448 12.9716 42.3371 12.9081 42.2896 12.6782C42.1866 12.2183 41.8459 11.9725 41.4181 11.9488C40.9665 11.925 40.6338 12.1153 40.4674 12.5672C40.3882 12.7813 40.2535 12.7892 40.0792 12.8051C38.8671 12.9002 37.6629 12.9874 36.4587 13.1064C36.1735 13.1302 35.9834 13.1064 35.8012 12.8447C35.5477 12.4721 35.1119 12.369 34.7158 12.5117C34.3355 12.6465 34.0503 13.0033 34.0741 13.4156C34.0899 13.6772 33.979 13.7883 33.781 13.8993C32.2519 14.7556 30.7309 15.6198 29.2098 16.4841C29.0592 16.5713 28.9642 16.5951 28.7978 16.4841C28.3779 16.2066 27.8946 16.2621 27.5698 16.5951C27.245 16.9202 27.1975 17.3959 27.4668 17.8241C27.5619 17.9826 27.5698 18.1016 27.4827 18.2601C26.5795 19.8697 25.6843 21.4793 24.7891 23.0809C24.7019 23.2395 24.6306 23.3346 24.4088 23.3267C23.9018 23.295 23.5453 23.5884 23.4185 24.0641C23.3076 24.4843 23.5057 24.9521 23.9255 25.1583C24.1157 25.2534 24.1632 25.3565 24.1553 25.5547C24.1474 26.3318 24.1315 27.1167 24.1632 27.8937C24.1791 28.2743 24.0998 28.4091 23.6799 28.4012C22.2777 28.3695 20.8834 28.3933 19.489 28.3853C19.1484 28.3853 18.9978 28.4884 19.0295 28.8373C19.0533 29.0831 19.0374 29.3368 19.0374 29.5905C19.0374 30.2486 19.0374 30.2486 19.6712 30.2486C22.1509 30.2407 24.6544 30.2407 27.1658 30.2407ZM33.5354 47.8666C32.0935 47.8666 30.6596 47.8745 29.2256 47.8587C28.9166 47.8587 28.8216 47.9221 28.8453 48.2472C28.9721 50.4911 29.2652 52.7032 29.8356 54.8757C29.899 55.1215 29.9782 55.185 30.2238 55.185C32.7827 55.177 35.3337 55.177 37.8927 55.185C38.2096 55.185 38.2492 55.074 38.2492 54.7965C38.2413 52.6081 38.2333 50.4197 38.2492 48.2313C38.2492 47.8983 38.1383 47.8508 37.8451 47.8508C36.4033 47.8745 34.9614 47.8666 33.5354 47.8666ZM44.9357 55.185C45.9656 55.185 46.9955 55.185 48.0254 55.185C49.1741 55.185 49.1504 55.185 49.3959 54.0432C49.8079 52.1165 50.0614 50.1739 50.1723 48.2076C50.1882 47.9221 50.1248 47.8508 49.8396 47.8508C46.9242 47.8587 44.0167 47.8587 41.0933 47.8508C40.8477 47.8508 40.7526 47.8983 40.7606 48.1679C40.7764 50.4039 40.7764 52.6239 40.7606 54.8599C40.7606 55.1374 40.8556 55.177 41.0933 55.177C42.3767 55.185 43.6601 55.1929 44.9357 55.185ZM51.7647 55.185C53.7057 55.185 55.5833 55.185 57.4688 55.185C57.6035 55.185 57.6669 55.1374 57.7303 55.0026C58.7681 52.838 59.3781 50.5704 59.6079 48.1838C59.6316 47.9221 59.5445 47.8508 59.291 47.8508C57.2074 47.8587 55.1317 47.8587 53.0482 47.8508C52.8026 47.8508 52.7154 47.8983 52.6996 48.1679C52.6045 50.5228 52.3193 52.846 51.7647 55.185ZM22.8798 47.8666C21.8261 47.8666 20.7645 47.8745 19.7108 47.8587C19.4415 47.8587 19.386 47.938 19.4098 48.1917C19.5999 50.3087 20.1545 52.3226 20.9388 54.2969C21.2082 54.9788 21.5488 55.2405 22.3173 55.2008C23.8542 55.1215 25.407 55.177 26.944 55.1691C27.047 55.1691 27.3005 55.3039 27.2212 54.9709C26.6667 52.7349 26.4211 50.4594 26.326 48.16C26.3102 47.8825 26.2072 47.8428 25.9774 47.8508C24.9396 47.8745 23.9097 47.8666 22.8798 47.8666ZM30.7705 57.7301C30.7705 57.7777 30.7546 57.8015 30.7625 57.8253C31.5152 59.7679 32.4738 61.5836 33.8206 63.1852C34.9218 64.4856 36.2052 65.5322 37.8531 66.0555C38.1858 66.1586 38.2413 66.0872 38.2413 65.7621C38.2254 63.2011 38.2333 60.648 38.2413 58.079C38.2413 57.7857 38.1779 57.6984 37.8768 57.7064C35.5952 57.7222 33.3215 57.7143 31.0319 57.7143C30.9448 57.7143 30.8576 57.7222 30.7705 57.7301ZM40.7764 61.9562C40.7764 63.2486 40.7843 64.5411 40.7685 65.8255C40.7685 66.1189 40.8398 66.1506 41.1012 66.0713C42.1232 65.7542 43.0343 65.2388 43.8424 64.5411C45.9022 62.765 47.1777 60.4735 48.1838 57.9997C48.2789 57.7698 48.2155 57.7064 47.9699 57.7064C45.6645 57.7143 43.3591 57.7143 41.0537 57.7064C40.7843 57.7064 40.7606 57.8174 40.7606 58.0394C40.7843 59.3476 40.7764 60.648 40.7764 61.9562Z" fill="#221F51"/>
<path d="M56.3201 41.3491C57.35 42.6574 58.3562 43.9418 59.3623 45.2105C59.4178 45.2818 59.4811 45.3532 59.5287 45.4325C59.703 45.71 59.5841 45.9875 59.2593 45.9954C58.3641 46.0113 57.4609 45.9954 56.5657 45.9954C56.336 45.9954 56.2251 45.8289 56.1062 45.6624C55.1872 44.4255 54.2682 43.1886 53.3572 41.9596C53.2066 41.7535 53.0482 41.6583 52.7709 41.6583C51.0518 41.6742 49.3484 41.6583 47.6293 41.6742C47.3124 41.6742 47.2332 41.579 47.249 41.2777C47.2728 40.7069 47.2807 40.1439 47.249 39.573C47.2332 39.2321 47.3124 39.129 47.6768 39.1369C49.7762 39.1607 51.8678 39.1449 53.9672 39.1449C54.2286 39.1449 54.498 39.1369 54.7594 39.1131C55.5279 39.0339 55.9874 38.574 56.027 37.797C56.0508 37.2974 56.0508 36.79 56.027 36.2905C55.9874 35.4976 55.5279 35.0218 54.7277 34.9743C54.0068 34.9267 53.2779 34.9426 52.5491 34.9426C50.9884 34.9346 49.4356 34.9505 47.8828 34.9346C47.6214 34.9346 47.4867 35.0218 47.3678 35.2439C45.6804 38.344 43.985 41.4363 42.3134 44.5444C41.7747 45.5514 41.022 46.1223 39.8416 46.0113C39.6594 45.9954 39.4693 45.9954 39.287 46.0113C38.1066 46.0985 37.3302 45.5435 36.7756 44.5286C35.0961 41.4363 33.3849 38.3678 31.6974 35.2835C31.5707 35.0456 31.436 34.9743 31.1825 34.9743C28.9404 34.9822 26.6984 34.9822 24.4564 34.9822C24.0603 34.9822 23.6641 35.006 23.2839 35.117C22.7214 35.2835 22.3966 35.672 22.2777 36.227C22.1985 36.6156 22.1589 37.0041 22.143 37.4005C22.1351 37.6701 22.2143 37.7335 22.4758 37.7335C24.0444 37.7256 25.621 37.7256 27.1817 37.7256C28.7265 37.7256 30.2714 37.7256 31.8083 37.7256C32.3074 37.7256 32.4421 37.8604 32.45 38.3599C32.458 38.7563 32.45 39.1528 32.45 39.5492C32.45 40.1518 32.3233 40.2708 31.737 40.2708C28.6711 40.2708 25.621 40.2787 22.555 40.2628C22.1827 40.2628 22.1193 40.3738 22.1351 40.7069C22.1589 41.1033 22.1906 41.4997 22.2698 41.8803C22.3886 42.5146 22.7848 42.9032 23.4106 43.0538C23.7592 43.1331 24.1157 43.149 24.4722 43.149C26.9282 43.149 29.3762 43.149 31.8321 43.149C32.4263 43.149 32.5213 43.2362 32.5213 43.8308C32.5213 44.3621 32.5293 44.8854 32.5213 45.4166C32.5134 45.9003 32.4104 46.0034 31.943 46.0034C29.3286 46.0034 26.7222 46.0034 24.1078 46.0034C23.4027 46.0034 22.7135 45.9161 22.04 45.71C20.7249 45.3135 19.9802 44.3938 19.6554 43.1014C19.4732 42.3719 19.4019 41.6187 19.4019 40.8654C19.4019 39.5572 19.3861 38.2489 19.4098 36.9486C19.4257 36.2667 19.497 35.5848 19.6792 34.9188C20.0991 33.3806 21.2082 32.4529 22.9511 32.2229C23.4106 32.1595 23.8701 32.1278 24.3296 32.1278C27.1658 32.1278 29.9941 32.1357 32.8382 32.1199C33.2106 32.1199 33.4483 32.2309 33.6305 32.5718C35.4764 35.9733 37.3223 39.3748 39.1761 42.7684C39.2474 42.9032 39.2791 43.0697 39.4851 43.0855C39.7228 43.1014 39.7624 42.9032 39.8337 42.7684C41.3468 39.9615 42.8521 37.1547 44.3494 34.34C44.6822 33.7136 45.0308 33.0951 45.3556 32.4687C45.4823 32.2229 45.6645 32.1278 45.926 32.1278C49.0712 32.1357 52.2005 32.1357 55.3457 32.1357C55.718 32.1357 56.0825 32.1992 56.4469 32.2785C57.865 32.5877 58.7048 33.4757 58.9662 34.8871C59.2118 36.2191 59.2197 37.567 58.9345 38.8911C58.6731 40.0963 57.9204 40.8892 56.7162 41.2302C56.5974 41.2698 56.4786 41.3015 56.3201 41.3491Z" fill="white"/>
<path d="M27.1656 30.2329C24.6542 30.2329 22.1587 30.2329 19.6473 30.2329C19.0135 30.2329 19.0135 30.2329 19.0135 29.5748C19.0135 29.3211 19.0294 29.0674 19.0056 28.8216C18.9739 28.4648 19.1244 28.3617 19.4651 28.3696C20.8673 28.3855 22.2617 28.3538 23.656 28.3855C24.0759 28.3934 24.1551 28.2586 24.1393 27.8781C24.1551 27.0614 24.1551 26.3478 24.1314 25.539C24.1234 25.3487 24.0918 25.2377 23.9016 25.1426C23.4738 24.9364 23.2837 24.4686 23.3946 24.0484C23.5213 23.5727 23.8778 23.2872 24.3849 23.311C24.6067 23.3269 24.678 23.2317 24.7652 23.0652C25.6604 21.4557 26.5556 19.8461 27.4588 18.2445C27.5459 18.0859 27.538 17.9669 27.4429 17.8084C27.1736 17.3802 27.229 16.9045 27.5459 16.5794C27.8707 16.2543 28.354 16.1909 28.7739 16.4684C28.9402 16.5794 29.0432 16.5477 29.1858 16.4684C30.7069 15.6041 32.2359 14.7399 33.757 13.8836C33.9551 13.7726 34.066 13.6695 34.0502 13.3999C34.0264 12.9876 34.3037 12.6308 34.6919 12.496C35.088 12.3533 35.5237 12.4564 35.7772 12.829C35.9515 13.0986 36.1496 13.1224 36.4348 13.0907C37.639 12.9797 38.8511 12.8845 40.0553 12.7894C40.2296 12.7735 40.3643 12.7735 40.4435 12.5515C40.6099 12.1075 40.9426 11.9093 41.3942 11.9331C41.8299 11.9568 42.1627 12.2026 42.2657 12.6625C42.3211 12.8925 42.4241 12.9559 42.6142 13.0035C43.0658 13.1145 43.5095 13.2255 43.9531 13.3444C44.1274 13.392 44.2383 13.3761 44.373 13.2334C44.7216 12.8766 45.1336 12.7973 45.5217 12.9717C45.9258 13.162 46.1159 13.4792 46.0684 14.0104C46.0525 14.1849 46.108 14.28 46.2348 14.3752C47.1934 15.0491 48.152 15.731 49.1106 16.4129C49.2373 16.5001 49.3245 16.4922 49.4592 16.4287C49.8949 16.2067 50.3227 16.2781 50.6238 16.5873C50.9406 16.9124 51.004 17.3564 50.7426 17.7925C50.6396 17.9669 50.6713 18.07 50.7584 18.2127C51.9389 20.1632 53.1193 22.1058 54.2839 24.0563C54.3869 24.2228 54.4819 24.2863 54.6879 24.2783C55.187 24.2546 55.5435 24.5241 55.6624 24.9682C55.7891 25.4518 55.6228 25.872 55.1791 26.102C54.989 26.1971 54.9414 26.2923 54.9414 26.4905C54.9414 26.9821 54.9414 27.4578 54.9414 27.997C54.9256 28.2745 55.0127 28.3538 55.29 28.3459C56.7002 28.33 58.1183 28.3538 59.5206 28.33C59.8929 28.3221 60.0514 28.4331 60.0197 28.8216C59.988 29.1784 60.0118 29.5352 60.0118 29.892C60.0118 30.1219 59.9167 30.2409 59.679 30.225C59.576 30.2171 59.4651 30.225 59.3621 30.225C54.4978 30.225 49.6255 30.2409 44.7612 30.2091C44.0165 30.2012 43.3589 30.3519 42.741 30.7404C42.2181 31.0655 41.719 31.4302 41.2041 31.7632C40.2138 32.4055 39.0888 32.6512 37.9955 31.787C37.3063 31.2399 36.5695 30.7483 35.7376 30.4232C35.389 30.2884 35.0405 30.2171 34.6602 30.2171C32.1726 30.2329 29.6691 30.2329 27.1656 30.2329ZM25.1137 23.5013C26.8646 22.3833 28.6154 21.2654 30.3663 20.1474C30.4455 20.0998 30.493 20.0364 30.493 19.9254C30.5009 19.5131 30.8812 19.5289 30.4851 19.2118C30.3266 19.1325 29.6136 18.5775 29.4314 18.4506C29.1383 18.2603 28.8372 17.9432 28.4094 18.2127C28.3381 18.2524 28.2272 18.2524 28.1401 18.2365C27.9737 18.1969 27.9024 18.2762 27.8311 18.403C26.9042 20.084 25.9773 21.7649 25.0504 23.4379C25.0266 23.4696 25.0187 23.5092 25.0583 23.533C25.0662 23.5568 25.0979 23.5172 25.1137 23.5013ZM32.2676 18.8629C32.3152 18.8391 32.3627 18.8233 32.4102 18.7915C35.0405 16.9838 37.6628 15.1918 40.293 13.384C40.3484 13.3444 40.4039 13.3048 40.3564 13.2175C38.9858 13.3206 37.6073 13.4316 36.2367 13.5347C36.0783 13.5506 35.9991 13.614 35.9357 13.7726C35.801 14.1056 35.5396 14.3989 35.1672 14.3593C34.7236 14.3117 34.6047 14.5813 34.4463 14.8667C34.3987 14.9619 34.3433 15.0491 34.2878 15.1443C33.5986 16.3732 32.9093 17.5943 32.2201 18.8153C32.1884 18.8233 32.1567 18.8391 32.1884 18.8788C32.1963 18.8946 32.2439 18.8708 32.2676 18.8629ZM42.0676 18.1969C41.5923 18.2762 41.0852 18.3634 40.5782 18.4427C37.9717 18.8629 35.3811 19.2911 32.7747 19.7113C32.5924 19.743 32.4182 19.7351 32.3389 20.0047C32.2597 20.2822 32.4657 20.3218 32.5845 20.4328C32.7667 20.6231 32.9806 20.7817 33.1787 20.9561C34.9533 22.5181 36.7121 24.0722 38.4867 25.6263C38.9303 26.0148 39.5324 25.88 39.7543 25.3487C40.1266 24.4766 40.499 23.6044 40.8713 22.7322C41.418 21.4319 41.9646 20.1395 42.5112 18.8471C42.6301 18.5616 42.3924 18.189 42.0676 18.1969ZM27.6885 28.3776C28.6392 28.3776 29.5899 28.3776 30.5406 28.3776C30.7465 28.3776 30.8891 28.3617 30.8971 28.0921C30.9842 25.6976 31.0793 23.3031 31.1823 20.9086C31.1902 20.7103 31.111 20.639 30.9604 20.5518C30.8099 20.4566 30.699 20.4408 30.5406 20.5438C28.8452 21.638 27.1577 22.7322 25.4623 23.8185C25.3039 23.9215 25.2801 24.0167 25.3039 24.1991C25.3514 24.6114 25.185 24.9682 24.7968 25.1426C24.575 25.2457 24.5592 25.3725 24.5592 25.5707C24.5671 26.3874 24.575 27.212 24.5512 28.0287C24.5433 28.3379 24.6463 28.3934 24.9315 28.3934C25.8505 28.3696 26.7774 28.3776 27.6885 28.3776ZM31.2932 28.0049C31.1902 28.3221 31.3407 28.3934 31.6735 28.3855C32.6875 28.3696 33.7095 28.4093 34.7236 28.3696C35.2702 28.3459 35.7614 28.4569 36.2447 28.663C36.4189 28.7423 36.5299 28.7185 36.6725 28.6075C37.0369 28.3062 37.4251 28.0287 37.7974 27.7274C38.1698 27.4261 38.6927 27.2041 38.4788 26.5619C38.4708 26.5381 38.4788 26.5064 38.4946 26.4826C38.5818 26.2923 38.5025 26.1813 38.352 26.0465C36.308 24.2625 34.272 22.4785 32.2359 20.6786C32.1013 20.5597 31.9903 20.5359 31.8161 20.6073C31.6338 20.6786 31.6259 20.7896 31.618 20.9403C31.5071 23.2872 31.4041 25.6263 31.2932 28.0049ZM40.3722 26.1892C40.4435 26.1654 40.5227 26.1416 40.594 26.1178C43.2639 25.2536 45.9258 24.3893 48.5956 23.541C48.8808 23.4537 48.9363 23.2793 49.0076 23.0494C49.0789 22.8115 48.8888 22.7481 48.7699 22.645C47.2251 21.3764 45.6723 20.1077 44.1353 18.8471C43.7154 18.4982 43.0579 18.6568 42.844 19.1563C42.329 20.3694 41.822 21.5825 41.307 22.7877C40.903 23.7471 40.491 24.6986 40.087 25.658C39.9761 25.9355 40.1187 26.2051 40.3722 26.1892ZM52.335 28.3459C51.6378 27.0138 50.9565 25.7373 50.291 24.4686C50.2039 24.3021 50.0771 24.2942 49.9266 24.3101C49.6572 24.3259 49.4195 24.2387 49.2532 24.0405C49.1027 23.874 48.9759 23.866 48.7699 23.9295C46.0763 24.8096 43.3906 25.6738 40.697 26.546C40.5782 26.5856 40.4039 26.5698 40.3881 26.7442C40.3722 26.9424 40.5782 26.9424 40.697 26.99C41.8299 27.4182 42.9707 27.8384 44.0957 28.2586C44.2462 28.3141 44.3968 28.3617 44.5552 28.3617C47.1458 28.3459 49.7048 28.3459 52.335 28.3459ZM32.4261 19.299C32.5449 19.3069 32.5845 19.3149 32.6241 19.3069C35.5396 18.8312 38.4471 18.3475 41.3625 17.8797C41.822 17.8084 42.3211 17.8163 42.432 17.2058C42.4399 17.1741 42.4796 17.1423 42.5112 17.1186C42.6539 17.0076 42.638 16.8965 42.5746 16.738C42.3132 16.0878 42.0676 15.4376 41.8299 14.7795C41.6636 14.3117 41.5764 13.836 40.9189 13.7646C40.697 13.7408 40.5544 13.7091 40.3643 13.836C39.3027 14.5734 38.2332 15.2949 37.1716 16.0244C35.6109 17.1106 34.0581 18.181 32.4261 19.299ZM49.7127 20.3298C49.7127 19.8302 49.7048 19.3307 49.7127 18.8233C49.7206 18.4903 49.7523 18.1731 49.3324 18.0462C49.2373 18.0145 49.1343 17.8956 49.0947 17.7925C49.0155 17.5864 48.8808 17.5705 48.6907 17.5864C47.2726 17.7053 45.8545 17.8163 44.4522 17.9273C44.3096 17.9352 44.1749 17.9194 44.1116 18.1097C44.0482 18.3 44.1908 18.3396 44.2859 18.4189C45.902 19.7509 47.5182 21.0751 49.1264 22.3992C49.2453 22.5023 49.3324 22.5419 49.5067 22.4626C49.681 22.3754 49.7206 22.2803 49.7206 22.0979C49.7127 21.5112 49.7127 20.9244 49.7127 20.3298ZM32.537 17.3564C33.1391 16.294 33.7412 15.2394 34.3433 14.1928C34.2641 14.1135 34.2165 14.1452 34.169 14.169C32.5608 15.0808 30.9604 15.9927 29.368 16.9045C29.1462 17.0313 29.0908 17.6656 29.2888 17.8163C29.7325 18.1652 30.192 18.4982 30.6435 18.8391C30.7069 18.8867 30.7703 18.9581 30.8495 18.9263M50.2276 18.2127C50.1959 18.2286 50.1563 18.2445 50.1246 18.2603C50.1246 19.5765 50.1246 20.8927 50.1246 22.2089C50.1246 22.3516 50.2039 22.3913 50.3069 22.4309C50.6634 22.5657 50.8614 22.8511 50.8931 23.2159C50.9169 23.4617 51.0278 23.5489 51.2338 23.6202C52.0498 23.9295 52.8499 24.2625 53.6659 24.5796C53.7689 24.6193 53.8878 24.7303 53.9908 24.6272C54.1334 24.4845 53.9591 24.3814 53.9036 24.2863C53.0163 22.8036 52.1211 21.3288 51.2259 19.8619C50.8773 19.3149 50.5525 18.7598 50.2276 18.2127ZM54.5295 26.6649C54.4661 26.3478 54.5057 26.1733 54.2047 26.0386C53.9353 25.9196 53.7927 25.65 53.7848 25.3646C53.7768 25.1188 53.658 25.0316 53.452 24.9523C52.6519 24.6431 51.8596 24.318 51.0595 24.0088C50.9406 23.9612 50.806 23.8105 50.6634 23.9533C50.5049 24.1118 50.6554 24.2466 50.7188 24.3735C51.313 25.4994 51.9309 26.6174 52.4934 27.7591M44.5235 17.4833C45.9099 17.3723 47.3043 17.2692 48.6828 17.1582C48.7937 17.1503 48.9363 17.1741 48.9838 17.0313C49.0472 16.849 48.865 16.8173 48.7699 16.7538C48.0173 16.2226 47.2647 15.6914 46.52 15.1522C46.1238 14.8747 45.7673 14.4782 45.2207 14.835C45.2048 14.8509 45.1652 14.8509 45.1415 14.843C44.9117 14.7954 44.8246 14.9302 44.7374 15.1205C44.4918 15.6438 44.2304 16.1592 43.969 16.6745C43.7392 17.1661 43.9769 17.515 44.5235 17.4833ZM41.8933 13.8122C41.9012 13.836 41.9171 13.8598 41.925 13.8836C42.2815 14.8033 42.638 15.7231 42.9866 16.6428C43.0341 16.7697 43.1054 16.8252 43.248 16.841C43.3906 16.8569 43.4698 16.7935 43.5253 16.6745C43.8184 16.0561 44.1195 15.4456 44.4126 14.8271C44.4443 14.7637 44.4998 14.7082 44.4522 14.613C44.2146 14.1294 43.9769 13.6695 43.3114 13.6536C43.0024 13.6457 42.7014 13.503 42.4003 13.4316C42.2181 13.384 41.8933 13.6457 41.8933 13.8122ZM43.4302 28.4489C42.3766 28.0525 41.4021 27.6957 40.4356 27.331C40.3088 27.2834 40.2138 27.2913 40.1187 27.3865C40.0236 27.4895 40.0632 27.5688 40.1187 27.6719C40.396 28.219 40.6733 28.774 40.9347 29.329C41.006 29.4797 41.0615 29.5669 41.2516 29.448C41.9012 29.0277 42.6142 28.7344 43.4302 28.4489ZM39.683 30.4787C39.984 30.3439 40.3088 30.0585 40.6336 29.781C40.7287 29.7017 40.6257 29.6066 40.594 29.5352C40.3168 28.9722 40.0236 28.4093 39.7384 27.8463C39.6988 27.7591 39.6592 27.6719 39.5483 27.6878C39.4215 27.7036 39.4453 27.8146 39.4294 27.9018C39.3106 28.5599 39.1997 29.218 39.0809 29.8841C39.0096 30.2567 39.1997 30.4867 39.683 30.4787ZM38.6372 29.9316C38.7719 29.1784 38.8987 28.5124 39.0254 27.8384C39.0413 27.7353 39.0571 27.6323 38.9462 27.5609C38.8353 27.4895 38.756 27.5133 38.661 27.5847C38.0985 28.0287 37.5281 28.4648 36.926 28.9326C37.5202 29.2577 38.0906 29.5193 38.6372 29.9316Z" fill="white"/>
<path d="M33.5355 47.8668C34.9773 47.8668 36.4113 47.8747 37.8452 47.8589C38.1304 47.8589 38.2493 47.9065 38.2493 48.2395C38.2334 50.4278 38.2334 52.6162 38.2493 54.8046C38.2493 55.0821 38.2176 55.1931 37.8928 55.1931C35.3338 55.1772 32.7828 55.1852 30.2239 55.1931C29.9783 55.1931 29.8991 55.1297 29.8357 54.8839C29.2653 52.7034 28.9722 50.4992 28.8454 48.2553C28.8296 47.9302 28.9246 47.8668 29.2257 47.8668C30.6596 47.8747 32.0936 47.8668 33.5355 47.8668Z" fill="white"/>
<path d="M44.9357 55.185C43.6523 55.185 42.3768 55.1771 41.1013 55.193C40.8557 55.193 40.7606 55.1533 40.7685 54.8758C40.7844 52.6399 40.7844 50.4198 40.7685 48.1838C40.7685 47.9143 40.8557 47.8587 41.1013 47.8667C44.0167 47.8746 46.9242 47.8746 49.8475 47.8667C50.1328 47.8667 50.1961 47.938 50.1803 48.2235C50.0694 50.1898 49.8159 52.1324 49.4039 54.0591C49.1583 55.193 49.1741 55.2009 48.0333 55.2009C46.9955 55.185 45.9656 55.185 44.9357 55.185Z" fill="white"/>
<path d="M51.7646 55.1852C52.3192 52.8462 52.6044 50.5309 52.6916 48.176C52.6995 47.9065 52.7946 47.8589 53.0402 47.8589C55.1237 47.8668 57.1994 47.8668 59.283 47.8589C59.5444 47.8589 59.6316 47.9223 59.5999 48.1919C59.3701 50.5785 58.7601 52.8462 57.7223 55.0107C57.6589 55.1376 57.5955 55.1931 57.4608 55.1931C55.5753 55.1852 53.6977 55.1852 51.7646 55.1852Z" fill="white"/>
<path d="M22.8799 47.8668C23.9098 47.8668 24.9397 47.8747 25.9696 47.8589C26.2072 47.8589 26.3102 47.8906 26.3182 48.1681C26.4212 50.4675 26.6588 52.7351 27.2134 54.979C27.2926 55.312 27.047 55.1772 26.9361 55.1772C25.3912 55.1852 23.8464 55.1297 22.3094 55.209C21.541 55.2486 21.2003 54.987 20.931 54.3051C20.1466 52.3308 19.5921 50.3168 19.4019 48.1998C19.3782 47.9461 19.4336 47.8589 19.703 47.8668C20.7725 47.8827 21.8183 47.8668 22.8799 47.8668Z" fill="white"/>
<path d="M30.7705 57.7301C30.8576 57.7222 30.9448 57.7142 31.0319 57.7142C33.3136 57.7142 35.5873 57.7222 37.8768 57.7063C38.1779 57.7063 38.2492 57.7856 38.2413 58.079C38.2254 60.64 38.2254 63.1931 38.2413 65.762C38.2413 66.0951 38.1858 66.1585 37.8531 66.0554C36.1973 65.5321 34.9139 64.4855 33.8206 63.1852C32.4738 61.5915 31.5152 59.7678 30.7626 57.8252C30.7546 57.8014 30.7626 57.7777 30.7705 57.7301Z" fill="white"/>
<path d="M40.7765 61.9563C40.7765 60.648 40.7844 59.3398 40.7686 58.0474C40.7686 57.8254 40.7923 57.7144 41.0617 57.7144C43.3671 57.7223 45.6725 57.7223 47.9779 57.7144C48.2235 57.7144 48.279 57.7778 48.1918 58.0077C47.1857 60.4815 45.9022 62.773 43.8504 64.5491C43.0423 65.2468 42.1312 65.7622 41.1092 66.0793C40.8478 66.1586 40.7686 66.1269 40.7765 65.8335C40.7844 64.5332 40.7765 63.2487 40.7765 61.9563Z" fill="white"/>
<path d="M31.6339 64.7235C30.5168 64.3033 29.479 63.7324 28.4808 63.0902C26.3497 61.7264 24.5354 60.0217 23.046 57.9761C22.9985 57.9126 22.9351 57.8651 22.951 57.7699C23.0143 57.6748 23.1173 57.7223 23.2045 57.7223C24.686 57.7223 26.1595 57.7303 27.6331 57.7144C27.8945 57.7144 28.0292 57.7778 28.1164 58.0395C28.9403 60.4182 30.0494 62.6462 31.6497 64.6046C31.6656 64.6205 31.6656 64.6522 31.6735 64.676C31.6656 64.6918 31.6497 64.7077 31.6339 64.7235Z" fill="white"/>
<path d="M47.344 64.6758C48.0887 63.6371 48.8413 62.6064 49.4197 61.4725C49.998 60.3308 50.5288 59.1652 50.9408 57.96C50.9883 57.8173 51.0279 57.7063 51.226 57.7063C52.85 57.7142 54.4662 57.7142 56.1774 57.7142C55.813 58.182 55.504 58.6023 55.1713 58.9987C53.0402 61.5439 50.4575 63.4627 47.3915 64.7234C47.3678 64.7075 47.3598 64.6916 47.344 64.6758Z" fill="white"/>
<path d="M47.3837 64.7236C47.352 64.7315 47.2966 64.7474 47.2966 64.7395C47.2728 64.6919 47.3124 64.6919 47.3441 64.676C47.3599 64.6919 47.3679 64.7077 47.3837 64.7236Z" fill="white"/>
<path d="M31.6816 64.676C31.7133 64.684 31.7529 64.6998 31.7291 64.7395C31.7212 64.7474 31.6657 64.7236 31.634 64.7236C31.6499 64.7077 31.6657 64.6919 31.6816 64.676Z" fill="white"/>
<path d="M42.0678 18.1967C42.3926 18.1887 42.6303 18.5614 42.5114 18.8548C41.9648 20.1551 41.4182 21.4554 40.8715 22.7399C40.4992 23.6121 40.1268 24.4843 39.7545 25.3564C39.5326 25.8877 38.9226 26.0225 38.4869 25.634C36.7123 24.072 34.9535 22.5179 33.1789 20.9638C32.9808 20.7894 32.7749 20.6229 32.5847 20.4405C32.4738 20.3295 32.2678 20.2899 32.3391 20.0124C32.4184 19.7428 32.5926 19.7507 32.7749 19.719C35.3813 19.2908 37.9719 18.8706 40.5784 18.4504C41.1013 18.3632 41.6004 18.2759 42.0678 18.1967Z" fill="#221F51"/>
<path d="M27.6887 28.3854C26.7618 28.3854 25.8428 28.3775 24.9159 28.3934C24.6306 28.4013 24.5277 28.3458 24.5356 28.0286C24.5435 27.2278 24.5514 26.3953 24.5435 25.5707C24.5435 25.3725 24.5593 25.2456 24.7812 25.1425C25.1614 24.9681 25.3357 24.6113 25.2882 24.199C25.2644 24.0087 25.2882 23.9215 25.4466 23.8184C27.15 22.7322 28.8374 21.6459 30.5249 20.5438C30.6833 20.4407 30.7942 20.4566 30.9448 20.5517C31.0874 20.6389 31.1745 20.7103 31.1666 20.9085C31.0636 23.303 30.9685 25.6976 30.8814 28.0921C30.8735 28.3617 30.7309 28.3775 30.5249 28.3775C29.59 28.3854 28.6394 28.3854 27.6887 28.3854Z" fill="#221F51"/>
<path d="M31.2932 28.0129C31.3962 25.6342 31.4991 23.3031 31.6021 20.9562C31.6101 20.8055 31.6259 20.6945 31.8002 20.6231C31.9745 20.5518 32.0775 20.5756 32.2201 20.6945C34.2561 22.4944 36.2922 24.2784 38.3361 26.0624C38.4787 26.1892 38.5659 26.3082 38.4787 26.4985C38.4708 26.5222 38.4629 26.554 38.4629 26.5777C38.6689 27.22 38.1539 27.442 37.7816 27.7433C37.4092 28.0367 37.029 28.3221 36.6566 28.6234C36.514 28.7344 36.4031 28.7582 36.2288 28.6789C35.7455 28.4648 35.2543 28.3617 34.7077 28.3855C33.6936 28.4331 32.6796 28.3855 31.6576 28.4014C31.3486 28.4014 31.1981 28.3221 31.2932 28.0129Z" fill="#221F51"/>
<path d="M40.3723 26.1972C40.1187 26.2051 39.9761 25.9434 40.095 25.6659C40.499 24.7065 40.911 23.7551 41.315 22.7957C41.83 21.5826 42.337 20.3694 42.8519 19.1642C43.0659 18.6647 43.7234 18.5061 44.1433 18.855C45.6882 20.1236 47.2409 21.3923 48.7779 22.653C48.8967 22.756 49.0869 22.8195 49.0156 23.0573C48.9442 23.2873 48.8888 23.4538 48.6036 23.5489C45.9258 24.3894 43.2718 25.2616 40.602 26.1258C40.5228 26.1496 40.4515 26.1734 40.3723 26.1972Z" fill="#221F51"/>
<path d="M52.335 28.3537C49.7048 28.3537 47.1459 28.3537 44.5711 28.3537C44.4127 28.3537 44.2621 28.3061 44.1116 28.2506C42.9787 27.8304 41.8379 27.4102 40.7129 26.982C40.5941 26.9344 40.3881 26.9344 40.4039 26.7362C40.4119 26.5618 40.5941 26.5776 40.7129 26.538C43.4065 25.6658 46.0922 24.7936 48.7858 23.9215C48.9839 23.858 49.1185 23.866 49.2691 24.0325C49.4354 24.2307 49.681 24.3179 49.9425 24.302C50.093 24.2941 50.2198 24.2941 50.3069 24.4606C50.9645 25.7451 51.6379 27.0217 52.335 28.3537Z" fill="#221F51"/>
<path d="M32.4263 19.3068C34.0504 18.1889 35.6111 17.1105 37.1718 16.0401C38.2334 15.3107 39.3029 14.5812 40.3645 13.8518C40.5546 13.7249 40.6972 13.7566 40.919 13.7804C41.5766 13.8517 41.6638 14.3275 41.8301 14.7953C42.0678 15.4534 42.3134 16.1036 42.5748 16.7537C42.6382 16.9123 42.654 17.0233 42.5114 17.1343C42.4798 17.1581 42.4401 17.1898 42.4322 17.2215C42.3213 17.84 41.8222 17.8241 41.3627 17.8955C38.4473 18.3633 35.5398 18.8469 32.6243 19.3227C32.5847 19.3227 32.5451 19.3148 32.4263 19.3068Z" fill="#221F51"/>
<path d="M49.7128 20.3296C49.7128 20.9243 49.7049 21.519 49.7128 22.1057C49.7128 22.2801 49.6732 22.3832 49.4989 22.4704C49.3325 22.5497 49.2454 22.5021 49.1186 22.407C47.5025 21.0749 45.8863 19.7508 44.2781 18.4267C44.183 18.3474 44.0483 18.3078 44.1038 18.1175C44.1672 17.9272 44.3018 17.943 44.4444 17.9351C45.8625 17.8241 47.2807 17.7131 48.6829 17.5942C48.873 17.5783 49.0077 17.5942 49.0869 17.8003C49.1266 17.9034 49.2216 18.0223 49.3246 18.054C49.7445 18.1809 49.7128 18.4981 49.7049 18.8311C49.7049 19.3306 49.7128 19.8301 49.7128 20.3296Z" fill="#221F51"/>
<path d="M32.228 18.8309C32.9173 17.602 33.6065 16.3809 34.2958 15.1599C34.3512 15.0647 34.4067 14.9775 34.4542 14.8824C34.6127 14.5969 34.7315 14.3273 35.1751 14.3749C35.5396 14.4146 35.8089 14.1212 35.9436 13.7882C36.007 13.6217 36.0862 13.5582 36.2447 13.5503C37.6232 13.4472 39.0017 13.3362 40.3643 13.2332C40.4118 13.3283 40.3564 13.3679 40.3009 13.3997C37.6707 15.2074 35.0484 16.9994 32.4182 18.8072C32.3786 18.8389 32.3231 18.8547 32.2756 18.8785C32.2597 18.8547 32.2439 18.8468 32.228 18.8309Z" fill="#221F51"/>
<path d="M30.4059 19.1483C30.8575 19.4575 30.501 19.5289 30.4931 19.9412C30.4931 20.0522 30.4456 20.1156 30.3663 20.1632C28.6155 21.2811 26.8646 22.3991 25.1138 23.5171C25.098 23.5012 25.0821 23.4854 25.0583 23.4695C25.9853 21.7886 26.9122 20.1077 27.8391 18.4347C27.9104 18.3078 27.9817 18.2206 28.1481 18.2682C28.2352 18.292 28.3461 18.292 28.4174 18.2444" fill="#221F51"/>
<path d="M34.3433 14.2006C33.7491 15.2473 33.1391 16.3097 32.537 17.3643C32.4103 17.5783 31.9587 18.3871 31.8319 18.6012C31.3249 19.4971 31.3645 18.7439 30.8496 18.9421C30.7624 18.9738 30.699 18.9025 30.6436 18.8549C30.192 18.514 29.7325 18.1809 29.2888 17.8321C29.0908 17.6735 29.1462 17.0471 29.3681 16.9202C30.9684 16.0084 32.5766 15.0966 34.169 14.1848C34.2166 14.1531 34.2641 14.1214 34.3433 14.2006Z" fill="#221F51"/>
<path d="M50.2277 18.2205C50.5525 18.7676 50.8853 19.3146 51.2101 19.8617C52.1053 21.3365 53.0005 22.8113 53.8879 24.2861C53.9433 24.3812 54.1176 24.4843 53.975 24.627C53.8641 24.7301 53.7532 24.6191 53.6502 24.5794C52.8421 24.2623 52.034 23.9293 51.218 23.62C51.012 23.5407 50.9011 23.4615 50.8774 23.2157C50.8457 22.8509 50.6555 22.5734 50.2911 22.4307C50.1881 22.3911 50.1089 22.3514 50.1089 22.2087C50.1168 20.8925 50.1089 19.5763 50.1089 18.2601C50.1564 18.2522 50.1881 18.2363 50.2277 18.2205Z" fill="#221F51"/>
<path d="M54.4504 28.2903C54.2523 28.4647 53.7928 28.3854 53.4601 28.3616C53.1194 28.3378 52.8025 28.1793 52.5094 27.7828C51.9469 26.6411 51.3289 25.5231 50.7348 24.3972C50.6635 24.2624 50.5209 24.1276 50.6793 23.977C50.8219 23.8342 50.9487 23.9849 51.0754 24.0325C51.8756 24.3417 52.6678 24.6668 53.468 24.976C53.674 25.0553 53.7928 25.1346 53.8007 25.3883C53.8087 25.6737 53.9512 25.9433 54.2206 26.0623C54.5217 26.197 54.5613 26.3715 54.5454 26.6886" fill="#221F51"/>
<path d="M44.5238 17.4913C43.9772 17.523 43.7395 17.1662 43.9772 16.6905C44.2307 16.1751 44.5 15.6597 44.7456 15.1364C44.8328 14.9541 44.9199 14.8193 45.1497 14.8589C45.1734 14.8668 45.2051 14.8589 45.2289 14.851C45.7755 14.4863 46.14 14.8906 46.5282 15.1681C47.2808 15.6994 48.0334 16.2306 48.7781 16.7698C48.8732 16.8411 49.0554 16.8729 48.992 17.0473C48.9445 17.19 48.8019 17.1662 48.691 17.1742C47.3046 17.2772 45.9181 17.3803 44.5238 17.4913Z" fill="#221F51"/>
<path d="M41.8933 13.82C41.8933 13.6535 42.2181 13.3919 42.3924 13.4315C42.7014 13.5029 43.0024 13.6456 43.3035 13.6535C43.969 13.6694 44.1987 14.1293 44.4443 14.6129C44.4919 14.7081 44.4364 14.7636 44.4047 14.827C44.1116 15.4455 43.8184 16.056 43.5174 16.6744C43.4619 16.7934 43.3827 16.8489 43.2401 16.8409C43.0975 16.8251 43.0341 16.7696 42.9787 16.6427C42.6301 15.723 42.2736 14.8032 41.9171 13.8835C41.9171 13.8676 41.9012 13.8438 41.8933 13.82Z" fill="#221F51"/>
<path d="M43.4304 28.4568C42.6144 28.7422 41.9014 29.0356 41.2517 29.4558C41.0695 29.5748 41.0141 29.4875 40.9349 29.3369C40.6655 28.7819 40.3961 28.2268 40.1189 27.6798C40.0713 27.5767 40.0238 27.4974 40.1189 27.3943C40.2139 27.2912 40.309 27.2912 40.4357 27.3388C41.4102 27.6956 42.3767 28.0603 43.4304 28.4568Z" fill="#221F51"/>
<path d="M39.6833 30.4866C39.2 30.4866 39.0099 30.2566 39.0812 29.8919C39.2 29.2338 39.3109 28.5757 39.4297 27.9097C39.4456 27.8225 39.4218 27.7115 39.5486 27.6956C39.6674 27.6797 39.6991 27.7749 39.7387 27.8542C40.0239 28.4171 40.3091 28.9801 40.5943 29.543C40.6339 29.6144 40.729 29.7175 40.6339 29.7888C40.3091 30.0663 39.9843 30.3518 39.6833 30.4866Z" fill="#221F51"/>
<path d="M38.6373 29.9394C38.0985 29.5192 37.5202 29.2575 36.926 28.9404C37.5281 28.4726 38.0906 28.0365 38.661 27.5925C38.7561 27.5211 38.8353 27.4894 38.9462 27.5687C39.0571 27.648 39.0492 27.7431 39.0255 27.8462C38.8987 28.5281 38.7719 29.1941 38.6373 29.9394Z" fill="#221F51"/>
<path d="M25.1138 23.5092C25.098 23.5251 25.0742 23.5647 25.0663 23.5568C25.0267 23.533 25.0346 23.4934 25.0584 23.4617C25.0742 23.4775 25.098 23.4855 25.1138 23.5092Z" fill="#221F51"/>
<path d="M32.2676 18.8707C32.2439 18.8786 32.1963 18.9024 32.1884 18.8945C32.1567 18.8628 32.1884 18.839 32.2201 18.8311C32.2439 18.8469 32.2597 18.8548 32.2676 18.8707Z" fill="#221F51"/>
<path d="M27.9896 18.5933C28.624 18.5933 29.1383 18.0786 29.1383 17.4436C29.1383 16.8087 28.624 16.2939 27.9896 16.2939C27.3551 16.2939 26.8408 16.8087 26.8408 17.4436C26.8408 18.0786 27.3551 18.5933 27.9896 18.5933Z" fill="white"/>
<path d="M39.5484 28.0999C40.2703 28.0999 40.8556 27.5142 40.8556 26.7917C40.8556 26.0691 40.2703 25.4834 39.5484 25.4834C38.8265 25.4834 38.2412 26.0691 38.2412 26.7917C38.2412 27.5142 38.8265 28.0999 39.5484 28.0999Z" fill="white"/>
<path d="M54.7357 26.5142C55.4576 26.5142 56.0428 25.9285 56.0428 25.206C56.0428 24.4834 55.4576 23.8977 54.7357 23.8977C54.0137 23.8977 53.4285 24.4834 53.4285 25.206C53.4285 25.9285 54.0137 26.5142 54.7357 26.5142Z" fill="white"/>
<path d="M28.0689 18.6724C28.7909 18.6724 29.3761 18.0867 29.3761 17.3642C29.3761 16.6416 28.7909 16.0559 28.0689 16.0559C27.347 16.0559 26.7617 16.6416 26.7617 17.3642C26.7617 18.0867 27.347 18.6724 28.0689 18.6724Z" fill="white"/>
<path d="M31.4754 20.972C32.1973 20.972 32.7826 20.3863 32.7826 19.6637C32.7826 18.9412 32.1973 18.3555 31.4754 18.3555C30.7535 18.3555 30.1682 18.9412 30.1682 19.6637C30.1682 20.3863 30.7535 20.972 31.4754 20.972Z" fill="white"/>
<path d="M49.9109 24.6112C50.6329 24.6112 51.2181 24.0254 51.2181 23.3029C51.2181 22.5804 50.6329 21.9946 49.9109 21.9946C49.189 21.9946 48.6038 22.5804 48.6038 23.3029C48.6038 24.0254 49.189 24.6112 49.9109 24.6112Z" fill="white"/>
<path d="M49.9109 18.5931C50.6329 18.5931 51.2181 18.0074 51.2181 17.2848C51.2181 16.5623 50.6329 15.9766 49.9109 15.9766C49.189 15.9766 48.6038 16.5623 48.6038 17.2848C48.6038 18.0074 49.189 18.5931 49.9109 18.5931Z" fill="white"/>
<path d="M43.1849 19.1483C43.9068 19.1483 44.4921 18.5625 44.4921 17.84C44.4921 17.1175 43.9068 16.5317 43.1849 16.5317C42.4629 16.5317 41.8777 17.1175 41.8777 17.84C41.8777 18.5625 42.4629 19.1483 43.1849 19.1483Z" fill="white"/>
<path d="M24.3533 25.5628C25.0753 25.5628 25.6605 24.9771 25.6605 24.2546C25.6605 23.532 25.0753 22.9463 24.3533 22.9463C23.6314 22.9463 23.0461 23.532 23.0461 24.2546C23.0461 24.9771 23.6314 25.5628 24.3533 25.5628Z" fill="white"/>
<path d="M45.0862 15.2711C45.8082 15.2711 46.3934 14.6853 46.3934 13.9628C46.3934 13.2403 45.8082 12.6545 45.0862 12.6545C44.3643 12.6545 43.7791 13.2403 43.7791 13.9628C43.7791 14.6853 44.3643 15.2711 45.0862 15.2711Z" fill="white"/>
<path d="M41.3626 14.3197C42.0846 14.3197 42.6698 13.7339 42.6698 13.0114C42.6698 12.2889 42.0846 11.7031 41.3626 11.7031C40.6407 11.7031 40.0554 12.2889 40.0554 13.0114C40.0554 13.7339 40.6407 14.3197 41.3626 14.3197Z" fill="white"/>
<path d="M34.9534 14.7161C35.6754 14.7161 36.2606 14.1304 36.2606 13.4079C36.2606 12.6853 35.6754 12.0996 34.9534 12.0996C34.2315 12.0996 33.6462 12.6853 33.6462 13.4079C33.6462 14.1304 34.2315 14.7161 34.9534 14.7161Z" fill="white"/>
<path d="M39.3503 69.1717C35.3257 69.1717 31.42 68.3868 27.744 66.8327C24.1948 65.3341 21.0021 63.1933 18.2689 60.4579C15.5278 57.7224 13.3808 54.5429 11.8755 51.0066C10.3228 47.3356 9.53052 43.4425 9.53052 39.4305C9.53052 35.4184 10.3228 31.5174 11.8755 27.8543C13.3808 24.3101 15.5278 21.1306 18.2689 18.4031C21.01 15.6676 24.1948 13.5268 27.744 12.0282C31.42 10.4742 35.3257 9.68921 39.3503 9.68921C43.3749 9.68921 47.2806 10.4742 50.9566 12.0282C54.5058 13.5268 57.6985 15.6676 60.4317 18.4031C63.1728 21.1385 65.3198 24.318 66.8251 27.8543C68.3778 31.5254 69.1701 35.4184 69.1701 39.4305C69.1701 43.4425 68.3778 47.3435 66.8251 51.0066C65.3198 54.5508 63.1728 57.7303 60.4317 60.4579C57.6906 63.1933 54.5058 65.3341 50.9566 66.8327C47.2806 68.3788 43.3749 69.1717 39.3503 69.1717ZM39.3503 10.0698C23.1253 10.0698 9.92664 23.2397 9.92664 39.4225C9.92664 55.6054 23.1253 68.7753 39.3503 68.7753C55.5753 68.7753 68.774 55.6054 68.774 39.4225C68.766 23.2397 55.5674 10.0698 39.3503 10.0698Z" fill="white"/>
<path d="M39.39 78.94C34.0741 78.94 28.9166 77.8934 24.0602 75.8398C19.3702 73.8497 15.1555 71.0032 11.5429 67.3797C7.92237 63.7562 5.08616 59.5301 3.09765 54.8362C1.04576 49.9678 0 44.7982 0 39.47C0 34.1418 1.03783 28.9722 3.09765 24.1038C5.07824 19.402 7.92237 15.1838 11.5429 11.5603C15.1634 7.93681 19.3702 5.09035 24.0602 3.1002C28.9166 1.03869 34.0741 0 39.39 0C44.7059 0 49.8634 1.04662 54.7198 3.1002C59.4098 5.09035 63.6245 7.93681 67.2371 11.5603C70.8576 15.1838 73.6938 19.4099 75.6824 24.1038C77.7342 28.9722 78.78 34.1418 78.78 39.47C78.78 44.7982 77.7422 49.9678 75.6824 54.8362C73.7018 59.538 70.8576 63.7562 67.2371 67.3797C63.6166 71.0032 59.4098 73.8497 54.7198 75.8398C49.8634 77.8934 44.7059 78.94 39.39 78.94ZM39.39 0.515378C17.96 0.515378 0.522877 17.9906 0.522877 39.4621C0.522877 60.9414 17.96 78.4088 39.39 78.4088C60.82 78.4088 78.2571 60.9335 78.2571 39.4621C78.2571 17.9827 60.82 0.515378 39.39 0.515378Z" fill="white"/>
</svg>
