<svg width="25" height="25" viewBox="0 0 25 25" fill="none" xmlns="http://www.w3.org/2000/svg">
<path d="M12.2956 0C9.03661 0.00660655 5.91295 1.32569 3.60848 3.66846C1.30401 6.01124 0.00649853 9.18682 0 12.5V23.0375C0 23.558 0.203382 24.0572 0.565404 24.4252C0.927426 24.7932 1.41843 25 1.93041 25H12.2956C15.5566 25 18.684 23.683 20.9899 21.3388C23.2958 18.9946 24.5912 15.8152 24.5912 12.5C24.5912 9.18479 23.2958 6.00537 20.9899 3.66117C18.684 1.31696 15.5566 0 12.2956 0ZM15.7384 16H8.36101C8.10013 16 7.84994 15.8946 7.66547 15.7071C7.481 15.5196 7.37736 15.2652 7.37736 15C7.37736 14.7348 7.481 14.4804 7.66547 14.2929C7.84994 14.1054 8.10013 14 8.36101 14H15.7384C15.9993 14 16.2495 14.1054 16.4339 14.2929C16.6184 14.4804 16.722 14.7348 16.722 15C16.722 15.2652 16.6184 15.5196 16.4339 15.7071C16.2495 15.8946 15.9993 16 15.7384 16ZM15.7384 12H8.36101C8.10013 12 7.84994 11.8946 7.66547 11.7071C7.481 11.5196 7.37736 11.2652 7.37736 11C7.37736 10.7348 7.481 10.4804 7.66547 10.2929C7.84994 10.1054 8.10013 10 8.36101 10H15.7384C15.9993 10 16.2495 10.1054 16.4339 10.2929C16.6184 10.4804 16.722 10.7348 16.722 11C16.722 11.2652 16.6184 11.5196 16.4339 11.7071C16.2495 11.8946 15.9993 12 15.7384 12Z" fill="white"/>
</svg>
