<svg width="17" height="17" viewBox="0 0 17 17" fill="none" xmlns="http://www.w3.org/2000/svg">
<path d="M16.643 14.9269C16.7561 15.0397 16.8459 15.1737 16.9072 15.3213C16.9685 15.4689 17 15.6271 17 15.787C17 15.9468 16.9685 16.105 16.9072 16.2526C16.8459 16.4002 16.7561 16.5342 16.643 16.647C16.4139 16.8732 16.105 17 15.7832 17C15.4613 17 15.1524 16.8732 14.9233 16.647L8.5 10.2218L2.07666 16.647C1.84759 16.8732 1.53869 17 1.21684 17C0.894988 17 0.586087 16.8732 0.357023 16.647C0.243859 16.5342 0.154069 16.4002 0.0928035 16.2526C0.0315375 16.105 0 15.9468 0 15.787C0 15.6271 0.0315375 15.4689 0.0928035 15.3213C0.154069 15.1737 0.243859 15.0397 0.357023 14.9269L6.78036 8.50164L0.357023 2.0764C0.128985 1.84829 0.00087478 1.53892 0.00087478 1.21633C0.00087478 1.0566 0.0323268 0.89843 0.0934348 0.750858C0.154543 0.603287 0.24411 0.4692 0.357023 0.356254C0.469936 0.243307 0.603983 0.153713 0.751511 0.0925874C0.899038 0.0314613 1.05716 0 1.21684 0C1.53933 0 1.84862 0.128148 2.07666 0.356254L8.5 6.7815L14.9233 0.356254C15.1514 0.128148 15.4607 0 15.7832 0C16.1057 0 16.4149 0.128148 16.643 0.356254C16.871 0.584359 16.9991 0.893736 16.9991 1.21633C16.9991 1.53892 16.871 1.84829 16.643 2.0764L10.2196 8.50164L16.643 14.9269Z" fill="white"/>
</svg>
