<svg width="34" height="34" viewBox="0 0 28 28" fill="none" xmlns="http://www.w3.org/2000/svg">
<g filter="url(#filter0_d_190_195)">
<path d="M17.8216 11.78C17.8216 12.7563 17.4338 13.6927 16.7434 14.3831C16.053 15.0734 15.1167 15.4613 14.1404 15.4613C13.164 15.4613 12.2277 15.0734 11.5373 14.3831C10.847 13.6927 10.4591 12.7563 10.4591 11.78C10.4591 11.5702 10.4812 11.3653 10.5192 11.1665H9.23203V16.0711C9.23203 16.4123 9.50812 16.6884 9.84925 16.6884H18.4327C18.5962 16.688 18.7529 16.6229 18.8684 16.5071C18.9838 16.3914 19.0487 16.2346 19.0487 16.0711V11.1665H17.7615C17.7995 11.3653 17.8216 11.5702 17.8216 11.78V11.78ZM14.1404 14.2342C14.4627 14.2341 14.7819 14.1705 15.0797 14.0471C15.3775 13.9237 15.6481 13.7428 15.876 13.5148C16.1039 13.2868 16.2846 13.0161 16.4079 12.7182C16.5312 12.4204 16.5946 12.1012 16.5945 11.7788C16.5945 11.4564 16.5309 11.1372 16.4074 10.8394C16.284 10.5416 16.1031 10.2711 15.8751 10.0432C15.6471 9.81529 15.3765 9.63453 15.0786 9.51124C14.7807 9.38795 14.4615 9.32454 14.1391 9.32462C13.4881 9.32478 12.8638 9.58357 12.4035 10.044C11.9433 10.5045 11.6848 11.129 11.685 11.78C11.6851 12.4311 11.9439 13.0554 12.4044 13.5156C12.8649 13.9759 13.4893 14.2344 14.1404 14.2342V14.2342ZM17.0854 9.20314H18.5566C18.6544 9.20314 18.7482 9.16439 18.8174 9.09539C18.8866 9.02639 18.9257 8.93276 18.926 8.83501V7.36374C18.926 7.26578 18.8871 7.17183 18.8178 7.10257C18.7486 7.0333 18.6546 6.99438 18.5566 6.99438H17.0854C16.9874 6.99438 16.8935 7.0333 16.8242 7.10257C16.7549 7.17183 16.716 7.26578 16.716 7.36374V8.83501C16.7172 9.03748 16.8829 9.20314 17.0854 9.20314V9.20314ZM14.1404 0C11.0161 0 8.01982 1.24111 5.81064 3.45029C3.60146 5.65947 2.36035 8.65576 2.36035 11.78C2.36035 14.9043 3.60146 17.9006 5.81064 20.1097C8.01982 22.3189 11.0161 23.56 14.1404 23.56C15.6873 23.56 17.2192 23.2553 18.6484 22.6633C20.0776 22.0713 21.3762 21.2036 22.4701 20.1097C23.564 19.0159 24.4317 17.7173 25.0237 16.288C25.6157 14.8588 25.9204 13.327 25.9204 11.78C25.9204 10.233 25.6157 8.70122 25.0237 7.272C24.4317 5.84278 23.564 4.54416 22.4701 3.45029C21.3762 2.35641 20.0776 1.4887 18.6484 0.8967C17.2192 0.304699 15.6873 0 14.1404 0V0ZM20.2758 16.5522C20.2758 17.3019 19.6623 17.9154 18.9125 17.9154H9.36823C8.61849 17.9154 8.00494 17.3019 8.00494 16.5522V7.00788C8.00494 6.25813 8.61849 5.64459 9.36823 5.64459H18.9125C19.6623 5.64459 20.2758 6.25813 20.2758 7.00788V16.5522V16.5522Z" fill="white"/>
</g>
<defs>
<filter id="filter0_d_190_195" x="0.360352" y="0" width="27.5601" height="27.5596" filterUnits="userSpaceOnUse" color-interpolation-filters="sRGB">
<feFlood flood-opacity="0" result="BackgroundImageFix"/>
<feColorMatrix in="SourceAlpha" type="matrix" values="0 0 0 0 0 0 0 0 0 0 0 0 0 0 0 0 0 0 127 0" result="hardAlpha"/>
<feOffset dy="2"/>
<feGaussianBlur stdDeviation="1"/>
<feComposite in2="hardAlpha" operator="out"/>
<feColorMatrix type="matrix" values="0 0 0 0 0 0 0 0 0 0 0 0 0 0 0 0 0 0 0.54 0"/>
<feBlend mode="normal" in2="BackgroundImageFix" result="effect1_dropShadow_190_195"/>
<feBlend mode="normal" in="SourceGraphic" in2="effect1_dropShadow_190_195" result="shape"/>
</filter>
</defs>
</svg>
