<svg width="28" height="28" viewBox="0 0 28 28" fill="none" xmlns="http://www.w3.org/2000/svg">
<path d="M14 0C10.2878 0 6.72437 1.47591 4.10156 4.10047C1.47604 6.72607 0.000727278 10.2869 0 14C0 17.7115 1.47656 21.275 4.10156 23.8995C6.72437 26.5241 10.2878 28 14 28C17.7122 28 21.2756 26.5241 23.8984 23.8995C26.5234 21.275 28 17.7115 28 14C28 10.2885 26.5234 6.72503 23.8984 4.10047C21.2756 1.47591 17.7122 0 14 0Z" fill="white"/>
<path fill-rule="evenodd" clip-rule="evenodd" d="M13.4335 21.2621L13.6667 20.9444L13.4335 21.2621ZM13.8998 21.2621L13.9014 21.2614L13.9055 21.2586L13.9176 21.2497L13.9654 21.2166C14.0059 21.1879 14.065 21.1459 14.1394 21.0906C14.2884 20.981 14.4997 20.8196 14.7518 20.6123C15.4138 20.0687 16.0328 19.4785 16.6036 18.8467C17.9426 17.3588 19.3333 15.235 19.3333 12.8071C19.3333 11.3565 18.7367 9.96428 17.6746 8.9376C17.1497 8.42946 16.5253 8.02609 15.8374 7.75071C15.1496 7.47533 14.4118 7.33337 13.6667 7.33301C12.9215 7.33332 12.1838 7.47522 11.4959 7.75053C10.8081 8.02585 10.1837 8.42914 9.65871 8.93721C8.59558 9.96624 7.99929 11.3576 8 12.8075C8 15.235 9.39076 17.3588 10.7297 18.8467C11.3006 19.4785 11.9195 20.0687 12.5815 20.6123C12.8341 20.8196 13.045 20.981 13.1939 21.0906C13.267 21.1447 13.3408 21.1979 13.4153 21.2501L13.4283 21.2586L13.4319 21.2614L13.4335 21.2621C13.5732 21.3566 13.7602 21.3566 13.8998 21.2621V21.2621ZM13.6667 20.9444L13.8998 21.2621L13.6667 20.9444ZM15.6905 12.7776C15.6905 13.2933 15.4773 13.7879 15.0977 14.1525C14.7182 14.5172 14.2034 14.7221 13.6667 14.7221C13.1299 14.7221 12.6152 14.5172 12.2356 14.1525C11.8561 13.7879 11.6429 13.2933 11.6429 12.7776C11.6429 12.2619 11.8561 11.7673 12.2356 11.4026C12.6152 11.0379 13.1299 10.8331 13.6667 10.8331C14.2034 10.8331 14.7182 11.0379 15.0977 11.4026C15.4773 11.7673 15.6905 12.2619 15.6905 12.7776V12.7776Z" fill="#221F51"/>
</svg>
