<svg width="34" height="34" viewBox="0 0 29 28" fill="none" xmlns="http://www.w3.org/2000/svg">
<g filter="url(#filter0_d_190_210)">
<path d="M14.4602 0C11.3366 0 8.33827 1.24187 6.13135 3.45026C3.92216 5.65952 2.68079 8.6557 2.68018 11.78C2.68018 14.903 3.9226 17.9014 6.13135 20.1098C8.33827 22.3182 11.3366 23.56 14.4602 23.56C17.5837 23.56 20.5821 22.3182 22.789 20.1098C24.9978 17.9014 26.2402 14.903 26.2402 11.78C26.2402 8.65702 24.9978 5.65864 22.789 3.45026C20.5821 1.24187 17.5837 0 14.4602 0Z" fill="white"/>
</g>
<path fill-rule="evenodd" clip-rule="evenodd" d="M13.9836 17.8903L14.1797 17.623L13.9836 17.8903ZM14.3759 17.8903L14.3773 17.8896L14.3807 17.8874L14.3909 17.8798L14.4311 17.852C14.4651 17.8278 14.5149 17.7925 14.5775 17.746C14.7029 17.6537 14.8806 17.5179 15.0928 17.3435C15.6498 16.8861 16.1706 16.3895 16.651 15.8579C17.7776 14.6059 18.9478 12.8189 18.9478 10.776C18.9478 9.55544 18.4458 8.38396 17.5521 7.52007C17.1104 7.09251 16.585 6.75311 16.0063 6.52139C15.4275 6.28968 14.8067 6.17023 14.1797 6.16992C13.5527 6.17019 12.932 6.28958 12.3532 6.52124C11.7744 6.7529 11.2491 7.09224 10.8073 7.51974C9.91276 8.3856 9.41102 9.55631 9.41162 10.7763C9.41162 12.8189 10.5818 14.6059 11.7085 15.8579C12.1888 16.3895 12.7096 16.8861 13.2666 17.3435C13.4792 17.5179 13.6566 17.6537 13.7819 17.746C13.8434 17.7915 13.9055 17.8362 13.9682 17.8802L13.9791 17.8874L13.9822 17.8896L13.9836 17.8903C14.1011 17.9698 14.2584 17.9698 14.3759 17.8903V17.8903ZM14.1797 17.623L14.3759 17.8903L14.1797 17.623ZM15.8826 10.7511C15.8826 11.1851 15.7032 11.6012 15.3839 11.9081C15.0645 12.2149 14.6314 12.3873 14.1797 12.3873C13.7281 12.3873 13.295 12.2149 12.9756 11.9081C12.6562 11.6012 12.4768 11.1851 12.4768 10.7511C12.4768 10.3172 12.6562 9.90104 12.9756 9.5942C13.295 9.28737 13.7281 9.11499 14.1797 9.11499C14.6314 9.11499 15.0645 9.28737 15.3839 9.5942C15.7032 9.90104 15.8826 10.3172 15.8826 10.7511V10.7511Z" fill="#221F51"/>
<defs>
<filter id="filter0_d_190_210" x="0.680176" y="0" width="27.5601" height="27.5596" filterUnits="userSpaceOnUse" color-interpolation-filters="sRGB">
<feFlood flood-opacity="0" result="BackgroundImageFix"/>
<feColorMatrix in="SourceAlpha" type="matrix" values="0 0 0 0 0 0 0 0 0 0 0 0 0 0 0 0 0 0 127 0" result="hardAlpha"/>
<feOffset dy="2"/>
<feGaussianBlur stdDeviation="1"/>
<feComposite in2="hardAlpha" operator="out"/>
<feColorMatrix type="matrix" values="0 0 0 0 0 0 0 0 0 0 0 0 0 0 0 0 0 0 0.54 0"/>
<feBlend mode="normal" in2="BackgroundImageFix" result="effect1_dropShadow_190_210"/>
<feBlend mode="normal" in="SourceGraphic" in2="effect1_dropShadow_190_210" result="shape"/>
</filter>
</defs>
</svg>
