<svg width="48" height="48" viewBox="0 0 48 48" fill="none" xmlns="http://www.w3.org/2000/svg">
<path d="M23.7162 47.3773C36.7167 47.3773 47.2557 36.8163 47.2557 23.7887C47.2557 10.7611 36.7167 0.200195 23.7162 0.200195C10.7157 0.200195 0.176758 10.7611 0.176758 23.7887C0.176758 36.8163 10.7157 47.3773 23.7162 47.3773Z" fill="#221F51"/>
<path d="M23.7064 46.9727C10.8766 46.9679 0.486816 36.5727 0.486816 23.7423C0.486816 10.9166 10.891 0.511828 23.7207 0.516603C36.5552 0.521378 46.9498 10.9357 46.9402 23.7757C46.9307 36.5918 36.5265 46.9775 23.7064 46.9727ZM9.33918 35.9042C9.23414 36.2337 9.12909 36.5536 9.02405 36.8783C8.919 37.2078 8.80441 37.5373 8.70414 37.8715C8.66594 38.0052 8.58477 37.9957 8.48928 37.9861C8.16459 37.9479 7.83991 37.9097 7.51523 37.8763C7.00434 37.819 6.49821 37.7665 5.98732 37.7092C5.97777 37.733 5.96822 37.7617 5.95867 37.7856C10.8098 43.5538 16.9644 46.5716 24.5515 46.309C31.6563 46.0607 37.343 42.9139 41.731 37.3654C40.8429 37.4322 39.9644 37.5182 39.0954 37.6328C38.89 37.6614 38.8327 37.5707 38.785 37.4131C38.6083 36.8497 38.4269 36.2862 38.2407 35.7132C34.4304 40.1014 29.6652 42.4937 23.8401 42.5367C18.0197 42.5749 13.2163 40.2542 9.33918 35.9042ZM5.55281 23.7232C5.50507 33.6838 13.6126 41.8777 23.6347 41.9207C33.676 41.9637 41.8838 33.8509 41.8933 23.7709C41.9077 13.7195 33.7715 5.57812 23.7255 5.57334C13.6412 5.56379 5.52416 13.7768 5.55281 23.7232ZM11.1679 8.9063C11.1822 9.06387 11.144 9.22145 11.3159 9.29307C11.483 9.3647 11.6024 9.2692 11.7218 9.16892C11.822 9.08297 11.9271 8.99702 12.0321 8.91107C12.1229 8.83945 12.0799 8.78215 12.0321 8.71052C11.9701 8.6198 11.9175 8.66277 11.8602 8.71052C11.7743 8.78215 11.6931 8.85855 11.6024 8.92062C11.4735 9.0018 11.4114 8.95405 11.4114 8.80602C11.4114 8.72962 11.4401 8.67232 11.483 8.61025C11.7313 8.25212 11.7695 7.87012 11.6167 7.45947C11.4305 6.94854 10.8671 6.61907 10.318 6.71934C9.81188 6.81007 9.45378 7.27324 9.449 7.81759C9.45855 8.49565 10.1366 9.33127 11.1679 8.9063ZM29.4599 3.25269C29.4934 3.34819 29.522 3.40548 29.5316 3.46278C29.6461 4.01191 29.7798 4.56104 29.8562 5.11494C29.8992 5.41577 30.052 5.53037 30.3146 5.58289C30.4196 5.60677 30.4579 5.57812 30.4865 5.48739C30.6918 4.86664 30.8971 4.24589 31.1024 3.62514C31.1406 3.51054 31.1406 3.41981 30.9831 3.38161C30.8351 3.34341 30.7825 3.37206 30.7634 3.52486C30.7539 3.61558 30.7061 3.70154 30.6775 3.79226C30.5295 4.24589 30.3815 4.69474 30.2334 5.15314C30.157 5.10539 30.1666 5.04809 30.157 4.99557C30.0377 4.42256 29.8992 3.84956 29.8037 3.27178C29.7607 3.01871 29.6366 2.92799 29.4217 2.87069C29.2976 2.83726 29.2307 2.82771 29.183 2.98528C28.9968 3.60604 28.7915 4.22201 28.5814 4.83321C28.5336 4.97646 28.5623 5.01944 28.696 5.06241C28.8344 5.10539 28.8726 5.06241 28.9108 4.93826C29.0875 4.37959 29.2689 3.83524 29.4599 3.25269ZM1.93356 21.9946C1.87626 22.2143 1.94789 22.3002 2.18662 22.3193C2.77869 22.3671 3.37553 22.4387 3.96283 22.5151C4.10607 22.5342 4.17291 22.5294 4.20156 22.3575C4.23021 22.1617 4.12517 22.1713 4.00102 22.1617C3.81958 22.1474 3.63814 22.1235 3.4567 22.0996C3.40896 22.0949 3.35644 22.0901 3.32301 22.0614C3.25139 21.9994 3.38508 21.4884 3.48058 21.4502C3.72886 21.35 3.98192 21.2497 4.23499 21.1542C4.41643 21.0873 4.383 20.9202 4.35435 20.8104C4.31138 20.6576 4.19679 20.7961 4.12994 20.8152C3.93418 20.882 3.73841 20.9536 3.55697 21.0444C3.41373 21.116 3.36121 21.0682 3.31346 20.9393C3.20842 20.6719 3.0031 20.543 2.72617 20.5382C2.44446 20.5334 2.24392 20.6719 2.12933 20.9298C1.96699 21.2736 1.99086 21.646 1.93356 21.9946ZM17.3464 4.35094C17.6854 4.01191 17.7427 3.74928 17.547 3.42936C17.3798 3.15241 17.0361 3.06646 16.6302 3.19539C16.358 3.28134 16.0907 3.37684 15.8185 3.47234C15.7564 3.49621 15.68 3.50576 15.7182 3.61559C15.9426 4.25544 16.1671 4.89529 16.3771 5.53514C16.4249 5.68317 16.5061 5.62587 16.5968 5.60677C16.7066 5.57812 16.7305 5.51604 16.6923 5.41577C16.6207 5.21522 16.5538 5.01466 16.487 4.81411C16.4726 4.77114 16.4249 4.71384 16.4774 4.68996C16.635 4.61834 16.8021 4.56104 16.9692 4.51329C17.0695 4.48464 17.1172 4.59446 17.1745 4.64699C17.3464 4.79979 17.5088 4.96214 17.6711 5.12449C17.8048 5.25819 17.948 5.17224 18.034 5.09584C18.1295 5.00989 17.9767 4.95736 17.9289 4.90961C17.7475 4.71384 17.5422 4.53239 17.3464 4.35094ZM20.4404 4.59446C21.0612 4.60401 21.5434 4.12174 21.5577 3.47711C21.5721 2.81338 21.0898 2.27381 20.4739 2.26426C19.8579 2.25471 19.3661 2.68923 19.3423 3.39116C19.3184 4.04056 19.8388 4.58491 20.4404 4.59446ZM38.0258 8.08977C38.0736 8.13752 38.1165 8.17095 38.1547 8.20915C38.3744 8.42402 38.594 8.64367 38.8136 8.86332C38.9091 8.95882 38.9855 8.93017 39.0763 8.83945C39.1765 8.73917 39.1049 8.69142 39.0381 8.62935C38.7277 8.3333 38.4221 8.03724 38.1165 7.73642C38.0258 7.64569 37.9494 7.63137 37.8587 7.72687C37.4003 8.20914 36.9372 8.69142 36.474 9.16892C36.3928 9.2501 36.4167 9.2883 36.4883 9.35515C36.8178 9.66552 37.1425 9.98067 37.4624 10.3006C37.5674 10.4009 37.6295 10.3674 37.7154 10.2815C37.8157 10.186 37.7536 10.1383 37.6868 10.0714C37.5388 9.92815 37.3908 9.78012 37.2428 9.63687C36.856 9.26442 36.8608 9.26442 37.2475 8.87765C37.343 8.78692 37.3908 8.7917 37.4767 8.88242C37.6725 9.08297 37.8778 9.26442 38.0736 9.4602C38.1786 9.56525 38.2311 9.49362 38.3075 9.42677C38.3935 9.35037 38.3648 9.30262 38.298 9.23577C38.15 9.10207 38.0115 8.95882 37.8682 8.82512C37.5627 8.53384 37.5627 8.53862 37.8682 8.23302C37.916 8.18527 37.9685 8.1423 38.0258 8.08977ZM42.8483 23.1406C42.8531 23.1406 42.8531 23.1406 42.8578 23.1406C42.8578 23.3698 42.8626 23.6038 42.8578 23.833C42.8531 23.9476 42.896 23.9858 43.0106 23.9858C43.1205 23.981 43.1968 23.9667 43.1825 23.8282C43.1634 23.6229 43.1491 23.4176 43.1491 23.2075C43.1491 22.5389 42.9915 22.7109 43.6791 22.6536C43.8271 22.6392 43.851 22.7061 43.851 22.8302C43.8558 23.0833 43.8701 23.3364 43.8844 23.5942C43.8892 23.6897 43.8605 23.7996 44.0324 23.7948C44.2186 23.79 44.1852 23.6754 44.1804 23.5704C44.1757 23.4176 44.1757 23.2695 44.1613 23.1167C44.1279 22.6297 44.1279 22.6345 44.6293 22.6297C44.7677 22.6297 44.8059 22.6727 44.8059 22.8016C44.8059 23.112 44.825 23.4223 44.825 23.7327C44.825 23.8712 44.8728 23.9046 45.0065 23.9046C45.1545 23.9046 45.1497 23.8234 45.1449 23.7232C45.1258 23.2934 45.1067 22.8637 45.0972 22.4387C45.0924 22.3002 45.0542 22.262 44.9158 22.2716C44.2712 22.2954 43.6266 22.3193 42.9868 22.3289C42.834 22.3336 42.7958 22.3957 42.8101 22.5342C42.8244 22.73 42.834 22.9353 42.8483 23.1406ZM2.79301 29.4484C3.40896 29.3051 4.08697 29.1428 4.76976 28.9804C4.83183 28.9661 4.84138 28.9231 4.82705 28.8754C4.71724 28.4074 4.60742 27.9395 4.49282 27.4715C4.46417 27.3569 4.383 27.3904 4.30183 27.3999C4.20156 27.4142 4.16814 27.4477 4.19679 27.5575C4.25409 27.7724 4.30661 27.9872 4.35435 28.2021C4.46417 28.7035 4.4594 28.6939 3.9676 28.8229C3.78616 28.8706 3.73364 28.8133 3.70499 28.6462C3.65724 28.3836 3.58562 28.1257 3.52355 27.8631C3.49013 27.7294 3.39463 27.7819 3.31346 27.7915C3.20842 27.8058 3.22274 27.8535 3.24661 27.9395C3.29914 28.1353 3.34211 28.3406 3.37076 28.5411C3.38986 28.6701 3.52355 28.8229 3.44238 28.9088C3.35644 28.9948 3.17499 28.9804 3.0413 29.033C2.85986 29.1046 2.80734 29.0186 2.77869 28.8611C2.71662 28.5602 2.64022 28.2594 2.57815 27.9586C2.5495 27.8297 2.47788 27.8488 2.38239 27.8679C2.29167 27.887 2.24392 27.9013 2.27257 28.0207C2.38239 28.4552 2.48266 28.8993 2.5877 29.3386C2.61158 29.4197 2.63067 29.4818 2.79301 29.4484ZM40.0742 12.0053C40.5039 12.2202 40.7665 12.1963 41.0005 11.9289C41.2153 11.6854 41.1915 11.3272 40.9384 10.9691C40.7808 10.7495 40.6137 10.5394 40.4609 10.3197C40.3941 10.2242 40.3463 10.2194 40.2556 10.2863C39.7352 10.6778 39.2099 11.0646 38.6847 11.4418C38.5749 11.523 38.5988 11.566 38.6609 11.6663C38.7372 11.7904 38.8041 11.7522 38.8853 11.6901C39.081 11.5421 39.2768 11.3941 39.4869 11.2413C39.5585 11.332 39.6158 11.4227 39.6922 11.5039C39.845 11.6567 39.8784 11.8095 39.7543 12.0005C39.6588 12.1438 39.6063 12.3157 39.5108 12.4637C39.3818 12.6595 39.4439 12.7932 39.6206 12.9269C39.802 12.6356 39.9262 12.3157 40.0742 12.0053ZM26.1845 4.55149C26.6381 4.55149 26.9914 4.25066 27.0582 3.80181C27.1155 3.39594 27.1633 2.98528 27.2301 2.57941C27.2588 2.41706 27.2206 2.35976 27.0582 2.33588C26.8816 2.31201 26.8816 2.41228 26.8672 2.53166C26.8147 2.92321 26.767 3.31954 26.7049 3.71109C26.6476 4.07876 26.4232 4.26021 26.089 4.23156C25.7309 4.19814 25.5399 3.98326 25.5733 3.60126C25.6115 3.18584 25.6688 2.76563 25.7356 2.35498C25.7595 2.22128 25.75 2.16876 25.6067 2.14966C25.473 2.13533 25.3871 2.12578 25.3728 2.30723C25.3393 2.68446 25.2868 3.06646 25.2247 3.43891C25.1245 4.09309 25.516 4.55626 26.1845 4.55149ZM5.252 12.1963C5.14219 12.2202 5.10876 12.3682 5.02282 12.4685C4.9321 12.5735 4.98939 12.6308 5.04669 12.7072C5.46209 13.2372 5.87272 13.772 6.2929 14.3021C6.34542 14.3689 6.38839 14.5169 6.48866 14.4262C6.56506 14.3546 6.71785 14.2304 6.54596 14.0872C6.24993 13.8484 6.27857 13.5954 6.51254 13.3327C6.53641 13.3041 6.55551 13.2659 6.57461 13.2325C6.8038 12.86 6.8038 12.86 7.24307 12.9412C7.27649 12.946 7.30514 12.9603 7.33857 12.9555C7.47703 12.9412 7.49136 12.8075 7.53911 12.7168C7.57253 12.6499 7.48181 12.6356 7.43406 12.626C6.71785 12.4876 6.01119 12.3491 5.252 12.1963ZM4.55967 16.2837C4.65994 16.2646 4.71246 16.255 4.76976 16.2455C5.05147 16.1977 5.33318 16.1548 5.61489 16.107C5.80588 16.0736 5.81542 15.8921 5.81065 15.7775C5.80588 15.6677 5.66263 15.7537 5.59101 15.7632C5.28543 15.8157 4.97984 15.873 4.67904 15.9447C4.55012 15.9733 4.4785 15.9494 4.40688 15.8348C4.22544 15.5627 4.03445 15.3048 3.83868 15.0422C3.81003 15.004 3.76706 14.8894 3.70976 14.9849C3.63814 15.1043 3.52833 15.2284 3.67157 15.3908C3.84346 15.5865 3.98193 15.811 4.14904 16.0115C4.25409 16.1404 4.22066 16.1739 4.07264 16.193C3.80526 16.2312 3.54265 16.2885 3.27526 16.3267C3.08428 16.3553 3.0413 16.5177 3.06518 16.6466C3.08905 16.7851 3.22752 16.6752 3.30391 16.6657C3.57607 16.6227 3.85301 16.5702 4.12039 16.5033C4.27318 16.4651 4.34958 16.5081 4.43075 16.6275C4.61696 16.9044 4.81273 17.1718 5.00372 17.444C5.03714 17.4918 5.10876 17.5873 5.13741 17.5204C5.18516 17.401 5.3475 17.2912 5.20426 17.1193C4.98462 16.8615 4.78886 16.5845 4.55967 16.2837ZM3.90553 25.022C3.78138 25.0745 3.72409 25.0984 3.66679 25.1222C3.1368 25.3371 2.61157 25.5615 2.0768 25.7669C1.87626 25.8433 1.94311 25.9913 1.97654 26.1011C2.01951 26.2444 2.12455 26.1298 2.1914 26.1011C2.80257 25.8528 3.40896 25.5902 4.01535 25.3419C4.14904 25.2846 4.22544 25.2273 4.19201 25.0649C4.15859 24.9169 4.23021 24.745 3.98193 24.6829C3.34211 24.5254 2.71184 24.3344 2.0768 24.1577C2.00996 24.1386 1.92401 24.0574 1.86194 24.1529C1.80942 24.2293 1.84762 24.3248 1.86194 24.4108C1.88104 24.5158 1.98608 24.5015 2.05293 24.5206C2.64977 24.6877 3.24661 24.8453 3.90553 25.022ZM40.6471 14.5933C40.671 14.9085 40.7999 15.195 41.0673 15.4146C41.2965 15.6009 41.5782 15.6152 41.8217 15.4576C42.0557 15.3096 42.1225 15.1138 42.0461 14.7987C41.9936 14.5695 41.9363 14.3355 41.8886 14.1063C41.8647 13.9917 41.8886 13.8866 41.9984 13.815C42.1082 13.7434 42.2228 13.7386 42.3326 13.8055C42.6287 13.9726 42.7433 14.4262 42.5332 14.6793C42.4138 14.8225 42.5475 14.8942 42.5905 14.9562C42.643 15.0326 42.7051 14.9228 42.748 14.8798C42.834 14.7939 42.8865 14.6888 42.9008 14.5647C42.9486 14.2018 42.8005 13.9105 42.5618 13.6622C42.3565 13.4473 42.0939 13.4044 41.8695 13.5285C41.6403 13.6527 41.5543 13.8532 41.6164 14.1588C41.6594 14.3594 41.7167 14.5599 41.774 14.7557C41.8313 14.9515 41.7979 15.1234 41.6069 15.2236C41.4063 15.3287 41.2249 15.2618 41.1007 15.0947C40.9002 14.8321 40.7856 14.5217 41.0434 14.2543C41.1533 14.1445 41.0625 14.0538 41.0005 13.9869C40.905 13.8819 40.8668 14.0203 40.8238 14.0633C40.6949 14.2018 40.6519 14.3785 40.6471 14.5933ZM34.5784 7.45947C34.5784 7.40217 34.5737 7.37829 34.5784 7.35919C34.7456 6.76232 34.8984 6.16544 35.0798 5.57811C35.1466 5.36801 34.9795 5.33937 34.884 5.29639C34.7551 5.23909 34.779 5.39667 34.7551 5.46352C34.6501 5.81209 34.5546 6.16067 34.4591 6.50924C34.3779 6.80529 34.3015 7.10612 34.2156 7.40217C34.1487 7.63614 34.3588 7.66479 34.4686 7.76984C34.5784 7.87012 34.6548 7.81759 34.7503 7.74597C35.2851 7.34487 35.8247 6.95332 36.3546 6.55222C36.4072 6.51402 36.5695 6.48537 36.4645 6.38032C36.3881 6.30392 36.2926 6.14634 36.1255 6.28482C35.9249 6.45194 35.7101 6.60474 35.5 6.76232C35.1992 6.99152 34.9031 7.21594 34.5784 7.45947ZM15.0068 6.24184C14.472 5.78344 13.9325 5.32504 13.4073 4.85709C13.2783 4.74249 13.1924 4.70429 13.0253 4.79979C12.8629 4.89051 12.8295 4.99079 12.8582 5.15791C12.9728 5.85029 13.0826 6.54267 13.2019 7.24937C13.3022 7.17774 13.4884 7.21594 13.455 7.00584C13.3786 6.52357 13.3786 6.52357 13.794 6.29914C13.8561 6.26572 13.9229 6.23707 13.9802 6.18932C14.1999 6.01264 14.3909 6.00309 14.5771 6.24184C14.7012 6.42807 14.854 6.42807 15.0068 6.24184ZM42.8435 26.1107C42.7242 26.0629 42.686 26.1393 42.6621 26.2778C42.6334 26.4354 42.7098 26.4592 42.8387 26.4736C43.3687 26.5404 43.894 26.6216 44.424 26.6837C44.572 26.7028 44.6102 26.7457 44.572 26.889C44.5386 27.0275 44.5386 27.1707 44.5147 27.314C44.5004 27.4238 44.5577 27.4477 44.6484 27.4572C44.7439 27.4668 44.8155 27.4715 44.8346 27.3426C44.9014 26.8412 44.9683 26.3351 45.0399 25.8337C45.0542 25.7239 45.0447 25.657 44.9062 25.6427C44.7677 25.6284 44.72 25.6714 44.7104 25.8051C44.7009 25.9292 44.6627 26.0581 44.6627 26.1823C44.6627 26.3494 44.5911 26.3494 44.4574 26.3303C43.9322 26.2491 43.4022 26.1823 42.8435 26.1107ZM42.4663 19.9079C42.452 20.075 42.5188 20.1276 42.6955 20.0846C43.087 19.9939 43.4881 19.9222 43.8844 19.8411C44.424 19.7312 44.424 19.7312 44.5386 20.266C44.5624 20.3663 44.5624 20.4618 44.7295 20.4284C44.8919 20.395 44.8585 20.2995 44.8394 20.204C44.7486 19.7312 44.6531 19.2585 44.5624 18.781C44.5433 18.6712 44.5051 18.6139 44.3762 18.6425C44.2521 18.6664 44.2186 18.7285 44.2521 18.8383C44.2807 18.9434 44.3046 19.0532 44.3332 19.1582C44.381 19.3349 44.3332 19.4161 44.1327 19.4495C43.6314 19.5307 43.1348 19.6405 42.6382 19.7408C42.5427 19.7599 42.4233 19.7551 42.4663 19.9079ZM7.03776 9.79922C6.93749 9.83265 6.89929 9.9186 6.84199 9.98067C6.78947 10.038 6.83244 10.0953 6.88497 10.143C7.39109 10.5871 7.89243 11.036 8.39378 11.48C8.45585 11.5326 8.50838 11.5612 8.57045 11.4848C8.85216 11.1553 9.13864 10.8258 9.42513 10.4964C9.5254 10.3818 9.4299 10.334 9.36783 10.2672C9.29143 10.1812 9.24369 10.2194 9.18639 10.291C9.00495 10.5107 8.80441 10.716 8.62775 10.9405C8.52748 11.0646 8.4654 11.0646 8.35081 10.9596C7.96883 10.6062 7.57253 10.2624 7.181 9.9186C7.13325 9.87085 7.08551 9.83265 7.03776 9.79922ZM44.2425 29.5678C44.3953 29.606 44.338 29.4293 44.3858 29.3529C44.4622 29.2287 44.3523 29.2287 44.2807 29.2096C43.8844 29.0998 43.4833 28.9948 43.087 28.8849C42.834 28.8181 42.5809 28.7512 42.3326 28.6748C42.1655 28.6271 42.1751 28.7703 42.1416 28.8515C42.1034 28.9327 42.1225 28.9995 42.2276 29.0282C42.8913 29.1953 43.5454 29.3768 44.2425 29.5678ZM33.2606 4.41779C33.2272 4.32706 33.1269 4.32229 33.0553 4.27931C32.9694 4.22679 32.9216 4.28409 32.8882 4.35571C32.5969 4.95259 32.3104 5.54946 32.0096 6.13679C31.938 6.27527 32.0001 6.30869 32.0956 6.36599C32.215 6.43284 32.277 6.40897 32.3343 6.28959C32.616 5.70704 32.9025 5.12926 33.189 4.55149C33.2129 4.50851 33.2367 4.46554 33.2606 4.41779ZM41.8981 17.5873C41.9268 17.5777 41.9459 17.5682 41.9697 17.5634C42.6 17.3485 43.2303 17.1289 43.8653 16.914C44.0038 16.8662 43.9465 16.7994 43.9178 16.7182C43.8892 16.6323 43.8892 16.5463 43.7507 16.5941C43.1157 16.8185 42.4759 17.0381 41.8361 17.2578C41.7644 17.2817 41.7119 17.3199 41.7644 17.3915C41.8122 17.4536 41.7788 17.5777 41.8981 17.5873Z" fill="white"/>
<path d="M23.7159 46.7285C20.6124 46.7285 17.6043 46.122 14.7681 44.9187C12.0322 43.7632 9.57317 42.1015 7.46274 39.9909C5.35231 37.8804 3.69547 35.4212 2.53521 32.6852C1.33675 29.8488 0.725586 26.8405 0.725586 23.7368C0.725586 20.633 1.33198 17.6248 2.53521 14.7884C3.69547 12.0523 5.35231 9.59321 7.46274 7.48266C9.57317 5.3721 12.0322 3.71517 14.7681 2.55484C17.6043 1.35632 20.6124 0.745117 23.7159 0.745117C26.8195 0.745117 29.8276 1.35154 32.6638 2.55484C35.3997 3.71517 37.8587 5.3721 39.9692 7.48266C42.0796 9.59321 43.7364 12.0523 44.8967 14.7884C46.0951 17.6248 46.7063 20.633 46.7063 23.7368C46.7063 26.8405 46.0999 29.8488 44.8967 32.6852C43.7364 35.4212 42.0796 37.8804 39.9692 39.9909C37.8587 42.1015 35.3997 43.7584 32.6638 44.9187C29.8276 46.122 26.8148 46.7285 23.7159 46.7285ZM23.7159 5.5249C13.6699 5.5249 5.49555 13.6997 5.49555 23.7463C5.49555 33.793 13.6699 41.9678 23.7159 41.9678C33.762 41.9678 41.9363 33.793 41.9363 23.7463C41.9316 13.6949 33.762 5.5249 23.7159 5.5249Z" fill="white"/>
<path d="M9.37769 35.8608C13.2548 40.2061 18.0582 42.5315 23.8833 42.4885C29.7133 42.4456 34.4785 40.0533 38.284 35.665C38.4654 36.238 38.6516 36.8015 38.8283 37.3649C38.876 37.5225 38.9333 37.6132 39.1386 37.5846C40.0124 37.4748 40.8862 37.384 41.7743 37.3172C37.3863 42.8658 31.6948 46.0125 24.5948 46.2608C17.0077 46.5282 10.8435 43.5104 6.00195 37.7374C6.0115 37.7135 6.02105 37.6849 6.0306 37.661C6.5415 37.7183 7.04762 37.7708 7.55852 37.8281C7.8832 37.8663 8.20788 37.8997 8.53256 37.9379C8.63283 37.9475 8.70923 37.957 8.74743 37.8233C8.84292 37.4891 8.95752 37.1596 9.06734 36.8301C9.16761 36.515 9.27265 36.1903 9.37769 35.8608ZM22.3793 44.4272C22.3793 44.5131 22.3745 44.6039 22.3793 44.6898C22.3936 45.0479 22.6753 45.3153 23.0478 45.3201C23.4393 45.3297 23.721 45.0957 23.7449 44.728C23.7544 44.5609 23.7497 44.3938 23.7497 44.2266C23.7449 43.8733 23.5587 43.6393 23.2435 43.5772C22.8759 43.5056 22.5798 43.6489 22.4318 43.9592C22.3602 44.112 22.3889 44.2696 22.3793 44.4272ZM24.633 44.9095C24.7571 44.7949 24.8431 44.7232 24.9147 44.6421C24.9959 44.5561 25.0818 44.4702 25.1439 44.3699C25.2919 44.1359 25.2632 43.8924 25.0723 43.7253C24.7905 43.477 24.2987 43.5104 24.0648 43.8064C24.0266 43.8542 23.9024 43.9449 24.0027 43.9879C24.1125 44.0356 24.2271 44.241 24.3799 44.0643C24.4897 43.9401 24.6234 43.8781 24.7476 43.9974C24.8813 44.1216 24.7667 44.241 24.6807 44.346C24.633 44.3985 24.5805 44.4511 24.5279 44.4988C24.3751 44.6421 24.2271 44.7805 24.0743 44.919C23.9741 45.0097 23.9979 45.1291 24.017 45.2294C24.0409 45.3392 24.1507 45.2867 24.2176 45.2867C24.5041 45.2915 24.7905 45.2819 25.077 45.2915C25.1964 45.2962 25.2346 45.2628 25.2441 45.1339C25.2537 44.9477 25.2012 44.876 25.0102 44.8999C24.9051 44.9238 24.8001 44.9095 24.633 44.9095ZM26.1513 44.9095C26.2612 44.8044 26.3376 44.7376 26.4044 44.6707C26.4808 44.5895 26.562 44.5131 26.624 44.4224C26.8198 44.1407 26.7721 43.859 26.5095 43.6775C26.2086 43.4674 25.7312 43.5629 25.5402 43.8685C25.5115 43.9115 25.4495 43.9831 25.5259 44.007C25.6596 44.05 25.7789 44.2648 25.946 44.0356C26.0272 43.9258 26.1513 43.921 26.2659 43.9974C26.3996 44.0929 26.328 44.1884 26.2564 44.2792C26.1991 44.3508 26.137 44.4224 26.0654 44.4893C25.9078 44.6421 25.7455 44.7949 25.5784 44.9429C25.4733 45.0336 25.5115 45.153 25.5306 45.2533C25.5497 45.3392 25.6548 45.2915 25.7168 45.2962C26.0081 45.301 26.3041 45.2915 26.6002 45.301C26.7243 45.3058 26.753 45.2628 26.7625 45.1387C26.7768 44.9429 26.7052 44.8856 26.5238 44.9095C26.4235 44.919 26.3137 44.9095 26.1513 44.9095ZM21.5294 44.9095C21.6965 44.7328 21.8636 44.623 21.9735 44.4606C22.0737 44.3174 22.1597 44.1693 22.1024 43.9783C22.0403 43.7539 21.8875 43.6298 21.6726 43.582C21.3862 43.5199 21.1331 43.5916 20.9517 43.8255C20.9182 43.8637 20.7798 43.9401 20.9135 44.0022C21.0185 44.05 21.1235 44.2075 21.2572 44.0786C21.3814 43.9592 21.5151 43.8733 21.644 44.0022C21.7872 44.1455 21.6488 44.2792 21.5437 44.3842C21.3575 44.5657 21.1665 44.7471 20.9755 44.9238C20.8753 45.0145 20.8991 45.1339 20.9182 45.2342C20.9373 45.344 21.0519 45.2915 21.1188 45.2915C21.3957 45.2962 21.6726 45.2867 21.9544 45.2962C22.1167 45.3058 22.1453 45.2437 22.1501 45.0957C22.1549 44.9238 22.088 44.8951 21.9448 44.9047C21.8159 44.919 21.6917 44.9095 21.5294 44.9095ZM20.2832 44.0595C20.0683 44.0595 19.906 44.2171 19.906 44.432C19.906 44.6468 20.0636 44.814 20.2736 44.8187C20.4837 44.8235 20.6509 44.6516 20.6556 44.4415C20.6556 44.2314 20.4933 44.0643 20.2832 44.0595ZM27.3785 44.0595C27.1684 44.0595 27.006 44.2219 27.0013 44.432C26.9965 44.6421 27.1636 44.814 27.3689 44.814C27.5838 44.8187 27.7652 44.6373 27.7604 44.4272C27.7604 44.2266 27.5885 44.0643 27.3785 44.0595Z" fill="#221F51"/>
<path d="M22.3791 44.4267C22.3839 44.2691 22.36 44.1115 22.4316 43.9587C22.5796 43.6484 22.8757 43.5051 23.2433 43.5767C23.5585 43.6388 23.7447 43.8728 23.7494 44.2261C23.7542 44.3933 23.759 44.5604 23.7447 44.7275C23.7208 45.0952 23.4391 45.3244 23.0476 45.3196C22.6751 45.3101 22.3886 45.0474 22.3791 44.6893C22.3791 44.5986 22.3791 44.5126 22.3791 44.4267ZM23.3436 44.4506C23.3436 44.3646 23.3436 44.2739 23.3436 44.1879C23.3436 44.0112 23.2242 43.9539 23.081 43.9492C22.9377 43.9444 22.8136 44.0017 22.8088 44.1784C22.8041 44.3551 22.8041 44.527 22.8088 44.7036C22.8136 44.8803 22.933 44.9328 23.081 44.9281C23.229 44.9233 23.3436 44.8708 23.3436 44.6893C23.3436 44.6129 23.3436 44.5317 23.3436 44.4506Z" fill="white"/>
<path d="M24.6326 44.9087C24.7997 44.9087 24.9095 44.9183 25.0194 44.9039C25.2104 44.8801 25.2629 44.9517 25.2533 45.1379C25.2438 45.2668 25.2056 45.3003 25.0862 45.2955C24.7997 45.2859 24.5132 45.2955 24.2268 45.2907C24.1551 45.2907 24.0453 45.3432 24.0262 45.2334C24.0071 45.1331 23.9832 45.0138 24.0835 44.923C24.2363 44.7846 24.3891 44.6461 24.5371 44.5028C24.5896 44.4551 24.6422 44.4073 24.6899 44.35C24.7759 44.245 24.8904 44.1208 24.7568 44.0015C24.6326 43.8869 24.4989 43.9442 24.3891 44.0683C24.2315 44.245 24.1217 44.0349 24.0119 43.9919C23.9116 43.9489 24.0358 43.8582 24.074 43.8105C24.3032 43.5144 24.7997 43.481 25.0814 43.7293C25.2677 43.8964 25.3011 44.1447 25.1531 44.3739C25.091 44.4742 25.005 44.5601 24.9239 44.6461C24.8332 44.7225 24.7568 44.7941 24.6326 44.9087Z" fill="white"/>
<path d="M26.1516 44.9098C26.3139 44.9098 26.4237 44.9193 26.5288 44.9098C26.7102 44.8859 26.7818 44.948 26.7675 45.139C26.758 45.2631 26.7293 45.3013 26.6052 45.3013C26.3139 45.2918 26.0179 45.3013 25.7218 45.2966C25.6598 45.2966 25.5547 45.3443 25.5356 45.2536C25.5165 45.1533 25.4783 45.0339 25.5834 44.9432C25.7457 44.7952 25.908 44.6424 26.0704 44.4896C26.1372 44.4227 26.1993 44.3511 26.2614 44.2795C26.333 44.1888 26.3998 44.0885 26.2709 43.9978C26.1563 43.9166 26.0322 43.9261 25.951 44.036C25.7887 44.2652 25.6645 44.0455 25.5308 44.0073C25.4544 43.9834 25.5165 43.9118 25.5452 43.8688C25.7362 43.5632 26.2184 43.4725 26.5144 43.6778C26.777 43.8593 26.8248 44.1458 26.629 44.4227C26.567 44.5135 26.4858 44.5899 26.4094 44.671C26.3378 44.7427 26.2614 44.8047 26.1516 44.9098Z" fill="white"/>
<path d="M21.5294 44.91C21.6965 44.91 21.8159 44.9195 21.94 44.91C22.0833 44.9004 22.1501 44.9291 22.1453 45.101C22.1406 45.2538 22.1119 45.3111 21.9496 45.3015C21.6726 45.2872 21.3957 45.3015 21.114 45.2967C21.0424 45.2967 20.9325 45.3493 20.9135 45.2394C20.8944 45.1392 20.8705 45.0198 20.9707 44.9291C21.1617 44.7524 21.3527 44.5709 21.5389 44.3895C21.6488 44.2844 21.7872 44.1555 21.6392 44.0075C21.5103 43.8786 21.3718 43.9645 21.2525 44.0839C21.1235 44.2128 21.0137 44.0552 20.9087 44.0075C20.775 43.9454 20.9135 43.869 20.9469 43.8308C21.1283 43.5921 21.3861 43.5252 21.6679 43.5873C21.8827 43.635 22.0355 43.7592 22.0976 43.9836C22.1549 44.1746 22.0642 44.3226 21.9687 44.4659C21.8636 44.6235 21.6965 44.7333 21.5294 44.91Z" fill="white"/>
<path d="M20.2831 44.0596C20.4932 44.0596 20.6603 44.2315 20.6555 44.4416C20.6507 44.6517 20.4836 44.8188 20.2735 44.8188C20.0634 44.814 19.9011 44.6469 19.9059 44.432C19.9059 44.2219 20.0682 44.0596 20.2831 44.0596Z" fill="white"/>
<path d="M27.3783 44.0596C27.5884 44.0596 27.7555 44.2219 27.7603 44.432C27.765 44.6421 27.5836 44.8236 27.3687 44.8188C27.1586 44.814 26.9963 44.6469 27.0011 44.4368C27.0059 44.2219 27.1682 44.0596 27.3783 44.0596Z" fill="white"/>
<path d="M4.20676 24.0098L4.30703 25.7001L1.94353 25.8434L1.84326 24.1769L2.09155 24.1626L2.17272 25.533L2.94623 25.4852L2.8746 24.2628L3.12289 24.2485L3.19451 25.4709L4.03964 25.4184L3.95369 24.0241L4.20676 24.0098Z" fill="#221F51"/>
<path d="M1.91462 25.8666L1.80957 24.1524L2.1056 24.1333L2.18677 25.5037L2.91253 25.4607L2.84091 24.2383L3.13695 24.2192L3.20857 25.4416L4.00595 25.3939L3.92001 23.9996L4.22559 23.9805L4.33063 25.7186H4.30676L1.91462 25.8666ZM1.86209 24.2001L1.95759 25.8188L4.27333 25.6804L4.17784 24.0378L3.96775 24.0473L4.0537 25.4416L3.16082 25.4989L3.0892 24.2765L2.88866 24.2861L2.96028 25.5085L2.13903 25.561L2.05786 24.1906L1.86209 24.2001Z" fill="#221F51"/>
<path d="M4.33063 21.7032L4.28766 22.195L1.85254 22.7966L1.88119 22.4815L4.17306 21.9371L2.01965 20.9821L2.04831 20.667L4.33063 21.7032Z" fill="#221F51"/>
<path d="M1.82422 22.8255L1.85764 22.4626L4.09699 21.9326L1.99133 20.9967L2.02476 20.6338L4.35483 21.6891L4.30708 22.2143L1.82422 22.8255ZM1.90061 22.496L1.87674 22.7587L4.26411 22.1713L4.30231 21.7129L2.06296 20.7006L2.03908 20.9633L4.24501 21.9374L1.90061 22.496Z" fill="#221F51"/>
<path d="M4.10156 18.2257L5.06128 17.9917L4.98011 18.3164L3.89625 18.5743L3.72436 19.2571L4.6793 19.5006L4.60768 19.7919L2.31104 19.2094L2.56887 18.1971C2.60707 18.0443 2.66914 17.9106 2.75509 17.8055C2.84103 17.6957 2.9413 17.6193 3.06067 17.5763C3.18004 17.5333 3.30418 17.5285 3.43787 17.562C3.62409 17.6097 3.76256 17.71 3.8485 17.8628C3.93445 18.0156 3.96787 18.1971 3.93922 18.4024C3.97742 18.2973 4.02994 18.24 4.10156 18.2257ZM3.66706 18.4883C3.70526 18.3308 3.70048 18.1923 3.64319 18.0729C3.58589 17.9535 3.49517 17.8771 3.36148 17.8437C3.22779 17.8103 3.11319 17.8342 3.00815 17.9153C2.9031 17.9965 2.83148 18.1111 2.79328 18.2687L2.61662 18.9754L3.4904 19.195L3.66706 18.4883Z" fill="#221F51"/>
<path d="M4.62174 19.8211L2.27734 19.229L2.53995 18.1928C2.57815 18.0352 2.645 17.8968 2.73094 17.7917C2.82166 17.6771 2.92193 17.6007 3.04608 17.5577C3.17022 17.5148 3.29914 17.51 3.4376 17.5434C3.63337 17.5912 3.77661 17.6962 3.86256 17.8538C3.93418 17.9827 3.97238 18.1307 3.9676 18.2931C4.0058 18.2453 4.044 18.2167 4.09652 18.2071L5.09444 17.9636L4.99894 18.3408L3.91508 18.5987L3.75274 19.2433L4.70769 19.4868L4.62174 19.8211ZM2.33464 19.1956L4.58832 19.7638L4.65039 19.5203L3.69544 19.2767L3.87688 18.5557L3.8912 18.5509L3.91031 18.3981C3.93895 18.2024 3.91031 18.0257 3.82436 17.8729C3.74319 17.7296 3.60949 17.6294 3.42805 17.5816C3.29914 17.5482 3.17977 17.553 3.06518 17.5959C2.95058 17.6389 2.85509 17.7105 2.76914 17.8156C2.68797 17.9159 2.6259 18.0448 2.5877 18.1976L2.33464 19.1956ZM5.02759 18.0257L4.10607 18.2501C4.044 18.2644 3.99625 18.3122 3.95805 18.4125L3.90075 18.5509L4.96075 18.2979L5.02759 18.0257ZM3.50445 19.2242L2.5877 18.995L2.76914 18.2644C2.80734 18.1021 2.87896 17.9827 2.99355 17.8968C3.10337 17.8108 3.22752 17.7869 3.36598 17.8204C3.50445 17.8538 3.59995 17.935 3.66202 18.0639C3.71931 18.1833 3.72886 18.3265 3.68589 18.4936L3.50445 19.2242ZM2.645 18.9616L3.47103 19.1717L3.64292 18.4889C3.68112 18.3313 3.67157 18.2024 3.61904 18.0878C3.56175 17.9732 3.4758 17.9015 3.35166 17.8729C3.22274 17.8395 3.1177 17.8633 3.01743 17.9397C2.91716 18.0209 2.84554 18.1307 2.81212 18.2788L2.645 18.9616Z" fill="#221F51"/>
<path d="M5.4665 14.139L6.14452 15.2563L5.98218 15.5619L5.27551 14.3013L3.90039 14.4255L4.05796 14.1294L5.30894 14.053L4.65958 12.9834L4.81714 12.6826L5.49515 13.8859L6.93235 13.7618L6.77478 14.0626L5.4665 14.139Z" fill="#221F51"/>
<path d="M5.98267 15.6144L5.26168 14.3299L3.85791 14.4588L4.04413 14.1102L5.26646 14.0338L4.63142 12.9881L4.81763 12.6348L5.50997 13.8619L6.97582 13.7378L6.7896 14.0911L5.50997 14.1675L6.17366 15.261L5.98267 15.6144ZM5.29033 14.2774L5.98267 15.5141L6.11636 15.261L5.4288 14.1198L6.76095 14.0434L6.88987 13.7951L5.48132 13.9145L4.82241 12.735L4.69349 12.9833L5.35718 14.072L4.08232 14.1484L3.9534 14.392L5.29033 14.2774Z" fill="#221F51"/>
<path d="M7.31527 12.1196L7.6686 12.6544L7.48238 12.9027L6.12158 10.7683L6.38897 10.4102L8.80976 11.136L8.62355 11.3843L8.01238 11.1933L7.31527 12.1196ZM6.34122 10.6537L7.16247 11.9L7.76409 11.1025L6.34122 10.6537Z" fill="#221F51"/>
<path d="M7.47696 12.9453L6.09229 10.7726L6.37877 10.3906L8.85208 11.1308L8.63722 11.4173L8.02605 11.2263L7.34326 12.124L7.6966 12.6588L7.47696 12.9453ZM6.14958 10.7678L7.48173 12.8545L7.6393 12.6492L7.28597 12.1144L8.00695 11.1642L8.61812 11.3552L8.77569 11.1498L6.40264 10.4384L6.14958 10.7678ZM7.16182 11.9425L6.28805 10.615L7.80641 11.0925L7.16182 11.9425ZM6.39787 10.6962L7.16182 11.8566L7.72047 11.1117L6.39787 10.6962Z" fill="#221F51"/>
<path d="M10.7242 9.18187L9.59737 10.2801L7.94531 8.58022L8.16018 8.37012L9.63557 9.8838L10.5475 8.99565L10.7242 9.18187Z" fill="#221F51"/>
<path d="M9.5971 10.309L7.91162 8.58044L8.15991 8.33691L9.6353 9.85059L10.5473 8.96244L10.7621 9.18209L9.5971 10.309ZM7.97847 8.58044L9.60188 10.2421L10.6953 9.17731L10.5473 9.02451L9.63053 9.91744L8.15513 8.40376L7.97847 8.58044Z" fill="#221F51"/>
<path d="M12.6106 8.07468C12.6345 8.11288 12.6727 8.13198 12.7157 8.13675C12.7587 8.14153 12.8016 8.12243 12.8494 8.089L13.2266 7.8216L13.3316 7.96963L12.8207 8.32775C12.7443 8.38028 12.6679 8.40415 12.5915 8.39938C12.5151 8.3946 12.4579 8.3564 12.4101 8.28955C12.3671 8.22748 12.3528 8.16063 12.3671 8.07945C12.3815 8.00305 12.4149 7.92188 12.4674 7.8407C12.2907 7.96008 12.1045 8.02215 11.904 8.0317C11.7034 8.04125 11.5125 7.99828 11.3262 7.90755C11.1448 7.81683 10.9872 7.67835 10.8583 7.4969C10.7294 7.31068 10.6482 7.1149 10.6243 6.90958C10.6005 6.69947 10.6291 6.5037 10.7103 6.31747C10.7915 6.13125 10.9204 5.97367 11.0971 5.84952C11.2737 5.72537 11.4647 5.65375 11.67 5.63942C11.8753 5.6251 12.0711 5.66807 12.2573 5.7588C12.4435 5.84952 12.6011 5.988 12.73 6.17422C12.8398 6.3318 12.9162 6.5037 12.9496 6.68515C12.9831 6.8666 12.9735 7.04328 12.9258 7.21518C12.878 7.38708 12.7873 7.53988 12.6632 7.67358C12.5724 7.8598 12.5533 7.9935 12.6106 8.07468ZM11.4695 7.65448C11.6127 7.73088 11.7607 7.76908 11.9135 7.7643C12.0663 7.75953 12.2143 7.71178 12.348 7.61628C12.4817 7.52078 12.5772 7.4014 12.6345 7.25338C12.6918 7.10535 12.7061 6.95255 12.6775 6.79497C12.6536 6.63262 12.5915 6.4846 12.496 6.3509C12.3958 6.20765 12.2716 6.09782 12.1284 6.02142C11.9852 5.94502 11.8371 5.90682 11.6796 5.9116C11.522 5.91637 11.3788 5.96412 11.2451 6.05962C11.1114 6.15512 11.0159 6.2745 10.9586 6.41775C10.9013 6.561 10.887 6.7138 10.9108 6.87138C10.9347 7.02895 10.9968 7.18175 11.0971 7.32022C11.2069 7.46348 11.3262 7.5733 11.4695 7.65448Z" fill="#221F51"/>
<path d="M12.6052 8.42293C12.6004 8.42293 12.5909 8.42293 12.5861 8.42293C12.5049 8.41816 12.4429 8.37996 12.3856 8.30356C12.3378 8.23671 12.3235 8.16031 12.3378 8.07436C12.3474 8.02183 12.3665 7.96453 12.3951 7.91201C12.2423 8.00273 12.0752 8.04571 11.8986 8.05526C11.698 8.06481 11.5023 8.02183 11.3113 7.93111C11.125 7.84038 10.9675 7.69713 10.8338 7.51568C10.7001 7.31991 10.6189 7.11935 10.5951 6.9188C10.5712 6.70393 10.5998 6.50815 10.681 6.31715C10.7622 6.12615 10.8959 5.9638 11.0773 5.83965C11.2587 5.71073 11.4545 5.6391 11.6598 5.62478C11.8604 5.61045 12.0657 5.65343 12.2567 5.74415C12.4477 5.83488 12.6052 5.97813 12.7389 6.16913C12.8535 6.33625 12.9299 6.50815 12.9633 6.6896C12.9967 6.87106 12.9872 7.0525 12.9394 7.22918C12.8917 7.39631 12.801 7.55388 12.6721 7.69236C12.5861 7.86903 12.567 7.99318 12.6195 8.06481C12.6386 8.09346 12.6673 8.11256 12.7055 8.11733C12.7389 8.12211 12.7723 8.10778 12.8249 8.07436L13.2212 7.79263L13.3549 7.97886L12.8249 8.35131C12.758 8.39906 12.6816 8.42293 12.6052 8.42293ZM12.5479 7.75443L12.4858 7.85471C12.4381 7.93111 12.4047 8.00751 12.3904 8.08391C12.376 8.15553 12.3904 8.21761 12.4286 8.27491C12.4763 8.33698 12.524 8.37041 12.5909 8.37518C12.6625 8.37996 12.7341 8.35608 12.8058 8.30833L13.2976 7.96453L13.2212 7.85471L12.8631 8.10778C12.8058 8.15076 12.758 8.16508 12.715 8.16031C12.6625 8.15553 12.6195 8.13166 12.5909 8.08868C12.5288 8.00273 12.5479 7.85948 12.6434 7.6637L12.6482 7.65893C12.7723 7.52523 12.8583 7.37243 12.906 7.21008C12.9538 7.03818 12.9633 6.86628 12.9299 6.6896C12.8965 6.5177 12.8249 6.3458 12.715 6.18823C12.5909 6.00678 12.4333 5.8683 12.2519 5.78235C12.0657 5.69163 11.8699 5.65343 11.6789 5.66775C11.4832 5.68208 11.2922 5.74893 11.1203 5.87308C10.9484 5.99245 10.8242 6.14525 10.7431 6.33148C10.6619 6.51293 10.6333 6.70393 10.6571 6.90925C10.681 7.10503 10.7574 7.29603 10.8863 7.48703C11.0152 7.6637 11.168 7.80218 11.3447 7.88813C11.5309 7.97886 11.7171 8.01706 11.9081 8.00751C12.1086 7.99796 12.2853 7.93588 12.4572 7.82128L12.5479 7.75443ZM11.8842 7.78786C11.741 7.78786 11.593 7.74966 11.4545 7.67326C11.3113 7.59208 11.1919 7.48226 11.0773 7.33423C10.977 7.19576 10.9102 7.03818 10.8863 6.87583C10.8624 6.7087 10.8768 6.5559 10.9341 6.41265C10.9914 6.26463 11.0916 6.14048 11.2301 6.04498C11.3686 5.94948 11.5118 5.89695 11.6789 5.89218C11.8365 5.8874 11.9893 5.9256 12.1373 6.00678C12.2853 6.08795 12.4142 6.19778 12.5145 6.34103C12.6148 6.4795 12.6768 6.6323 12.7007 6.79465C12.7294 6.957 12.715 7.11458 12.6577 7.26261C12.6004 7.41541 12.5049 7.53478 12.3617 7.63506C12.228 7.73056 12.0752 7.78308 11.9129 7.78786C11.9033 7.78786 11.8938 7.78786 11.8842 7.78786ZM11.4784 7.63506C11.6216 7.71146 11.7649 7.74488 11.9081 7.74011C12.0609 7.73533 12.2041 7.68758 12.3283 7.59686C12.462 7.50136 12.5527 7.38676 12.6052 7.2435C12.6625 7.10025 12.6768 6.95223 12.6482 6.79943C12.6243 6.64185 12.567 6.4986 12.4715 6.3649C12.376 6.22643 12.2519 6.1166 12.1134 6.04498C11.9702 5.96858 11.8269 5.93515 11.6789 5.93993C11.5261 5.9447 11.3877 5.99245 11.2587 6.08318C11.1298 6.1739 11.0343 6.29328 10.9818 6.43175C10.9293 6.56545 10.9102 6.71825 10.9341 6.87105C10.9579 7.02863 11.02 7.17666 11.1155 7.31036C11.2253 7.45361 11.3399 7.55388 11.4784 7.63506Z" fill="#221F51"/>
<path d="M14.5292 5.84979L14.5961 6.48486L14.3191 6.61856L14.0947 4.10213L14.5006 3.91113L16.3198 5.67311L16.0428 5.80681L15.5892 5.35319L14.5292 5.84979ZM14.343 4.10691L14.5006 5.59194L15.3982 5.16219L14.343 4.10691Z" fill="#221F51"/>
<path d="M14.3 6.65612L14.0708 4.08716L14.5053 3.88184L14.5149 3.89139L16.3579 5.67724L16.0332 5.83482L15.5796 5.38119L14.553 5.86824L14.6199 6.50332L14.3 6.65612ZM14.1185 4.11581L14.3382 6.58449L14.5674 6.47467L14.5005 5.83959L15.5892 5.32389L16.0428 5.77752L16.272 5.66769L14.491 3.94391L14.1185 4.11581ZM14.4814 5.62471L14.3143 4.03941L15.4412 5.16631L14.4814 5.62471ZM14.3764 4.16834L14.5244 5.55309L15.36 5.15199L14.3764 4.16834Z" fill="#221F51"/>
<path d="M18.4882 4.0493L19.1805 4.76078L18.8606 4.85628L18.0871 4.0493L17.4091 4.24508L17.686 5.19053L17.3995 5.27171L16.7358 2.99403L17.7385 2.70275C17.8913 2.65978 18.0346 2.64545 18.173 2.66455C18.3115 2.68365 18.4261 2.7314 18.5264 2.81258C18.6219 2.89375 18.6935 2.9988 18.7317 3.1325C18.7842 3.31873 18.7699 3.48585 18.6792 3.63865C18.5884 3.79145 18.45 3.91083 18.259 3.99201C18.3593 3.97291 18.4404 3.992 18.4882 4.0493ZM18.0441 3.80578C18.2017 3.75803 18.3163 3.68163 18.3879 3.57658C18.4643 3.46675 18.4786 3.34738 18.4404 3.21845C18.4022 3.08953 18.3211 2.9988 18.2017 2.95105C18.0823 2.9033 17.9438 2.89853 17.7863 2.94628L17.0844 3.1516L17.3375 4.01588L18.0441 3.80578Z" fill="#221F51"/>
<path d="M17.3846 5.29992L16.7065 2.97927L17.7331 2.68322C17.8955 2.64024 18.0387 2.62592 18.1772 2.64502C18.3204 2.66412 18.4398 2.71665 18.54 2.79782C18.6451 2.88377 18.7167 2.99837 18.7549 3.12729C18.8122 3.32307 18.7931 3.49497 18.7024 3.65255C18.626 3.78147 18.5162 3.88652 18.3729 3.96292C18.4302 3.97247 18.4732 3.99635 18.5066 4.03455L19.2228 4.77467L18.8504 4.8845L18.0769 4.07752L17.4371 4.26375L17.714 5.2092L17.3846 5.29992ZM16.7686 3.0127L17.418 5.24262L17.6567 5.17578L17.3798 4.23032L18.096 4.025L18.1055 4.03455L18.2536 3.97247C18.435 3.89607 18.5735 3.78147 18.6642 3.62867C18.7501 3.48542 18.7645 3.32307 18.7119 3.14162C18.6785 3.01747 18.6117 2.9172 18.5162 2.83602C18.4207 2.75962 18.3109 2.71187 18.1772 2.69277C18.0435 2.67367 17.905 2.68799 17.7522 2.73097L16.7686 3.0127ZM18.1151 4.0441L18.8695 4.8272L19.1369 4.74602L18.4732 4.0632C18.4207 4.00112 18.33 4.00112 18.2679 4.01545L18.1151 4.0441ZM17.3225 4.0441L17.0551 3.13685L17.7809 2.92674C17.9384 2.87899 18.0817 2.879 18.2106 2.93152C18.3347 2.97927 18.4254 3.07954 18.4636 3.21324C18.5066 3.35172 18.4875 3.48065 18.4063 3.59047C18.33 3.7003 18.2106 3.78147 18.0482 3.82922L17.3225 4.0441ZM17.1172 3.17027L17.3559 3.9868L18.0387 3.78147C18.1915 3.73372 18.3013 3.6621 18.3682 3.56182C18.4398 3.46155 18.4541 3.35172 18.4159 3.22279C18.3777 3.09864 18.3061 3.01747 18.1915 2.96972C18.0721 2.92197 17.9384 2.92197 17.7904 2.96495L17.1172 3.17027Z" fill="#221F51"/>
<path d="M20.808 4.31702C20.6218 4.23107 20.469 4.10214 20.3497 3.93024C20.2303 3.75834 20.1587 3.56257 20.13 3.33814C20.1014 3.11372 20.13 2.90362 20.2064 2.70784C20.2828 2.51207 20.4022 2.35449 20.5645 2.22557C20.7269 2.10142 20.9131 2.02502 21.128 1.99637C21.3428 1.97249 21.5434 2.00114 21.7296 2.08709C21.9158 2.17304 22.0686 2.30197 22.1879 2.47387C22.3073 2.64577 22.3837 2.84154 22.4076 3.06597C22.4315 3.28562 22.4076 3.49572 22.3312 3.69149C22.2548 3.88727 22.1354 4.04962 21.9731 4.17377C21.8107 4.3027 21.6245 4.3791 21.4097 4.40297C21.1948 4.4364 20.9943 4.40297 20.808 4.31702ZM21.806 3.96845C21.9253 3.86817 22.0113 3.73925 22.0638 3.58645C22.1163 3.43365 22.1354 3.27607 22.1163 3.10894C22.0972 2.93704 22.0399 2.77947 21.954 2.64577C21.8633 2.50729 21.7487 2.40702 21.6102 2.33539C21.4717 2.26377 21.3189 2.23989 21.1614 2.25899C20.999 2.27809 20.8558 2.34017 20.7412 2.44044C20.6218 2.54072 20.5359 2.66487 20.4834 2.81767C20.4308 2.97047 20.4117 3.13282 20.4356 3.29995C20.4547 3.47185 20.512 3.62942 20.598 3.76312C20.6839 3.90159 20.7985 4.00187 20.937 4.07349C21.0754 4.14512 21.2282 4.169 21.3906 4.1499C21.5434 4.1308 21.6866 4.0735 21.806 3.96845Z" fill="#221F51"/>
<path d="M21.2473 4.43586C21.0945 4.43586 20.9417 4.40243 20.7984 4.33558C20.6075 4.24963 20.4499 4.11593 20.3305 3.93926C20.2112 3.76736 20.1348 3.56681 20.1061 3.33761C20.0775 3.11796 20.1061 2.90308 20.1825 2.69775C20.2589 2.50198 20.3783 2.33963 20.5454 2.20593C20.7125 2.077 20.8987 2.0006 21.1184 1.97195C21.338 1.94808 21.5481 1.97673 21.7343 2.06268C21.9253 2.14863 22.0829 2.28233 22.2022 2.459C22.3264 2.64045 22.4028 2.84101 22.4266 3.06066C22.4505 3.28508 22.4266 3.49996 22.3502 3.69573C22.2738 3.89628 22.1497 4.06341 21.9826 4.18756C21.8155 4.32126 21.6293 4.39766 21.4096 4.42153C21.3571 4.43586 21.3046 4.43586 21.2473 4.43586ZM21.2711 2.01493C21.2234 2.01493 21.1804 2.0197 21.1327 2.02448C20.9226 2.05313 20.7412 2.12475 20.5836 2.2489C20.4212 2.37783 20.3066 2.53063 20.235 2.72163C20.1586 2.9174 20.1348 3.12751 20.1586 3.33761C20.1873 3.56203 20.2589 3.75303 20.3735 3.92016C20.4881 4.08728 20.6409 4.21621 20.8223 4.29738C21.0085 4.38333 21.2091 4.41198 21.4096 4.38333C21.6197 4.35946 21.8011 4.28783 21.9635 4.15891C22.121 4.03953 22.2404 3.88196 22.312 3.68618C22.3837 3.49996 22.4123 3.28986 22.3884 3.07498C22.3646 2.86488 22.2929 2.6691 22.1736 2.49243C22.059 2.3253 21.9062 2.19638 21.7247 2.1152C21.5815 2.04835 21.4287 2.01493 21.2711 2.01493ZM21.2855 4.17801C21.1566 4.17801 21.0372 4.14936 20.9274 4.09206C20.7793 4.01566 20.6648 3.91061 20.5788 3.77213C20.4881 3.63366 20.4308 3.47131 20.4117 3.29941C20.3878 3.13706 20.4069 2.96993 20.4594 2.80758C20.512 2.65 20.5979 2.52585 20.7221 2.4208C20.8414 2.32053 20.9894 2.25368 21.1566 2.23458C21.3237 2.21548 21.4765 2.23935 21.6197 2.31575C21.7677 2.39215 21.8823 2.4972 21.973 2.63568C22.0638 2.77415 22.1211 2.93651 22.1401 3.10841C22.1592 3.27553 22.1402 3.4331 22.0876 3.59545C22.0351 3.75303 21.9444 3.88673 21.825 3.98701C21.7056 4.09206 21.5624 4.15413 21.3953 4.17323C21.3571 4.17801 21.3237 4.17801 21.2855 4.17801ZM21.2664 2.27755C21.2329 2.27755 21.1995 2.27755 21.1661 2.28233C21.0085 2.30143 20.8701 2.35873 20.7602 2.459C20.6409 2.55928 20.5597 2.67865 20.5072 2.82668C20.4547 2.98425 20.4403 3.14183 20.4594 3.29941C20.4785 3.46176 20.5311 3.61933 20.617 3.75303C20.6982 3.88196 20.8032 3.98223 20.9465 4.05386C21.0754 4.12071 21.2234 4.14458 21.3857 4.12548C21.5433 4.10638 21.677 4.04908 21.7868 3.94881C21.9014 3.85331 21.9874 3.72916 22.0351 3.57636C22.0876 3.42356 22.1067 3.27076 22.0876 3.10841C22.0685 2.94606 22.016 2.78848 21.9301 2.65478C21.8441 2.52585 21.7343 2.42558 21.5958 2.35395C21.4956 2.3062 21.3857 2.27755 21.2664 2.27755Z" fill="#221F51"/>
<path d="M25.8799 1.97298L25.6937 3.41026C25.665 3.62991 25.7032 3.80181 25.8035 3.94029C25.9038 4.07399 26.0565 4.15517 26.2571 4.18382C26.4576 4.20769 26.6247 4.16949 26.7584 4.06444C26.8921 3.95939 26.9733 3.79704 27.0019 3.58694L27.1882 2.14966L27.4842 2.18786L27.298 3.62991C27.2741 3.82091 27.212 3.98327 27.1165 4.11219C27.021 4.24112 26.8921 4.33661 26.7393 4.39391C26.5865 4.45122 26.4147 4.46554 26.2284 4.44167C26.0374 4.41779 25.8751 4.35571 25.7414 4.26499C25.6077 4.16949 25.5122 4.05012 25.4502 3.89732C25.3881 3.74452 25.3738 3.57739 25.3976 3.38639L25.5838 1.94434L25.8799 1.97298Z" fill="#221F51"/>
<path d="M26.3947 4.47466C26.3422 4.47466 26.2849 4.46989 26.2228 4.46511C26.0366 4.44124 25.8695 4.37916 25.7262 4.28366C25.5878 4.18339 25.4875 4.05923 25.4254 3.90643C25.3633 3.75363 25.3442 3.58651 25.3729 3.38596L25.5639 1.9248L25.9077 1.95823L25.7167 3.41939C25.688 3.62949 25.7262 3.79661 25.8217 3.93031C25.9172 4.05923 26.0652 4.13564 26.261 4.16429C26.4568 4.18816 26.6143 4.14996 26.7432 4.04968C26.8722 3.94941 26.9486 3.79661 26.9772 3.58651L27.1682 2.12536L27.512 2.16833L27.321 3.63426C27.2971 3.82526 27.235 3.99239 27.1348 4.12609C27.0345 4.25979 26.9056 4.35529 26.748 4.41736C26.6382 4.45556 26.5236 4.47466 26.3947 4.47466ZM25.6068 1.97255L25.4254 3.39073C25.4015 3.58173 25.4159 3.74409 25.4779 3.88734C25.5352 4.03536 25.6307 4.14996 25.7596 4.24546C25.8933 4.33619 26.0557 4.39349 26.2371 4.41736C26.4233 4.44124 26.5904 4.42691 26.7385 4.36961C26.8865 4.31231 27.0106 4.22158 27.1061 4.09743C27.2016 3.96851 27.2589 3.81094 27.2828 3.62471L27.4642 2.20653L27.2159 2.17311L27.0345 3.58651C27.0058 3.80616 26.9199 3.97329 26.7814 4.07834C26.643 4.18339 26.4711 4.22636 26.261 4.20249C26.0509 4.17384 25.8933 4.08789 25.7931 3.94941C25.688 3.80138 25.6498 3.62471 25.6785 3.40028L25.8599 1.98688L25.6068 1.97255Z" fill="#221F51"/>
<path d="M30.4438 5.40982L29.9663 5.2618L29.3838 2.75014L28.7297 4.88457L28.4575 4.8034L29.1546 2.54004L29.6273 2.68329L30.2098 5.19972L30.8688 3.06052L31.1409 3.14169L30.4438 5.40982Z" fill="#221F51"/>
<path d="M30.458 5.43869L29.9471 5.28112L29.3837 2.84109L28.7486 4.91344L28.4287 4.81794L29.1401 2.50684L29.6463 2.65964L29.651 2.67396L30.2145 5.10444L30.8543 3.02731L31.1742 3.12281L30.458 5.43869ZM29.9853 5.24292L30.4246 5.38139L31.1073 3.15624L30.8829 3.08939L30.2049 5.29067L29.6081 2.69784L29.1736 2.56414L28.4908 4.78452L28.7152 4.85137L29.3884 2.65009L29.9853 5.24292Z" fill="#221F51"/>
<path d="M32.9407 3.91516L31.9523 6.0687L31.6802 5.94454L32.6685 3.79102L32.9407 3.91516Z" fill="#221F51"/>
<path d="M31.9665 6.10234L31.6514 5.95909L32.6588 3.75781L32.974 3.90106L31.9665 6.10234ZM31.7134 5.93522L31.9426 6.04027L32.9119 3.92971L32.6827 3.82466L31.7134 5.93522Z" fill="#221F51"/>
<path d="M34.1106 7.24367L33.6904 6.98582L34.2348 4.54102L34.5021 4.70814L33.9721 7.00492L35.7865 5.49124L36.0587 5.65837L34.1106 7.24367Z" fill="#221F51"/>
<path d="M34.1153 7.27233L33.6665 6.99538L34.2204 4.49805L34.5307 4.69382L34.0151 6.93808L35.7865 5.4626L36.1016 5.65837L34.1153 7.27233ZM33.719 6.97628L34.1106 7.21503L36.0157 5.66315L35.7865 5.52467L33.9339 7.07178L34.4734 4.72247L34.249 4.584L33.719 6.97628Z" fill="#221F51"/>
<path d="M36.999 9.4452L35.7051 8.35172L37.2378 6.54199L38.5126 7.62115L38.3503 7.81215L37.3046 6.92399L36.8033 7.5161L37.7391 8.30875L37.5768 8.49975L36.6409 7.7071L36.0918 8.35172L37.1566 9.2542L36.999 9.4452Z" fill="#221F51"/>
<path d="M36.9992 9.47798L35.6719 8.35585L37.2332 6.5127L38.5415 7.6205L38.3505 7.8497L37.3048 6.96154L36.8369 7.51545L37.7728 8.3081L37.5818 8.5373L36.6459 7.74465L36.1302 8.35107L37.195 9.25355L36.9992 9.47798ZM35.7387 8.3463L36.9945 9.40635L37.1234 9.25355L36.0586 8.35107L36.6364 7.67302L37.5722 8.46567L37.7059 8.31287L36.7701 7.52022L37.3001 6.8947L38.3457 7.78285L38.4746 7.63005L37.238 6.58432L35.7387 8.3463Z" fill="#221F51"/>
<path d="M39.4293 10.7678L39.076 11.6941L38.8563 11.441L39.2622 10.4049L38.799 9.87484L38.0542 10.5242L37.8584 10.2998L39.6489 8.74316L40.3365 9.53104C40.4415 9.65042 40.5132 9.77456 40.5514 9.90826C40.5895 10.042 40.5943 10.1661 40.5657 10.2903C40.5323 10.4144 40.4654 10.5195 40.3604 10.6102C40.2171 10.7343 40.0548 10.7916 39.8781 10.7773C39.7014 10.763 39.5391 10.6818 39.3815 10.5433C39.4388 10.6197 39.4532 10.6961 39.4293 10.7678ZM39.4579 10.2568C39.563 10.381 39.6823 10.4526 39.8113 10.4765C39.9402 10.5004 40.0548 10.4669 40.1598 10.3762C40.2601 10.2855 40.3078 10.1757 40.3031 10.0467C40.2983 9.91782 40.241 9.78889 40.136 9.66951L39.6585 9.12039L38.9805 9.71249L39.4579 10.2568Z" fill="#221F51"/>
<path d="M39.0857 11.7412L38.8327 11.4452L39.2385 10.409L38.7992 9.90762L38.0544 10.557L37.8252 10.2992L39.6491 8.71387L40.351 9.52085C40.4609 9.645 40.5325 9.76914 40.5707 9.90762C40.6089 10.0461 40.6136 10.175 40.585 10.2992C40.5516 10.4281 40.48 10.5379 40.3701 10.6334C40.2221 10.7623 40.055 10.8196 39.8688 10.8053C39.7255 10.7958 39.5871 10.7385 39.4486 10.6382C39.4629 10.6859 39.4629 10.7337 39.4486 10.7814L39.0857 11.7412ZM38.8852 11.4356L39.0666 11.6457L39.4056 10.7576C39.4295 10.6907 39.4104 10.6239 39.3627 10.557L39.2767 10.4376L38.8852 11.4356ZM39.2815 10.4233L39.3961 10.5236C39.5537 10.6621 39.7112 10.7385 39.8783 10.7528C40.0454 10.7671 40.203 10.7146 40.3415 10.5904C40.4417 10.5045 40.5086 10.4042 40.5372 10.2848C40.5659 10.1655 40.5611 10.0461 40.5229 9.91717C40.4847 9.78825 40.4179 9.66887 40.3128 9.54949L39.6396 8.78072L37.8873 10.3039L38.0496 10.4902L38.7945 9.84077L39.2815 10.3994V10.4233ZM39.8879 10.5093C39.8592 10.5093 39.8306 10.5045 39.8019 10.4997C39.6635 10.4758 39.5393 10.3994 39.4343 10.2705L38.9425 9.70707L39.6539 9.08632L40.1457 9.65454C40.2555 9.7787 40.3128 9.9124 40.3176 10.0461C40.3224 10.1798 40.2699 10.2992 40.1648 10.3947C40.0884 10.4711 39.9929 10.5093 39.8879 10.5093ZM39.0141 9.71662L39.4773 10.2419C39.5775 10.3565 39.6921 10.4281 39.8163 10.452C39.9356 10.4758 40.0454 10.4424 40.1457 10.3565C40.2412 10.2705 40.2842 10.1702 40.2794 10.0461C40.2746 9.92195 40.2173 9.79779 40.1171 9.68319L39.6539 9.15317L39.0141 9.71662Z" fill="#221F51"/>
<path d="M40.0406 12.7736C40.0549 12.5682 40.1456 12.3868 40.3175 12.234L40.4703 12.4727C40.3605 12.5873 40.2984 12.7163 40.2889 12.8547C40.2793 12.9932 40.3271 13.1412 40.4226 13.294C40.5181 13.4421 40.6279 13.5423 40.7568 13.5901C40.8857 13.6378 41.0051 13.6283 41.1197 13.5567C41.22 13.4946 41.282 13.4182 41.3059 13.3275C41.3298 13.2367 41.3154 13.1269 41.2677 12.998L41.0672 12.4584C41.0003 12.2865 40.9812 12.1337 41.0099 12.0096C41.0385 11.8854 41.1245 11.7804 41.2629 11.6896C41.3775 11.618 41.4921 11.5941 41.6163 11.6085C41.7356 11.6276 41.855 11.6753 41.9648 11.766C42.0746 11.8568 42.1749 11.9618 42.2561 12.0955C42.385 12.3008 42.4423 12.4966 42.428 12.6828C42.4136 12.8691 42.3277 13.0266 42.1654 13.1651L42.0126 12.9264C42.1176 12.8309 42.1701 12.721 42.1749 12.5969C42.1797 12.4727 42.1415 12.3486 42.0555 12.2149C41.9648 12.0716 41.8645 11.9714 41.7499 11.9188C41.6354 11.8663 41.5303 11.8711 41.43 11.9332C41.3441 11.9905 41.2868 12.0525 41.2677 12.1289C41.2486 12.2053 41.2629 12.2961 41.3059 12.4107L41.5208 12.9741C41.5924 13.1603 41.6115 13.3179 41.5733 13.4516C41.5399 13.5853 41.4491 13.6951 41.2963 13.7906C41.1722 13.867 41.0481 13.9005 40.9144 13.8957C40.7807 13.8861 40.6565 13.8432 40.5324 13.7572C40.413 13.676 40.308 13.5614 40.2173 13.4182C40.0883 13.1938 40.0263 12.9789 40.0406 12.7736Z" fill="#221F51"/>
<path d="M40.9382 13.9196C40.9286 13.9196 40.9191 13.9196 40.9143 13.9196C40.7711 13.9101 40.6422 13.8623 40.518 13.7764C40.3986 13.6952 40.2888 13.5806 40.1981 13.4326C40.0644 13.1986 40.0023 12.9789 40.0167 12.7736C40.031 12.5587 40.1265 12.3725 40.3032 12.2197L40.3223 12.2006L40.4989 12.4776L40.4846 12.4919C40.3795 12.6017 40.3175 12.7259 40.3079 12.8596C40.2984 12.9885 40.3413 13.1317 40.4368 13.2845C40.5323 13.4326 40.6374 13.5233 40.7568 13.571C40.8809 13.6188 40.9907 13.6045 41.1005 13.5376C41.196 13.4803 41.2533 13.4087 41.2772 13.3227C41.3011 13.2368 41.2867 13.1365 41.239 13.0076L41.0385 12.468C40.9716 12.2913 40.9525 12.1385 40.9812 12.0048C41.0098 11.8759 41.0958 11.7661 41.2438 11.6706C41.3584 11.599 41.4825 11.5703 41.6114 11.5846C41.7451 11.6085 41.8693 11.661 41.9743 11.747C42.0985 11.852 42.1939 11.9619 42.2703 12.0812C42.3993 12.2913 42.4613 12.4919 42.447 12.6829C42.4327 12.8739 42.342 13.0362 42.1748 13.1795L42.1557 13.1986L41.9791 12.9216L41.9934 12.9073C42.0937 12.8166 42.1414 12.7163 42.1462 12.5969C42.151 12.4776 42.1128 12.3582 42.0316 12.2293C41.9409 12.086 41.8454 11.9905 41.7356 11.9428C41.6305 11.895 41.5303 11.8998 41.4395 11.9571C41.3536 12.0144 41.3058 12.0717 41.2867 12.1385C41.2676 12.2054 41.282 12.2913 41.3249 12.4059L41.5398 12.9694C41.6162 13.1652 41.6305 13.3227 41.5923 13.4612C41.5589 13.5997 41.4634 13.7143 41.3058 13.8146C41.1865 13.8814 41.0671 13.9196 40.9382 13.9196ZM40.3127 12.2722C40.1599 12.4155 40.0787 12.5826 40.0644 12.7784C40.0501 12.9742 40.1074 13.1843 40.2363 13.4087C40.327 13.5519 40.4273 13.6618 40.5419 13.7382C40.6565 13.8193 40.7806 13.8623 40.9095 13.8719C41.0385 13.8766 41.1578 13.8432 41.2772 13.7716C41.4252 13.6809 41.5112 13.571 41.5446 13.4469C41.5828 13.318 41.5637 13.1699 41.4921 12.9837L41.2772 12.4203C41.2295 12.2961 41.2199 12.2054 41.239 12.1242C41.2581 12.0478 41.3154 11.981 41.4109 11.9141C41.5207 11.8473 41.6305 11.8425 41.7547 11.8998C41.8693 11.9523 41.9743 12.0526 42.0698 12.2054C42.1557 12.3439 42.1987 12.4728 42.1939 12.6017C42.1892 12.7259 42.1367 12.8405 42.0412 12.936L42.1701 13.1365C42.3133 13.0076 42.3897 12.8596 42.404 12.6877C42.4184 12.5062 42.3611 12.3152 42.2369 12.1147C42.1653 11.9953 42.0698 11.8902 41.9504 11.79C41.8502 11.7088 41.7403 11.6563 41.6114 11.6372C41.4873 11.6228 41.3822 11.6467 41.2772 11.7136C41.1387 11.8043 41.0623 11.9046 41.0337 12.0192C41.005 12.1385 41.0241 12.2866 41.091 12.4537L41.2915 12.9933C41.344 13.1317 41.3536 13.2416 41.3297 13.3371C41.3058 13.4326 41.239 13.5137 41.134 13.5806C41.0146 13.657 40.8904 13.6665 40.752 13.614C40.6183 13.5663 40.5085 13.466 40.4082 13.3084C40.3079 13.1461 40.2602 12.9933 40.2697 12.8548C40.2793 12.7163 40.3366 12.5874 40.4464 12.4728L40.3127 12.2722Z" fill="#221F51"/>
<path d="M43.5551 14.5408L41.416 15.5531L41.2871 15.2857L43.4262 14.2734L43.5551 14.5408Z" fill="#221F51"/>
<path d="M41.4014 15.5859L41.2534 15.2755L43.4402 14.2441L43.5883 14.5545L41.4014 15.5859ZM41.3155 15.2994L41.4253 15.5238L43.5214 14.5354L43.4116 14.311L41.3155 15.2994Z" fill="#221F51"/>
<path d="M44.2523 17.014L42.2469 17.6826L42.1514 17.4008L44.1568 16.7323L43.9085 15.9874L44.152 15.9062L44.7441 17.6778L44.5005 17.759L44.2523 17.014Z" fill="#221F51"/>
<path d="M44.4862 17.787L44.2379 17.0421L42.2373 17.7106L42.1274 17.3859L44.1328 16.7174L43.8845 15.9725L44.171 15.877L44.7774 17.6915L44.4862 17.787ZM44.2665 16.98L44.5148 17.7249L44.7106 17.658L44.1328 15.9343L43.9371 16.0011L44.1854 16.746L42.1847 17.4145L42.2659 17.6485L44.2665 16.98Z" fill="#221F51"/>
<path d="M43.068 21.2391L42.772 19.5679L45.102 19.1572L45.3933 20.8046L45.145 20.8476L44.9063 19.4963L44.1471 19.63L44.3572 20.8333L44.1089 20.8762L43.8988 19.6729L43.0632 19.821L43.3067 21.1962L43.068 21.2391Z" fill="#221F51"/>
<path d="M43.0492 21.2632L43.0445 21.2394L42.7437 19.5442L45.1215 19.124L45.4223 20.8144L45.1262 20.8669L44.8875 19.5156L44.1761 19.6397L44.3862 20.843L44.0901 20.8956L43.88 19.6923L43.0922 19.8307L43.3357 21.2059L43.0492 21.2632ZM42.8009 19.5872L43.0874 21.2107L43.2832 21.1773L43.0397 19.8021L43.923 19.6445L44.1331 20.8478L44.3336 20.8144L44.1236 19.6111L44.9305 19.4678L45.1692 20.8192L45.3698 20.7857L45.088 19.1861L42.8009 19.5872Z" fill="#221F51"/>
<path d="M45.3168 23.3211L43.2063 23.3784L43.1968 23.0824L45.3072 23.0251L45.2881 22.2372L45.5459 22.2324L45.5937 24.0994L45.3359 24.1042L45.3168 23.3211Z" fill="#221F51"/>
<path d="M45.3168 24.1276L45.2977 23.3445L43.1873 23.4018L43.1777 23.058L45.2929 23.0007L45.2738 22.2128L45.5794 22.208L45.6272 24.1228L45.3168 24.1276ZM45.3407 23.2967L45.3598 24.0798L45.5699 24.075L45.5221 22.2558L45.312 22.2605L45.3311 23.0484L43.2207 23.1057L43.2303 23.354L45.3407 23.2967Z" fill="#221F51"/>
<path d="M45.4744 25.8859L43.1157 25.6711L43.1444 25.375L45.5031 25.5899L45.4744 25.8859Z" fill="#221F51"/>
<path d="M45.4983 25.9092L43.0918 25.6895L43.1252 25.3457L45.5317 25.5654L45.4983 25.9092ZM43.1395 25.6465L45.4505 25.8566L45.4744 25.6083L43.1634 25.3982L43.1395 25.6465Z" fill="#221F51"/>
<path d="M23.3435 44.4509C23.3435 44.532 23.3435 44.6084 23.3435 44.6896C23.3435 44.8663 23.2289 44.9236 23.0809 44.9284C22.9329 44.9331 22.8135 44.8758 22.8088 44.7039C22.804 44.5273 22.804 44.3554 22.8088 44.1787C22.8135 44.002 22.9377 43.9447 23.0809 43.9495C23.2242 43.9543 23.3483 44.0116 23.3435 44.1882C23.3435 44.279 23.3435 44.3649 23.3435 44.4509Z" fill="#221F51"/>
<path d="M28.5576 38.979C30.4102 38.2197 31.9667 37.0594 33.2464 35.5314C33.4469 35.2927 33.6331 35.0396 33.8528 34.7579C32.8167 34.7579 31.8426 34.7579 30.8686 34.7531C30.7492 34.7531 30.7253 34.8199 30.6967 34.9059C30.4484 35.6365 30.1332 36.3384 29.7799 37.0212C29.4266 37.7088 28.973 38.3296 28.5289 38.9503C28.5098 38.9551 28.486 38.9599 28.5003 38.9885C28.5051 38.9933 28.5385 38.9837 28.5576 38.979ZM19.0654 38.979C19.0845 38.9837 19.1179 38.9981 19.1227 38.9885C19.1418 38.9599 19.1179 38.9551 19.0941 38.9503C19.0893 38.936 19.0893 38.9169 19.0797 38.9073C18.1105 37.7279 17.442 36.3861 16.9502 34.9536C16.8929 34.7961 16.8165 34.7531 16.6589 34.7579C15.7661 34.7674 14.878 34.7626 13.9899 34.7626C13.9373 34.7626 13.88 34.734 13.8371 34.7913C13.8275 34.8486 13.8705 34.882 13.8944 34.9154C14.792 36.1522 15.8854 37.174 17.1698 37.9953C17.7667 38.3821 18.3969 38.7211 19.0654 38.979ZM33.9435 24.9022C34.039 24.8736 34.1106 24.8497 34.187 24.8306C34.9128 24.6253 35.3664 24.1478 35.5239 23.422C35.6958 22.6246 35.691 21.8128 35.543 21.0106C35.3855 20.1607 34.8793 19.6259 34.0247 19.4396C33.805 19.3919 33.5854 19.3537 33.361 19.3537C31.4654 19.3489 29.5794 19.3489 27.6838 19.3489C27.5262 19.3489 27.4164 19.4062 27.34 19.5542C27.1443 19.9315 26.9342 20.3087 26.7336 20.6811C25.8264 22.3763 24.9192 24.0618 24.012 25.757C23.9691 25.8429 23.9452 25.9575 23.8019 25.948C23.6778 25.9384 23.6587 25.8381 23.6157 25.757C22.4984 23.7133 21.3859 21.6648 20.2734 19.6163C20.1636 19.4158 20.0251 19.3441 19.7959 19.3441C18.0866 19.3537 16.382 19.3489 14.6679 19.3489C14.3909 19.3489 14.114 19.368 13.8371 19.4062C12.7866 19.5447 12.1134 20.0986 11.8555 21.0345C11.7457 21.4356 11.698 21.8462 11.6932 22.2569C11.6789 23.0448 11.6837 23.8326 11.6884 24.6157C11.6884 25.0694 11.7314 25.523 11.8412 25.9623C12.037 26.7406 12.4906 27.2945 13.2784 27.5333C13.6843 27.6574 14.1045 27.7052 14.5246 27.7099C16.1003 27.7147 17.6712 27.7147 19.2468 27.7099C19.5286 27.7099 19.5954 27.6431 19.5954 27.3566C19.6002 27.0367 19.5954 26.7215 19.5954 26.4016C19.5954 26.0435 19.5381 25.9909 19.18 25.9909C17.6998 25.9909 16.2244 25.9909 14.7443 25.9909C14.5294 25.9909 14.3145 25.9814 14.1045 25.9336C13.7272 25.8429 13.4885 25.6089 13.4169 25.2269C13.3739 24.993 13.35 24.759 13.3357 24.5202C13.3262 24.3197 13.3644 24.2528 13.5888 24.2528C15.4366 24.2624 17.2749 24.2576 19.1227 24.2576C19.476 24.2576 19.5524 24.1812 19.5524 23.8231C19.5524 23.5843 19.5524 23.3456 19.5524 23.1068C19.5477 22.8108 19.4665 22.7248 19.1657 22.7248C18.2346 22.7248 17.3035 22.7248 16.3772 22.7248C15.4318 22.7248 14.4817 22.7201 13.541 22.7296C13.3835 22.7296 13.3357 22.6914 13.3405 22.5291C13.35 22.2903 13.3739 22.0516 13.4217 21.8224C13.4885 21.4881 13.689 21.2541 14.0281 21.1539C14.262 21.087 14.496 21.0727 14.7347 21.0727C16.086 21.0727 17.4372 21.0775 18.7885 21.0679C18.9413 21.0679 19.0224 21.1109 19.0988 21.2541C20.1158 23.1116 21.1472 24.9595 22.1594 26.8218C22.4937 27.433 22.9616 27.7672 23.673 27.7147C23.7828 27.7052 23.8974 27.7052 24.0073 27.7147C24.7187 27.7863 25.1723 27.4378 25.497 26.8313C26.5044 24.9595 27.531 23.1021 28.5433 21.2303C28.6149 21.0966 28.696 21.0393 28.8536 21.044C29.7942 21.0536 30.7301 21.0488 31.6659 21.0488C32.1052 21.0488 32.5397 21.044 32.979 21.0679C33.4612 21.0966 33.7382 21.3831 33.762 21.8606C33.7764 22.1614 33.7764 22.467 33.762 22.7678C33.7382 23.2358 33.4612 23.5127 32.9981 23.5605C32.8405 23.5748 32.6782 23.5796 32.5206 23.5796C31.2553 23.5796 29.9948 23.5843 28.7295 23.5748C28.5098 23.5748 28.4621 23.6369 28.4716 23.8374C28.4907 24.1764 28.486 24.5202 28.4716 24.864C28.4621 25.0455 28.5098 25.1028 28.7008 25.1028C29.7369 25.0932 30.7635 25.1028 31.7996 25.0932C31.962 25.0932 32.0575 25.1458 32.153 25.2747C32.7021 26.0244 33.2559 26.7645 33.8098 27.5046C33.8814 27.6001 33.9483 27.7052 34.0867 27.7052C34.6263 27.7099 35.1706 27.7147 35.7101 27.7052C35.9059 27.7004 35.9775 27.5333 35.8725 27.3661C35.8438 27.3184 35.8056 27.2802 35.7722 27.2324C35.1706 26.4589 34.5642 25.6949 33.9435 24.9022ZM16.3725 18.2125C17.886 18.2125 19.3901 18.2124 20.9037 18.2077C21.1329 18.2077 21.3382 18.2459 21.553 18.3318C22.0544 18.5276 22.4937 18.8237 22.9138 19.1531C23.5775 19.6736 24.2508 19.5256 24.8476 19.1388C25.158 18.9383 25.4588 18.7186 25.7739 18.5228C26.1463 18.2889 26.5426 18.2029 26.9915 18.2029C29.9232 18.2172 32.8596 18.2125 35.7913 18.2125C35.8534 18.2125 35.9202 18.2077 35.9823 18.2125C36.1255 18.222 36.1828 18.1504 36.1828 18.0119C36.1828 17.797 36.1685 17.5821 36.1876 17.3673C36.2067 17.1333 36.1112 17.0664 35.8868 17.0712C35.0369 17.0808 34.1822 17.0712 33.3371 17.0808C33.17 17.0808 33.1222 17.0378 33.127 16.8707C33.1413 16.5698 33.1366 16.2642 33.127 15.9634C33.1222 15.844 33.1557 15.7867 33.2702 15.7294C33.5424 15.5957 33.6427 15.3379 33.5615 15.0466C33.4899 14.7792 33.275 14.6169 32.9742 14.6312C32.8501 14.636 32.7928 14.5978 32.7307 14.4975C32.024 13.3228 31.3126 12.153 30.6059 10.9783C30.5534 10.8876 30.5343 10.8255 30.5964 10.7252C30.7492 10.4626 30.711 10.2 30.5248 9.99943C30.3433 9.81321 30.0855 9.77023 29.8229 9.90393C29.7417 9.94691 29.6844 9.95168 29.6128 9.89438C29.0351 9.48373 28.4573 9.07785 27.8796 8.6672C27.8032 8.61468 27.7697 8.5526 27.7793 8.44755C27.8032 8.1324 27.6934 7.93663 27.4498 7.82203C27.2159 7.7122 26.9676 7.76473 26.7575 7.9796C26.6763 8.06078 26.6095 8.0751 26.5044 8.04645C26.2371 7.97005 25.9697 7.9032 25.6975 7.84113C25.5829 7.81248 25.5161 7.77428 25.4874 7.6358C25.4254 7.35885 25.22 7.21083 24.9622 7.1965C24.69 7.18218 24.4895 7.29678 24.3892 7.56895C24.3415 7.69788 24.2603 7.70265 24.1553 7.7122C23.4247 7.7695 22.699 7.82203 21.9732 7.89365C21.8013 7.90798 21.6867 7.89365 21.5769 7.73608C21.4241 7.51165 21.1615 7.44958 20.9228 7.53553C20.6936 7.6167 20.5217 7.83158 20.536 8.07988C20.5456 8.23745 20.4787 8.3043 20.3594 8.37115C19.4378 8.88685 18.5211 9.40733 17.6043 9.92781C17.5136 9.98033 17.4563 9.99466 17.356 9.92781C17.103 9.76068 16.8117 9.79411 16.616 9.99466C16.4202 10.1904 16.3916 10.4769 16.5539 10.7348C16.6112 10.8303 16.616 10.9019 16.5634 10.9974C16.0191 11.9667 15.4796 12.9361 14.94 13.9006C14.8875 13.9961 14.8445 14.0534 14.7108 14.0486C14.4053 14.0295 14.1904 14.2062 14.114 14.4927C14.0472 14.7458 14.1665 15.0275 14.4196 15.1517C14.5342 15.209 14.5628 15.271 14.5581 15.3904C14.5533 15.8584 14.5437 16.3311 14.5628 16.799C14.5724 17.0282 14.5246 17.1094 14.2716 17.1046C13.4264 17.0855 12.5861 17.0999 11.7457 17.0951C11.5404 17.0951 11.4497 17.1572 11.4688 17.3673C11.4831 17.5153 11.4736 17.6681 11.4736 17.8209C11.4736 18.2172 11.4736 18.2172 11.8555 18.2172C13.35 18.2124 14.8589 18.2125 16.3725 18.2125ZM20.2113 28.8273C19.3423 28.8273 18.4781 28.8321 17.6139 28.8225C17.4277 28.8225 17.3704 28.8607 17.3847 29.0565C17.4611 30.4078 17.6378 31.7401 17.9815 33.0484C18.0197 33.1964 18.0675 33.2346 18.2155 33.2346C19.7577 33.2299 21.2952 33.2299 22.8374 33.2346C23.0284 33.2346 23.0523 33.1678 23.0523 33.0007C23.0475 31.6828 23.0428 30.3648 23.0523 29.0469C23.0523 28.8464 22.9855 28.8177 22.8088 28.8177C21.9398 28.8321 21.0708 28.8273 20.2113 28.8273ZM27.0822 33.2346C27.7029 33.2346 28.3236 33.2346 28.9443 33.2346C29.6367 33.2346 29.6224 33.2346 29.7704 32.547C30.0187 31.3867 30.1714 30.2168 30.2383 29.0326C30.2478 28.8607 30.2096 28.8177 30.0378 28.8177C28.2806 28.8225 26.5283 28.8225 24.7664 28.8177C24.6184 28.8177 24.5611 28.8464 24.5659 29.0087C24.5755 30.3553 24.5755 31.6923 24.5659 33.0389C24.5659 33.206 24.6232 33.2299 24.7664 33.2299C25.5399 33.2346 26.3135 33.2394 27.0822 33.2346ZM31.198 33.2346C32.3678 33.2346 33.4994 33.2346 34.6358 33.2346C34.717 33.2346 34.7552 33.206 34.7934 33.1248C35.4189 31.8212 35.7865 30.4556 35.925 29.0183C35.9393 28.8607 35.8868 28.8177 35.734 28.8177C34.4783 28.8225 33.2273 28.8225 31.9715 28.8177C31.8235 28.8177 31.771 28.8464 31.7614 29.0087C31.7041 30.4269 31.5322 31.826 31.198 33.2346ZM13.7893 28.8273C13.1543 28.8273 12.5145 28.8321 11.8794 28.8225C11.7171 28.8225 11.6837 28.8703 11.698 29.0231C11.8126 30.298 12.1468 31.5109 12.6195 32.6998C12.7818 33.1105 12.9872 33.2681 13.4503 33.2442C14.3766 33.1964 15.3125 33.2299 16.2388 33.2251C16.3008 33.2251 16.4536 33.3063 16.4059 33.1057C16.0716 31.7592 15.9236 30.3887 15.8663 29.004C15.8568 28.8368 15.7947 28.813 15.6562 28.8177C15.0308 28.8321 14.41 28.8273 13.7893 28.8273ZM18.545 34.7674C18.545 34.7961 18.5354 34.8104 18.5402 34.8247C18.9938 35.9946 19.5715 37.0881 20.3832 38.0526C21.0469 38.8357 21.8204 39.466 22.8136 39.7812C23.0141 39.8432 23.0475 39.8003 23.0475 39.6045C23.038 38.0622 23.0428 36.5246 23.0475 34.9775C23.0475 34.8008 23.0093 34.7483 22.8279 34.7531C21.4528 34.7626 20.0824 34.7579 18.7025 34.7579C18.65 34.7579 18.5975 34.7626 18.545 34.7674ZM24.5755 37.3125C24.5755 38.0908 24.5802 38.8691 24.5707 39.6427C24.5707 39.8194 24.6136 39.8385 24.7712 39.7907C25.3872 39.5997 25.9362 39.2893 26.4233 38.8691C27.6647 37.7995 28.4334 36.4196 29.0398 34.9298C29.0971 34.7913 29.0589 34.7531 28.9109 34.7531C27.5215 34.7579 26.132 34.7579 24.7426 34.7531C24.5802 34.7531 24.5659 34.8199 24.5659 34.9536C24.5802 35.7415 24.5755 36.5246 24.5755 37.3125Z" fill="#221F51"/>
<path d="M33.9438 24.9019C34.5645 25.6897 35.1709 26.4633 35.7773 27.2273C35.8107 27.2703 35.8489 27.3132 35.8776 27.361C35.9826 27.5281 35.911 27.6952 35.7153 27.7C35.1757 27.7096 34.6314 27.7 34.0918 27.7C33.9534 27.7 33.8865 27.5997 33.8149 27.4995C33.261 26.7546 32.7072 26.0097 32.1581 25.2695C32.0674 25.1454 31.9719 25.0881 31.8047 25.0881C30.7686 25.0976 29.7421 25.0881 28.7059 25.0976C28.5149 25.0976 28.4672 25.0403 28.4767 24.8589C28.4911 24.5151 28.4958 24.1761 28.4767 23.8323C28.4672 23.6269 28.5149 23.5649 28.7346 23.5696C29.9999 23.584 31.2604 23.5744 32.5257 23.5744C32.6833 23.5744 32.8456 23.5696 33.0032 23.5553C33.4664 23.5076 33.7433 23.2306 33.7672 22.7627C33.7815 22.4618 33.7815 22.1562 33.7672 21.8554C33.7433 21.3779 33.4664 21.0914 32.9841 21.0628C32.5496 21.0341 32.1103 21.0437 31.6711 21.0437C30.7304 21.0389 29.7946 21.0484 28.8587 21.0389C28.7012 21.0389 28.62 21.0914 28.5484 21.2251C27.5314 23.0921 26.5096 24.9544 25.5021 26.8262C25.1774 27.4326 24.7238 27.7764 24.0124 27.7096C23.9026 27.7 23.788 27.7 23.6781 27.7096C22.9667 27.7621 22.4988 27.4278 22.1645 26.8166C21.1523 24.9544 20.121 23.1065 19.1039 21.249C19.0275 21.1057 18.9464 21.0628 18.7936 21.0628C17.4423 21.0675 16.0911 21.0675 14.7398 21.0675C14.5011 21.0675 14.2624 21.0819 14.0332 21.1487C13.6942 21.249 13.4984 21.483 13.4268 21.8172C13.379 22.0512 13.3552 22.2852 13.3456 22.5239C13.3408 22.6863 13.3886 22.7245 13.5461 22.7245C14.4915 22.7197 15.4417 22.7197 16.3823 22.7197C17.3134 22.7197 18.2445 22.7197 19.1708 22.7197C19.4716 22.7197 19.5528 22.8009 19.5575 23.1017C19.5623 23.3404 19.5575 23.5792 19.5575 23.8179C19.5575 24.1808 19.4811 24.2525 19.1278 24.2525C17.28 24.2525 15.4417 24.2572 13.5939 24.2477C13.3695 24.2477 13.3313 24.3145 13.3408 24.5151C13.3552 24.7538 13.3743 24.9926 13.422 25.2218C13.4936 25.6038 13.7324 25.8378 14.1096 25.9285C14.3197 25.9762 14.5345 25.9858 14.7494 25.9858C16.2295 25.9858 17.7049 25.9858 19.1851 25.9858C19.5432 25.9858 19.6005 26.0383 19.6005 26.3964C19.6005 26.7164 19.6053 27.0315 19.6005 27.3514C19.5957 27.6427 19.5337 27.7048 19.252 27.7048C17.6763 27.7048 16.1054 27.7048 14.5297 27.7048C14.1048 27.7048 13.6894 27.6523 13.2835 27.5281C12.4909 27.2894 12.0421 26.7355 11.8463 25.9571C11.7365 25.5178 11.6935 25.0642 11.6935 24.6106C11.6935 23.8227 11.684 23.0348 11.6983 22.2517C11.7079 21.8411 11.7508 21.4304 11.8607 21.0293C12.1137 20.103 12.7822 19.5443 13.8326 19.4058C14.1096 19.3676 14.3865 19.3485 14.6634 19.3485C16.3728 19.3485 18.0774 19.3533 19.7915 19.3438C20.0159 19.3438 20.1592 19.4106 20.269 19.6159C21.3815 21.6644 22.494 23.7129 23.6113 25.7566C23.6543 25.8378 23.6734 25.938 23.7975 25.9476C23.9408 25.9571 23.9646 25.8378 24.0076 25.7566C24.9196 24.0662 25.8268 22.3759 26.7292 20.6808C26.9297 20.3035 27.1398 19.9311 27.3356 19.5538C27.412 19.4058 27.5218 19.3485 27.6794 19.3485C29.5749 19.3533 31.461 19.3533 33.3565 19.3533C33.5809 19.3533 33.8006 19.3915 34.0202 19.4393C34.8749 19.6255 35.381 20.1603 35.5386 21.0102C35.6866 21.8124 35.6914 22.6242 35.5195 23.4216C35.3619 24.1474 34.9083 24.6249 34.1826 24.8302C34.1109 24.8541 34.0393 24.8732 33.9438 24.9019Z" fill="white"/>
<path d="M16.3726 18.2064C14.859 18.2064 13.355 18.2064 11.8414 18.2064C11.4594 18.2064 11.4594 18.2064 11.4594 17.8101C11.4594 17.6573 11.469 17.5045 11.4546 17.3565C11.4355 17.1416 11.5263 17.0795 11.7316 17.0843C12.5767 17.0939 13.4171 17.0748 14.2574 17.0939C14.5105 17.0986 14.5582 17.0175 14.5487 16.7883C14.5582 16.2964 14.5582 15.8667 14.5439 15.3796C14.5391 15.265 14.52 15.1982 14.4054 15.1409C14.1476 15.0167 14.033 14.735 14.0998 14.4819C14.1762 14.1954 14.3911 14.0235 14.6967 14.0379C14.8304 14.0474 14.8734 13.9901 14.9259 13.8898C15.4654 12.9205 16.005 11.9512 16.5493 10.9866C16.6018 10.8911 16.597 10.8195 16.5397 10.724C16.3774 10.4662 16.4108 10.1797 16.6018 9.98388C16.7976 9.7881 17.0888 9.7499 17.3419 9.91703C17.4422 9.98388 17.5042 9.96478 17.5902 9.91703C18.5069 9.39655 19.4285 8.87607 20.3452 8.36037C20.4646 8.29352 20.5314 8.23145 20.5219 8.0691C20.5075 7.8208 20.6747 7.60592 20.9086 7.52475C21.1474 7.4388 21.41 7.50087 21.5628 7.72529C21.6678 7.88765 21.7872 7.90197 21.9591 7.88287C22.6848 7.81602 23.4154 7.75872 24.1411 7.70142C24.2462 7.69187 24.3273 7.69187 24.3751 7.55817C24.4753 7.29077 24.6759 7.17139 24.9481 7.18572C25.2107 7.20004 25.4112 7.34807 25.4733 7.62502C25.5067 7.7635 25.5688 7.8017 25.6834 7.83035C25.9555 7.8972 26.2229 7.96405 26.4903 8.03567C26.5953 8.06432 26.6622 8.05477 26.7434 7.96882C26.9534 7.75395 27.2017 7.7062 27.4357 7.81125C27.6792 7.92585 27.7938 8.11685 27.7651 8.43677C27.7556 8.54182 27.789 8.59912 27.8654 8.65642C28.4432 9.0623 29.0209 9.47295 29.5986 9.8836C29.675 9.93613 29.7276 9.93135 29.8087 9.89315C30.0713 9.75945 30.3292 9.80243 30.5106 9.98865C30.7016 10.1844 30.7398 10.4518 30.5822 10.7145C30.5202 10.8195 30.5393 10.8816 30.5918 10.9675C31.3032 12.1422 32.0147 13.3121 32.7165 14.4867C32.7786 14.587 32.8359 14.6252 32.9601 14.6204C33.2609 14.6061 33.4757 14.7684 33.5474 15.0358C33.6238 15.3271 33.5235 15.5802 33.2561 15.7187C33.1415 15.776 33.1129 15.8333 33.1129 15.9526C33.1129 16.2487 33.1129 16.5352 33.1129 16.8599C33.1033 17.027 33.1558 17.0748 33.3229 17.07C34.1728 17.0604 35.0275 17.0748 35.8727 17.0604C36.0971 17.0557 36.1926 17.1225 36.1735 17.3565C36.1544 17.5714 36.1687 17.7862 36.1687 18.0011C36.1687 18.1396 36.1114 18.2112 35.9681 18.2017C35.9061 18.1969 35.8392 18.2017 35.7772 18.2017C32.8455 18.2017 29.909 18.2112 26.9773 18.1921C26.5285 18.1873 26.1322 18.2781 25.7598 18.512C25.4446 18.7078 25.1438 18.9275 24.8335 19.128C24.2366 19.5148 23.5586 19.6628 22.8997 19.1423C22.4843 18.8129 22.0402 18.5168 21.5389 18.321C21.3288 18.2399 21.1187 18.1969 20.8895 18.1969C19.3903 18.2064 17.8814 18.2064 16.3726 18.2064ZM15.136 14.1525C16.1912 13.4792 17.2464 12.8059 18.3016 12.1326C18.3494 12.104 18.378 12.0658 18.378 11.9989C18.3828 11.7506 18.612 11.7602 18.3732 11.5692C18.2777 11.5214 17.848 11.1872 17.7382 11.1108C17.5615 10.9962 17.3801 10.8052 17.1223 10.9675C17.0793 10.9914 17.0124 10.9914 16.9599 10.9819C16.8596 10.958 16.8167 11.0057 16.7737 11.0821C16.215 12.0944 15.6564 13.1067 15.0978 14.1143C15.0834 14.1334 15.0787 14.1572 15.1025 14.1716C15.1073 14.1859 15.1264 14.162 15.136 14.1525ZM19.4475 11.3591C19.4762 11.3448 19.5048 11.3352 19.5335 11.3161C21.1187 10.2274 22.6991 9.14825 24.2844 8.05955C24.3178 8.03567 24.3512 8.0118 24.3226 7.95927C23.4965 8.02135 22.6657 8.0882 21.8397 8.15027C21.7442 8.15982 21.6965 8.19802 21.6583 8.29352C21.5771 8.49407 21.4195 8.67075 21.1951 8.64687C20.9277 8.61822 20.8561 8.78057 20.7606 8.95247C20.732 9.00977 20.6985 9.0623 20.6651 9.1196C20.2497 9.85973 19.8343 10.5951 19.4189 11.3304C19.3998 11.3352 19.3807 11.3448 19.3998 11.3686C19.4046 11.3782 19.4332 11.3639 19.4475 11.3591ZM25.3539 10.958C25.0674 11.0057 24.7618 11.0583 24.4563 11.106C22.8854 11.3591 21.324 11.6169 19.7531 11.87C19.6433 11.8891 19.5383 11.8843 19.4905 12.0467C19.4428 12.2138 19.5669 12.2377 19.6385 12.3045C19.7484 12.4191 19.8773 12.5146 19.9966 12.6197C21.0662 13.5604 22.1262 14.4963 23.1957 15.4322C23.4631 15.6661 23.826 15.585 23.9597 15.265C24.1841 14.7398 24.4085 14.2145 24.6329 13.6893C24.9624 12.9062 25.2918 12.1279 25.6213 11.3495C25.6929 11.1776 25.5497 10.9532 25.3539 10.958ZM16.6877 17.0891C17.2607 17.0891 17.8337 17.0891 18.4067 17.0891C18.5308 17.0891 18.6167 17.0795 18.6215 16.9172C18.674 15.4751 18.7313 14.0331 18.7934 12.591C18.7982 12.4717 18.7504 12.4287 18.6597 12.3762C18.569 12.3189 18.5022 12.3093 18.4067 12.3714C17.3849 13.0303 16.3678 13.6893 15.346 14.3435C15.2506 14.4055 15.2362 14.4628 15.2506 14.5727C15.2792 14.821 15.1789 15.0358 14.945 15.1409C14.8113 15.203 14.8017 15.2794 14.8017 15.3987C14.8065 15.8906 14.8113 16.3872 14.797 16.879C14.7922 17.0652 14.8543 17.0986 15.0261 17.0986C15.58 17.0843 16.1387 17.0891 16.6877 17.0891ZM18.8603 16.8647C18.7982 17.0557 18.8889 17.0986 19.0894 17.0939C19.7006 17.0843 20.3166 17.1082 20.9277 17.0843C21.2572 17.07 21.5532 17.1368 21.8445 17.261C21.9495 17.3087 22.0164 17.2944 22.1023 17.2276C22.3219 17.0461 22.5559 16.879 22.7803 16.6975C23.0047 16.5161 23.3199 16.3824 23.1909 15.9956C23.1862 15.9813 23.1909 15.9622 23.2005 15.9479C23.253 15.8333 23.2053 15.7664 23.1146 15.6852C21.8827 14.6109 20.6556 13.5365 19.4285 12.4526C19.3473 12.3809 19.2804 12.3666 19.1754 12.4096C19.0656 12.4526 19.0608 12.5194 19.056 12.6101C18.9892 14.0235 18.9271 15.4322 18.8603 16.8647ZM24.3321 15.7712C24.3751 15.7569 24.4228 15.7425 24.4658 15.7282C26.0749 15.2077 27.6792 14.6873 29.2883 14.1763C29.4602 14.1238 29.4936 14.0188 29.5366 13.8803C29.5795 13.737 29.465 13.6988 29.3933 13.6368C28.4623 12.8728 27.5264 12.1088 26.6001 11.3495C26.347 11.1394 25.9507 11.2349 25.8218 11.5358C25.5115 12.2663 25.2059 12.9969 24.8955 13.7227C24.652 14.3005 24.4037 14.8735 24.1602 15.4513C24.0934 15.6184 24.1793 15.7807 24.3321 15.7712ZM31.542 17.07C31.1218 16.2678 30.7112 15.499 30.3101 14.735C30.2576 14.6347 30.1812 14.63 30.0904 14.6395C29.9281 14.6491 29.7849 14.5965 29.6846 14.4772C29.5939 14.3769 29.5175 14.3721 29.3933 14.4103C27.7699 14.9403 26.1513 15.4608 24.5279 15.9861C24.4563 16.0099 24.3512 16.0004 24.3417 16.1054C24.3321 16.2248 24.4563 16.2248 24.5279 16.2535C25.2107 16.5113 25.8982 16.7644 26.5762 17.0175C26.667 17.0509 26.7577 17.0795 26.8532 17.0795C28.4145 17.07 29.9568 17.07 31.542 17.07ZM19.543 11.6217C19.6147 11.6265 19.6385 11.6313 19.6624 11.6265C21.4195 11.34 23.1718 11.0487 24.929 10.767C25.2059 10.724 25.5067 10.7288 25.5735 10.3611C25.5783 10.342 25.6022 10.3229 25.6213 10.3086C25.7072 10.2417 25.6977 10.1749 25.6595 10.0794C25.5019 9.68783 25.3539 9.29628 25.2107 8.89995C25.1104 8.61822 25.0579 8.33172 24.6616 8.28875C24.5279 8.27442 24.4419 8.25532 24.3273 8.33172C23.6875 8.7758 23.0429 9.21033 22.4031 9.64963C21.4625 10.3038 20.5266 10.9484 19.543 11.6217ZM29.9615 12.2425C29.9615 11.9416 29.9568 11.6408 29.9615 11.3352C29.9663 11.1347 29.9854 10.9437 29.7323 10.8673C29.675 10.8482 29.613 10.7765 29.5891 10.7145C29.5413 10.5903 29.4602 10.5808 29.3456 10.5903C28.4909 10.6619 27.6362 10.7288 26.7911 10.7956C26.7052 10.8004 26.624 10.7909 26.5858 10.9055C26.5476 11.0201 26.6335 11.0439 26.6908 11.0917C27.6649 11.8939 28.6389 12.6913 29.6082 13.4887C29.6798 13.5508 29.7323 13.5747 29.8374 13.5269C29.9424 13.4744 29.9663 13.4171 29.9663 13.3073C29.9615 12.9539 29.9615 12.6006 29.9615 12.2425ZM19.6099 10.4518C19.9728 9.81198 20.3357 9.1769 20.6985 8.5466C20.6508 8.49885 20.6221 8.51795 20.5935 8.53227C19.6242 9.0814 18.6597 9.63053 17.7 10.1797C17.5663 10.2561 17.5329 10.6381 17.6522 10.7288C17.9196 10.9389 18.1966 11.1394 18.4687 11.3448C18.5069 11.3734 18.5451 11.4164 18.5929 11.3973M30.2719 10.9675C30.2528 10.9771 30.2289 10.9866 30.2098 10.9962C30.2098 11.7888 30.2098 12.5815 30.2098 13.3741C30.2098 13.4601 30.2576 13.484 30.3196 13.5078C30.5345 13.589 30.6539 13.7609 30.673 13.9806C30.6873 14.1286 30.7541 14.1811 30.8783 14.2241C31.3701 14.4103 31.8523 14.6109 32.3441 14.8019C32.4062 14.8257 32.4778 14.8926 32.5399 14.8305C32.6258 14.7446 32.5208 14.6825 32.4874 14.6252C31.9526 13.7323 31.413 12.8441 30.8735 11.9607C30.6634 11.6313 30.4676 11.297 30.2719 10.9675ZM32.8646 16.0577C32.8264 15.8667 32.8502 15.7616 32.6688 15.6805C32.5065 15.6088 32.4205 15.4465 32.4157 15.2746C32.411 15.1266 32.3393 15.074 32.2152 15.0263C31.733 14.8401 31.2555 14.6443 30.7732 14.4581C30.7016 14.4294 30.6204 14.3387 30.5345 14.4246C30.439 14.5201 30.5297 14.6013 30.5679 14.6777C30.926 15.3558 31.2985 16.029 31.6375 16.7166M26.8341 10.5282C27.6697 10.4614 28.51 10.3993 29.3408 10.3325C29.4077 10.3277 29.4936 10.342 29.5222 10.2561C29.5604 10.1462 29.4506 10.1271 29.3933 10.0889C28.9397 9.769 28.4861 9.44908 28.0373 9.12438C27.7986 8.95725 27.5837 8.7185 27.2542 8.93337C27.2447 8.94292 27.2208 8.94292 27.2065 8.93815C27.068 8.9095 27.0155 8.99067 26.963 9.10527C26.815 9.42042 26.6574 9.7308 26.4998 10.0412C26.3614 10.3372 26.5046 10.5473 26.8341 10.5282ZM25.2489 8.3174C25.2536 8.33172 25.2632 8.34605 25.268 8.36037C25.4828 8.91427 25.6977 9.46818 25.9078 10.0221C25.9364 10.0985 25.9794 10.1319 26.0653 10.1415C26.1513 10.151 26.199 10.1128 26.2325 10.0412C26.4091 9.66872 26.5906 9.30105 26.7672 8.9286C26.7863 8.8904 26.8197 8.85697 26.7911 8.79967C26.6479 8.5084 26.5046 8.23145 26.1035 8.2219C25.9173 8.21712 25.7359 8.13117 25.5544 8.0882C25.4446 8.05955 25.2489 8.21712 25.2489 8.3174ZM26.1752 17.1321C25.5401 16.8933 24.9528 16.6784 24.3703 16.4588C24.2939 16.4301 24.2366 16.4349 24.1793 16.4922C24.122 16.5543 24.1459 16.602 24.1793 16.6641C24.3464 16.9936 24.5135 17.3278 24.6711 17.6621C24.7141 17.7528 24.7475 17.8053 24.8621 17.7337C25.2536 17.4806 25.6834 17.304 26.1752 17.1321ZM23.9167 18.3545C24.0981 18.2733 24.2939 18.1014 24.4897 17.9343C24.547 17.8865 24.4849 17.8292 24.4658 17.7862C24.2987 17.4472 24.122 17.1082 23.9501 16.7692C23.9263 16.7166 23.9024 16.6641 23.8355 16.6737C23.7591 16.6832 23.7735 16.7501 23.7639 16.8026C23.6923 17.1989 23.6254 17.5952 23.5538 17.9963C23.5109 18.2208 23.6254 18.3592 23.9167 18.3545ZM23.2864 18.025C23.3676 17.5714 23.444 17.1703 23.5204 16.7644C23.53 16.7023 23.5395 16.6402 23.4727 16.5973C23.4058 16.5543 23.3581 16.5686 23.3008 16.6116C22.9618 16.879 22.618 17.1416 22.2551 17.4233C22.6132 17.6191 22.957 17.7767 23.2864 18.025Z" fill="white"/>
<path d="M20.2119 28.827C21.0809 28.827 21.9452 28.8318 22.8094 28.8223C22.9813 28.8223 23.0529 28.8509 23.0529 29.0515C23.0433 30.3694 23.0433 31.6873 23.0529 33.0052C23.0529 33.1723 23.0338 33.2391 22.838 33.2391C21.2958 33.2296 19.7583 33.2344 18.2161 33.2391C18.0681 33.2391 18.0203 33.2009 17.9821 33.0529C17.6383 31.7398 17.4617 30.4123 17.3853 29.061C17.3757 28.8652 17.433 28.827 17.6145 28.827C18.4787 28.8318 19.3429 28.827 20.2119 28.827Z" fill="white"/>
<path d="M27.0821 33.2339C26.3086 33.2339 25.5399 33.2292 24.7711 33.2387C24.6231 33.2387 24.5658 33.2148 24.5706 33.0477C24.5801 31.7012 24.5801 30.3642 24.5706 29.0176C24.5706 28.8552 24.6231 28.8218 24.7711 28.8266C26.5282 28.8314 28.2806 28.8314 30.0424 28.8266C30.2143 28.8266 30.2525 28.8696 30.243 29.0415C30.1761 30.2257 30.0233 31.3956 29.7751 32.5559C29.627 33.2387 29.6366 33.2435 28.949 33.2435C28.3235 33.2339 27.7028 33.2339 27.0821 33.2339Z" fill="white"/>
<path d="M31.1982 33.2344C31.5325 31.8257 31.7044 30.4314 31.7569 29.0133C31.7617 28.8509 31.819 28.8223 31.967 28.8223C33.2227 28.827 34.4737 28.827 35.7295 28.8223C35.887 28.8223 35.9396 28.8605 35.9205 29.0228C35.782 30.4601 35.4143 31.8257 34.7888 33.1293C34.7507 33.2057 34.7125 33.2391 34.6313 33.2391C33.4949 33.2344 32.3633 33.2344 31.1982 33.2344Z" fill="white"/>
<path d="M13.7895 28.827C14.4102 28.827 15.031 28.8318 15.6517 28.8223C15.7949 28.8223 15.857 28.8414 15.8618 29.0085C15.9238 30.3932 16.0671 31.7589 16.4013 33.1102C16.4491 33.3108 16.301 33.2296 16.2342 33.2296C15.3031 33.2344 14.372 33.2009 13.4458 33.2487C12.9826 33.2726 12.7773 33.115 12.6149 32.7043C12.1422 31.5154 11.808 30.3025 11.6934 29.0276C11.6791 28.8748 11.7125 28.8223 11.8749 28.827C12.5194 28.8366 13.1497 28.827 13.7895 28.827Z" fill="white"/>
<path d="M18.5453 34.7673C18.5979 34.7625 18.6504 34.7577 18.7029 34.7577C20.078 34.7577 21.4484 34.7625 22.8283 34.7529C23.0097 34.7529 23.0527 34.8007 23.0479 34.9774C23.0384 36.5197 23.0384 38.0572 23.0479 39.6043C23.0479 39.8049 23.0145 39.8431 22.8139 39.781C21.816 39.4659 21.0425 38.8356 20.3836 38.0525C19.5719 37.0927 18.9942 35.9944 18.5406 34.8246C18.5358 34.8102 18.5406 34.7959 18.5453 34.7673Z" fill="white"/>
<path d="M24.5756 37.3124C24.5756 36.5246 24.5804 35.7367 24.5708 34.9584C24.5708 34.8247 24.5851 34.7578 24.7475 34.7578C26.1369 34.7626 27.5264 34.7626 28.9158 34.7578C29.0638 34.7578 29.0973 34.796 29.0447 34.9345C28.4383 36.4243 27.6648 37.8043 26.4282 38.8739C25.9412 39.2941 25.3921 39.6044 24.7761 39.7954C24.6185 39.8432 24.5708 39.8241 24.5756 39.6474C24.5803 38.8643 24.5756 38.0908 24.5756 37.3124Z" fill="white"/>
<path d="M19.0652 38.9774C18.3919 38.7243 17.7664 38.3805 17.1648 37.9937C15.8804 37.1724 14.787 36.1458 13.8894 34.9139C13.8607 34.8757 13.8225 34.847 13.8321 34.7897C13.8703 34.7324 13.9323 34.7611 13.9849 34.7611C14.8777 34.7611 15.7658 34.7658 16.6539 34.7563C16.8115 34.7563 16.8927 34.7945 16.9452 34.9521C17.4418 36.3846 18.1102 37.7263 19.0747 38.9058C19.0843 38.9153 19.0843 38.9344 19.089 38.9488C19.0843 38.9583 19.0747 38.9678 19.0652 38.9774Z" fill="white"/>
<path d="M28.5337 38.9502C28.9825 38.3246 29.4361 37.7039 29.7847 37.0211C30.1332 36.3335 30.4531 35.6315 30.7014 34.9057C30.7301 34.8198 30.7539 34.7529 30.8733 34.7529C31.8521 34.7577 32.8262 34.7577 33.8575 34.7577C33.6379 35.0394 33.4517 35.2925 33.2511 35.5313C31.9667 37.064 30.4102 38.2196 28.5623 38.9788C28.548 38.9693 28.5432 38.9597 28.5337 38.9502Z" fill="white"/>
<path d="M28.5581 38.9792C28.5388 38.9841 28.5049 38.9937 28.5049 38.9889C28.4904 38.9599 28.5146 38.9599 28.5339 38.9502C28.5436 38.9599 28.5485 38.9695 28.5581 38.9792Z" fill="white"/>
<path d="M19.0945 38.9502C19.1138 38.955 19.138 38.9647 19.1235 38.9889C19.1187 38.9937 19.0848 38.9792 19.0654 38.9792C19.0751 38.9695 19.0848 38.9599 19.0945 38.9502Z" fill="white"/>
<path d="M25.3542 10.9581C25.5499 10.9533 25.6932 11.1777 25.6215 11.3544C25.2921 12.1375 24.9626 12.9206 24.6332 13.6942C24.4088 14.2194 24.1843 14.7447 23.9599 15.2699C23.8262 15.5898 23.4586 15.671 23.196 15.437C22.1264 14.4964 21.0664 13.5605 19.9969 12.6246C19.8775 12.5195 19.7534 12.4192 19.6388 12.3094C19.5719 12.2426 19.4478 12.2187 19.4908 12.0516C19.5385 11.8892 19.6436 11.894 19.7534 11.8749C21.3243 11.617 22.8856 11.364 24.4565 11.1109C24.7716 11.0584 25.0724 11.0058 25.3542 10.9581Z" fill="#221F51"/>
<path d="M16.6877 17.0951C16.1291 17.0951 15.5752 17.0903 15.0166 17.0999C14.8447 17.1047 14.7826 17.0712 14.7874 16.8802C14.7921 16.3979 14.7969 15.8966 14.7921 15.4C14.7921 15.2806 14.8017 15.2042 14.9354 15.1421C15.1646 15.0371 15.2696 14.8222 15.241 14.5739C15.2266 14.4593 15.241 14.4068 15.3365 14.3447C16.363 13.6905 17.38 13.0363 18.3971 12.3726C18.4926 12.3105 18.5594 12.3201 18.6501 12.3774C18.7361 12.4299 18.7886 12.4729 18.7838 12.5923C18.7217 14.0343 18.6644 15.4764 18.6119 16.9184C18.6072 17.0808 18.5212 17.0903 18.3971 17.0903C17.8336 17.0951 17.2607 17.0951 16.6877 17.0951Z" fill="#221F51"/>
<path d="M18.8603 16.869C18.9224 15.4365 18.9844 14.0327 19.0465 12.6193C19.0513 12.5285 19.0608 12.4617 19.1659 12.4187C19.2709 12.3757 19.333 12.3901 19.4189 12.4617C20.6461 13.5456 21.8732 14.62 23.105 15.6944C23.191 15.7708 23.2435 15.8424 23.191 15.957C23.1862 15.9713 23.1814 15.9904 23.1814 16.0047C23.3056 16.3915 22.9952 16.5252 22.7708 16.7067C22.5464 16.8833 22.3172 17.0552 22.0928 17.2367C22.0069 17.3035 21.94 17.3179 21.835 17.2701C21.5437 17.1412 21.2477 17.0791 20.9182 17.0934C20.307 17.1221 19.6959 17.0934 19.0799 17.103C18.8937 17.103 18.803 17.0552 18.8603 16.869Z" fill="#221F51"/>
<path d="M24.3324 15.7766C24.1796 15.7814 24.0936 15.6238 24.1653 15.4567C24.4088 14.8789 24.657 14.3059 24.9006 13.7282C25.2109 12.9976 25.5165 12.267 25.8269 11.5412C25.9558 11.2404 26.3521 11.1449 26.6051 11.355C27.5362 12.119 28.4721 12.883 29.3984 13.6422C29.47 13.7043 29.5846 13.7425 29.5416 13.8857C29.4986 14.0242 29.4652 14.1245 29.2933 14.1818C27.6795 14.6879 26.0799 15.2132 24.4708 15.7337C24.4231 15.748 24.3801 15.7623 24.3324 15.7766Z" fill="#221F51"/>
<path d="M31.5419 17.0751C29.9567 17.0751 28.4144 17.0751 26.8626 17.0751C26.7671 17.0751 26.6764 17.0465 26.5857 17.013C25.9029 16.76 25.2153 16.5069 24.5373 16.249C24.4657 16.2204 24.3416 16.2204 24.3511 16.101C24.3559 15.996 24.4657 16.0055 24.5373 15.9816C26.1607 15.4564 27.7794 14.9311 29.4028 14.4059C29.5221 14.3677 29.6033 14.3725 29.694 14.4727C29.7943 14.5921 29.9423 14.6446 30.0999 14.6351C30.1906 14.6303 30.267 14.6303 30.3195 14.7306C30.7158 15.5041 31.1217 16.2729 31.5419 17.0751Z" fill="#221F51"/>
<path d="M19.543 11.6275C20.5218 10.9542 21.4624 10.3048 22.403 9.66017C23.0429 9.22086 23.6874 8.78157 24.3273 8.34226C24.4419 8.26586 24.5278 8.28496 24.6615 8.29929C25.0578 8.34226 25.1103 8.62877 25.2106 8.91049C25.3538 9.30682 25.5018 9.69837 25.6594 10.0899C25.6976 10.1854 25.7072 10.2523 25.6212 10.3191C25.6021 10.3334 25.5782 10.3525 25.5735 10.3716C25.5066 10.7441 25.2058 10.7345 24.9289 10.7775C23.1718 11.0592 21.4194 11.3505 19.6623 11.637C19.6385 11.637 19.6146 11.6322 19.543 11.6275Z" fill="#221F51"/>
<path d="M29.9616 12.2429C29.9616 12.601 29.9568 12.9591 29.9616 13.3125C29.9616 13.4176 29.9377 13.4796 29.8326 13.5322C29.7324 13.5799 29.6799 13.5513 29.6035 13.494C28.6294 12.6918 27.6554 11.8943 26.6861 11.0969C26.6288 11.0491 26.5476 11.0253 26.5811 10.9107C26.6193 10.7961 26.7004 10.8056 26.7864 10.8008C27.641 10.734 28.4957 10.6671 29.3409 10.5955C29.4554 10.586 29.5366 10.5955 29.5844 10.7197C29.6082 10.7817 29.6655 10.8534 29.7276 10.8725C29.9807 10.9489 29.9616 11.1399 29.9568 11.3404C29.9568 11.6412 29.9616 11.9421 29.9616 12.2429Z" fill="#221F51"/>
<path d="M19.4233 11.3409C19.8387 10.6008 20.2541 9.8654 20.6695 9.13005C20.703 9.07275 20.7364 9.02023 20.765 8.96293C20.8605 8.79103 20.9322 8.62868 21.1995 8.65733C21.4192 8.6812 21.5815 8.50453 21.6627 8.30398C21.7009 8.2037 21.7486 8.1655 21.8441 8.16073C22.6749 8.09865 23.5057 8.0318 24.327 7.96973C24.3556 8.02703 24.3222 8.0509 24.2888 8.07C22.7036 9.1587 21.1231 10.2379 19.5379 11.3266C19.5141 11.3457 19.4806 11.3552 19.452 11.3695C19.4424 11.3552 19.4329 11.3504 19.4233 11.3409Z" fill="#221F51"/>
<path d="M18.3255 11.5307C18.5976 11.7169 18.3828 11.7599 18.378 12.0082C18.378 12.075 18.3494 12.1132 18.3016 12.1419C17.2464 12.8152 16.1912 13.4884 15.136 14.1617C15.1264 14.1522 15.1169 14.1426 15.1025 14.1331C15.6612 13.1208 16.2198 12.1085 16.7785 11.1009C16.8214 11.0245 16.8644 10.972 16.9647 11.0007C17.0172 11.015 17.0841 11.015 17.127 10.9863" fill="#221F51"/>
<path d="M20.6988 8.55145C20.3407 9.18175 19.9731 9.8216 19.6102 10.4567C19.5338 10.5856 19.2616 11.0727 19.1852 11.2016C18.8796 11.7412 18.9035 11.2875 18.5932 11.4069C18.5406 11.426 18.5024 11.383 18.469 11.3544C18.1969 11.1491 17.9199 10.9485 17.6525 10.7384C17.5332 10.6429 17.5666 10.2657 17.7003 10.1893C18.6648 9.64016 19.6341 9.09103 20.5938 8.5419C20.6224 8.5228 20.6511 8.5037 20.6988 8.55145Z" fill="#221F51"/>
<path d="M30.2718 10.9727C30.4676 11.3021 30.6681 11.6316 30.8639 11.9611C31.4034 12.8492 31.943 13.7374 32.4777 14.6255C32.5112 14.6828 32.6162 14.7449 32.5303 14.8309C32.4634 14.8929 32.3966 14.8261 32.3345 14.8022C31.8475 14.6112 31.3605 14.4107 30.8687 14.2244C30.7445 14.1767 30.6777 14.1289 30.6633 13.9809C30.6442 13.7613 30.5296 13.5941 30.31 13.5082C30.2479 13.4843 30.2002 13.4604 30.2002 13.3745C30.205 12.5818 30.2002 11.7892 30.2002 10.9965C30.2288 10.9918 30.2479 10.9822 30.2718 10.9727Z" fill="#221F51"/>
<path d="M32.8171 17.038C32.6977 17.1431 32.4208 17.0953 32.2202 17.081C32.0149 17.0667 31.8239 16.9712 31.6473 16.7324C31.3083 16.0448 30.9358 15.3715 30.5777 14.6935C30.5348 14.6123 30.4488 14.5311 30.5443 14.4404C30.6303 14.3545 30.7066 14.4452 30.783 14.4738C31.2653 14.6601 31.7428 14.8558 32.225 15.0421C32.3492 15.0898 32.4208 15.1376 32.4256 15.2904C32.4303 15.4623 32.5163 15.6246 32.6786 15.6962C32.8601 15.7774 32.8839 15.8825 32.8744 16.0735" fill="#221F51"/>
<path d="M26.8341 10.533C26.5046 10.5521 26.3614 10.3372 26.5046 10.0507C26.6574 9.74032 26.8197 9.42995 26.9678 9.1148C27.0203 9.00497 27.0728 8.9238 27.2113 8.94767C27.2256 8.95245 27.2447 8.94767 27.259 8.9429C27.5885 8.72325 27.8081 8.96677 28.0421 9.1339C28.4957 9.45382 28.9493 9.77375 29.3981 10.0984C29.4554 10.1414 29.5652 10.1605 29.527 10.2656C29.4984 10.3515 29.4124 10.3372 29.3456 10.342C28.51 10.4041 27.6744 10.4661 26.8341 10.533Z" fill="#221F51"/>
<path d="M25.249 8.32332C25.249 8.22304 25.4448 8.06547 25.5498 8.08934C25.736 8.13232 25.9175 8.21827 26.0989 8.22304C26.5 8.23259 26.6385 8.50954 26.7865 8.80082C26.8151 8.85812 26.7817 8.89154 26.7626 8.92974C26.586 9.30219 26.4093 9.66987 26.2278 10.0423C26.1944 10.1139 26.1467 10.1474 26.0607 10.1426C25.9748 10.133 25.9366 10.0996 25.9032 10.0232C25.6931 9.46932 25.4782 8.91542 25.2633 8.36152C25.2633 8.35197 25.2538 8.33764 25.249 8.32332Z" fill="#221F51"/>
<path d="M26.1749 17.1371C25.6831 17.309 25.2534 17.4857 24.8619 17.7387C24.752 17.8104 24.7186 17.7578 24.6709 17.6671C24.5085 17.3329 24.3462 16.9986 24.1791 16.6691C24.1504 16.6071 24.1218 16.5593 24.1791 16.4972C24.2364 16.4352 24.2937 16.4352 24.3701 16.4638C24.9574 16.6787 25.5399 16.8983 26.1749 17.1371Z" fill="#221F51"/>
<path d="M23.9165 18.3596C23.6253 18.3596 23.5107 18.2211 23.5537 18.0015C23.6253 17.6051 23.6921 17.2088 23.7638 16.8077C23.7733 16.7552 23.759 16.6883 23.8354 16.6788C23.907 16.6692 23.9261 16.7265 23.95 16.7743C24.1219 17.1133 24.2937 17.4523 24.4656 17.7914C24.4895 17.8343 24.5468 17.8964 24.4895 17.9394C24.2937 18.1065 24.098 18.2784 23.9165 18.3596Z" fill="#221F51"/>
<path d="M23.2862 18.0309C22.9615 17.7778 22.613 17.6203 22.2549 17.4293C22.6178 17.1475 22.9568 16.8849 23.3005 16.6175C23.3578 16.5745 23.4056 16.5554 23.4724 16.6032C23.5393 16.6509 23.5345 16.7082 23.5202 16.7703C23.4438 17.181 23.3674 17.5821 23.2862 18.0309Z" fill="#221F51"/>
<path d="M15.1363 14.1589C15.1266 14.1686 15.1121 14.1928 15.1073 14.1879C15.0831 14.1734 15.0879 14.1492 15.1024 14.1299C15.1121 14.1396 15.1266 14.1444 15.1363 14.1589Z" fill="#221F51"/>
<path d="M19.448 11.365C19.4335 11.3699 19.4045 11.3844 19.3996 11.3795C19.3803 11.3602 19.3996 11.3457 19.419 11.3408C19.4335 11.3505 19.4432 11.3553 19.448 11.365Z" fill="#221F51"/>
<path d="M16.8686 11.1973C17.251 11.1973 17.5609 10.8873 17.5609 10.5049C17.5609 10.1225 17.251 9.8125 16.8686 9.8125C16.4862 9.8125 16.1763 10.1225 16.1763 10.5049C16.1763 10.8873 16.4862 11.1973 16.8686 11.1973Z" fill="white"/>
<path d="M23.8352 16.9234C24.2703 16.9234 24.623 16.5707 24.623 16.1355C24.623 15.7004 24.2703 15.3477 23.8352 15.3477C23.4001 15.3477 23.0474 15.7004 23.0474 16.1355C23.0474 16.5707 23.4001 16.9234 23.8352 16.9234Z" fill="white"/>
<path d="M32.9885 15.9674C33.4236 15.9674 33.7763 15.6146 33.7763 15.1795C33.7763 14.7443 33.4236 14.3916 32.9885 14.3916C32.5534 14.3916 32.2007 14.7443 32.2007 15.1795C32.2007 15.6146 32.5534 15.9674 32.9885 15.9674Z" fill="white"/>
<path d="M16.9167 11.2457C17.3518 11.2457 17.7046 10.8929 17.7046 10.4578C17.7046 10.0227 17.3518 9.66992 16.9167 9.66992C16.4816 9.66992 16.1289 10.0227 16.1289 10.4578C16.1289 10.8929 16.4816 11.2457 16.9167 11.2457Z" fill="white"/>
<path d="M18.97 12.6304C19.4051 12.6304 19.7578 12.2777 19.7578 11.8426C19.7578 11.4074 19.4051 11.0547 18.97 11.0547C18.5349 11.0547 18.1821 11.4074 18.1821 11.8426C18.1821 12.2777 18.5349 12.6304 18.97 12.6304Z" fill="white"/>
<path d="M30.0808 14.8209C30.5159 14.8209 30.8686 14.4681 30.8686 14.033C30.8686 13.5979 30.5159 13.2451 30.0808 13.2451C29.6457 13.2451 29.293 13.5979 29.293 14.033C29.293 14.4681 29.6457 14.8209 30.0808 14.8209Z" fill="white"/>
<path d="M30.0808 11.1968C30.5159 11.1968 30.8686 10.8441 30.8686 10.409C30.8686 9.97384 30.5159 9.62109 30.0808 9.62109C29.6457 9.62109 29.293 9.97384 29.293 10.409C29.293 10.8441 29.6457 11.1968 30.0808 11.1968Z" fill="white"/>
<path d="M26.0271 11.5318C26.4622 11.5318 26.8149 11.1791 26.8149 10.7439C26.8149 10.3088 26.4622 9.95605 26.0271 9.95605C25.592 9.95605 25.2393 10.3088 25.2393 10.7439C25.2393 11.1791 25.592 11.5318 26.0271 11.5318Z" fill="white"/>
<path d="M14.6775 15.3941C15.1126 15.3941 15.4653 15.0414 15.4653 14.6062C15.4653 14.1711 15.1126 13.8184 14.6775 13.8184C14.2424 13.8184 13.8896 14.1711 13.8896 14.6062C13.8896 15.0414 14.2424 15.3941 14.6775 15.3941Z" fill="white"/>
<path d="M27.1731 9.19685C27.6082 9.19685 27.9609 8.8441 27.9609 8.40897C27.9609 7.97384 27.6082 7.62109 27.1731 7.62109C26.738 7.62109 26.3853 7.97384 26.3853 8.40897C26.3853 8.8441 26.738 9.19685 27.1731 9.19685Z" fill="white"/>
<path d="M24.9289 8.6236C25.3641 8.6236 25.7168 8.27086 25.7168 7.83573C25.7168 7.4006 25.3641 7.04785 24.9289 7.04785C24.4938 7.04785 24.1411 7.4006 24.1411 7.83573C24.1411 8.27086 24.4938 8.6236 24.9289 8.6236Z" fill="white"/>
<path d="M21.0662 8.86189C21.5013 8.86189 21.854 8.50914 21.854 8.07401C21.854 7.63888 21.5013 7.28613 21.0662 7.28613C20.631 7.28613 20.2783 7.63888 20.2783 8.07401C20.2783 8.50914 20.631 8.86189 21.0662 8.86189Z" fill="white"/>
<path d="M23.7158 41.6581C21.2902 41.6581 18.9363 41.1853 16.7208 40.2494C14.5817 39.347 12.6575 38.0577 11.0102 36.4103C9.35813 34.7629 8.06418 32.8482 7.15698 30.7185C6.22113 28.5077 5.74365 26.1632 5.74365 23.747C5.74365 21.3308 6.22113 18.9815 7.15698 16.7755C8.06418 14.6411 9.35813 12.7263 11.0102 11.0837C12.6622 9.4363 14.5817 8.14704 16.7208 7.24457C18.9363 6.30866 21.2902 5.83594 23.7158 5.83594C26.1413 5.83594 28.4953 6.30866 30.7108 7.24457C32.8498 8.14704 34.7741 9.4363 36.4213 11.0837C38.0734 12.7311 39.3674 14.6458 40.2746 16.7755C41.2104 18.9863 41.6879 21.3308 41.6879 23.747C41.6879 26.1632 41.2104 28.5125 40.2746 30.7185C39.3674 32.8529 38.0734 34.7677 36.4213 36.4103C34.7693 38.0577 32.8498 39.347 30.7108 40.2494C28.4953 41.1806 26.1413 41.6581 23.7158 41.6581ZM23.7158 6.06514C13.9371 6.06514 5.98239 13.9964 5.98239 23.7422C5.98239 33.488 13.9371 41.4193 23.7158 41.4193C33.4944 41.4193 41.4491 33.488 41.4491 23.7422C41.4444 13.9964 33.4897 6.06514 23.7158 6.06514Z" fill="white"/>
<path d="M23.74 47.54C20.5362 47.54 17.4278 46.9097 14.5009 45.673C11.6742 44.4744 9.13408 42.7602 6.9568 40.578C4.77474 38.3959 3.06538 35.8508 1.86692 33.024C0.630267 30.0921 0 26.9788 0 23.77C0 20.5612 0.625493 17.4479 1.86692 14.516C3.06061 11.6844 4.77474 9.14414 6.9568 6.96196C9.13885 4.77978 11.6742 3.06556 14.5009 1.86703C17.4278 0.625528 20.5362 0 23.74 0C26.9439 0 30.0522 0.630303 32.9791 1.86703C35.8058 3.06556 38.3459 4.77978 40.5232 6.96196C42.7053 9.14414 44.4146 11.6892 45.6131 14.516C46.8497 17.4479 47.48 20.5612 47.48 23.77C47.48 26.9788 46.8545 30.0921 45.6131 33.024C44.4194 35.8556 42.7053 38.3959 40.5232 40.578C38.3412 42.7602 35.8058 44.4744 32.9791 45.673C30.0522 46.9097 26.9439 47.54 23.74 47.54ZM23.74 0.310376C10.8243 0.310376 0.315133 10.8345 0.315133 23.7652C0.315133 36.7007 10.8243 47.2201 23.74 47.2201C36.6557 47.2201 47.1649 36.696 47.1649 23.7652C47.1649 10.8297 36.6557 0.310376 23.74 0.310376Z" fill="white"/>
</svg>
