<svg width="48" height="48" viewBox="0 0 48 48" fill="none" xmlns="http://www.w3.org/2000/svg">
<g clip-path="url(#clip0_383_2)">
<path d="M23.7162 47.3773C36.7167 47.3773 47.2557 36.8163 47.2557 23.7887C47.2557 10.7611 36.7167 0.200195 23.7162 0.200195C10.7157 0.200195 0.176758 10.7611 0.176758 23.7887C0.176758 36.8163 10.7157 47.3773 23.7162 47.3773Z" fill="#221F51"/>
<path d="M23.7064 46.9717C10.8766 46.9669 0.486816 36.5717 0.486816 23.7413C0.486816 10.9156 10.891 0.510852 23.7207 0.515627C36.5552 0.520402 46.9498 10.9347 46.9402 23.7747C46.9307 36.5908 36.5265 46.9765 23.7064 46.9717ZM9.33918 35.9032C9.23414 36.2327 9.12909 36.5526 9.02405 36.8773C8.919 37.2068 8.80441 37.5363 8.70414 37.8705C8.66594 38.0042 8.58477 37.9947 8.48928 37.9851C8.16459 37.9469 7.83991 37.9087 7.51523 37.8753C7.00433 37.818 6.49821 37.7655 5.98732 37.7082C5.97777 37.7321 5.96821 37.7607 5.95867 37.7846C10.8098 43.5528 16.9644 46.5706 24.5515 46.308C31.6563 46.0597 37.343 42.9129 41.731 37.3644C40.8429 37.4312 39.9644 37.5172 39.0954 37.6318C38.89 37.6604 38.8327 37.5697 38.785 37.4121C38.6083 36.8487 38.4269 36.2852 38.2407 35.7122C34.4304 40.1005 29.6652 42.4927 23.8401 42.5357C18.0197 42.5739 13.2163 40.2533 9.33918 35.9032ZM5.55281 23.7222C5.50507 33.6828 13.6126 41.8768 23.6347 41.9197C33.676 41.9627 41.8838 33.85 41.8933 23.7699C41.9077 13.7185 33.7715 5.57714 23.7255 5.57236C13.6412 5.56281 5.52416 13.7758 5.55281 23.7222ZM11.1679 8.90532C11.1822 9.06289 11.144 9.22047 11.3159 9.2921C11.483 9.36372 11.6024 9.26822 11.7218 9.16794C11.822 9.082 11.9271 8.99605 12.0321 8.9101C12.1229 8.83847 12.0799 8.78117 12.0321 8.70955C11.9701 8.61882 11.9175 8.6618 11.8602 8.70955C11.7743 8.78117 11.6931 8.85757 11.6024 8.91964C11.4735 9.00082 11.4114 8.95307 11.4114 8.80505C11.4114 8.72865 11.4401 8.67134 11.483 8.60927C11.7313 8.25114 11.7695 7.86914 11.6167 7.45849C11.4305 6.94757 10.8671 6.61809 10.318 6.71837C9.81188 6.80909 9.45378 7.27227 9.449 7.81662C9.45855 8.49467 10.1366 9.3303 11.1679 8.90532ZM29.4599 3.25171C29.4934 3.34721 29.522 3.40451 29.5316 3.46181C29.6461 4.01093 29.7798 4.56006 29.8562 5.11396C29.8992 5.41479 30.052 5.52939 30.3146 5.58191C30.4196 5.60579 30.4579 5.57714 30.4865 5.48641C30.6918 4.86566 30.8971 4.24491 31.1024 3.62416C31.1406 3.50956 31.1406 3.41883 30.9831 3.38063C30.8351 3.34243 30.7825 3.37108 30.7634 3.52388C30.7539 3.61461 30.7061 3.70056 30.6775 3.79129C30.5295 4.24491 30.3815 4.69376 30.2334 5.15216C30.157 5.10441 30.1666 5.04711 30.157 4.99459C30.0377 4.42159 29.8992 3.84858 29.8037 3.27081C29.7607 3.01773 29.6366 2.92701 29.4217 2.86971C29.2976 2.83628 29.2307 2.82673 29.183 2.98431C28.9968 3.60506 28.7915 4.22104 28.5814 4.83224C28.5336 4.97549 28.5623 5.01846 28.696 5.06144C28.8344 5.10441 28.8726 5.06144 28.9108 4.93729C29.0875 4.37861 29.2689 3.83426 29.4599 3.25171ZM1.93356 21.9936C1.87626 22.2133 1.94789 22.2992 2.18662 22.3183C2.77869 22.3661 3.37553 22.4377 3.96283 22.5141C4.10607 22.5332 4.17291 22.5284 4.20156 22.3565C4.23021 22.1607 4.12517 22.1703 4.00102 22.1607C3.81958 22.1464 3.63814 22.1225 3.4567 22.0987C3.40896 22.0939 3.35644 22.0891 3.32301 22.0605C3.25139 21.9984 3.38508 21.4875 3.48058 21.4493C3.72886 21.349 3.98193 21.2487 4.23499 21.1532C4.41643 21.0864 4.383 20.9192 4.35435 20.8094C4.31138 20.6566 4.19679 20.7951 4.12994 20.8142C3.93418 20.881 3.73841 20.9527 3.55697 21.0434C3.41373 21.115 3.36121 21.0673 3.31346 20.9383C3.20842 20.6709 3.0031 20.542 2.72617 20.5372C2.44446 20.5325 2.24392 20.6709 2.12933 20.9288C1.96699 21.2726 1.99086 21.645 1.93356 21.9936ZM17.3464 4.34996C17.6854 4.01094 17.7427 3.74831 17.547 3.42838C17.3798 3.15143 17.0361 3.06548 16.6302 3.19441C16.358 3.28036 16.0907 3.37586 15.8185 3.47136C15.7564 3.49523 15.68 3.50478 15.7182 3.61461C15.9426 4.25446 16.1671 4.89431 16.3771 5.53416C16.4249 5.68219 16.5061 5.62489 16.5968 5.60579C16.7066 5.57714 16.7305 5.51506 16.6923 5.41479C16.6207 5.21424 16.5538 5.01369 16.487 4.81314C16.4726 4.77016 16.4249 4.71286 16.4774 4.68899C16.635 4.61736 16.8021 4.56006 16.9692 4.51231C17.0695 4.48366 17.1172 4.59349 17.1745 4.64601C17.3464 4.79881 17.5088 4.96116 17.6711 5.12351C17.8048 5.25721 17.948 5.17126 18.034 5.09486C18.1295 5.00891 17.9767 4.95639 17.9289 4.90864C17.7475 4.71286 17.5422 4.53141 17.3464 4.34996ZM20.4404 4.59349C21.0612 4.60304 21.5434 4.12076 21.5577 3.47613C21.5721 2.81241 21.0898 2.27283 20.4739 2.26328C19.8579 2.25373 19.3661 2.68826 19.3423 3.39018C19.3184 4.03958 19.8388 4.58394 20.4404 4.59349ZM38.0258 8.08879C38.0736 8.13654 38.1165 8.16997 38.1547 8.20817C38.3744 8.42304 38.594 8.6427 38.8136 8.86235C38.9091 8.95785 38.9855 8.9292 39.0763 8.83847C39.1765 8.7382 39.1049 8.69044 39.0381 8.62837C38.7277 8.33232 38.4221 8.03627 38.1165 7.73544C38.0258 7.64472 37.9494 7.63039 37.8587 7.72589C37.4003 8.20817 36.9372 8.69044 36.474 9.16794C36.3928 9.24912 36.4167 9.28732 36.4883 9.35417C36.8178 9.66455 37.1425 9.9797 37.4624 10.2996C37.5674 10.3999 37.6295 10.3665 37.7155 10.2805C37.8157 10.185 37.7537 10.1373 37.6868 10.0704C37.5388 9.92717 37.3908 9.77915 37.2428 9.6359C36.856 9.26344 36.8608 9.26345 37.2475 8.87667C37.343 8.78595 37.3908 8.79072 37.4767 8.88144C37.6725 9.082 37.8778 9.26345 38.0736 9.45922C38.1786 9.56427 38.2311 9.49265 38.3075 9.4258C38.3935 9.3494 38.3648 9.30165 38.298 9.2348C38.15 9.1011 38.0115 8.95784 37.8682 8.82414C37.5627 8.53287 37.5627 8.53765 37.8682 8.23204C37.916 8.18429 37.9685 8.14132 38.0258 8.08879ZM42.8483 23.1396C42.8531 23.1396 42.8531 23.1396 42.8578 23.1396C42.8578 23.3688 42.8626 23.6028 42.8578 23.832C42.8531 23.9466 42.896 23.9848 43.0106 23.9848C43.1205 23.98 43.1968 23.9657 43.1825 23.8272C43.1634 23.6219 43.1491 23.4166 43.1491 23.2065C43.1491 22.538 42.9915 22.7099 43.6791 22.6526C43.8271 22.6383 43.851 22.7051 43.851 22.8293C43.8558 23.0823 43.8701 23.3354 43.8844 23.5933C43.8892 23.6888 43.8605 23.7986 44.0324 23.7938C44.2186 23.789 44.1852 23.6744 44.1804 23.5694C44.1757 23.4166 44.1757 23.2686 44.1613 23.1158C44.1279 22.6287 44.1279 22.6335 44.6293 22.6287C44.7677 22.6287 44.8059 22.6717 44.8059 22.8006C44.8059 23.111 44.825 23.4214 44.825 23.7317C44.825 23.8702 44.8728 23.9036 45.0065 23.9036C45.1545 23.9036 45.1497 23.8225 45.1449 23.7222C45.1258 23.2924 45.1068 22.8627 45.0972 22.4377C45.0924 22.2992 45.0542 22.261 44.9158 22.2706C44.2712 22.2944 43.6266 22.3183 42.9868 22.3279C42.834 22.3326 42.7958 22.3947 42.8101 22.5332C42.8244 22.729 42.834 22.9343 42.8483 23.1396ZM2.79301 29.4474C3.40896 29.3042 4.08697 29.1418 4.76976 28.9795C4.83183 28.9651 4.84138 28.9222 4.82705 28.8744C4.71724 28.4065 4.60742 27.9385 4.49282 27.4706C4.46417 27.356 4.383 27.3894 4.30183 27.3989C4.20156 27.4133 4.16814 27.4467 4.19679 27.5565C4.25409 27.7714 4.30661 27.9863 4.35435 28.2011C4.46417 28.7025 4.4594 28.693 3.9676 28.8219C3.78616 28.8696 3.73364 28.8123 3.70499 28.6452C3.65724 28.3826 3.58562 28.1247 3.52355 27.8621C3.49013 27.7284 3.39463 27.7809 3.31346 27.7905C3.20842 27.8048 3.22274 27.8526 3.24661 27.9385C3.29914 28.1343 3.34211 28.3396 3.37076 28.5402C3.38986 28.6691 3.52355 28.8219 3.44238 28.9078C3.35644 28.9938 3.17499 28.9795 3.0413 29.032C2.85986 29.1036 2.80734 29.0177 2.77869 28.8601C2.71662 28.5593 2.64022 28.2584 2.57815 27.9576C2.5495 27.8287 2.47788 27.8478 2.38239 27.8669C2.29167 27.886 2.24392 27.9003 2.27257 28.0197C2.38239 28.4542 2.48266 28.8983 2.5877 29.3376C2.61158 29.4188 2.63067 29.4808 2.79301 29.4474ZM40.0742 12.0043C40.5039 12.2192 40.7665 12.1953 41.0005 11.9279C41.2153 11.6844 41.1915 11.3263 40.9384 10.9681C40.7808 10.7485 40.6137 10.5384 40.4609 10.3187C40.3941 10.2232 40.3463 10.2184 40.2556 10.2853C39.7352 10.6768 39.2099 11.0636 38.6847 11.4409C38.5749 11.522 38.5988 11.565 38.6609 11.6653C38.7372 11.7894 38.8041 11.7512 38.8853 11.6891C39.081 11.5411 39.2768 11.3931 39.4869 11.2403C39.5585 11.331 39.6158 11.4218 39.6922 11.5029C39.845 11.6557 39.8784 11.8085 39.7543 11.9995C39.6588 12.1428 39.6063 12.3147 39.5108 12.4627C39.3818 12.6585 39.4439 12.7922 39.6206 12.9259C39.802 12.6346 39.9262 12.3147 40.0742 12.0043ZM26.1845 4.55051C26.6381 4.55051 26.9914 4.24969 27.0582 3.80084C27.1155 3.39496 27.1633 2.98431 27.2301 2.57843C27.2588 2.41608 27.2206 2.35878 27.0582 2.33491C26.8816 2.31103 26.8816 2.41131 26.8672 2.53068C26.8147 2.92223 26.767 3.31856 26.7049 3.71011C26.6476 4.07779 26.4232 4.25924 26.089 4.23059C25.7309 4.19716 25.5399 3.98229 25.5733 3.60029C25.6115 3.18486 25.6688 2.76466 25.7356 2.35401C25.7595 2.22031 25.75 2.16778 25.6067 2.14868C25.473 2.13436 25.3871 2.1248 25.3728 2.30626C25.3393 2.68348 25.2868 3.06548 25.2247 3.43793C25.1245 4.09211 25.516 4.55529 26.1845 4.55051ZM5.252 12.1953C5.14219 12.2192 5.10876 12.3672 5.02282 12.4675C4.9321 12.5725 4.98939 12.6298 5.04669 12.7062C5.46209 13.2363 5.87272 13.7711 6.2929 14.3011C6.34542 14.3679 6.38839 14.516 6.48866 14.4252C6.56506 14.3536 6.71785 14.2295 6.54596 14.0862C6.24993 13.8475 6.27857 13.5944 6.51254 13.3318C6.53641 13.3031 6.55551 13.2649 6.57461 13.2315C6.8038 12.859 6.8038 12.859 7.24307 12.9402C7.27649 12.945 7.30514 12.9593 7.33857 12.9545C7.47703 12.9402 7.49136 12.8065 7.53911 12.7158C7.57253 12.6489 7.48181 12.6346 7.43406 12.6251C6.71785 12.4866 6.01119 12.3481 5.252 12.1953ZM4.55967 16.2827C4.65994 16.2636 4.71246 16.2541 4.76976 16.2445C5.05147 16.1968 5.33318 16.1538 5.61489 16.106C5.80588 16.0726 5.81542 15.8912 5.81065 15.7766C5.80588 15.6667 5.66263 15.7527 5.59101 15.7622C5.28543 15.8148 4.97984 15.8721 4.67904 15.9437C4.55012 15.9723 4.4785 15.9485 4.40688 15.8339C4.22544 15.5617 4.03445 15.3038 3.83868 15.0412C3.81003 15.003 3.76706 14.8884 3.70976 14.9839C3.63814 15.1033 3.52833 15.2274 3.67157 15.3898C3.84346 15.5856 3.98193 15.81 4.14904 16.0105C4.25409 16.1395 4.22066 16.1729 4.07264 16.192C3.80526 16.2302 3.54265 16.2875 3.27526 16.3257C3.08428 16.3543 3.0413 16.5167 3.06518 16.6456C3.08905 16.7841 3.22752 16.6743 3.30391 16.6647C3.57607 16.6217 3.85301 16.5692 4.12039 16.5024C4.27318 16.4642 4.34958 16.5071 4.43075 16.6265C4.61696 16.9035 4.81273 17.1709 5.00372 17.443C5.03714 17.4908 5.10876 17.5863 5.13741 17.5194C5.18516 17.4001 5.3475 17.2902 5.20426 17.1183C4.98462 16.8605 4.78886 16.5835 4.55967 16.2827ZM3.90553 25.021C3.78138 25.0735 3.72409 25.0974 3.66679 25.1213C3.1368 25.3361 2.61157 25.5606 2.0768 25.7659C1.87626 25.8423 1.94311 25.9903 1.97654 26.1001C2.01951 26.2434 2.12455 26.1288 2.1914 26.1001C2.80257 25.8518 3.40896 25.5892 4.01535 25.3409C4.14904 25.2836 4.22544 25.2263 4.19201 25.064C4.15859 24.9159 4.23021 24.744 3.98193 24.682C3.34211 24.5244 2.71184 24.3334 2.0768 24.1567C2.00996 24.1376 1.92401 24.0564 1.86194 24.1519C1.80942 24.2283 1.84762 24.3238 1.86194 24.4098C1.88104 24.5148 1.98608 24.5005 2.05293 24.5196C2.64977 24.6867 3.24661 24.8443 3.90553 25.021ZM40.6471 14.5924C40.671 14.9075 40.7999 15.194 41.0673 15.4137C41.2965 15.5999 41.5782 15.6142 41.8217 15.4566C42.0557 15.3086 42.1225 15.1128 42.0461 14.7977C41.9936 14.5685 41.9363 14.3345 41.8886 14.1053C41.8647 13.9907 41.8886 13.8857 41.9984 13.814C42.1082 13.7424 42.2228 13.7376 42.3326 13.8045C42.6287 13.9716 42.7433 14.4252 42.5332 14.6783C42.4138 14.8216 42.5475 14.8932 42.5905 14.9553C42.643 15.0317 42.7051 14.9218 42.748 14.8789C42.834 14.7929 42.8865 14.6879 42.9008 14.5637C42.9486 14.2008 42.8005 13.9095 42.5618 13.6612C42.3565 13.4464 42.0939 13.4034 41.8695 13.5275C41.6403 13.6517 41.5543 13.8522 41.6164 14.1578C41.6594 14.3584 41.7167 14.5589 41.774 14.7547C41.8313 14.9505 41.7979 15.1224 41.6069 15.2227C41.4063 15.3277 41.2249 15.2609 41.1007 15.0937C40.9002 14.8311 40.7856 14.5207 41.0434 14.2533C41.1533 14.1435 41.0625 14.0528 41.0005 13.9859C40.905 13.8809 40.8668 14.0194 40.8238 14.0623C40.6949 14.2008 40.6519 14.3775 40.6471 14.5924ZM34.5784 7.45849C34.5784 7.40119 34.5737 7.37732 34.5784 7.35822C34.7456 6.76134 34.8984 6.16446 35.0798 5.57714C35.1466 5.36704 34.9795 5.33839 34.884 5.29541C34.7551 5.23811 34.779 5.39569 34.7551 5.46254C34.6501 5.81111 34.5546 6.15969 34.4591 6.50826C34.3779 6.80432 34.3015 7.10514 34.2156 7.40119C34.1487 7.63517 34.3588 7.66382 34.4686 7.76887C34.5784 7.86914 34.6548 7.81662 34.7503 7.74499C35.2851 7.34389 35.8247 6.95234 36.3546 6.55124C36.4072 6.51304 36.5695 6.48439 36.4645 6.37934C36.3881 6.30294 36.2926 6.14537 36.1255 6.28384C35.9249 6.45097 35.7101 6.60377 35.5 6.76134C35.1992 6.99054 34.9031 7.21497 34.5784 7.45849ZM15.0068 6.24087C14.472 5.78246 13.9325 5.32406 13.4073 4.85611C13.2783 4.74151 13.1924 4.70331 13.0253 4.79881C12.8629 4.88954 12.8295 4.98981 12.8582 5.15694C12.9728 5.84931 13.0826 6.54169 13.2019 7.24839C13.3022 7.17677 13.4884 7.21497 13.455 7.00487C13.3786 6.52259 13.3786 6.52259 13.794 6.29817C13.8561 6.26474 13.9229 6.23609 13.9802 6.18834C14.1999 6.01167 14.3909 6.00211 14.5771 6.24087C14.7012 6.42709 14.854 6.42709 15.0068 6.24087ZM42.8435 26.1097C42.7242 26.0619 42.686 26.1383 42.6621 26.2768C42.6334 26.4344 42.7098 26.4583 42.8387 26.4726C43.3687 26.5394 43.894 26.6206 44.424 26.6827C44.572 26.7018 44.6102 26.7448 44.572 26.888C44.5386 27.0265 44.5386 27.1697 44.5147 27.313C44.5004 27.4228 44.5577 27.4467 44.6484 27.4562C44.7439 27.4658 44.8155 27.4706 44.8346 27.3416C44.9014 26.8403 44.9683 26.3341 45.0399 25.8327C45.0542 25.7229 45.0447 25.6561 44.9062 25.6417C44.7677 25.6274 44.72 25.6704 44.7104 25.8041C44.7009 25.9282 44.6627 26.0572 44.6627 26.1813C44.6627 26.3484 44.5911 26.3484 44.4574 26.3293C43.9322 26.2482 43.4022 26.1813 42.8435 26.1097ZM42.4663 19.9069C42.452 20.0741 42.5188 20.1266 42.6955 20.0836C43.087 19.9929 43.4881 19.9213 43.8844 19.8401C44.424 19.7303 44.424 19.7303 44.5386 20.2651C44.5624 20.3653 44.5624 20.4608 44.7295 20.4274C44.8919 20.394 44.8585 20.2985 44.8394 20.203C44.7486 19.7303 44.6531 19.2575 44.5624 18.78C44.5433 18.6702 44.5051 18.6129 44.3762 18.6416C44.2521 18.6654 44.2186 18.7275 44.2521 18.8373C44.2807 18.9424 44.3046 19.0522 44.3332 19.1573C44.381 19.3339 44.3332 19.4151 44.1327 19.4485C43.6314 19.5297 43.1348 19.6395 42.6382 19.7398C42.5427 19.7589 42.4233 19.7541 42.4663 19.9069ZM7.03776 9.79825C6.93749 9.83167 6.89929 9.91762 6.84199 9.9797C6.78947 10.037 6.83244 10.0943 6.88497 10.142C7.39109 10.5861 7.89243 11.035 8.39378 11.4791C8.45585 11.5316 8.50838 11.5602 8.57045 11.4838C8.85216 11.1543 9.13864 10.8249 9.42513 10.4954C9.5254 10.3808 9.4299 10.333 9.36783 10.2662C9.29143 10.1802 9.24369 10.2184 9.18639 10.2901C9.00495 10.5097 8.80441 10.7151 8.62775 10.9395C8.52748 11.0636 8.4654 11.0636 8.35081 10.9586C7.96883 10.6052 7.57253 10.2614 7.181 9.91762C7.13325 9.86987 7.08551 9.83167 7.03776 9.79825ZM44.2425 29.5668C44.3953 29.605 44.338 29.4283 44.3858 29.3519C44.4622 29.2278 44.3523 29.2278 44.2807 29.2087C43.8844 29.0988 43.4833 28.9938 43.087 28.884C42.834 28.8171 42.5809 28.7503 42.3326 28.6739C42.1655 28.6261 42.1751 28.7694 42.1416 28.8505C42.1034 28.9317 42.1225 28.9986 42.2276 29.0272C42.8913 29.1943 43.5454 29.3758 44.2425 29.5668ZM33.2606 4.41681C33.2272 4.32609 33.1269 4.32131 33.0553 4.27834C32.9694 4.22581 32.9216 4.28311 32.8882 4.35474C32.5969 4.95161 32.3104 5.54849 32.0096 6.13581C31.938 6.27429 32.0001 6.30771 32.0956 6.36501C32.215 6.43186 32.277 6.40799 32.3343 6.28862C32.616 5.70606 32.9025 5.12829 33.189 4.55051C33.2129 4.50754 33.2367 4.46456 33.2606 4.41681ZM41.8981 17.5863C41.9268 17.5767 41.9459 17.5672 41.9697 17.5624C42.6 17.3475 43.2303 17.1279 43.8653 16.913C44.0038 16.8653 43.9465 16.7984 43.9178 16.7172C43.8892 16.6313 43.8892 16.5453 43.7507 16.5931C43.1157 16.8175 42.4759 17.0372 41.8361 17.2568C41.7644 17.2807 41.7119 17.3189 41.7644 17.3905C41.8122 17.4526 41.7788 17.5767 41.8981 17.5863Z" fill="white"/>
<path d="M23.716 46.7285C20.6124 46.7285 17.6043 46.122 14.7681 44.9187C12.0322 43.7632 9.57317 42.1015 7.46274 39.9909C5.35231 37.8804 3.69547 35.4212 2.53521 32.6852C1.33675 29.8488 0.725586 26.8405 0.725586 23.7368C0.725586 20.633 1.33198 17.6248 2.53521 14.7884C3.69547 12.0523 5.35231 9.59321 7.46274 7.48266C9.57317 5.3721 12.0322 3.71517 14.7681 2.55484C17.6043 1.35632 20.6124 0.745117 23.716 0.745117C26.8195 0.745117 29.8276 1.35154 32.6638 2.55484C35.3997 3.71517 37.8587 5.3721 39.9692 7.48266C42.0796 9.59321 43.7364 12.0523 44.8967 14.7884C46.0951 17.6248 46.7063 20.633 46.7063 23.7368C46.7063 26.8405 46.0999 29.8488 44.8967 32.6852C43.7364 35.4212 42.0796 37.8804 39.9692 39.9909C37.8587 42.1015 35.3997 43.7584 32.6638 44.9187C29.8276 46.122 26.8148 46.7285 23.716 46.7285ZM23.716 5.5249C13.6699 5.5249 5.49555 13.6997 5.49555 23.7463C5.49555 33.793 13.6699 41.9678 23.716 41.9678C33.762 41.9678 41.9363 33.793 41.9363 23.7463C41.9316 13.6949 33.762 5.5249 23.716 5.5249Z" fill="white"/>
<path d="M9.37769 35.8598C13.2548 40.2051 18.0582 42.5305 23.8833 42.4876C29.7133 42.4446 34.4785 40.0523 38.284 35.6641C38.4654 36.2371 38.6516 36.8005 38.8283 37.364C38.876 37.5215 38.9333 37.6123 39.1386 37.5836C40.0124 37.4738 40.8862 37.3831 41.7743 37.3162C37.3863 42.8648 31.6948 46.0115 24.5948 46.2598C17.0077 46.5272 10.8435 43.5094 6.00195 37.7364C6.0115 37.7125 6.02105 37.6839 6.0306 37.66C6.5415 37.7173 7.04762 37.7698 7.55852 37.8271C7.8832 37.8653 8.20788 37.8988 8.53256 37.937C8.63283 37.9465 8.70923 37.9561 8.74743 37.8224C8.84292 37.4881 8.95752 37.1586 9.06734 36.8292C9.16761 36.514 9.27265 36.1893 9.37769 35.8598ZM22.3793 44.4262C22.3793 44.5122 22.3745 44.6029 22.3793 44.6888C22.3936 45.047 22.6753 45.3144 23.0478 45.3191C23.4393 45.3287 23.721 45.0947 23.7449 44.727C23.7544 44.5599 23.7497 44.3928 23.7497 44.2257C23.7449 43.8723 23.5587 43.6383 23.2435 43.5763C22.8759 43.5046 22.5798 43.6479 22.4318 43.9583C22.3602 44.1111 22.3889 44.2686 22.3793 44.4262ZM24.633 44.9085C24.7571 44.7939 24.8431 44.7223 24.9147 44.6411C24.9959 44.5551 25.0818 44.4692 25.1439 44.3689C25.2919 44.1349 25.2632 43.8914 25.0723 43.7243C24.7905 43.476 24.2987 43.5094 24.0648 43.8055C24.0266 43.8532 23.9024 43.9439 24.0027 43.9869C24.1125 44.0347 24.2271 44.24 24.3799 44.0633C24.4897 43.9392 24.6234 43.8771 24.7476 43.9965C24.8813 44.1206 24.7667 44.24 24.6807 44.345C24.633 44.3976 24.5805 44.4501 24.5279 44.4978C24.3751 44.6411 24.2271 44.7796 24.0743 44.918C23.9741 45.0088 23.9979 45.1281 24.017 45.2284C24.0409 45.3382 24.1507 45.2857 24.2176 45.2857C24.5041 45.2905 24.7905 45.2809 25.077 45.2905C25.1964 45.2953 25.2346 45.2618 25.2441 45.1329C25.2537 44.9467 25.2012 44.8751 25.0102 44.8989C24.9051 44.9228 24.8001 44.9085 24.633 44.9085ZM26.1513 44.9085C26.2612 44.8034 26.3376 44.7366 26.4044 44.6697C26.4808 44.5886 26.562 44.5122 26.624 44.4214C26.8198 44.1397 26.7721 43.858 26.5095 43.6765C26.2086 43.4664 25.7312 43.5619 25.5402 43.8675C25.5115 43.9105 25.4495 43.9821 25.5259 44.006C25.6596 44.049 25.7789 44.2639 25.946 44.0347C26.0272 43.9248 26.1514 43.9201 26.2659 43.9965C26.3996 44.092 26.328 44.1875 26.2564 44.2782C26.1991 44.3498 26.137 44.4214 26.0654 44.4883C25.9078 44.6411 25.7455 44.7939 25.5784 44.9419C25.4733 45.0326 25.5115 45.152 25.5306 45.2523C25.5497 45.3382 25.6548 45.2905 25.7168 45.2953C26.0081 45.3 26.3041 45.2905 26.6002 45.3C26.7243 45.3048 26.753 45.2618 26.7625 45.1377C26.7768 44.9419 26.7052 44.8846 26.5238 44.9085C26.4235 44.918 26.3137 44.9085 26.1513 44.9085ZM21.5294 44.9085C21.6965 44.7318 21.8636 44.622 21.9735 44.4596C22.0737 44.3164 22.1597 44.1684 22.1024 43.9774C22.0403 43.7529 21.8875 43.6288 21.6726 43.581C21.3862 43.519 21.1331 43.5906 20.9517 43.8246C20.9182 43.8628 20.7798 43.9392 20.9135 44.0012C21.0185 44.049 21.1235 44.2066 21.2572 44.0776C21.3814 43.9583 21.5151 43.8723 21.644 44.0012C21.7872 44.1445 21.6488 44.2782 21.5437 44.3832C21.3575 44.5647 21.1665 44.7461 20.9755 44.9228C20.8753 45.0135 20.8991 45.1329 20.9182 45.2332C20.9373 45.343 21.0519 45.2905 21.1188 45.2905C21.3957 45.2953 21.6726 45.2857 21.9544 45.2953C22.1167 45.3048 22.1453 45.2427 22.1501 45.0947C22.1549 44.9228 22.088 44.8942 21.9448 44.9037C21.8159 44.918 21.6917 44.9085 21.5294 44.9085ZM20.2832 44.0585C20.0683 44.0585 19.906 44.2161 19.906 44.431C19.906 44.6459 20.0636 44.813 20.2736 44.8178C20.4837 44.8225 20.6509 44.6506 20.6556 44.4405C20.6556 44.2304 20.4933 44.0633 20.2832 44.0585ZM27.3785 44.0585C27.1684 44.0585 27.006 44.2209 27.0013 44.431C26.9965 44.6411 27.1636 44.813 27.3689 44.813C27.5838 44.8178 27.7652 44.6363 27.7604 44.4262C27.7604 44.2257 27.5885 44.0633 27.3785 44.0585Z" fill="#221F51"/>
<path d="M22.3791 44.4267C22.3839 44.2691 22.36 44.1115 22.4316 43.9587C22.5796 43.6484 22.8757 43.5051 23.2433 43.5767C23.5585 43.6388 23.7447 43.8728 23.7494 44.2261C23.7542 44.3933 23.759 44.5604 23.7447 44.7275C23.7208 45.0952 23.4391 45.3244 23.0476 45.3196C22.6751 45.3101 22.3886 45.0474 22.3791 44.6893C22.3791 44.5986 22.3791 44.5126 22.3791 44.4267ZM23.3436 44.4506C23.3436 44.3646 23.3436 44.2739 23.3436 44.1879C23.3436 44.0112 23.2242 43.9539 23.081 43.9492C22.9377 43.9444 22.8136 44.0017 22.8088 44.1784C22.8041 44.3551 22.8041 44.527 22.8088 44.7036C22.8136 44.8803 22.933 44.9328 23.081 44.9281C23.229 44.9233 23.3436 44.8708 23.3436 44.6893C23.3436 44.6129 23.3436 44.5317 23.3436 44.4506Z" fill="white"/>
<path d="M24.6326 44.9087C24.7997 44.9087 24.9095 44.9183 25.0194 44.9039C25.2104 44.8801 25.2629 44.9517 25.2533 45.1379C25.2438 45.2668 25.2056 45.3003 25.0862 45.2955C24.7997 45.2859 24.5132 45.2955 24.2268 45.2907C24.1551 45.2907 24.0453 45.3432 24.0262 45.2334C24.0071 45.1331 23.9832 45.0138 24.0835 44.923C24.2363 44.7846 24.3891 44.6461 24.5371 44.5028C24.5896 44.4551 24.6422 44.4073 24.6899 44.35C24.7759 44.245 24.8904 44.1208 24.7568 44.0015C24.6326 43.8869 24.4989 43.9442 24.3891 44.0683C24.2315 44.245 24.1217 44.0349 24.0119 43.9919C23.9116 43.9489 24.0358 43.8582 24.074 43.8105C24.3032 43.5144 24.7997 43.481 25.0814 43.7293C25.2677 43.8964 25.3011 44.1447 25.1531 44.3739C25.091 44.4742 25.005 44.5601 24.9239 44.6461C24.8332 44.7225 24.7568 44.7941 24.6326 44.9087Z" fill="white"/>
<path d="M26.1511 44.9088C26.3134 44.9088 26.4232 44.9184 26.5283 44.9088C26.7097 44.8849 26.7813 44.947 26.767 45.138C26.7575 45.2622 26.7288 45.3004 26.6047 45.3004C26.3134 45.2908 26.0174 45.3004 25.7213 45.2956C25.6593 45.2956 25.5542 45.3433 25.5351 45.2526C25.516 45.1523 25.4778 45.033 25.5829 44.9422C25.7452 44.7942 25.9076 44.6414 26.0699 44.4886C26.1367 44.4218 26.1988 44.3501 26.2609 44.2785C26.3325 44.1878 26.3994 44.0875 26.2704 43.9968C26.1558 43.9156 26.0317 43.9252 25.9505 44.035C25.7882 44.2642 25.664 44.0445 25.5304 44.0063C25.454 43.9825 25.516 43.9108 25.5447 43.8679C25.7357 43.5623 26.2179 43.4715 26.5139 43.6769C26.7766 43.8583 26.8243 44.1448 26.6285 44.4218C26.5665 44.5125 26.4853 44.5889 26.4089 44.6701C26.3373 44.7417 26.2609 44.8038 26.1511 44.9088Z" fill="white"/>
<path d="M21.5294 44.909C21.6965 44.909 21.8159 44.9185 21.94 44.909C22.0833 44.8994 22.1501 44.9281 22.1453 45.1C22.1406 45.2528 22.1119 45.3101 21.9496 45.3005C21.6726 45.2862 21.3957 45.3005 21.114 45.2958C21.0424 45.2958 20.9325 45.3483 20.9135 45.2385C20.8944 45.1382 20.8705 45.0188 20.9707 44.9281C21.1617 44.7514 21.3527 44.57 21.5389 44.3885C21.6488 44.2835 21.7872 44.1545 21.6392 44.0065C21.5103 43.8776 21.3718 43.9635 21.2525 44.0829C21.1235 44.2118 21.0137 44.0543 20.9087 44.0065C20.775 43.9444 20.9135 43.868 20.9469 43.8298C21.1283 43.5911 21.3861 43.5242 21.6679 43.5863C21.8827 43.6341 22.0355 43.7582 22.0976 43.9826C22.1549 44.1736 22.0642 44.3217 21.9687 44.4649C21.8636 44.6225 21.6965 44.7323 21.5294 44.909Z" fill="white"/>
<path d="M20.2831 44.0586C20.4932 44.0586 20.6603 44.2305 20.6555 44.4406C20.6507 44.6507 20.4836 44.8178 20.2735 44.8178C20.0634 44.813 19.9011 44.6459 19.9059 44.431C19.9059 44.2209 20.0682 44.0586 20.2831 44.0586Z" fill="white"/>
<path d="M27.3783 44.0586C27.5884 44.0586 27.7555 44.2209 27.7603 44.431C27.765 44.6411 27.5836 44.8226 27.3687 44.8178C27.1586 44.813 26.9963 44.6459 27.0011 44.4358C27.0059 44.2209 27.1682 44.0586 27.3783 44.0586Z" fill="white"/>
<path d="M4.20676 24.0098L4.30703 25.7001L1.94353 25.8434L1.84326 24.1769L2.09155 24.1626L2.17272 25.533L2.94623 25.4852L2.8746 24.2628L3.12289 24.2485L3.19451 25.4709L4.03964 25.4184L3.95369 24.0241L4.20676 24.0098Z" fill="#221F51"/>
<path d="M1.91462 25.8666L1.80957 24.1524L2.1056 24.1333L2.18677 25.5037L2.91253 25.4607L2.84091 24.2383L3.13695 24.2192L3.20857 25.4416L4.00595 25.3939L3.92001 23.9996L4.22559 23.9805L4.33063 25.7186H4.30676L1.91462 25.8666ZM1.86209 24.2001L1.95759 25.8188L4.27333 25.6804L4.17784 24.0378L3.96775 24.0473L4.0537 25.4416L3.16082 25.4989L3.0892 24.2765L2.88866 24.2861L2.96028 25.5085L2.13903 25.561L2.05786 24.1906L1.86209 24.2001Z" fill="#221F51"/>
<path d="M4.33063 21.7032L4.28766 22.195L1.85254 22.7966L1.88119 22.4815L4.17306 21.9371L2.01965 20.9821L2.04831 20.667L4.33063 21.7032Z" fill="#221F51"/>
<path d="M1.82373 22.8255L1.85715 22.4626L4.0965 21.9326L1.99085 20.9967L2.02427 20.6338L4.35434 21.6891L4.30659 22.2143L1.82373 22.8255ZM1.90013 22.496L1.87625 22.7587L4.26362 22.1713L4.30182 21.7129L2.06247 20.7006L2.03859 20.9633L4.24452 21.9374L1.90013 22.496Z" fill="#221F51"/>
<path d="M4.10156 18.2267L5.06128 17.9927L4.98011 18.3174L3.89625 18.5753L3.72436 19.2581L4.6793 19.5016L4.60768 19.7929L2.31104 19.2103L2.56887 18.198C2.60707 18.0452 2.66914 17.9115 2.75509 17.8065C2.84103 17.6967 2.9413 17.6203 3.06067 17.5773C3.18004 17.5343 3.30418 17.5295 3.43787 17.5629C3.62409 17.6107 3.76256 17.711 3.8485 17.8638C3.93445 18.0166 3.96787 18.198 3.93922 18.4034C3.97742 18.2983 4.02994 18.241 4.10156 18.2267ZM3.66706 18.4893C3.70526 18.3317 3.70048 18.1933 3.64319 18.0739C3.58589 17.9545 3.49517 17.8781 3.36148 17.8447C3.22778 17.8113 3.11319 17.8351 3.00815 17.9163C2.9031 17.9975 2.83148 18.1121 2.79328 18.2697L2.61662 18.9764L3.4904 19.196L3.66706 18.4893Z" fill="#221F51"/>
<path d="M4.62174 19.8211L2.27734 19.229L2.53995 18.1928C2.57815 18.0352 2.645 17.8968 2.73094 17.7917C2.82166 17.6771 2.92193 17.6007 3.04608 17.5577C3.17022 17.5148 3.29914 17.51 3.4376 17.5434C3.63337 17.5912 3.77661 17.6962 3.86256 17.8538C3.93418 17.9827 3.97238 18.1307 3.9676 18.2931C4.0058 18.2453 4.044 18.2167 4.09652 18.2071L5.09444 17.9636L4.99894 18.3408L3.91508 18.5987L3.75274 19.2433L4.70769 19.4868L4.62174 19.8211ZM2.33464 19.1956L4.58832 19.7638L4.65039 19.5203L3.69544 19.2767L3.87688 18.5557L3.8912 18.5509L3.91031 18.3981C3.93895 18.2024 3.91031 18.0257 3.82436 17.8729C3.74319 17.7296 3.60949 17.6294 3.42805 17.5816C3.29914 17.5482 3.17977 17.553 3.06518 17.5959C2.95058 17.6389 2.85509 17.7105 2.76914 17.8156C2.68797 17.9159 2.6259 18.0448 2.5877 18.1976L2.33464 19.1956ZM5.02759 18.0257L4.10607 18.2501C4.044 18.2644 3.99625 18.3122 3.95805 18.4125L3.90075 18.5509L4.96075 18.2979L5.02759 18.0257ZM3.50445 19.2242L2.5877 18.995L2.76914 18.2644C2.80734 18.1021 2.87896 17.9827 2.99355 17.8968C3.10337 17.8108 3.22752 17.7869 3.36598 17.8204C3.50445 17.8538 3.59995 17.935 3.66202 18.0639C3.71931 18.1833 3.72886 18.3265 3.68589 18.4936L3.50445 19.2242ZM2.645 18.9616L3.47103 19.1717L3.64292 18.4889C3.68112 18.3313 3.67157 18.2024 3.61904 18.0878C3.56175 17.9732 3.4758 17.9015 3.35166 17.8729C3.22274 17.8395 3.1177 17.8633 3.01743 17.9397C2.91716 18.0209 2.84554 18.1307 2.81212 18.2788L2.645 18.9616Z" fill="#221F51"/>
<path d="M5.46699 14.139L6.14501 15.2563L5.98266 15.5619L5.276 14.3013L3.90088 14.4255L4.05844 14.1294L5.30943 14.053L4.66006 12.9834L4.81763 12.6826L5.49564 13.8859L6.93284 13.7618L6.77527 14.0626L5.46699 14.139Z" fill="#221F51"/>
<path d="M5.98267 15.6144L5.26168 14.3299L3.85791 14.4588L4.04413 14.1102L5.26646 14.0338L4.63142 12.9881L4.81763 12.6348L5.50997 13.8619L6.97582 13.7378L6.7896 14.0911L5.50997 14.1675L6.17366 15.261L5.98267 15.6144ZM5.29033 14.2774L5.98267 15.5141L6.11636 15.261L5.4288 14.1198L6.76095 14.0434L6.88987 13.7951L5.48132 13.9145L4.82241 12.735L4.69349 12.9833L5.35718 14.072L4.08232 14.1484L3.9534 14.392L5.29033 14.2774Z" fill="#221F51"/>
<path d="M7.31527 12.1196L7.6686 12.6544L7.48238 12.9027L6.12158 10.7683L6.38897 10.4102L8.80976 11.136L8.62355 11.3843L8.01238 11.1933L7.31527 12.1196ZM6.34122 10.6537L7.16247 11.9L7.76409 11.1025L6.34122 10.6537Z" fill="#221F51"/>
<path d="M7.47745 12.9453L6.09277 10.7726L6.37926 10.3906L8.85257 11.1308L8.63771 11.4173L8.02654 11.2263L7.34375 12.124L7.69708 12.6588L7.47745 12.9453ZM6.15007 10.7678L7.48222 12.8545L7.63979 12.6492L7.28646 12.1144L8.00744 11.1642L8.61861 11.3552L8.77617 11.1498L6.40313 10.4384L6.15007 10.7678ZM7.16231 11.9425L6.28854 10.615L7.8069 11.0925L7.16231 11.9425ZM6.39835 10.6962L7.16231 11.8566L7.72096 11.1117L6.39835 10.6962Z" fill="#221F51"/>
<path d="M10.7242 9.18285L9.59737 10.2811L7.94531 8.5812L8.16018 8.37109L9.63557 9.88477L10.5475 8.99662L10.7242 9.18285Z" fill="#221F51"/>
<path d="M9.5971 10.31L7.91162 8.58141L8.15991 8.33789L9.6353 9.85157L10.5473 8.96342L10.7621 9.18307L9.5971 10.31ZM7.97847 8.58141L9.60188 10.2431L10.6953 9.17829L10.5473 9.02549L9.63053 9.91842L8.15513 8.40474L7.97847 8.58141Z" fill="#221F51"/>
<path d="M12.6102 8.07566C12.634 8.11386 12.6722 8.13295 12.7152 8.13773C12.7582 8.1425 12.8011 8.1234 12.8489 8.08998L13.2261 7.82258L13.3311 7.9706L12.8202 8.32873C12.7438 8.38126 12.6675 8.40513 12.5911 8.40036C12.5147 8.39558 12.4574 8.35738 12.4096 8.29053C12.3666 8.22846 12.3523 8.1616 12.3666 8.08043C12.381 8.00403 12.4144 7.92285 12.4669 7.84168C12.2902 7.96105 12.104 8.02313 11.9035 8.03268C11.703 8.04223 11.512 7.99925 11.3257 7.90853C11.1443 7.8178 10.9867 7.67933 10.8578 7.49788C10.7289 7.31165 10.6477 7.11588 10.6239 6.91055C10.6 6.70045 10.6286 6.50467 10.7098 6.31845C10.791 6.13222 10.9199 5.97465 11.0966 5.8505C11.2732 5.72635 11.4642 5.65473 11.6695 5.6404C11.8748 5.62608 12.0706 5.66905 12.2568 5.75978C12.443 5.8505 12.6006 5.98897 12.7295 6.1752C12.8393 6.33277 12.9157 6.50468 12.9492 6.68613C12.9826 6.86758 12.973 7.04425 12.9253 7.21615C12.8775 7.38805 12.7868 7.54085 12.6627 7.67455C12.572 7.86078 12.5529 7.99448 12.6102 8.07566ZM11.469 7.65545C11.6122 7.73185 11.7602 7.77005 11.913 7.76528C12.0658 7.7605 12.2139 7.71275 12.3475 7.61725C12.4812 7.52175 12.5767 7.40238 12.634 7.25435C12.6913 7.10633 12.7056 6.95353 12.677 6.79595C12.6531 6.6336 12.5911 6.48558 12.4956 6.35187C12.3953 6.20862 12.2711 6.0988 12.1279 6.0224C11.9847 5.946 11.8366 5.9078 11.6791 5.91257C11.5215 5.91735 11.3783 5.9651 11.2446 6.0606C11.1109 6.1561 11.0154 6.27548 10.9581 6.41873C10.9008 6.56198 10.8865 6.71478 10.9103 6.87235C10.9342 7.02993 10.9963 7.18273 11.0966 7.3212C11.2064 7.46445 11.3257 7.57428 11.469 7.65545Z" fill="#221F51"/>
<path d="M12.6052 8.42391C12.6004 8.42391 12.5909 8.42391 12.5861 8.42391C12.5049 8.41913 12.4429 8.38093 12.3856 8.30453C12.3378 8.23768 12.3235 8.16128 12.3378 8.07533C12.3474 8.02281 12.3665 7.96551 12.3951 7.91298C12.2423 8.00371 12.0752 8.04668 11.8986 8.05623C11.698 8.06578 11.5023 8.02281 11.3113 7.93208C11.125 7.84136 10.9675 7.69811 10.8338 7.51666C10.7001 7.32088 10.6189 7.12033 10.5951 6.91978C10.5712 6.70491 10.5998 6.50913 10.681 6.31813C10.7622 6.12713 10.8959 5.96478 11.0773 5.84063C11.2587 5.7117 11.4545 5.64008 11.6598 5.62575C11.8604 5.61143 12.0657 5.6544 12.2567 5.74513C12.4477 5.83585 12.6052 5.9791 12.7389 6.1701C12.8535 6.33723 12.9299 6.50913 12.9633 6.69058C12.9967 6.87203 12.9872 7.05348 12.9394 7.23016C12.8917 7.39728 12.801 7.55486 12.6721 7.69333C12.5861 7.87001 12.567 7.99416 12.6195 8.06578C12.6386 8.09443 12.6673 8.11353 12.7055 8.11831C12.7389 8.12308 12.7723 8.10876 12.8249 8.07533L13.2212 7.79361L13.3549 7.97983L12.8249 8.35228C12.758 8.40003 12.6816 8.42391 12.6052 8.42391ZM12.5479 7.75541L12.4858 7.85568C12.4381 7.93208 12.4047 8.00848 12.3904 8.08488C12.376 8.15651 12.3904 8.21858 12.4286 8.27588C12.4763 8.33796 12.524 8.37138 12.5909 8.37616C12.6625 8.38093 12.7341 8.35706 12.8058 8.30931L13.2976 7.96551L13.2212 7.85568L12.8631 8.10876C12.8058 8.15173 12.758 8.16606 12.715 8.16128C12.6625 8.15651 12.6195 8.13263 12.5909 8.08966C12.5288 8.00371 12.5479 7.86046 12.6434 7.66468L12.6482 7.65991C12.7723 7.52621 12.8583 7.37341 12.906 7.21106C12.9538 7.03916 12.9633 6.86726 12.9299 6.69058C12.8965 6.51868 12.8249 6.34678 12.715 6.18921C12.5909 6.00775 12.4333 5.86928 12.2519 5.78333C12.0657 5.6926 11.8699 5.6544 11.6789 5.66873C11.4832 5.68305 11.2922 5.7499 11.1203 5.87405C10.9484 5.99343 10.8242 6.14623 10.7431 6.33246C10.6619 6.51391 10.6333 6.70491 10.6571 6.91023C10.681 7.10601 10.7574 7.29701 10.8863 7.48801C11.0152 7.66468 11.168 7.80316 11.3447 7.88911C11.5309 7.97983 11.7171 8.01803 11.9081 8.00848C12.1086 7.99893 12.2853 7.93686 12.4572 7.82226L12.5479 7.75541ZM11.8842 7.78883C11.741 7.78883 11.593 7.75063 11.4545 7.67423C11.3113 7.59306 11.1919 7.48323 11.0773 7.33521C10.977 7.19673 10.9102 7.03916 10.8863 6.8768C10.8624 6.70968 10.8768 6.55688 10.9341 6.41363C10.9914 6.2656 11.0916 6.14146 11.2301 6.04596C11.3686 5.95045 11.5118 5.89793 11.6789 5.89315C11.8365 5.88838 11.9893 5.92658 12.1373 6.00775C12.2853 6.08893 12.4142 6.19875 12.5145 6.342C12.6148 6.48048 12.6768 6.63328 12.7007 6.79563C12.7294 6.95798 12.715 7.11556 12.6577 7.26358C12.6004 7.41638 12.5049 7.53576 12.3617 7.63603C12.228 7.73153 12.0752 7.78406 11.9129 7.78883C11.9033 7.78883 11.8938 7.78883 11.8842 7.78883ZM11.4784 7.63603C11.6216 7.71243 11.7649 7.74586 11.9081 7.74108C12.0609 7.73631 12.2041 7.68856 12.3283 7.59783C12.462 7.50233 12.5527 7.38773 12.6052 7.24448C12.6625 7.10123 12.6768 6.95321 12.6482 6.80041C12.6243 6.64283 12.567 6.49958 12.4715 6.36588C12.376 6.2274 12.2519 6.11758 12.1134 6.04596C11.9702 5.96955 11.8269 5.93613 11.6789 5.9409C11.5261 5.94568 11.3877 5.99343 11.2587 6.08415C11.1298 6.17488 11.0343 6.29425 10.9818 6.43273C10.9293 6.56643 10.9102 6.71923 10.9341 6.87203C10.9579 7.02961 11.02 7.17763 11.1155 7.31133C11.2253 7.45458 11.3399 7.55486 11.4784 7.63603Z" fill="#221F51"/>
<path d="M14.5302 5.85076L14.5971 6.48584L14.3201 6.61954L14.0957 4.10311L14.5016 3.91211L16.3207 5.67409L16.0438 5.80779L15.5902 5.35416L14.5302 5.85076ZM14.344 4.10788L14.5016 5.59291L15.3992 5.16316L14.344 4.10788Z" fill="#221F51"/>
<path d="M14.3005 6.65709L14.0713 4.08814L14.5058 3.88281L14.5153 3.89236L16.3584 5.67822L16.0337 5.83579L15.5801 5.38217L14.5535 5.86922L14.6204 6.50429L14.3005 6.65709ZM14.119 4.11679L14.3387 6.58547L14.5679 6.47565L14.501 5.84057L15.5897 5.32487L16.0433 5.77849L16.2724 5.66867L14.4915 3.94489L14.119 4.11679ZM14.4819 5.62569L14.3148 4.04039L15.4416 5.16729L14.4819 5.62569ZM14.3769 4.16931L14.5249 5.55407L15.3605 5.15297L14.3769 4.16931Z" fill="#221F51"/>
<path d="M18.4877 4.05028L19.18 4.76176L18.8601 4.85726L18.0866 4.05028L17.4086 4.24606L17.6855 5.19151L17.399 5.27268L16.7354 2.995L17.738 2.70373C17.8908 2.66075 18.0341 2.64643 18.1725 2.66553C18.311 2.68463 18.4256 2.73238 18.5259 2.81355C18.6214 2.89473 18.693 2.99978 18.7312 3.13348C18.7837 3.31971 18.7694 3.48683 18.6787 3.63963C18.588 3.79243 18.4495 3.91181 18.2585 3.99298C18.3588 3.97388 18.4399 3.99298 18.4877 4.05028ZM18.0436 3.80676C18.2012 3.75901 18.3158 3.68261 18.3874 3.57756C18.4638 3.46773 18.4781 3.34835 18.4399 3.21943C18.4017 3.0905 18.3206 2.99978 18.2012 2.95203C18.0818 2.90428 17.9434 2.8995 17.7858 2.94725L17.0839 3.15258L17.337 4.01686L18.0436 3.80676Z" fill="#221F51"/>
<path d="M17.3846 5.3009L16.7065 2.98025L17.7331 2.6842C17.8955 2.64122 18.0387 2.6269 18.1772 2.646C18.3204 2.6651 18.4398 2.71762 18.54 2.7988C18.6451 2.88475 18.7167 2.99935 18.7549 3.12827C18.8122 3.32405 18.7931 3.49595 18.7024 3.65352C18.626 3.78245 18.5162 3.8875 18.3729 3.9639C18.4302 3.97345 18.4732 3.99732 18.5066 4.03552L19.2228 4.77565L18.8504 4.88547L18.0769 4.0785L17.4371 4.26472L17.714 5.21018L17.3846 5.3009ZM16.7686 3.01367L17.418 5.2436L17.6567 5.17675L17.3798 4.2313L18.096 4.02597L18.1055 4.03552L18.2536 3.97345C18.435 3.89705 18.5735 3.78245 18.6642 3.62965C18.7501 3.4864 18.7645 3.32405 18.7119 3.1426C18.6785 3.01845 18.6117 2.91817 18.5162 2.837C18.4207 2.7606 18.3109 2.71285 18.1772 2.69375C18.0435 2.67465 17.905 2.68897 17.7522 2.73195L16.7686 3.01367ZM18.1151 4.04507L18.8695 4.82818L19.1369 4.747L18.4732 4.06417C18.4207 4.0021 18.33 4.0021 18.2679 4.01642L18.1151 4.04507ZM17.3225 4.04507L17.0551 3.13782L17.7809 2.92772C17.9384 2.87997 18.0817 2.87997 18.2106 2.9325C18.3347 2.98025 18.4254 3.08052 18.4636 3.21422C18.5066 3.3527 18.4875 3.48162 18.4063 3.59145C18.33 3.70127 18.2106 3.78245 18.0482 3.8302L17.3225 4.04507ZM17.1172 3.17125L17.3559 3.98777L18.0387 3.78245C18.1915 3.7347 18.3013 3.66307 18.3682 3.5628C18.4398 3.46252 18.4541 3.3527 18.4159 3.22377C18.3777 3.09962 18.3061 3.01845 18.1915 2.9707C18.0721 2.92295 17.9384 2.92295 17.7904 2.96592L17.1172 3.17125Z" fill="#221F51"/>
<path d="M20.809 4.318C20.6228 4.23205 20.47 4.10312 20.3507 3.93122C20.2313 3.75932 20.1597 3.56355 20.131 3.33912C20.1024 3.1147 20.131 2.90459 20.2074 2.70882C20.2838 2.51304 20.4032 2.35547 20.5655 2.22654C20.7279 2.10239 20.9141 2.02599 21.1289 1.99734C21.3438 1.97347 21.5443 2.00212 21.7306 2.08807C21.9168 2.17402 22.0696 2.30294 22.1889 2.47484C22.3083 2.64674 22.3847 2.84252 22.4086 3.06695C22.4324 3.2866 22.4086 3.4967 22.3322 3.69247C22.2558 3.88825 22.1364 4.0506 21.9741 4.17475C21.8117 4.30367 21.6255 4.38007 21.4106 4.40395C21.1958 4.43737 20.9952 4.40395 20.809 4.318ZM21.8069 3.96942C21.9263 3.86915 22.0123 3.74022 22.0648 3.58742C22.1173 3.43462 22.1364 3.27705 22.1173 3.10992C22.0982 2.93802 22.0409 2.78045 21.955 2.64674C21.8642 2.50827 21.7497 2.40799 21.6112 2.33637C21.4727 2.26474 21.3199 2.24087 21.1624 2.25997C21 2.27907 20.8568 2.34114 20.7422 2.44142C20.6228 2.5417 20.5369 2.66584 20.4843 2.81864C20.4318 2.97144 20.4127 3.1338 20.4366 3.30092C20.4557 3.47282 20.513 3.6304 20.5989 3.7641C20.6849 3.90257 20.7995 4.00285 20.9379 4.07447C21.0764 4.1461 21.2292 4.16997 21.3915 4.15087C21.5443 4.13177 21.6876 4.07447 21.8069 3.96942Z" fill="#221F51"/>
<path d="M21.2478 4.43683C21.095 4.43683 20.9422 4.40341 20.7989 4.33656C20.6079 4.25061 20.4504 4.11691 20.331 3.94023C20.2116 3.76833 20.1352 3.56778 20.1066 3.33858C20.078 3.11893 20.1066 2.90406 20.183 2.69873C20.2594 2.50295 20.3788 2.3406 20.5459 2.2069C20.713 2.07798 20.8992 2.00158 21.1188 1.97293C21.3385 1.94905 21.5486 1.9777 21.7348 2.06365C21.9258 2.1496 22.0833 2.2833 22.2027 2.45998C22.3269 2.64143 22.4032 2.84198 22.4271 3.06163C22.451 3.28606 22.4271 3.50093 22.3507 3.69671C22.2743 3.89726 22.1502 4.06438 21.9831 4.18853C21.816 4.32223 21.6297 4.39864 21.4101 4.42251C21.3576 4.43684 21.3051 4.43683 21.2478 4.43683ZM21.2716 2.0159C21.2239 2.0159 21.1809 2.02068 21.1332 2.02545C20.9231 2.0541 20.7416 2.12573 20.5841 2.24988C20.4217 2.37881 20.3071 2.5316 20.2355 2.7226C20.1591 2.91838 20.1352 3.12848 20.1591 3.33858C20.1878 3.56301 20.2594 3.75401 20.374 3.92113C20.4886 4.08826 20.6414 4.21718 20.8228 4.29836C21.009 4.38431 21.2096 4.41296 21.4101 4.38431C21.6202 4.36043 21.8016 4.28881 21.964 4.15988C22.1215 4.04051 22.2409 3.88293 22.3125 3.68716C22.3841 3.50093 22.4128 3.29083 22.3889 3.07596C22.3651 2.86586 22.2934 2.67008 22.1741 2.4934C22.0595 2.32628 21.9067 2.19735 21.7252 2.11618C21.582 2.04933 21.4292 2.0159 21.2716 2.0159ZM21.286 4.17898C21.157 4.17898 21.0377 4.15033 20.9279 4.09303C20.7798 4.01663 20.6652 3.91158 20.5793 3.77311C20.4886 3.63463 20.4313 3.47228 20.4122 3.30038C20.3883 3.13803 20.4074 2.9709 20.4599 2.80855C20.5125 2.65098 20.5984 2.52683 20.7225 2.42178C20.8419 2.3215 20.9899 2.25465 21.157 2.23555C21.3242 2.21645 21.4769 2.24033 21.6202 2.31673C21.7682 2.39313 21.8828 2.49818 21.9735 2.63666C22.0642 2.77513 22.1215 2.93748 22.1406 3.10938C22.1597 3.27651 22.1406 3.43408 22.0881 3.59643C22.0356 3.75401 21.9449 3.88771 21.8255 3.98798C21.7061 4.09303 21.5629 4.15511 21.3958 4.17421C21.3576 4.17898 21.3242 4.17898 21.286 4.17898ZM21.2669 2.27853C21.2334 2.27853 21.2 2.27853 21.1666 2.2833C21.009 2.3024 20.8706 2.3597 20.7607 2.45998C20.6414 2.56025 20.5602 2.67963 20.5077 2.82766C20.4552 2.98523 20.4408 3.14281 20.4599 3.30038C20.479 3.46273 20.5315 3.62031 20.6175 3.75401C20.6987 3.88293 20.8037 3.98321 20.947 4.05483C21.0759 4.12168 21.2239 4.14556 21.3862 4.12646C21.5438 4.10736 21.6775 4.05006 21.7873 3.94978C21.9019 3.85428 21.9878 3.73013 22.0356 3.57733C22.0881 3.42453 22.1072 3.27173 22.0881 3.10938C22.069 2.94703 22.0165 2.78946 21.9305 2.65576C21.8446 2.52683 21.7348 2.42655 21.5963 2.35493C21.496 2.30718 21.3862 2.27853 21.2669 2.27853Z" fill="#221F51"/>
<path d="M25.8794 1.97298L25.6932 3.41026C25.6645 3.62991 25.7027 3.80181 25.803 3.94029C25.9033 4.07399 26.0561 4.15517 26.2566 4.18382C26.4571 4.20769 26.6243 4.16949 26.7579 4.06444C26.8916 3.95939 26.9728 3.79704 27.0015 3.58694L27.1877 2.14966L27.4837 2.18786L27.2975 3.62991C27.2736 3.82091 27.2115 3.98327 27.1161 4.11219C27.0206 4.24112 26.8916 4.33662 26.7389 4.39392C26.5861 4.45122 26.4142 4.46554 26.228 4.44167C26.037 4.41779 25.8746 4.35571 25.7409 4.26499C25.6072 4.16949 25.5117 4.05012 25.4497 3.89732C25.3876 3.74452 25.3733 3.57739 25.3971 3.38639L25.5834 1.94434L25.8794 1.97298Z" fill="#221F51"/>
<path d="M26.3947 4.47466C26.3422 4.47466 26.2849 4.46989 26.2228 4.46511C26.0366 4.44124 25.8695 4.37916 25.7262 4.28366C25.5878 4.18339 25.4875 4.05923 25.4254 3.90643C25.3633 3.75363 25.3442 3.58651 25.3729 3.38596L25.5639 1.9248L25.9077 1.95823L25.7167 3.41939C25.688 3.62949 25.7262 3.79661 25.8217 3.93031C25.9172 4.05923 26.0652 4.13564 26.261 4.16429C26.4568 4.18816 26.6143 4.14996 26.7432 4.04968C26.8722 3.94941 26.9486 3.79661 26.9772 3.58651L27.1682 2.12536L27.512 2.16833L27.321 3.63426C27.2971 3.82526 27.235 3.99239 27.1348 4.12609C27.0345 4.25979 26.9056 4.35529 26.748 4.41736C26.6382 4.45556 26.5236 4.47466 26.3947 4.47466ZM25.6068 1.97255L25.4254 3.39073C25.4015 3.58173 25.4159 3.74409 25.4779 3.88734C25.5352 4.03536 25.6307 4.14996 25.7596 4.24546C25.8933 4.33619 26.0557 4.39349 26.2371 4.41736C26.4233 4.44124 26.5904 4.42691 26.7385 4.36961C26.8865 4.31231 27.0106 4.22158 27.1061 4.09743C27.2016 3.96851 27.2589 3.81094 27.2828 3.62471L27.4642 2.20653L27.2159 2.17311L27.0345 3.58651C27.0058 3.80616 26.9199 3.97329 26.7814 4.07834C26.643 4.18339 26.4711 4.22636 26.261 4.20249C26.0509 4.17384 25.8933 4.08789 25.7931 3.94941C25.688 3.80138 25.6498 3.62471 25.6785 3.40028L25.8599 1.98688L25.6068 1.97255Z" fill="#221F51"/>
<path d="M30.4438 5.4108L29.9663 5.26277L29.3838 2.75112L28.7297 4.88554L28.4575 4.80437L29.1546 2.54102L29.6273 2.68427L30.2098 5.2007L30.8688 3.06149L31.1409 3.14267L30.4438 5.4108Z" fill="#221F51"/>
<path d="M30.458 5.43967L29.9471 5.2821L29.3837 2.84206L28.7486 4.91442L28.4287 4.81892L29.1401 2.50781L29.6463 2.66061L29.651 2.67494L30.2145 5.10542L30.8543 3.02829L31.1742 3.12379L30.458 5.43967ZM29.9853 5.24389L30.4246 5.38237L31.1073 3.15722L30.8829 3.09036L30.2049 5.29164L29.6081 2.69881L29.1736 2.56511L28.4908 4.78549L28.7152 4.85234L29.3884 2.65106L29.9853 5.24389Z" fill="#221F51"/>
<path d="M32.9412 3.91614L31.9528 6.06967L31.6807 5.94552L32.669 3.79199L32.9412 3.91614Z" fill="#221F51"/>
<path d="M31.967 6.10332L31.6519 5.96007L32.6593 3.75879L32.9745 3.90204L31.967 6.10332ZM31.7139 5.93619L31.9431 6.04124L32.9124 3.93069L32.6832 3.82564L31.7139 5.93619Z" fill="#221F51"/>
<path d="M34.1106 7.24465L33.6904 6.98679L34.2348 4.54199L34.5021 4.70912L33.9721 7.0059L35.7865 5.49222L36.0587 5.65934L34.1106 7.24465Z" fill="#221F51"/>
<path d="M34.1153 7.2733L33.6665 6.99635L34.2204 4.49902L34.5307 4.6948L34.0151 6.93905L35.7865 5.46358L36.1016 5.65935L34.1153 7.2733ZM33.719 6.97725L34.1106 7.216L36.0157 5.66413L35.7865 5.52565L33.9339 7.07275L34.4734 4.72345L34.249 4.58497L33.719 6.97725Z" fill="#221F51"/>
<path d="M36.9995 9.44617L35.7056 8.3527L37.2383 6.54297L38.5131 7.62212L38.3508 7.81312L37.3051 6.92497L36.8038 7.51707L37.7396 8.30972L37.5773 8.50072L36.6414 7.70807L36.0923 8.3527L37.1571 9.25517L36.9995 9.44617Z" fill="#221F51"/>
<path d="M36.9992 9.47895L35.6719 8.35682L37.2332 6.51367L38.5415 7.62147L38.3505 7.85067L37.3048 6.96252L36.8369 7.51642L37.7728 8.30907L37.5818 8.53827L36.6459 7.74562L36.1302 8.35205L37.195 9.25453L36.9992 9.47895ZM35.7387 8.34727L36.9945 9.40733L37.1234 9.25453L36.0586 8.35205L36.6364 7.674L37.5722 8.46665L37.7059 8.31385L36.7701 7.5212L37.3001 6.89567L38.3457 7.78382L38.4746 7.63102L37.238 6.5853L35.7387 8.34727Z" fill="#221F51"/>
<path d="M39.4298 10.7678L39.0764 11.6941L38.8568 11.441L39.2627 10.4049L38.7995 9.87484L38.0547 10.5242L37.8589 10.2998L39.6494 8.74316L40.337 9.53104C40.442 9.65042 40.5136 9.77456 40.5518 9.90826C40.59 10.042 40.5948 10.1661 40.5662 10.2903C40.5327 10.4144 40.4659 10.5195 40.3609 10.6102C40.2176 10.7343 40.0553 10.7916 39.8786 10.7773C39.7019 10.763 39.5396 10.6818 39.382 10.5433C39.4393 10.6197 39.4537 10.6961 39.4298 10.7678ZM39.4584 10.2568C39.5635 10.381 39.6828 10.4526 39.8118 10.4765C39.9407 10.5004 40.0553 10.4669 40.1603 10.3762C40.2606 10.2855 40.3083 10.1757 40.3036 10.0467C40.2988 9.91782 40.2415 9.78889 40.1364 9.66951L39.659 9.12039L38.981 9.71249L39.4584 10.2568Z" fill="#221F51"/>
<path d="M39.0857 11.7422L38.8327 11.4462L39.2385 10.41L38.7992 9.9086L38.0544 10.558L37.8252 10.3001L39.6491 8.71484L40.351 9.52182C40.4609 9.64597 40.5325 9.77012 40.5707 9.9086C40.6089 10.0471 40.6136 10.176 40.585 10.3001C40.5516 10.4291 40.48 10.5389 40.3701 10.6344C40.2221 10.7633 40.055 10.8206 39.8688 10.8063C39.7255 10.7967 39.5871 10.7394 39.4486 10.6392C39.4629 10.6869 39.4629 10.7347 39.4486 10.7824L39.0857 11.7422ZM38.8852 11.4366L39.0666 11.6467L39.4056 10.7585C39.4295 10.6917 39.4104 10.6248 39.3627 10.558L39.2767 10.4386L38.8852 11.4366ZM39.2815 10.4243L39.3961 10.5246C39.5537 10.663 39.7112 10.7394 39.8783 10.7538C40.0454 10.7681 40.203 10.7156 40.3415 10.5914C40.4417 10.5055 40.5086 10.4052 40.5372 10.2858C40.5659 10.1664 40.5611 10.0471 40.5229 9.91815C40.4847 9.78922 40.4179 9.66985 40.3128 9.55047L39.6396 8.7817L37.8873 10.3049L38.0496 10.4911L38.7945 9.84175L39.2815 10.4004V10.4243ZM39.8879 10.5102C39.8592 10.5102 39.8306 10.5055 39.8019 10.5007C39.6635 10.4768 39.5393 10.4004 39.4343 10.2715L38.9425 9.70805L39.6539 9.08729L40.1457 9.65552C40.2555 9.77967 40.3128 9.91337 40.3176 10.0471C40.3224 10.1808 40.2699 10.3001 40.1648 10.3956C40.0884 10.472 39.9929 10.5102 39.8879 10.5102ZM39.0141 9.7176L39.4773 10.2428C39.5775 10.3574 39.6921 10.4291 39.8163 10.4529C39.9356 10.4768 40.0454 10.4434 40.1457 10.3574C40.2412 10.2715 40.2842 10.1712 40.2794 10.0471C40.2746 9.92292 40.2173 9.79877 40.1171 9.68417L39.6539 9.15415L39.0141 9.7176Z" fill="#221F51"/>
<path d="M40.0411 12.7736C40.0554 12.5682 40.1461 12.3868 40.318 12.234L40.4708 12.4727C40.361 12.5873 40.2989 12.7163 40.2894 12.8547C40.2798 12.9932 40.3276 13.1412 40.4231 13.294C40.5186 13.4421 40.6284 13.5423 40.7573 13.5901C40.8862 13.6378 41.0056 13.6283 41.1202 13.5567C41.2204 13.4946 41.2825 13.4182 41.3064 13.3275C41.3303 13.2367 41.3159 13.1269 41.2682 12.998L41.0677 12.4584C41.0008 12.2865 40.9817 12.1337 41.0104 12.0096C41.039 11.8854 41.1249 11.7804 41.2634 11.6896C41.378 11.618 41.4926 11.5941 41.6167 11.6085C41.7361 11.6276 41.8555 11.6753 41.9653 11.766C42.0751 11.8568 42.1754 11.9618 42.2566 12.0955C42.3855 12.3008 42.4428 12.4966 42.4285 12.6828C42.4141 12.8691 42.3282 13.0266 42.1658 13.1651L42.013 12.9264C42.1181 12.8309 42.1706 12.721 42.1754 12.5969C42.1802 12.4727 42.142 12.3486 42.056 12.2149C41.9653 12.0716 41.865 11.9714 41.7504 11.9188C41.6358 11.8663 41.5308 11.8711 41.4305 11.9332C41.3446 11.9905 41.2873 12.0525 41.2682 12.1289C41.2491 12.2053 41.2634 12.2961 41.3064 12.4107L41.5213 12.9741C41.5929 13.1603 41.612 13.3179 41.5738 13.4516C41.5404 13.5853 41.4496 13.6951 41.2968 13.7906C41.1727 13.867 41.0486 13.9005 40.9149 13.8957C40.7812 13.8861 40.657 13.8432 40.5329 13.7572C40.4135 13.676 40.3085 13.5614 40.2177 13.4182C40.0888 13.1938 40.0268 12.9789 40.0411 12.7736Z" fill="#221F51"/>
<path d="M40.9387 13.9196C40.9291 13.9196 40.9196 13.9196 40.9148 13.9196C40.7716 13.9101 40.6426 13.8623 40.5185 13.7764C40.3991 13.6952 40.2893 13.5806 40.1986 13.4326C40.0649 13.1986 40.0028 12.9789 40.0172 12.7736C40.0315 12.5587 40.127 12.3725 40.3036 12.2197L40.3227 12.2006L40.4994 12.4776L40.4851 12.4919C40.38 12.6017 40.318 12.7259 40.3084 12.8596C40.2989 12.9885 40.3418 13.1317 40.4373 13.2845C40.5328 13.4326 40.6379 13.5233 40.7572 13.571C40.8814 13.6188 40.9912 13.6045 41.101 13.5376C41.1965 13.4803 41.2538 13.4087 41.2777 13.3227C41.3016 13.2368 41.2872 13.1365 41.2395 13.0076L41.039 12.468C40.9721 12.2913 40.953 12.1385 40.9816 12.0048C41.0103 11.8759 41.0962 11.7661 41.2443 11.6706C41.3589 11.599 41.483 11.5703 41.6119 11.5846C41.7456 11.6085 41.8698 11.661 41.9748 11.747C42.0989 11.852 42.1944 11.9619 42.2708 12.0812C42.3997 12.2913 42.4618 12.4919 42.4475 12.6829C42.4332 12.8739 42.3425 13.0362 42.1753 13.1795L42.1562 13.1986L41.9796 12.9216L41.9939 12.9073C42.0942 12.8166 42.1419 12.7163 42.1467 12.5969C42.1515 12.4776 42.1133 12.3582 42.0321 12.2293C41.9414 12.086 41.8459 11.9905 41.7361 11.9428C41.631 11.895 41.5307 11.8998 41.44 11.9571C41.3541 12.0144 41.3063 12.0717 41.2872 12.1385C41.2681 12.2054 41.2825 12.2913 41.3254 12.4059L41.5403 12.9694C41.6167 13.1652 41.631 13.3227 41.5928 13.4612C41.5594 13.5997 41.4639 13.7143 41.3063 13.8146C41.187 13.8814 41.0676 13.9196 40.9387 13.9196ZM40.3132 12.2722C40.1604 12.4155 40.0792 12.5826 40.0649 12.7784C40.0506 12.9742 40.1079 13.1843 40.2368 13.4087C40.3275 13.5519 40.4278 13.6618 40.5424 13.7382C40.657 13.8193 40.7811 13.8623 40.91 13.8719C41.0389 13.8766 41.1583 13.8432 41.2777 13.7716C41.4257 13.6809 41.5116 13.571 41.5451 13.4469C41.5833 13.318 41.5642 13.1699 41.4926 12.9837L41.2777 12.4203C41.2299 12.2961 41.2204 12.2054 41.2395 12.1242C41.2586 12.0478 41.3159 11.981 41.4114 11.9141C41.5212 11.8473 41.631 11.8425 41.7552 11.8998C41.8698 11.9523 41.9748 12.0526 42.0703 12.2054C42.1562 12.3439 42.1992 12.4728 42.1944 12.6017C42.1897 12.7259 42.1371 12.8405 42.0416 12.936L42.1706 13.1365C42.3138 13.0076 42.3902 12.8596 42.4045 12.6877C42.4188 12.5062 42.3616 12.3152 42.2374 12.1147C42.1658 11.9953 42.0703 11.8902 41.9509 11.79C41.8507 11.7088 41.7408 11.6563 41.6119 11.6372C41.4878 11.6228 41.3827 11.6467 41.2777 11.7136C41.1392 11.8043 41.0628 11.9046 41.0342 12.0192C41.0055 12.1385 41.0246 12.2866 41.0915 12.4537L41.292 12.9933C41.3445 13.1317 41.3541 13.2416 41.3302 13.3371C41.3063 13.4326 41.2395 13.5137 41.1344 13.5806C41.0151 13.657 40.8909 13.6665 40.7525 13.614C40.6188 13.5663 40.509 13.466 40.4087 13.3084C40.3084 13.1461 40.2607 12.9933 40.2702 12.8548C40.2798 12.7163 40.3371 12.5874 40.4469 12.4728L40.3132 12.2722Z" fill="#221F51"/>
<path d="M43.5556 14.5399L41.4165 15.5522L41.2876 15.2848L43.4267 14.2725L43.5556 14.5399Z" fill="#221F51"/>
<path d="M41.4019 15.5859L41.2539 15.2755L43.4407 14.2441L43.5887 14.5545L41.4019 15.5859ZM41.316 15.2994L41.4258 15.5238L43.5219 14.5354L43.4121 14.311L41.316 15.2994Z" fill="#221F51"/>
<path d="M44.2527 17.014L42.2474 17.6826L42.1519 17.4008L44.1572 16.7323L43.909 15.9874L44.1525 15.9062L44.7445 17.6778L44.501 17.759L44.2527 17.014Z" fill="#221F51"/>
<path d="M44.4862 17.787L44.2379 17.0421L42.2373 17.7106L42.1274 17.3859L44.1328 16.7174L43.8845 15.9725L44.171 15.877L44.7774 17.6915L44.4862 17.787ZM44.2665 16.98L44.5148 17.7249L44.7106 17.658L44.1328 15.9343L43.9371 16.0011L44.1854 16.746L42.1847 17.4145L42.2659 17.6485L44.2665 16.98Z" fill="#221F51"/>
<path d="M43.068 21.2391L42.772 19.5679L45.102 19.1572L45.3933 20.8046L45.145 20.8476L44.9063 19.4963L44.1471 19.63L44.3572 20.8333L44.1089 20.8762L43.8988 19.6729L43.0632 19.821L43.3067 21.1962L43.068 21.2391Z" fill="#221F51"/>
<path d="M43.0487 21.2632L43.044 21.2394L42.7432 19.5442L45.121 19.124L45.4218 20.8144L45.1258 20.8669L44.887 19.5156L44.1756 19.6397L44.3857 20.843L44.0896 20.8956L43.8796 19.6923L43.0917 19.8307L43.3352 21.2059L43.0487 21.2632ZM42.8005 19.5872L43.0869 21.2107L43.2827 21.1773L43.0392 19.8021L43.9225 19.6445L44.1326 20.8478L44.3332 20.8144L44.1231 19.6111L44.93 19.4678L45.1687 20.8192L45.3693 20.7857L45.0876 19.1861L42.8005 19.5872Z" fill="#221F51"/>
<path d="M45.3173 23.3221L43.2068 23.3794L43.1973 23.0833L45.3077 23.026L45.2886 22.2382L45.5464 22.2334L45.5942 24.1004L45.3364 24.1052L45.3173 23.3221Z" fill="#221F51"/>
<path d="M45.3168 24.1285L45.2977 23.3454L43.1873 23.4027L43.1777 23.0589L45.2929 23.0016L45.2738 22.2138L45.5794 22.209L45.6272 24.1238L45.3168 24.1285ZM45.3407 23.2977L45.3598 24.0808L45.5699 24.076L45.5221 22.2567L45.312 22.2615L45.3311 23.0494L43.2207 23.1067L43.2303 23.355L45.3407 23.2977Z" fill="#221F51"/>
<path d="M45.4749 25.8869L43.1162 25.672L43.1449 25.376L45.5036 25.5909L45.4749 25.8869Z" fill="#221F51"/>
<path d="M45.4983 25.9101L43.0918 25.6905L43.1252 25.3467L45.5317 25.5663L45.4983 25.9101ZM43.1395 25.6475L45.4505 25.8576L45.4744 25.6093L43.1634 25.3992L43.1395 25.6475Z" fill="#221F51"/>
<path d="M23.3435 44.4509C23.3435 44.532 23.3435 44.6084 23.3435 44.6896C23.3435 44.8663 23.2289 44.9236 23.0809 44.9284C22.9329 44.9331 22.8135 44.8758 22.8088 44.7039C22.804 44.5273 22.804 44.3554 22.8088 44.1787C22.8135 44.002 22.9377 43.9447 23.0809 43.9495C23.2242 43.9543 23.3483 44.0116 23.3435 44.1882C23.3435 44.279 23.3435 44.3649 23.3435 44.4509Z" fill="#221F51"/>
<path d="M28.5576 38.978C30.4102 38.2188 31.9667 37.0584 33.2464 35.5304C33.4469 35.2917 33.6331 35.0386 33.8528 34.7569C32.8167 34.7569 31.8426 34.7569 30.8686 34.7521C30.7492 34.7521 30.7253 34.819 30.6967 34.9049C30.4484 35.6355 30.1332 36.3374 29.7799 37.0202C29.4266 37.7078 28.973 38.3286 28.5289 38.9493C28.5098 38.9541 28.486 38.9589 28.5003 38.9875C28.5051 38.9923 28.5385 38.9828 28.5576 38.978ZM19.0654 38.978C19.0845 38.9828 19.1179 38.9971 19.1227 38.9875C19.1418 38.9589 19.1179 38.9541 19.0941 38.9493C19.0893 38.935 19.0893 38.9159 19.0797 38.9064C18.1105 37.7269 17.442 36.3852 16.9502 34.9527C16.8929 34.7951 16.8165 34.7521 16.6589 34.7569C15.7661 34.7664 14.878 34.7617 13.9899 34.7617C13.9373 34.7617 13.88 34.733 13.8371 34.7903C13.8275 34.8476 13.8705 34.881 13.8944 34.9145C14.792 36.1512 15.8854 37.173 17.1698 37.9943C17.7667 38.3811 18.3969 38.7201 19.0654 38.978ZM33.9435 24.9013C34.039 24.8726 34.1106 24.8487 34.187 24.8296C34.9128 24.6243 35.3664 24.1468 35.5239 23.421C35.6958 22.6236 35.691 21.8118 35.543 21.0096C35.3855 20.1597 34.8793 19.6249 34.0247 19.4387C33.805 19.3909 33.5854 19.3527 33.361 19.3527C31.4654 19.3479 29.5794 19.3479 27.6838 19.3479C27.5262 19.3479 27.4164 19.4052 27.34 19.5533C27.1443 19.9305 26.9342 20.3077 26.7336 20.6802C25.8264 22.3753 24.9192 24.0609 24.012 25.756C23.9691 25.8419 23.9452 25.9565 23.8019 25.947C23.6778 25.9374 23.6587 25.8372 23.6157 25.756C22.4984 23.7123 21.3859 21.6638 20.2734 19.6153C20.1636 19.4148 20.0251 19.3432 19.7959 19.3432C18.0866 19.3527 16.382 19.3479 14.6679 19.3479C14.3909 19.3479 14.114 19.367 13.8371 19.4052C12.7866 19.5437 12.1134 20.0976 11.8555 21.0335C11.7457 21.4346 11.698 21.8453 11.6932 22.2559C11.6789 23.0438 11.6837 23.8317 11.6884 24.6148C11.6884 25.0684 11.7314 25.522 11.8412 25.9613C12.037 26.7396 12.4906 27.2935 13.2784 27.5323C13.6843 27.6564 14.1045 27.7042 14.5246 27.709C16.1003 27.7137 17.6712 27.7137 19.2468 27.709C19.5286 27.709 19.5954 27.6421 19.5954 27.3556C19.6002 27.0357 19.5954 26.7205 19.5954 26.4006C19.5954 26.0425 19.5381 25.99 19.18 25.99C17.6998 25.99 16.2244 25.99 14.7443 25.99C14.5294 25.99 14.3145 25.9804 14.1045 25.9327C13.7272 25.8419 13.4885 25.608 13.4169 25.226C13.3739 24.992 13.35 24.758 13.3357 24.5193C13.3262 24.3187 13.3644 24.2519 13.5888 24.2519C15.4366 24.2614 17.2749 24.2566 19.1227 24.2566C19.476 24.2566 19.5524 24.1802 19.5524 23.8221C19.5524 23.5834 19.5524 23.3446 19.5524 23.1059C19.5477 22.8098 19.4665 22.7239 19.1657 22.7239C18.2346 22.7239 17.3035 22.7239 16.3772 22.7239C15.4318 22.7239 14.4817 22.7191 13.541 22.7286C13.3835 22.7286 13.3357 22.6904 13.3405 22.5281C13.35 22.2893 13.3739 22.0506 13.4217 21.8214C13.4885 21.4871 13.689 21.2532 14.0281 21.1529C14.262 21.086 14.496 21.0717 14.7347 21.0717C16.086 21.0717 17.4372 21.0765 18.7885 21.0669C18.9413 21.0669 19.0224 21.1099 19.0988 21.2532C20.1158 23.1106 21.1472 24.9586 22.1594 26.8208C22.4937 27.432 22.9616 27.7663 23.673 27.7137C23.7828 27.7042 23.8974 27.7042 24.0073 27.7137C24.7187 27.7854 25.1723 27.4368 25.497 26.8304C26.5044 24.9586 27.531 23.1011 28.5433 21.2293C28.6149 21.0956 28.696 21.0383 28.8536 21.0431C29.7942 21.0526 30.7301 21.0478 31.6659 21.0478C32.1052 21.0478 32.5397 21.0431 32.979 21.0669C33.4612 21.0956 33.7382 21.3821 33.762 21.8596C33.7764 22.1604 33.7764 22.466 33.762 22.7668C33.7382 23.2348 33.4612 23.5117 32.9981 23.5595C32.8405 23.5738 32.6782 23.5786 32.5206 23.5786C31.2553 23.5786 29.9948 23.5834 28.7295 23.5738C28.5098 23.5738 28.4621 23.6359 28.4716 23.8364C28.4907 24.1755 28.486 24.5193 28.4716 24.8631C28.4621 25.0445 28.5098 25.1018 28.7008 25.1018C29.7369 25.0923 30.7635 25.1018 31.7996 25.0923C31.962 25.0923 32.0575 25.1448 32.153 25.2737C32.7021 26.0234 33.2559 26.7635 33.8098 27.5036C33.8814 27.5991 33.9483 27.7042 34.0867 27.7042C34.6263 27.709 35.1706 27.7137 35.7101 27.7042C35.9059 27.6994 35.9775 27.5323 35.8725 27.3652C35.8438 27.3174 35.8056 27.2792 35.7722 27.2315C35.1706 26.4579 34.5642 25.6939 33.9435 24.9013ZM16.3725 18.2115C17.886 18.2115 19.3901 18.2115 20.9037 18.2067C21.1329 18.2067 21.3382 18.2449 21.553 18.3309C22.0544 18.5266 22.4937 18.8227 22.9138 19.1522C23.5775 19.6726 24.2508 19.5246 24.8476 19.1378C25.158 18.9373 25.4588 18.7176 25.7739 18.5219C26.1463 18.2879 26.5426 18.2019 26.9915 18.2019C29.9232 18.2162 32.8596 18.2115 35.7913 18.2115C35.8534 18.2115 35.9202 18.2067 35.9823 18.2115C36.1255 18.221 36.1828 18.1494 36.1828 18.0109C36.1828 17.796 36.1685 17.5812 36.1876 17.3663C36.2067 17.1323 36.1112 17.0655 35.8868 17.0702C35.0369 17.0798 34.1822 17.0702 33.3371 17.0798C33.17 17.0798 33.1222 17.0368 33.127 16.8697C33.1413 16.5689 33.1366 16.2633 33.127 15.9624C33.1222 15.8431 33.1557 15.7858 33.2702 15.7285C33.5424 15.5948 33.6427 15.3369 33.5615 15.0456C33.4899 14.7782 33.275 14.6159 32.9742 14.6302C32.8501 14.635 32.7928 14.5968 32.7307 14.4965C32.024 13.3219 31.3126 12.152 30.6059 10.9773C30.5534 10.8866 30.5343 10.8245 30.5964 10.7243C30.7492 10.4616 30.711 10.199 30.5248 9.99846C30.3433 9.81223 30.0855 9.76926 29.8229 9.90296C29.7417 9.94593 29.6844 9.95071 29.6128 9.89341C29.0351 9.48275 28.4573 9.07688 27.8796 8.66623C27.8032 8.6137 27.7697 8.55163 27.7793 8.44658C27.8032 8.13143 27.6934 7.93565 27.4498 7.82105C27.2159 7.71122 26.9676 7.76375 26.7575 7.97863C26.6763 8.0598 26.6095 8.07413 26.5044 8.04548C26.2371 7.96908 25.9697 7.90223 25.6975 7.84015C25.5829 7.8115 25.5161 7.7733 25.4874 7.63483C25.4254 7.35788 25.22 7.20985 24.9622 7.19552C24.69 7.1812 24.4895 7.2958 24.3892 7.56798C24.3415 7.6969 24.2603 7.70168 24.1553 7.71123C23.4247 7.76853 22.699 7.82105 21.9732 7.89268C21.8013 7.907 21.6867 7.89268 21.5769 7.7351C21.4241 7.51067 21.1615 7.4486 20.9228 7.53455C20.6936 7.61572 20.5217 7.8306 20.536 8.0789C20.5456 8.23648 20.4787 8.30333 20.3594 8.37018C19.4378 8.88588 18.5211 9.40636 17.6043 9.92683C17.5136 9.97936 17.4563 9.99368 17.356 9.92683C17.103 9.75971 16.8117 9.79313 16.616 9.99368C16.4202 10.1895 16.3916 10.476 16.5539 10.7338C16.6112 10.8293 16.616 10.9009 16.5634 10.9964C16.0191 11.9658 15.4796 12.9351 14.94 13.8996C14.8875 13.9951 14.8445 14.0524 14.7108 14.0477C14.4053 14.0286 14.1904 14.2052 14.114 14.4917C14.0472 14.7448 14.1665 15.0265 14.4196 15.1507C14.5342 15.208 14.5628 15.2701 14.5581 15.3894C14.5533 15.8574 14.5437 16.3301 14.5628 16.7981C14.5724 17.0273 14.5246 17.1084 14.2716 17.1037C13.4264 17.0846 12.5861 17.0989 11.7457 17.0941C11.5404 17.0941 11.4497 17.1562 11.4688 17.3663C11.4831 17.5143 11.4736 17.6671 11.4736 17.8199C11.4736 18.2163 11.4736 18.2162 11.8555 18.2162C13.35 18.2115 14.8589 18.2115 16.3725 18.2115ZM20.2113 28.8263C19.3423 28.8263 18.4781 28.8311 17.6139 28.8216C17.4277 28.8216 17.3704 28.8598 17.3847 29.0555C17.4611 30.4069 17.6378 31.7391 17.9815 33.0474C18.0197 33.1955 18.0675 33.2337 18.2155 33.2337C19.7577 33.2289 21.2952 33.2289 22.8374 33.2337C23.0284 33.2337 23.0523 33.1668 23.0523 32.9997C23.0475 31.6818 23.0428 30.3639 23.0523 29.046C23.0523 28.8454 22.9855 28.8168 22.8088 28.8168C21.9398 28.8311 21.0708 28.8263 20.2113 28.8263ZM27.0822 33.2337C27.7029 33.2337 28.3236 33.2337 28.9443 33.2337C29.6367 33.2337 29.6224 33.2337 29.7704 32.5461C30.0187 31.3857 30.1714 30.2159 30.2383 29.0317C30.2478 28.8598 30.2096 28.8168 30.0378 28.8168C28.2806 28.8216 26.5283 28.8216 24.7664 28.8168C24.6184 28.8168 24.5611 28.8454 24.5659 29.0078C24.5754 30.3543 24.5754 31.6913 24.5659 33.0379C24.5659 33.205 24.6232 33.2289 24.7664 33.2289C25.5399 33.2337 26.3135 33.2384 27.0822 33.2337ZM31.198 33.2337C32.3678 33.2337 33.4994 33.2337 34.6358 33.2337C34.717 33.2337 34.7552 33.205 34.7934 33.1238C35.4189 31.8203 35.7865 30.4546 35.925 29.0173C35.9393 28.8597 35.8868 28.8168 35.734 28.8168C34.4783 28.8216 33.2273 28.8216 31.9715 28.8168C31.8235 28.8168 31.771 28.8454 31.7614 29.0078C31.7041 30.426 31.5322 31.825 31.198 33.2337ZM13.7893 28.8263C13.1543 28.8263 12.5145 28.8311 11.8794 28.8216C11.7171 28.8216 11.6837 28.8693 11.698 29.0221C11.8126 30.297 12.1468 31.5099 12.6195 32.6989C12.7818 33.1095 12.9872 33.2671 13.4503 33.2432C14.3766 33.1955 15.3125 33.2289 16.2388 33.2241C16.3008 33.2241 16.4536 33.3053 16.4059 33.1047C16.0716 31.7582 15.9236 30.3878 15.8663 29.003C15.8568 28.8359 15.7947 28.812 15.6562 28.8168C15.0308 28.8311 14.41 28.8263 13.7893 28.8263ZM18.545 34.7664C18.545 34.7951 18.5354 34.8094 18.5402 34.8237C18.9938 35.9936 19.5715 37.0871 20.3832 38.0516C21.0469 38.8347 21.8204 39.465 22.8136 39.7802C23.0141 39.8423 23.0475 39.7993 23.0475 39.6035C23.038 38.0612 23.0428 36.5236 23.0475 34.9765C23.0475 34.7999 23.0093 34.7473 22.8279 34.7521C21.4528 34.7617 20.0824 34.7569 18.7025 34.7569C18.65 34.7569 18.5975 34.7617 18.545 34.7664ZM24.5755 37.3115C24.5755 38.0898 24.5802 38.8682 24.5707 39.6417C24.5707 39.8184 24.6136 39.8375 24.7712 39.7897C25.3872 39.5987 25.9362 39.2884 26.4233 38.8682C27.6647 37.7986 28.4334 36.4186 29.0398 34.9288C29.0971 34.7903 29.0589 34.7521 28.9109 34.7521C27.5215 34.7569 26.132 34.7569 24.7426 34.7521C24.5802 34.7521 24.5659 34.819 24.5659 34.9527C24.5802 35.7405 24.5755 36.5236 24.5755 37.3115Z" fill="#221F51"/>
<path d="M33.9438 24.9019C34.5645 25.6897 35.1709 26.4633 35.7773 27.2273C35.8107 27.2703 35.8489 27.3132 35.8776 27.361C35.9826 27.5281 35.911 27.6952 35.7153 27.7C35.1757 27.7096 34.6314 27.7 34.0918 27.7C33.9534 27.7 33.8865 27.5997 33.8149 27.4995C33.261 26.7546 32.7072 26.0097 32.1581 25.2695C32.0674 25.1454 31.9719 25.0881 31.8047 25.0881C30.7686 25.0976 29.7421 25.0881 28.7059 25.0976C28.5149 25.0976 28.4672 25.0403 28.4767 24.8589C28.4911 24.5151 28.4958 24.1761 28.4767 23.8323C28.4672 23.6269 28.5149 23.5649 28.7346 23.5696C29.9999 23.584 31.2604 23.5744 32.5257 23.5744C32.6833 23.5744 32.8456 23.5696 33.0032 23.5553C33.4664 23.5076 33.7433 23.2306 33.7672 22.7627C33.7815 22.4618 33.7815 22.1562 33.7672 21.8554C33.7433 21.3779 33.4664 21.0914 32.9841 21.0628C32.5496 21.0341 32.1103 21.0437 31.6711 21.0437C30.7304 21.0389 29.7946 21.0484 28.8587 21.0389C28.7012 21.0389 28.62 21.0914 28.5484 21.2251C27.5314 23.0921 26.5096 24.9544 25.5021 26.8262C25.1774 27.4326 24.7238 27.7764 24.0124 27.7096C23.9026 27.7 23.788 27.7 23.6781 27.7096C22.9667 27.7621 22.4988 27.4278 22.1645 26.8166C21.1523 24.9544 20.121 23.1065 19.1039 21.249C19.0275 21.1057 18.9464 21.0628 18.7936 21.0628C17.4423 21.0675 16.0911 21.0675 14.7398 21.0675C14.5011 21.0675 14.2624 21.0819 14.0332 21.1487C13.6942 21.249 13.4984 21.483 13.4268 21.8172C13.379 22.0512 13.3552 22.2852 13.3456 22.5239C13.3408 22.6863 13.3886 22.7245 13.5461 22.7245C14.4915 22.7197 15.4417 22.7197 16.3823 22.7197C17.3134 22.7197 18.2445 22.7197 19.1708 22.7197C19.4716 22.7197 19.5528 22.8009 19.5575 23.1017C19.5623 23.3404 19.5575 23.5792 19.5575 23.8179C19.5575 24.1808 19.4811 24.2525 19.1278 24.2525C17.28 24.2525 15.4417 24.2572 13.5939 24.2477C13.3695 24.2477 13.3313 24.3145 13.3408 24.5151C13.3552 24.7538 13.3743 24.9926 13.422 25.2218C13.4936 25.6038 13.7324 25.8378 14.1096 25.9285C14.3197 25.9762 14.5345 25.9858 14.7494 25.9858C16.2295 25.9858 17.7049 25.9858 19.1851 25.9858C19.5432 25.9858 19.6005 26.0383 19.6005 26.3964C19.6005 26.7164 19.6053 27.0315 19.6005 27.3514C19.5957 27.6427 19.5337 27.7048 19.252 27.7048C17.6763 27.7048 16.1054 27.7048 14.5297 27.7048C14.1048 27.7048 13.6894 27.6523 13.2835 27.5281C12.4909 27.2894 12.0421 26.7355 11.8463 25.9571C11.7365 25.5178 11.6935 25.0642 11.6935 24.6106C11.6935 23.8227 11.684 23.0348 11.6983 22.2517C11.7079 21.8411 11.7508 21.4304 11.8607 21.0293C12.1137 20.103 12.7822 19.5443 13.8326 19.4058C14.1096 19.3676 14.3865 19.3485 14.6634 19.3485C16.3728 19.3485 18.0774 19.3533 19.7915 19.3438C20.0159 19.3438 20.1592 19.4106 20.269 19.6159C21.3815 21.6644 22.494 23.7129 23.6113 25.7566C23.6543 25.8378 23.6734 25.938 23.7975 25.9476C23.9408 25.9571 23.9646 25.8378 24.0076 25.7566C24.9196 24.0662 25.8268 22.3759 26.7292 20.6808C26.9297 20.3035 27.1398 19.9311 27.3356 19.5538C27.412 19.4058 27.5218 19.3485 27.6794 19.3485C29.5749 19.3533 31.461 19.3533 33.3565 19.3533C33.5809 19.3533 33.8006 19.3915 34.0202 19.4393C34.8749 19.6255 35.381 20.1603 35.5386 21.0102C35.6866 21.8124 35.6914 22.6242 35.5195 23.4216C35.3619 24.1474 34.9083 24.6249 34.1826 24.8302C34.1109 24.8541 34.0393 24.8732 33.9438 24.9019Z" fill="white"/>
<path d="M16.3726 18.2074C14.859 18.2074 13.355 18.2074 11.8414 18.2074C11.4594 18.2074 11.4594 18.2074 11.4594 17.8111C11.4594 17.6583 11.469 17.5055 11.4546 17.3575C11.4355 17.1426 11.5263 17.0805 11.7316 17.0853C12.5767 17.0948 13.4171 17.0757 14.2574 17.0948C14.5105 17.0996 14.5582 17.0184 14.5487 16.7892C14.5582 16.2974 14.5582 15.8677 14.5439 15.3806C14.5391 15.266 14.52 15.1992 14.4054 15.1419C14.1476 15.0177 14.033 14.736 14.0998 14.4829C14.1762 14.1964 14.3911 14.0245 14.6967 14.0388C14.8304 14.0484 14.8734 13.9911 14.9259 13.8908C15.4654 12.9215 16.005 11.9522 16.5493 10.9876C16.6018 10.8921 16.597 10.8205 16.5397 10.725C16.3774 10.4671 16.4108 10.1806 16.6018 9.98485C16.7976 9.78908 17.0888 9.75088 17.3419 9.918C17.4422 9.98485 17.5042 9.96575 17.5902 9.918C18.5069 9.39753 19.4285 8.87705 20.3452 8.36135C20.4646 8.2945 20.5314 8.23242 20.5219 8.07007C20.5075 7.82177 20.6747 7.6069 20.9086 7.52572C21.1474 7.43977 21.41 7.50185 21.5628 7.72627C21.6678 7.88862 21.7872 7.90295 21.9591 7.88385C22.6848 7.817 23.4154 7.7597 24.1411 7.7024C24.2462 7.69285 24.3273 7.69285 24.3751 7.55915C24.4753 7.29175 24.6759 7.17237 24.948 7.1867C25.2107 7.20102 25.4112 7.34905 25.4733 7.626C25.5067 7.76447 25.5688 7.80267 25.6834 7.83132C25.9555 7.89817 26.2229 7.96502 26.4903 8.03665C26.5953 8.0653 26.6622 8.05575 26.7434 7.9698C26.9534 7.75492 27.2017 7.70717 27.4357 7.81222C27.6792 7.92682 27.7938 8.11782 27.7651 8.43775C27.7556 8.5428 27.789 8.6001 27.8654 8.6574C28.4432 9.06327 29.0209 9.47393 29.5986 9.88458C29.675 9.9371 29.7276 9.93233 29.8087 9.89413C30.0713 9.76043 30.3292 9.8034 30.5106 9.98963C30.7016 10.1854 30.7398 10.4528 30.5822 10.7154C30.5202 10.8205 30.5393 10.8826 30.5918 10.9685C31.3032 12.1432 32.0147 13.313 32.7165 14.4877C32.7786 14.588 32.8359 14.6262 32.9601 14.6214C33.2609 14.6071 33.4757 14.7694 33.5474 15.0368C33.6237 15.3281 33.5235 15.5812 33.2561 15.7196C33.1415 15.7769 33.1129 15.8342 33.1129 15.9536C33.1129 16.2497 33.1129 16.5362 33.1129 16.8609C33.1033 17.028 33.1558 17.0757 33.3229 17.071C34.1728 17.0614 35.0275 17.0757 35.8726 17.0614C36.0971 17.0566 36.1926 17.1235 36.1735 17.3575C36.1544 17.5723 36.1687 17.7872 36.1687 18.0021C36.1687 18.1406 36.1114 18.2122 35.9681 18.2026C35.9061 18.1979 35.8392 18.2026 35.7772 18.2026C32.8455 18.2026 29.909 18.2122 26.9773 18.1931C26.5285 18.1883 26.1322 18.279 25.7598 18.513C25.4446 18.7088 25.1438 18.9284 24.8335 19.129C24.2366 19.5158 23.5586 19.6638 22.8997 19.1433C22.4843 18.8138 22.0402 18.5178 21.5389 18.322C21.3288 18.2408 21.1187 18.1979 20.8895 18.1979C19.3903 18.2074 17.8814 18.2074 16.3726 18.2074ZM15.136 14.1534C16.1912 13.4802 17.2464 12.8069 18.3016 12.1336C18.3494 12.105 18.378 12.0668 18.378 11.9999C18.3828 11.7516 18.612 11.7612 18.3732 11.5702C18.2777 11.5224 17.848 11.1882 17.7382 11.1118C17.5615 10.9972 17.3801 10.8062 17.1223 10.9685C17.0793 10.9924 17.0124 10.9924 16.9599 10.9828C16.8596 10.959 16.8167 11.0067 16.7737 11.0831C16.215 12.0954 15.6564 13.1077 15.0978 14.1152C15.0834 14.1343 15.0787 14.1582 15.1025 14.1725C15.1073 14.1869 15.1264 14.163 15.136 14.1534ZM19.4475 11.3601C19.4762 11.3457 19.5048 11.3362 19.5335 11.3171C21.1187 10.2284 22.6991 9.14922 24.2844 8.06052C24.3178 8.03665 24.3512 8.01277 24.3226 7.96025C23.4965 8.02232 22.6657 8.08917 21.8397 8.15125C21.7442 8.1608 21.6965 8.199 21.6583 8.2945C21.5771 8.49505 21.4195 8.67173 21.1951 8.64785C20.9277 8.6192 20.8561 8.78155 20.7606 8.95345C20.732 9.01075 20.6985 9.06327 20.6651 9.12058C20.2497 9.8607 19.8343 10.5961 19.4189 11.3314C19.3998 11.3362 19.3807 11.3457 19.3998 11.3696C19.4046 11.3792 19.4332 11.3648 19.4475 11.3601ZM25.3539 10.959C25.0674 11.0067 24.7618 11.0592 24.4562 11.107C22.8854 11.3601 21.324 11.6179 19.7531 11.871C19.6433 11.8901 19.5383 11.8853 19.4905 12.0477C19.4428 12.2148 19.5669 12.2387 19.6385 12.3055C19.7484 12.4201 19.8773 12.5156 19.9966 12.6207C21.0662 13.5613 22.1262 14.4972 23.1957 15.4331C23.4631 15.6671 23.826 15.5859 23.9597 15.266C24.1841 14.7408 24.4085 14.2155 24.6329 13.6903C24.9624 12.9072 25.2918 12.1288 25.6213 11.3505C25.6929 11.1786 25.5497 10.9542 25.3539 10.959ZM16.6877 17.0901C17.2607 17.0901 17.8337 17.0901 18.4067 17.0901C18.5308 17.0901 18.6167 17.0805 18.6215 16.9182C18.674 15.4761 18.7313 14.0341 18.7934 12.592C18.7982 12.4726 18.7504 12.4297 18.6597 12.3771C18.569 12.3198 18.5022 12.3103 18.4067 12.3724C17.3849 13.0313 16.3678 13.6903 15.346 14.3444C15.2506 14.4065 15.2362 14.4638 15.2506 14.5736C15.2792 14.8219 15.1789 15.0368 14.945 15.1419C14.8113 15.2039 14.8017 15.2803 14.8017 15.3997C14.8065 15.8915 14.8113 16.3881 14.797 16.88C14.7922 17.0662 14.8542 17.0996 15.0261 17.0996C15.58 17.0853 16.1387 17.0901 16.6877 17.0901ZM18.8603 16.8656C18.7982 17.0566 18.8889 17.0996 19.0894 17.0948C19.7006 17.0853 20.3166 17.1092 20.9277 17.0853C21.2572 17.071 21.5532 17.1378 21.8445 17.262C21.9495 17.3097 22.0164 17.2954 22.1023 17.2285C22.3219 17.0471 22.5559 16.88 22.7803 16.6985C23.0047 16.5171 23.3199 16.3834 23.1909 15.9966C23.1862 15.9823 23.1909 15.9632 23.2005 15.9488C23.253 15.8342 23.2053 15.7674 23.1145 15.6862C21.8827 14.6118 20.6556 13.5375 19.4285 12.4535C19.3473 12.3819 19.2804 12.3676 19.1754 12.4106C19.0656 12.4535 19.0608 12.5204 19.056 12.6111C18.9892 14.0245 18.9271 15.4331 18.8603 16.8656ZM24.3321 15.7722C24.3751 15.7578 24.4228 15.7435 24.4658 15.7292C26.0749 15.2087 27.6792 14.6882 29.2883 14.1773C29.4602 14.1248 29.4936 14.0197 29.5366 13.8813C29.5795 13.738 29.465 13.6998 29.3933 13.6377C28.4623 12.8737 27.5264 12.1097 26.6001 11.3505C26.347 11.1404 25.9507 11.2359 25.8218 11.5367C25.5115 12.2673 25.2059 12.9979 24.8955 13.7237C24.652 14.3015 24.4037 14.8745 24.1602 15.4522C24.0934 15.6194 24.1793 15.7817 24.3321 15.7722ZM31.542 17.071C31.1218 16.2688 30.7112 15.5 30.3101 14.736C30.2576 14.6357 30.1812 14.6309 30.0904 14.6405C29.9281 14.65 29.7849 14.5975 29.6846 14.4781C29.5939 14.3779 29.5175 14.3731 29.3933 14.4113C27.7699 14.9413 26.1513 15.4618 24.5279 15.987C24.4562 16.0109 24.3512 16.0014 24.3417 16.1064C24.3321 16.2258 24.4562 16.2258 24.5279 16.2544C25.2107 16.5123 25.8982 16.7654 26.5762 17.0184C26.667 17.0519 26.7577 17.0805 26.8532 17.0805C28.4145 17.071 29.9567 17.071 31.542 17.071ZM19.543 11.6227C19.6147 11.6275 19.6385 11.6322 19.6624 11.6275C21.4195 11.341 23.1718 11.0497 24.9289 10.768C25.2059 10.725 25.5067 10.7298 25.5735 10.3621C25.5783 10.343 25.6022 10.3239 25.6213 10.3096C25.7072 10.2427 25.6977 10.1759 25.6595 10.0804C25.5019 9.6888 25.3539 9.29725 25.2107 8.90093C25.1104 8.6192 25.0579 8.3327 24.6616 8.28972C24.5279 8.2754 24.4419 8.2563 24.3273 8.3327C23.6875 8.77677 23.0429 9.2113 22.4031 9.6506C21.4625 10.3048 20.5266 10.9494 19.543 11.6227ZM29.9615 12.2434C29.9615 11.9426 29.9568 11.6418 29.9615 11.3362C29.9663 11.1356 29.9854 10.9446 29.7323 10.8682C29.675 10.8491 29.613 10.7775 29.5891 10.7154C29.5413 10.5913 29.4602 10.5817 29.3456 10.5913C28.4909 10.6629 27.6362 10.7298 26.7911 10.7966C26.7052 10.8014 26.624 10.7918 26.5858 10.9064C26.5476 11.021 26.6335 11.0449 26.6908 11.0927C27.6649 11.8949 28.6389 12.6923 29.6082 13.4897C29.6798 13.5518 29.7323 13.5757 29.8374 13.5279C29.9424 13.4754 29.9663 13.4181 29.9663 13.3083C29.9615 12.9549 29.9615 12.6016 29.9615 12.2434ZM19.6099 10.4528C19.9728 9.81295 20.3356 9.17788 20.6985 8.54757C20.6508 8.49982 20.6221 8.51892 20.5935 8.53325C19.6242 9.08238 18.6597 9.6315 17.7 10.1806C17.5663 10.257 17.5329 10.639 17.6522 10.7298C17.9196 10.9399 18.1966 11.1404 18.4687 11.3457C18.5069 11.3744 18.5451 11.4174 18.5929 11.3983M30.2719 10.9685C30.2528 10.9781 30.2289 10.9876 30.2098 10.9972C30.2098 11.7898 30.2098 12.5825 30.2098 13.3751C30.2098 13.4611 30.2576 13.4849 30.3196 13.5088C30.5345 13.59 30.6539 13.7619 30.673 13.9815C30.6873 14.1296 30.7541 14.1821 30.8783 14.2251C31.3701 14.4113 31.8523 14.6118 32.3441 14.8028C32.4062 14.8267 32.4778 14.8936 32.5399 14.8315C32.6258 14.7455 32.5208 14.6835 32.4874 14.6262C31.9526 13.7332 31.413 12.8451 30.8735 11.9617C30.6634 11.6322 30.4676 11.298 30.2719 10.9685ZM32.8646 16.0587C32.8264 15.8677 32.8502 15.7626 32.6688 15.6814C32.5065 15.6098 32.4205 15.4475 32.4157 15.2756C32.411 15.1275 32.3393 15.075 32.2152 15.0273C31.733 14.841 31.2555 14.6453 30.7732 14.459C30.7016 14.4304 30.6204 14.3397 30.5345 14.4256C30.439 14.5211 30.5297 14.6023 30.5679 14.6787C30.926 15.3567 31.2985 16.03 31.6375 16.7176M26.8341 10.5292C27.6697 10.4624 28.51 10.4003 29.3408 10.3334C29.4077 10.3287 29.4936 10.343 29.5222 10.257C29.5604 10.1472 29.4506 10.1281 29.3933 10.0899C28.9397 9.76998 28.4861 9.45005 28.0373 9.12535C27.7986 8.95823 27.5837 8.71948 27.2542 8.93435C27.2447 8.9439 27.2208 8.9439 27.2065 8.93913C27.068 8.91048 27.0155 8.99165 26.963 9.10625C26.815 9.4214 26.6574 9.73178 26.4998 10.0422C26.3614 10.3382 26.5046 10.5483 26.8341 10.5292ZM25.2489 8.31837C25.2536 8.3327 25.2632 8.34703 25.268 8.36135C25.4828 8.91525 25.6977 9.46915 25.9078 10.0231C25.9364 10.0995 25.9794 10.1329 26.0653 10.1424C26.1513 10.152 26.199 10.1138 26.2324 10.0422C26.4091 9.6697 26.5906 9.30203 26.7672 8.92957C26.7863 8.89137 26.8197 8.85795 26.7911 8.80065C26.6479 8.50937 26.5046 8.23242 26.1035 8.22287C25.9173 8.2181 25.7359 8.13215 25.5544 8.08917C25.4446 8.06052 25.2489 8.2181 25.2489 8.31837ZM26.1752 17.133C25.5401 16.8943 24.9528 16.6794 24.3703 16.4598C24.2939 16.4311 24.2366 16.4359 24.1793 16.4932C24.122 16.5553 24.1459 16.603 24.1793 16.6651C24.3464 16.9946 24.5135 17.3288 24.6711 17.6631C24.7141 17.7538 24.7475 17.8063 24.8621 17.7347C25.2536 17.4816 25.6834 17.3049 26.1752 17.133ZM23.9167 18.3554C24.0981 18.2743 24.2939 18.1024 24.4897 17.9352C24.547 17.8875 24.4849 17.8302 24.4658 17.7872C24.2987 17.4482 24.122 17.1092 23.9501 16.7701C23.9263 16.7176 23.9024 16.6651 23.8355 16.6746C23.7591 16.6842 23.7735 16.751 23.7639 16.8036C23.6923 17.1999 23.6254 17.5962 23.5538 17.9973C23.5108 18.2217 23.6254 18.3602 23.9167 18.3554ZM23.2864 18.026C23.3676 17.5723 23.444 17.1712 23.5204 16.7654C23.53 16.7033 23.5395 16.6412 23.4727 16.5982C23.4058 16.5553 23.3581 16.5696 23.3008 16.6126C22.9618 16.88 22.618 17.1426 22.2551 17.4243C22.6132 17.6201 22.957 17.7777 23.2864 18.026Z" fill="white"/>
<path d="M20.2114 28.827C21.0804 28.827 21.9447 28.8318 22.8089 28.8223C22.9808 28.8223 23.0524 28.8509 23.0524 29.0515C23.0429 30.3694 23.0429 31.6873 23.0524 33.0052C23.0524 33.1723 23.0333 33.2391 22.8375 33.2391C21.2953 33.2296 19.7578 33.2344 18.2156 33.2391C18.0676 33.2391 18.0198 33.2009 17.9816 33.0529C17.6379 31.7398 17.4612 30.4123 17.3848 29.061C17.3752 28.8652 17.4325 28.827 17.614 28.827C18.4782 28.8318 19.3424 28.827 20.2114 28.827Z" fill="white"/>
<path d="M27.0821 33.2339C26.3086 33.2339 25.5399 33.2292 24.7711 33.2387C24.6231 33.2387 24.5658 33.2148 24.5706 33.0477C24.5801 31.7012 24.5801 30.3642 24.5706 29.0176C24.5706 28.8552 24.6231 28.8218 24.7711 28.8266C26.5282 28.8314 28.2806 28.8314 30.0424 28.8266C30.2143 28.8266 30.2525 28.8696 30.243 29.0415C30.1761 30.2257 30.0233 31.3956 29.7751 32.5559C29.627 33.2387 29.6366 33.2435 28.949 33.2435C28.3235 33.2339 27.7028 33.2339 27.0821 33.2339Z" fill="white"/>
<path d="M31.1982 33.2344C31.5325 31.8257 31.7044 30.4314 31.7569 29.0133C31.7617 28.8509 31.819 28.8223 31.967 28.8223C33.2227 28.827 34.4737 28.827 35.7295 28.8223C35.887 28.8223 35.9396 28.8605 35.9205 29.0228C35.782 30.4601 35.4143 31.8257 34.7888 33.1293C34.7507 33.2057 34.7125 33.2391 34.6313 33.2391C33.4949 33.2344 32.3633 33.2344 31.1982 33.2344Z" fill="white"/>
<path d="M13.7895 28.827C14.4102 28.827 15.031 28.8318 15.6517 28.8223C15.7949 28.8223 15.857 28.8414 15.8618 29.0085C15.9238 30.3932 16.0671 31.7589 16.4013 33.1102C16.4491 33.3108 16.301 33.2296 16.2342 33.2296C15.3031 33.2344 14.372 33.2009 13.4458 33.2487C12.9826 33.2726 12.7773 33.115 12.6149 32.7043C12.1422 31.5154 11.808 30.3025 11.6934 29.0276C11.6791 28.8748 11.7125 28.8223 11.8749 28.827C12.5194 28.8366 13.1497 28.827 13.7895 28.827Z" fill="white"/>
<path d="M18.5448 34.7673C18.5974 34.7625 18.6499 34.7577 18.7024 34.7577C20.0775 34.7577 21.4479 34.7625 22.8278 34.7529C23.0092 34.7529 23.0522 34.8007 23.0474 34.9774C23.0379 36.5197 23.0379 38.0572 23.0474 39.6043C23.0474 39.8049 23.014 39.8431 22.8135 39.781C21.8155 39.4659 21.042 38.8356 20.3831 38.0525C19.5714 37.0927 18.9937 35.9944 18.5401 34.8246C18.5353 34.8102 18.5401 34.7959 18.5448 34.7673Z" fill="white"/>
<path d="M24.5756 37.3115C24.5756 36.5236 24.5804 35.7357 24.5708 34.9574C24.5708 34.8237 24.5851 34.7568 24.7475 34.7568C26.1369 34.7616 27.5264 34.7616 28.9158 34.7568C29.0638 34.7568 29.0973 34.795 29.0447 34.9335C28.4383 36.4233 27.6648 37.8033 26.4282 38.8729C25.9412 39.2931 25.3921 39.6035 24.7761 39.7945C24.6185 39.8422 24.5708 39.8231 24.5756 39.6464C24.5803 38.8633 24.5756 38.0898 24.5756 37.3115Z" fill="white"/>
<path d="M19.0657 38.9784C18.3924 38.7253 17.7669 38.3815 17.1653 37.9947C15.8809 37.1734 14.7875 36.1468 13.8898 34.9148C13.8612 34.8766 13.823 34.848 13.8326 34.7907C13.8707 34.7334 13.9328 34.762 13.9853 34.762C14.8782 34.762 15.7663 34.7668 16.6544 34.7573C16.812 34.7573 16.8932 34.7955 16.9457 34.953C17.4423 36.3855 18.1107 37.7273 19.0752 38.9068C19.0848 38.9163 19.0848 38.9354 19.0895 38.9497C19.0848 38.9593 19.0752 38.9688 19.0657 38.9784Z" fill="white"/>
<path d="M28.5337 38.9502C28.9825 38.3246 29.4361 37.7039 29.7847 37.0211C30.1332 36.3335 30.4531 35.6315 30.7014 34.9057C30.7301 34.8198 30.7539 34.7529 30.8733 34.7529C31.8521 34.7577 32.8262 34.7577 33.8575 34.7577C33.6379 35.0394 33.4517 35.2925 33.2511 35.5313C31.9667 37.064 30.4102 38.2196 28.5623 38.9788C28.548 38.9693 28.5432 38.9597 28.5337 38.9502Z" fill="white"/>
<path d="M28.5586 38.9792C28.5393 38.9841 28.5054 38.9937 28.5054 38.9889C28.4909 38.9599 28.5151 38.9599 28.5344 38.9502C28.5441 38.9599 28.5489 38.9695 28.5586 38.9792Z" fill="white"/>
<path d="M19.0945 38.9502C19.1138 38.955 19.138 38.9647 19.1235 38.9889C19.1187 38.9937 19.0848 38.9792 19.0654 38.9792C19.0751 38.9695 19.0848 38.9599 19.0945 38.9502Z" fill="white"/>
<path d="M25.3537 10.9591C25.5494 10.9543 25.6927 11.1787 25.621 11.3554C25.2916 12.1385 24.9621 12.9216 24.6327 13.6951C24.4083 14.2204 24.1839 14.7456 23.9594 15.2709C23.8257 15.5908 23.4581 15.672 23.1955 15.438C22.1259 14.4973 21.0659 13.5614 19.9964 12.6255C19.877 12.5205 19.7529 12.4202 19.6383 12.3104C19.5715 12.2435 19.4473 12.2197 19.4903 12.0525C19.538 11.8902 19.6431 11.895 19.7529 11.8759C21.3238 11.618 22.8851 11.3649 24.456 11.1119C24.7711 11.0593 25.072 11.0068 25.3537 10.9591Z" fill="#221F51"/>
<path d="M16.6877 17.0941C16.1291 17.0941 15.5752 17.0894 15.0166 17.0989C14.8447 17.1037 14.7826 17.0702 14.7874 16.8792C14.7921 16.397 14.7969 15.8956 14.7921 15.399C14.7921 15.2796 14.8017 15.2032 14.9354 15.1411C15.1646 15.0361 15.2696 14.8212 15.241 14.5729C15.2266 14.4583 15.241 14.4058 15.3365 14.3437C16.363 13.6895 17.38 13.0354 18.3971 12.3716C18.4926 12.3096 18.5594 12.3191 18.6501 12.3764C18.7361 12.4289 18.7886 12.4719 18.7838 12.5913C18.7217 14.0333 18.6644 15.4754 18.6119 16.9174C18.6072 17.0798 18.5212 17.0894 18.3971 17.0894C17.8336 17.0941 17.2607 17.0941 16.6877 17.0941Z" fill="#221F51"/>
<path d="M18.8603 16.87C18.9224 15.4375 18.9844 14.0336 19.0465 12.6202C19.0513 12.5295 19.0608 12.4627 19.1659 12.4197C19.2709 12.3767 19.333 12.391 19.4189 12.4627C20.6461 13.5466 21.8732 14.621 23.105 15.6953C23.191 15.7717 23.2435 15.8434 23.191 15.958C23.1862 15.9723 23.1814 15.9914 23.1814 16.0057C23.3056 16.3925 22.9952 16.5262 22.7708 16.7076C22.5464 16.8843 22.3172 17.0562 22.0928 17.2377C22.0069 17.3045 21.94 17.3188 21.835 17.2711C21.5437 17.1422 21.2477 17.0801 20.9182 17.0944C20.307 17.1231 19.6959 17.0944 19.0799 17.104C18.8937 17.104 18.803 17.0562 18.8603 16.87Z" fill="#221F51"/>
<path d="M24.3319 15.7766C24.1791 15.7814 24.0931 15.6238 24.1648 15.4567C24.4083 14.8789 24.6566 14.3059 24.9001 13.7282C25.2104 12.9976 25.516 12.267 25.8264 11.5412C25.9553 11.2404 26.3516 11.1449 26.6047 11.355C27.5357 12.119 28.4716 12.883 29.3979 13.6422C29.4695 13.7043 29.5841 13.7425 29.5411 13.8857C29.4981 14.0242 29.4647 14.1245 29.2928 14.1818C27.679 14.6879 26.0794 15.2132 24.4703 15.7337C24.4226 15.748 24.3796 15.7623 24.3319 15.7766Z" fill="#221F51"/>
<path d="M31.5419 17.0751C29.9567 17.0751 28.4144 17.0751 26.8626 17.0751C26.7671 17.0751 26.6764 17.0465 26.5857 17.013C25.9029 16.76 25.2153 16.5069 24.5373 16.249C24.4657 16.2204 24.3416 16.2204 24.3511 16.101C24.3559 15.996 24.4657 16.0055 24.5373 15.9816C26.1607 15.4564 27.7794 14.9311 29.4028 14.4059C29.5221 14.3677 29.6033 14.3725 29.694 14.4727C29.7943 14.5921 29.9423 14.6446 30.0999 14.6351C30.1906 14.6303 30.267 14.6303 30.3195 14.7306C30.7158 15.5041 31.1217 16.2729 31.5419 17.0751Z" fill="#221F51"/>
<path d="M19.543 11.6275C20.5218 10.9542 21.4624 10.3048 22.403 9.66017C23.0429 9.22086 23.6874 8.78157 24.3273 8.34226C24.4419 8.26586 24.5278 8.28496 24.6615 8.29929C25.0578 8.34226 25.1103 8.62877 25.2106 8.91049C25.3538 9.30682 25.5018 9.69837 25.6594 10.0899C25.6976 10.1854 25.7072 10.2523 25.6212 10.3191C25.6021 10.3334 25.5782 10.3525 25.5735 10.3716C25.5066 10.7441 25.2058 10.7345 24.9289 10.7775C23.1718 11.0592 21.4194 11.3505 19.6623 11.637C19.6385 11.637 19.6146 11.6322 19.543 11.6275Z" fill="#221F51"/>
<path d="M29.9616 12.2429C29.9616 12.601 29.9568 12.9591 29.9616 13.3125C29.9616 13.4176 29.9377 13.4796 29.8326 13.5322C29.7324 13.5799 29.6799 13.5513 29.6035 13.494C28.6294 12.6918 27.6554 11.8943 26.6861 11.0969C26.6288 11.0491 26.5476 11.0253 26.5811 10.9107C26.6193 10.7961 26.7004 10.8056 26.7864 10.8008C27.641 10.734 28.4957 10.6671 29.3409 10.5955C29.4554 10.586 29.5366 10.5955 29.5844 10.7197C29.6082 10.7817 29.6655 10.8534 29.7276 10.8725C29.9807 10.9489 29.9616 11.1399 29.9568 11.3404C29.9568 11.6412 29.9616 11.9421 29.9616 12.2429Z" fill="#221F51"/>
<path d="M19.4238 11.3409C19.8392 10.6008 20.2546 9.8654 20.67 9.13005C20.7035 9.07275 20.7369 9.02023 20.7655 8.96293C20.861 8.79103 20.9326 8.62868 21.2 8.65733C21.4197 8.6812 21.582 8.50453 21.6632 8.30398C21.7014 8.2037 21.7491 8.1655 21.8446 8.16073C22.6754 8.09865 23.5062 8.0318 24.3275 7.96973C24.3561 8.02703 24.3227 8.0509 24.2893 8.07C22.7041 9.1587 21.1236 10.2379 19.5384 11.3266C19.5145 11.3457 19.4811 11.3552 19.4525 11.3695C19.4429 11.3552 19.4334 11.3504 19.4238 11.3409Z" fill="#221F51"/>
<path d="M18.3255 11.5317C18.5976 11.7179 18.3828 11.7609 18.378 12.0092C18.378 12.076 18.3494 12.1142 18.3016 12.1429C17.2464 12.8161 16.1912 13.4894 15.136 14.1627C15.1264 14.1531 15.1169 14.1436 15.1025 14.134C15.6612 13.1217 16.2198 12.1094 16.7785 11.1019C16.8214 11.0255 16.8644 10.973 16.9647 11.0016C17.0172 11.016 17.0841 11.016 17.127 10.9873" fill="#221F51"/>
<path d="M20.6983 8.55243C20.3402 9.18273 19.9726 9.82258 19.6097 10.4577C19.5333 10.5866 19.2611 11.0736 19.1847 11.2026C18.8792 11.7421 18.903 11.2885 18.5927 11.4079C18.5402 11.427 18.502 11.384 18.4685 11.3554C18.1964 11.15 17.9194 10.9495 17.6521 10.7394C17.5327 10.6439 17.5661 10.2667 17.6998 10.1903C18.6643 9.64113 19.6336 9.09201 20.5933 8.54288C20.6219 8.52378 20.6506 8.50468 20.6983 8.55243Z" fill="#221F51"/>
<path d="M30.2718 10.9727C30.4676 11.3021 30.6681 11.6316 30.8639 11.9611C31.4034 12.8492 31.943 13.7374 32.4777 14.6255C32.5112 14.6828 32.6162 14.7449 32.5303 14.8309C32.4634 14.8929 32.3966 14.8261 32.3345 14.8022C31.8475 14.6112 31.3605 14.4107 30.8687 14.2244C30.7445 14.1767 30.6777 14.1289 30.6633 13.9809C30.6442 13.7613 30.5296 13.5941 30.31 13.5082C30.2479 13.4843 30.2002 13.4604 30.2002 13.3745C30.205 12.5818 30.2002 11.7892 30.2002 10.9965C30.2288 10.9918 30.2479 10.9822 30.2718 10.9727Z" fill="#221F51"/>
<path d="M32.8166 17.037C32.6972 17.1421 32.4203 17.0943 32.2197 17.08C32.0144 17.0657 31.8234 16.9702 31.6468 16.7314C31.3078 16.0438 30.9353 15.3706 30.5772 14.6925C30.5343 14.6113 30.4483 14.5302 30.5438 14.4394C30.6298 14.3535 30.7062 14.4442 30.7826 14.4729C31.2648 14.6591 31.7423 14.8549 32.2245 15.0411C32.3487 15.0888 32.4203 15.1366 32.4251 15.2894C32.4298 15.4613 32.5158 15.6236 32.6781 15.6953C32.8596 15.7764 32.8834 15.8815 32.8739 16.0725" fill="#221F51"/>
<path d="M26.8341 10.534C26.5046 10.5531 26.3614 10.3382 26.5046 10.0517C26.6574 9.7413 26.8197 9.43093 26.9678 9.11578C27.0203 9.00595 27.0728 8.92478 27.2113 8.94865C27.2256 8.95343 27.2447 8.94865 27.259 8.94387C27.5885 8.72422 27.8081 8.96775 28.0421 9.13487C28.4957 9.4548 28.9493 9.77473 29.3981 10.0994C29.4554 10.1424 29.5652 10.1615 29.527 10.2666C29.4984 10.3525 29.4124 10.3382 29.3456 10.343C28.51 10.405 27.6744 10.4671 26.8341 10.534Z" fill="#221F51"/>
<path d="M25.249 8.32332C25.249 8.22304 25.4448 8.06547 25.5498 8.08934C25.736 8.13232 25.9175 8.21827 26.0989 8.22304C26.5 8.23259 26.6385 8.50954 26.7865 8.80082C26.8151 8.85812 26.7817 8.89154 26.7626 8.92974C26.586 9.30219 26.4093 9.66987 26.2278 10.0423C26.1944 10.1139 26.1467 10.1474 26.0607 10.1426C25.9748 10.133 25.9366 10.0996 25.9032 10.0232C25.6931 9.46932 25.4782 8.91542 25.2633 8.36152C25.2633 8.35197 25.2538 8.33764 25.249 8.32332Z" fill="#221F51"/>
<path d="M26.1749 17.1371C25.6831 17.309 25.2534 17.4857 24.8619 17.7387C24.752 17.8104 24.7186 17.7578 24.6709 17.6671C24.5085 17.3329 24.3462 16.9986 24.1791 16.6691C24.1504 16.6071 24.1218 16.5593 24.1791 16.4972C24.2364 16.4352 24.2937 16.4352 24.3701 16.4638C24.9574 16.6787 25.5399 16.8983 26.1749 17.1371Z" fill="#221F51"/>
<path d="M23.9165 18.3596C23.6253 18.3596 23.5107 18.2211 23.5537 18.0015C23.6253 17.6051 23.6921 17.2088 23.7638 16.8077C23.7733 16.7552 23.759 16.6883 23.8354 16.6788C23.907 16.6692 23.9261 16.7265 23.95 16.7743C24.1219 17.1133 24.2937 17.4523 24.4656 17.7914C24.4895 17.8343 24.5468 17.8964 24.4895 17.9394C24.2937 18.1065 24.098 18.2784 23.9165 18.3596Z" fill="#221F51"/>
<path d="M23.2862 18.0309C22.9615 17.7778 22.613 17.6203 22.2549 17.4293C22.6178 17.1475 22.9568 16.8849 23.3005 16.6175C23.3578 16.5745 23.4056 16.5554 23.4724 16.6032C23.5393 16.6509 23.5345 16.7082 23.5202 16.7703C23.4438 17.181 23.3674 17.5821 23.2862 18.0309Z" fill="#221F51"/>
<path d="M15.1363 14.1579C15.1266 14.1676 15.1121 14.1918 15.1073 14.187C15.0831 14.1725 15.0879 14.1483 15.1024 14.1289C15.1121 14.1386 15.1266 14.1434 15.1363 14.1579Z" fill="#221F51"/>
<path d="M19.448 11.365C19.4335 11.3699 19.4045 11.3844 19.3996 11.3795C19.3803 11.3602 19.3996 11.3457 19.419 11.3408C19.4335 11.3505 19.4432 11.3553 19.448 11.365Z" fill="#221F51"/>
<path d="M16.8691 11.1973C17.2515 11.1973 17.5614 10.8873 17.5614 10.5049C17.5614 10.1225 17.2515 9.8125 16.8691 9.8125C16.4867 9.8125 16.1768 10.1225 16.1768 10.5049C16.1768 10.8873 16.4867 11.1973 16.8691 11.1973Z" fill="white"/>
<path d="M23.8357 16.9224C24.2708 16.9224 24.6235 16.5697 24.6235 16.1346C24.6235 15.6994 24.2708 15.3467 23.8357 15.3467C23.4006 15.3467 23.0479 15.6994 23.0479 16.1346C23.0479 16.5697 23.4006 16.9224 23.8357 16.9224Z" fill="white"/>
<path d="M32.9885 15.9674C33.4236 15.9674 33.7763 15.6146 33.7763 15.1795C33.7763 14.7443 33.4236 14.3916 32.9885 14.3916C32.5534 14.3916 32.2007 14.7443 32.2007 15.1795C32.2007 15.6146 32.5534 15.9674 32.9885 15.9674Z" fill="white"/>
<path d="M16.9167 11.2447C17.3518 11.2447 17.7046 10.892 17.7046 10.4568C17.7046 10.0217 17.3518 9.66895 16.9167 9.66895C16.4816 9.66895 16.1289 10.0217 16.1289 10.4568C16.1289 10.892 16.4816 11.2447 16.9167 11.2447Z" fill="white"/>
<path d="M18.97 12.6295C19.4051 12.6295 19.7578 12.2767 19.7578 11.8416C19.7578 11.4065 19.4051 11.0537 18.97 11.0537C18.5349 11.0537 18.1821 11.4065 18.1821 11.8416C18.1821 12.2767 18.5349 12.6295 18.97 12.6295Z" fill="white"/>
<path d="M30.0808 14.8218C30.5159 14.8218 30.8686 14.4691 30.8686 14.034C30.8686 13.5988 30.5159 13.2461 30.0808 13.2461C29.6457 13.2461 29.293 13.5988 29.293 14.034C29.293 14.4691 29.6457 14.8218 30.0808 14.8218Z" fill="white"/>
<path d="M30.0808 11.1978C30.5159 11.1978 30.8686 10.8451 30.8686 10.4099C30.8686 9.97481 30.5159 9.62207 30.0808 9.62207C29.6457 9.62207 29.293 9.97481 29.293 10.4099C29.293 10.8451 29.6457 11.1978 30.0808 11.1978Z" fill="white"/>
<path d="M26.0271 11.5318C26.4622 11.5318 26.8149 11.1791 26.8149 10.7439C26.8149 10.3088 26.4622 9.95605 26.0271 9.95605C25.592 9.95605 25.2393 10.3088 25.2393 10.7439C25.2393 11.1791 25.592 11.5318 26.0271 11.5318Z" fill="white"/>
<path d="M14.6775 15.3951C15.1126 15.3951 15.4653 15.0423 15.4653 14.6072C15.4653 14.1721 15.1126 13.8193 14.6775 13.8193C14.2424 13.8193 13.8896 14.1721 13.8896 14.6072C13.8896 15.0423 14.2424 15.3951 14.6775 15.3951Z" fill="white"/>
<path d="M27.1731 9.19685C27.6082 9.19685 27.9609 8.8441 27.9609 8.40897C27.9609 7.97384 27.6082 7.62109 27.1731 7.62109C26.738 7.62109 26.3853 7.97384 26.3853 8.40897C26.3853 8.8441 26.738 9.19685 27.1731 9.19685Z" fill="white"/>
<path d="M24.9289 8.6236C25.3641 8.6236 25.7168 8.27086 25.7168 7.83573C25.7168 7.4006 25.3641 7.04785 24.9289 7.04785C24.4938 7.04785 24.1411 7.4006 24.1411 7.83573C24.1411 8.27086 24.4938 8.6236 24.9289 8.6236Z" fill="white"/>
<path d="M21.0662 8.86286C21.5013 8.86286 21.854 8.51012 21.854 8.07499C21.854 7.63985 21.5013 7.28711 21.0662 7.28711C20.631 7.28711 20.2783 7.63985 20.2783 8.07499C20.2783 8.51012 20.631 8.86286 21.0662 8.86286Z" fill="white"/>
<path d="M23.7163 41.6571C21.2907 41.6571 18.9367 41.1844 16.7213 40.2485C14.5822 39.346 12.658 38.0567 11.0107 36.4093C9.35862 34.762 8.06466 32.8472 7.15746 30.7175C6.22162 28.5067 5.74414 26.1622 5.74414 23.746C5.74414 21.3299 6.22162 18.9806 7.15746 16.7745C8.06466 14.6401 9.35862 12.7253 11.0107 11.0827C12.6627 9.43532 14.5822 8.14607 16.7213 7.24359C18.9367 6.30769 21.2907 5.83496 23.7163 5.83496C26.1418 5.83496 28.4958 6.30769 30.7112 7.24359C32.8503 8.14607 34.7745 9.43532 36.4218 11.0827C38.0739 12.7301 39.3678 14.6449 40.275 16.7745C41.2109 18.9853 41.6884 21.3299 41.6884 23.746C41.6884 26.1622 41.2109 28.5115 40.275 30.7175C39.3678 32.852 38.0739 34.7667 36.4218 36.4093C34.7698 38.0567 32.8503 39.346 30.7112 40.2485C28.4958 41.1796 26.1418 41.6571 23.7163 41.6571ZM23.7163 6.06416C13.9376 6.06416 5.98288 13.9955 5.98288 23.7412C5.98288 33.487 13.9376 41.4183 23.7163 41.4183C33.4949 41.4183 41.4496 33.487 41.4496 23.7412C41.4449 13.9955 33.4901 6.06416 23.7163 6.06416Z" fill="white"/>
<path d="M23.74 47.54C20.5362 47.54 17.4278 46.9097 14.5009 45.673C11.6742 44.4744 9.13408 42.7602 6.9568 40.578C4.77474 38.3959 3.06538 35.8508 1.86692 33.024C0.630267 30.0921 0 26.9788 0 23.77C0 20.5612 0.625493 17.4479 1.86692 14.516C3.06061 11.6844 4.77474 9.14414 6.9568 6.96196C9.13885 4.77978 11.6742 3.06556 14.5009 1.86703C17.4278 0.625528 20.5362 0 23.74 0C26.9439 0 30.0522 0.630303 32.9791 1.86703C35.8058 3.06556 38.3459 4.77978 40.5232 6.96196C42.7053 9.14414 44.4146 11.6892 45.6131 14.516C46.8497 17.4479 47.48 20.5612 47.48 23.77C47.48 26.9788 46.8545 30.0921 45.6131 33.024C44.4194 35.8556 42.7053 38.3959 40.5232 40.578C38.3412 42.7602 35.8058 44.4744 32.9791 45.673C30.0522 46.9097 26.9439 47.54 23.74 47.54ZM23.74 0.310376C10.8243 0.310376 0.315133 10.8345 0.315133 23.7652C0.315133 36.7007 10.8243 47.2201 23.74 47.2201C36.6557 47.2201 47.1649 36.696 47.1649 23.7652C47.1649 10.8297 36.6557 0.310376 23.74 0.310376Z" fill="white"/>
</g>
<defs>
<clipPath id="clip0_383_2">
<rect width="47.48" height="47.54" fill="white"/>
</clipPath>
</defs>
</svg>
