<svg width="29" height="27" viewBox="0 0 29 27" fill="none" xmlns="http://www.w3.org/2000/svg">
<g filter="url(#filter0_d_187_192)">
<path d="M3 2.36957C3 2.00633 3.11359 1.65798 3.31578 1.40114C3.51796 1.14429 3.79219 1 4.07812 1H24.9219C25.2078 1 25.482 1.14429 25.6842 1.40114C25.8864 1.65798 26 2.00633 26 2.36957C26 2.7328 25.8864 3.08115 25.6842 3.33799C25.482 3.59484 25.2078 3.73913 24.9219 3.73913H4.07812C3.79219 3.73913 3.51796 3.59484 3.31578 3.33799C3.11359 3.08115 3 2.7328 3 2.36957ZM3 11.5C3 11.1368 3.11359 10.7884 3.31578 10.5316C3.51796 10.2747 3.79219 10.1304 4.07812 10.1304H24.9219C25.2078 10.1304 25.482 10.2747 25.6842 10.5316C25.8864 10.7884 26 11.1368 26 11.5C26 11.8632 25.8864 12.2116 25.6842 12.4684C25.482 12.7253 25.2078 12.8696 24.9219 12.8696H4.07812C3.79219 12.8696 3.51796 12.7253 3.31578 12.4684C3.11359 12.2116 3 11.8632 3 11.5ZM4.07812 19.2609C3.79219 19.2609 3.51796 19.4052 3.31578 19.662C3.11359 19.9188 3 20.2672 3 20.6304C3 20.9937 3.11359 21.342 3.31578 21.5989C3.51796 21.8557 3.79219 22 4.07812 22H24.9219C25.2078 22 25.482 21.8557 25.6842 21.5989C25.8864 21.342 26 20.9937 26 20.6304C26 20.2672 25.8864 19.9188 25.6842 19.662C25.482 19.4052 25.2078 19.2609 24.9219 19.2609H4.07812Z" fill="white"/>
</g>
<defs>
<filter id="filter0_d_187_192" x="0" y="0" width="29" height="27" filterUnits="userSpaceOnUse" color-interpolation-filters="sRGB">
<feFlood flood-opacity="0" result="BackgroundImageFix"/>
<feColorMatrix in="SourceAlpha" type="matrix" values="0 0 0 0 0 0 0 0 0 0 0 0 0 0 0 0 0 0 127 0" result="hardAlpha"/>
<feOffset dy="2"/>
<feGaussianBlur stdDeviation="1.5"/>
<feComposite in2="hardAlpha" operator="out"/>
<feColorMatrix type="matrix" values="0 0 0 0 0 0 0 0 0 0 0 0 0 0 0 0 0 0 0.54 0"/>
<feBlend mode="normal" in2="BackgroundImageFix" result="effect1_dropShadow_187_192"/>
<feBlend mode="normal" in="SourceGraphic" in2="effect1_dropShadow_187_192" result="shape"/>
</filter>
</defs>
</svg>
