<svg width="26" height="25" viewBox="0 0 26 25" fill="none" xmlns="http://www.w3.org/2000/svg">
<path d="M13.4614 0.000976562C10.147 0.000976562 6.96533 1.31875 4.62354 3.66211C2.27932 6.0064 0.962075 9.1857 0.961426 12.501C0.961426 15.8148 2.27979 18.9965 4.62354 21.3398C6.96533 23.6832 10.147 25.001 13.4614 25.001C16.7759 25.001 19.9575 23.6832 22.2993 21.3398C24.6431 18.9965 25.9614 15.8148 25.9614 12.501C25.9614 9.18711 24.6431 6.00547 22.2993 3.66211C19.9575 1.31875 16.7759 0.000976562 13.4614 0.000976562Z" fill="white"/>
<path d="M19.2282 9.96675C18.9102 9.20925 18.4475 8.52073 17.8659 7.93957C17.286 7.3574 16.5973 6.89454 15.8387 6.57727C15.0615 6.25067 14.2266 6.08326 13.3833 6.08497H13.355C12.4973 6.08922 11.668 6.25898 10.8869 6.59283C10.1348 6.91335 9.45248 7.37704 8.87809 7.95796C8.30215 8.53781 7.84474 9.22393 7.53134 9.97807C7.20602 10.7623 7.04117 11.6035 7.04651 12.4523C7.05077 13.434 7.28609 14.4087 7.72556 15.2802V17.4304C7.72556 17.7897 8.01759 18.0811 8.37625 18.0811H10.5282C11.4056 18.5229 12.3737 18.7554 13.3564 18.7602H13.3862C14.2339 18.7602 15.0547 18.5961 15.8287 18.275C16.5835 17.9615 17.2697 17.504 17.8489 16.9282C18.4329 16.3496 18.8922 15.6734 19.2141 14.9194C19.5472 14.1385 19.7173 13.3081 19.7216 12.4509C19.7244 11.5893 19.5571 10.7533 19.2282 9.96675ZM10.5537 13.1016C10.1795 13.1016 9.87469 12.7975 9.87469 12.4226C9.87469 12.0477 10.1795 11.7435 10.5537 11.7435C10.928 11.7435 11.2328 12.0477 11.2328 12.4226C11.2328 12.7975 10.9294 13.1016 10.5537 13.1016ZM13.3833 13.1016C13.0091 13.1016 12.7043 12.7975 12.7043 12.4226C12.7043 12.0477 13.0091 11.7435 13.3833 11.7435C13.7576 11.7435 14.0624 12.0477 14.0624 12.4226C14.0624 12.7975 13.7576 13.1016 13.3833 13.1016ZM16.2129 13.1016C15.8387 13.1016 15.5339 12.7975 15.5339 12.4226C15.5339 12.0477 15.8387 11.7435 16.2129 11.7435C16.5872 11.7435 16.892 12.0477 16.892 12.4226C16.892 12.7975 16.5872 13.1016 16.2129 13.1016Z" fill="#221F51"/>
</svg>
