<svg width="26" height="26" viewBox="0 0 26 26" fill="none" xmlns="http://www.w3.org/2000/svg">
<g filter="url(#filter0_d_309_2)">
<path d="M12.86 0C9.45009 0 6.17682 1.35573 3.76758 3.76657C1.35585 6.17838 0.000668057 9.44925 0 12.86C0 16.2693 1.35633 19.5426 3.76758 21.9534C6.17682 24.3643 9.45009 25.72 12.86 25.72C16.2699 25.72 19.5432 24.3643 21.9524 21.9534C24.3637 19.5426 25.72 16.2693 25.72 12.86C25.72 9.45069 24.3637 6.17742 21.9524 3.76657C19.5432 1.35573 16.2699 0 12.86 0Z" fill="white"/>
</g>
<path d="M18.7929 10.2524C18.4657 9.47306 17.9897 8.76471 17.3914 8.16681C16.7948 7.56787 16.0862 7.09168 15.3058 6.76528C14.5062 6.42927 13.6472 6.25704 12.7797 6.2588H12.7505C11.8682 6.26317 11.015 6.43781 10.2114 6.78129C9.4376 7.11104 8.73564 7.58808 8.14471 8.18573C7.55219 8.78228 7.0816 9.48816 6.75918 10.264C6.42448 11.0708 6.25489 11.9363 6.26038 12.8095C6.26476 13.8195 6.50686 14.8223 6.95899 15.7188V17.931C6.95899 18.3007 7.25943 18.6005 7.62842 18.6005H9.84236C10.745 19.055 11.741 19.2941 12.752 19.299H12.7826C13.6548 19.299 14.4992 19.1302 15.2955 18.7999C16.072 18.4773 16.778 18.0067 17.3739 17.4143C17.9747 16.8191 18.4473 16.1234 18.7783 15.3477C19.1211 14.5443 19.2961 13.69 19.3005 12.808C19.3034 11.9217 19.1313 11.0616 18.7929 10.2524ZM9.86861 13.4775C9.48358 13.4775 9.17001 13.1646 9.17001 12.7789C9.17001 12.3932 9.48358 12.0803 9.86861 12.0803C10.2536 12.0803 10.5672 12.3932 10.5672 12.7789C10.5672 13.1646 10.2551 13.4775 9.86861 13.4775ZM12.7797 13.4775C12.3947 13.4775 12.0811 13.1646 12.0811 12.7789C12.0811 12.3932 12.3947 12.0803 12.7797 12.0803C13.1647 12.0803 13.4783 12.3932 13.4783 12.7789C13.4783 13.1646 13.1647 13.4775 12.7797 13.4775ZM15.6908 13.4775C15.3058 13.4775 14.9922 13.1646 14.9922 12.7789C14.9922 12.3932 15.3058 12.0803 15.6908 12.0803C16.0758 12.0803 16.3894 12.3932 16.3894 12.7789C16.3894 13.1646 16.0758 13.4775 15.6908 13.4775Z" fill="#221F51"/>
<defs>
<filter id="filter0_d_309_2" x="0" y="0" width="25.7202" height="25.7197" filterUnits="userSpaceOnUse" color-interpolation-filters="sRGB">
<feFlood flood-opacity="0" result="BackgroundImageFix"/>
<feColorMatrix in="SourceAlpha" type="matrix" values="0 0 0 0 0 0 0 0 0 0 0 0 0 0 0 0 0 0 127 0" result="hardAlpha"/>
<feOffset/>
<feComposite in2="hardAlpha" operator="out"/>
<feColorMatrix type="matrix" values="0 0 0 0 0 0 0 0 0 0 0 0 0 0 0 0 0 0 0.54 0"/>
<feBlend mode="normal" in2="BackgroundImageFix" result="effect1_dropShadow_309_2"/>
<feBlend mode="normal" in="SourceGraphic" in2="effect1_dropShadow_309_2" result="shape"/>
</filter>
</defs>
</svg>
