<svg width="16" height="13" viewBox="0 0 16 13" fill="none" xmlns="http://www.w3.org/2000/svg">
<path d="M6.82412 10.0396H8.3406V6.79604L9.55377 8.03169L10.6153 6.9505L7.58236 3.86139L4.54942 6.9505L5.61095 8.03169L6.82412 6.79604V10.0396ZM1.51647 12.3564C1.09944 12.3564 0.742566 12.2053 0.445843 11.9031C0.148614 11.6004 0 11.2366 0 10.8119V1.54455C0 1.1198 0.148614 0.756317 0.445843 0.454099C0.742566 0.151366 1.09944 0 1.51647 0H6.06589L7.58236 1.54455H13.6482C14.0653 1.54455 14.4224 1.69592 14.7196 1.99865C15.0164 2.30087 15.1647 2.66436 15.1647 3.08911V10.8119C15.1647 11.2366 15.0164 11.6004 14.7196 11.9031C14.4224 12.2053 14.0653 12.3564 13.6482 12.3564H1.51647Z" fill="white"/>
</svg>
