<svg width="17" height="15" viewBox="0 0 17 15" fill="none" xmlns="http://www.w3.org/2000/svg">
<path d="M9.08648 0.712402C13.065 0.712402 16.288 3.87172 16.288 7.73311C16.288 11.5945 13.065 14.7538 9.08648 14.7538C6.56126 14.7538 4.35259 13.476 3.0648 11.5453L4.20151 10.6678C5.21591 12.2755 7.0217 13.3497 9.09367 13.3497C10.6201 13.3497 12.0841 12.7579 13.1634 11.7046C14.2428 10.6513 14.8492 9.22271 14.8492 7.73311C14.8492 6.2435 14.2428 4.81491 13.1634 3.7616C12.0841 2.70829 10.6201 2.11654 9.09367 2.11654C6.15837 2.11654 3.74107 4.26488 3.38854 7.03104H5.37419L2.6835 9.64976L0 7.03104H1.93528C2.295 3.48558 5.3598 0.712402 9.08648 0.712402ZM11.216 6.49746C11.5757 6.50448 11.8707 6.78531 11.8707 7.14337V10.3799C11.8707 10.7309 11.5757 11.0258 11.2088 11.0258H7.23033C6.86342 11.0258 6.56845 10.7309 6.56845 10.3799V7.14337C6.56845 6.78531 6.86342 6.50448 7.22314 6.49746V5.78837C7.22314 4.7142 8.12243 3.84364 9.21598 3.84364C10.3167 3.84364 11.216 4.7142 11.216 5.78837V6.49746ZM9.21598 4.82654C8.6764 4.82654 8.23035 5.2548 8.23035 5.78837V6.49746H10.2088V5.78837C10.2088 5.2548 9.76275 4.82654 9.21598 4.82654Z" fill="white"/>
</svg>
