<svg width="15" height="15" viewBox="0 0 15 15" fill="none" xmlns="http://www.w3.org/2000/svg">
<path d="M1.55967 14.3988C1.13063 14.3988 0.763208 14.2462 0.457418 13.9409C0.152147 13.6351 -0.000488281 13.2677 -0.000488281 12.8387V9.71836H1.55967V12.8387H12.4808V1.91758H1.55967V5.03789H-0.000488281V1.91758C-0.000488281 1.48854 0.152147 1.12112 0.457418 0.815328C0.763208 0.510057 1.13063 0.357422 1.55967 0.357422H12.4808C12.9098 0.357422 13.2772 0.510057 13.583 0.815328C13.8883 1.12112 14.0409 1.48854 14.0409 1.91758V12.8387C14.0409 13.2677 13.8883 13.6351 13.583 13.9409C13.2772 14.2462 12.9098 14.3988 12.4808 14.3988H1.55967ZM5.8501 11.2785L4.75799 10.1474L6.74719 8.1582H-0.000488281V6.59805H6.74719L4.75799 4.60885L5.8501 3.47773L9.75049 7.37813L5.8501 11.2785Z" fill="white"/>
</svg>
