<svg width="22" height="25" viewBox="0 0 22 25" fill="none" xmlns="http://www.w3.org/2000/svg">
<path d="M22 20.2381V21.4286H0V20.2381L2.44444 17.8571V10.7143C2.44444 7.02381 4.92556 3.77381 8.55556 2.72619V2.38095C8.55556 1.74948 8.81309 1.14388 9.27152 0.697365C9.72994 0.25085 10.3517 0 11 0C11.6483 0 12.2701 0.25085 12.7285 0.697365C13.1869 1.14388 13.4444 1.74948 13.4444 2.38095V2.72619C17.0744 3.77381 19.5556 7.02381 19.5556 10.7143V17.8571L22 20.2381ZM13.4444 22.619C13.4444 23.2505 13.1869 23.8561 12.7285 24.3026C12.2701 24.7491 11.6483 25 11 25C10.3517 25 9.72994 24.7491 9.27152 24.3026C8.81309 23.8561 8.55556 23.2505 8.55556 22.619" fill="white"/>
</svg>
