<svg width="34" height="34" viewBox="0 0 28 28" fill="none" xmlns="http://www.w3.org/2000/svg">
<g filter="url(#filter0_d_190_202)">
<path d="M14.0203 0C10.8967 0 7.89832 1.24187 5.69141 3.45026C3.48222 5.65952 2.24085 8.6557 2.24023 11.78C2.24023 14.903 3.48266 17.9014 5.69141 20.1098C7.89832 22.3182 10.8967 23.56 14.0203 23.56C17.1438 23.56 20.1422 22.3182 22.3491 20.1098C24.5578 17.9014 25.8003 14.903 25.8003 11.78C25.8003 8.65702 24.5578 5.65864 22.3491 3.45026C20.1422 1.24187 17.1438 0 14.0203 0Z" fill="white"/>
</g>
<path d="M13.6065 6.39073C13.3536 5.92684 12.8252 5.55163 12.1761 5.61799C11.5954 5.6772 10.7334 5.87537 10.1456 6.52522C9.5422 7.19263 9.3172 8.23346 9.7805 9.79293C10.2752 11.4565 11.0099 13.0966 11.9232 14.4199C12.8297 15.7335 13.9463 16.7851 15.2272 17.1883C16.36 17.5447 17.2263 17.396 17.8582 17.0044C18.4677 16.6268 18.8023 16.0588 18.9755 15.6654C19.1693 15.225 19.0416 14.7665 18.7887 14.4285L17.856 13.1835C17.6499 12.9084 17.3532 12.7012 17.0095 12.5921C16.6657 12.483 16.2929 12.4779 15.9457 12.5774L14.6566 12.9473C14.6159 12.9601 14.572 12.9616 14.5303 12.9517C14.4887 12.9418 14.4511 12.9209 14.4222 12.8916C13.8484 12.2748 13.2055 11.4146 13.0307 10.5439C13.0252 10.5207 13.029 10.4964 13.0414 10.4755C13.2311 10.183 13.5572 9.85155 13.8821 9.56143C14.4323 9.06988 14.6407 8.28851 14.2776 7.62259L13.6065 6.39073V6.39073Z" fill="#211E51"/>
<defs>
<filter id="filter0_d_190_202" x="0.240234" y="0" width="27.5601" height="27.5596" filterUnits="userSpaceOnUse" color-interpolation-filters="sRGB">
<feFlood flood-opacity="0" result="BackgroundImageFix"/>
<feColorMatrix in="SourceAlpha" type="matrix" values="0 0 0 0 0 0 0 0 0 0 0 0 0 0 0 0 0 0 127 0" result="hardAlpha"/>
<feOffset dy="2"/>
<feGaussianBlur stdDeviation="1"/>
<feComposite in2="hardAlpha" operator="out"/>
<feColorMatrix type="matrix" values="0 0 0 0 0 0 0 0 0 0 0 0 0 0 0 0 0 0 0.54 0"/>
<feBlend mode="normal" in2="BackgroundImageFix" result="effect1_dropShadow_190_202"/>
<feBlend mode="normal" in="SourceGraphic" in2="effect1_dropShadow_190_202" result="shape"/>
</filter>
</defs>
</svg>
