<svg width="28" height="28" viewBox="0 0 28 28" fill="none" xmlns="http://www.w3.org/2000/svg">
<path d="M14 0C10.2878 0 6.72438 1.47591 4.10156 4.10047C1.47604 6.72607 0.000727278 10.2869 0 14C0 17.7115 1.47656 21.275 4.10156 23.8995C6.72438 26.5241 10.2878 28 14 28C17.7122 28 21.2756 26.5241 23.8984 23.8995C26.5234 21.275 28 17.7115 28 14C28 10.2885 26.5234 6.72503 23.8984 4.10047C21.2756 1.47591 17.7122 0 14 0Z" fill="white"/>
<path d="M13.3693 7.91865C13.0687 7.36735 12.4407 6.92143 11.6693 7.00028C10.9792 7.07066 9.95464 7.30617 9.25607 8.07849C8.53901 8.87167 8.27161 10.1087 8.82222 11.962C9.4102 13.9391 10.2833 15.8883 11.3687 17.4609C12.4461 19.0221 13.7731 20.2719 15.2954 20.751C16.6417 21.1747 17.6712 20.9979 18.4222 20.5325C19.1466 20.0837 19.5442 19.4087 19.75 18.9412C19.9804 18.4178 19.8286 17.8729 19.5281 17.4711L18.4195 15.9916C18.1746 15.6646 17.8221 15.4183 17.4135 15.2887C17.0049 15.159 16.5619 15.1529 16.1493 15.2712L14.6173 15.7108C14.5689 15.726 14.5167 15.7279 14.4672 15.7161C14.4177 15.7043 14.373 15.6795 14.3387 15.6447C13.6567 14.9116 12.8926 13.8893 12.6849 12.8546C12.6784 12.8269 12.6829 12.798 12.6977 12.7732C12.9231 12.4256 13.3107 12.0317 13.6968 11.6869C14.3506 11.1027 14.5984 10.1741 14.1669 9.38266L13.3693 7.91865Z" fill="#211E51"/>
</svg>
