<svg width="25" height="24" viewBox="0 0 25 24" fill="none" xmlns="http://www.w3.org/2000/svg">
<path d="M1.89654 0.130086L24.217 10.8051C24.4426 10.9129 24.6331 11.0823 24.7665 11.2937C24.8998 11.5052 24.9706 11.7501 24.9706 12.0001C24.9706 12.2501 24.8998 12.495 24.7665 12.7064C24.6331 12.9179 24.4426 13.0873 24.217 13.195L1.89654 23.8701C1.66773 23.9797 1.41224 24.0212 1.16048 23.9898C0.908729 23.9584 0.671302 23.8553 0.476452 23.6928C0.281601 23.5303 0.137531 23.3153 0.0613834 23.0733C-0.0147645 22.8312 -0.0197849 22.5724 0.0469199 22.3277L2.28003 14.141C2.30736 14.0407 2.36363 13.9506 2.4418 13.8821C2.51998 13.8135 2.61662 13.7694 2.71965 13.7554L13.5356 12.2861C13.5808 12.2797 13.6236 12.2617 13.6598 12.2338C13.696 12.206 13.7244 12.1692 13.7422 12.1272L13.7612 12.0615C13.7696 12.0024 13.7577 11.9421 13.7275 11.8906C13.6973 11.8391 13.6506 11.7992 13.5949 11.7776L13.5367 11.7617L2.73131 10.2924C2.62846 10.2782 2.53205 10.2341 2.45408 10.1655C2.37611 10.097 2.32 10.007 2.29274 9.90681L0.0469199 1.67356C-0.020055 1.4287 -0.015239 1.16976 0.0607942 0.927563C0.136827 0.685369 0.280873 0.470133 0.475775 0.307492C0.670677 0.14485 0.908221 0.0416575 1.16011 0.0102047C1.41201 -0.0212481 1.66763 0.0203645 1.89654 0.130086Z" fill="white"/>
</svg>
