<svg width="34" height="34" viewBox="0 0 29 28" fill="none" xmlns="http://www.w3.org/2000/svg">
<g filter="url(#filter0_d_190_197)">
<path d="M14.5803 0C11.4568 0 8.45838 1.24187 6.25147 3.45026C4.04228 5.65952 2.8009 8.6557 2.80029 11.78C2.80029 14.903 4.04272 17.9014 6.25147 20.1098C8.45838 22.3182 11.4568 23.56 14.5803 23.56C17.7039 23.56 20.7022 22.3182 22.9092 20.1098C25.1179 17.9014 26.3603 14.903 26.3603 11.78C26.3603 8.65702 25.1179 5.65864 22.9092 3.45026C20.7022 1.24187 17.7039 0 14.5803 0Z" fill="white"/>
</g>
<path d="M8.13222 11.655C11.5668 10.1589 13.8566 9.17255 15.0014 8.69601C18.2741 7.33523 18.9533 7.0989 19.3969 7.09089C19.4944 7.08933 19.7116 7.11344 19.8533 7.22802C19.9711 7.32465 20.0043 7.45533 20.0208 7.54709C20.0356 7.63875 20.0558 7.84766 20.0392 8.01074C19.8625 9.87346 19.095 14.3937 18.7048 16.48C18.541 17.3628 18.2152 17.6588 17.9004 17.6877C17.2157 17.7506 16.6967 17.2356 16.034 16.8014C14.9978 16.1217 14.4124 15.6987 13.4056 15.0355C12.2423 14.2691 12.997 13.8477 13.6596 13.1593C13.8326 12.9791 16.8476 10.2375 16.9047 9.98887C16.912 9.95776 16.9194 9.8418 16.8494 9.78069C16.7813 9.7194 16.6801 9.74038 16.6065 9.75695C16.5016 9.78051 14.8468 10.8753 11.6368 13.0412C11.1674 13.364 10.7422 13.5214 10.3594 13.5131C9.93972 13.5041 9.12984 13.2753 8.52796 13.0798C7.7917 12.84 7.20454 12.7132 7.25608 12.3058C7.28185 12.0938 7.57451 11.8768 8.13222 11.655V11.655Z" fill="#211E51"/>
<defs>
<filter id="filter0_d_190_197" x="0.800293" y="0" width="27.5601" height="27.5596" filterUnits="userSpaceOnUse" color-interpolation-filters="sRGB">
<feFlood flood-opacity="0" result="BackgroundImageFix"/>
<feColorMatrix in="SourceAlpha" type="matrix" values="0 0 0 0 0 0 0 0 0 0 0 0 0 0 0 0 0 0 127 0" result="hardAlpha"/>
<feOffset dy="2"/>
<feGaussianBlur stdDeviation="1"/>
<feComposite in2="hardAlpha" operator="out"/>
<feColorMatrix type="matrix" values="0 0 0 0 0 0 0 0 0 0 0 0 0 0 0 0 0 0 0.54 0"/>
<feBlend mode="normal" in2="BackgroundImageFix" result="effect1_dropShadow_190_197"/>
<feBlend mode="normal" in="SourceGraphic" in2="effect1_dropShadow_190_197" result="shape"/>
</filter>
</defs>
</svg>
