<svg width="28" height="28" viewBox="0 0 28 28" fill="none" xmlns="http://www.w3.org/2000/svg">
<path d="M14 0C10.2878 0 6.72437 1.47591 4.10156 4.10047C1.47604 6.72607 0.000727278 10.2869 0 14C0 17.7115 1.47656 21.275 4.10156 23.8995C6.72437 26.5241 10.2878 28 14 28C17.7122 28 21.2756 26.5241 23.8984 23.8995C26.5234 21.275 28 17.7115 28 14C28 10.2885 26.5234 6.72503 23.8984 4.10047C21.2756 1.47591 17.7122 0 14 0Z" fill="white"/>
<path d="M6.33699 13.8511C10.4189 12.0731 13.1401 10.9008 14.5007 10.3344C18.3901 8.71723 19.1973 8.43636 19.7245 8.42684C19.8404 8.42498 20.0986 8.45364 20.267 8.58981C20.407 8.70465 20.4464 8.85997 20.466 8.96901C20.4835 9.07795 20.5076 9.32623 20.4879 9.52004C20.2779 11.7338 19.3657 17.1059 18.902 19.5854C18.7073 20.6345 18.3201 20.9863 17.9461 21.0206C17.1323 21.0954 16.5154 20.4834 15.7279 19.9673C14.4964 19.1595 13.8007 18.6568 12.6042 17.8686C11.2217 16.9578 12.1186 16.457 12.9061 15.6389C13.1117 15.4248 16.6948 12.1665 16.7626 11.8709C16.7714 11.834 16.7801 11.6962 16.697 11.6235C16.6161 11.5507 16.4957 11.5756 16.4082 11.5953C16.2836 11.6233 14.317 12.9244 10.502 15.4985C9.94418 15.8822 9.43886 16.0692 8.98386 16.0594C8.48511 16.0486 7.52261 15.7767 6.8073 15.5444C5.9323 15.2594 5.23449 15.1087 5.29574 14.6246C5.32636 14.3726 5.67418 14.1147 6.33699 13.8511V13.8511Z" fill="#211E51"/>
</svg>
