<svg width="28" height="28" viewBox="0 0 28 28" fill="none" xmlns="http://www.w3.org/2000/svg">
<path d="M14 0C10.2878 0 6.72437 1.47591 4.10156 4.10047C1.47604 6.72607 0.000727278 10.2869 0 14C0 17.7115 1.47656 21.275 4.10156 23.8995C6.72437 26.5241 10.2878 28 14 28C17.7122 28 21.2756 26.5241 23.8984 23.8995C26.5234 21.275 28 17.7115 28 14C28 10.2885 26.5234 6.72503 23.8984 4.10047C21.2756 1.47591 17.7122 0 14 0Z" fill="white"/>
<path d="M17.5209 9.4219C16.9978 8.84384 16.7095 8.10148 16.7097 7.33301H14.3449V16.5182C14.3266 17.0152 14.1098 17.4861 13.7401 17.8315C13.3704 18.1769 12.8766 18.37 12.3627 18.37C11.276 18.37 10.3729 17.5108 10.3729 16.4441C10.3729 15.17 11.6433 14.2145 12.952 14.6071V12.2663C10.3117 11.9256 8.00049 13.9108 8.00049 16.4441C8.00049 18.9108 10.1127 20.6663 12.3551 20.6663C14.7581 20.6663 16.7097 18.7775 16.7097 16.4441V11.7849C17.6686 12.4514 18.8199 12.809 20.0005 12.8071V10.5182C20.0005 10.5182 18.5617 10.5849 17.5209 9.4219Z" fill="#221F51"/>
</svg>
