<svg width="16" height="13" viewBox="0 0 16 13" fill="none" xmlns="http://www.w3.org/2000/svg">
<g filter="url(#filter0_d_12_2)">
<path d="M6.86842 9.34162C6.86842 9.7631 7.2101 10.1048 7.63158 10.1048V10.1048C8.05306 10.1048 8.39474 9.7631 8.39474 9.34162V8.07065C8.39474 7.62022 8.94124 7.39678 9.25681 7.71819V7.71819C9.45399 7.91903 9.77759 7.91903 9.97477 7.71819L10.1598 7.52973C10.451 7.23318 10.451 6.75805 10.1598 6.46149L9.1859 5.46955C8.33212 4.59997 6.93103 4.59997 6.07726 5.46956L5.10336 6.46149C4.81219 6.75805 4.81219 7.23318 5.10336 7.52973L5.28838 7.71819C5.48557 7.91903 5.80917 7.91903 6.00635 7.71819V7.71819C6.32192 7.39678 6.86842 7.62022 6.86842 8.07065V9.34162ZM1.52632 12.4366C1.10658 12.4366 0.747386 12.2846 0.448737 11.9804C0.149579 11.6757 0 11.3096 0 10.8821V1.55458C0 1.12707 0.149579 0.761226 0.448737 0.457047C0.747386 0.152349 1.10658 0 1.52632 0H5.01596C5.71273 0 6.38027 0.280094 6.86842 0.77729V0.77729C7.35658 1.27449 8.02411 1.55458 8.72089 1.55458H13.7368C14.1566 1.55458 14.516 1.70693 14.8152 2.01163C15.1138 2.31581 15.2632 2.68165 15.2632 3.10916V10.8821C15.2632 11.3096 15.1138 11.6757 14.8152 11.9804C14.516 12.2846 14.1566 12.4366 13.7368 12.4366H1.52632Z" fill="white"/>
</g>
<defs>
<filter id="filter0_d_12_2" x="0" y="0" width="15.2632" height="12.4365" filterUnits="userSpaceOnUse" color-interpolation-filters="sRGB">
<feFlood flood-opacity="0" result="BackgroundImageFix"/>
<feColorMatrix in="SourceAlpha" type="matrix" values="0 0 0 0 0 0 0 0 0 0 0 0 0 0 0 0 0 0 127 0" result="hardAlpha"/>
<feOffset/>
<feComposite in2="hardAlpha" operator="out"/>
<feColorMatrix type="matrix" values="0 0 0 0 0 0 0 0 0 0 0 0 0 0 0 0 0 0 0.54 0"/>
<feBlend mode="normal" in2="BackgroundImageFix" result="effect1_dropShadow_12_2"/>
<feBlend mode="normal" in="SourceGraphic" in2="effect1_dropShadow_12_2" result="shape"/>
</filter>
</defs>
</svg>
