<svg width="26" height="26" viewBox="0 0 26 26" fill="none" xmlns="http://www.w3.org/2000/svg">
<g filter="url(#filter0_d_309_9)">
<path d="M12.86 0C9.45009 0 6.17682 1.35573 3.76758 3.76657C1.35585 6.17838 0.000668057 9.44925 0 12.86C0 16.2693 1.35633 19.5426 3.76758 21.9534C6.17682 24.3643 9.45009 25.72 12.86 25.72C16.2699 25.72 19.5432 24.3643 21.9524 21.9534C24.3637 19.5426 25.72 16.2693 25.72 12.86C25.72 9.45069 24.3637 6.17742 21.9524 3.76657C19.5432 1.35573 16.2699 0 12.86 0Z" fill="white"/>
</g>
<path d="M14.2283 19.301V17.7734C15.315 17.4505 16.1904 16.8296 16.8545 15.9105C17.5186 14.9915 17.8506 13.9483 17.8506 12.7809C17.8506 11.6135 17.5186 10.5702 16.8545 9.65121C16.1904 8.73218 15.315 8.11122 14.2283 7.78832V6.26074C15.7255 6.60848 16.945 7.38767 17.8868 8.5983C18.8286 9.80943 19.2995 11.2036 19.2995 12.7809C19.2995 14.3581 18.8286 15.7521 17.8868 16.9627C16.945 18.1738 15.7255 18.9533 14.2283 19.301ZM6.25928 15.035V10.564H9.15711L12.7794 6.83824V18.7608L9.15711 15.035H6.25928ZM14.2283 15.7801V9.78161C14.7958 10.0548 15.2397 10.4647 15.5599 11.0111C15.8796 11.5576 16.0395 12.1537 16.0395 12.7995C16.0395 13.4329 15.8796 14.0196 15.5599 14.5596C15.2397 15.1001 14.7958 15.5069 14.2283 15.7801Z" fill="#221F51"/>
<defs>
<filter id="filter0_d_309_9" x="0" y="0" width="25.7202" height="25.7197" filterUnits="userSpaceOnUse" color-interpolation-filters="sRGB">
<feFlood flood-opacity="0" result="BackgroundImageFix"/>
<feColorMatrix in="SourceAlpha" type="matrix" values="0 0 0 0 0 0 0 0 0 0 0 0 0 0 0 0 0 0 127 0" result="hardAlpha"/>
<feOffset/>
<feComposite in2="hardAlpha" operator="out"/>
<feColorMatrix type="matrix" values="0 0 0 0 0 0 0 0 0 0 0 0 0 0 0 0 0 0 0.54 0"/>
<feBlend mode="normal" in2="BackgroundImageFix" result="effect1_dropShadow_309_9"/>
<feBlend mode="normal" in="SourceGraphic" in2="effect1_dropShadow_309_9" result="shape"/>
</filter>
</defs>
</svg>
