<svg width="25" height="25" viewBox="0 0 25 25" fill="none" xmlns="http://www.w3.org/2000/svg">
<path d="M12.5 0C9.18555 0 6.00391 1.31777 3.66211 3.66113C1.3179 6.00542 0.000649355 9.18473 0 12.5C0 15.8139 1.31836 18.9955 3.66211 21.3389C6.00391 23.6822 9.18555 25 12.5 25C15.8145 25 18.9961 23.6822 21.3379 21.3389C23.6816 18.9955 25 15.8139 25 12.5C25 9.18613 23.6816 6.00449 21.3379 3.66113C18.9961 1.31777 15.8145 0 12.5 0Z" fill="white"/>
<path d="M15.036 18.7602V17.2754C16.0923 16.9615 16.9432 16.3579 17.5886 15.4646C18.2341 14.5713 18.5569 13.5573 18.5569 12.4226C18.5569 11.2878 18.2341 10.2738 17.5886 9.38052C16.9432 8.48722 16.0923 7.88363 15.036 7.56977V6.08496C16.4913 6.42297 17.6767 7.18034 18.5921 8.35708C19.5075 9.53431 19.9653 10.8895 19.9653 12.4226C19.9653 13.9557 19.5075 15.3106 18.5921 16.4873C17.6767 17.6646 16.4913 18.4222 15.036 18.7602ZM7.29004 14.6136V10.2678H10.1068L13.6276 6.64629V18.2351L10.1068 14.6136H7.29004ZM15.036 15.3379V9.50727C15.5876 9.77284 16.019 10.1712 16.3303 10.7024C16.6411 11.2335 16.7964 11.8129 16.7964 12.4407C16.7964 13.0563 16.6411 13.6266 16.3303 14.1515C16.019 14.6768 15.5876 15.0723 15.036 15.3379Z" fill="#221F51"/>
</svg>
