<svg width="25" height="25" viewBox="0 0 25 25" fill="none" xmlns="http://www.w3.org/2000/svg">
<path d="M1.63032 2.62785L16.5313 0.691197C16.6154 0.680217 16.7011 0.685819 16.7826 0.707623C16.8641 0.729427 16.9395 0.766924 17.0037 0.817573C17.0679 0.868221 17.1194 0.930837 17.1547 1.00118C17.19 1.07152 17.2082 1.14794 17.2082 1.22526V23.7164C17.2082 23.7936 17.19 23.8699 17.1547 23.9401C17.1195 24.0104 17.0682 24.073 17.0041 24.1236C16.9401 24.1742 16.8648 24.2117 16.7834 24.2336C16.7021 24.2555 16.6165 24.2612 16.5325 24.2504L1.62913 22.3138C1.34655 22.2771 1.08797 22.1489 0.900904 21.9527C0.713837 21.7565 0.610843 21.5054 0.61084 21.2456V3.69598C0.610843 3.43619 0.713837 3.18513 0.900904 2.9889C1.08797 2.79268 1.34655 2.66448 1.62913 2.62785H1.63032ZM2.98291 4.63248V20.3091L14.8373 21.8509V3.09071L2.98291 4.63248ZM18.3936 20.0232H21.95V4.91839H18.3936V2.76056H23.1354C23.4498 2.76056 23.7513 2.87423 23.9736 3.07657C24.1959 3.2789 24.3208 3.55333 24.3208 3.83947V21.1021C24.3208 21.3883 24.1959 21.6627 23.9736 21.865C23.7513 22.0674 23.4498 22.1811 23.1354 22.1811H18.3936V20.0232ZM10.3326 12.4708L13.6519 16.7865H10.8068L8.91011 14.3201L7.0134 16.7865H4.16835L7.48758 12.4708L4.16835 8.15514H7.0134L8.91011 10.6215L10.8068 8.15514H13.6519L10.3326 12.4708Z" fill="white"/>
</svg>
