<svg width="12" height="22" viewBox="0 0 12 22" fill="none" xmlns="http://www.w3.org/2000/svg">
<path d="M4.74866 22V19.3722C3.61497 19.1278 2.63658 18.6593 1.81348 17.9667C0.989519 17.2741 0.385027 16.2963 0 15.0333L2.37433 14.1167C2.69519 15.0944 3.17134 15.838 3.80278 16.3472C4.43337 16.8565 5.26203 17.1111 6.28877 17.1111C7.16578 17.1111 7.90931 16.9229 8.51936 16.5464C9.12856 16.1692 9.43316 15.5833 9.43316 14.7889C9.43316 14.0759 9.19786 13.5104 8.72727 13.0924C8.25669 12.6753 7.16578 12.2019 5.45455 11.6722C3.61497 11.1222 2.35294 10.4655 1.66845 9.702C0.983958 8.9377 0.641711 8.00556 0.641711 6.90556C0.641711 5.58148 1.09091 4.55278 1.98931 3.81944C2.8877 3.08611 3.80749 2.66852 4.74866 2.56667V0H7.31551V2.56667C8.38503 2.72963 9.2676 3.10119 9.96321 3.68133C10.658 4.2623 11.1658 4.97037 11.4866 5.80556L9.1123 6.78333C8.85562 6.13148 8.49198 5.64259 8.02139 5.31667C7.5508 4.99074 6.90909 4.82778 6.09626 4.82778C5.15508 4.82778 4.4385 5.02659 3.94652 5.42422C3.45455 5.82104 3.20856 6.31481 3.20856 6.90556C3.20856 7.57778 3.52941 8.10741 4.17112 8.49444C4.81283 8.88148 5.92513 9.28889 7.50802 9.71667C8.98396 10.1241 10.1018 10.7706 10.8616 11.6563C11.6205 12.5429 12 13.5667 12 14.7278C12 16.1741 11.5508 17.2741 10.6524 18.0278C9.75401 18.7815 8.64171 19.25 7.31551 19.4333V22H4.74866Z" fill="white"/>
</svg>
