<svg width="30" height="27" viewBox="0 0 30 27" fill="none" xmlns="http://www.w3.org/2000/svg">
<path d="M14.9899 13.5151V13.5295M9.21661 13.5151V13.5295M20.7632 13.5151V13.5295M2 25L3.87632 19.4011C2.25467 17.0155 1.66803 14.1905 2.22547 11.4512C2.78292 8.71185 4.44652 6.24473 6.90696 4.50851C9.36739 2.77229 12.4572 1.88511 15.602 2.01194C18.7467 2.13876 21.7324 3.27096 24.0038 5.19801C26.2753 7.12507 27.6779 9.71585 27.951 12.4886C28.2241 15.2614 27.349 18.0276 25.4884 20.2727C23.6279 22.5179 20.9085 24.0893 17.8358 24.6947C14.7632 25.3002 11.5464 24.8985 8.78361 23.5644L2 25Z" stroke="white" stroke-width="3" stroke-linecap="round" stroke-linejoin="round"/>
</svg>
