<svg width="35" height="23" viewBox="0 0 35 23" fill="none" xmlns="http://www.w3.org/2000/svg">
<path d="M17.5 3.05176e-05C18.8537 3.05176e-05 20.152 0.584943 21.1092 1.62609C22.0664 2.66724 22.6042 4.07935 22.6042 5.55175C22.6042 7.02416 22.0664 8.43627 21.1092 9.47742C20.152 10.5186 18.8537 11.1035 17.5 11.1035C16.1463 11.1035 14.848 10.5186 13.8908 9.47742C12.9336 8.43627 12.3958 7.02416 12.3958 5.55175C12.3958 4.07935 12.9336 2.66724 13.8908 1.62609C14.848 0.584943 16.1463 3.05176e-05 17.5 3.05176e-05M7.29167 3.96555C8.10833 3.96555 8.86667 4.20348 9.52292 4.63175C9.30417 6.90003 9.91667 9.15244 11.1708 10.9131C10.4417 12.4359 8.98333 13.4828 7.29167 13.4828C6.13134 13.4828 5.01855 12.9814 4.19807 12.089C3.3776 11.1966 2.91667 9.98623 2.91667 8.72417C2.91667 7.4621 3.3776 6.25173 4.19807 5.35931C5.01855 4.4669 6.13134 3.96555 7.29167 3.96555M27.7083 3.96555C28.8687 3.96555 29.9815 4.4669 30.8019 5.35931C31.6224 6.25173 32.0833 7.4621 32.0833 8.72417C32.0833 9.98623 31.6224 11.1966 30.8019 12.089C29.9815 12.9814 28.8687 13.4828 27.7083 13.4828C26.0167 13.4828 24.5583 12.4359 23.8292 10.9131C25.1007 9.12773 25.6908 6.87814 25.4771 4.63175C26.1333 4.20348 26.8917 3.96555 27.7083 3.96555M8.02083 20.2242C8.02083 16.9407 12.2646 14.2759 17.5 14.2759C22.7354 14.2759 26.9792 16.9407 26.9792 20.2242V23H8.02083V20.2242ZM0 23V20.6207C0 18.4159 2.75625 16.56 6.48958 16.0207C5.62917 17.0993 5.10417 18.5904 5.10417 20.2242V23H0ZM35 23H29.8958V20.2242C29.8958 18.5904 29.3708 17.0993 28.5104 16.0207C32.2437 16.56 35 18.4159 35 20.6207V23Z" fill="white"/>
</svg>
