<svg width="28" height="28" viewBox="0 0 28 28" fill="none" xmlns="http://www.w3.org/2000/svg">
<path d="M14.875 18.5733H15.6333C16.3917 18.5733 17.0217 17.8966 17.0217 17.08C17.0217 16.065 16.66 15.8666 16.065 15.6566L14.8867 15.2483V18.5733H14.875Z" fill="white"/>
<path d="M13.965 2.21657C7.525 2.23991 2.31 7.47824 2.33333 13.9182C2.35666 20.3582 7.595 25.5732 14.035 25.5499C20.475 25.5266 25.69 20.2882 25.6667 13.8482C25.6433 7.40824 20.405 2.20491 13.965 2.21657ZM16.6367 13.9999C17.5467 14.3149 18.7717 14.9916 18.7717 17.0799C18.7717 18.8766 17.36 20.3232 15.6333 20.3232H14.875V20.9999C14.875 21.4782 14.4783 21.8749 14 21.8749C13.5217 21.8749 13.125 21.4782 13.125 20.9999V20.3232H12.705C10.7917 20.3232 9.24 18.7132 9.24 16.7299C9.24 16.2516 9.63666 15.8549 10.115 15.8549C10.5933 15.8549 10.99 16.2516 10.99 16.7299C10.99 17.7449 11.76 18.5732 12.705 18.5732H13.125V14.6299L11.3633 13.9999C10.4533 13.6849 9.22833 13.0082 9.22833 10.9199C9.22833 9.12324 10.64 7.67657 12.3667 7.67657H13.125V6.99991C13.125 6.52157 13.5217 6.12491 14 6.12491C14.4783 6.12491 14.875 6.52157 14.875 6.99991V7.67657H15.295C17.2083 7.67657 18.76 9.28657 18.76 11.2699C18.76 11.7482 18.3633 12.1449 17.885 12.1449C17.4067 12.1449 17.01 11.7482 17.01 11.2699C17.01 10.2549 16.24 9.42657 15.295 9.42657H14.875V13.3699L16.6367 13.9999Z" fill="white"/>
<path d="M10.99 10.9318C10.99 11.9468 11.3517 12.1451 11.9467 12.3551L13.125 12.7634V9.42676H12.3667C11.6083 9.42676 10.99 10.1034 10.99 10.9318Z" fill="white"/>
</svg>
