<svg width="70" height="70" viewBox="0 0 70 70" fill="none" xmlns="http://www.w3.org/2000/svg">
<path d="M51.1292 22.6624C50.925 22.6333 50.7208 22.6333 50.5167 22.6624C45.9958 22.5166 42.4083 18.8124 42.4083 14.2624C42.4083 9.62492 46.1708 5.83325 50.8375 5.83325C55.475 5.83325 59.2667 9.59575 59.2667 14.2624C59.2375 18.8124 55.65 22.5166 51.1292 22.6624Z" fill="white"/>
<path d="M60.6375 42.875C57.3708 45.0625 52.7917 45.8791 48.5625 45.325C49.6708 42.9333 50.2542 40.2791 50.2833 37.4791C50.2833 34.5625 49.6417 31.7916 48.4167 29.3708C52.7333 28.7875 57.3125 29.6041 60.6083 31.7916C65.2167 34.825 65.2167 39.8125 60.6375 42.875Z" fill="white"/>
<path d="M18.7833 22.6624C18.9875 22.6333 19.1917 22.6333 19.3958 22.6624C23.9167 22.5166 27.5042 18.8124 27.5042 14.2624C27.5042 9.59575 23.7417 5.83325 19.075 5.83325C14.4375 5.83325 10.675 9.59575 10.675 14.2624C10.675 18.8124 14.2625 22.5166 18.7833 22.6624Z" fill="white"/>
<path d="M19.1042 37.4792C19.1042 40.3084 19.7167 42.9917 20.825 45.4125C16.7125 45.85 12.425 44.975 9.27501 42.9042C4.66667 39.8417 4.66667 34.8542 9.27501 31.7917C12.3958 29.6917 16.8 28.8459 20.9417 29.3125C19.7458 31.7625 19.1042 34.5334 19.1042 37.4792Z" fill="white"/>
<path d="M35.35 46.2875C35.1167 46.2583 34.8542 46.2583 34.5917 46.2875C29.225 46.1125 24.9375 41.7083 24.9375 36.2833C24.9667 30.7417 29.4292 26.25 35 26.25C40.5417 26.25 45.0333 30.7417 45.0333 36.2833C45.0042 41.7083 40.7458 46.1125 35.35 46.2875Z" fill="white"/>
<path d="M25.8708 52.325C21.4667 55.2708 21.4667 60.1125 25.8708 63.0291C30.8875 66.3833 39.1125 66.3833 44.1292 63.0291C48.5333 60.0833 48.5333 55.2416 44.1292 52.325C39.1417 48.9708 30.9167 48.9708 25.8708 52.325Z" fill="white"/>
</svg>
