<svg width="33" height="30" viewBox="0 0 33 30" fill="none" xmlns="http://www.w3.org/2000/svg">
<path d="M16.1765 15.0171V15.0333M9.73704 15.0171V15.0333M22.6159 15.0171V15.0333M1.68774 28L3.78056 21.6708C1.9718 18.9741 1.31747 15.7805 1.93923 12.6839C2.561 9.58731 4.41655 6.79839 7.16089 4.83571C9.90522 2.87302 13.3516 1.87013 16.8592 2.01349C20.3668 2.15686 23.697 3.43674 26.2305 5.61515C28.764 7.79356 30.3285 10.7223 30.6331 13.8567C30.9377 16.9912 29.9616 20.1181 27.8864 22.6561C25.8111 25.1941 22.778 26.9705 19.3508 27.6549C15.9236 28.3393 12.3357 27.8853 9.25408 26.3771L1.68774 28Z" stroke="white" stroke-width="3" stroke-linecap="round" stroke-linejoin="round"/>
</svg>
