<svg width="34" height="34" viewBox="0 0 34 34" fill="none" xmlns="http://www.w3.org/2000/svg">
<path d="M33.502 31.0793C33.821 31.4026 34 31.8391 34 32.2941C34 32.749 33.821 33.1855 33.502 33.5088C33.1772 33.8239 32.7431 34 32.2914 34C31.8397 34 31.4056 33.8239 31.0808 33.5088L17 19.3584L2.91917 33.5088C2.59442 33.8239 2.16035 34 1.7086 34C1.25686 34 0.822788 33.8239 0.498033 33.5088C0.178983 33.1855 0 32.749 0 32.2941C0 31.8391 0.178983 31.4026 0.498033 31.0793L14.6001 16.9503L0.498033 2.82128C0.227098 2.49003 0.0886396 2.06951 0.109589 1.6415C0.130538 1.21349 0.309397 0.808598 0.611377 0.505585C0.913356 0.202572 1.31686 0.0231007 1.74341 0.00207967C2.16996 -0.0189414 2.58905 0.119991 2.91917 0.391853L17 14.5422L31.0808 0.391853C31.4109 0.119991 31.83 -0.0189414 32.2566 0.00207967C32.6831 0.0231007 33.0866 0.202572 33.3886 0.505585C33.6906 0.808598 33.8695 1.21349 33.8904 1.6415C33.9114 2.06951 33.7729 2.49003 33.502 2.82128L19.3999 16.9503L33.502 31.0793Z" fill="white"/>
</svg>
