<svg width="36" height="36" viewBox="0 0 36 36" fill="none" xmlns="http://www.w3.org/2000/svg">
<path d="M17.8759 0.124023C13.1378 0.133471 8.59648 2.01985 5.24615 5.37018C1.89583 8.72051 0.00944783 13.2618 0 17.9999V33.0692C0 33.8136 0.295685 34.5274 0.822008 35.0537C1.34833 35.5801 2.06218 35.8757 2.80651 35.8757H17.8759C22.6168 35.8757 27.1636 33.9924 30.516 30.64C33.8684 27.2877 35.7517 22.7409 35.7517 17.9999C35.7517 13.2589 33.8684 8.71212 30.516 5.35974C27.1636 2.00737 22.6168 0.124023 17.8759 0.124023ZM22.8811 23.0051H12.1556C11.7763 23.0051 11.4126 22.8545 11.1444 22.5863C10.8762 22.3181 10.7255 21.9543 10.7255 21.5751C10.7255 21.1958 10.8762 20.832 11.1444 20.5638C11.4126 20.2957 11.7763 20.145 12.1556 20.145H22.8811C23.2604 20.145 23.6241 20.2957 23.8923 20.5638C24.1605 20.832 24.3112 21.1958 24.3112 21.5751C24.3112 21.9543 24.1605 22.3181 23.8923 22.5863C23.6241 22.8545 23.2604 23.0051 22.8811 23.0051ZM22.8811 17.2848H12.1556C11.7763 17.2848 11.4126 17.1342 11.1444 16.866C10.8762 16.5978 10.7255 16.2341 10.7255 15.8548C10.7255 15.4755 10.8762 15.1118 11.1444 14.8436C11.4126 14.5754 11.7763 14.4247 12.1556 14.4247H22.8811C23.2604 14.4247 23.6241 14.5754 23.8923 14.8436C24.1605 15.1118 24.3112 15.4755 24.3112 15.8548C24.3112 16.2341 24.1605 16.5978 23.8923 16.866C23.6241 17.1342 23.2604 17.2848 22.8811 17.2848Z" fill="white"/>
</svg>
