<svg width="12" height="8" viewBox="0 0 12 8" fill="none" xmlns="http://www.w3.org/2000/svg">
<path d="M2.02639 7.95211C1.70036 7.95211 1.42116 7.87497 1.18878 7.72068C0.956808 7.56613 0.84082 7.38043 0.84082 7.16359V1.64394C0.84082 1.42709 0.956808 1.24153 1.18878 1.08724C1.42116 0.932691 1.70036 0.855416 2.02639 0.855416H2.61917V0.0668945H3.80474V0.855416H8.54701V0.0668945H9.73258V0.855416H10.3254C10.6514 0.855416 10.9306 0.932691 11.163 1.08724C11.3949 1.24153 11.5109 1.42709 11.5109 1.64394V7.16359C11.5109 7.38043 11.3949 7.56613 11.163 7.72068C10.9306 7.87497 10.6514 7.95211 10.3254 7.95211H2.02639ZM2.02639 7.16359H10.3254V3.22098H2.02639V7.16359ZM2.02639 2.43246H10.3254V1.64394H2.02639V2.43246ZM2.02639 2.43246V1.64394V2.43246ZM6.17588 4.79802C6.00792 4.79802 5.86723 4.76017 5.75381 4.68448C5.64 4.60904 5.58309 4.51547 5.58309 4.40376C5.58309 4.29206 5.64 4.19835 5.75381 4.12266C5.86723 4.04722 6.00792 4.0095 6.17588 4.0095C6.34383 4.0095 6.48472 4.04722 6.59853 4.12266C6.71195 4.19835 6.76866 4.29206 6.76866 4.40376C6.76866 4.51547 6.71195 4.60904 6.59853 4.68448C6.48472 4.76017 6.34383 4.79802 6.17588 4.79802ZM3.80474 4.79802C3.63678 4.79802 3.4959 4.76017 3.38209 4.68448C3.26867 4.60904 3.21196 4.51547 3.21196 4.40376C3.21196 4.29206 3.26867 4.19835 3.38209 4.12266C3.4959 4.04722 3.63678 4.0095 3.80474 4.0095C3.9727 4.0095 4.11358 4.04722 4.2274 4.12266C4.34081 4.19835 4.39752 4.29206 4.39752 4.40376C4.39752 4.51547 4.34081 4.60904 4.2274 4.68448C4.11358 4.76017 3.9727 4.79802 3.80474 4.79802ZM8.54701 4.79802C8.37906 4.79802 8.23837 4.76017 8.12495 4.68448C8.01114 4.60904 7.95423 4.51547 7.95423 4.40376C7.95423 4.29206 8.01114 4.19835 8.12495 4.12266C8.23837 4.04722 8.37906 4.0095 8.54701 4.0095C8.71497 4.0095 8.85565 4.04722 8.96907 4.12266C9.08289 4.19835 9.1398 4.29206 9.1398 4.40376C9.1398 4.51547 9.08289 4.60904 8.96907 4.68448C8.85565 4.76017 8.71497 4.79802 8.54701 4.79802ZM6.17588 6.37507C6.00792 6.37507 5.86723 6.33722 5.75381 6.26152C5.64 6.18608 5.58309 6.09251 5.58309 5.98081C5.58309 5.8691 5.64 5.77553 5.75381 5.70009C5.86723 5.62439 6.00792 5.58655 6.17588 5.58655C6.34383 5.58655 6.48472 5.62439 6.59853 5.70009C6.71195 5.77553 6.76866 5.8691 6.76866 5.98081C6.76866 6.09251 6.71195 6.18608 6.59853 6.26152C6.48472 6.33722 6.34383 6.37507 6.17588 6.37507ZM3.80474 6.37507C3.63678 6.37507 3.4959 6.33722 3.38209 6.26152C3.26867 6.18608 3.21196 6.09251 3.21196 5.98081C3.21196 5.8691 3.26867 5.77553 3.38209 5.70009C3.4959 5.62439 3.63678 5.58655 3.80474 5.58655C3.9727 5.58655 4.11358 5.62439 4.2274 5.70009C4.34081 5.77553 4.39752 5.8691 4.39752 5.98081C4.39752 6.09251 4.34081 6.18608 4.2274 6.26152C4.11358 6.33722 3.9727 6.37507 3.80474 6.37507ZM8.54701 6.37507C8.37906 6.37507 8.23837 6.33722 8.12495 6.26152C8.01114 6.18608 7.95423 6.09251 7.95423 5.98081C7.95423 5.8691 8.01114 5.77553 8.12495 5.70009C8.23837 5.62439 8.37906 5.58655 8.54701 5.58655C8.71497 5.58655 8.85565 5.62439 8.96907 5.70009C9.08289 5.77553 9.1398 5.8691 9.1398 5.98081C9.1398 6.09251 9.08289 6.18608 8.96907 6.26152C8.85565 6.33722 8.71497 6.37507 8.54701 6.37507Z" fill="white" fill-opacity="0.5"/>
</svg>
