<svg width="134" height="125" viewBox="0 0 184 185" fill="none" xmlns="http://www.w3.org/2000/svg">
<g clip-path="url(#clip0_1_25587)">
<g filter="url(#filter0_d_1_25587)">
<path d="M91.8941 183.566C142.268 183.566 183.104 142.648 183.104 92.1719C183.104 41.6961 142.268 0.777344 91.8941 0.777344C41.5205 0.777344 0.68457 41.6961 0.68457 92.1719C0.68457 142.648 41.5205 183.566 91.8941 183.566Z" fill="#221F51"/>
<path d="M91.8567 181.993C42.1447 181.975 1.88672 141.698 1.88672 91.9865C1.88672 42.2931 42.2002 1.97955 91.9122 1.99805C141.643 2.01655 181.919 42.3671 181.882 92.116C181.845 141.772 141.532 182.012 91.8567 181.993ZM36.1874 139.108C35.7804 140.385 35.3734 141.624 34.9664 142.883C34.5593 144.159 34.1153 145.436 33.7268 146.731C33.5788 147.249 33.2643 147.212 32.8943 147.175C31.6362 147.027 30.3781 146.879 29.1201 146.749C27.1405 146.527 25.1794 146.324 23.1998 146.102C23.1628 146.194 23.1258 146.305 23.0888 146.398C41.8857 168.747 65.7334 180.439 95.1313 179.422C122.661 178.46 144.695 166.268 161.698 144.77C158.256 145.029 154.852 145.362 151.485 145.806C150.69 145.917 150.468 145.565 150.283 144.955C149.598 142.772 148.895 140.588 148.173 138.368C133.41 155.371 114.946 164.64 92.3747 164.806C69.8221 164.954 51.2102 155.963 36.1874 139.108ZM21.5162 91.9125C21.3312 130.505 52.7457 162.253 91.5792 162.42C130.487 162.586 162.29 131.153 162.327 92.0975C162.382 53.1531 130.857 21.609 91.9307 21.5905C52.8568 21.5535 21.4052 53.3751 21.5162 91.9125ZM43.2733 34.5042C43.3288 35.1147 43.1808 35.7252 43.8468 36.0028C44.4943 36.2803 44.9569 35.9102 45.4194 35.5217C45.8079 35.1887 46.2149 34.8557 46.6219 34.5227C46.9735 34.2452 46.8069 34.0231 46.6219 33.7456C46.3814 33.3941 46.1779 33.5606 45.9559 33.7456C45.6229 34.0231 45.3084 34.3192 44.9569 34.5597C44.4573 34.8742 44.2168 34.6892 44.2168 34.1157C44.2168 33.8196 44.3278 33.5976 44.4943 33.3571C45.4564 31.9695 45.6044 30.4895 45.0124 28.8984C44.2908 26.9188 42.1077 25.6422 39.9801 26.0308C38.019 26.3823 36.6314 28.1769 36.6129 30.286C36.6499 32.9131 39.2771 36.1507 43.2733 34.5042ZM114.15 12.5991C114.28 12.9691 114.391 13.1911 114.428 13.4131C114.872 15.5407 115.39 17.6683 115.686 19.8144C115.852 20.98 116.444 21.424 117.462 21.6275C117.869 21.72 118.017 21.609 118.128 21.2575C118.924 18.8524 119.719 16.4473 120.515 14.0422C120.663 13.5981 120.663 13.2466 120.052 13.0986C119.479 12.9506 119.275 13.0616 119.201 13.6536C119.164 14.0051 118.979 14.3382 118.868 14.6897C118.295 16.4473 117.721 18.1864 117.147 19.9625C116.851 19.7774 116.888 19.5554 116.851 19.3519C116.389 17.1318 115.852 14.9117 115.482 12.6731C115.316 11.6925 114.835 11.341 114.002 11.119C113.521 10.9895 113.262 10.9525 113.077 11.563C112.356 13.9681 111.56 16.3548 110.746 18.7229C110.561 19.2779 110.672 19.4444 111.19 19.6109C111.727 19.7774 111.875 19.6109 112.023 19.1299C112.707 16.9653 113.41 14.8562 114.15 12.5991ZM7.49249 85.2152C7.27048 86.0662 7.548 86.3992 8.47304 86.4733C10.7672 86.6583 13.0798 86.9358 15.3554 87.2318C15.9104 87.3058 16.1694 87.2873 16.2804 86.6213C16.3914 85.8627 15.9844 85.8997 15.5034 85.8627C14.8004 85.8072 14.0973 85.7147 13.3943 85.6222C13.2093 85.6037 13.0058 85.5852 12.8763 85.4742C12.5988 85.2337 13.1168 83.2541 13.4868 83.1061C14.4488 82.7176 15.4294 82.329 16.4099 81.959C17.113 81.7 16.9835 81.0525 16.8725 80.627C16.706 80.0349 16.2619 80.5715 16.0029 80.6455C15.2444 80.9045 14.4858 81.182 13.7828 81.5335C13.2278 81.811 13.0243 81.626 12.8393 81.1265C12.4322 80.0904 11.6367 79.5909 10.5637 79.5724C9.4721 79.5539 8.69506 80.0904 8.25104 81.0895C7.62201 82.4215 7.71451 83.8646 7.49249 85.2152ZM67.2135 16.8543C68.527 15.5407 68.749 14.5232 67.9905 13.2836C67.343 12.2106 66.0109 11.8776 64.4383 12.3771C63.3838 12.7101 62.3477 13.0801 61.2932 13.4501C61.0527 13.5426 60.7566 13.5796 60.9046 14.0052C61.7742 16.4843 62.6437 18.9634 63.4578 21.4425C63.6428 22.0161 63.9573 21.794 64.3088 21.72C64.7343 21.609 64.8268 21.3685 64.6788 20.98C64.4013 20.203 64.1423 19.4259 63.8833 18.6489C63.8278 18.4824 63.6428 18.2604 63.8463 18.1679C64.4568 17.8903 65.1044 17.6683 65.7519 17.4833C66.1404 17.3723 66.3254 17.7978 66.5474 18.0013C67.2135 18.5934 67.8425 19.2224 68.4715 19.8514C68.9896 20.3695 69.5446 20.0365 69.8776 19.7404C70.2476 19.4074 69.6556 19.2039 69.4706 19.0189C68.7675 18.2604 67.972 17.5573 67.2135 16.8543ZM79.2021 17.7978C81.6072 17.8348 83.4758 15.9662 83.5313 13.4686C83.5868 10.897 81.7182 8.8064 79.3316 8.7694C76.9449 8.73239 75.0394 10.416 74.9468 13.1356C74.8543 15.6517 76.8709 17.7608 79.2021 17.7978ZM147.341 31.3405C147.526 31.5255 147.692 31.655 147.84 31.803C148.692 32.6356 149.543 33.4866 150.394 34.3377C150.764 34.7077 151.06 34.5967 151.411 34.2452C151.8 33.8566 151.522 33.6716 151.263 33.4311C150.061 32.2841 148.877 31.137 147.692 29.9714C147.341 29.6199 147.045 29.5644 146.693 29.9344C144.917 31.803 143.123 33.6716 141.328 35.5217C141.014 35.8362 141.106 35.9842 141.384 36.2433C142.66 37.4458 143.918 38.6669 145.158 39.9064C145.565 40.295 145.805 40.1654 146.138 39.8324C146.527 39.4624 146.286 39.2774 146.027 39.0184C145.454 38.4634 144.88 37.8898 144.307 37.3348C142.808 35.8917 142.827 35.8917 144.325 34.3932C144.695 34.0416 144.88 34.0601 145.213 34.4117C145.972 35.1887 146.767 35.8917 147.526 36.6503C147.933 37.0573 148.136 36.7798 148.432 36.5208C148.766 36.2248 148.655 36.0397 148.395 35.7807C147.822 35.2627 147.285 34.7077 146.73 34.1897C145.546 33.0611 145.546 33.0796 146.73 31.8955C146.915 31.7105 147.119 31.544 147.341 31.3405ZM166.027 89.6554C166.045 89.6554 166.045 89.6554 166.064 89.6554C166.064 90.5435 166.082 91.45 166.064 92.338C166.045 92.7821 166.212 92.9301 166.656 92.9301C167.081 92.9116 167.377 92.8561 167.322 92.3195C167.248 91.524 167.192 90.7285 167.192 89.9144C167.192 87.3243 166.582 87.9903 169.246 87.7683C169.82 87.7128 169.912 87.9718 169.912 88.4529C169.931 89.4334 169.986 90.4139 170.042 91.413C170.06 91.783 169.949 92.2085 170.615 92.19C171.337 92.1715 171.207 91.7275 171.189 91.3205C171.17 90.7285 171.17 90.1549 171.115 89.5629C170.985 87.6758 170.985 87.6943 172.928 87.6758C173.464 87.6758 173.612 87.8423 173.612 88.3418C173.612 89.5444 173.686 90.747 173.686 91.9495C173.686 92.486 173.871 92.6156 174.389 92.6156C174.963 92.6156 174.944 92.301 174.926 91.9125C174.852 90.2474 174.778 88.5824 174.741 86.9358C174.722 86.3992 174.574 86.2512 174.038 86.2882C171.54 86.3807 169.043 86.4733 166.563 86.5103C165.971 86.5288 165.823 86.7693 165.879 87.3058C165.934 88.0643 165.971 88.8599 166.027 89.6554ZM10.8227 114.095C13.2093 113.54 15.8364 112.911 18.482 112.282C18.7226 112.227 18.7596 112.06 18.7041 111.875C18.2785 110.062 17.853 108.249 17.409 106.436C17.298 105.992 16.9835 106.121 16.669 106.158C16.2804 106.214 16.1509 106.343 16.2619 106.769C16.4839 107.601 16.6875 108.434 16.8725 109.266C17.298 111.209 17.2795 111.172 15.3739 111.672C14.6709 111.857 14.4673 111.634 14.3563 110.987C14.1713 109.969 13.8938 108.97 13.6533 107.953C13.5238 107.435 13.1538 107.638 12.8393 107.675C12.4322 107.731 12.4877 107.916 12.5802 108.249C12.7838 109.007 12.9503 109.803 13.0613 110.58C13.1353 111.079 13.6533 111.671 13.3388 112.005C13.0058 112.338 12.3027 112.282 11.7847 112.486C11.0817 112.763 10.8782 112.43 10.7672 111.82C10.5266 110.654 10.2306 109.488 9.99012 108.323C9.87911 107.823 9.6016 107.897 9.23159 107.971C8.88007 108.045 8.69506 108.101 8.80607 108.563C9.23159 110.247 9.6201 111.968 10.0271 113.67C10.1196 113.984 10.1936 114.225 10.8227 114.095ZM155.278 46.5113C156.943 47.3438 157.96 47.2513 158.867 46.2152C159.7 45.2717 159.607 43.8841 158.626 42.4966C158.016 41.6455 157.368 40.8315 156.776 39.9804C156.517 39.6104 156.332 39.5919 155.981 39.8509C153.964 41.368 151.929 42.8666 149.894 44.3282C149.469 44.6427 149.561 44.8092 149.802 45.1977C150.098 45.6787 150.357 45.5307 150.671 45.2902C151.43 44.7167 152.188 44.1432 153.002 43.5511C153.28 43.9026 153.502 44.2542 153.798 44.5687C154.39 45.1607 154.519 45.7527 154.038 46.4928C153.668 47.0478 153.465 47.7138 153.095 48.2874C152.595 49.0459 152.836 49.5639 153.52 50.0819C154.223 48.9534 154.704 47.7138 155.278 46.5113ZM101.459 17.6313C103.216 17.6313 104.585 16.4658 104.844 14.7267C105.066 13.1541 105.251 11.563 105.51 9.99045C105.621 9.36142 105.473 9.13941 104.844 9.04691C104.16 8.95441 104.16 9.34292 104.104 9.80544C103.901 11.3225 103.716 12.8581 103.475 14.3752C103.253 15.7997 102.384 16.5028 101.089 16.3918C99.7011 16.2623 98.961 15.4297 99.0905 13.9497C99.2386 12.3401 99.4606 10.712 99.7196 9.12091C99.8121 8.60288 99.7751 8.39937 99.22 8.32537C98.702 8.26987 98.369 8.23286 98.3135 8.9359C98.184 10.3975 97.9805 11.8775 97.74 13.3206C97.3515 15.8552 98.8685 17.6498 101.459 17.6313ZM20.3506 47.2513C19.9251 47.3438 19.7956 47.9173 19.4626 48.3059C19.1111 48.7129 19.3331 48.9349 19.5551 49.2309C21.1647 51.2845 22.7558 53.3566 24.3838 55.4102C24.5873 55.6692 24.7539 56.2428 25.1424 55.8912C25.4384 55.6137 26.0304 55.1327 25.3644 54.5777C24.2173 53.6526 24.3283 52.6721 25.2349 51.6545C25.3274 51.5435 25.4014 51.3955 25.4754 51.266C26.3634 49.8229 26.3634 49.8229 28.0655 50.1374C28.195 50.1559 28.306 50.2114 28.4355 50.1929C28.9721 50.1374 29.0276 49.6194 29.2126 49.2679C29.3421 49.0089 28.9906 48.9534 28.8056 48.9164C26.0304 48.3799 23.2923 47.8433 20.3506 47.2513ZM17.668 63.0881C18.0565 63.0141 18.26 62.9771 18.482 62.9401C19.5736 62.7551 20.6652 62.5886 21.7567 62.4035C22.4967 62.274 22.5337 61.571 22.5152 61.127C22.4967 60.7015 21.9417 61.0345 21.6642 61.0715C20.4801 61.275 19.2961 61.497 18.1305 61.7745C17.631 61.8855 17.3535 61.793 17.076 61.349C16.3729 60.2945 15.6329 59.2954 14.8744 58.2778C14.7634 58.1298 14.5968 57.6858 14.3748 58.0558C14.0973 58.5184 13.6718 58.9994 14.2268 59.6284C14.8929 60.387 15.4294 61.2565 16.0769 62.0335C16.4839 62.5331 16.3544 62.6626 15.7809 62.7366C14.7449 62.8846 13.7273 63.1066 12.6913 63.2546C11.9512 63.3656 11.7847 63.9946 11.8772 64.4942C11.9697 65.0307 12.5062 64.6052 12.8023 64.5682C13.8568 64.4017 14.9299 64.1981 15.9659 63.9391C16.5579 63.7911 16.854 63.9576 17.1685 64.4202C17.89 65.4932 18.6485 66.5293 19.3886 67.5838C19.5181 67.7688 19.7956 68.1388 19.9066 67.8798C20.0916 67.4173 20.7207 66.9918 20.1656 66.3257C19.3146 65.3267 18.556 64.2536 17.668 63.0881ZM15.1334 96.9448C14.6523 97.1483 14.4303 97.2408 14.2083 97.3333C12.1547 98.1658 10.1196 99.0354 8.04752 99.8309C7.27048 100.127 7.5295 100.7 7.65901 101.126C7.82552 101.681 8.23254 101.237 8.49155 101.126C10.8597 100.164 13.2093 99.1464 15.5589 98.1843C16.0769 97.9623 16.3729 97.7403 16.2434 97.1113C16.1139 96.5377 16.3914 95.8717 15.4294 95.6312C12.9503 95.0207 10.5081 94.2806 8.04752 93.5961C7.78851 93.5221 7.45549 93.2076 7.21498 93.5776C7.01147 93.8736 7.15948 94.2436 7.21498 94.5767C7.28898 94.9837 7.696 94.9282 7.95502 95.0022C10.2676 95.6497 12.5802 96.2602 15.1334 96.9448ZM157.498 56.5388C157.59 57.7598 158.09 58.8699 159.126 59.7209C160.014 60.4425 161.106 60.498 162.049 59.8874C162.956 59.3139 163.215 58.5554 162.919 57.3343C162.715 56.4463 162.493 55.5397 162.308 54.6517C162.216 54.2076 162.308 53.8006 162.734 53.5231C163.159 53.2456 163.603 53.2271 164.029 53.4861C165.176 54.1336 165.62 55.8912 164.806 56.8718C164.343 57.4268 164.861 57.7043 165.028 57.9448C165.231 58.2408 165.472 57.8153 165.638 57.6488C165.971 57.3158 166.175 56.9088 166.23 56.4278C166.415 55.0217 165.842 53.8931 164.917 52.9311C164.121 52.0985 163.104 51.932 162.234 52.4131C161.346 52.8941 161.013 53.6711 161.254 54.8552C161.42 55.6322 161.642 56.4093 161.864 57.1678C162.086 57.9263 161.957 58.5924 161.217 58.9809C160.44 59.3879 159.737 59.1289 159.256 58.4814C158.478 57.4638 158.034 56.2612 159.034 55.2252C159.459 54.7997 159.108 54.4482 158.867 54.1891C158.497 53.7821 158.349 54.3187 158.182 54.4852C157.683 55.0217 157.516 55.7062 157.498 56.5388ZM133.983 28.8984C133.983 28.6764 133.965 28.5839 133.983 28.5099C134.631 26.1973 135.223 23.8846 135.926 21.609C136.185 20.795 135.537 20.684 135.167 20.5175C134.668 20.2955 134.76 20.906 134.668 21.165C134.261 22.5156 133.891 23.8661 133.521 25.2167C133.206 26.3638 132.91 27.5293 132.577 28.6764C132.318 29.5829 133.132 29.6939 133.558 30.101C133.983 30.4895 134.279 30.286 134.649 30.0084C136.721 28.4544 138.812 26.9373 140.866 25.3832C141.069 25.2352 141.698 25.1242 141.291 24.7172C140.995 24.4212 140.625 23.8106 139.978 24.3472C139.201 24.9947 138.368 25.5867 137.554 26.1973C136.388 27.0853 135.241 27.9548 133.983 28.8984ZM58.148 24.1807C56.0759 22.4046 53.9853 20.6285 51.9502 18.8154C51.4507 18.3714 51.1177 18.2234 50.4701 18.5934C49.8411 18.9449 49.7116 19.3334 49.8226 19.9809C50.2666 22.6636 50.6921 25.3462 51.1547 28.0843C51.5432 27.8068 52.2647 27.9548 52.1352 27.1408C51.8392 25.2722 51.8392 25.2722 53.4488 24.4027C53.6893 24.2732 53.9483 24.1622 54.1703 23.9772C55.0214 23.2926 55.7614 23.2556 56.4829 24.1807C56.9639 24.9022 57.556 24.9022 58.148 24.1807ZM166.008 101.163C165.546 100.978 165.398 101.274 165.305 101.811C165.194 102.421 165.49 102.514 165.99 102.569C168.043 102.828 170.079 103.143 172.132 103.383C172.706 103.457 172.854 103.624 172.706 104.179C172.576 104.715 172.576 105.27 172.484 105.825C172.428 106.251 172.65 106.343 173.002 106.38C173.372 106.417 173.649 106.436 173.723 105.936C173.982 103.994 174.241 102.033 174.519 100.09C174.574 99.6644 174.537 99.4054 174.001 99.3499C173.464 99.2944 173.279 99.4609 173.242 99.9789C173.205 100.46 173.057 100.959 173.057 101.44C173.057 102.088 172.78 102.088 172.262 102.014C170.227 101.7 168.173 101.44 166.008 101.163ZM164.547 77.1303C164.491 77.7778 164.75 77.9813 165.435 77.8148C166.952 77.4633 168.506 77.1858 170.042 76.8713C172.132 76.4457 172.132 76.4458 172.576 78.5179C172.669 78.9064 172.669 79.2764 173.316 79.1469C173.945 79.0174 173.816 78.6474 173.742 78.2773C173.39 76.4458 173.02 74.6142 172.669 72.7641C172.595 72.3385 172.447 72.1165 171.947 72.2275C171.466 72.32 171.337 72.5606 171.466 72.9861C171.577 73.3931 171.67 73.8186 171.781 74.2256C171.966 74.9102 171.781 75.2247 171.004 75.3542C169.061 75.6687 167.137 76.0942 165.213 76.4828C164.843 76.5568 164.38 76.5383 164.547 77.1303ZM27.27 37.9638C26.8815 38.0933 26.7334 38.4264 26.5114 38.6669C26.3079 38.8889 26.4744 39.1109 26.6779 39.2959C28.639 41.0165 30.5816 42.7556 32.5242 44.4762C32.7647 44.6797 32.9683 44.7907 33.2088 44.4947C34.3003 43.2181 35.4104 41.9415 36.5204 40.665C36.909 40.221 36.5389 40.0359 36.2984 39.7769C36.0024 39.4439 35.8174 39.5919 35.5954 39.8694C34.8924 40.7205 34.1153 41.516 33.4308 42.3856C33.0423 42.8666 32.8018 42.8666 32.3577 42.4596C30.8777 41.0905 29.3421 39.7584 27.825 38.4264C27.64 38.2414 27.455 38.0933 27.27 37.9638ZM171.429 114.558C172.021 114.706 171.799 114.021 171.984 113.725C172.28 113.244 171.855 113.244 171.577 113.17C170.042 112.745 168.487 112.338 166.952 111.912C165.971 111.653 164.991 111.394 164.029 111.098C163.381 110.913 163.418 111.468 163.289 111.783C163.141 112.097 163.215 112.356 163.622 112.467C166.193 113.115 168.728 113.818 171.429 114.558ZM128.877 17.1133C128.748 16.7618 128.359 16.7433 128.081 16.5768C127.748 16.3733 127.563 16.5953 127.434 16.8728C126.305 19.1854 125.195 21.498 124.03 23.7736C123.752 24.3102 123.993 24.4397 124.363 24.6617C124.825 24.9207 125.066 24.8282 125.288 24.3657C126.379 22.1086 127.489 19.8699 128.6 17.6313C128.692 17.4648 128.785 17.2983 128.877 17.1133ZM162.345 68.1388C162.456 68.1018 162.53 68.0648 162.623 68.0463C165.065 67.2138 167.507 66.3628 169.968 65.5302C170.504 65.3452 170.282 65.0862 170.171 64.7717C170.06 64.4387 170.06 64.1056 169.524 64.2906C167.063 65.1602 164.584 66.0112 162.105 66.8623C161.827 66.9548 161.624 67.1028 161.827 67.3803C162.012 67.6208 161.883 68.1018 162.345 68.1388Z" fill="white"/>
<path d="M91.8934 181.05C79.8678 181.05 68.2123 178.7 57.2227 174.038C46.6217 169.56 37.0937 163.122 28.9163 154.945C20.7389 146.767 14.3191 137.239 9.82337 126.638C5.17965 115.649 2.81152 103.993 2.81152 91.9677C2.81152 79.9421 5.16114 68.2865 9.82337 57.2969C14.3191 46.6959 20.7389 37.1679 28.9163 28.9905C37.0937 20.8131 46.6217 14.3933 57.2227 9.89758C68.2123 5.25385 79.8678 2.88574 91.8934 2.88574C103.919 2.88574 115.575 5.23535 126.564 9.89758C137.165 14.3933 146.693 20.8131 154.871 28.9905C163.048 37.1679 169.468 46.6959 173.963 57.2969C178.607 68.2865 180.975 79.9421 180.975 91.9677C180.975 103.993 178.626 115.649 173.963 126.638C169.468 137.239 163.048 146.767 154.871 154.945C146.693 163.122 137.165 169.542 126.564 174.038C115.575 178.7 103.901 181.05 91.8934 181.05ZM91.8934 21.4052C52.9675 21.4052 21.2939 53.0787 21.2939 92.0046C21.2939 130.931 52.9675 162.604 91.8934 162.604C130.819 162.604 162.493 130.931 162.493 92.0046C162.474 53.0602 130.819 21.4052 91.8934 21.4052Z" fill="white"/>
<path d="M36.336 138.942C51.3588 155.778 69.9707 164.788 92.5418 164.621C115.131 164.455 133.595 155.186 148.341 138.184C149.044 140.404 149.765 142.587 150.45 144.77C150.635 145.38 150.857 145.732 151.652 145.621C155.038 145.195 158.424 144.844 161.865 144.585C144.862 166.083 122.809 178.275 95.2984 179.237C65.9005 180.273 42.0158 168.581 23.2559 146.213C23.2929 146.12 23.3299 146.009 23.3669 145.917C25.3465 146.139 27.3076 146.343 29.2872 146.565C30.5452 146.713 31.8033 146.842 33.0613 146.99C33.4499 147.027 33.7459 147.064 33.8939 146.546C34.2639 145.251 34.7079 143.974 35.1335 142.698C35.522 141.477 35.929 140.219 36.336 138.942ZM86.714 172.133C86.714 172.466 86.6955 172.817 86.714 173.15C86.7695 174.538 87.8611 175.574 89.3041 175.592C90.8212 175.629 91.9128 174.723 92.0053 173.298C92.0423 172.651 92.0238 172.003 92.0238 171.356C92.0053 169.987 91.2837 169.08 90.0627 168.84C88.6381 168.562 87.491 169.117 86.9175 170.32C86.64 170.912 86.751 171.522 86.714 172.133ZM95.4464 174.001C95.9275 173.557 96.2605 173.28 96.538 172.965C96.8525 172.632 97.1855 172.299 97.426 171.911C97.9996 171.004 97.8886 170.061 97.1485 169.413C96.057 168.451 94.1514 168.581 93.2448 169.728C93.0968 169.913 92.6158 170.264 93.0043 170.431C93.4298 170.616 93.8739 171.411 94.4659 170.727C94.8914 170.246 95.4094 170.005 95.8905 170.468C96.4085 170.949 95.9645 171.411 95.6314 171.818C95.4464 172.022 95.2429 172.225 95.0394 172.41C94.4474 172.965 93.8739 173.502 93.2818 174.038C92.8933 174.39 92.9858 174.852 93.0598 175.241C93.1523 175.666 93.5778 175.463 93.8369 175.463C94.9469 175.481 96.057 175.444 97.167 175.481C97.6295 175.5 97.7775 175.37 97.8146 174.871C97.8516 174.149 97.648 173.872 96.908 173.964C96.501 174.057 96.094 174.001 95.4464 174.001ZM101.33 174.001C101.755 173.594 102.051 173.335 102.31 173.076C102.606 172.762 102.921 172.466 103.161 172.114C103.92 171.023 103.735 169.931 102.717 169.228C101.552 168.414 99.7016 168.784 98.9616 169.968C98.8506 170.135 98.6101 170.412 98.9061 170.505C99.4241 170.671 99.8867 171.504 100.534 170.616C100.849 170.19 101.33 170.172 101.774 170.468C102.292 170.838 102.014 171.208 101.737 171.559C101.515 171.837 101.274 172.114 100.997 172.373C100.386 172.965 99.7571 173.557 99.1096 174.131C98.7026 174.482 98.8506 174.945 98.9246 175.333C98.9986 175.666 99.4056 175.481 99.6461 175.5C100.775 175.518 101.922 175.481 103.069 175.518C103.55 175.537 103.661 175.37 103.698 174.889C103.753 174.131 103.476 173.909 102.773 174.001C102.384 174.038 101.959 174.001 101.33 174.001ZM83.4208 174.001C84.0684 173.317 84.7159 172.891 85.1414 172.262C85.5299 171.707 85.863 171.134 85.641 170.394C85.4004 169.524 84.8084 169.043 83.9759 168.858C82.8658 168.618 81.8853 168.895 81.1822 169.802C81.0527 169.95 80.5162 170.246 81.0342 170.486C81.4412 170.671 81.8483 171.282 82.3663 170.782C82.8473 170.32 83.3653 169.987 83.8649 170.486C84.4199 171.041 83.8834 171.559 83.4763 171.966C82.7548 172.669 82.0148 173.372 81.2747 174.057C80.8862 174.408 80.9787 174.871 81.0527 175.259C81.1267 175.685 81.5707 175.481 81.8298 175.481C82.9028 175.5 83.9759 175.463 85.0674 175.5C85.6964 175.537 85.8075 175.296 85.826 174.723C85.8445 174.057 85.5855 173.946 85.0304 173.983C84.5309 174.038 84.0499 174.001 83.4208 174.001ZM78.5921 170.708C77.7596 170.708 77.1305 171.319 77.1305 172.151C77.1305 172.984 77.7411 173.631 78.5551 173.65C79.3691 173.668 80.0167 173.002 80.0352 172.188C80.0352 171.374 79.4061 170.727 78.5921 170.708ZM106.084 170.708C105.27 170.708 104.641 171.337 104.623 172.151C104.604 172.965 105.252 173.631 106.047 173.631C106.88 173.65 107.583 172.947 107.565 172.133C107.565 171.356 106.898 170.727 106.084 170.708Z" fill="#221F51"/>
<path d="M86.7136 172.133C86.7321 171.522 86.6396 170.912 86.9171 170.32C87.4907 169.117 88.6377 168.562 90.0623 168.84C91.2834 169.08 92.0049 169.987 92.0234 171.356C92.0419 172.003 92.0604 172.651 92.0049 173.299C91.9124 174.723 90.8208 175.611 89.3038 175.593C87.8607 175.556 86.7506 174.538 86.7136 173.15C86.7136 172.799 86.7136 172.466 86.7136 172.133ZM90.4508 172.225C90.4508 171.892 90.4508 171.541 90.4508 171.208C90.4508 170.523 89.9883 170.301 89.4333 170.283C88.8782 170.264 88.3972 170.486 88.3787 171.171C88.3602 171.855 88.3602 172.521 88.3787 173.206C88.3972 173.891 88.8597 174.094 89.4333 174.076C90.0068 174.057 90.4508 173.854 90.4508 173.15C90.4508 172.854 90.4508 172.54 90.4508 172.225Z" fill="white"/>
<path d="M95.446 174.001C96.0935 174.001 96.519 174.038 96.9445 173.983C97.6846 173.89 97.8881 174.168 97.8511 174.889C97.8141 175.389 97.6661 175.518 97.2035 175.5C96.0935 175.463 94.9834 175.5 93.8734 175.481C93.5959 175.481 93.1703 175.685 93.0963 175.259C93.0223 174.871 92.9298 174.408 93.3184 174.057C93.9104 173.52 94.5024 172.984 95.0759 172.429C95.2795 172.244 95.483 172.059 95.668 171.837C96.001 171.43 96.445 170.949 95.927 170.486C95.446 170.042 94.9279 170.264 94.5024 170.745C93.8919 171.43 93.4664 170.616 93.0408 170.449C92.6523 170.283 93.1333 169.931 93.2814 169.746C94.1694 168.599 96.0935 168.469 97.185 169.431C97.9066 170.079 98.0361 171.041 97.4626 171.929C97.222 172.318 96.889 172.651 96.5745 172.984C96.223 173.28 95.927 173.557 95.446 174.001Z" fill="white"/>
<path d="M101.33 174.001C101.959 174.001 102.384 174.038 102.791 174.001C103.494 173.909 103.772 174.149 103.716 174.889C103.679 175.37 103.568 175.518 103.087 175.518C101.959 175.481 100.812 175.518 99.6645 175.5C99.424 175.5 99.0169 175.685 98.9429 175.333C98.8689 174.945 98.7209 174.482 99.1279 174.131C99.757 173.557 100.386 172.965 101.015 172.373C101.274 172.114 101.515 171.836 101.755 171.559C102.033 171.207 102.292 170.819 101.792 170.467C101.348 170.153 100.867 170.19 100.553 170.615C99.9235 171.503 99.4425 170.652 98.9244 170.504C98.6284 170.412 98.8689 170.134 98.9799 169.968C99.72 168.784 101.589 168.432 102.736 169.228C103.753 169.931 103.938 171.041 103.18 172.114C102.939 172.465 102.625 172.761 102.329 173.076C102.051 173.353 101.755 173.594 101.33 174.001Z" fill="white"/>
<path d="M83.4204 174.001C84.0679 174.001 84.5304 174.038 85.0114 174.001C85.5665 173.964 85.8255 174.075 85.807 174.741C85.7885 175.333 85.6775 175.555 85.0484 175.518C83.9754 175.463 82.9023 175.518 81.8108 175.5C81.5333 175.5 81.1078 175.703 81.0337 175.278C80.9597 174.889 80.8672 174.427 81.2558 174.075C81.9958 173.391 82.7358 172.688 83.4574 171.985C83.8829 171.578 84.4194 171.078 83.8459 170.505C83.3464 170.005 82.8098 170.338 82.3473 170.801C81.8478 171.3 81.4223 170.69 81.0153 170.505C80.4972 170.264 81.0337 169.968 81.1633 169.82C81.8663 168.895 82.8653 168.636 83.9569 168.877C84.7894 169.062 85.3815 169.543 85.622 170.412C85.844 171.152 85.4925 171.726 85.1225 172.281C84.7154 172.891 84.0679 173.317 83.4204 174.001Z" fill="white"/>
<path d="M78.5918 170.708C79.4059 170.708 80.0534 171.374 80.0349 172.188C80.0164 173.002 79.3689 173.65 78.5549 173.65C77.7408 173.631 77.1118 172.984 77.1303 172.151C77.1303 171.337 77.7593 170.708 78.5918 170.708Z" fill="white"/>
<path d="M106.084 170.708C106.898 170.708 107.546 171.337 107.564 172.151C107.583 172.965 106.88 173.668 106.047 173.65C105.233 173.631 104.604 172.984 104.622 172.17C104.641 171.337 105.27 170.708 106.084 170.708Z" fill="white"/>
<path d="M16.2996 93.0234L16.6881 99.5728L7.53012 100.128L7.1416 93.671L8.10364 93.6155L8.41816 98.9252L11.4153 98.7402L11.1378 94.004L12.0998 93.9485L12.3774 98.6847L15.652 98.4812L15.319 93.0789L16.2996 93.0234Z" fill="#221F51"/>
<path d="M7.41874 100.22L7.01172 93.5781L8.15878 93.5041L8.47328 98.8139L11.2854 98.6474L11.0079 93.9112L12.155 93.8372L12.4325 98.5734L15.5221 98.3884L15.1891 92.9861L16.3732 92.9121L16.7802 99.6464H16.6877L7.41874 100.22ZM7.21522 93.7631L7.58524 100.035L16.5582 99.4984L16.1882 93.1341L15.3741 93.1711L15.7071 98.5734L12.2475 98.7954L11.97 94.0592L11.1929 94.0962L11.4704 98.8324L8.28828 99.0359L7.97377 93.7262L7.21522 93.7631Z" fill="#221F51"/>
<path d="M16.7807 84.087L16.6142 85.9926L7.17871 88.3237L7.28972 87.1026L16.1702 84.9935L7.82624 81.2933L7.93726 80.0723L16.7807 84.087Z" fill="#221F51"/>
<path d="M7.06738 88.4343L7.19689 87.0282L15.8738 84.9746L7.71491 81.3484L7.84442 79.9424L16.8729 84.0311L16.6879 86.0662L7.06738 88.4343ZM7.36339 87.1577L7.27089 88.1753L16.5213 85.8997L16.6694 84.1236L7.99243 80.2014L7.89992 81.2189L16.4473 84.9931L7.36339 87.1577Z" fill="#221F51"/>
<path d="M15.8929 70.6185L19.6116 69.712L19.2971 70.9701L15.0974 71.9691L14.4313 74.6147L18.1315 75.5583L17.854 76.6868L8.95508 74.4297L9.95412 70.5075C10.1021 69.9155 10.3426 69.3975 10.6757 68.9905C11.0087 68.5649 11.3972 68.2689 11.8597 68.1024C12.3222 67.9359 12.8033 67.9174 13.3213 68.0469C14.0428 68.2319 14.5794 68.6204 14.9124 69.2125C15.2454 69.8045 15.3749 70.5075 15.2639 71.3031C15.4119 70.896 15.6154 70.674 15.8929 70.6185ZM14.2093 71.6361C14.3573 71.0256 14.3388 70.489 14.1168 70.0265C13.8948 69.564 13.5433 69.268 13.0253 69.1385C12.5073 69.009 12.0632 69.1015 11.6562 69.416C11.2492 69.7305 10.9717 70.1745 10.8237 70.785L10.1391 73.5232L13.5248 74.3742L14.2093 71.6361Z" fill="#221F51"/>
<path d="M17.9091 76.7976L8.8252 74.5035L9.84275 70.4888C9.99075 69.8783 10.2498 69.3418 10.5828 68.9347C10.9343 68.4907 11.3228 68.1947 11.8038 68.0282C12.2849 67.8617 12.7844 67.8432 13.3209 67.9727C14.0795 68.1577 14.6345 68.5647 14.9675 69.1752C15.245 69.6748 15.393 70.2483 15.3745 70.8773C15.5225 70.6923 15.6705 70.5813 15.874 70.5443L19.7407 69.6008L19.3707 71.0623L15.171 72.0614L14.542 74.559L18.2422 75.5026L17.9091 76.7976ZM9.04721 74.374L17.7796 76.5756L18.0202 75.6321L14.32 74.6885L15.023 71.8949L15.0785 71.8764L15.1525 71.2843C15.2635 70.5258 15.1525 69.8413 14.8195 69.2492C14.505 68.6942 13.9869 68.3057 13.2839 68.1207C12.7844 67.9912 12.3219 68.0097 11.8778 68.1762C11.4338 68.3427 11.0638 68.6202 10.7308 69.0272C10.4163 69.4158 10.1758 69.9153 10.0278 70.5073L9.04721 74.374ZM19.4817 69.8413L15.911 70.7108C15.6705 70.7663 15.4855 70.9513 15.3375 71.3399L15.1155 71.8764L19.2227 70.8958L19.4817 69.8413ZM13.5799 74.485L10.0278 73.597L10.7308 70.7663C10.8788 70.1373 11.1563 69.6748 11.6003 69.3417C12.0259 69.0087 12.5069 68.9162 13.0434 69.0457C13.5799 69.1752 13.9499 69.4898 14.1905 69.9893C14.4125 70.4518 14.4495 71.0068 14.283 71.6544L13.5799 74.485ZM10.2498 73.4675L13.4504 74.2815L14.1165 71.6359C14.2645 71.0253 14.2275 70.5258 14.0239 70.0818C13.8019 69.6378 13.4689 69.3602 12.9879 69.2492C12.4884 69.1197 12.0814 69.2122 11.6928 69.5083C11.3043 69.8228 11.0268 70.2483 10.8973 70.8218L10.2498 73.4675Z" fill="#221F51"/>
<path d="M21.1826 54.7815L23.8097 59.1107L23.1807 60.2947L20.4425 55.4105L15.1143 55.8915L15.7248 54.7444L20.572 54.4484L18.0559 50.3042L18.6664 49.1387L21.2936 53.8009L26.8623 53.3199L26.2518 54.4854L21.1826 54.7815Z" fill="#221F51"/>
<path d="M23.1812 60.4987L20.3875 55.5219L14.9482 56.0214L15.6698 54.6709L20.406 54.3749L17.9454 50.3232L18.6669 48.9541L21.3496 53.7088L27.0293 53.2278L26.3078 54.5969L21.3496 54.8929L23.9212 59.1296L23.1812 60.4987ZM20.4985 55.3184L23.1812 60.1102L23.6992 59.1296L21.035 54.7079L26.1968 54.4119L26.6963 53.4498L21.2386 53.9123L18.6854 49.3426L18.1859 50.3047L20.7575 54.5229L15.8178 54.8189L15.3183 55.7624L20.4985 55.3184Z" fill="#221F51"/>
<path d="M28.344 46.9554L29.7131 49.0275L28.9915 49.9895L23.7188 41.7196L24.7548 40.332L34.1348 43.1442L33.4132 44.1062L31.0451 43.3662L28.344 46.9554ZM24.5698 41.2756L27.7519 46.1043L30.0831 43.0147L24.5698 41.2756Z" fill="#221F51"/>
<path d="M28.9727 50.1558L23.6074 41.7379L24.7175 40.2578L34.301 43.1255L33.4684 44.2355L31.1003 43.4955L28.4547 46.9736L29.8237 49.0457L28.9727 50.1558ZM23.8294 41.7194L28.9912 49.8043L29.6017 49.0087L28.2327 46.9366L31.0263 43.255L33.3944 43.995L34.0049 43.1995L24.81 40.4428L23.8294 41.7194ZM27.7516 46.2706L24.366 41.1273L30.2492 42.9774L27.7516 46.2706ZM24.7915 41.4419L27.7516 45.9376L29.9162 43.0514L24.7915 41.4419Z" fill="#221F51"/>
<path d="M41.5537 35.5778L37.1874 39.833L30.7861 33.2467L31.6187 32.4326L37.3355 38.2974L40.8691 34.8562L41.5537 35.5778Z" fill="#221F51"/>
<path d="M37.1871 39.9436L30.6562 33.2463L31.6183 32.3027L37.3351 38.1675L40.8688 34.7264L41.7013 35.5774L37.1871 39.9436ZM30.9153 33.2463L37.2056 39.6846L41.4423 35.5589L40.8688 34.9669L37.3166 38.4265L31.5998 32.5617L30.9153 33.2463Z" fill="#221F51"/>
<path d="M48.8607 31.2858C48.9532 31.4338 49.1012 31.5078 49.2677 31.5263C49.4343 31.5448 49.6008 31.4708 49.7858 31.3413L51.2473 30.3052L51.6544 30.8788L49.6748 32.2663C49.3788 32.4698 49.0827 32.5624 48.7867 32.5439C48.4907 32.5254 48.2687 32.3773 48.0837 32.1183C47.9172 31.8778 47.8617 31.6188 47.9172 31.3043C47.9727 31.0083 48.1022 30.6938 48.3057 30.3792C47.6212 30.8418 46.8996 31.0823 46.1226 31.1193C45.3456 31.1563 44.6055 30.9898 43.884 30.6383C43.181 30.2867 42.5704 29.7502 42.0709 29.0472C41.5714 28.3256 41.2569 27.5671 41.1643 26.7716C41.0718 25.9575 41.1828 25.199 41.4974 24.4774C41.8119 23.7559 42.3114 23.1454 42.9959 22.6644C43.6805 22.1833 44.4205 21.9058 45.2161 21.8503C46.0116 21.7948 46.7701 21.9613 47.4917 22.3128C48.2132 22.6644 48.8237 23.2009 49.3233 23.9224C49.7488 24.5329 50.0448 25.199 50.1743 25.902C50.3038 26.6051 50.2668 27.2896 50.0818 27.9556C49.8968 28.6217 49.5453 29.2137 49.0642 29.7317C48.7127 30.4532 48.6387 30.9713 48.8607 31.2858ZM44.439 29.6577C44.994 29.9537 45.5676 30.1017 46.1596 30.0832C46.7516 30.0647 47.3252 29.8797 47.8432 29.5097C48.3612 29.1397 48.7312 28.6772 48.9532 28.1036C49.1753 27.5301 49.2307 26.9381 49.1197 26.3275C49.0272 25.6985 48.7867 25.125 48.4167 24.607C48.0282 24.0519 47.5472 23.6264 46.9921 23.3304C46.4371 23.0344 45.8636 22.8864 45.2531 22.9049C44.6425 22.9234 44.0875 23.1084 43.5695 23.4784C43.0514 23.8484 42.6814 24.3109 42.4594 24.866C42.2374 25.421 42.1819 26.013 42.2744 26.6236C42.3669 27.2341 42.6074 27.8261 42.9959 28.3626C43.4215 28.9177 43.884 29.3432 44.439 29.6577Z" fill="#221F51"/>
<path d="M48.8419 32.6362C48.8234 32.6362 48.7864 32.6362 48.7679 32.6362C48.4534 32.6177 48.2129 32.4697 47.9909 32.1737C47.8059 31.9147 47.7504 31.6187 47.8059 31.2856C47.8429 31.0821 47.9169 30.8601 48.0279 30.6566C47.4358 31.0081 46.7883 31.1746 46.1038 31.2116C45.3267 31.2486 44.5682 31.0821 43.8282 30.7306C43.1066 30.3791 42.4961 29.8241 41.9781 29.121C41.46 28.3625 41.1455 27.5855 41.053 26.8084C40.9605 25.9759 41.0715 25.2173 41.386 24.4773C41.7006 23.7373 42.2186 23.1082 42.9216 22.6272C43.6246 22.1277 44.3832 21.8502 45.1787 21.7947C45.9558 21.7392 46.7513 21.9057 47.4913 22.2572C48.2314 22.6087 48.8419 23.1637 49.3599 23.9038C49.8039 24.5513 50.1 25.2173 50.2295 25.9204C50.359 26.6234 50.322 27.3264 50.137 28.011C49.952 28.6585 49.6004 29.269 49.1009 29.8056C48.7679 30.4901 48.6939 30.9711 48.8974 31.2486C48.9714 31.3596 49.0824 31.4336 49.2304 31.4521C49.3599 31.4706 49.4894 31.4151 49.693 31.2856L51.2285 30.1941L51.7465 30.9156L49.693 32.3587C49.4339 32.5437 49.1379 32.6362 48.8419 32.6362ZM48.6199 30.0461L48.3794 30.4346C48.1944 30.7306 48.0649 31.0266 48.0094 31.3226C47.9539 31.6001 48.0094 31.8407 48.1574 32.0627C48.3424 32.3032 48.5274 32.4327 48.7864 32.4512C49.0639 32.4697 49.3414 32.3772 49.6189 32.1922L51.5245 30.8601L51.2285 30.4346L49.841 31.4151C49.6189 31.5816 49.4339 31.6372 49.2674 31.6187C49.0639 31.6002 48.8974 31.5076 48.7864 31.3411C48.5459 31.0081 48.6199 30.4531 48.9899 29.6946L49.0084 29.6761C49.4894 29.158 49.8224 28.566 50.0075 27.937C50.1925 27.2709 50.2295 26.6049 50.1 25.9204C49.9705 25.2543 49.6929 24.5883 49.2674 23.9778C48.7864 23.2747 48.1759 22.7382 47.4728 22.4052C46.7513 22.0537 45.9928 21.9057 45.2527 21.9612C44.4942 22.0167 43.7542 22.2757 43.0881 22.7567C42.4221 23.2192 41.9411 23.8113 41.6265 24.5328C41.312 25.2358 41.201 25.9759 41.2935 26.7714C41.386 27.5299 41.682 28.27 42.1816 29.01C42.6811 29.6946 43.2731 30.2311 43.9577 30.5641C44.6792 30.9156 45.4007 31.0636 46.1408 31.0266C46.9178 30.9896 47.6023 30.7491 48.2684 30.3051L48.6199 30.0461ZM46.0483 30.1756C45.4932 30.1756 44.9197 30.0276 44.3832 29.7316C43.8282 29.417 43.3656 28.9915 42.9216 28.418C42.5331 27.8815 42.2741 27.2709 42.1816 26.6419C42.0891 25.9944 42.1446 25.4023 42.3666 24.8473C42.5886 24.2738 42.9771 23.7928 43.5136 23.4227C44.0502 23.0527 44.6052 22.8492 45.2527 22.8307C45.8633 22.8122 46.4553 22.9602 47.0288 23.2747C47.6023 23.5892 48.1019 24.0148 48.4904 24.5698C48.8789 25.1063 49.1194 25.6984 49.2119 26.3274C49.3229 26.9564 49.2674 27.567 49.0454 28.1405C48.8234 28.7325 48.4534 29.195 47.8984 29.5836C47.3803 29.9536 46.7883 30.1571 46.1593 30.1756C46.1223 30.1756 46.0853 30.1756 46.0483 30.1756ZM44.4757 29.5836C45.0307 29.8796 45.5857 30.0091 46.1408 29.9906C46.7328 29.9721 47.2878 29.7871 47.7689 29.4355C48.2869 29.0655 48.6384 28.6215 48.8419 28.0665C49.0639 27.5114 49.1194 26.9379 49.0084 26.3459C48.9159 25.7354 48.6939 25.1803 48.3239 24.6623C47.9539 24.1258 47.4728 23.7003 46.9363 23.4227C46.3813 23.1267 45.8263 22.9972 45.2527 23.0157C44.6607 23.0342 44.1242 23.2192 43.6246 23.5708C43.1251 23.9223 42.7551 24.3848 42.5516 24.9213C42.3481 25.4393 42.2741 26.0314 42.3666 26.6234C42.4591 27.2339 42.6996 27.8075 43.0696 28.3255C43.4951 28.8805 43.9392 29.269 44.4757 29.5836Z" fill="#221F51"/>
<path d="M56.2988 22.6637L56.5578 25.1243L55.4848 25.6424L54.6152 15.8924L56.1878 15.1523L63.2367 21.9792L62.1636 22.4972L60.406 20.7396L56.2988 22.6637ZM55.5773 15.9109L56.1878 21.6647L59.666 19.9996L55.5773 15.9109Z" fill="#221F51"/>
<path d="M55.4105 25.7901L54.5225 15.8366L56.206 15.041L56.243 15.078L63.3844 21.9974L62.1263 22.6079L60.3687 20.8503L56.391 22.7374L56.6501 25.198L55.4105 25.7901ZM54.7075 15.9476L55.5585 25.5125L56.4466 25.087L56.1875 22.6264L60.4058 20.6283L62.1633 22.3859L63.0514 21.9604L56.1505 15.2815L54.7075 15.9476ZM56.1135 21.7938L55.466 15.6516L59.8322 20.0178L56.1135 21.7938ZM55.7065 16.1511L56.28 21.5163L59.5177 19.9623L55.7065 16.1511Z" fill="#221F51"/>
<path d="M71.6355 15.6894L74.3182 18.4461L73.0786 18.8161L70.0815 15.6894L67.4543 16.448L68.5274 20.1111L67.4173 20.4257L64.8457 11.6007L68.7309 10.4722C69.3229 10.3057 69.878 10.2501 70.4145 10.3242C70.951 10.3982 71.395 10.5832 71.7835 10.8977C72.1536 11.2122 72.4311 11.6192 72.5791 12.1373C72.7826 12.8588 72.7271 13.5063 72.3756 14.0983C72.0241 14.6904 71.4875 15.1529 70.7475 15.4674C71.136 15.3934 71.4505 15.4674 71.6355 15.6894ZM69.915 14.7459C70.5255 14.5609 70.9695 14.2649 71.247 13.8578C71.543 13.4323 71.5985 12.9698 71.4505 12.4703C71.3025 11.9707 70.988 11.6192 70.5255 11.4342C70.063 11.2492 69.5264 11.2307 68.9159 11.4157L66.1963 12.2112L67.1768 15.5599L69.915 14.7459Z" fill="#221F51"/>
<path d="M67.3615 20.5364L64.7344 11.545L68.7121 10.3979C69.3411 10.2314 69.8961 10.1759 70.4327 10.2499C70.9877 10.3239 71.4502 10.5275 71.8387 10.842C72.2457 11.175 72.5233 11.619 72.6713 12.1185C72.8933 12.8771 72.8193 13.5431 72.4678 14.1536C72.1717 14.6531 71.7462 15.0602 71.1912 15.3562C71.4132 15.3932 71.5797 15.4857 71.7092 15.6337L74.4844 18.5013L73.0413 18.9269L70.0441 15.8002L67.565 16.5217L68.6381 20.1849L67.3615 20.5364ZM64.9749 11.6745L67.491 20.3144L68.4161 20.0554L67.343 16.3922L70.1181 15.5967L70.1551 15.6337L70.7287 15.3932C71.4317 15.0972 71.9682 14.6531 72.3198 14.0611C72.6528 13.5061 72.7083 12.8771 72.5048 12.174C72.3753 11.693 72.1162 11.3045 71.7462 10.99C71.3762 10.694 70.9507 10.5089 70.4327 10.4349C69.9146 10.3609 69.3781 10.4164 68.7861 10.5829L64.9749 11.6745ZM70.1921 15.6707L73.1153 18.7049L74.1513 18.3903L71.5797 15.7447C71.3762 15.5042 71.0247 15.5042 70.7842 15.5597L70.1921 15.6707ZM67.121 15.6707L66.0849 12.1555L68.8971 11.3415C69.5076 11.1565 70.0626 11.1565 70.5622 11.36C71.0432 11.545 71.3947 11.9335 71.5427 12.4515C71.7092 12.9881 71.6352 13.4876 71.3207 13.9131C71.0247 14.3386 70.5622 14.6532 69.9331 14.8382L67.121 15.6707ZM66.3254 12.285L67.2505 15.4487L69.8961 14.6532C70.4882 14.4681 70.9137 14.1906 71.1727 13.8021C71.4502 13.4136 71.5057 12.9881 71.3577 12.4885C71.2097 12.0075 70.9322 11.693 70.4882 11.508C70.0256 11.323 69.5076 11.323 68.9341 11.4895L66.3254 12.285Z" fill="#221F51"/>
<path d="M80.6274 16.7249C79.9058 16.3919 79.3138 15.8924 78.8513 15.2263C78.3887 14.5603 78.1112 13.8018 78.0002 12.9322C77.8892 12.0627 78.0002 11.2486 78.2962 10.4901C78.5923 9.73157 79.0548 9.12105 79.6838 8.62152C80.3128 8.1405 81.0344 7.84448 81.8669 7.73347C82.6995 7.64097 83.4765 7.75198 84.198 8.08499C84.9196 8.41801 85.5116 8.91753 85.9741 9.58356C86.4366 10.2496 86.7327 11.0081 86.8252 11.8777C86.9177 12.7287 86.8252 13.5428 86.5292 14.3013C86.2331 15.0598 85.7706 15.6889 85.1416 16.1699C84.5126 16.6694 83.791 16.9654 82.9585 17.0579C82.1259 17.1874 81.3489 17.0579 80.6274 16.7249ZM84.4941 15.3744C84.9566 14.9858 85.2896 14.4863 85.4931 13.8943C85.6966 13.3023 85.7706 12.6917 85.6966 12.0442C85.6226 11.3782 85.4006 10.7676 85.0676 10.2496C84.7161 9.71307 84.272 9.32456 83.7355 9.04704C83.199 8.76953 82.607 8.67702 81.9964 8.75102C81.3674 8.82502 80.8124 9.06554 80.3683 9.45406C79.9058 9.84258 79.5728 10.3236 79.3693 10.9156C79.1658 11.5077 79.0918 12.1367 79.1843 12.7842C79.2583 13.4503 79.4803 14.0608 79.8133 14.5788C80.1463 15.1153 80.5904 15.5039 81.1269 15.7814C81.6634 16.0589 82.2554 16.1514 82.8845 16.0774C83.4765 16.0034 84.0315 15.7814 84.4941 15.3744Z" fill="#221F51"/>
<path d="M82.3292 17.1872C81.7371 17.1872 81.1451 17.0577 80.5901 16.7987C79.8501 16.4656 79.2395 15.9476 78.777 15.2631C78.3145 14.597 78.0185 13.82 77.9075 12.932C77.7965 12.0809 77.9075 11.2484 78.2035 10.4528C78.4995 9.6943 78.962 9.06527 79.6095 8.54725C80.2571 8.04772 80.9786 7.7517 81.8296 7.6407C82.6807 7.54819 83.4947 7.6592 84.2163 7.99222C84.9563 8.32523 85.5668 8.84326 86.0294 9.52779C86.5104 10.2308 86.8064 11.0079 86.8989 11.8589C86.9914 12.7285 86.8989 13.561 86.6029 14.3195C86.3069 15.0966 85.8258 15.7441 85.1783 16.2251C84.5308 16.7432 83.8092 17.0392 82.9582 17.1317C82.7547 17.1872 82.5512 17.1872 82.3292 17.1872ZM82.4217 7.80721C82.2367 7.80721 82.0702 7.82571 81.8852 7.84421C81.0711 7.95522 80.3681 8.23273 79.7576 8.71376C79.1285 9.21328 78.6845 9.80531 78.407 10.5453C78.111 11.3039 78.0185 12.1179 78.111 12.932C78.222 13.8015 78.4995 14.5415 78.9435 15.1891C79.3875 15.8366 79.9796 16.3361 80.6826 16.6506C81.4041 16.9837 82.1812 17.0947 82.9582 16.9837C83.7722 16.8912 84.4753 16.6137 85.1043 16.1141C85.7148 15.6516 86.1774 15.0411 86.4549 14.2825C86.7324 13.561 86.8434 12.747 86.7509 11.9144C86.6584 11.1004 86.3809 10.3418 85.9184 9.6573C85.4743 9.00977 84.8823 8.51024 84.1793 8.19572C83.6242 7.93671 83.0322 7.80721 82.4217 7.80721ZM82.4772 16.1881C81.9777 16.1881 81.5151 16.0771 81.0896 15.8551C80.5161 15.5591 80.0721 15.1521 79.739 14.6155C79.3875 14.079 79.1655 13.45 79.0915 12.784C78.999 12.1549 79.073 11.5074 79.2765 10.8784C79.48 10.2678 79.813 9.78681 80.2941 9.37979C80.7566 8.99127 81.3301 8.73225 81.9777 8.65825C82.6252 8.58424 83.2172 8.67675 83.7722 8.97276C84.3458 9.26878 84.7898 9.6758 85.1413 10.2123C85.4928 10.7489 85.7148 11.3779 85.7888 12.0439C85.8628 12.6915 85.7888 13.302 85.5853 13.931C85.3818 14.5415 85.0303 15.0596 84.5678 15.4481C84.1053 15.8551 83.5502 16.0956 82.9027 16.1696C82.7547 16.1881 82.6252 16.1881 82.4772 16.1881ZM82.4032 8.82476C82.2737 8.82476 82.1442 8.82475 82.0147 8.84326C81.4041 8.91726 80.8676 9.13927 80.4421 9.52779C79.9796 9.91631 79.665 10.3788 79.4615 10.9524C79.258 11.5629 79.2025 12.1734 79.2765 12.784C79.3505 13.413 79.554 14.0235 79.887 14.5415C80.2016 15.0411 80.6086 15.4296 81.1636 15.7071C81.6631 15.9661 82.2367 16.0586 82.8657 15.9846C83.4762 15.9106 83.9943 15.6886 84.4198 15.3001C84.8638 14.9301 85.1968 14.449 85.3818 13.857C85.5853 13.265 85.6593 12.673 85.5853 12.0439C85.5113 11.4149 85.3078 10.8044 84.9748 10.2863C84.6418 9.78681 84.2163 9.39828 83.6797 9.12077C83.2912 8.93576 82.8657 8.82476 82.4032 8.82476Z" fill="#221F51"/>
<path d="M100.275 7.64127L99.5536 13.2101C99.4426 14.0611 99.5906 14.7271 99.9791 15.2637C100.368 15.7817 100.96 16.0962 101.737 16.2072C102.514 16.2997 103.161 16.1517 103.679 15.7447C104.197 15.3377 104.512 14.7086 104.623 13.8946L105.344 8.32581L106.491 8.47382L105.77 14.0611C105.677 14.8011 105.437 15.4302 105.067 15.9297C104.697 16.4292 104.197 16.7992 103.605 17.0212C103.013 17.2433 102.347 17.2988 101.626 17.2062C100.886 17.1137 100.257 16.8732 99.7386 16.5217C99.2206 16.1517 98.8506 15.6892 98.6101 15.0972C98.3696 14.5051 98.314 13.8576 98.4065 13.1176L99.1281 7.53027L100.275 7.64127Z" fill="#221F51"/>
<path d="M102.273 17.3355C102.07 17.3355 101.848 17.317 101.607 17.2985C100.886 17.206 100.238 16.9655 99.6832 16.5955C99.1467 16.207 98.7582 15.726 98.5177 15.1339C98.2771 14.5419 98.2031 13.8944 98.3141 13.1173L99.0542 7.45605L100.386 7.58556L99.6462 13.2469C99.5352 14.0609 99.6832 14.7084 100.053 15.2264C100.423 15.726 100.997 16.022 101.755 16.133C102.514 16.2255 103.124 16.0775 103.624 15.689C104.123 15.3004 104.419 14.7084 104.53 13.8944L105.27 8.2331L106.603 8.39961L105.863 14.0794C105.77 14.8194 105.529 15.467 105.141 15.985C104.752 16.503 104.253 16.873 103.642 17.1135C103.217 17.2615 102.773 17.3355 102.273 17.3355ZM99.2207 7.64106L98.5177 13.1358C98.4252 13.8759 98.4807 14.5049 98.7212 15.0599C98.9432 15.6335 99.3132 16.0775 99.8127 16.4475C100.331 16.799 100.96 17.021 101.663 17.1135C102.384 17.206 103.032 17.1505 103.605 16.9285C104.179 16.7065 104.66 16.355 105.03 15.874C105.4 15.3744 105.622 14.7639 105.714 14.0424L106.418 8.54761L105.456 8.4181L104.752 13.8944C104.641 14.7454 104.308 15.393 103.772 15.8C103.235 16.207 102.569 16.3735 101.755 16.281C100.941 16.17 100.331 15.837 99.9422 15.3004C99.5352 14.7269 99.3872 14.0424 99.4982 13.1728L100.201 7.69658L99.2207 7.64106Z" fill="#221F51"/>
<path d="M117.962 20.9618L116.112 20.3883L113.855 10.6568L111.32 18.9267L110.266 18.6122L112.967 9.84277L114.798 10.3978L117.055 20.1478L119.609 11.8594L120.663 12.1739L117.962 20.9618Z" fill="#221F51"/>
<path d="M118.017 21.0725L116.038 20.4619L113.854 11.008L111.394 19.0374L110.154 18.6673L112.911 9.71289L114.872 10.3049L114.891 10.3604L117.074 19.7774L119.553 11.7295L120.792 12.0995L118.017 21.0725ZM116.186 20.3139L117.888 20.8504L120.533 12.229L119.664 11.97L117.037 20.4989L114.724 10.4529L113.04 9.9349L110.395 18.5378L111.264 18.7968L113.873 10.2679L116.186 20.3139Z" fill="#221F51"/>
<path d="M127.638 15.1714L123.808 23.5154L122.754 23.0343L126.584 14.6904L127.638 15.1714Z" fill="#221F51"/>
<path d="M123.864 23.6445L122.643 23.0895L126.546 14.5605L127.767 15.1156L123.864 23.6445ZM122.883 22.997L123.771 23.404L127.527 15.2266L126.639 14.8196L122.883 22.997Z" fill="#221F51"/>
<path d="M132.171 28.0662L130.543 27.0672L132.652 17.5947L133.688 18.2423L131.635 27.1412L138.665 21.2764L139.719 21.9239L132.171 28.0662Z" fill="#221F51"/>
<path d="M132.189 28.1768L130.45 27.1037L132.596 17.4277L133.799 18.1863L131.801 26.8817L138.665 21.1649L139.886 21.9235L132.189 28.1768ZM130.654 27.0297L132.171 27.9548L139.553 21.942L138.665 21.4054L131.486 27.3997L133.577 18.2973L132.707 17.7607L130.654 27.0297Z" fill="#221F51"/>
<path d="M143.364 36.5952L138.351 32.3585L144.289 25.3467L149.229 29.5279L148.6 30.2679L144.548 26.8268L142.606 29.1209L146.232 32.192L145.603 32.9321L141.977 29.8609L139.849 32.3585L143.975 35.8552L143.364 36.5952Z" fill="#221F51"/>
<path d="M143.364 36.7244L138.221 32.3767L144.27 25.2354L149.34 29.5276L148.6 30.4156L144.548 26.9744L142.735 29.1205L146.361 32.1917L145.621 33.0797L141.995 30.0086L139.997 32.3582L144.122 35.8549L143.364 36.7244ZM138.48 32.3397L143.345 36.4469L143.845 35.8549L139.719 32.3582L141.958 29.7311L145.584 32.8022L146.102 32.2102L142.476 29.139L144.53 26.7154L148.581 30.1566L149.081 29.5646L144.289 25.5129L138.48 32.3397Z" fill="#221F51"/>
<path d="M152.78 41.7204L151.411 45.3095L150.56 44.329L152.133 40.3143L150.338 38.2607L147.452 40.7768L146.693 39.9073L153.631 33.876L156.295 36.9286C156.702 37.3912 156.98 37.8722 157.128 38.3902C157.276 38.9082 157.294 39.3892 157.183 39.8703C157.054 40.3513 156.795 40.7583 156.388 41.1098C155.833 41.5909 155.204 41.8129 154.519 41.7574C153.835 41.7019 153.206 41.3873 152.595 40.8508C152.817 41.1468 152.873 41.4428 152.78 41.7204ZM152.891 39.7408C153.298 40.2218 153.761 40.4993 154.26 40.5918C154.76 40.6843 155.204 40.5548 155.611 40.2033C155.999 39.8518 156.184 39.4262 156.166 38.9267C156.147 38.4272 155.925 37.9277 155.518 37.4651L153.668 35.3375L151.041 37.6317L152.891 39.7408Z" fill="#221F51"/>
<path d="M151.449 45.4942L150.468 44.3472L152.041 40.3325L150.339 38.3899L147.453 40.906L146.564 39.907L153.632 33.7646L156.351 36.8913C156.777 37.3723 157.054 37.8534 157.202 38.3899C157.35 38.9264 157.369 39.4259 157.258 39.907C157.128 40.4065 156.851 40.832 156.425 41.202C155.852 41.7015 155.204 41.9236 154.483 41.868C153.928 41.831 153.391 41.609 152.855 41.2205C152.91 41.4055 152.91 41.5905 152.855 41.7755L151.449 45.4942ZM150.672 44.3102L151.375 45.1242L152.688 41.683C152.781 41.424 152.707 41.165 152.522 40.906L152.189 40.4435L150.672 44.3102ZM152.207 40.388L152.651 40.7765C153.262 41.313 153.872 41.609 154.52 41.6645C155.167 41.72 155.778 41.5165 156.314 41.0355C156.703 40.7025 156.962 40.314 157.073 39.8515C157.184 39.3889 157.165 38.9264 157.017 38.4269C156.869 37.9274 156.61 37.4648 156.203 37.0023L153.595 34.0237L146.805 39.9255L147.434 40.647L150.32 38.1309L152.207 40.2955V40.388ZM154.557 40.721C154.446 40.721 154.335 40.7025 154.224 40.684C153.687 40.5915 153.206 40.2955 152.799 39.796L150.894 37.6128L153.65 35.2077L155.556 37.4093C155.981 37.8904 156.203 38.4084 156.222 38.9264C156.24 39.4444 156.037 39.907 155.63 40.277C155.334 40.573 154.964 40.721 154.557 40.721ZM151.171 37.6498L152.966 39.6849C153.354 40.129 153.798 40.4065 154.279 40.499C154.742 40.5915 155.167 40.462 155.556 40.129C155.926 39.796 156.092 39.4074 156.074 38.9264C156.055 38.4454 155.833 37.9644 155.445 37.5203L153.65 35.4667L151.171 37.6498Z" fill="#221F51"/>
<path d="M155.148 49.4905C155.204 48.695 155.555 47.992 156.222 47.3999L156.814 48.325C156.388 48.769 156.148 49.2685 156.11 49.805C156.073 50.3416 156.259 50.9151 156.629 51.5071C156.999 52.0807 157.424 52.4692 157.924 52.6542C158.423 52.8392 158.886 52.8022 159.33 52.5247C159.718 52.2842 159.959 51.9882 160.051 51.6366C160.144 51.2851 160.088 50.8596 159.903 50.3601L159.126 48.2695C158.867 47.6034 158.793 47.0114 158.904 46.5304C159.015 46.0494 159.348 45.6423 159.885 45.2908C160.329 45.0133 160.773 44.9208 161.254 44.9763C161.716 45.0503 162.179 45.2353 162.604 45.5868C163.03 45.9384 163.418 46.3454 163.733 46.8634C164.232 47.6589 164.454 48.4175 164.399 49.139C164.343 49.8606 164.01 50.4711 163.381 51.0076L162.789 50.0826C163.196 49.7125 163.4 49.287 163.418 48.806C163.437 48.325 163.289 47.8439 162.956 47.3259C162.604 46.7709 162.216 46.3824 161.772 46.1789C161.328 45.9754 160.921 45.9939 160.532 46.2344C160.199 46.4564 159.977 46.6969 159.903 46.9929C159.829 47.2889 159.885 47.6404 160.051 48.0845L160.884 50.2676C161.161 50.9891 161.235 51.5996 161.087 52.1177C160.958 52.6357 160.606 53.0612 160.014 53.4312C159.533 53.7272 159.052 53.8567 158.534 53.8382C158.016 53.8012 157.535 53.6347 157.054 53.3017C156.592 52.9872 156.185 52.5432 155.833 51.9882C155.333 51.1186 155.093 50.2861 155.148 49.4905Z" fill="#221F51"/>
<path d="M158.626 53.9309C158.589 53.9309 158.552 53.9309 158.534 53.9309C157.979 53.8939 157.479 53.7089 156.998 53.3759C156.536 53.0614 156.11 52.6174 155.759 52.0438C155.241 51.1373 155 50.2863 155.056 49.4907C155.111 48.6582 155.481 47.9366 156.166 47.3446L156.24 47.2706L156.924 48.3437L156.869 48.3992C156.462 48.8247 156.221 49.3057 156.184 49.8237C156.147 50.3233 156.314 50.8783 156.684 51.4703C157.054 52.0438 157.461 52.3954 157.923 52.5804C158.404 52.7654 158.83 52.7099 159.255 52.4509C159.625 52.2288 159.847 51.9513 159.94 51.6183C160.032 51.2853 159.977 50.8968 159.792 50.3973L159.015 48.3067C158.756 47.6221 158.682 47.0301 158.793 46.5121C158.904 46.0125 159.237 45.587 159.81 45.217C160.254 44.9395 160.735 44.8285 161.235 44.884C161.753 44.9765 162.234 45.18 162.641 45.513C163.122 45.92 163.492 46.3456 163.788 46.8081C164.288 47.6221 164.528 48.3992 164.473 49.1392C164.417 49.8792 164.066 50.5083 163.418 51.0633L163.344 51.1373L162.66 50.0642L162.715 50.0087C163.104 49.6572 163.289 49.2687 163.307 48.8062C163.326 48.3437 163.178 47.8811 162.863 47.3816C162.512 46.8266 162.142 46.4566 161.716 46.2716C161.309 46.0866 160.92 46.1051 160.569 46.3271C160.236 46.5491 160.051 46.7711 159.977 47.0301C159.903 47.2891 159.958 47.6221 160.125 48.0661L160.957 50.2493C161.253 51.0078 161.309 51.6183 161.161 52.1549C161.031 52.6914 160.661 53.1354 160.051 53.5239C159.588 53.7829 159.126 53.9309 158.626 53.9309ZM156.203 47.5481C155.611 48.1031 155.296 48.7507 155.241 49.5092C155.185 50.2678 155.407 51.0818 155.907 51.9513C156.258 52.5064 156.647 52.9319 157.091 53.2279C157.535 53.5424 158.016 53.7089 158.515 53.7459C159.015 53.7644 159.477 53.6349 159.94 53.3574C160.513 53.0059 160.846 52.5804 160.976 52.0993C161.124 51.5998 161.05 51.0263 160.772 50.3048L159.94 48.1217C159.755 47.6406 159.718 47.2891 159.792 46.9746C159.866 46.6786 160.088 46.4196 160.458 46.1605C160.883 45.9015 161.309 45.883 161.79 46.105C162.234 46.3086 162.641 46.6971 163.011 47.2891C163.344 47.8256 163.511 48.3252 163.492 48.8247C163.474 49.3057 163.27 49.7497 162.9 50.1197L163.4 50.8968C163.955 50.3973 164.251 49.8237 164.306 49.1577C164.362 48.4547 164.14 47.7146 163.659 46.9376C163.381 46.4751 163.011 46.068 162.549 45.6795C162.16 45.365 161.735 45.1615 161.235 45.0875C160.754 45.032 160.347 45.1245 159.94 45.3835C159.403 45.735 159.107 46.1235 158.996 46.5676C158.885 47.0301 158.959 47.6036 159.218 48.2512L159.995 50.3418C160.199 50.8783 160.236 51.3038 160.143 51.6738C160.051 52.0438 159.792 52.3584 159.385 52.6174C158.922 52.9134 158.441 52.9504 157.905 52.7469C157.387 52.5619 156.961 52.1733 156.573 51.5628C156.184 50.9338 155.999 50.3418 156.036 49.8052C156.073 49.2687 156.295 48.7692 156.721 48.3252L156.203 47.5481Z" fill="#221F51"/>
<path d="M168.765 56.3359L160.477 60.258L159.978 59.222L168.266 55.2998L168.765 56.3359Z" fill="#221F51"/>
<path d="M160.421 60.3872L159.848 59.1847L168.321 55.1885L168.895 56.391L160.421 60.3872ZM160.088 59.2772L160.514 60.1467L168.636 56.317L168.21 55.4475L160.088 59.2772Z" fill="#221F51"/>
<path d="M171.467 65.9192L163.696 68.5093L163.326 67.4177L171.097 64.8276L170.135 61.9415L171.078 61.627L173.372 68.4908L172.429 68.8053L171.467 65.9192Z" fill="#221F51"/>
<path d="M172.373 68.916L171.411 66.0299L163.659 68.62L163.233 67.3619L171.004 64.7718L170.042 61.8856L171.152 61.5156L173.501 68.546L172.373 68.916ZM171.522 65.7893L172.484 68.6755L173.242 68.4165L171.004 61.7376L170.245 61.9967L171.207 64.8828L163.455 67.4729L163.77 68.3795L171.522 65.7893Z" fill="#221F51"/>
<path d="M166.879 82.293L165.731 75.8176L174.76 74.2266L175.888 80.6094L174.926 80.7759L174.001 75.5401L171.06 76.0582L171.874 80.7204L170.912 80.8869L170.098 76.2247L166.86 76.7982L167.804 82.1265L166.879 82.293Z" fill="#221F51"/>
<path d="M166.804 82.3851L166.786 82.2926L165.62 75.7248L174.834 74.0967L175.999 80.646L174.852 80.8495L173.927 75.6138L171.17 76.0948L171.984 80.757L170.837 80.9605L170.023 76.2983L166.971 76.8348L167.914 82.1631L166.804 82.3851ZM165.842 75.8913L166.952 82.1816L167.711 82.0521L166.767 76.7238L170.19 76.1133L171.004 80.7755L171.781 80.646L170.967 75.9838L174.094 75.4287L175.019 80.6645L175.796 80.535L174.704 74.3372L165.842 75.8913Z" fill="#221F51"/>
<path d="M175.592 90.3588L167.415 90.5808L167.378 89.4338L175.555 89.2118L175.481 86.1591L176.48 86.1406L176.665 93.3745L175.666 93.393L175.592 90.3588Z" fill="#221F51"/>
<path d="M175.592 93.4852L175.518 90.4511L167.341 90.6731L167.304 89.341L175.5 89.119L175.426 86.0663L176.61 86.0479L176.795 93.4667L175.592 93.4852ZM175.685 90.2661L175.759 93.3002L176.573 93.2817L176.388 86.2329L175.574 86.2514L175.648 89.304L167.47 89.526L167.507 90.4881L175.685 90.2661Z" fill="#221F51"/>
<path d="M176.203 100.294L167.063 99.4615L167.174 98.3145L176.314 99.147L176.203 100.294Z" fill="#221F51"/>
<path d="M176.295 100.386L166.971 99.5352L167.1 98.2031L176.425 99.0542L176.295 100.386ZM167.156 99.3687L176.11 100.183L176.203 99.2207L167.248 98.4066L167.156 99.3687Z" fill="#221F51"/>
<path d="M90.4512 172.225C90.4512 172.539 90.4512 172.835 90.4512 173.15C90.4512 173.834 90.0072 174.056 89.4337 174.075C88.8601 174.093 88.3976 173.871 88.3791 173.205C88.3606 172.521 88.3606 171.855 88.3791 171.17C88.3976 170.486 88.8786 170.264 89.4337 170.282C89.9887 170.301 90.4697 170.523 90.4512 171.207C90.4512 171.559 90.4512 171.892 90.4512 172.225Z" fill="#221F51"/>
<path d="M110.654 151.023C117.832 148.081 123.864 143.585 128.822 137.665C129.599 136.74 130.321 135.759 131.172 134.668C127.157 134.668 123.383 134.668 119.609 134.649C119.146 134.649 119.054 134.908 118.943 135.241C117.98 138.072 116.759 140.792 115.39 143.437C114.021 146.101 112.264 148.507 110.543 150.912C110.469 150.93 110.377 150.949 110.432 151.06C110.451 151.078 110.58 151.041 110.654 151.023ZM73.8743 151.023C73.9483 151.041 74.0778 151.097 74.0963 151.06C74.1703 150.949 74.0778 150.93 73.9853 150.912C73.9668 150.856 73.9668 150.782 73.9298 150.745C70.1741 146.175 67.584 140.977 65.6784 135.426C65.4564 134.816 65.1604 134.649 64.5498 134.668C61.0902 134.705 57.649 134.686 54.2078 134.686C54.0043 134.686 53.7823 134.575 53.6158 134.797C53.5788 135.019 53.7453 135.149 53.8378 135.278C57.316 140.07 61.5527 144.029 66.5294 147.211C68.842 148.71 71.2842 150.024 73.8743 151.023ZM131.523 96.482C131.893 96.371 132.171 96.2785 132.467 96.2045C135.279 95.4089 137.036 93.5588 137.647 90.7467C138.313 87.657 138.294 84.5119 137.721 81.4037C137.11 78.1106 135.149 76.0385 131.838 75.3169C130.987 75.1319 130.136 74.9839 129.266 74.9839C121.921 74.9654 114.613 74.9654 107.268 74.9654C106.658 74.9654 106.232 75.1874 105.936 75.761C105.178 77.2225 104.364 78.6841 103.587 80.1272C100.072 86.695 96.5564 93.2258 93.0412 99.7936C92.8747 100.127 92.7822 100.571 92.2272 100.534C91.7462 100.497 91.6722 100.108 91.5057 99.7936C87.1764 91.8752 82.8657 83.9384 78.555 76.0015C78.1295 75.2244 77.593 74.9469 76.7049 74.9469C70.0816 74.9839 63.4768 74.9654 56.8349 74.9654C55.7619 74.9654 54.6888 75.0394 53.6158 75.1874C49.5456 75.724 46.9369 77.8701 45.9379 81.4962C45.5124 83.0503 45.3274 84.6414 45.3089 86.2325C45.2534 89.2851 45.2719 92.3378 45.2904 95.3719C45.2904 97.1295 45.4569 98.8871 45.8824 100.589C46.6409 103.605 48.3985 105.751 51.4512 106.676C53.0238 107.157 54.6518 107.342 56.2799 107.361C62.3852 107.379 68.472 107.379 74.5773 107.361C75.6689 107.361 75.9279 107.102 75.9279 105.991C75.9464 104.752 75.9279 103.531 75.9279 102.291C75.9279 100.904 75.7059 100.7 74.3183 100.7C68.583 100.7 62.8662 100.7 57.131 100.7C56.2984 100.7 55.4659 100.663 54.6518 100.478C53.1903 100.127 52.2652 99.2201 51.9877 97.74C51.8212 96.8335 51.7287 95.927 51.6732 95.0019C51.6362 94.2249 51.7842 93.9659 52.6537 93.9659C59.8136 94.0029 66.9364 93.9844 74.0963 93.9844C75.4654 93.9844 75.7614 93.6883 75.7614 92.3008C75.7614 91.3757 75.7614 90.4507 75.7614 89.5256C75.7429 88.3786 75.4284 88.0456 74.2628 88.0456C70.6551 88.0456 67.0474 88.0456 63.4583 88.0456C59.7951 88.0456 56.1134 88.0271 52.4687 88.0641C51.8582 88.0641 51.6732 87.9161 51.6917 87.287C51.7287 86.362 51.8212 85.4369 52.0062 84.5489C52.2652 83.2538 53.0422 82.3473 54.3558 81.9588C55.2624 81.6997 56.1689 81.6442 57.094 81.6442C62.3297 81.6442 67.5655 81.6628 72.8012 81.6257C73.3933 81.6257 73.7078 81.7923 74.0038 82.3473C77.9445 89.5441 81.9407 96.704 85.8629 103.919C87.1579 106.287 88.971 107.583 91.7277 107.379C92.1532 107.342 92.5972 107.342 93.0227 107.379C95.7794 107.657 97.537 106.306 98.795 103.956C102.699 96.704 106.676 89.5071 110.599 82.2548C110.876 81.7368 111.191 81.5147 111.801 81.5332C115.446 81.5702 119.072 81.5517 122.698 81.5517C124.4 81.5517 126.084 81.5332 127.786 81.6257C129.655 81.7368 130.728 82.8468 130.82 84.6969C130.876 85.8625 130.876 87.0465 130.82 88.2121C130.728 90.0252 129.655 91.0982 127.86 91.2832C127.249 91.3387 126.62 91.3572 126.01 91.3572C121.107 91.3572 116.223 91.3757 111.32 91.3387C110.469 91.3387 110.284 91.5792 110.321 92.3563C110.395 93.6698 110.377 95.0019 110.321 96.334C110.284 97.037 110.469 97.259 111.209 97.259C115.224 97.222 119.202 97.259 123.216 97.222C123.845 97.222 124.215 97.4255 124.585 97.925C126.713 100.83 128.859 103.697 131.005 106.565C131.283 106.935 131.542 107.342 132.078 107.342C134.169 107.361 136.278 107.379 138.368 107.342C139.127 107.324 139.405 106.676 138.997 106.028C138.886 105.843 138.738 105.695 138.609 105.51C136.278 102.513 133.928 99.5531 131.523 96.482ZM63.4398 70.5622C69.3046 70.5622 75.1323 70.5622 80.9971 70.5437C81.8852 70.5437 82.6807 70.6917 83.5133 71.0247C85.4559 71.7833 87.1579 72.9303 88.786 74.2069C91.3577 76.2235 93.9663 75.6499 96.2789 74.1514C97.4815 73.3743 98.647 72.5233 99.8681 71.7648C101.311 70.8582 102.847 70.5252 104.586 70.5252C115.945 70.5807 127.323 70.5622 138.683 70.5622C138.924 70.5622 139.183 70.5437 139.423 70.5622C139.978 70.5992 140.2 70.3217 140.2 69.7852C140.2 68.9526 140.145 68.1201 140.219 67.2875C140.293 66.381 139.923 66.122 139.053 66.1405C135.76 66.1775 132.448 66.1405 129.174 66.1775C128.526 66.1775 128.341 66.011 128.359 65.3634C128.415 64.1979 128.396 63.0138 128.359 61.8483C128.341 61.3857 128.47 61.1637 128.914 60.9417C129.969 60.4237 130.358 59.4247 130.043 58.2961C129.766 57.26 128.933 56.631 127.767 56.6865C127.286 56.705 127.064 56.557 126.824 56.1685C124.086 51.6173 121.329 47.0845 118.591 42.5333C118.387 42.1818 118.313 41.9413 118.554 41.5528C119.146 40.5352 118.998 39.5177 118.276 38.7406C117.573 38.0191 116.574 37.8526 115.557 38.3706C115.242 38.5371 115.02 38.5556 114.743 38.3336C112.504 36.7425 110.266 35.1699 108.027 33.5789C107.731 33.3754 107.601 33.1348 107.638 32.7278C107.731 31.5068 107.305 30.7482 106.362 30.3042C105.455 29.8787 104.493 30.0822 103.679 30.9147C103.365 31.2293 103.106 31.2847 102.699 31.1737C101.663 30.8777 100.627 30.6187 99.5721 30.3782C99.128 30.2672 98.869 30.1192 98.758 29.5827C98.5175 28.5096 97.722 27.9361 96.7229 27.8806C95.6684 27.8251 94.8913 28.2691 94.5028 29.3237C94.3178 29.8232 94.0033 29.8417 93.5963 29.8787C90.7656 30.1007 87.9535 30.3042 85.1413 30.5817C84.4753 30.6372 84.0313 30.5817 83.6058 29.9712C83.0137 29.1016 81.9962 28.8611 81.0711 29.1941C80.1831 29.5087 79.5171 30.3412 79.5726 31.3033C79.6096 31.9138 79.3506 32.1728 78.888 32.4318C75.3174 34.4299 71.7652 36.4465 68.213 38.4631C67.8615 38.6666 67.6395 38.7221 67.251 38.4631C66.2704 37.8156 65.1418 37.9451 64.3833 38.7221C63.6248 39.4807 63.5138 40.5907 64.1428 41.5898C64.3648 41.9598 64.3833 42.2373 64.1798 42.6073C62.0707 46.363 59.9801 50.1187 57.8895 53.8559C57.686 54.2259 57.5195 54.4479 57.0015 54.4294C55.8174 54.3554 54.9849 55.0399 54.6888 56.15C54.4298 57.1305 54.8923 58.2221 55.8729 58.7031C56.3169 58.9251 56.4279 59.1656 56.4094 59.6282C56.3909 61.4412 56.3539 63.2728 56.4279 65.0859C56.4649 65.974 56.2799 66.2885 55.2994 66.27C52.0247 66.196 48.7685 66.2515 45.5124 66.233C44.7168 66.233 44.3653 66.4735 44.4393 67.2875C44.4948 67.8611 44.4578 68.4531 44.4578 69.0451C44.4578 70.5807 44.4578 70.5807 45.9379 70.5807C51.7287 70.5622 57.575 70.5622 63.4398 70.5622ZM78.3145 111.69C74.9473 111.69 71.5987 111.708 68.25 111.671C67.5285 111.671 67.3065 111.819 67.362 112.578C67.658 117.814 68.3425 122.975 69.6746 128.045C69.8226 128.618 70.0076 128.766 70.5811 128.766C76.5569 128.748 82.5142 128.748 88.49 128.766C89.23 128.766 89.3225 128.507 89.3225 127.86C89.304 122.753 89.2855 117.647 89.3225 112.541C89.3225 111.764 89.0635 111.653 88.379 111.653C85.0118 111.708 81.6447 111.69 78.3145 111.69ZM104.937 128.766C107.342 128.766 109.748 128.766 112.153 128.766C114.835 128.766 114.78 128.766 115.353 126.102C116.315 121.606 116.907 117.074 117.166 112.485C117.203 111.819 117.055 111.653 116.389 111.653C109.581 111.671 102.791 111.671 95.9644 111.653C95.3908 111.653 95.1688 111.764 95.1873 112.393C95.2243 117.61 95.2243 122.79 95.1873 128.008C95.1873 128.655 95.4093 128.748 95.9644 128.748C98.9615 128.766 101.959 128.785 104.937 128.766ZM120.885 128.766C125.418 128.766 129.803 128.766 134.206 128.766C134.52 128.766 134.668 128.655 134.816 128.341C137.24 123.29 138.664 117.999 139.201 112.43C139.257 111.819 139.053 111.653 138.461 111.653C133.595 111.671 128.748 111.671 123.882 111.653C123.309 111.653 123.105 111.764 123.068 112.393C122.846 117.888 122.18 123.308 120.885 128.766ZM53.4308 111.69C50.9701 111.69 48.491 111.708 46.0304 111.671C45.4014 111.671 45.2719 111.856 45.3274 112.448C45.7714 117.388 47.0665 122.087 48.898 126.694C49.5271 128.285 50.3226 128.896 52.1172 128.803C55.7064 128.618 59.3326 128.748 62.9217 128.729C63.1623 128.729 63.7543 129.044 63.5693 128.267C62.2742 123.049 61.7007 117.74 61.4787 112.374C61.4417 111.727 61.2012 111.634 60.6646 111.653C58.241 111.708 55.8359 111.69 53.4308 111.69ZM71.8577 134.705C71.8577 134.816 71.8207 134.871 71.8392 134.927C73.5968 139.46 75.8354 143.696 78.9805 147.433C81.5522 150.468 84.5493 152.91 88.3975 154.131C89.1745 154.371 89.304 154.205 89.304 153.446C89.267 147.47 89.2855 141.513 89.304 135.519C89.304 134.834 89.156 134.631 88.453 134.649C83.1247 134.686 77.815 134.668 72.4682 134.668C72.2647 134.668 72.0612 134.686 71.8577 134.705ZM95.2243 144.566C95.2243 147.582 95.2428 150.597 95.2058 153.594C95.2058 154.279 95.3723 154.353 95.9829 154.168C98.3695 153.428 100.497 152.225 102.384 150.597C107.194 146.453 110.173 141.106 112.523 135.334C112.745 134.797 112.597 134.649 112.023 134.649C106.639 134.668 101.256 134.668 95.8719 134.649C95.2428 134.649 95.1873 134.908 95.1873 135.426C95.2428 138.479 95.2243 141.513 95.2243 144.566Z" fill="#221F51"/>
<path d="M131.523 96.4823C133.928 99.535 136.278 102.532 138.628 105.492C138.757 105.659 138.905 105.825 139.016 106.01C139.423 106.658 139.146 107.305 138.387 107.324C136.296 107.361 134.187 107.324 132.097 107.324C131.56 107.324 131.301 106.935 131.024 106.547C128.878 103.661 126.731 100.775 124.604 97.9069C124.252 97.4259 123.882 97.2039 123.235 97.2039C119.22 97.2409 115.242 97.2039 111.228 97.2409C110.488 97.2409 110.303 97.0189 110.34 96.3158C110.395 94.9838 110.414 93.6702 110.34 92.3381C110.303 91.5426 110.488 91.3021 111.339 91.3206C116.241 91.3761 121.126 91.3391 126.028 91.3391C126.639 91.3391 127.268 91.3206 127.879 91.2651C129.673 91.0801 130.746 90.007 130.839 88.1939C130.894 87.0284 130.894 85.8443 130.839 84.6787C130.746 82.8287 129.673 81.7186 127.805 81.6076C126.121 81.4966 124.419 81.5336 122.717 81.5336C119.072 81.5151 115.446 81.5521 111.82 81.5151C111.209 81.5151 110.895 81.7186 110.617 82.2366C106.676 89.4705 102.717 96.6858 98.8136 103.938C97.5555 106.288 95.798 107.62 93.0413 107.361C92.6158 107.324 92.1718 107.324 91.7463 107.361C88.9896 107.564 87.1765 106.269 85.8815 103.901C81.9593 96.6858 77.9631 89.526 74.0224 82.3291C73.7264 81.7741 73.4119 81.6076 72.8198 81.6076C67.5841 81.6261 62.3483 81.6261 57.1125 81.6261C56.1875 81.6261 55.2625 81.6816 54.3744 81.9406C53.0608 82.3291 52.3023 83.2357 52.0248 84.5307C51.8398 85.4373 51.7473 86.3438 51.7103 87.2689C51.6918 87.8979 51.8768 88.0459 52.4873 88.0459C56.1505 88.0274 59.8322 88.0274 63.4769 88.0274C67.0845 88.0274 70.6922 88.0274 74.2814 88.0274C75.4469 88.0274 75.7615 88.3419 75.78 89.5075C75.7985 90.4325 75.78 91.3576 75.78 92.2826C75.78 93.6887 75.484 93.9662 74.1149 93.9662C66.955 93.9662 59.8322 93.9847 52.6723 93.9477C51.8028 93.9477 51.6548 94.2067 51.6918 94.9838C51.7473 95.9088 51.8213 96.8338 52.0063 97.7219C52.2838 99.202 53.2088 100.109 54.6704 100.46C55.4845 100.645 56.317 100.682 57.1495 100.682C62.8848 100.682 68.6016 100.682 74.3369 100.682C75.7245 100.682 75.9465 100.886 75.9465 102.273C75.9465 103.513 75.965 104.734 75.9465 105.973C75.928 107.102 75.6875 107.342 74.5959 107.342C68.4906 107.342 62.4038 107.342 56.2985 107.342C54.6519 107.342 53.0423 107.139 51.4698 106.658C48.3986 105.733 46.6595 103.587 45.901 100.571C45.4755 98.8689 45.309 97.1114 45.309 95.3538C45.309 92.3011 45.272 89.2485 45.3275 86.2143C45.3645 84.6232 45.531 83.0322 45.9565 81.4781C46.937 77.8889 49.5272 75.7243 53.5974 75.1878C54.6704 75.0398 55.7435 74.9658 56.8165 74.9658C63.4399 74.9658 70.0447 74.9843 76.6865 74.9473C77.556 74.9473 78.1111 75.2063 78.5366 76.0018C82.8473 83.9387 87.158 91.8756 91.4872 99.794C91.6537 100.108 91.7278 100.497 92.2088 100.534C92.7638 100.571 92.8563 100.108 93.0228 99.794C96.5565 93.2447 100.072 86.6953 103.568 80.1275C104.345 78.6659 105.159 77.2229 105.918 75.7613C106.214 75.1878 106.639 74.9658 107.25 74.9658C114.595 74.9843 121.903 74.9843 129.248 74.9843C130.117 74.9843 130.968 75.1323 131.819 75.3173C135.131 76.0388 137.092 78.1109 137.703 81.4041C138.276 84.5122 138.295 87.6574 137.629 90.747C137.018 93.5592 135.26 95.4093 132.448 96.2048C132.171 96.2973 131.893 96.3713 131.523 96.4823Z" fill="white"/>
<path d="M63.4396 70.5444C57.5748 70.5444 51.747 70.5444 45.8822 70.5444C44.4022 70.5444 44.4022 70.5444 44.4022 69.0088C44.4022 68.4168 44.4392 67.8248 44.3837 67.2513C44.3097 66.4187 44.6612 66.1782 45.4567 66.1967C48.7314 66.2337 51.9875 66.1597 55.2437 66.2337C56.2243 66.2522 56.4093 65.9377 56.3723 65.0496C56.4093 63.1441 56.4093 61.479 56.3538 59.5919C56.3353 59.1479 56.2613 58.8888 55.8172 58.6668C54.8182 58.1858 54.3742 57.0942 54.6332 56.1137C54.9292 55.0036 55.7617 54.3376 56.9458 54.3931C57.4638 54.4301 57.6303 54.2081 57.8338 53.8196C59.9244 50.0639 62.015 46.3082 64.1241 42.571C64.3277 42.201 64.3092 41.9235 64.0871 41.5535C63.4581 40.5544 63.5876 39.4444 64.3277 38.6858C65.0862 37.9273 66.2147 37.7793 67.1953 38.4268C67.5838 38.6858 67.8243 38.6118 68.1573 38.4268C71.7095 36.4102 75.2802 34.3936 78.8324 32.3955C79.2949 32.1365 79.5539 31.896 79.5169 31.267C79.4614 30.3049 80.1089 29.4724 81.0155 29.1579C81.9405 28.8249 82.9581 29.0654 83.5501 29.9349C83.9571 30.5639 84.4197 30.6194 85.0857 30.5454C87.8978 30.2864 90.7285 30.0644 93.5406 29.8424C93.9476 29.8054 94.2621 29.8054 94.4471 29.2874C94.8357 28.2513 95.6127 27.7888 96.6673 27.8443C97.6848 27.8998 98.4619 28.4733 98.7024 29.5464C98.8319 30.0829 99.0724 30.2309 99.5164 30.3419C100.571 30.6009 101.607 30.8599 102.643 31.1375C103.05 31.2485 103.309 31.2115 103.624 30.8785C104.438 30.0459 105.4 29.8609 106.306 30.2679C107.25 30.7119 107.694 31.452 107.583 32.6915C107.546 33.0986 107.675 33.3206 107.971 33.5426C110.21 35.1152 112.449 36.7062 114.687 38.2973C114.983 38.5008 115.187 38.4823 115.501 38.3343C116.519 37.8163 117.518 37.9828 118.221 38.7043C118.961 39.4629 119.109 40.4989 118.498 41.5165C118.258 41.9235 118.332 42.164 118.535 42.497C121.292 47.0483 124.049 51.581 126.768 56.1322C127.009 56.5207 127.231 56.6687 127.712 56.6502C128.877 56.5947 129.71 57.2238 129.987 58.2598C130.283 59.3884 129.895 60.3689 128.859 60.9054C128.415 61.1274 128.304 61.3495 128.304 61.812C128.304 62.959 128.304 64.0691 128.304 65.3272C128.267 65.9747 128.47 66.1597 129.118 66.1412C132.411 66.1042 135.723 66.1597 138.997 66.1042C139.867 66.0857 140.237 66.3447 140.163 67.2513C140.089 68.0838 140.144 68.9163 140.144 69.7489C140.144 70.2854 139.922 70.5629 139.367 70.5259C139.127 70.5074 138.868 70.5259 138.627 70.5259C127.268 70.5259 115.89 70.5629 104.53 70.4889C102.791 70.4704 101.255 70.8219 99.8124 71.7285C98.5914 72.487 97.4258 73.3381 96.2232 74.1151C93.9106 75.6137 91.2835 76.1872 88.7304 74.1706C87.1208 72.894 85.4002 71.747 83.4576 70.9884C82.6436 70.6739 81.8295 70.5074 80.9415 70.5074C75.1322 70.5444 69.2859 70.5444 63.4396 70.5444ZM58.6479 54.8371C62.7366 52.2285 66.8253 49.6199 70.914 47.0113C71.099 46.9002 71.21 46.7522 71.21 46.4932C71.2285 45.5312 72.1165 45.5682 71.1915 44.8281C70.8215 44.6431 69.1564 43.3481 68.7309 43.0521C68.0463 42.608 67.3433 41.868 66.3443 42.497C66.1777 42.5895 65.9187 42.5895 65.7152 42.5525C65.3267 42.46 65.1602 42.645 64.9937 42.9411C62.8291 46.8632 60.6645 50.7854 58.4999 54.6891C58.4444 54.7631 58.4259 54.8556 58.5184 54.9111C58.5369 54.9666 58.6109 54.8741 58.6479 54.8371ZM75.3542 44.0141C75.4652 43.9586 75.5762 43.9216 75.6872 43.8476C81.8295 39.6294 87.9533 35.4482 94.0956 31.23C94.2251 31.1375 94.3546 31.045 94.2436 30.8414C91.043 31.082 87.8238 31.341 84.6232 31.5815C84.2531 31.6185 84.0681 31.7665 83.9201 32.1365C83.6056 32.9135 82.9951 33.5981 82.1255 33.5056C81.0895 33.3946 80.812 34.0236 80.4419 34.6896C80.3309 34.9116 80.2014 35.1152 80.0719 35.3372C78.4623 38.2048 76.8528 41.0539 75.2432 43.9031C75.1692 43.9216 75.0952 43.9586 75.1692 44.0511C75.1877 44.0881 75.2987 44.0326 75.3542 44.0141ZM98.2398 42.46C97.1298 42.645 95.9457 42.8485 94.7617 43.0336C88.6749 44.0141 82.6251 45.0132 76.5383 45.9937C76.1127 46.0677 75.7057 46.0492 75.5207 46.6782C75.3357 47.3258 75.8167 47.4183 76.0942 47.6773C76.5198 48.1213 77.0193 48.4913 77.4818 48.8983C81.626 52.543 85.7332 56.1692 89.8774 59.7954C90.9135 60.7019 92.3195 60.3874 92.8376 59.1479C93.7071 57.1128 94.5767 55.0777 95.4462 53.0425C96.7228 50.0084 97.9993 46.9927 99.2759 43.9771C99.5534 43.3111 98.9984 42.4415 98.2398 42.46ZM64.6607 66.2152C66.8808 66.2152 69.1009 66.2152 71.321 66.2152C71.802 66.2152 72.135 66.1782 72.1535 65.5492C72.357 59.9619 72.5791 54.3746 72.8196 48.7873C72.8381 48.3248 72.6531 48.1583 72.3015 47.9548C71.95 47.7328 71.691 47.6958 71.321 47.9363C67.3618 50.4894 63.4211 53.0426 59.4619 55.5772C59.0919 55.8177 59.0364 56.0397 59.0919 56.4652C59.2029 57.4273 58.8144 58.2598 57.9078 58.6668C57.3898 58.9073 57.3528 59.2034 57.3528 59.6659C57.3713 61.5715 57.3898 63.4956 57.3343 65.4012C57.3158 66.1227 57.5563 66.2522 58.2223 66.2522C60.3685 66.1967 62.5331 66.2152 64.6607 66.2152ZM73.0786 65.3457C72.8381 66.0857 73.1896 66.2522 73.9666 66.2337C76.3347 66.1967 78.7214 66.2892 81.0895 66.1967C82.366 66.1412 83.5131 66.4002 84.6417 66.8812C85.0487 67.0662 85.3077 67.0107 85.6407 66.7517C86.4918 66.0487 87.3983 65.4012 88.2678 64.6981C89.1374 63.9951 90.3584 63.4771 89.8589 61.9785C89.8404 61.923 89.8589 61.849 89.8959 61.7935C90.0994 61.3495 89.9144 61.0904 89.5629 60.7759C84.7897 56.6132 80.0349 52.4505 75.2802 48.2508C74.9657 47.9733 74.7067 47.9178 74.2997 48.0843C73.8741 48.2508 73.8556 48.5098 73.8371 48.8613C73.5781 54.3376 73.3376 59.7954 73.0786 65.3457ZM94.2806 61.1089C94.4471 61.0534 94.6322 60.9979 94.7987 60.9424C101.033 58.9258 107.25 56.9092 113.485 54.9296C114.151 54.7261 114.28 54.3191 114.447 53.7826C114.613 53.2276 114.169 53.0796 113.892 52.839C110.284 49.8789 106.658 46.9187 103.069 43.9771C102.088 43.1631 100.552 43.5331 100.053 44.6986C98.8504 47.5293 97.6663 50.3599 96.4637 53.1721C95.5202 55.4107 94.5581 57.6308 93.6146 59.8694C93.3556 60.5169 93.6886 61.1459 94.2806 61.1089ZM122.217 66.1412C120.589 63.033 118.998 60.0544 117.444 57.0943C117.24 56.7057 116.944 56.6872 116.593 56.7242C115.964 56.7612 115.409 56.5577 115.02 56.0952C114.669 55.7067 114.373 55.6882 113.892 55.8362C107.601 57.8898 101.329 59.9064 95.0392 61.9415C94.7617 62.034 94.3546 61.997 94.3176 62.404C94.2806 62.8665 94.7617 62.8665 95.0392 62.9775C97.6848 63.9766 100.349 64.9571 102.976 65.9377C103.328 66.0672 103.679 66.1782 104.049 66.1782C110.099 66.1412 116.075 66.1412 122.217 66.1412ZM75.7242 45.0317C76.0017 45.0502 76.0942 45.0687 76.1867 45.0501C82.9951 43.9401 89.7849 42.8115 96.5933 41.72C97.6663 41.5535 98.8319 41.572 99.0909 40.1474C99.1094 40.0734 99.2019 39.9994 99.2759 39.9439C99.6089 39.6849 99.5719 39.4259 99.4239 39.0559C98.8134 37.5388 98.2398 36.0217 97.6848 34.4861C97.2963 33.3946 97.0928 32.2845 95.5572 32.118C95.0392 32.0625 94.7062 31.9885 94.2621 32.2845C91.783 34.0051 89.2854 35.6887 86.8063 37.3908C83.1616 39.9254 79.5354 42.423 75.7242 45.0317ZM116.093 47.4368C116.093 46.2712 116.075 45.1057 116.093 43.9216C116.112 43.1446 116.186 42.4045 115.205 42.1085C114.983 42.0345 114.743 41.757 114.65 41.5165C114.465 41.0355 114.151 40.9984 113.707 41.0354C110.395 41.313 107.083 41.572 103.809 41.831C103.476 41.8495 103.161 41.8125 103.013 42.2565C102.865 42.7005 103.198 42.793 103.42 42.978C107.194 46.0862 110.968 49.1759 114.724 52.2655C115.002 52.506 115.205 52.5985 115.612 52.4135C116.019 52.21 116.112 51.988 116.112 51.5625C116.093 50.1934 116.093 48.8243 116.093 47.4368ZM75.9832 40.4989C77.3893 38.0198 78.7954 35.5592 80.2014 33.1171C80.0164 32.932 79.9054 33.0061 79.7944 33.0616C76.0387 35.1892 72.3015 37.3168 68.5829 39.4444C68.0648 39.7404 67.9353 41.2205 68.3979 41.572C69.4339 42.386 70.507 43.1631 71.5615 43.9586C71.7095 44.0696 71.8575 44.2361 72.0425 44.1621M117.296 42.497C117.222 42.534 117.129 42.571 117.055 42.608C117.055 45.6792 117.055 48.7503 117.055 51.8215C117.055 52.1545 117.24 52.247 117.481 52.3395C118.313 52.654 118.776 53.3201 118.85 54.1711C118.905 54.7446 119.164 54.9481 119.645 55.1147C121.551 55.8362 123.42 56.6132 125.325 57.3533C125.566 57.4458 125.843 57.7048 126.084 57.4643C126.417 57.1313 126.01 56.8907 125.88 56.6687C123.808 53.2091 121.717 49.7679 119.627 46.3452C118.813 45.0687 118.054 43.7736 117.296 42.497ZM127.342 62.219C127.194 61.479 127.286 61.0719 126.583 60.7574C125.954 60.4799 125.621 59.8509 125.603 59.1849C125.584 58.6113 125.307 58.4078 124.826 58.2228C122.957 57.5013 121.107 56.7427 119.238 56.0212C118.961 55.9102 118.646 55.5587 118.313 55.8917C117.943 56.2617 118.295 56.5762 118.443 56.8722C119.83 59.4994 121.273 62.108 122.587 64.7721M103.975 40.7949C107.213 40.5359 110.469 40.2954 113.688 40.0364C113.947 40.0179 114.28 40.0734 114.391 39.7404C114.539 39.3149 114.114 39.2409 113.892 39.0929C112.134 37.8533 110.376 36.6137 108.637 35.3557C107.712 34.7081 106.88 33.7831 105.603 34.6156C105.566 34.6526 105.474 34.6526 105.418 34.6341C104.882 34.5231 104.678 34.8376 104.475 35.2817C103.901 36.5027 103.291 37.7053 102.68 38.9078C102.144 40.0549 102.699 40.8689 103.975 40.7949ZM97.8328 32.229C97.8513 32.2845 97.8883 32.34 97.9068 32.3955C98.7394 34.5416 99.5719 36.6877 100.386 38.8338C100.497 39.1299 100.663 39.2594 100.996 39.2964C101.329 39.3334 101.514 39.1854 101.644 38.9078C102.329 37.4648 103.032 36.0402 103.716 34.5971C103.79 34.4491 103.92 34.3196 103.809 34.0976C103.254 32.969 102.699 31.896 101.144 31.859C100.423 31.8405 99.7199 31.5075 99.0169 31.341C98.5914 31.23 97.8328 31.8405 97.8328 32.229ZM101.422 66.3817C98.9614 65.4567 96.6858 64.6241 94.4286 63.7731C94.1326 63.6621 93.9106 63.6806 93.6886 63.9026C93.4666 64.1431 93.5591 64.3281 93.6886 64.5686C94.3361 65.8452 94.9837 67.1403 95.5942 68.4353C95.7607 68.7868 95.8902 68.9903 96.3342 68.7128C97.8513 67.7323 99.5164 67.0477 101.422 66.3817ZM92.6711 71.1179C93.3741 70.8034 94.1326 70.1374 94.8912 69.4899C95.1132 69.3049 94.8727 69.0828 94.7987 68.9163C94.1511 67.6028 93.4666 66.2892 92.8006 64.9756C92.7081 64.7721 92.6156 64.5686 92.3565 64.6056C92.0605 64.6426 92.116 64.9016 92.079 65.1051C91.8015 66.6407 91.5425 68.1763 91.265 69.7304C91.0985 70.5999 91.5425 71.1364 92.6711 71.1179ZM90.2289 69.8414C90.5435 68.0838 90.8395 66.5297 91.1355 64.9571C91.1725 64.7166 91.2095 64.4761 90.9505 64.3096C90.6915 64.1431 90.5064 64.1986 90.2844 64.3651C88.9709 65.4012 87.6388 66.4187 86.2327 67.5103C87.6203 68.2688 88.9524 68.8793 90.2289 69.8414Z" fill="white"/>
<path d="M78.3148 111.69C81.682 111.69 85.0307 111.709 88.3793 111.672C89.0454 111.672 89.3229 111.783 89.3229 112.56C89.2859 117.666 89.2859 122.772 89.3229 127.879C89.3229 128.526 89.2489 128.785 88.4903 128.785C82.5145 128.748 76.5572 128.767 70.5814 128.785C70.0079 128.785 69.8229 128.637 69.6749 128.064C68.3428 122.976 67.6583 117.833 67.3623 112.597C67.3253 111.838 67.5473 111.69 68.2503 111.69C71.599 111.709 74.9477 111.69 78.3148 111.69Z" fill="white"/>
<path d="M104.938 128.766C101.94 128.766 98.9618 128.748 95.9832 128.785C95.4096 128.785 95.1876 128.692 95.2061 128.045C95.2431 122.828 95.2431 117.647 95.2061 112.43C95.2061 111.801 95.4096 111.672 95.9832 111.69C102.792 111.709 109.581 111.709 116.408 111.69C117.074 111.69 117.222 111.857 117.185 112.523C116.926 117.111 116.334 121.644 115.372 126.139C114.799 128.785 114.836 128.803 112.171 128.803C109.748 128.766 107.343 128.766 104.938 128.766Z" fill="white"/>
<path d="M120.885 128.767C122.18 123.309 122.846 117.907 123.049 112.412C123.068 111.783 123.29 111.672 123.863 111.672C128.729 111.69 133.576 111.69 138.442 111.672C139.053 111.672 139.256 111.82 139.182 112.449C138.646 118.018 137.221 123.309 134.797 128.36C134.649 128.656 134.501 128.785 134.187 128.785C129.784 128.767 125.399 128.767 120.885 128.767Z" fill="white"/>
<path d="M53.4304 111.69C55.8355 111.69 58.2406 111.709 60.6457 111.672C61.2007 111.672 61.4413 111.746 61.4598 112.393C61.7003 117.759 62.2553 123.05 63.5504 128.286C63.7354 129.063 63.1618 128.748 62.9028 128.748C59.2952 128.767 55.6875 128.637 52.0983 128.822C50.3037 128.915 49.5082 128.304 48.8791 126.713C47.0475 122.106 45.7525 117.407 45.3085 112.467C45.253 111.875 45.3825 111.672 46.0115 111.69C48.5091 111.727 50.9512 111.69 53.4304 111.69Z" fill="white"/>
<path d="M71.8572 134.705C72.0607 134.686 72.2642 134.668 72.4678 134.668C77.796 134.668 83.1058 134.686 88.4525 134.649C89.1556 134.649 89.3221 134.834 89.3036 135.519C89.2666 141.495 89.2666 147.452 89.3036 153.446C89.3036 154.223 89.1741 154.371 88.397 154.131C84.5303 152.91 81.5332 150.468 78.9801 147.434C75.8349 143.715 73.5963 139.46 71.8387 134.927C71.8202 134.871 71.8387 134.816 71.8572 134.705Z" fill="white"/>
<path d="M95.2246 144.566C95.2246 141.513 95.2431 138.461 95.2061 135.445C95.2061 134.927 95.2615 134.668 95.8906 134.668C101.274 134.686 106.658 134.686 112.042 134.668C112.615 134.668 112.745 134.816 112.541 135.353C110.192 141.125 107.195 146.472 102.403 150.616C100.516 152.244 98.3882 153.446 96.0016 154.186C95.3911 154.371 95.2061 154.297 95.2246 153.613C95.2431 150.579 95.2246 147.582 95.2246 144.566Z" fill="white"/>
<path d="M73.8736 151.023C71.265 150.043 68.8414 148.711 66.5103 147.212C61.5335 144.03 57.2968 140.052 53.8186 135.279C53.7076 135.131 53.5596 135.02 53.5966 134.798C53.7446 134.576 53.9851 134.687 54.1886 134.687C57.6483 134.687 61.0895 134.705 64.5307 134.668C65.1412 134.668 65.4557 134.816 65.6592 135.427C67.5833 140.977 70.1734 146.176 73.9106 150.746C73.9476 150.783 73.9476 150.857 73.9661 150.912C73.9476 150.949 73.9106 150.986 73.8736 151.023Z" fill="white"/>
<path d="M110.562 150.912C112.301 148.488 114.058 146.083 115.409 143.437C116.759 140.773 117.999 138.054 118.961 135.241C119.072 134.908 119.164 134.649 119.627 134.649C123.42 134.668 127.194 134.668 131.19 134.668C130.339 135.759 129.617 136.74 128.84 137.665C123.864 143.604 117.832 148.081 110.673 151.023C110.617 150.986 110.599 150.949 110.562 150.912Z" fill="white"/>
<path d="M110.654 151.023C110.58 151.042 110.451 151.079 110.451 151.06C110.395 150.949 110.488 150.949 110.562 150.912C110.599 150.949 110.617 150.986 110.654 151.023Z" fill="white"/>
<path d="M73.985 150.912C74.059 150.931 74.1515 150.968 74.096 151.06C74.0775 151.079 73.948 151.023 73.874 151.023C73.911 150.986 73.948 150.949 73.985 150.912Z" fill="white"/>
<path d="M98.2397 42.4593C98.9983 42.4408 99.5533 43.3103 99.2758 43.9948C97.9992 47.029 96.7226 50.0631 95.4461 53.0603C94.5765 55.0954 93.707 57.1305 92.8374 59.1656C92.3194 60.4052 90.8948 60.7197 89.8773 59.8131C85.7331 56.1685 81.6259 52.5423 77.4817 48.9161C77.0191 48.5091 76.5381 48.1206 76.0941 47.695C75.8351 47.436 75.3541 47.3435 75.5206 46.696C75.7056 46.067 76.1126 46.0855 76.5381 46.0115C82.6249 45.0124 88.6747 44.0319 94.7615 43.0513C95.9826 42.8478 97.1482 42.6443 98.2397 42.4593Z" fill="#221F51"/>
<path d="M64.6602 66.2337C62.4956 66.2337 60.3495 66.2152 58.1849 66.2522C57.5189 66.2707 57.2784 66.1412 57.2969 65.4012C57.3154 63.5326 57.3339 61.59 57.3154 59.6659C57.3154 59.2034 57.3524 58.9073 57.8704 58.6668C58.7584 58.2598 59.1655 57.4273 59.0545 56.4652C58.999 56.0212 59.0545 55.8177 59.4245 55.5772C63.4022 53.0426 67.3429 50.5079 71.2836 47.9363C71.6536 47.6958 71.9126 47.7328 72.2641 47.9548C72.5971 48.1583 72.8007 48.3248 72.7822 48.7873C72.5416 54.3746 72.3196 59.9619 72.1161 65.5492C72.0976 66.1782 71.7646 66.2152 71.2836 66.2152C69.1005 66.2337 66.8804 66.2337 64.6602 66.2337Z" fill="#221F51"/>
<path d="M73.0787 65.3639C73.3192 59.8136 73.5597 54.3743 73.8002 48.898C73.8187 48.5465 73.8557 48.2875 74.2628 48.121C74.6698 47.9545 74.9103 48.01 75.2433 48.2875C79.9981 52.4872 84.7528 56.6499 89.526 60.8126C89.859 61.1086 90.0626 61.3862 89.859 61.8302C89.8405 61.8857 89.822 61.9597 89.822 62.0152C90.3031 63.5138 89.1005 64.0318 88.231 64.7348C87.3614 65.4194 86.4734 66.0854 85.6038 66.7884C85.2708 67.0474 85.0118 67.1029 84.6048 66.9179C83.4762 66.4184 82.3292 66.1779 81.0526 66.2334C78.6845 66.3444 76.3164 66.2334 73.9298 66.2704C73.2082 66.2704 72.8567 66.0854 73.0787 65.3639Z" fill="#221F51"/>
<path d="M94.2809 61.1275C93.6889 61.146 93.3559 60.5354 93.6334 59.8879C94.5769 57.6493 95.539 55.4292 96.4825 53.1906C97.6851 50.3599 98.8691 47.5293 100.072 44.7172C100.571 43.5516 102.107 43.1816 103.087 43.9956C106.695 46.9558 110.321 49.9159 113.91 52.8576C114.188 53.0981 114.632 53.2461 114.465 53.8011C114.299 54.3376 114.169 54.7262 113.503 54.9482C107.25 56.9093 101.052 58.9444 94.8174 60.961C94.6324 61.0165 94.4659 61.072 94.2809 61.1275Z" fill="#221F51"/>
<path d="M122.217 66.1591C116.075 66.1591 110.099 66.1591 104.086 66.1591C103.716 66.1591 103.364 66.0481 103.013 65.9186C100.367 64.938 97.7032 63.9575 95.0761 62.9584C94.7986 62.8474 94.3176 62.8474 94.3546 62.3849C94.3731 61.9779 94.7986 62.0149 95.0761 61.9224C101.366 59.8873 107.638 57.8522 113.929 55.8171C114.391 55.6691 114.706 55.6876 115.057 56.0761C115.446 56.5386 116.019 56.7421 116.63 56.7051C116.981 56.6866 117.277 56.6866 117.481 57.0751C119.016 60.0723 120.589 63.0509 122.217 66.1591Z" fill="#221F51"/>
<path d="M75.7246 45.0496C79.5173 42.441 83.162 39.9249 86.8067 37.4272C89.2858 35.7252 91.7834 34.0231 94.2625 32.321C94.7066 32.025 95.0396 32.099 95.5576 32.1545C97.0932 32.321 97.2967 33.4311 97.6852 34.5226C98.2402 36.0582 98.8137 37.5753 99.4243 39.0923C99.5723 39.4623 99.6093 39.7214 99.2763 39.9804C99.2023 40.0359 99.1098 40.1099 99.0913 40.1839C98.8323 41.627 97.6667 41.59 96.5937 41.7565C89.7853 42.848 82.9955 43.9766 76.1871 45.0866C76.0946 45.0866 76.0021 45.0681 75.7246 45.0496Z" fill="#221F51"/>
<path d="M116.093 47.4364C116.093 48.824 116.074 50.2116 116.093 51.5806C116.093 51.9876 116 52.2282 115.593 52.4317C115.205 52.6167 115.001 52.5057 114.705 52.2837C110.931 49.1755 107.157 46.0859 103.401 42.9962C103.179 42.8112 102.865 42.7187 102.994 42.2747C103.142 41.8306 103.457 41.8677 103.79 41.8492C107.101 41.5901 110.413 41.3311 113.688 41.0536C114.132 41.0166 114.446 41.0536 114.631 41.5346C114.724 41.7751 114.946 42.0527 115.186 42.1267C116.167 42.4227 116.093 43.1627 116.074 43.9398C116.074 45.1053 116.093 46.2709 116.093 47.4364Z" fill="#221F51"/>
<path d="M75.2617 43.9396C76.8713 41.0719 78.4809 38.2228 80.0905 35.3736C80.22 35.1516 80.3495 34.9481 80.4605 34.7261C80.8305 34.0601 81.108 33.431 82.1441 33.5421C82.9951 33.6346 83.6241 32.95 83.9387 32.173C84.0867 31.7845 84.2717 31.6365 84.6417 31.618C87.8608 31.3775 91.08 31.1184 94.2622 30.8779C94.3732 31.0999 94.2437 31.1924 94.1142 31.2664C87.9719 35.4847 81.848 39.6659 75.7057 43.8841C75.6132 43.9581 75.4837 43.9951 75.3727 44.0506C75.3357 43.9951 75.2987 43.9766 75.2617 43.9396Z" fill="#221F51"/>
<path d="M71.0067 44.6794C72.0612 45.4009 71.2287 45.5675 71.2102 46.5295C71.2102 46.7885 71.0992 46.9365 70.9142 47.0475C66.8255 49.6562 62.7368 52.2648 58.6481 54.8734C58.6111 54.8364 58.5741 54.7994 58.5186 54.7624C60.6832 50.8402 62.8478 46.918 65.0124 43.0143C65.1789 42.7183 65.3454 42.5148 65.7339 42.6258C65.9374 42.6813 66.1964 42.6813 66.3629 42.5703" fill="#221F51"/>
<path d="M80.2014 33.1347C78.8139 35.5768 77.3893 38.0559 75.9832 40.5165C75.6872 41.0161 74.6326 42.9032 74.3366 43.4027C73.1526 45.4933 73.2451 43.7357 72.0425 44.1982C71.839 44.2722 71.691 44.1057 71.5615 43.9947C70.5069 43.1992 69.4339 42.4221 68.3978 41.6081C67.9353 41.2381 68.0648 39.7765 68.5828 39.4805C72.32 37.3529 76.0757 35.2253 79.7944 33.0977C79.9054 33.0237 80.0164 32.9497 80.2014 33.1347Z" fill="#221F51"/>
<path d="M117.296 42.5146C118.055 43.7912 118.832 45.0678 119.59 46.3443C121.681 49.7855 123.771 53.2267 125.843 56.6678C125.973 56.8899 126.38 57.1304 126.047 57.4634C125.788 57.7039 125.529 57.4449 125.288 57.3524C123.401 56.6123 121.514 55.8353 119.609 55.1138C119.128 54.9288 118.869 54.7438 118.813 54.1702C118.739 53.3192 118.295 52.6717 117.444 52.3386C117.204 52.2461 117.019 52.1536 117.019 51.8206C117.037 48.7495 117.019 45.6783 117.019 42.6072C117.13 42.5887 117.204 42.5517 117.296 42.5146Z" fill="#221F51"/>
<path d="M127.157 66.0111C126.694 66.4181 125.621 66.2331 124.844 66.1776C124.049 66.1221 123.309 65.7521 122.624 64.827C121.311 62.1629 119.868 59.5542 118.48 56.9271C118.313 56.6126 117.98 56.2981 118.351 55.9466C118.684 55.6135 118.98 55.9651 119.276 56.0761C121.144 56.7976 122.994 57.5561 124.863 58.2777C125.344 58.4627 125.621 58.6477 125.64 59.2397C125.658 59.9058 125.991 60.5348 126.62 60.8123C127.323 61.1268 127.416 61.5338 127.379 62.2739" fill="#221F51"/>
<path d="M103.975 40.813C102.698 40.887 102.143 40.0545 102.698 38.9444C103.29 37.7419 103.919 36.5393 104.493 35.3183C104.696 34.8927 104.9 34.5782 105.436 34.6707C105.492 34.6892 105.566 34.6707 105.621 34.6522C106.898 33.8012 107.749 34.7447 108.655 35.3923C110.413 36.6318 112.171 37.8714 113.91 39.1294C114.132 39.296 114.557 39.37 114.409 39.777C114.298 40.11 113.965 40.0545 113.706 40.073C110.468 40.3135 107.231 40.554 103.975 40.813Z" fill="#221F51"/>
<path d="M97.833 32.247C97.833 31.8585 98.5916 31.248 98.9986 31.3405C99.7201 31.507 100.423 31.84 101.126 31.8585C102.68 31.8955 103.217 32.9685 103.79 34.0971C103.901 34.3191 103.772 34.4486 103.698 34.5966C103.013 36.0397 102.329 37.4643 101.626 38.9073C101.496 39.1848 101.311 39.3144 100.978 39.2959C100.645 39.2589 100.497 39.1294 100.368 38.8333C99.5536 36.6872 98.7211 34.5411 97.8885 32.395C97.8885 32.358 97.8515 32.3025 97.833 32.247Z" fill="#221F51"/>
<path d="M101.422 66.4C99.5165 67.066 97.8514 67.7506 96.3344 68.7311C95.9088 69.0086 95.7793 68.8051 95.5943 68.4536C94.9653 67.1585 94.3363 65.8635 93.6887 64.5869C93.5777 64.3464 93.4667 64.1614 93.6887 63.9209C93.9107 63.6804 94.1327 63.6804 94.4288 63.7914C96.7044 64.6239 98.9615 65.475 101.422 66.4Z" fill="#221F51"/>
<path d="M92.6714 71.1365C91.5428 71.1365 91.0988 70.6 91.2653 69.749C91.5428 68.2134 91.8018 66.6778 92.0794 65.1237C92.1164 64.9202 92.0609 64.6612 92.3569 64.6242C92.6344 64.5872 92.7084 64.8092 92.8009 64.9942C93.4669 66.3078 94.133 67.6214 94.799 68.9349C94.8915 69.1014 95.1135 69.3419 94.8915 69.5084C94.133 70.156 93.3744 70.822 92.6714 71.1365Z" fill="#221F51"/>
<path d="M90.2286 69.8589C88.9706 68.8784 87.62 68.2679 86.2324 67.5278C87.6385 66.4363 88.952 65.4187 90.2841 64.3827C90.5061 64.2162 90.6911 64.1422 90.9502 64.3272C91.2092 64.5122 91.1907 64.7342 91.1352 64.9747C90.8391 66.5658 90.5431 68.1199 90.2286 69.8589Z" fill="#221F51"/>
<path d="M58.6474 54.8551C58.6104 54.8921 58.5549 54.9847 58.5364 54.9662C58.4439 54.9107 58.4624 54.8181 58.5179 54.7441C58.5549 54.7811 58.6104 54.7996 58.6474 54.8551Z" fill="#221F51"/>
<path d="M75.3543 44.032C75.2988 44.0505 75.1878 44.106 75.1693 44.0875C75.0953 44.0135 75.1693 43.958 75.2433 43.9395C75.2988 43.9765 75.3358 43.995 75.3543 44.032Z" fill="#221F51"/>
<path d="M65.3633 43.3848C66.8449 43.3848 68.0459 42.1837 68.0459 40.7022C68.0459 39.2206 66.8449 38.0195 65.3633 38.0195C63.8817 38.0195 62.6807 39.2206 62.6807 40.7022C62.6807 42.1837 63.8817 43.3848 65.3633 43.3848Z" fill="white"/>
<path d="M92.3564 65.5672C94.0423 65.5672 95.409 64.2005 95.409 62.5146C95.409 60.8286 94.0423 59.4619 92.3564 59.4619C90.6704 59.4619 89.3037 60.8286 89.3037 62.5146C89.3037 64.2005 90.6704 65.5672 92.3564 65.5672Z" fill="white"/>
<path d="M127.823 61.867C129.509 61.867 130.876 60.5003 130.876 58.8144C130.876 57.1284 129.509 55.7617 127.823 55.7617C126.137 55.7617 124.771 57.1284 124.771 58.8144C124.771 60.5003 126.137 61.867 127.823 61.867Z" fill="white"/>
<path d="M65.5487 43.5692C67.2347 43.5692 68.6014 42.2025 68.6014 40.5165C68.6014 38.8306 67.2347 37.4639 65.5487 37.4639C63.8628 37.4639 62.4961 38.8306 62.4961 40.5165C62.4961 42.2025 63.8628 43.5692 65.5487 43.5692Z" fill="white"/>
<path d="M73.5038 48.9354C75.1898 48.9354 76.5565 47.5687 76.5565 45.8827C76.5565 44.1968 75.1898 42.8301 73.5038 42.8301C71.8179 42.8301 70.4512 44.1968 70.4512 45.8827C70.4512 47.5687 71.8179 48.9354 73.5038 48.9354Z" fill="white"/>
<path d="M116.556 57.4266C118.242 57.4266 119.608 56.0599 119.608 54.3739C119.608 52.688 118.242 51.3213 116.556 51.3213C114.87 51.3213 113.503 52.688 113.503 54.3739C113.503 56.0599 114.87 57.4266 116.556 57.4266Z" fill="white"/>
<path d="M116.556 43.3846C118.242 43.3846 119.608 42.0179 119.608 40.3319C119.608 38.646 118.242 37.2793 116.556 37.2793C114.87 37.2793 113.503 38.646 113.503 40.3319C113.503 42.0179 114.87 43.3846 116.556 43.3846Z" fill="white"/>
<path d="M100.849 44.6795C102.534 44.6795 103.901 43.3128 103.901 41.6269C103.901 39.9409 102.534 38.5742 100.849 38.5742C99.1626 38.5742 97.7959 39.9409 97.7959 41.6269C97.7959 43.3128 99.1626 44.6795 100.849 44.6795Z" fill="white"/>
<path d="M56.872 59.6473C58.5579 59.6473 59.9246 58.2806 59.9246 56.5946C59.9246 54.9087 58.5579 53.542 56.872 53.542C55.1861 53.542 53.8193 54.9087 53.8193 56.5946C53.8193 58.2806 55.1861 59.6473 56.872 59.6473Z" fill="white"/>
<path d="M105.289 35.6326C106.975 35.6326 108.342 34.2659 108.342 32.58C108.342 30.8941 106.975 29.5273 105.289 29.5273C103.603 29.5273 102.236 30.8941 102.236 32.58C102.236 34.2659 103.603 35.6326 105.289 35.6326Z" fill="white"/>
<path d="M96.5937 33.4129C98.2796 33.4129 99.6463 32.0462 99.6463 30.3603C99.6463 28.6743 98.2796 27.3076 96.5937 27.3076C94.9077 27.3076 93.541 28.6743 93.541 30.3603C93.541 32.0462 94.9077 33.4129 96.5937 33.4129Z" fill="white"/>
<path d="M81.6259 34.3377C83.3118 34.3377 84.6785 32.971 84.6785 31.2851C84.6785 29.5991 83.3118 28.2324 81.6259 28.2324C79.94 28.2324 78.5732 29.5991 78.5732 31.2851C78.5732 32.971 79.94 34.3377 81.6259 34.3377Z" fill="white"/>
<path d="M91.8943 161.402C82.4958 161.402 73.3749 159.571 64.7904 155.944C56.502 152.448 49.0462 147.453 42.6634 141.07C36.262 134.687 31.2483 127.268 27.7331 119.017C24.1069 110.451 22.2568 101.367 22.2568 92.0053C22.2568 82.6439 24.1069 73.5414 27.7331 64.994C31.2483 56.7241 36.262 49.3052 42.6634 42.9409C49.0647 36.5581 56.502 31.5628 64.7904 28.0662C73.3749 24.44 82.4958 22.6084 91.8943 22.6084C101.293 22.6084 110.414 24.44 118.998 28.0662C127.287 31.5628 134.742 36.5581 141.125 42.9409C147.527 49.3237 152.54 56.7426 156.055 64.994C159.682 73.5599 161.532 82.6439 161.532 92.0053C161.532 101.367 159.682 110.469 156.055 119.017C152.54 127.287 147.527 134.705 141.125 141.07C134.724 147.453 127.287 152.448 118.998 155.944C110.414 159.552 101.293 161.402 91.8943 161.402ZM91.8943 23.4964C54.0044 23.4964 23.1819 54.2265 23.1819 91.9868C23.1819 129.747 54.0044 160.477 91.8943 160.477C129.784 160.477 160.607 129.747 160.607 91.9868C160.588 54.2265 129.766 23.4964 91.8943 23.4964Z" fill="white"/>
<path d="M91.9866 184.195C79.5724 184.195 67.5284 181.753 56.1873 176.961C45.2347 172.318 35.3923 165.676 26.9558 157.221C18.5009 148.766 11.8776 138.905 7.23387 127.952C2.44213 116.593 0 104.53 0 92.0976C0 79.6649 2.42363 67.6023 7.23387 56.2428C11.8591 45.2717 18.5009 35.4293 26.9558 26.9743C35.4108 18.5194 45.2347 11.8776 56.1873 7.23387C67.5284 2.42363 79.5724 0 91.9866 0C104.401 0 116.445 2.44213 127.786 7.23387C138.738 11.8776 148.581 18.5194 157.017 26.9743C165.472 35.4293 172.096 45.2902 176.739 56.2428C181.531 67.6023 183.973 79.6649 183.973 92.0976C183.973 104.53 181.549 116.593 176.739 127.952C172.114 138.923 165.472 148.766 157.017 157.221C148.562 165.676 138.738 172.318 127.786 176.961C116.445 181.753 104.401 184.195 91.9866 184.195ZM91.9866 1.20256C41.9416 1.20256 1.22106 41.9786 1.22106 92.0791C1.22106 142.198 41.9416 182.956 91.9866 182.956C142.032 182.956 182.752 142.18 182.752 92.0791C182.752 41.9601 142.032 1.20256 91.9866 1.20256Z" fill="white"/>
</g>
</g>
<defs>
<filter id="filter0_d_1_25587" x="-17" y="-15" width="217.973" height="218.195" filterUnits="userSpaceOnUse" color-interpolation-filters="sRGB">
<feFlood flood-opacity="0" result="BackgroundImageFix"/>
<feColorMatrix in="SourceAlpha" type="matrix" values="0 0 0 0 0 0 0 0 0 0 0 0 0 0 0 0 0 0 127 0" result="hardAlpha"/>
<feOffset dy="2"/>
<feGaussianBlur stdDeviation="8.5"/>
<feComposite in2="hardAlpha" operator="out"/>
<feColorMatrix type="matrix" values="0 0 0 0 0 0 0 0 0 0 0 0 0 0 0 0 0 0 0.54 0"/>
<feBlend mode="normal" in2="BackgroundImageFix" result="effect1_dropShadow_1_25587"/>
<feBlend mode="normal" in="SourceGraphic" in2="effect1_dropShadow_1_25587" result="shape"/>
</filter>
<clipPath id="clip0_1_25587">
<rect width="183.973" height="184.195" fill="white"/>
</clipPath>
</defs>
</svg>
