<svg width="60" height="60" viewBox="0 0 64 64" fill="none" xmlns="http://www.w3.org/2000/svg">
<path d="M2.75186 5.27347L42.9739 0.0148434C43.2009 -0.01497 43.4322 0.000241545 43.6522 0.0594471C43.8722 0.118653 44.0758 0.220468 44.249 0.357994C44.4223 0.495521 44.5613 0.665543 44.6565 0.856539C44.7517 1.04754 44.801 1.25504 44.801 1.465V62.5354C44.8009 62.7451 44.7517 62.9523 44.6567 63.1431C44.5617 63.3338 44.423 63.5037 44.2501 63.6412C44.0772 63.7787 43.874 63.8805 43.6544 63.94C43.4348 63.9994 43.2038 64.0149 42.9771 63.9856L2.74866 58.7269C1.98588 58.6275 1.28791 58.2794 0.782964 57.7466C0.278019 57.2138 7.39345e-06 56.532 0 55.8266V8.17378C7.39345e-06 7.46837 0.278019 6.78665 0.782964 6.25385C1.28791 5.72104 1.98588 5.37294 2.74866 5.27347H2.75186ZM6.40288 10.7167V53.2837L38.4013 57.4701V6.53027L6.40288 10.7167ZM48.0008 52.5074H57.6003V11.493H48.0008V5.63381H60.8002C61.6488 5.63381 62.4627 5.94247 63.0628 6.49187C63.6629 7.04128 64 7.78644 64 8.56341V55.437C64 56.214 63.6629 56.9591 63.0628 57.5085C62.4627 58.058 61.6488 58.3666 60.8002 58.3666H48.0008V52.5074ZM26.2419 32.0002L35.2014 43.7186H27.5218L22.4021 37.0215L17.2823 43.7186H9.60272L18.5623 32.0002L9.60272 20.2818H17.2823L22.4021 26.9789L27.5218 20.2818H35.2014L26.2419 32.0002Z" fill="white"/>
</svg>
