<svg width="184" height="185" viewBox="0 0 184 185" fill="none" xmlns="http://www.w3.org/2000/svg">
<g clip-path="url(#clip0_19_15)">
<g filter="url(#filter0_d_19_15)">
<path d="M91.8938 183.566C142.267 183.566 183.103 142.647 183.103 92.1715C183.103 41.6957 142.267 0.776978 91.8938 0.776978C41.5202 0.776978 0.684326 41.6957 0.684326 92.1715C0.684326 142.647 41.5202 183.566 91.8938 183.566Z" fill="#221F51"/>
<path d="M91.8569 181.993C42.145 181.975 1.88696 141.698 1.88696 91.9865C1.88696 42.2931 42.2005 1.97955 91.9124 1.99805C141.643 2.01655 181.919 42.3671 181.882 92.116C181.845 141.772 141.532 182.012 91.8569 181.993ZM36.1877 139.108C35.7807 140.385 35.3736 141.624 34.9666 142.883C34.5596 144.159 34.1156 145.436 33.727 146.731C33.579 147.249 33.2645 147.212 32.8945 147.175C31.6364 147.027 30.3784 146.879 29.1203 146.749C27.1407 146.527 25.1796 146.324 23.2 146.102C23.163 146.194 23.126 146.305 23.089 146.398C41.8859 168.747 65.7336 180.439 95.1316 179.422C122.661 178.46 144.696 166.268 161.698 144.77C158.257 145.029 154.853 145.362 151.485 145.806C150.69 145.917 150.468 145.565 150.283 144.955C149.598 142.772 148.895 140.588 148.174 138.368C133.41 155.371 114.946 164.64 92.3749 164.806C69.8223 164.954 51.2104 155.963 36.1877 139.108ZM21.5164 91.9125C21.3314 130.505 52.746 162.253 91.5794 162.42C130.487 162.586 162.29 131.153 162.327 92.0975C162.382 53.1531 130.857 21.609 91.9309 21.5905C52.857 21.5535 21.4054 53.3751 21.5164 91.9125ZM43.2735 34.5042C43.329 35.1147 43.181 35.7252 43.847 36.0028C44.4946 36.2803 44.9571 35.9102 45.4196 35.5217C45.8081 35.1887 46.2152 34.8557 46.6222 34.5227C46.9737 34.2452 46.8072 34.0231 46.6222 33.7456C46.3817 33.3941 46.1782 33.5606 45.9562 33.7456C45.6231 34.0231 45.3086 34.3192 44.9571 34.5597C44.4576 34.8742 44.2171 34.6892 44.2171 34.1157C44.2171 33.8196 44.3281 33.5976 44.4946 33.3571C45.4566 31.9695 45.6046 30.4895 45.0126 28.8984C44.2911 26.9188 42.108 25.6422 39.9804 26.0308C38.0193 26.3823 36.6317 28.1769 36.6132 30.286C36.6502 32.9131 39.2773 36.1507 43.2735 34.5042ZM114.151 12.5991C114.28 12.9691 114.391 13.1911 114.428 13.4131C114.872 15.5407 115.39 17.6683 115.686 19.8144C115.853 20.98 116.445 21.424 117.462 21.6275C117.869 21.72 118.017 21.609 118.128 21.2575C118.924 18.8524 119.719 16.4473 120.515 14.0422C120.663 13.5981 120.663 13.2466 120.052 13.0986C119.479 12.9506 119.275 13.0616 119.201 13.6536C119.164 14.0051 118.979 14.3382 118.868 14.6897C118.295 16.4473 117.721 18.1864 117.148 19.9625C116.852 19.7774 116.889 19.5554 116.852 19.3519C116.389 17.1318 115.853 14.9117 115.483 12.6731C115.316 11.6925 114.835 11.341 114.003 11.119C113.521 10.9895 113.262 10.9525 113.077 11.563C112.356 13.9681 111.56 16.3548 110.746 18.7229C110.561 19.2779 110.672 19.4444 111.19 19.6109C111.727 19.7774 111.875 19.6109 112.023 19.1299C112.707 16.9653 113.411 14.8562 114.151 12.5991ZM7.49274 85.2152C7.27073 86.0662 7.54824 86.3992 8.47329 86.4733C10.7674 86.6583 13.08 86.9358 15.3556 87.2318C15.9107 87.3058 16.1697 87.2873 16.2807 86.6213C16.3917 85.8627 15.9847 85.8997 15.5036 85.8627C14.8006 85.8072 14.0976 85.7147 13.3945 85.6222C13.2095 85.6037 13.006 85.5852 12.8765 85.4742C12.599 85.2337 13.117 83.2541 13.487 83.1061C14.4491 82.7176 15.4296 82.329 16.4102 81.959C17.1132 81.7 16.9837 81.0525 16.8727 80.627C16.7062 80.0349 16.2622 80.5715 16.0032 80.6455C15.2446 80.9045 14.4861 81.182 13.7831 81.5335C13.228 81.811 13.0245 81.626 12.8395 81.1265C12.4325 80.0904 11.637 79.5909 10.5639 79.5724C9.47234 79.5539 8.69531 80.0904 8.25128 81.0895C7.62225 82.4215 7.71475 83.8646 7.49274 85.2152ZM67.2137 16.8543C68.5273 15.5407 68.7493 14.5232 67.9907 13.2836C67.3432 12.2106 66.0111 11.8776 64.4386 12.3771C63.384 12.7101 62.348 13.0801 61.2934 13.4501C61.0529 13.5426 60.7569 13.5796 60.9049 14.0052C61.7744 16.4843 62.644 18.9634 63.458 21.4425C63.643 22.0161 63.9575 21.794 64.3091 21.72C64.7346 21.609 64.8271 21.3685 64.6791 20.98C64.4016 20.203 64.1425 19.4259 63.8835 18.6489C63.828 18.4824 63.643 18.2604 63.8465 18.1679C64.4571 17.8903 65.1046 17.6683 65.7521 17.4833C66.1407 17.3723 66.3257 17.7978 66.5477 18.0013C67.2137 18.5934 67.8427 19.2224 68.4718 19.8514C68.9898 20.3695 69.5448 20.0365 69.8778 19.7404C70.2479 19.4074 69.6558 19.2039 69.4708 19.0189C68.7678 18.2604 67.9722 17.5573 67.2137 16.8543ZM79.2023 17.7978C81.6074 17.8348 83.476 15.9662 83.5315 13.4686C83.587 10.897 81.7184 8.8064 79.3318 8.7694C76.9452 8.73239 75.0396 10.416 74.9471 13.1356C74.8546 15.6517 76.8712 17.7608 79.2023 17.7978ZM147.341 31.3405C147.526 31.5255 147.693 31.655 147.841 31.803C148.692 32.6356 149.543 33.4866 150.394 34.3377C150.764 34.7077 151.06 34.5967 151.411 34.2452C151.8 33.8566 151.522 33.6716 151.263 33.4311C150.061 32.2841 148.877 31.137 147.693 29.9714C147.341 29.6199 147.045 29.5644 146.694 29.9344C144.918 31.803 143.123 33.6716 141.328 35.5217C141.014 35.8362 141.106 35.9842 141.384 36.2433C142.66 37.4458 143.919 38.6669 145.158 39.9064C145.565 40.295 145.806 40.1654 146.139 39.8324C146.527 39.4624 146.287 39.2774 146.028 39.0184C145.454 38.4634 144.881 37.8898 144.307 37.3348C142.808 35.8917 142.827 35.8917 144.326 34.3932C144.696 34.0416 144.881 34.0601 145.214 34.4117C145.972 35.1887 146.768 35.8917 147.526 36.6503C147.933 37.0573 148.137 36.7798 148.433 36.5208C148.766 36.2248 148.655 36.0397 148.396 35.7807C147.822 35.2627 147.286 34.7077 146.731 34.1897C145.547 33.0611 145.547 33.0796 146.731 31.8955C146.916 31.7105 147.119 31.544 147.341 31.3405ZM166.027 89.6554C166.046 89.6554 166.046 89.6554 166.064 89.6554C166.064 90.5435 166.083 91.45 166.064 92.338C166.046 92.7821 166.212 92.9301 166.656 92.9301C167.082 92.9116 167.378 92.8561 167.322 92.3195C167.248 91.524 167.193 90.7285 167.193 89.9144C167.193 87.3243 166.582 87.9903 169.246 87.7683C169.82 87.7128 169.912 87.9718 169.912 88.4529C169.931 89.4334 169.986 90.4139 170.042 91.413C170.06 91.783 169.949 92.2085 170.615 92.19C171.337 92.1715 171.207 91.7275 171.189 91.3205C171.17 90.7285 171.17 90.1549 171.115 89.5629C170.985 87.6758 170.985 87.6943 172.928 87.6758C173.464 87.6758 173.612 87.8423 173.612 88.3418C173.612 89.5444 173.686 90.747 173.686 91.9495C173.686 92.486 173.872 92.6156 174.39 92.6156C174.963 92.6156 174.945 92.301 174.926 91.9125C174.852 90.2474 174.778 88.5824 174.741 86.9358C174.723 86.3992 174.575 86.2512 174.038 86.2882C171.54 86.3807 169.043 86.4733 166.564 86.5103C165.972 86.5288 165.824 86.7693 165.879 87.3058C165.935 88.0643 165.972 88.8599 166.027 89.6554ZM10.8229 114.095C13.2095 113.54 15.8367 112.911 18.4823 112.282C18.7228 112.227 18.7598 112.06 18.7043 111.875C18.2788 110.062 17.8533 108.249 17.4092 106.436C17.2982 105.992 16.9837 106.121 16.6692 106.158C16.2807 106.214 16.1512 106.343 16.2622 106.769C16.4842 107.601 16.6877 108.434 16.8727 109.266C17.2982 111.209 17.2797 111.172 15.3741 111.672C14.6711 111.857 14.4676 111.634 14.3566 110.987C14.1716 109.969 13.8941 108.97 13.6535 107.953C13.524 107.435 13.154 107.638 12.8395 107.675C12.4325 107.731 12.488 107.916 12.5805 108.249C12.784 109.007 12.9505 109.803 13.0615 110.58C13.1355 111.079 13.6536 111.671 13.339 112.005C13.006 112.338 12.303 112.282 11.785 112.486C11.0819 112.763 10.8784 112.43 10.7674 111.82C10.5269 110.654 10.2309 109.488 9.99036 108.323C9.87936 107.823 9.60185 107.897 9.23183 107.971C8.88031 108.045 8.69531 108.101 8.80631 108.563C9.23183 110.247 9.62035 111.968 10.0274 113.67C10.1199 113.984 10.1939 114.225 10.8229 114.095ZM155.278 46.5113C156.943 47.3438 157.961 47.2513 158.867 46.2152C159.7 45.2717 159.607 43.8841 158.627 42.4966C158.016 41.6455 157.369 40.8315 156.777 39.9804C156.518 39.6104 156.333 39.5919 155.981 39.8509C153.965 41.368 151.929 42.8666 149.894 44.3282C149.469 44.6427 149.561 44.8092 149.802 45.1977C150.098 45.6787 150.357 45.5307 150.671 45.2902C151.43 44.7167 152.188 44.1432 153.002 43.5511C153.28 43.9026 153.502 44.2542 153.798 44.5687C154.39 45.1607 154.52 45.7527 154.039 46.4928C153.669 47.0478 153.465 47.7138 153.095 48.2874C152.595 49.0459 152.836 49.5639 153.52 50.0819C154.224 48.9534 154.705 47.7138 155.278 46.5113ZM101.459 17.6313C103.216 17.6313 104.586 16.4658 104.845 14.7267C105.067 13.1541 105.252 11.563 105.511 9.99045C105.622 9.36142 105.474 9.13941 104.845 9.04691C104.16 8.95441 104.16 9.34292 104.105 9.80544C103.901 11.3225 103.716 12.8581 103.476 14.3752C103.253 15.7997 102.384 16.5028 101.089 16.3918C99.7013 16.2623 98.9613 15.4297 99.0908 13.9497C99.2388 12.3401 99.4608 10.712 99.7198 9.12091C99.8123 8.60288 99.7753 8.39937 99.2203 8.32537C98.7023 8.26987 98.3692 8.23286 98.3137 8.9359C98.1842 10.3975 97.9807 11.8775 97.7402 13.3206C97.3517 15.8552 98.8688 17.6498 101.459 17.6313ZM20.3509 47.2513C19.9254 47.3438 19.7959 47.9173 19.4628 48.3059C19.1113 48.7129 19.3333 48.9349 19.5553 49.2309C21.1649 51.2845 22.756 53.3566 24.3841 55.4102C24.5876 55.6692 24.7541 56.2428 25.1426 55.8912C25.4386 55.6137 26.0307 55.1327 25.3646 54.5777C24.2176 53.6526 24.3286 52.6721 25.2351 51.6545C25.3276 51.5435 25.4016 51.3955 25.4756 51.266C26.3637 49.8229 26.3637 49.8229 28.0658 50.1374C28.1953 50.1559 28.3063 50.2114 28.4358 50.1929C28.9723 50.1374 29.0278 49.6194 29.2128 49.2679C29.3423 49.0089 28.9908 48.9534 28.8058 48.9164C26.0307 48.3799 23.2925 47.8433 20.3509 47.2513ZM17.6682 63.0881C18.0568 63.0141 18.2603 62.9771 18.4823 62.9401C19.5738 62.7551 20.6654 62.5886 21.757 62.4035C22.497 62.274 22.534 61.571 22.5155 61.127C22.497 60.7015 21.942 61.0345 21.6644 61.0715C20.4804 61.275 19.2963 61.497 18.1308 61.7745C17.6312 61.8855 17.3537 61.793 17.0762 61.349C16.3732 60.2945 15.6331 59.2954 14.8746 58.2778C14.7636 58.1298 14.5971 57.6858 14.3751 58.0558C14.0976 58.5184 13.6721 58.9994 14.2271 59.6284C14.8931 60.387 15.4296 61.2565 16.0772 62.0335C16.4842 62.5331 16.3547 62.6626 15.7811 62.7366C14.7451 62.8846 13.7276 63.1066 12.6915 63.2546C11.9515 63.3656 11.785 63.9946 11.8775 64.4942C11.97 65.0307 12.5065 64.6052 12.8025 64.5682C13.8571 64.4017 14.9301 64.1981 15.9662 63.9391C16.5582 63.7911 16.8542 63.9576 17.1687 64.4202C17.8903 65.4932 18.6488 66.5293 19.3888 67.5838C19.5183 67.7688 19.7959 68.1388 19.9069 67.8798C20.0919 67.4173 20.7209 66.9918 20.1659 66.3257C19.3148 65.3267 18.5563 64.2536 17.6682 63.0881ZM15.1336 96.9448C14.6526 97.1483 14.4306 97.2408 14.2086 97.3333C12.155 98.1658 10.1199 99.0354 8.04777 99.8309C7.27073 100.127 7.52975 100.7 7.65925 101.126C7.82576 101.681 8.23278 101.237 8.49179 101.126C10.8599 100.164 13.2095 99.1464 15.5591 98.1843C16.0772 97.9623 16.3732 97.7403 16.2437 97.1113C16.1142 96.5377 16.3917 95.8717 15.4296 95.6312C12.9505 95.0207 10.5084 94.2806 8.04777 93.5961C7.78875 93.5221 7.45574 93.2076 7.21523 93.5776C7.01171 93.8736 7.15972 94.2436 7.21523 94.5767C7.28923 94.9837 7.69625 94.9282 7.95526 95.0022C10.2679 95.6497 12.5805 96.2602 15.1336 96.9448ZM157.498 56.5388C157.591 57.7598 158.09 58.8699 159.126 59.7209C160.014 60.4425 161.106 60.498 162.049 59.8874C162.956 59.3139 163.215 58.5554 162.919 57.3343C162.715 56.4463 162.493 55.5397 162.308 54.6517C162.216 54.2076 162.308 53.8006 162.734 53.5231C163.159 53.2456 163.604 53.2271 164.029 53.4861C165.176 54.1336 165.62 55.8912 164.806 56.8718C164.344 57.4268 164.862 57.7043 165.028 57.9448C165.232 58.2408 165.472 57.8153 165.639 57.6488C165.972 57.3158 166.175 56.9088 166.231 56.4278C166.416 55.0217 165.842 53.8931 164.917 52.9311C164.122 52.0985 163.104 51.932 162.234 52.4131C161.346 52.8941 161.013 53.6711 161.254 54.8552C161.42 55.6322 161.642 56.4093 161.864 57.1678C162.086 57.9263 161.957 58.5924 161.217 58.9809C160.44 59.3879 159.737 59.1289 159.256 58.4814C158.479 57.4638 158.035 56.2612 159.034 55.2252C159.459 54.7997 159.108 54.4482 158.867 54.1891C158.497 53.7821 158.349 54.3187 158.183 54.4852C157.683 55.0217 157.517 55.7062 157.498 56.5388ZM133.984 28.8984C133.984 28.6764 133.965 28.5839 133.984 28.5099C134.631 26.1973 135.223 23.8846 135.926 21.609C136.185 20.795 135.538 20.684 135.168 20.5175C134.668 20.2955 134.761 20.906 134.668 21.165C134.261 22.5156 133.891 23.8661 133.521 25.2167C133.206 26.3638 132.91 27.5293 132.577 28.6764C132.318 29.5829 133.132 29.6939 133.558 30.101C133.984 30.4895 134.28 30.286 134.65 30.0084C136.722 28.4544 138.812 26.9373 140.866 25.3832C141.069 25.2352 141.698 25.1242 141.291 24.7172C140.995 24.4212 140.625 23.8106 139.978 24.3472C139.201 24.9947 138.368 25.5867 137.554 26.1973C136.389 27.0853 135.242 27.9548 133.984 28.8984ZM58.1483 24.1807C56.0761 22.4046 53.9855 20.6285 51.9504 18.8154C51.4509 18.3714 51.1179 18.2234 50.4704 18.5934C49.8413 18.9449 49.7118 19.3334 49.8228 19.9809C50.2669 22.6636 50.6924 25.3462 51.1549 28.0843C51.5434 27.8068 52.265 27.9548 52.1355 27.1408C51.8394 25.2722 51.8394 25.2722 53.449 24.4027C53.6895 24.2732 53.9485 24.1622 54.1706 23.9772C55.0216 23.2926 55.7616 23.2556 56.4832 24.1807C56.9642 24.9022 57.5562 24.9022 58.1483 24.1807ZM166.009 101.163C165.546 100.978 165.398 101.274 165.306 101.811C165.195 102.421 165.491 102.514 165.99 102.569C168.044 102.828 170.079 103.143 172.132 103.383C172.706 103.457 172.854 103.624 172.706 104.179C172.576 104.715 172.576 105.27 172.484 105.825C172.428 106.251 172.65 106.343 173.002 106.38C173.372 106.417 173.649 106.436 173.723 105.936C173.983 103.994 174.242 102.033 174.519 100.09C174.575 99.6644 174.538 99.4054 174.001 99.3499C173.464 99.2944 173.279 99.4609 173.242 99.9789C173.205 100.46 173.057 100.959 173.057 101.44C173.057 102.088 172.78 102.088 172.262 102.014C170.227 101.7 168.173 101.44 166.009 101.163ZM164.547 77.1303C164.492 77.7778 164.751 77.9813 165.435 77.8148C166.952 77.4633 168.506 77.1858 170.042 76.8713C172.132 76.4457 172.132 76.4458 172.576 78.5179C172.669 78.9064 172.669 79.2764 173.316 79.1469C173.945 79.0174 173.816 78.6474 173.742 78.2773C173.39 76.4458 173.02 74.6142 172.669 72.7641C172.595 72.3385 172.447 72.1165 171.947 72.2275C171.466 72.32 171.337 72.5606 171.466 72.9861C171.577 73.3931 171.67 73.8186 171.781 74.2256C171.966 74.9102 171.781 75.2247 171.004 75.3542C169.061 75.6687 167.137 76.0942 165.213 76.4828C164.843 76.5568 164.381 76.5383 164.547 77.1303ZM27.2702 37.9638C26.8817 38.0933 26.7337 38.4264 26.5117 38.6669C26.3082 38.8889 26.4747 39.1109 26.6782 39.2959C28.6393 41.0165 30.5819 42.7556 32.5245 44.4762C32.765 44.6797 32.9685 44.7907 33.209 44.4947C34.3006 43.2181 35.4106 41.9415 36.5207 40.665C36.9092 40.221 36.5392 40.0359 36.2987 39.7769C36.0027 39.4439 35.8176 39.5919 35.5956 39.8694C34.8926 40.7205 34.1156 41.516 33.431 42.3856C33.0425 42.8666 32.802 42.8666 32.358 42.4596C30.8779 41.0905 29.3423 39.7584 27.8253 38.4264C27.6402 38.2414 27.4552 38.0933 27.2702 37.9638ZM171.429 114.558C172.021 114.706 171.799 114.021 171.984 113.725C172.28 113.244 171.855 113.244 171.577 113.17C170.042 112.745 168.488 112.338 166.952 111.912C165.972 111.653 164.991 111.394 164.029 111.098C163.381 110.913 163.418 111.468 163.289 111.783C163.141 112.097 163.215 112.356 163.622 112.467C166.194 113.115 168.728 113.818 171.429 114.558ZM128.877 17.1133C128.748 16.7618 128.359 16.7433 128.082 16.5768C127.749 16.3733 127.564 16.5953 127.434 16.8728C126.306 19.1854 125.196 21.498 124.03 23.7736C123.753 24.3102 123.993 24.4397 124.363 24.6617C124.826 24.9207 125.066 24.8282 125.288 24.3657C126.38 22.1086 127.49 19.8699 128.6 17.6313C128.692 17.4648 128.785 17.2983 128.877 17.1133ZM162.345 68.1388C162.456 68.1018 162.53 68.0648 162.623 68.0463C165.065 67.2138 167.507 66.3628 169.968 65.5302C170.504 65.3452 170.282 65.0862 170.171 64.7717C170.06 64.4387 170.06 64.1056 169.524 64.2906C167.063 65.1602 164.584 66.0112 162.105 66.8623C161.827 66.9548 161.624 67.1028 161.827 67.3803C162.012 67.6208 161.883 68.1018 162.345 68.1388Z" fill="white"/>
<path d="M91.8939 181.05C79.8683 181.05 68.2127 178.7 57.2232 174.038C46.6222 169.561 37.0942 163.123 28.9168 154.945C20.7394 146.768 14.3196 137.24 9.82386 126.639C5.18013 115.649 2.81201 103.994 2.81201 91.9681C2.81201 79.9425 5.16163 68.287 9.82386 57.2974C14.3196 46.6964 20.7394 37.1684 28.9168 28.991C37.0942 20.8136 46.6222 14.3938 57.2232 9.89807C68.2127 5.25434 79.8683 2.88623 91.8939 2.88623C103.92 2.88623 115.575 5.23584 126.565 9.89807C137.166 14.3938 146.694 20.8136 154.871 28.991C163.048 37.1684 169.468 46.6964 173.964 57.2974C178.608 68.287 180.976 79.9425 180.976 91.9681C180.976 103.994 178.626 115.649 173.964 126.639C169.468 137.24 163.048 146.768 154.871 154.945C146.694 163.123 137.166 169.542 126.565 174.038C115.575 178.7 103.901 181.05 91.8939 181.05ZM91.8939 21.4056C52.968 21.4056 21.2944 53.0792 21.2944 92.0051C21.2944 130.931 52.968 162.605 91.8939 162.605C130.82 162.605 162.493 130.931 162.493 92.0051C162.475 53.0607 130.82 21.4056 91.8939 21.4056Z" fill="white"/>
<path d="M36.3356 138.942C51.3584 155.778 69.9703 164.788 92.5414 164.621C115.131 164.455 133.595 155.186 148.34 138.183C149.043 140.403 149.765 142.587 150.449 144.77C150.634 145.38 150.856 145.732 151.652 145.621C155.038 145.195 158.423 144.844 161.864 144.585C144.862 166.083 122.809 178.275 95.2981 179.237C65.9001 180.273 42.0154 168.58 23.2555 146.213C23.2925 146.12 23.3295 146.009 23.3665 145.917C25.3461 146.139 27.3072 146.342 29.2868 146.564C30.5448 146.712 31.8029 146.842 33.061 146.99C33.4495 147.027 33.7455 147.064 33.8935 146.546C34.2635 145.251 34.7076 143.974 35.1331 142.698C35.5216 141.477 35.9286 140.218 36.3356 138.942ZM86.7136 172.133C86.7136 172.466 86.6951 172.817 86.7136 173.15C86.7691 174.538 87.8607 175.574 89.3038 175.592C90.8208 175.629 91.9124 174.723 92.0049 173.298C92.0419 172.651 92.0234 172.003 92.0234 171.355C92.0049 169.986 91.2834 169.08 90.0623 168.839C88.6377 168.562 87.4907 169.117 86.9171 170.319C86.6396 170.911 86.7506 171.522 86.7136 172.133ZM95.4461 174.001C95.9271 173.557 96.2601 173.28 96.5376 172.965C96.8521 172.632 97.1852 172.299 97.4257 171.911C97.9992 171.004 97.8882 170.06 97.1482 169.413C96.0566 168.451 94.151 168.58 93.2445 169.727C93.0965 169.912 92.6154 170.264 93.004 170.43C93.4295 170.615 93.8735 171.411 94.4655 170.726C94.891 170.245 95.4091 170.005 95.8901 170.467C96.4081 170.948 95.9641 171.411 95.6311 171.818C95.4461 172.022 95.2426 172.225 95.039 172.41C94.447 172.965 93.8735 173.502 93.2815 174.038C92.8929 174.39 92.9854 174.852 93.0594 175.241C93.152 175.666 93.5775 175.463 93.8365 175.463C94.9465 175.481 96.0566 175.444 97.1667 175.481C97.6292 175.5 97.7772 175.37 97.8142 174.871C97.8512 174.149 97.6477 173.872 96.9076 173.964C96.5006 174.057 96.0936 174.001 95.4461 174.001ZM101.329 174.001C101.755 173.594 102.051 173.335 102.31 173.076C102.606 172.762 102.92 172.466 103.161 172.114C103.919 171.022 103.734 169.931 102.717 169.228C101.551 168.414 99.7013 168.784 98.9612 169.968C98.8502 170.134 98.6097 170.412 98.9057 170.504C99.4238 170.671 99.8863 171.504 100.534 170.615C100.848 170.19 101.329 170.171 101.773 170.467C102.291 170.837 102.014 171.207 101.736 171.559C101.514 171.837 101.274 172.114 100.996 172.373C100.386 172.965 99.7568 173.557 99.1093 174.131C98.7022 174.482 98.8502 174.945 98.9242 175.333C98.9982 175.666 99.4053 175.481 99.6458 175.5C100.774 175.518 101.921 175.481 103.068 175.518C103.549 175.537 103.66 175.37 103.697 174.889C103.753 174.131 103.475 173.909 102.772 174.001C102.384 174.038 101.958 174.001 101.329 174.001ZM83.4205 174.001C84.068 173.317 84.7155 172.891 85.1411 172.262C85.5296 171.707 85.8626 171.133 85.6406 170.393C85.4001 169.524 84.808 169.043 83.9755 168.858C82.8654 168.617 81.8849 168.895 81.1819 169.801C81.0524 169.949 80.5158 170.245 81.0339 170.486C81.4409 170.671 81.8479 171.282 82.3659 170.782C82.8469 170.319 83.365 169.986 83.8645 170.486C84.4195 171.041 83.883 171.559 83.476 171.966C82.7544 172.669 82.0144 173.372 81.2744 174.057C80.8858 174.408 80.9784 174.871 81.0524 175.259C81.1264 175.685 81.5704 175.481 81.8294 175.481C82.9024 175.5 83.9755 175.463 85.0671 175.5C85.6961 175.537 85.8071 175.296 85.8256 174.723C85.8441 174.057 85.5851 173.946 85.0301 173.983C84.5305 174.038 84.0495 174.001 83.4205 174.001ZM78.5917 170.708C77.7592 170.708 77.1302 171.319 77.1302 172.151C77.1302 172.984 77.7407 173.631 78.5547 173.65C79.3688 173.668 80.0163 173.002 80.0348 172.188C80.0348 171.374 79.4058 170.726 78.5917 170.708ZM106.084 170.708C105.27 170.708 104.641 171.337 104.623 172.151C104.604 172.965 105.252 173.631 106.047 173.631C106.88 173.65 107.583 172.947 107.564 172.133C107.564 171.355 106.898 170.726 106.084 170.708Z" fill="#221F51"/>
<path d="M86.7138 172.133C86.7323 171.522 86.6398 170.912 86.9173 170.319C87.4908 169.117 88.6379 168.562 90.0624 168.839C91.2835 169.08 92.005 169.986 92.0235 171.356C92.042 172.003 92.0605 172.651 92.005 173.298C91.9125 174.723 90.821 175.611 89.3039 175.592C87.8608 175.555 86.7508 174.538 86.7138 173.15C86.7138 172.799 86.7138 172.466 86.7138 172.133ZM90.4509 172.225C90.4509 171.892 90.4509 171.541 90.4509 171.208C90.4509 170.523 89.9884 170.301 89.4334 170.282C88.8784 170.264 88.3973 170.486 88.3788 171.171C88.3603 171.855 88.3603 172.521 88.3788 173.206C88.3973 173.89 88.8599 174.094 89.4334 174.075C90.0069 174.057 90.4509 173.853 90.4509 173.15C90.4509 172.854 90.4509 172.54 90.4509 172.225Z" fill="white"/>
<path d="M95.4462 174.001C96.0937 174.001 96.5193 174.038 96.9448 173.983C97.6848 173.89 97.8883 174.168 97.8513 174.889C97.8143 175.389 97.6663 175.518 97.2038 175.5C96.0937 175.463 94.9837 175.5 93.8736 175.481C93.5961 175.481 93.1706 175.685 93.0966 175.259C93.0226 174.871 92.9301 174.408 93.3186 174.057C93.9106 173.52 94.5027 172.984 95.0762 172.429C95.2797 172.244 95.4832 172.059 95.6682 171.837C96.0012 171.43 96.4452 170.949 95.9272 170.486C95.4462 170.042 94.9282 170.264 94.5027 170.745C93.8921 171.43 93.4666 170.616 93.0411 170.449C92.6526 170.283 93.1336 169.931 93.2816 169.746C94.1696 168.599 96.0937 168.469 97.1853 169.431C97.9068 170.079 98.0363 171.041 97.4628 171.929C97.2223 172.318 96.8893 172.651 96.5748 172.984C96.2232 173.28 95.9272 173.557 95.4462 174.001Z" fill="white"/>
<path d="M101.329 174.001C101.958 174.001 102.384 174.038 102.791 174.001C103.494 173.909 103.772 174.149 103.716 174.889C103.679 175.37 103.568 175.518 103.087 175.518C101.958 175.481 100.811 175.518 99.6643 175.5C99.4238 175.5 99.0168 175.685 98.9428 175.333C98.8688 174.945 98.7208 174.482 99.1278 174.131C99.7568 173.557 100.386 172.965 101.015 172.373C101.274 172.114 101.514 171.837 101.755 171.559C102.032 171.207 102.291 170.819 101.792 170.467C101.348 170.153 100.867 170.19 100.552 170.615C99.9234 171.503 99.4423 170.652 98.9243 170.504C98.6283 170.412 98.8688 170.134 98.9798 169.968C99.7199 168.784 101.588 168.432 102.735 169.228C103.753 169.931 103.938 171.041 103.18 172.114C102.939 172.466 102.624 172.762 102.328 173.076C102.051 173.354 101.755 173.594 101.329 174.001Z" fill="white"/>
<path d="M83.4206 174.001C84.0681 174.001 84.5307 174.038 85.0117 174.001C85.5667 173.964 85.8257 174.075 85.8072 174.741C85.7887 175.333 85.6777 175.555 85.0487 175.518C83.9756 175.463 82.9026 175.518 81.811 175.5C81.5335 175.5 81.108 175.703 81.034 175.278C80.96 174.889 80.8675 174.427 81.256 174.075C81.996 173.391 82.7361 172.688 83.4576 171.985C83.8831 171.578 84.4197 171.078 83.8461 170.504C83.3466 170.005 82.8101 170.338 82.3476 170.801C81.848 171.3 81.4225 170.69 81.0155 170.504C80.4975 170.264 81.034 169.968 81.1635 169.82C81.8665 168.895 82.8656 168.636 83.9571 168.876C84.7897 169.061 85.3817 169.542 85.6222 170.412C85.8442 171.152 85.4927 171.726 85.1227 172.281C84.7157 172.891 84.0681 173.317 83.4206 174.001Z" fill="white"/>
<path d="M78.5918 170.708C79.4059 170.708 80.0534 171.374 80.0349 172.188C80.0164 173.002 79.3689 173.65 78.5549 173.65C77.7408 173.631 77.1118 172.984 77.1303 172.151C77.1303 171.337 77.7593 170.708 78.5918 170.708Z" fill="white"/>
<path d="M106.084 170.708C106.898 170.708 107.546 171.337 107.564 172.151C107.583 172.965 106.88 173.668 106.047 173.65C105.233 173.631 104.604 172.984 104.623 172.17C104.641 171.337 105.27 170.708 106.084 170.708Z" fill="white"/>
<path d="M16.2993 93.0228L16.6878 99.5722L7.52987 100.127L7.14136 93.6704L8.1034 93.6149L8.41791 98.9246L11.4151 98.7396L11.1376 94.0034L12.0996 93.9479L12.3771 98.6841L15.6518 98.4806L15.3188 93.0783L16.2993 93.0228Z" fill="#221F51"/>
<path d="M7.41874 100.22L7.01172 93.5778L8.15878 93.5038L8.47328 98.8135L11.2854 98.647L11.0079 93.9108L12.155 93.8368L12.4325 98.573L15.5221 98.388L15.1891 92.9858L16.3732 92.9117L16.7802 99.6461H16.6877L7.41874 100.22ZM7.21522 93.7628L7.58524 100.035L16.5582 99.4981L16.1882 93.1338L15.3741 93.1708L15.7071 98.573L12.2475 98.795L11.97 94.0588L11.1929 94.0958L11.4704 98.832L8.28828 99.0355L7.97377 93.7258L7.21522 93.7628Z" fill="#221F51"/>
<path d="M16.7804 84.0867L16.6139 85.9923L7.17847 88.3234L7.28948 87.1024L16.1699 84.9933L7.826 81.2931L7.93701 80.072L16.7804 84.0867Z" fill="#221F51"/>
<path d="M7.06738 88.4344L7.19689 87.0284L15.8738 84.9747L7.71491 81.3486L7.84442 79.9425L16.8729 84.0312L16.6879 86.0663L7.06738 88.4344ZM7.36339 87.1579L7.27089 88.1754L16.5213 85.8998L16.6694 84.1237L7.99243 80.2015L7.89992 81.2191L16.4473 84.9933L7.36339 87.1579Z" fill="#221F51"/>
<path d="M15.8922 70.6182L19.6109 69.7116L19.2964 70.9697L15.0967 71.9687L14.4306 74.6144L18.1308 75.5579L17.8533 76.6865L8.95435 74.4293L9.95339 70.5072C10.1014 69.9151 10.3419 69.3971 10.6749 68.9901C11.0079 68.5646 11.3965 68.2686 11.859 68.102C12.3215 67.9355 12.8025 67.917 13.3206 68.0465C14.0421 68.2315 14.5786 68.6201 14.9116 69.2121C15.2447 69.8041 15.3742 70.5072 15.2632 71.3027C15.4112 70.8957 15.6147 70.6737 15.8922 70.6182ZM14.2086 71.6357C14.3566 71.0252 14.3381 70.4887 14.1161 70.0261C13.8941 69.5636 13.5426 69.2676 13.0245 69.1381C12.5065 69.0086 12.0625 69.1011 11.6555 69.4156C11.2485 69.7301 10.9709 70.1741 10.8229 70.7847L10.1384 73.5228L13.5241 74.3738L14.2086 71.6357Z" fill="#221F51"/>
<path d="M17.9089 76.7975L8.82495 74.5034L9.8425 70.4887C9.99051 69.8782 10.2495 69.3416 10.5825 68.9346C10.9341 68.4906 11.3226 68.1946 11.8036 68.0281C12.2846 67.8616 12.7841 67.8431 13.3207 67.9726C14.0792 68.1576 14.6342 68.5646 14.9673 69.1751C15.2448 69.6746 15.3928 70.2482 15.3743 70.8772C15.5223 70.6922 15.6703 70.5812 15.8738 70.5442L19.7405 69.6006L19.3705 71.0622L15.1708 72.0613L14.5417 74.5589L18.2419 75.5024L17.9089 76.7975ZM9.04696 74.3739L17.7794 76.5755L18.0199 75.6319L14.3197 74.6884L15.0228 71.8948L15.0783 71.8763L15.1523 71.2842C15.2633 70.5257 15.1523 69.8411 14.8193 69.2491C14.5047 68.6941 13.9867 68.3056 13.2837 68.1206C12.7841 67.9911 12.3216 68.0096 11.8776 68.1761C11.4336 68.3426 11.0636 68.6201 10.7305 69.0271C10.416 69.4156 10.1755 69.9152 10.0275 70.5072L9.04696 74.3739ZM19.4815 69.8412L15.9108 70.7107C15.6703 70.7662 15.4853 70.9512 15.3373 71.3397L15.1153 71.8763L19.2225 70.8957L19.4815 69.8412ZM13.5797 74.4849L10.0275 73.5968L10.7305 70.7662C10.8786 70.1372 11.1561 69.6746 11.6001 69.3416C12.0256 69.0086 12.5066 68.9161 13.0432 69.0456C13.5797 69.1751 13.9497 69.4896 14.1902 69.9892C14.4122 70.4517 14.4492 71.0067 14.2827 71.6542L13.5797 74.4849ZM10.2495 73.4673L13.4502 74.2814L14.1162 71.6357C14.2642 71.0252 14.2272 70.5257 14.0237 70.0817C13.8017 69.6376 13.4687 69.3601 12.9877 69.2491C12.4881 69.1196 12.0811 69.2121 11.6926 69.5081C11.3041 69.8227 11.0266 70.2482 10.8971 70.8217L10.2495 73.4673Z" fill="#221F51"/>
<path d="M21.1835 54.7815L23.8107 59.1107L23.1816 60.2947L20.4435 55.4105L15.1152 55.8915L15.7258 54.7444L20.573 54.4484L18.0569 50.3042L18.6674 49.1387L21.2945 53.8009L26.8633 53.3199L26.2528 54.4854L21.1835 54.7815Z" fill="#221F51"/>
<path d="M23.1816 60.4982L20.388 55.5214L14.9487 56.021L15.6703 54.6704L20.4065 54.3744L17.9459 50.3227L18.6674 48.9536L21.3501 53.7083L27.0298 53.2273L26.3083 54.5964L21.3501 54.8924L23.9217 59.1291L23.1816 60.4982ZM20.499 55.3179L23.1816 60.1097L23.6997 59.1291L21.0355 54.7074L26.1973 54.4114L26.6968 53.4493L21.239 53.9119L18.6859 49.3421L18.1864 50.3042L20.758 54.5224L15.8183 54.8184L15.3187 55.7619L20.499 55.3179Z" fill="#221F51"/>
<path d="M28.3435 46.9554L29.7126 49.0275L28.991 49.9895L23.7183 41.7196L24.7543 40.332L34.1343 43.1442L33.4127 44.1062L31.0446 43.3662L28.3435 46.9554ZM24.5693 41.2756L27.7515 46.1043L30.0826 43.0147L24.5693 41.2756Z" fill="#221F51"/>
<path d="M28.9724 50.156L23.6072 41.7381L24.7172 40.2581L34.3007 43.1257L33.4682 44.2358L31.1 43.4957L28.4544 46.9739L29.8235 49.046L28.9724 50.156ZM23.8292 41.7196L28.9909 49.8045L29.6015 49.009L28.2324 46.9369L31.026 43.2552L33.3942 43.9952L34.0047 43.1997L24.8097 40.4431L23.8292 41.7196ZM27.7514 46.2709L24.3657 41.1276L30.249 42.9777L27.7514 46.2709ZM24.7912 41.4421L27.7514 45.9378L29.916 43.0517L24.7912 41.4421Z" fill="#221F51"/>
<path d="M41.5528 35.5774L37.1866 39.8326L30.7853 33.2463L31.6178 32.4323L37.3346 38.297L40.8683 34.8559L41.5528 35.5774Z" fill="#221F51"/>
<path d="M37.1867 39.9436L30.6559 33.2463L31.6179 32.3027L37.3347 38.1675L40.8684 34.7264L41.7009 35.5774L37.1867 39.9436ZM30.9149 33.2463L37.2052 39.6846L41.4419 35.5589L40.8684 34.9669L37.3162 38.4265L31.5994 32.5617L30.9149 33.2463Z" fill="#221F51"/>
<path d="M48.8607 31.2851C48.9532 31.4331 49.1012 31.5071 49.2677 31.5256C49.4343 31.5441 49.6008 31.4701 49.7858 31.3406L51.2473 30.3045L51.6544 30.878L49.6748 32.2656C49.3788 32.4691 49.0827 32.5616 48.7867 32.5431C48.4907 32.5246 48.2687 32.3766 48.0837 32.1176C47.9172 31.8771 47.8617 31.6181 47.9172 31.3036C47.9727 31.0075 48.1022 30.693 48.3057 30.3785C47.6212 30.841 46.8996 31.0815 46.1226 31.1185C45.3456 31.1555 44.6055 30.989 43.884 30.6375C43.181 30.286 42.5704 29.7495 42.0709 29.0464C41.5714 28.3249 41.2569 27.5664 41.1643 26.7708C41.0718 25.9568 41.1828 25.1982 41.4974 24.4767C41.8119 23.7552 42.3114 23.1446 42.9959 22.6636C43.6805 22.1826 44.4205 21.9051 45.2161 21.8496C46.0116 21.7941 46.7701 21.9606 47.4917 22.3121C48.2132 22.6636 48.8237 23.2001 49.3233 23.9217C49.7488 24.5322 50.0448 25.1983 50.1743 25.9013C50.3038 26.6043 50.2668 27.2889 50.0818 27.9549C49.8968 28.6209 49.5453 29.213 49.0642 29.731C48.7127 30.4525 48.6387 30.9705 48.8607 31.2851ZM44.439 29.657C44.994 29.953 45.5676 30.101 46.1596 30.0825C46.7516 30.064 47.3252 29.879 47.8432 29.509C48.3612 29.1389 48.7312 28.6764 48.9532 28.1029C49.1753 27.5294 49.2307 26.9373 49.1197 26.3268C49.0272 25.6978 48.7867 25.1242 48.4167 24.6062C48.0282 24.0512 47.5472 23.6257 46.9921 23.3297C46.4371 23.0337 45.8636 22.8856 45.2531 22.9041C44.6425 22.9226 44.0875 23.1077 43.5695 23.4777C43.0514 23.8477 42.6814 24.3102 42.4594 24.8652C42.2374 25.4203 42.1819 26.0123 42.2744 26.6228C42.3669 27.2334 42.6074 27.8254 42.9959 28.3619C43.4215 28.9169 43.884 29.3425 44.439 29.657Z" fill="#221F51"/>
<path d="M48.8423 32.6357C48.8238 32.6357 48.7868 32.6357 48.7683 32.6357C48.4538 32.6172 48.2132 32.4692 47.9912 32.1732C47.8062 31.9142 47.7507 31.6182 47.8062 31.2852C47.8432 31.0816 47.9172 30.8596 48.0282 30.6561C47.4362 31.0076 46.7887 31.1741 46.1041 31.2111C45.3271 31.2481 44.5686 31.0816 43.8285 30.7301C43.107 30.3786 42.4965 29.8236 41.9784 29.1205C41.4604 28.362 41.1459 27.585 41.0534 26.8079C40.9609 25.9754 41.0719 25.2168 41.3864 24.4768C41.7009 23.7368 42.2189 23.1077 42.922 22.6267C43.625 22.1272 44.3835 21.8497 45.1791 21.7942C45.9561 21.7387 46.7517 21.9052 47.4917 22.2567C48.2317 22.6082 48.8423 23.1632 49.3603 23.9033C49.8043 24.5508 50.1003 25.2169 50.2298 25.9199C50.3593 26.6229 50.3223 27.326 50.1373 28.0105C49.9523 28.658 49.6008 29.2686 49.1013 29.8051C48.7683 30.4896 48.6943 30.9706 48.8978 31.2481C48.9718 31.3592 49.0828 31.4332 49.2308 31.4517C49.3603 31.4702 49.4898 31.4147 49.6933 31.2852L51.2289 30.1936L51.7469 30.9151L49.6933 32.3582C49.4343 32.5432 49.1383 32.6357 48.8423 32.6357ZM48.6203 30.0456L48.3797 30.4341C48.1947 30.7301 48.0652 31.0261 48.0097 31.3221C47.9542 31.5997 48.0097 31.8402 48.1577 32.0622C48.3427 32.3027 48.5278 32.4322 48.7868 32.4507C49.0643 32.4692 49.3418 32.3767 49.6193 32.1917L51.5249 30.8596L51.2289 30.4341L49.8413 31.4146C49.6193 31.5812 49.4343 31.6367 49.2678 31.6182C49.0643 31.5997 48.8978 31.5072 48.7868 31.3407C48.5463 31.0076 48.6203 30.4526 48.9903 29.6941L49.0088 29.6756C49.4898 29.1575 49.8228 28.5655 50.0078 27.9365C50.1928 27.2704 50.2298 26.6044 50.1003 25.9199C49.9708 25.2539 49.6933 24.5878 49.2678 23.9773C48.7868 23.2743 48.1762 22.7377 47.4732 22.4047C46.7517 22.0532 45.9931 21.9052 45.2531 21.9607C44.4946 22.0162 43.7545 22.2752 43.0885 22.7562C42.4225 23.2187 41.9414 23.8108 41.6269 24.5323C41.3124 25.2354 41.2014 25.9754 41.2939 26.7709C41.3864 27.5295 41.6824 28.2695 42.1819 29.0095C42.6815 29.6941 43.2735 30.2306 43.958 30.5636C44.6796 30.9151 45.4011 31.0631 46.1411 31.0261C46.9182 30.9891 47.6027 30.7486 48.2687 30.3046L48.6203 30.0456ZM46.0486 30.1751C45.4936 30.1751 44.9201 30.0271 44.3836 29.7311C43.8285 29.4166 43.366 28.991 42.922 28.4175C42.5335 27.881 42.2744 27.2704 42.1819 26.6414C42.0894 25.9939 42.1449 25.4019 42.3669 24.8468C42.589 24.2733 42.9775 23.7923 43.514 23.4223C44.0505 23.0522 44.6056 22.8487 45.2531 22.8302C45.8636 22.8117 46.4557 22.9597 47.0292 23.2742C47.6027 23.5888 48.1022 24.0143 48.4908 24.5693C48.8793 25.1058 49.1198 25.6979 49.2123 26.3269C49.3233 26.9559 49.2678 27.5665 49.0458 28.14C48.8238 28.732 48.4538 29.1945 47.8987 29.5831C47.3807 29.9531 46.7887 30.1566 46.1596 30.1751C46.1226 30.1751 46.0856 30.1751 46.0486 30.1751ZM44.4761 29.5831C45.0311 29.8791 45.5861 30.0086 46.1411 29.9901C46.7332 29.9716 47.2882 29.7866 47.7692 29.4351C48.2872 29.065 48.6388 28.621 48.8423 28.066C49.0643 27.511 49.1198 26.9374 49.0088 26.3454C48.9163 25.7349 48.6943 25.1798 48.3242 24.6618C47.9542 24.1253 47.4732 23.6998 46.9367 23.4223C46.3816 23.1262 45.8266 22.9967 45.2531 23.0152C44.6611 23.0337 44.1245 23.2187 43.625 23.5703C43.1255 23.9218 42.7555 24.3843 42.552 24.9208C42.3484 25.4389 42.2744 26.0309 42.3669 26.6229C42.4595 27.2334 42.7 27.807 43.07 28.325C43.4955 28.88 43.9395 29.2685 44.4761 29.5831Z" fill="#221F51"/>
<path d="M56.2982 22.6637L56.5572 25.1243L55.4842 25.6424L54.6146 15.8924L56.1872 15.1523L63.236 21.9792L62.163 22.4972L60.4054 20.7396L56.2982 22.6637ZM55.5767 15.9109L56.1872 21.6647L59.6654 19.9996L55.5767 15.9109Z" fill="#221F51"/>
<path d="M55.4101 25.7904L54.5221 15.8369L56.2057 15.0414L56.2427 15.0784L63.384 21.9977L62.126 22.6083L60.3684 20.8507L56.3907 22.7378L56.6497 25.1984L55.4101 25.7904ZM54.7071 15.9479L55.5581 25.5129L56.4462 25.0874L56.1872 22.6268L60.4054 20.6287L62.163 22.3862L63.051 21.9607L56.1502 15.2819L54.7071 15.9479ZM56.1132 21.7942L55.4656 15.6519L59.8319 20.0181L56.1132 21.7942ZM55.7062 16.1514L56.2797 21.5167L59.5173 19.9626L55.7062 16.1514Z" fill="#221F51"/>
<path d="M71.6353 15.6889L74.3179 18.4456L73.0784 18.8156L70.0812 15.6889L67.4541 16.4475L68.5271 20.1107L67.4171 20.4252L64.8455 11.6002L68.7307 10.4717C69.3227 10.3052 69.8777 10.2497 70.4142 10.3237C70.9508 10.3977 71.3948 10.5827 71.7833 10.8972C72.1533 11.2117 72.4308 11.6187 72.5788 12.1368C72.7824 12.8583 72.7269 13.5058 72.3753 14.0979C72.0238 14.6899 71.4873 15.1524 70.7473 15.4669C71.1358 15.3929 71.4503 15.4669 71.6353 15.6889ZM69.9147 14.7454C70.5252 14.5604 70.9693 14.2644 71.2468 13.8573C71.5428 13.4318 71.5983 12.9693 71.4503 12.4698C71.3023 11.9703 70.9878 11.6187 70.5252 11.4337C70.0627 11.2487 69.5262 11.2302 68.9157 11.4152L66.196 12.2108L67.1766 15.5594L69.9147 14.7454Z" fill="#221F51"/>
<path d="M67.3616 20.5362L64.7345 11.5448L68.7122 10.3977C69.3412 10.2312 69.8963 10.1757 70.4328 10.2497C70.9878 10.3237 71.4503 10.5272 71.8388 10.8417C72.2459 11.1747 72.5234 11.6188 72.6714 12.1183C72.8934 12.8768 72.8194 13.5428 72.4679 14.1534C72.1719 14.6529 71.7463 15.0599 71.1913 15.3559C71.4133 15.3929 71.5798 15.4854 71.7093 15.6335L74.4845 18.5011L73.0414 18.9266L70.0443 15.8L67.5651 16.5215L68.6382 20.1847L67.3616 20.5362ZM64.975 11.6743L67.4911 20.3142L68.4162 20.0552L67.3431 16.392L70.1183 15.5964L70.1553 15.6335L70.7288 15.3929C71.4318 15.0969 71.9684 14.6529 72.3199 14.0609C72.6529 13.5058 72.7084 12.8768 72.5049 12.1738C72.3754 11.6928 72.1164 11.3042 71.7463 10.9897C71.3763 10.6937 70.9508 10.5087 70.4328 10.4347C69.9148 10.3607 69.3782 10.4162 68.7862 10.5827L64.975 11.6743ZM70.1923 15.6705L73.1154 18.7046L74.1515 18.3901L71.5798 15.7445C71.3763 15.504 71.0248 15.504 70.7843 15.5595L70.1923 15.6705ZM67.1211 15.6705L66.0851 12.1553L68.8972 11.3412C69.5077 11.1562 70.0628 11.1562 70.5623 11.3597C71.0433 11.5448 71.3948 11.9333 71.5428 12.4513C71.7093 12.9878 71.6353 13.4873 71.3208 13.9129C71.0248 14.3384 70.5623 14.6529 69.9332 14.8379L67.1211 15.6705ZM66.3256 12.2848L67.2506 15.4484L69.8962 14.6529C70.4883 14.4679 70.9138 14.1904 71.1728 13.8019C71.4503 13.4133 71.5058 12.9878 71.3578 12.4883C71.2098 12.0073 70.9323 11.6928 70.4883 11.5078C70.0258 11.3227 69.5077 11.3227 68.9342 11.4893L66.3256 12.2848Z" fill="#221F51"/>
<path d="M80.627 16.7249C79.9055 16.3919 79.3134 15.8924 78.8509 15.2263C78.3884 14.5603 78.1109 13.8018 77.9999 12.9322C77.8889 12.0627 77.9999 11.2486 78.2959 10.4901C78.5919 9.73157 79.0544 9.12105 79.6834 8.62152C80.3125 8.1405 81.034 7.84448 81.8666 7.73347C82.6991 7.64097 83.4761 7.75198 84.1977 8.08499C84.9192 8.41801 85.5112 8.91753 85.9738 9.58356C86.4363 10.2496 86.7323 11.0081 86.8248 11.8777C86.9173 12.7287 86.8248 13.5428 86.5288 14.3013C86.2328 15.0598 85.7702 15.6889 85.1412 16.1699C84.5122 16.6694 83.7907 16.9654 82.9581 17.0579C82.1256 17.1874 81.3485 17.0579 80.627 16.7249ZM84.4937 15.3744C84.9562 14.9858 85.2892 14.4863 85.4927 13.8943C85.6962 13.3023 85.7702 12.6917 85.6962 12.0442C85.6222 11.3782 85.4002 10.7676 85.0672 10.2496C84.7157 9.71307 84.2717 9.32456 83.7352 9.04704C83.1986 8.76953 82.6066 8.67702 81.9961 8.75102C81.367 8.82502 80.812 9.06554 80.368 9.45406C79.9055 9.84258 79.5724 10.3236 79.3689 10.9156C79.1654 11.5077 79.0914 12.1367 79.1839 12.7842C79.2579 13.4503 79.4799 14.0608 79.813 14.5788C80.146 15.1153 80.59 15.5039 81.1265 15.7814C81.663 16.0589 82.2551 16.1514 82.8841 16.0774C83.4761 16.0034 84.0312 15.7814 84.4937 15.3744Z" fill="#221F51"/>
<path d="M82.3289 17.1874C81.7369 17.1874 81.1449 17.0579 80.5898 16.7989C79.8498 16.4659 79.2393 15.9479 78.7767 15.2633C78.3142 14.5973 78.0182 13.8203 77.9072 12.9322C77.7962 12.0812 77.9072 11.2486 78.2032 10.4531C78.4992 9.69454 78.9618 9.06552 79.6093 8.54749C80.2568 8.04797 80.9784 7.75195 81.8294 7.64094C82.6804 7.54844 83.4945 7.65945 84.216 7.99246C84.9561 8.32548 85.5666 8.8435 86.0291 9.52804C86.5101 10.2311 86.8062 11.0081 86.8987 11.8592C86.9912 12.7287 86.8987 13.5612 86.6026 14.3198C86.3066 15.0968 85.8256 15.7443 85.1781 16.2254C84.5305 16.7434 83.809 17.0394 82.958 17.1319C82.7545 17.1874 82.5509 17.1874 82.3289 17.1874ZM82.4214 7.80745C82.2364 7.80745 82.0699 7.82596 81.8849 7.84446C81.0709 7.95546 80.3678 8.23298 79.7573 8.714C79.1283 9.21353 78.6842 9.80555 78.4067 10.5456C78.1107 11.3041 78.0182 12.1182 78.1107 12.9322C78.2217 13.8018 78.4992 14.5418 78.9433 15.1893C79.3873 15.8369 79.9793 16.3364 80.6824 16.6509C81.4039 16.9839 82.1809 17.0949 82.958 16.9839C83.772 16.8914 84.475 16.6139 85.1041 16.1144C85.7146 15.6518 86.1771 15.0413 86.4546 14.2828C86.7321 13.5612 86.8432 12.7472 86.7507 11.9147C86.6581 11.1006 86.3806 10.3421 85.9181 9.65754C85.4741 9.01001 84.8821 8.51048 84.179 8.19597C83.624 7.93696 83.032 7.80745 82.4214 7.80745ZM82.4769 16.1884C81.9774 16.1884 81.5149 16.0774 81.0894 15.8554C80.5158 15.5593 80.0718 15.1523 79.7388 14.6158C79.3873 14.0793 79.1653 13.4502 79.0913 12.7842C78.9988 12.1552 79.0728 11.5076 79.2763 10.8786C79.4798 10.2681 79.8128 9.78705 80.2938 9.38003C80.7563 8.99151 81.3299 8.73249 81.9774 8.65849C82.6249 8.58449 83.217 8.67699 83.772 8.97301C84.3455 9.26902 84.7896 9.67605 85.1411 10.2126C85.4926 10.7491 85.7146 11.3781 85.7886 12.0442C85.8626 12.6917 85.7886 13.3022 85.5851 13.9313C85.3816 14.5418 85.0301 15.0598 84.5675 15.4483C84.105 15.8554 83.55 16.0959 82.9025 16.1699C82.7545 16.1884 82.6249 16.1884 82.4769 16.1884ZM82.4029 8.825C82.2734 8.825 82.1439 8.825 82.0144 8.8435C81.4039 8.9175 80.8674 9.13952 80.4418 9.52804C79.9793 9.91656 79.6648 10.3791 79.4613 10.9526C79.2578 11.5631 79.2023 12.1737 79.2763 12.7842C79.3503 13.4132 79.5538 14.0238 79.8868 14.5418C80.2013 15.0413 80.6083 15.4298 81.1634 15.7073C81.6629 15.9664 82.2364 16.0589 82.8655 15.9849C83.476 15.9109 83.994 15.6888 84.4195 15.3003C84.8635 14.9303 85.1966 14.4493 85.3816 13.8573C85.5851 13.2652 85.6591 12.6732 85.5851 12.0442C85.5111 11.4151 85.3076 10.8046 84.9746 10.2866C84.6415 9.78706 84.216 9.39853 83.6795 9.12101C83.291 8.936 82.8655 8.825 82.4029 8.825Z" fill="#221F51"/>
<path d="M100.275 7.64115L99.5534 13.2099C99.4424 14.061 99.5904 14.727 99.9789 15.2635C100.367 15.7816 100.959 16.0961 101.736 16.2071C102.514 16.2996 103.161 16.1516 103.679 15.7446C104.197 15.3375 104.512 14.7085 104.623 13.8945L105.344 8.32569L106.491 8.47369L105.77 14.061C105.677 14.801 105.437 15.43 105.067 15.9296C104.697 16.4291 104.197 16.7991 103.605 17.0211C103.013 17.2431 102.347 17.2986 101.625 17.2061C100.885 17.1136 100.256 16.8731 99.7384 16.5216C99.2204 16.1516 98.8503 15.6891 98.6098 15.097C98.3693 14.505 98.3138 13.8575 98.4063 13.1174L99.1278 7.53015L100.275 7.64115Z" fill="#221F51"/>
<path d="M102.273 17.3355C102.069 17.3355 101.847 17.317 101.607 17.2985C100.885 17.206 100.238 16.9655 99.6828 16.5955C99.1463 16.207 98.7578 15.726 98.5173 15.1339C98.2768 14.5419 98.2028 13.8944 98.3138 13.1173L99.0538 7.45605L100.386 7.58556L99.6458 13.2469C99.5348 14.0609 99.6828 14.7084 100.053 15.2264C100.423 15.726 100.996 16.022 101.755 16.133C102.513 16.2255 103.124 16.0775 103.624 15.689C104.123 15.3004 104.419 14.7084 104.53 13.8944L105.27 8.2331L106.602 8.39961L105.862 14.0794C105.77 14.8194 105.529 15.467 105.141 15.985C104.752 16.503 104.253 16.873 103.642 17.1135C103.217 17.2615 102.772 17.3355 102.273 17.3355ZM99.2203 7.64106L98.5173 13.1358C98.4248 13.8759 98.4803 14.5049 98.7208 15.0599C98.9428 15.6335 99.3128 16.0775 99.8124 16.4475C100.33 16.799 100.959 17.021 101.662 17.1135C102.384 17.206 103.032 17.1505 103.605 16.9285C104.179 16.7065 104.66 16.355 105.03 15.874C105.4 15.3744 105.622 14.7639 105.714 14.0424L106.417 8.54761L105.455 8.4181L104.752 13.8944C104.641 14.7454 104.308 15.393 103.772 15.8C103.235 16.207 102.569 16.3735 101.755 16.281C100.941 16.17 100.33 15.837 99.9419 15.3004C99.5348 14.7269 99.3868 14.0424 99.4978 13.1728L100.201 7.69658L99.2203 7.64106Z" fill="#221F51"/>
<path d="M117.962 20.9617L116.112 20.3882L113.855 10.6567L111.32 18.9266L110.266 18.6121L112.967 9.84265L114.798 10.3977L117.055 20.1477L119.608 11.8593L120.663 12.1738L117.962 20.9617Z" fill="#221F51"/>
<path d="M118.017 21.0727L116.038 20.4622L113.855 11.0082L111.394 19.0376L110.154 18.6676L112.911 9.71313L114.872 10.3052L114.891 10.3607L117.074 19.7776L119.553 11.7297L120.792 12.0998L118.017 21.0727ZM116.186 20.3142L117.888 20.8507L120.533 12.2293L119.664 11.9702L117.037 20.4992L114.724 10.4532L113.041 9.93515L110.395 18.5381L111.264 18.7971L113.873 10.2682L116.186 20.3142Z" fill="#221F51"/>
<path d="M127.638 15.171L123.808 23.5149L122.754 23.0338L126.583 14.6899L127.638 15.171Z" fill="#221F51"/>
<path d="M123.864 23.6444L122.643 23.0893L126.546 14.5604L127.767 15.1155L123.864 23.6444ZM122.883 22.9968L123.771 23.4039L127.527 15.2265L126.639 14.8194L122.883 22.9968Z" fill="#221F51"/>
<path d="M132.17 28.0661L130.542 27.0671L132.651 17.5946L133.688 18.2421L131.634 27.1411L138.664 21.2763L139.719 21.9238L132.17 28.0661Z" fill="#221F51"/>
<path d="M132.189 28.177L130.45 27.104L132.596 17.428L133.798 18.1865L131.8 26.8819L138.664 21.1652L139.885 21.9237L132.189 28.177ZM130.653 27.03L132.17 27.955L139.552 21.9422L138.664 21.4057L131.486 27.4L133.576 18.2975L132.707 17.761L130.653 27.03Z" fill="#221F51"/>
<path d="M143.363 36.595L138.35 32.3583L144.289 25.3464L149.228 29.5276L148.599 30.2677L144.548 26.8265L142.605 29.1206L146.231 32.1918L145.602 32.9318L141.976 29.8607L139.848 32.3583L143.974 35.855L143.363 36.595Z" fill="#221F51"/>
<path d="M143.363 36.7244L138.22 32.3767L144.27 25.2354L149.339 29.5276L148.599 30.4156L144.548 26.9744L142.734 29.1205L146.361 32.1917L145.621 33.0797L141.994 30.0086L139.996 32.3582L144.122 35.8549L143.363 36.7244ZM138.479 32.3397L143.345 36.4469L143.844 35.8549L139.719 32.3582L141.957 29.7311L145.584 32.8022L146.102 32.2102L142.475 29.139L144.529 26.7154L148.581 30.1566L149.08 29.5646L144.289 25.5129L138.479 32.3397Z" fill="#221F51"/>
<path d="M152.78 41.7196L151.411 45.3088L150.56 44.3283L152.133 40.3136L150.338 38.26L147.452 40.7761L146.693 39.9065L153.631 33.8752L156.295 36.9279C156.702 37.3904 156.98 37.8714 157.128 38.3895C157.276 38.9075 157.295 39.3885 157.184 39.8695C157.054 40.3506 156.795 40.7576 156.388 41.1091C155.833 41.5901 155.204 41.8121 154.519 41.7566C153.835 41.7011 153.206 41.3866 152.595 40.8501C152.817 41.1461 152.873 41.4421 152.78 41.7196ZM152.891 39.74C153.298 40.221 153.761 40.4986 154.26 40.5911C154.76 40.6836 155.204 40.5541 155.611 40.2025C155.999 39.851 156.184 39.4255 156.166 38.926C156.147 38.4265 155.925 37.9269 155.518 37.4644L153.668 35.3368L151.041 37.6309L152.891 39.74Z" fill="#221F51"/>
<path d="M151.448 45.4939L150.468 44.3468L152.04 40.3321L150.338 38.3895L147.452 40.9056L146.564 39.9066L153.632 33.7643L156.351 36.8909C156.777 37.372 157.054 37.853 157.202 38.3895C157.35 38.926 157.369 39.4256 157.258 39.9066C157.128 40.4061 156.851 40.8316 156.425 41.2017C155.852 41.7012 155.204 41.9232 154.483 41.8677C153.928 41.8307 153.391 41.6087 152.855 41.2201C152.91 41.4052 152.91 41.5902 152.855 41.7752L151.448 45.4939ZM150.671 44.3098L151.374 45.1238L152.688 41.6827C152.781 41.4237 152.707 41.1647 152.521 40.9056L152.188 40.4431L150.671 44.3098ZM152.207 40.3876L152.651 40.7761C153.262 41.3127 153.872 41.6087 154.52 41.6642C155.167 41.7197 155.778 41.5162 156.314 41.0351C156.703 40.7021 156.962 40.3136 157.073 39.8511C157.184 39.3886 157.165 38.926 157.017 38.4265C156.869 37.927 156.61 37.4645 156.203 37.0019L153.595 34.0233L146.805 39.9251L147.434 40.6466L150.32 38.1305L152.207 40.2951V40.3876ZM154.557 40.7206C154.446 40.7206 154.335 40.7021 154.224 40.6836C153.687 40.5911 153.206 40.2951 152.799 39.7956L150.893 37.6125L153.65 35.2074L155.556 37.409C155.981 37.89 156.203 38.408 156.222 38.926C156.24 39.4441 156.037 39.9066 155.63 40.2766C155.334 40.5726 154.964 40.7206 154.557 40.7206ZM151.171 37.6495L152.966 39.6846C153.354 40.1286 153.798 40.4061 154.279 40.4986C154.742 40.5911 155.167 40.4616 155.556 40.1286C155.926 39.7956 156.092 39.4071 156.074 38.926C156.055 38.445 155.833 37.964 155.445 37.52L153.65 35.4664L151.171 37.6495Z" fill="#221F51"/>
<path d="M155.148 49.49C155.204 48.6945 155.555 47.9915 156.222 47.3994L156.814 48.3245C156.388 48.7685 156.148 49.268 156.11 49.8046C156.073 50.3411 156.259 50.9146 156.629 51.5066C156.999 52.0802 157.424 52.4687 157.924 52.6537C158.423 52.8387 158.886 52.8017 159.33 52.5242C159.718 52.2837 159.959 51.9877 160.051 51.6362C160.144 51.2846 160.088 50.8591 159.903 50.3596L159.126 48.269C158.867 47.603 158.793 47.0109 158.904 46.5299C159.015 46.0489 159.348 45.6418 159.885 45.2903C160.329 45.0128 160.773 44.9203 161.254 44.9758C161.716 45.0498 162.179 45.2348 162.604 45.5864C163.03 45.9379 163.418 46.3449 163.733 46.8629C164.232 47.6584 164.454 48.417 164.399 49.1385C164.343 49.8601 164.01 50.4706 163.381 51.0071L162.789 50.0821C163.196 49.7121 163.4 49.2865 163.418 48.8055C163.437 48.3245 163.289 47.8435 162.956 47.3254C162.604 46.7704 162.216 46.3819 161.772 46.1784C161.328 45.9749 160.921 45.9934 160.532 46.2339C160.199 46.4559 159.977 46.6964 159.903 46.9924C159.829 47.2884 159.885 47.64 160.051 48.084L160.884 50.2671C161.161 50.9886 161.235 51.5991 161.087 52.1172C160.958 52.6352 160.606 53.0607 160.014 53.4307C159.533 53.7267 159.052 53.8563 158.534 53.8378C158.016 53.8008 157.535 53.6343 157.054 53.3012C156.592 52.9867 156.185 52.5427 155.833 51.9877C155.333 51.1181 155.093 50.2856 155.148 49.49Z" fill="#221F51"/>
<path d="M158.627 53.9303C158.59 53.9303 158.553 53.9303 158.534 53.9303C157.979 53.8933 157.48 53.7083 156.999 53.3753C156.536 53.0608 156.111 52.6168 155.759 52.0432C155.241 51.1367 155.001 50.2856 155.056 49.4901C155.112 48.6576 155.482 47.936 156.166 47.344L156.24 47.27L156.925 48.343L156.869 48.3986C156.462 48.8241 156.222 49.3051 156.185 49.8231C156.148 50.3226 156.314 50.8777 156.684 51.4697C157.054 52.0432 157.461 52.3947 157.924 52.5798C158.405 52.7648 158.83 52.7093 159.256 52.4503C159.626 52.2282 159.848 51.9507 159.94 51.6177C160.033 51.2847 159.977 50.8962 159.792 50.3967L159.015 48.3061C158.756 47.6215 158.682 47.0295 158.793 46.5115C158.904 46.0119 159.237 45.5864 159.811 45.2164C160.255 44.9389 160.736 44.8279 161.235 44.8834C161.753 44.9759 162.235 45.1794 162.642 45.5124C163.123 45.9194 163.493 46.3449 163.789 46.8075C164.288 47.6215 164.529 48.3986 164.473 49.1386C164.418 49.8786 164.066 50.5077 163.419 51.0627L163.345 51.1367L162.66 50.0636L162.716 50.0081C163.104 49.6566 163.289 49.2681 163.308 48.8056C163.326 48.343 163.178 47.8805 162.864 47.381C162.512 46.826 162.142 46.456 161.716 46.271C161.309 46.0859 160.921 46.1044 160.569 46.3265C160.236 46.5485 160.051 46.7705 159.977 47.0295C159.903 47.2885 159.959 47.6215 160.125 48.0655L160.958 50.2486C161.254 51.0072 161.309 51.6177 161.161 52.1542C161.032 52.6908 160.662 53.1348 160.051 53.5233C159.589 53.7823 159.126 53.9303 158.627 53.9303ZM156.203 47.5475C155.611 48.1025 155.297 48.7501 155.241 49.5086C155.186 50.2671 155.408 51.0812 155.907 51.9507C156.259 52.5058 156.647 52.9313 157.091 53.2273C157.535 53.5418 158.016 53.7083 158.516 53.7453C159.015 53.7638 159.478 53.6343 159.94 53.3568C160.514 53.0053 160.847 52.5798 160.976 52.0987C161.124 51.5992 161.05 51.0257 160.773 50.3041L159.94 48.121C159.755 47.64 159.718 47.2885 159.792 46.974C159.866 46.678 160.088 46.419 160.458 46.1599C160.884 45.9009 161.309 45.8824 161.79 46.1044C162.235 46.3079 162.642 46.6965 163.012 47.2885C163.345 47.825 163.511 48.3246 163.493 48.8241C163.474 49.3051 163.271 49.7491 162.901 50.1191L163.4 50.8962C163.955 50.3967 164.251 49.8231 164.307 49.1571C164.362 48.4541 164.14 47.714 163.659 46.937C163.382 46.4745 163.012 46.0674 162.549 45.6789C162.161 45.3644 161.735 45.1609 161.235 45.0869C160.754 45.0314 160.347 45.1239 159.94 45.3829C159.404 45.7344 159.108 46.1229 158.997 46.567C158.886 47.0295 158.96 47.603 159.219 48.2505L159.996 50.3412C160.199 50.8777 160.236 51.3032 160.144 51.6732C160.051 52.0432 159.792 52.3577 159.385 52.6168C158.923 52.9128 158.442 52.9498 157.905 52.7463C157.387 52.5613 156.962 52.1727 156.573 51.5622C156.185 50.9332 156 50.3411 156.037 49.8046C156.074 49.2681 156.296 48.7686 156.721 48.3245L156.203 47.5475Z" fill="#221F51"/>
<path d="M168.765 56.3354L160.477 60.2576L159.977 59.2215L168.266 55.2993L168.765 56.3354Z" fill="#221F51"/>
<path d="M160.421 60.3871L159.848 59.1846L168.321 55.1884L168.895 56.3909L160.421 60.3871ZM160.088 59.2771L160.514 60.1466L168.636 56.3169L168.21 55.4474L160.088 59.2771Z" fill="#221F51"/>
<path d="M171.466 65.9189L163.696 68.509L163.326 67.4175L171.096 64.8274L170.134 61.9412L171.078 61.6267L173.372 68.4905L172.428 68.8051L171.466 65.9189Z" fill="#221F51"/>
<path d="M172.373 68.916L171.411 66.0299L163.659 68.62L163.233 67.3619L171.004 64.7718L170.042 61.8856L171.152 61.5156L173.501 68.546L172.373 68.916ZM171.522 65.7893L172.484 68.6755L173.242 68.4165L171.004 61.7376L170.245 61.9967L171.207 64.8828L163.455 67.4729L163.77 68.3795L171.522 65.7893Z" fill="#221F51"/>
<path d="M166.878 82.2922L165.731 75.8169L174.759 74.2258L175.888 80.6086L174.926 80.7752L174.001 75.5394L171.059 76.0574L171.873 80.7196L170.911 80.8862L170.097 76.2239L166.86 76.7975L167.803 82.1257L166.878 82.2922Z" fill="#221F51"/>
<path d="M166.804 82.3847L166.786 82.2922L165.62 75.7244L174.833 74.0963L175.999 80.6456L174.852 80.8491L173.927 75.6134L171.17 76.0944L171.984 80.7566L170.837 80.9602L170.023 76.2979L166.971 76.8344L167.914 82.1627L166.804 82.3847ZM165.842 75.8909L166.952 82.1812L167.711 82.0517L166.767 76.7234L170.19 76.1129L171.004 80.7752L171.781 80.6456L170.967 75.9834L174.093 75.4284L175.018 80.6641L175.795 80.5346L174.704 74.3368L165.842 75.8909Z" fill="#221F51"/>
<path d="M175.592 90.3586L167.415 90.5806L167.378 89.4335L175.555 89.2115L175.481 86.1589L176.48 86.1404L176.665 93.3742L175.666 93.3927L175.592 90.3586Z" fill="#221F51"/>
<path d="M175.592 93.4852L175.518 90.4511L167.341 90.6731L167.304 89.341L175.5 89.119L175.425 86.0663L176.61 86.0479L176.795 93.4667L175.592 93.4852ZM175.685 90.2661L175.759 93.3002L176.573 93.2817L176.388 86.2329L175.574 86.2514L175.647 89.304L167.47 89.526L167.507 90.4881L175.685 90.2661Z" fill="#221F51"/>
<path d="M176.203 100.294L167.063 99.461L167.174 98.314L176.314 99.1465L176.203 100.294Z" fill="#221F51"/>
<path d="M176.295 100.386L166.971 99.5351L167.1 98.203L176.425 99.054L176.295 100.386ZM167.156 99.3686L176.11 100.183L176.203 99.2206L167.248 98.4065L167.156 99.3686Z" fill="#221F51"/>
<path d="M90.4508 172.225C90.4508 172.54 90.4508 172.836 90.4508 173.15C90.4508 173.835 90.0068 174.057 89.4333 174.075C88.8598 174.094 88.3972 173.872 88.3787 173.206C88.3602 172.521 88.3602 171.855 88.3787 171.17C88.3972 170.486 88.8783 170.264 89.4333 170.282C89.9883 170.301 90.4693 170.523 90.4508 171.207C90.4508 171.559 90.4508 171.892 90.4508 172.225Z" fill="#221F51"/>
<path d="M110.654 151.023C117.832 148.081 123.864 143.586 128.822 137.665C129.599 136.74 130.32 135.76 131.171 134.668C127.157 134.668 123.382 134.668 119.608 134.65C119.146 134.65 119.053 134.909 118.942 135.242C117.98 138.072 116.759 140.792 115.39 143.438C114.021 146.102 112.263 148.507 110.543 150.912C110.469 150.931 110.376 150.949 110.432 151.06C110.45 151.079 110.58 151.042 110.654 151.023ZM73.874 151.023C73.948 151.042 74.0775 151.097 74.096 151.06C74.1701 150.949 74.0776 150.931 73.985 150.912C73.9665 150.857 73.9665 150.783 73.9295 150.746C70.1739 146.176 67.5837 140.977 65.6781 135.427C65.4561 134.816 65.1601 134.65 64.5496 134.668C61.0899 134.705 57.6487 134.687 54.2076 134.687C54.0041 134.687 53.782 134.576 53.6155 134.798C53.5785 135.02 53.745 135.149 53.8375 135.279C57.3157 140.071 61.5524 144.03 66.5292 147.212C68.8418 148.71 71.2839 150.024 73.874 151.023ZM131.523 96.4823C131.893 96.3713 132.17 96.2788 132.466 96.2048C135.279 95.4093 137.036 93.5592 137.647 90.7471C138.313 87.6574 138.294 84.5123 137.721 81.4041C137.11 78.1109 135.149 76.0388 131.837 75.3173C130.986 75.1323 130.135 74.9843 129.266 74.9843C121.921 74.9658 114.613 74.9658 107.268 74.9658C106.658 74.9658 106.232 75.1878 105.936 75.7613C105.178 77.2229 104.364 78.6845 103.586 80.1275C100.071 86.6954 96.5562 93.2262 93.041 99.794C92.8745 100.127 92.782 100.571 92.2269 100.534C91.7459 100.497 91.6719 100.109 91.5054 99.794C87.1762 91.8756 82.8655 83.9387 78.5548 76.0018C78.1293 75.2248 77.5927 74.9473 76.7047 74.9473C70.0814 74.9843 63.4765 74.9658 56.8347 74.9658C55.7616 74.9658 54.6886 75.0398 53.6155 75.1878C49.5453 75.7243 46.9367 77.8704 45.9377 81.4966C45.5121 83.0507 45.3271 84.6418 45.3086 86.2328C45.2531 89.2855 45.2716 92.3381 45.2901 95.3723C45.2901 97.1299 45.4566 98.8875 45.8822 100.59C46.6407 103.605 48.3983 105.751 51.4509 106.676C53.0235 107.157 54.6516 107.342 56.2797 107.361C62.385 107.379 68.4718 107.379 74.5771 107.361C75.6686 107.361 75.9276 107.102 75.9276 105.992C75.9461 104.752 75.9276 103.531 75.9276 102.292C75.9276 100.904 75.7056 100.701 74.3181 100.701C68.5828 100.701 62.866 100.701 57.1307 100.701C56.2982 100.701 55.4656 100.664 54.6516 100.479C53.19 100.127 52.265 99.2205 51.9875 97.7404C51.8209 96.8339 51.7284 95.9273 51.6729 95.0023C51.6359 94.2252 51.784 93.9662 52.6535 93.9662C59.8133 94.0032 66.9362 93.9847 74.096 93.9847C75.4651 93.9847 75.7611 93.6887 75.7611 92.3011C75.7611 91.3761 75.7611 90.4511 75.7611 89.526C75.7426 88.3789 75.4281 88.0459 74.2626 88.0459C70.6549 88.0459 67.0472 88.0459 63.458 88.0459C59.7948 88.0459 56.1132 88.0274 52.4685 88.0644C51.858 88.0644 51.6729 87.9164 51.6914 87.2874C51.7284 86.3623 51.821 85.4373 52.006 84.5493C52.265 83.2542 53.042 82.3476 54.3556 81.9591C55.2621 81.7001 56.1687 81.6446 57.0937 81.6446C62.3295 81.6446 67.5652 81.6631 72.801 81.6261C73.393 81.6261 73.7075 81.7926 74.0035 82.3477C77.9442 89.5445 81.9404 96.7044 85.8626 103.92C87.1577 106.288 88.9708 107.583 91.7274 107.379C92.1529 107.342 92.597 107.342 93.0225 107.379C95.7791 107.657 97.5367 106.306 98.7948 103.957C102.698 96.7044 106.676 89.5075 110.598 82.2551C110.876 81.7371 111.19 81.5151 111.801 81.5336C115.446 81.5706 119.072 81.5521 122.698 81.5521C124.4 81.5521 126.084 81.5336 127.786 81.6261C129.654 81.7371 130.727 82.8472 130.82 84.6973C130.875 85.8628 130.875 87.0469 130.82 88.2124C130.727 90.0255 129.654 91.0986 127.86 91.2836C127.249 91.3391 126.62 91.3576 126.01 91.3576C121.107 91.3576 116.223 91.3761 111.32 91.3391C110.469 91.3391 110.284 91.5796 110.321 92.3566C110.395 93.6702 110.376 95.0023 110.321 96.3343C110.284 97.0374 110.469 97.2594 111.209 97.2594C115.224 97.2224 119.201 97.2594 123.216 97.2224C123.845 97.2224 124.215 97.4259 124.585 97.9254C126.713 100.83 128.859 103.698 131.005 106.565C131.282 106.935 131.541 107.342 132.078 107.342C134.169 107.361 136.278 107.379 138.368 107.342C139.127 107.324 139.404 106.676 138.997 106.029C138.886 105.844 138.738 105.696 138.609 105.511C136.278 102.514 133.928 99.5535 131.523 96.4823ZM63.4395 70.5626C69.3043 70.5626 75.1321 70.5626 80.9969 70.5441C81.8849 70.5441 82.6805 70.6921 83.513 71.0251C85.4556 71.7836 87.1577 72.9307 88.7858 74.2072C91.3574 76.2239 93.966 75.6503 96.2786 74.1517C97.4812 73.3747 98.6468 72.5237 99.8678 71.7651C101.311 70.8586 102.846 70.5256 104.586 70.5256C115.945 70.5811 127.323 70.5626 138.683 70.5626C138.923 70.5626 139.182 70.5441 139.423 70.5626C139.978 70.5996 140.2 70.3221 140.2 69.7855C140.2 68.953 140.144 68.1204 140.218 67.2879C140.292 66.3814 139.922 66.1223 139.053 66.1408C135.76 66.1778 132.448 66.1408 129.173 66.1778C128.526 66.1778 128.341 66.0113 128.359 65.3638C128.415 64.1982 128.396 63.0142 128.359 61.8486C128.341 61.3861 128.47 61.1641 128.914 60.9421C129.969 60.4241 130.357 59.425 130.043 58.2965C129.765 57.2604 128.933 56.6314 127.767 56.6869C127.286 56.7054 127.064 56.5574 126.824 56.1689C124.086 51.6176 121.329 47.0849 118.591 42.5337C118.387 42.1822 118.313 41.9416 118.554 41.5531C119.146 40.5356 118.998 39.518 118.276 38.741C117.573 38.0195 116.574 37.8529 115.557 38.371C115.242 38.5375 115.02 38.556 114.743 38.334C112.504 36.7429 110.265 35.1703 108.027 33.5792C107.731 33.3757 107.601 33.1352 107.638 32.7282C107.731 31.5071 107.305 30.7486 106.362 30.3046C105.455 29.879 104.493 30.0826 103.679 30.9151C103.364 31.2296 103.105 31.2851 102.698 31.1741C101.662 30.8781 100.626 30.6191 99.5718 30.3786C99.1278 30.2676 98.8688 30.1196 98.7578 29.583C98.5173 28.51 97.7217 27.9365 96.7227 27.8809C95.6681 27.8254 94.8911 28.2695 94.5026 29.324C94.3175 29.8235 94.003 29.842 93.596 29.879C90.7654 30.1011 87.9532 30.3046 85.1411 30.5821C84.4751 30.6376 84.031 30.5821 83.6055 29.9716C83.0135 29.102 81.9959 28.8615 81.0709 29.1945C80.1829 29.509 79.5168 30.3416 79.5723 31.3036C79.6093 31.9141 79.3503 32.1732 78.8878 32.4322C75.3171 34.4303 71.7649 36.4469 68.2128 38.4635C67.8612 38.667 67.6392 38.7225 67.2507 38.4635C66.2702 37.8159 65.1416 37.9454 64.3831 38.7225C63.6245 39.481 63.5135 40.5911 64.1426 41.5901C64.3646 41.9601 64.3831 42.2377 64.1796 42.6077C62.0705 46.3634 59.9799 50.1191 57.8893 53.8562C57.6857 54.2263 57.5192 54.4483 57.0012 54.4298C55.8172 54.3558 54.9846 55.0403 54.6886 56.1503C54.4296 57.1309 54.8921 58.2224 55.8726 58.7035C56.3167 58.9255 56.4277 59.166 56.4092 59.6285C56.3907 61.4416 56.3537 63.2732 56.4277 65.0863C56.4647 65.9743 56.2797 66.2889 55.2991 66.2704C52.0245 66.1964 48.7683 66.2519 45.5121 66.2333C44.7166 66.2333 44.3651 66.4739 44.4391 67.2879C44.4946 67.8614 44.4576 68.4535 44.4576 69.0455C44.4576 70.5811 44.4576 70.5811 45.9377 70.5811C51.7284 70.5626 57.5747 70.5626 63.4395 70.5626ZM78.3143 111.69C74.9471 111.69 71.5984 111.709 68.2498 111.672C67.5282 111.672 67.3062 111.82 67.3617 112.578C67.6577 117.814 68.3423 122.976 69.6743 128.045C69.8223 128.618 70.0073 128.766 70.5809 128.766C76.5567 128.748 82.514 128.748 88.4898 128.766C89.2298 128.766 89.3223 128.507 89.3223 127.86C89.3038 122.754 89.2853 117.647 89.3223 112.541C89.3223 111.764 89.0633 111.653 88.3788 111.653C85.0116 111.709 81.6444 111.69 78.3143 111.69ZM104.937 128.766C107.342 128.766 109.747 128.766 112.152 128.766C114.835 128.766 114.78 128.766 115.353 126.102C116.315 121.607 116.907 117.074 117.166 112.486C117.203 111.82 117.055 111.653 116.389 111.653C109.581 111.672 102.791 111.672 95.9641 111.653C95.3906 111.653 95.1686 111.764 95.1871 112.393C95.2241 117.61 95.2241 122.791 95.1871 128.008C95.1871 128.655 95.4091 128.748 95.9641 128.748C98.9613 128.766 101.958 128.785 104.937 128.766ZM120.885 128.766C125.418 128.766 129.802 128.766 134.206 128.766C134.52 128.766 134.668 128.655 134.816 128.341C137.24 123.29 138.664 117.999 139.201 112.43C139.256 111.82 139.053 111.653 138.461 111.653C133.595 111.672 128.748 111.672 123.882 111.653C123.308 111.653 123.105 111.764 123.068 112.393C122.846 117.888 122.18 123.309 120.885 128.766ZM53.4305 111.69C50.9699 111.69 48.4908 111.709 46.0302 111.672C45.4011 111.672 45.2716 111.857 45.3271 112.449C45.7711 117.388 47.0662 122.088 48.8978 126.694C49.5268 128.285 50.3224 128.896 52.117 128.803C55.7061 128.618 59.3323 128.748 62.9215 128.729C63.162 128.729 63.754 129.044 63.569 128.267C62.274 123.05 61.7004 117.74 61.4784 112.375C61.4414 111.727 61.2009 111.635 60.6644 111.653C58.2408 111.709 55.8356 111.69 53.4305 111.69ZM71.8574 134.705C71.8574 134.816 71.8204 134.872 71.8389 134.927C73.5965 139.46 75.8351 143.697 78.9803 147.434C81.5519 150.468 84.5491 152.91 88.3973 154.131C89.1743 154.372 89.3038 154.205 89.3038 153.447C89.2668 147.471 89.2853 141.514 89.3038 135.519C89.3038 134.835 89.1558 134.631 88.4528 134.65C83.1245 134.687 77.8147 134.668 72.468 134.668C72.2645 134.668 72.061 134.687 71.8574 134.705ZM95.2241 144.566C95.2241 147.582 95.2426 150.598 95.2056 153.595C95.2056 154.279 95.3721 154.353 95.9826 154.168C98.3692 153.428 100.497 152.226 102.384 150.598C107.194 146.453 110.173 141.107 112.522 135.334C112.744 134.798 112.596 134.65 112.023 134.65C106.639 134.668 101.255 134.668 95.8716 134.65C95.2426 134.65 95.1871 134.909 95.1871 135.427C95.2426 138.479 95.2241 141.514 95.2241 144.566Z" fill="#221F51"/>
<path d="M131.523 96.4823C133.928 99.535 136.278 102.532 138.627 105.492C138.757 105.659 138.905 105.825 139.016 106.01C139.423 106.658 139.145 107.305 138.387 107.324C136.296 107.361 134.187 107.324 132.097 107.324C131.56 107.324 131.301 106.935 131.023 106.547C128.877 103.661 126.731 100.775 124.604 97.9069C124.252 97.4259 123.882 97.2039 123.235 97.2039C119.22 97.2409 115.242 97.2039 111.227 97.2409C110.487 97.2409 110.302 97.0189 110.339 96.3158C110.395 94.9838 110.413 93.6702 110.339 92.3381C110.302 91.5426 110.487 91.3021 111.338 91.3206C116.241 91.3761 121.125 91.3391 126.028 91.3391C126.639 91.3391 127.268 91.3206 127.878 91.2651C129.673 91.0801 130.746 90.007 130.838 88.1939C130.894 87.0284 130.894 85.8443 130.838 84.6787C130.746 82.8287 129.673 81.7186 127.804 81.6076C126.121 81.4966 124.419 81.5336 122.717 81.5336C119.072 81.5151 115.446 81.5521 111.819 81.5151C111.209 81.5151 110.894 81.7186 110.617 82.2366C106.676 89.4705 102.717 96.6858 98.8134 103.938C97.5553 106.288 95.7977 107.62 93.0411 107.361C92.6156 107.324 92.1715 107.324 91.746 107.361C88.9894 107.564 87.1763 106.269 85.8812 103.901C81.959 96.6858 77.9628 89.526 74.0221 82.3291C73.7261 81.7741 73.4116 81.6076 72.8196 81.6076C67.5838 81.6261 62.3481 81.6261 57.1123 81.6261C56.1873 81.6261 55.2622 81.6816 54.3742 81.9406C53.0606 82.3291 52.3021 83.2357 52.0245 84.5307C51.8395 85.4373 51.747 86.3438 51.71 87.2689C51.6915 87.8979 51.8765 88.0459 52.4871 88.0459C56.1502 88.0274 59.8319 88.0274 63.4766 88.0274C67.0843 88.0274 70.692 88.0274 74.2811 88.0274C75.4467 88.0274 75.7612 88.3419 75.7797 89.5075C75.7982 90.4325 75.7797 91.3576 75.7797 92.2826C75.7797 93.6887 75.4837 93.9662 74.1146 93.9662C66.9548 93.9662 59.8319 93.9847 52.6721 93.9477C51.8025 93.9477 51.6545 94.2067 51.6915 94.9838C51.747 95.9088 51.821 96.8338 52.006 97.7219C52.2836 99.202 53.2086 100.109 54.6702 100.46C55.4842 100.645 56.3168 100.682 57.1493 100.682C62.8846 100.682 68.6014 100.682 74.3366 100.682C75.7242 100.682 75.9462 100.886 75.9462 102.273C75.9462 103.513 75.9647 104.734 75.9462 105.973C75.9277 107.102 75.6872 107.342 74.5957 107.342C68.4904 107.342 62.4036 107.342 56.2983 107.342C54.6517 107.342 53.0421 107.139 51.4695 106.658C48.3984 105.733 46.6593 103.587 45.9007 100.571C45.4752 98.8689 45.3087 97.1114 45.3087 95.3538C45.3087 92.3011 45.2717 89.2485 45.3272 86.2143C45.3642 84.6232 45.5307 83.0322 45.9562 81.4781C46.9368 77.8889 49.5269 75.7243 53.5971 75.1878C54.6702 75.0398 55.7432 74.9658 56.8163 74.9658C63.4396 74.9658 70.0444 74.9843 76.6863 74.9473C77.5558 74.9473 78.1108 75.2063 78.5364 76.0018C82.8471 83.9387 87.1578 91.8756 91.487 99.794C91.6535 100.108 91.7275 100.497 92.2085 100.534C92.7636 100.571 92.8561 100.108 93.0226 99.794C96.5562 93.2447 100.071 86.6953 103.568 80.1275C104.345 78.6659 105.159 77.2229 105.918 75.7613C106.214 75.1878 106.639 74.9658 107.25 74.9658C114.595 74.9843 121.903 74.9843 129.247 74.9843C130.117 74.9843 130.968 75.1323 131.819 75.3173C135.131 76.0388 137.092 78.1109 137.702 81.4041C138.276 84.5122 138.294 87.6574 137.628 90.747C137.018 93.5592 135.26 95.4093 132.448 96.2048C132.171 96.2973 131.893 96.3713 131.523 96.4823Z" fill="white"/>
<path d="M63.4395 70.544C57.5747 70.544 51.7469 70.544 45.8821 70.544C44.402 70.544 44.402 70.544 44.402 69.0085C44.402 68.4164 44.439 67.8244 44.3835 67.2509C44.3095 66.4183 44.6611 66.1778 45.4566 66.1963C48.7313 66.2333 51.9874 66.1593 55.2436 66.2333C56.2241 66.2518 56.4091 65.9373 56.3721 65.0493C56.4091 63.1437 56.4091 61.4786 56.3536 59.5915C56.3351 59.1475 56.2611 58.8885 55.8171 58.6665C54.8181 58.1854 54.374 57.0939 54.633 56.1133C54.9291 55.0033 55.7616 54.3372 56.9457 54.3927C57.4637 54.4297 57.6302 54.2077 57.8337 53.8192C59.9243 50.0635 62.0149 46.3079 64.124 42.5707C64.3275 42.2006 64.309 41.9231 64.087 41.5531C63.458 40.5541 63.5875 39.444 64.3275 38.6855C65.0861 37.9269 66.2146 37.7789 67.1952 38.4265C67.5837 38.6855 67.8242 38.6115 68.1572 38.4265C71.7094 36.4099 75.2801 34.3933 78.8323 32.3952C79.2948 32.1361 79.5538 31.8956 79.5168 31.2666C79.4613 30.3046 80.1088 29.472 81.0154 29.1575C81.9404 28.8245 82.958 29.065 83.55 29.9345C83.957 30.5636 84.4195 30.6191 85.0856 30.5451C87.8977 30.2861 90.7283 30.064 93.5405 29.842C93.9475 29.805 94.262 29.805 94.447 29.287C94.8355 28.2509 95.6126 27.7884 96.6671 27.8439C97.6847 27.8994 98.4617 28.473 98.7022 29.546C98.8317 30.0825 99.0722 30.2305 99.5163 30.3416C100.571 30.6006 101.607 30.8596 102.643 31.1371C103.05 31.2481 103.309 31.2111 103.623 30.8781C104.438 30.0455 105.4 29.8605 106.306 30.2676C107.25 30.7116 107.694 31.4516 107.583 32.6912C107.546 33.0982 107.675 33.3202 107.971 33.5422C110.21 35.1148 112.448 36.7059 114.687 38.2969C114.983 38.5005 115.187 38.482 115.501 38.334C116.519 37.8159 117.518 37.9824 118.221 38.704C118.961 39.4625 119.109 40.4986 118.498 41.5161C118.258 41.9231 118.332 42.1636 118.535 42.4967C121.292 47.0479 124.048 51.5806 126.768 56.1318C127.009 56.5204 127.231 56.6684 127.712 56.6499C128.877 56.5944 129.71 57.2234 129.987 58.2594C130.283 59.388 129.895 60.3685 128.859 60.9051C128.415 61.1271 128.304 61.3491 128.304 61.8116C128.304 62.9587 128.304 64.0687 128.304 65.3268C128.267 65.9743 128.47 66.1593 129.118 66.1408C132.411 66.1038 135.723 66.1593 138.997 66.1038C139.867 66.0853 140.237 66.3443 140.163 67.2509C140.089 68.0834 140.144 68.916 140.144 69.7485C140.144 70.285 139.922 70.5626 139.367 70.5256C139.127 70.507 138.868 70.5256 138.627 70.5256C127.268 70.5256 115.89 70.5625 104.53 70.4885C102.791 70.47 101.255 70.8216 99.8123 71.7281C98.5912 72.4866 97.4257 73.3377 96.2231 74.1147C93.9105 75.6133 91.2834 76.1868 88.7302 74.1702C87.1207 72.8937 85.4001 71.7466 83.4575 70.9881C82.6434 70.6736 81.8294 70.5071 80.9414 70.5071C75.1321 70.5441 69.2858 70.544 63.4395 70.544ZM58.6477 54.8368C62.7364 52.2281 66.8251 49.6195 70.9139 47.0109C71.0989 46.8999 71.2099 46.7519 71.2099 46.4929C71.2284 45.5308 72.1164 45.5678 71.1914 44.8278C70.8213 44.6428 69.1563 43.3477 68.7307 43.0517C68.0462 42.6077 67.3432 41.8676 66.3441 42.4967C66.1776 42.5892 65.9186 42.5892 65.7151 42.5522C65.3266 42.4597 65.1601 42.6447 64.9936 42.9407C62.829 46.8629 60.6643 50.7851 58.4997 54.6888C58.4442 54.7628 58.4257 54.8553 58.5182 54.9108C58.5367 54.9663 58.6107 54.8738 58.6477 54.8368ZM75.3541 44.0137C75.4651 43.9582 75.5761 43.9212 75.6871 43.8472C81.8294 39.629 87.9532 35.4478 94.0955 31.2296C94.225 31.1371 94.3545 31.0446 94.2435 30.8411C91.0429 31.0816 87.8237 31.3406 84.623 31.5811C84.253 31.6181 84.068 31.7661 83.92 32.1361C83.6055 32.9132 82.995 33.5977 82.1254 33.5052C81.0894 33.3942 80.8118 34.0232 80.4418 34.6893C80.3308 34.9113 80.2013 35.1148 80.0718 35.3368C78.4622 38.2044 76.8526 41.0536 75.2431 43.9027C75.1691 43.9212 75.0951 43.9582 75.1691 44.0507C75.1876 44.0877 75.2986 44.0322 75.3541 44.0137ZM98.2397 42.4597C97.1297 42.6447 95.9456 42.8482 94.7615 43.0332C88.6747 44.0137 82.6249 45.0128 76.5381 45.9933C76.1126 46.0673 75.7056 46.0488 75.5206 46.6779C75.3356 47.3254 75.8166 47.4179 76.0941 47.6769C76.5196 48.1209 77.0192 48.491 77.4817 48.898C81.6259 52.5427 85.7331 56.1688 89.8773 59.795C90.9133 60.7016 92.3194 60.387 92.8374 59.1475C93.707 57.1124 94.5765 55.0773 95.4461 53.0422C96.7226 50.008 97.9992 46.9924 99.2758 43.9767C99.5533 43.3107 98.9983 42.4412 98.2397 42.4597ZM64.6605 66.2148C66.8807 66.2148 69.1008 66.2148 71.3209 66.2148C71.8019 66.2148 72.1349 66.1778 72.1534 65.5488C72.3569 59.9615 72.5789 54.3742 72.8195 48.787C72.838 48.3244 72.6529 48.1579 72.3014 47.9544C71.9499 47.7324 71.6909 47.6954 71.3209 47.9359C67.3617 50.4891 63.421 53.0422 59.4618 55.5768C59.0918 55.8173 59.0363 56.0393 59.0918 56.4649C59.2028 57.4269 58.8143 58.2594 57.9077 58.6665C57.3897 58.907 57.3527 59.203 57.3527 59.6655C57.3712 61.5711 57.3897 63.4952 57.3342 65.4008C57.3157 66.1223 57.5562 66.2518 58.2222 66.2518C60.3683 66.1963 62.5329 66.2148 64.6605 66.2148ZM73.0785 65.3453C72.8379 66.0853 73.1895 66.2518 73.9665 66.2333C76.3346 66.1963 78.7212 66.2888 81.0894 66.1963C82.3659 66.1408 83.513 66.3998 84.6415 66.8809C85.0486 67.0659 85.3076 67.0104 85.6406 66.7514C86.4916 66.0483 87.3982 65.4008 88.2677 64.6978C89.1373 63.9947 90.3583 63.4767 89.8588 61.9781C89.8403 61.9226 89.8588 61.8486 89.8958 61.7931C90.0993 61.3491 89.9143 61.0901 89.5628 60.7756C84.7896 56.6129 80.0348 52.4501 75.2801 48.2504C74.9656 47.9729 74.7065 47.9174 74.2995 48.0839C73.874 48.2504 73.8555 48.5095 73.837 48.861C73.578 54.3373 73.3375 59.795 73.0785 65.3453ZM94.2805 61.1086C94.447 61.0531 94.632 60.9976 94.7985 60.9421C101.033 58.9255 107.25 56.9089 113.484 54.9293C114.15 54.7258 114.28 54.3187 114.447 53.7822C114.613 53.2272 114.169 53.0792 113.891 52.8387C110.284 49.8785 106.658 46.9184 103.068 43.9767C102.088 43.1627 100.552 43.5327 100.053 44.6983C98.8502 47.5289 97.6662 50.3596 96.4636 53.1717C95.5201 55.4103 94.558 57.6304 93.6145 59.869C93.3555 60.5166 93.6885 61.1456 94.2805 61.1086ZM122.217 66.1408C120.589 63.0327 118.998 60.054 117.444 57.0939C117.24 56.7054 116.944 56.6869 116.593 56.7239C115.964 56.7609 115.409 56.5574 115.02 56.0948C114.669 55.7063 114.373 55.6878 113.891 55.8358C107.601 57.8894 101.329 59.906 95.0391 61.9411C94.7615 62.0336 94.3545 61.9966 94.3175 62.4036C94.2805 62.8662 94.7615 62.8662 95.0391 62.9772C97.6847 63.9762 100.349 64.9568 102.976 65.9373C103.327 66.0668 103.679 66.1778 104.049 66.1778C110.099 66.1408 116.075 66.1408 122.217 66.1408ZM75.7241 45.0313C76.0016 45.0498 76.0941 45.0683 76.1866 45.0498C82.9949 43.9397 89.7848 42.8112 96.5931 41.7196C97.6662 41.5531 98.8317 41.5716 99.0908 40.147C99.1093 40.073 99.2018 39.999 99.2758 39.9435C99.6088 39.6845 99.5718 39.4255 99.4238 39.0555C98.8132 37.5384 98.2397 36.0213 97.6847 34.4858C97.2962 33.3942 97.0927 32.2842 95.5571 32.1176C95.039 32.0621 94.706 31.9881 94.262 32.2841C91.7829 34.0047 89.2853 35.6883 86.8061 37.3904C83.1615 39.925 79.5353 42.4227 75.7241 45.0313ZM116.093 47.4364C116.093 46.2708 116.075 45.1053 116.093 43.9212C116.112 43.1442 116.186 42.4042 115.205 42.1081C114.983 42.0341 114.743 41.7566 114.65 41.5161C114.465 41.0351 114.151 40.9981 113.706 41.0351C110.395 41.3126 107.083 41.5716 103.808 41.8306C103.475 41.8491 103.161 41.8121 103.013 42.2561C102.865 42.7002 103.198 42.7927 103.42 42.9777C107.194 46.0858 110.968 49.1755 114.724 52.2651C115.002 52.5057 115.205 52.5982 115.612 52.4131C116.019 52.2096 116.112 51.9876 116.112 51.5621C116.093 50.193 116.093 48.824 116.093 47.4364ZM75.9831 40.4986C77.3892 38.0194 78.7952 35.5588 80.2013 33.1167C80.0163 32.9317 79.9053 33.0057 79.7943 33.0612C76.0386 35.1888 72.3014 37.3164 68.5827 39.444C68.0647 39.74 67.9352 41.2201 68.3977 41.5716C69.4338 42.3857 70.5068 43.1627 71.5614 43.9582C71.7094 44.0692 71.8574 44.2357 72.0424 44.1617M117.296 42.4967C117.222 42.5337 117.129 42.5707 117.055 42.6077C117.055 45.6788 117.055 48.75 117.055 51.8211C117.055 52.1541 117.24 52.2466 117.481 52.3391C118.313 52.6537 118.776 53.3197 118.85 54.1707C118.905 54.7443 119.164 54.9478 119.645 55.1143C121.551 55.8358 123.419 56.6129 125.325 57.3529C125.566 57.4454 125.843 57.7044 126.084 57.4639C126.417 57.1309 126.01 56.8904 125.88 56.6684C123.808 53.2087 121.717 49.7675 119.627 46.3448C118.813 45.0683 118.054 43.7732 117.296 42.4967ZM127.342 62.2186C127.194 61.4786 127.286 61.0716 126.583 60.7571C125.954 60.4796 125.621 59.8505 125.603 59.1845C125.584 58.611 125.307 58.4074 124.826 58.2224C122.957 57.5009 121.107 56.7424 119.238 56.0208C118.961 55.9098 118.646 55.5583 118.313 55.8913C117.943 56.2613 118.295 56.5759 118.443 56.8719C119.83 59.499 121.273 62.1076 122.587 64.7718M103.975 40.7946C107.213 40.5356 110.469 40.2951 113.688 40.036C113.947 40.0175 114.28 40.073 114.391 39.74C114.539 39.3145 114.114 39.2405 113.891 39.0925C112.134 37.8529 110.376 36.6134 108.637 35.3553C107.712 34.7078 106.88 33.7827 105.603 34.6153C105.566 34.6523 105.474 34.6523 105.418 34.6338C104.882 34.5228 104.678 34.8373 104.475 35.2813C103.901 36.5024 103.29 37.7049 102.68 38.9075C102.143 40.0545 102.698 40.8686 103.975 40.7946ZM97.8327 32.2286C97.8512 32.2842 97.8882 32.3397 97.9067 32.3952C98.7392 34.5413 99.5718 36.6874 100.386 38.8335C100.497 39.1295 100.663 39.259 100.996 39.296C101.329 39.333 101.514 39.185 101.644 38.9075C102.328 37.4644 103.031 36.0398 103.716 34.5968C103.79 34.4488 103.919 34.3192 103.808 34.0972C103.253 32.9687 102.698 31.8956 101.144 31.8586C100.423 31.8401 99.7198 31.5071 99.0167 31.3406C98.5912 31.2296 97.8327 31.8401 97.8327 32.2286ZM101.422 66.3813C98.9612 65.4563 96.6856 64.6238 94.4285 63.7727C94.1325 63.6617 93.9105 63.6802 93.6885 63.9022C93.4665 64.1427 93.559 64.3277 93.6885 64.5683C94.336 65.8448 94.9835 67.1399 95.5941 68.4349C95.7606 68.7865 95.8901 68.99 96.3341 68.7125C97.8512 67.7319 99.5163 67.0474 101.422 66.3813ZM92.6709 71.1176C93.374 70.8031 94.1325 70.137 94.891 69.4895C95.1131 69.3045 94.8725 69.0825 94.7985 68.916C94.151 67.6024 93.4665 66.2888 92.8004 64.9753C92.7079 64.7718 92.6154 64.5683 92.3564 64.6053C92.0604 64.6423 92.1159 64.9013 92.0789 65.1048C91.8014 66.6404 91.5424 68.1759 91.2649 69.73C91.0984 70.5996 91.5424 71.1361 92.6709 71.1176ZM90.2288 69.841C90.5433 68.0834 90.8393 66.5294 91.1354 64.9568C91.1724 64.7163 91.2094 64.4758 90.9504 64.3092C90.6913 64.1427 90.5063 64.1982 90.2843 64.3647C88.9707 65.4008 87.6387 66.4183 86.2326 67.5099C87.6202 68.2684 88.9523 68.879 90.2288 69.841Z" fill="white"/>
<path d="M78.3143 111.69C81.6815 111.69 85.0302 111.709 88.3788 111.672C89.0449 111.672 89.3224 111.783 89.3224 112.56C89.2854 117.666 89.2854 122.772 89.3224 127.878C89.3224 128.526 89.2484 128.785 88.4898 128.785C82.514 128.748 76.5567 128.766 70.5809 128.785C70.0074 128.785 69.8224 128.637 69.6744 128.063C68.3423 122.976 67.6578 117.832 67.3618 112.597C67.3248 111.838 67.5468 111.69 68.2498 111.69C71.5985 111.709 74.9472 111.69 78.3143 111.69Z" fill="white"/>
<path d="M104.937 128.766C101.94 128.766 98.9613 128.748 95.9827 128.785C95.4092 128.785 95.1872 128.692 95.2057 128.045C95.2427 122.828 95.2427 117.647 95.2057 112.43C95.2057 111.801 95.4092 111.672 95.9827 111.69C102.791 111.709 109.581 111.709 116.408 111.69C117.074 111.69 117.222 111.857 117.185 112.523C116.926 117.111 116.334 121.644 115.372 126.139C114.798 128.785 114.835 128.803 112.171 128.803C109.747 128.766 107.342 128.766 104.937 128.766Z" fill="white"/>
<path d="M120.885 128.766C122.18 123.309 122.846 117.906 123.049 112.412C123.068 111.783 123.29 111.672 123.863 111.672C128.729 111.69 133.576 111.69 138.442 111.672C139.053 111.672 139.256 111.82 139.182 112.449C138.646 118.017 137.221 123.309 134.797 128.359C134.649 128.655 134.501 128.785 134.187 128.785C129.784 128.766 125.399 128.766 120.885 128.766Z" fill="white"/>
<path d="M53.4306 111.69C55.8357 111.69 58.2408 111.709 60.646 111.672C61.201 111.672 61.4415 111.746 61.46 112.393C61.7005 117.758 62.2555 123.05 63.5506 128.285C63.7356 129.062 63.1621 128.748 62.9031 128.748C59.2954 128.766 55.6877 128.637 52.0985 128.822C50.304 128.914 49.5084 128.304 48.8794 126.713C47.0478 122.106 45.7527 117.407 45.3087 112.467C45.2532 111.875 45.3827 111.672 46.0117 111.69C48.5094 111.727 50.9515 111.69 53.4306 111.69Z" fill="white"/>
<path d="M71.8575 134.705C72.061 134.687 72.2645 134.668 72.468 134.668C77.7963 134.668 83.106 134.687 88.4528 134.65C89.1558 134.65 89.3223 134.835 89.3038 135.519C89.2668 141.495 89.2668 147.452 89.3038 153.447C89.3038 154.224 89.1743 154.372 88.3973 154.131C84.5306 152.91 81.5334 150.468 78.9803 147.434C75.8352 143.715 73.5965 139.46 71.839 134.927C71.8205 134.872 71.839 134.816 71.8575 134.705Z" fill="white"/>
<path d="M95.2241 144.566C95.2241 141.513 95.2426 138.461 95.2056 135.445C95.2056 134.927 95.2611 134.668 95.8901 134.668C101.274 134.687 106.658 134.687 112.041 134.668C112.615 134.668 112.744 134.816 112.541 135.353C110.191 141.125 107.194 146.472 102.402 150.616C100.515 152.244 98.3877 153.447 96.0011 154.187C95.3906 154.372 95.2056 154.298 95.2241 153.613C95.2426 150.579 95.2241 147.582 95.2241 144.566Z" fill="white"/>
<path d="M73.874 151.023C71.2654 150.042 68.8417 148.71 66.5106 147.212C61.5339 144.03 57.2972 140.052 53.819 135.279C53.708 135.131 53.56 135.02 53.597 134.798C53.745 134.576 53.9855 134.687 54.189 134.687C57.6487 134.687 61.0898 134.705 64.531 134.668C65.1415 134.668 65.4561 134.816 65.6596 135.427C67.5837 140.977 70.1738 146.176 73.911 150.745C73.948 150.782 73.948 150.856 73.9665 150.912C73.948 150.949 73.911 150.986 73.874 151.023Z" fill="white"/>
<path d="M110.561 150.912C112.3 148.488 114.058 146.083 115.409 143.438C116.759 140.773 117.999 138.054 118.961 135.242C119.072 134.909 119.164 134.65 119.627 134.65C123.42 134.668 127.194 134.668 131.19 134.668C130.339 135.76 129.617 136.74 128.84 137.665C123.864 143.604 117.832 148.081 110.672 151.023C110.617 150.986 110.598 150.949 110.561 150.912Z" fill="white"/>
<path d="M110.654 151.023C110.58 151.041 110.45 151.079 110.45 151.06C110.395 150.949 110.487 150.949 110.561 150.912C110.598 150.949 110.617 150.986 110.654 151.023Z" fill="white"/>
<path d="M73.9852 150.912C74.0592 150.93 74.1517 150.967 74.0962 151.06C74.0777 151.079 73.9481 151.023 73.8741 151.023C73.9111 150.986 73.9482 150.949 73.9852 150.912Z" fill="white"/>
<path d="M98.2398 42.4595C98.9984 42.441 99.5534 43.3106 99.2759 43.9951C97.9993 47.0292 96.7228 50.0634 95.4462 53.0605C94.5766 55.0956 93.7071 57.1307 92.8376 59.1658C92.3195 60.4054 90.895 60.7199 89.8774 59.8134C85.7332 56.1687 81.626 52.5425 77.4818 48.9163C77.0193 48.5093 76.5382 48.1208 76.0942 47.6953C75.8352 47.4363 75.3542 47.3438 75.5207 46.6962C75.7057 46.0672 76.1127 46.0857 76.5383 46.0117C82.6251 45.0126 88.6749 44.0321 94.7617 43.0516C95.9827 42.848 97.1483 42.6445 98.2398 42.4595Z" fill="#221F51"/>
<path d="M64.6606 66.2333C62.496 66.2333 60.3499 66.2148 58.1853 66.2518C57.5193 66.2703 57.2787 66.1408 57.2972 65.4008C57.3157 63.5322 57.3342 61.5896 57.3157 59.6655C57.3157 59.203 57.3527 58.907 57.8708 58.6665C58.7588 58.2594 59.1658 57.4269 59.0548 56.4649C58.9993 56.0208 59.0548 55.8173 59.4249 55.5768C63.4026 53.0422 67.3432 50.5076 71.2839 47.9359C71.654 47.6954 71.913 47.7324 72.2645 47.9544C72.5975 48.1579 72.801 48.3245 72.7825 48.787C72.542 54.3743 72.32 59.9615 72.1165 65.5488C72.098 66.1778 71.765 66.2148 71.2839 66.2148C69.1008 66.2333 66.8807 66.2333 64.6606 66.2333Z" fill="#221F51"/>
<path d="M73.0785 65.3637C73.319 59.8135 73.5595 54.3742 73.8 48.8979C73.8185 48.5464 73.8555 48.2874 74.2625 48.1209C74.6695 47.9544 74.9101 48.0099 75.2431 48.2874C79.9978 52.4871 84.7525 56.6498 89.5258 60.8125C89.8588 61.1085 90.0623 61.386 89.8588 61.8301C89.8403 61.8856 89.8218 61.9596 89.8218 62.0151C90.3028 63.5136 89.1003 64.0317 88.2307 64.7347C87.3612 65.4192 86.4731 66.0853 85.6036 66.7883C85.2706 67.0473 85.0116 67.1028 84.6045 66.9178C83.476 66.4183 82.3289 66.1778 81.0524 66.2333C78.6842 66.3443 76.3161 66.2333 73.9295 66.2703C73.208 66.2703 72.8565 66.0853 73.0785 65.3637Z" fill="#221F51"/>
<path d="M94.2807 61.1271C93.6886 61.1456 93.3556 60.5351 93.6331 59.8875C94.5767 57.6489 95.5387 55.4288 96.4823 53.1902C97.6848 50.3596 98.8689 47.5289 100.071 44.7168C100.571 43.5512 102.107 43.1812 103.087 43.9953C106.695 46.9554 110.321 49.9156 113.91 52.8572C114.188 53.0977 114.632 53.2457 114.465 53.8007C114.299 54.3373 114.169 54.7258 113.503 54.9478C107.25 56.9089 101.052 58.944 94.8172 60.9606C94.6322 61.0161 94.4657 61.0716 94.2807 61.1271Z" fill="#221F51"/>
<path d="M122.217 66.1593C116.075 66.1593 110.099 66.1593 104.086 66.1593C103.716 66.1593 103.364 66.0483 103.013 65.9188C100.367 64.9383 97.7032 63.9577 95.0761 62.9587C94.7986 62.8477 94.3176 62.8477 94.3546 62.3851C94.3731 61.9781 94.7986 62.0151 95.0761 61.9226C101.366 59.8875 107.638 57.8524 113.929 55.8173C114.391 55.6693 114.706 55.6878 115.057 56.0763C115.446 56.5389 116.019 56.7424 116.63 56.7054C116.981 56.6869 117.277 56.6869 117.481 57.0754C119.016 60.0725 120.589 63.0512 122.217 66.1593Z" fill="#221F51"/>
<path d="M75.7242 45.0497C79.5169 42.4411 83.1616 39.925 86.8063 37.4274C89.2854 35.7253 91.783 34.0232 94.2622 32.3211C94.7062 32.0251 95.0392 32.0991 95.5572 32.1546C97.0928 32.3211 97.2963 33.4312 97.6848 34.5227C98.2399 36.0583 98.8134 37.5754 99.4239 39.0925C99.5719 39.4625 99.6089 39.7215 99.2759 39.9805C99.2019 40.036 99.1094 40.11 99.0909 40.184C98.8319 41.6271 97.6663 41.5901 96.5933 41.7566C89.7849 42.8481 82.9951 43.9767 76.1868 45.0868C76.0943 45.0868 76.0018 45.0682 75.7242 45.0497Z" fill="#221F51"/>
<path d="M116.093 47.4364C116.093 48.824 116.075 50.2116 116.093 51.5806C116.093 51.9876 116.001 52.2282 115.594 52.4317C115.205 52.6167 115.002 52.5057 114.706 52.2837C110.932 49.1755 107.157 46.0859 103.402 42.9962C103.18 42.8112 102.865 42.7187 102.995 42.2747C103.143 41.8306 103.457 41.8677 103.79 41.8492C107.102 41.5901 110.413 41.3311 113.688 41.0536C114.132 41.0166 114.447 41.0536 114.632 41.5346C114.724 41.7751 114.946 42.0527 115.187 42.1267C116.167 42.4227 116.093 43.1627 116.075 43.9398C116.075 45.1053 116.093 46.2709 116.093 47.4364Z" fill="#221F51"/>
<path d="M75.2616 43.9397C76.8712 41.0721 78.4808 38.2229 80.0903 35.3738C80.2198 35.1518 80.3494 34.9483 80.4604 34.7262C80.8304 34.0602 81.1079 33.4312 82.1439 33.5422C82.995 33.6347 83.624 32.9502 83.9385 32.1731C84.0865 31.7846 84.2715 31.6366 84.6416 31.6181C87.8607 31.3776 91.0799 31.1186 94.262 30.8781C94.373 31.1001 94.2435 31.1926 94.114 31.2666C87.9717 35.4848 81.8479 39.666 75.7056 43.8842C75.6131 43.9582 75.4836 43.9952 75.3726 44.0507C75.3356 43.9952 75.2986 43.9767 75.2616 43.9397Z" fill="#221F51"/>
<path d="M71.0064 44.6798C72.061 45.4013 71.2284 45.5678 71.2099 46.5299C71.2099 46.7889 71.0989 46.9369 70.9139 47.0479C66.8252 49.6565 62.7365 52.2652 58.6478 54.8738C58.6108 54.8368 58.5738 54.7998 58.5183 54.7628C60.6829 50.8406 62.8475 46.9184 65.0121 43.0147C65.1786 42.7187 65.3451 42.5152 65.7337 42.6262C65.9372 42.6817 66.1962 42.6817 66.3627 42.5707" fill="#221F51"/>
<path d="M80.2014 33.1352C78.8139 35.5773 77.3893 38.0564 75.9832 40.517C75.6872 41.0165 74.6326 42.9036 74.3366 43.4032C73.1526 45.4938 73.2451 43.7362 72.0425 44.1987C71.839 44.2727 71.691 44.1062 71.5615 43.9952C70.5069 43.1996 69.4339 42.4226 68.3978 41.6086C67.9353 41.2386 68.0648 39.777 68.5828 39.481C72.32 37.3534 76.0757 35.2258 79.7944 33.0982C79.9054 33.0242 80.0164 32.9501 80.2014 33.1352Z" fill="#221F51"/>
<path d="M117.296 42.5151C118.054 43.7917 118.831 45.0683 119.59 46.3448C121.681 49.786 123.771 53.2272 125.843 56.6683C125.973 56.8903 126.38 57.1309 126.047 57.4639C125.788 57.7044 125.529 57.4454 125.288 57.3529C123.401 56.6128 121.514 55.8358 119.608 55.1143C119.127 54.9293 118.868 54.7442 118.813 54.1707C118.739 53.3197 118.295 52.6721 117.444 52.3391C117.203 52.2466 117.018 52.1541 117.018 51.8211C117.037 48.75 117.018 45.6788 117.018 42.6076C117.129 42.5891 117.203 42.5521 117.296 42.5151Z" fill="#221F51"/>
<path d="M127.157 66.0113C126.694 66.4183 125.621 66.2333 124.844 66.1778C124.049 66.1223 123.309 65.7523 122.624 64.8272C121.31 62.1631 119.867 59.5545 118.48 56.9274C118.313 56.6128 117.98 56.2983 118.35 55.9468C118.683 55.6138 118.979 55.9653 119.275 56.0763C121.144 56.7979 122.994 57.5564 124.863 58.2779C125.344 58.4629 125.621 58.6479 125.64 59.24C125.658 59.906 125.991 60.535 126.62 60.8125C127.323 61.1271 127.416 61.5341 127.379 62.2741" fill="#221F51"/>
<path d="M103.975 40.813C102.699 40.887 102.144 40.0545 102.699 38.9444C103.291 37.7419 103.92 36.5393 104.493 35.3183C104.697 34.8927 104.9 34.5782 105.437 34.6707C105.492 34.6892 105.566 34.6707 105.622 34.6522C106.898 33.8012 107.749 34.7447 108.656 35.3923C110.413 36.6318 112.171 37.8714 113.91 39.1294C114.132 39.296 114.558 39.37 114.41 39.777C114.299 40.11 113.966 40.0545 113.707 40.073C110.469 40.3135 107.231 40.554 103.975 40.813Z" fill="#221F51"/>
<path d="M97.8328 32.2471C97.8328 31.8586 98.5913 31.2481 98.9983 31.3406C99.7199 31.5071 100.423 31.8401 101.126 31.8586C102.68 31.8956 103.217 32.9687 103.79 34.0972C103.901 34.3192 103.772 34.4487 103.698 34.5967C103.013 36.0398 102.328 37.4644 101.625 38.9075C101.496 39.185 101.311 39.3145 100.978 39.296C100.645 39.259 100.497 39.1295 100.367 38.8335C99.5534 36.6874 98.7208 34.5412 97.8883 32.3951C97.8883 32.3581 97.8513 32.3026 97.8328 32.2471Z" fill="#221F51"/>
<path d="M101.422 66.3998C99.5163 67.0658 97.8512 67.7503 96.3341 68.7309C95.9086 69.0084 95.7791 68.8049 95.5941 68.4534C94.965 67.1583 94.336 65.8632 93.6885 64.5867C93.5775 64.3462 93.4665 64.1611 93.6885 63.9206C93.9105 63.6801 94.1325 63.6801 94.4285 63.7911C96.7041 64.6237 98.9612 65.4747 101.422 66.3998Z" fill="#221F51"/>
<path d="M92.671 71.136C91.5425 71.136 91.0984 70.5995 91.265 69.7485C91.5425 68.2129 91.8015 66.6773 92.079 65.1232C92.116 64.9197 92.0605 64.6607 92.3565 64.6237C92.634 64.5867 92.708 64.8087 92.8005 64.9937C93.4666 66.3073 94.1326 67.6209 94.7986 68.9344C94.8911 69.1009 95.1131 69.3414 94.8911 69.508C94.1326 70.1555 93.3741 70.8215 92.671 71.136Z" fill="#221F51"/>
<path d="M90.2289 69.8594C88.9708 68.8789 87.6202 68.2684 86.2327 67.5283C87.6387 66.4368 88.9523 65.4192 90.2844 64.3832C90.5064 64.2166 90.6914 64.1426 90.9504 64.3277C91.2094 64.5127 91.1909 64.7347 91.1354 64.9752C90.8394 66.5663 90.5434 68.1204 90.2289 69.8594Z" fill="#221F51"/>
<path d="M58.6478 54.8551C58.6108 54.8921 58.5553 54.9847 58.5368 54.9662C58.4443 54.9107 58.4628 54.8181 58.5183 54.7441C58.5553 54.7811 58.6108 54.7996 58.6478 54.8551Z" fill="#221F51"/>
<path d="M75.3541 44.0322C75.2986 44.0507 75.1876 44.1062 75.1691 44.0877C75.0951 44.0137 75.1691 43.9582 75.2431 43.9397C75.2986 43.9767 75.3356 43.9952 75.3541 44.0322Z" fill="#221F51"/>
<path d="M65.3635 43.3847C66.8451 43.3847 68.0462 42.1836 68.0462 40.702C68.0462 39.2205 66.8451 38.0194 65.3635 38.0194C63.882 38.0194 62.6809 39.2205 62.6809 40.702C62.6809 42.1836 63.882 43.3847 65.3635 43.3847Z" fill="white"/>
<path d="M92.3565 65.5672C94.0424 65.5672 95.4091 64.2005 95.4091 62.5146C95.4091 60.8286 94.0424 59.4619 92.3565 59.4619C90.6706 59.4619 89.3038 60.8286 89.3038 62.5146C89.3038 64.2005 90.6706 65.5672 92.3565 65.5672Z" fill="white"/>
<path d="M127.823 61.8671C129.509 61.8671 130.875 60.5004 130.875 58.8145C130.875 57.1286 129.509 55.7618 127.823 55.7618C126.137 55.7618 124.77 57.1286 124.77 58.8145C124.77 60.5004 126.137 61.8671 127.823 61.8671Z" fill="white"/>
<path d="M65.5486 43.5697C67.2346 43.5697 68.6013 42.2029 68.6013 40.517C68.6013 38.8311 67.2346 37.4644 65.5486 37.4644C63.8627 37.4644 62.496 38.8311 62.496 40.517C62.496 42.2029 63.8627 43.5697 65.5486 43.5697Z" fill="white"/>
<path d="M73.5041 48.9349C75.19 48.9349 76.5567 47.5682 76.5567 45.8822C76.5567 44.1963 75.19 42.8296 73.5041 42.8296C71.8181 42.8296 70.4514 44.1963 70.4514 45.8822C70.4514 47.5682 71.8181 48.9349 73.5041 48.9349Z" fill="white"/>
<path d="M116.556 57.4268C118.242 57.4268 119.608 56.0601 119.608 54.3742C119.608 52.6883 118.242 51.3215 116.556 51.3215C114.87 51.3215 113.503 52.6883 113.503 54.3742C113.503 56.0601 114.87 57.4268 116.556 57.4268Z" fill="white"/>
<path d="M116.556 43.3846C118.242 43.3846 119.608 42.0179 119.608 40.3319C119.608 38.646 118.242 37.2793 116.556 37.2793C114.87 37.2793 113.503 38.646 113.503 40.3319C113.503 42.0179 114.87 43.3846 116.556 43.3846Z" fill="white"/>
<path d="M100.848 44.6796C102.534 44.6796 103.901 43.3129 103.901 41.627C103.901 39.9411 102.534 38.5743 100.848 38.5743C99.1625 38.5743 97.7958 39.9411 97.7958 41.627C97.7958 43.3129 99.1625 44.6796 100.848 44.6796Z" fill="white"/>
<path d="M56.8717 59.6469C58.5577 59.6469 59.9244 58.2802 59.9244 56.5943C59.9244 54.9083 58.5577 53.5416 56.8717 53.5416C55.1858 53.5416 53.8191 54.9083 53.8191 56.5943C53.8191 58.2802 55.1858 59.6469 56.8717 59.6469Z" fill="white"/>
<path d="M105.289 35.6328C106.975 35.6328 108.341 34.266 108.341 32.5801C108.341 30.8942 106.975 29.5275 105.289 29.5275C103.603 29.5275 102.236 30.8942 102.236 32.5801C102.236 34.266 103.603 35.6328 105.289 35.6328Z" fill="white"/>
<path d="M96.5933 33.4127C98.2792 33.4127 99.646 32.046 99.646 30.36C99.646 28.6741 98.2792 27.3074 96.5933 27.3074C94.9074 27.3074 93.5406 28.6741 93.5406 30.36C93.5406 32.046 94.9074 33.4127 96.5933 33.4127Z" fill="white"/>
<path d="M81.6259 34.3377C83.3118 34.3377 84.6785 32.971 84.6785 31.2851C84.6785 29.5991 83.3118 28.2324 81.6259 28.2324C79.94 28.2324 78.5732 29.5991 78.5732 31.2851C78.5732 32.971 79.94 34.3377 81.6259 34.3377Z" fill="white"/>
<path d="M91.8939 161.402C82.4955 161.402 73.3745 159.57 64.7901 155.944C56.5017 152.448 49.0458 147.452 42.663 141.07C36.2617 134.687 31.2479 127.268 27.7327 119.016C24.1066 110.45 22.2565 101.367 22.2565 92.0051C22.2565 82.6436 24.1066 73.5412 27.7327 64.9937C31.2479 56.7238 36.2617 49.305 42.663 42.9407C49.0643 36.5578 56.5017 31.5626 64.7901 28.0659C73.3745 24.4397 82.4955 22.6082 91.8939 22.6082C101.292 22.6082 110.413 24.4397 118.998 28.0659C127.286 31.5626 134.742 36.5578 141.125 42.9407C147.526 49.3235 152.54 56.7423 156.055 64.9937C159.681 73.5597 161.531 82.6436 161.531 92.0051C161.531 101.367 159.681 110.469 156.055 119.016C152.54 127.286 147.526 134.705 141.125 141.07C134.724 147.452 127.286 152.448 118.998 155.944C110.413 159.552 101.292 161.402 91.8939 161.402ZM91.8939 23.4962C54.004 23.4962 23.1815 54.2262 23.1815 91.9866C23.1815 129.747 54.004 160.477 91.8939 160.477C129.784 160.477 160.606 129.747 160.606 91.9866C160.588 54.2262 129.765 23.4962 91.8939 23.4962Z" fill="white"/>
<path d="M91.9866 184.195C79.5724 184.195 67.5284 181.753 56.1873 176.961C45.2347 172.318 35.3923 165.676 26.9558 157.221C18.5009 148.766 11.8776 138.905 7.23387 127.952C2.44213 116.593 0 104.53 0 92.0976C0 79.6649 2.42363 67.6023 7.23387 56.2428C11.8591 45.2717 18.5009 35.4293 26.9558 26.9743C35.4108 18.5194 45.2347 11.8776 56.1873 7.23387C67.5284 2.42363 79.5724 0 91.9866 0C104.401 0 116.445 2.44213 127.786 7.23387C138.738 11.8776 148.581 18.5194 157.017 26.9743C165.472 35.4293 172.096 45.2902 176.739 56.2428C181.531 67.6023 183.973 79.6649 183.973 92.0976C183.973 104.53 181.549 116.593 176.739 127.952C172.114 138.923 165.472 148.766 157.017 157.221C148.562 165.676 138.738 172.318 127.786 176.961C116.445 181.753 104.401 184.195 91.9866 184.195ZM91.9866 1.20256C41.9416 1.20256 1.22106 41.9786 1.22106 92.0791C1.22106 142.198 41.9416 182.956 91.9866 182.956C142.032 182.956 182.752 142.18 182.752 92.0791C182.752 41.9601 142.032 1.20256 91.9866 1.20256Z" fill="white"/>
</g>
</g>
<defs>
<filter id="filter0_d_19_15" x="-17" y="-15" width="217.973" height="218.195" filterUnits="userSpaceOnUse" color-interpolation-filters="sRGB">
<feFlood flood-opacity="0" result="BackgroundImageFix"/>
<feColorMatrix in="SourceAlpha" type="matrix" values="0 0 0 0 0 0 0 0 0 0 0 0 0 0 0 0 0 0 127 0" result="hardAlpha"/>
<feOffset dy="2"/>
<feGaussianBlur stdDeviation="8.5"/>
<feComposite in2="hardAlpha" operator="out"/>
<feColorMatrix type="matrix" values="0 0 0 0 0 0 0 0 0 0 0 0 0 0 0 0 0 0 0.54 0"/>
<feBlend mode="normal" in2="BackgroundImageFix" result="effect1_dropShadow_19_15"/>
<feBlend mode="normal" in="SourceGraphic" in2="effect1_dropShadow_19_15" result="shape"/>
</filter>
<clipPath id="clip0_19_15">
<rect width="183.973" height="184.195" fill="white"/>
</clipPath>
</defs>
</svg>
