<svg width="26" height="26" viewBox="0 0 26 26" fill="none" xmlns="http://www.w3.org/2000/svg">
<path d="M12.7998 21.7529C9.6748 21.7529 6.9123 20.1529 5.2998 17.7529C5.3373 15.2529 10.2998 13.8779 12.7998 13.8779C15.2998 13.8779 20.2623 15.2529 20.2998 17.7529C19.4734 18.9834 18.3571 19.9919 17.0493 20.6894C15.7414 21.3869 14.2821 21.7522 12.7998 21.7529ZM12.7998 4.00293C13.7944 4.00293 14.7482 4.39802 15.4515 5.10128C16.1547 5.80454 16.5498 6.75837 16.5498 7.75293C16.5498 8.74749 16.1547 9.70132 15.4515 10.4046C14.7482 11.1078 13.7944 11.5029 12.7998 11.5029C11.8052 11.5029 10.8514 11.1078 10.1482 10.4046C9.44489 9.70132 9.0498 8.74749 9.0498 7.75293C9.0498 6.75837 9.44489 5.80454 10.1482 5.10128C10.8514 4.39802 11.8052 4.00293 12.7998 4.00293ZM12.7998 0.25293C11.1583 0.25293 9.53283 0.576252 8.01626 1.20444C6.49969 1.83262 5.1217 2.75336 3.96097 3.91409C1.61677 6.2583 0.299805 9.43772 0.299805 12.7529C0.299805 16.0681 1.61677 19.2476 3.96097 21.5918C5.1217 22.7525 6.49969 23.6732 8.01626 24.3014C9.53283 24.9296 11.1583 25.2529 12.7998 25.2529C16.115 25.2529 19.2944 23.936 21.6386 21.5918C23.9828 19.2476 25.2998 16.0681 25.2998 12.7529C25.2998 5.84043 19.6748 0.25293 12.7998 0.25293Z" fill="white"/>
</svg>
