<svg width="22" height="25" viewBox="0 0 22 25" fill="none" xmlns="http://www.w3.org/2000/svg">
<path d="M10.7998 18.5377C11.496 18.5377 12.1637 18.2969 12.656 17.8682C13.1482 17.4395 13.4248 16.8582 13.4248 16.252C13.4248 15.6457 13.1482 15.0644 12.656 14.6357C12.1637 14.2071 11.496 13.9662 10.7998 13.9662C10.1036 13.9662 9.43593 14.2071 8.94365 14.6357C8.45137 15.0644 8.1748 15.6457 8.1748 16.252C8.1748 16.8582 8.45137 17.4395 8.94365 17.8682C9.43593 18.2969 10.1036 18.5377 10.7998 18.5377ZM18.6748 8.25195C19.371 8.25195 20.0387 8.49277 20.531 8.92142C21.0232 9.35008 21.2998 9.93146 21.2998 10.5377V21.9662C21.2998 22.5724 21.0232 23.1538 20.531 23.5825C20.0387 24.0111 19.371 24.252 18.6748 24.252H2.9248C2.22861 24.252 1.56093 24.0111 1.06865 23.5825C0.576366 23.1538 0.299805 22.5724 0.299805 21.9662V10.5377C0.299805 9.93146 0.576366 9.35008 1.06865 8.92142C1.56093 8.49277 2.22861 8.25195 2.9248 8.25195H4.2373V5.96624C4.2373 4.45072 4.92871 2.99727 6.15942 1.92563C7.39012 0.853992 9.05932 0.251953 10.7998 0.251953C11.6616 0.251953 12.515 0.399758 13.3112 0.686927C14.1074 0.974097 14.8308 1.39501 15.4402 1.92563C16.0496 2.45625 16.533 3.08619 16.8628 3.77948C17.1926 4.47277 17.3623 5.21583 17.3623 5.96624V8.25195H18.6748ZM10.7998 2.53767C9.75551 2.53767 8.754 2.89889 8.01557 3.54187C7.27715 4.18485 6.8623 5.05693 6.8623 5.96624V8.25195H14.7373V5.96624C14.7373 5.05693 14.3225 4.18485 13.584 3.54187C12.8456 2.89889 11.8441 2.53767 10.7998 2.53767Z" fill="white"/>
</svg>
