<svg width="155" height="154" viewBox="0 0 155 154" fill="none" xmlns="http://www.w3.org/2000/svg">
<g filter="url(#filter0_d_1_13545)">
<path d="M77.3281 15C61.4188 15 46.1469 21.3253 34.9062 32.5734C23.654 43.826 17.3312 59.0867 17.3281 75C17.3281 90.9066 23.6562 106.178 34.9062 117.427C46.1469 128.675 61.4188 135 77.3281 135C93.2375 135 108.509 128.675 119.75 117.427C131 106.178 137.328 90.9066 137.328 75C137.328 59.0934 131 43.8216 119.75 32.5734C108.509 21.3253 93.2375 15 77.3281 15Z" fill="white"/>
</g>
<path fill-rule="evenodd" clip-rule="evenodd" d="M74.9018 106.124L75.901 104.763L74.9018 106.124ZM76.9001 106.124L76.9071 106.121L76.9244 106.109L76.9765 106.071L77.1812 105.929C77.3546 105.806 77.6079 105.626 77.9271 105.389C78.5654 104.919 79.471 104.228 80.5517 103.339C83.3886 101.01 86.0413 98.4804 88.4879 95.7726C94.2263 89.3958 100.187 80.2939 100.187 69.8887C100.187 63.6719 97.6297 57.7051 93.0779 53.305C90.8281 51.1273 88.1522 49.3986 85.2042 48.2184C82.2563 47.0382 79.0946 46.4298 75.901 46.4282C72.7075 46.4296 69.5458 47.0377 66.5979 48.2176C63.65 49.3975 60.974 51.1259 58.724 53.3034C54.1677 57.7135 51.6122 63.6764 51.6152 69.8904C51.6152 80.2939 57.5756 89.3958 63.314 95.7726C65.7606 98.4804 68.4133 101.01 71.2502 103.339C72.3327 104.228 73.2365 104.919 73.8748 105.389C74.1879 105.621 74.5043 105.849 74.8237 106.073L74.8792 106.109L74.8948 106.121L74.9018 106.124C75.5002 106.529 76.3017 106.529 76.9001 106.124V106.124ZM75.901 104.763L76.9001 106.124L75.901 104.763ZM84.5744 69.762C84.5744 71.9722 83.6606 74.0919 82.034 75.6547C80.4074 77.2176 78.2013 78.0955 75.901 78.0955C73.6006 78.0955 71.3945 77.2176 69.7679 75.6547C68.1413 74.0919 67.2275 71.9722 67.2275 69.762C67.2275 67.5519 68.1413 65.4322 69.7679 63.8694C71.3945 62.3065 73.6006 61.4285 75.901 61.4285C78.2013 61.4285 80.4074 62.3065 82.034 63.8694C83.6606 65.4322 84.5744 67.5519 84.5744 69.762V69.762Z" fill="#221F51"/>
<defs>
<filter id="filter0_d_1_13545" x="0.328125" y="0" width="154" height="154" filterUnits="userSpaceOnUse" color-interpolation-filters="sRGB">
<feFlood flood-opacity="0" result="BackgroundImageFix"/>
<feColorMatrix in="SourceAlpha" type="matrix" values="0 0 0 0 0 0 0 0 0 0 0 0 0 0 0 0 0 0 127 0" result="hardAlpha"/>
<feOffset dy="2"/>
<feGaussianBlur stdDeviation="8.5"/>
<feComposite in2="hardAlpha" operator="out"/>
<feColorMatrix type="matrix" values="0 0 0 0 0 0 0 0 0 0 0 0 0 0 0 0 0 0 0.54 0"/>
<feBlend mode="normal" in2="BackgroundImageFix" result="effect1_dropShadow_1_13545"/>
<feBlend mode="normal" in="SourceGraphic" in2="effect1_dropShadow_1_13545" result="shape"/>
</filter>
</defs>
</svg>
