<svg width="64" height="64" viewBox="0 0 64 64" fill="none" xmlns="http://www.w3.org/2000/svg">
<path d="M31.9297 63.7815C49.4324 63.7815 63.6212 49.5639 63.6212 32.0257C63.6212 14.4875 49.4324 0.27002 31.9297 0.27002C14.427 0.27002 0.238281 14.4875 0.238281 32.0257C0.238281 49.5639 14.427 63.7815 31.9297 63.7815Z" fill="#221F51"/>
<path d="M31.916 63.2351C14.6432 63.2287 0.655273 49.2343 0.655273 31.9615C0.655273 14.6951 14.6625 0.68791 31.9353 0.694338C49.2145 0.700766 63.2089 14.7209 63.1961 32.0065C63.1832 49.26 49.176 63.2416 31.916 63.2351ZM12.5733 48.3344C12.4319 48.7779 12.2905 49.2086 12.149 49.6457C12.0076 50.0893 11.8533 50.5328 11.7184 50.9828C11.6669 51.1628 11.5576 51.15 11.4291 51.1371C10.992 51.0857 10.5548 51.0342 10.1177 50.9892C9.42988 50.9121 8.74848 50.8414 8.06066 50.7643C8.0478 50.7964 8.03494 50.835 8.02209 50.8671C14.5532 58.6325 22.8393 62.6951 33.0538 62.3416C42.6191 62.0073 50.2752 57.7711 56.1828 50.3014C54.9871 50.3914 53.8043 50.5071 52.6344 50.6614C52.358 50.7 52.2808 50.5778 52.2165 50.3657C51.9787 49.6072 51.7344 48.8486 51.4837 48.0772C46.3539 53.9848 39.9385 57.2054 32.096 57.2632C24.2599 57.3147 17.7931 54.1905 12.5733 48.3344ZM7.47568 31.9358C7.4114 45.3452 18.3266 56.3761 31.8196 56.434C45.3383 56.4919 56.3885 45.5702 56.4014 32.0001C56.4206 18.4685 45.4668 7.50832 31.9417 7.50189C18.3652 7.48904 7.43711 18.5457 7.47568 31.9358ZM15.0353 11.9888C15.0546 12.201 15.0032 12.4131 15.2346 12.5095C15.4596 12.606 15.6203 12.4774 15.781 12.3424C15.916 12.2267 16.0574 12.111 16.1989 11.9953C16.321 11.8988 16.2631 11.8217 16.1989 11.7253C16.1153 11.6031 16.0446 11.661 15.9674 11.7253C15.8517 11.8217 15.7425 11.9246 15.6203 12.0081C15.4468 12.1174 15.3632 12.0531 15.3632 11.8538C15.3632 11.751 15.4018 11.6738 15.4596 11.5903C15.7939 11.1082 15.8453 10.5939 15.6396 10.0411C15.3889 9.35324 14.6304 8.90969 13.8911 9.04468C13.2097 9.16682 12.7276 9.79036 12.7212 10.5232C12.734 11.436 13.6468 12.561 15.0353 11.9888ZM39.6621 4.37775C39.7071 4.50631 39.7457 4.58345 39.7585 4.66059C39.9128 5.39984 40.0928 6.1391 40.1957 6.88478C40.2535 7.28976 40.4592 7.44404 40.8128 7.51475C40.9542 7.54689 41.0056 7.50832 41.0442 7.38619C41.3206 6.55051 41.597 5.71483 41.8734 4.87915C41.9249 4.72488 41.9249 4.60274 41.7127 4.55131C41.5135 4.49988 41.4427 4.53845 41.417 4.74416C41.4042 4.86629 41.3399 4.98201 41.3013 5.10414C41.102 5.71483 40.9028 6.31909 40.7035 6.93621C40.6006 6.87192 40.6135 6.79478 40.6006 6.72407C40.4399 5.95268 40.2535 5.18128 40.1249 4.40346C40.0671 4.06276 39.9 3.94063 39.6107 3.86349C39.4435 3.81849 39.3535 3.80563 39.2893 4.01776C39.0386 4.85344 38.7621 5.68269 38.4793 6.50551C38.415 6.69836 38.4536 6.75621 38.6336 6.81407C38.82 6.87192 38.8714 6.81407 38.9229 6.64693C39.1607 5.89482 39.405 5.162 39.6621 4.37775ZM2.60304 29.6088C2.5259 29.9045 2.62233 30.0202 2.94374 30.0459C3.74085 30.1102 4.54438 30.2066 5.33506 30.3094C5.52791 30.3352 5.61791 30.3287 5.65648 30.0973C5.69505 29.8338 5.55363 29.8466 5.38649 29.8338C5.14221 29.8145 4.89794 29.7823 4.65367 29.7502C4.58938 29.7438 4.51867 29.7373 4.47368 29.6988C4.37725 29.6152 4.55724 28.9274 4.68581 28.8759C5.02008 28.7409 5.36078 28.606 5.70148 28.4774C5.94575 28.3874 5.90075 28.1624 5.86218 28.0145C5.80433 27.8088 5.65005 27.9953 5.56005 28.021C5.29649 28.111 5.03293 28.2074 4.78866 28.3295C4.59581 28.426 4.5251 28.3617 4.46082 28.1881C4.3194 27.8281 4.04298 27.6546 3.67014 27.6481C3.29087 27.6417 3.02088 27.8281 2.86661 28.1753C2.64804 28.6381 2.68018 29.1395 2.60304 29.6088ZM23.3535 5.85625C23.81 5.39985 23.8871 5.04629 23.6235 4.61559C23.3985 4.24275 22.9357 4.12704 22.3893 4.30061C22.0229 4.41632 21.6629 4.54488 21.2965 4.67345C21.2129 4.70559 21.1101 4.71845 21.1615 4.8663C21.4636 5.72769 21.7658 6.58908 22.0486 7.45047C22.1129 7.64974 22.2222 7.57261 22.3443 7.54689C22.4922 7.50832 22.5243 7.42476 22.4729 7.28976C22.3764 7.01977 22.2865 6.74978 22.1965 6.47979C22.1772 6.42194 22.1129 6.3448 22.1836 6.31266C22.3957 6.21624 22.6207 6.1391 22.8457 6.07481C22.9807 6.03624 23.045 6.18409 23.1221 6.25481C23.3535 6.46051 23.5721 6.67907 23.7907 6.89763C23.9707 7.07763 24.1635 6.96192 24.2792 6.85907C24.4078 6.74336 24.2021 6.67264 24.1378 6.60836C23.8935 6.3448 23.6171 6.10053 23.3535 5.85625ZM27.5191 6.1841C28.3548 6.19695 29.004 5.54769 29.0233 4.67987C29.0426 3.78634 28.3933 3.05995 27.5641 3.04709C26.7348 3.03424 26.0727 3.61921 26.0406 4.56417C26.0084 5.43841 26.7091 6.17124 27.5191 6.1841ZM51.1944 10.8896C51.2587 10.9539 51.3166 10.9989 51.368 11.0503C51.6637 11.3396 51.9594 11.6353 52.2551 11.931C52.3837 12.0595 52.4865 12.021 52.6087 11.8988C52.7437 11.7638 52.6472 11.6996 52.5572 11.616C52.1394 11.2174 51.728 10.8189 51.3166 10.4139C51.1944 10.2918 51.0916 10.2725 50.9695 10.401C50.3523 11.0503 49.7288 11.6996 49.1053 12.3424C48.996 12.4517 49.0281 12.5031 49.1245 12.5931C49.5681 13.0109 50.0052 13.4352 50.4359 13.8659C50.5773 14.0009 50.6609 13.9559 50.7766 13.8402C50.9116 13.7116 50.828 13.6473 50.738 13.5573C50.5388 13.3645 50.3395 13.1652 50.1402 12.9724C49.6195 12.471 49.6259 12.471 50.1466 11.9503C50.2752 11.8281 50.3395 11.8346 50.4552 11.9567C50.7188 12.2267 50.9952 12.471 51.2587 12.7345C51.4002 12.8759 51.4709 12.7795 51.5737 12.6895C51.6894 12.5867 51.6509 12.5224 51.5609 12.4324C51.3616 12.2524 51.1752 12.0595 50.9823 11.8796C50.5709 11.4874 50.5709 11.4939 50.9823 11.0824C51.0466 11.0182 51.1173 10.9603 51.1944 10.8896ZM57.687 31.1516C57.6934 31.1516 57.6934 31.1516 57.6999 31.1516C57.6999 31.4601 57.7063 31.7751 57.6999 32.0837C57.6934 32.2379 57.7513 32.2894 57.9056 32.2894C58.0534 32.2829 58.1563 32.2636 58.137 32.0772C58.1113 31.8008 58.092 31.5244 58.092 31.2415C58.092 30.3416 57.8799 30.573 58.8055 30.4959C59.0048 30.4766 59.037 30.5666 59.037 30.7337C59.0434 31.0744 59.0627 31.4151 59.082 31.7622C59.0884 31.8908 59.0498 32.0387 59.2812 32.0322C59.5319 32.0258 59.4869 31.8715 59.4805 31.7301C59.4741 31.5244 59.4741 31.3251 59.4548 31.1194C59.4098 30.4637 59.4098 30.4702 60.0848 30.4637C60.2712 30.4637 60.3226 30.5216 60.3226 30.6951C60.3226 31.113 60.3483 31.5308 60.3483 31.9487C60.3483 32.1351 60.4126 32.1801 60.5926 32.1801C60.7919 32.1801 60.7855 32.0708 60.779 31.9358C60.7533 31.3573 60.7276 30.7787 60.7147 30.2066C60.7083 30.0202 60.6569 29.9688 60.4705 29.9816C59.6026 30.0137 58.7348 30.0459 57.8734 30.0587C57.6677 30.0652 57.6163 30.1487 57.6356 30.3352C57.6549 30.5987 57.6677 30.8751 57.687 31.1516ZM3.76013 39.6433C4.58938 39.4505 5.5022 39.2319 6.42145 39.0133C6.50501 38.9941 6.51787 38.9362 6.49859 38.8719C6.35074 38.242 6.20289 37.612 6.04861 36.982C6.01004 36.8277 5.90076 36.8727 5.79147 36.8856C5.65648 36.9049 5.61148 36.9499 5.65005 37.0977C5.72719 37.387 5.7979 37.6763 5.86218 37.9655C6.01003 38.6405 6.00361 38.6277 5.34149 38.8012C5.09722 38.8655 5.02651 38.7884 4.98794 38.5634C4.92366 38.2098 4.82723 37.8627 4.74366 37.5091C4.69866 37.3291 4.5701 37.3999 4.46082 37.4127C4.3194 37.432 4.33868 37.4963 4.37082 37.612C4.44153 37.8755 4.49939 38.152 4.53796 38.4219C4.56367 38.5955 4.74366 38.8012 4.63438 38.9169C4.51867 39.0326 4.2744 39.0134 4.09441 39.0841C3.85013 39.1805 3.77942 39.0648 3.74085 38.8526C3.65728 38.4477 3.55443 38.0427 3.47086 37.6377C3.43229 37.4641 3.33587 37.4898 3.2073 37.5156C3.08517 37.5413 3.02088 37.5606 3.05945 37.7213C3.2073 38.3062 3.3423 38.9041 3.48372 39.4955C3.51586 39.6047 3.54157 39.6883 3.76013 39.6433ZM53.9522 16.1608C54.5307 16.4501 54.8843 16.4179 55.1993 16.0579C55.4885 15.7301 55.4564 15.248 55.1157 14.7659C54.9036 14.4702 54.6786 14.1873 54.4729 13.8916C54.3829 13.763 54.3186 13.7566 54.1965 13.8466C53.4958 14.3737 52.7887 14.8944 52.0816 15.4023C51.9337 15.5115 51.9658 15.5694 52.0494 15.7044C52.1523 15.8715 52.2423 15.8201 52.3515 15.7365C52.6151 15.5372 52.8787 15.338 53.1615 15.1323C53.2579 15.2544 53.3351 15.3765 53.4379 15.4858C53.6436 15.6915 53.6886 15.8972 53.5215 16.1544C53.3929 16.3472 53.3222 16.5786 53.1936 16.7779C53.0201 17.0415 53.1036 17.2215 53.3415 17.4015C53.5858 17.0093 53.7529 16.5786 53.9522 16.1608ZM35.2523 6.12624C35.863 6.12624 36.3387 5.72126 36.4287 5.117C36.5058 4.5706 36.5701 4.01776 36.6601 3.47136C36.6987 3.2528 36.6472 3.17566 36.4287 3.14352C36.1908 3.11138 36.1908 3.24637 36.1715 3.40708C36.1008 3.93419 36.0366 4.46774 35.953 4.99486C35.8758 5.48984 35.5737 5.73412 35.1237 5.69555C34.6416 5.65055 34.3845 5.36128 34.4295 4.84701C34.4809 4.28775 34.5581 3.72206 34.648 3.16923C34.6802 2.98924 34.6673 2.91853 34.4745 2.89281C34.2945 2.87353 34.1788 2.86067 34.1595 3.10494C34.1145 3.61278 34.0438 4.12704 33.9602 4.62845C33.8252 5.50912 34.3523 6.13267 35.2523 6.12624ZM7.0707 16.4179C6.92285 16.4501 6.87785 16.6493 6.76214 16.7843C6.64001 16.9258 6.71715 17.0029 6.79429 17.1058C7.35355 17.8193 7.90638 18.5393 8.47207 19.2528C8.54278 19.3428 8.60063 19.5421 8.73563 19.4199C8.83848 19.3235 9.04419 19.1564 8.81277 18.9635C8.41422 18.6421 8.45278 18.3014 8.76777 17.9479C8.79991 17.9093 8.82562 17.8579 8.85134 17.8129C9.15989 17.3115 9.15989 17.3115 9.7513 17.4207C9.79629 17.4272 9.83486 17.4464 9.87986 17.44C10.0663 17.4207 10.0856 17.2407 10.1499 17.1186C10.1948 17.0286 10.0727 17.0093 10.0084 16.9965C9.04419 16.8101 8.0928 16.6236 7.0707 16.4179ZM6.1386 21.9205C6.27359 21.8948 6.34431 21.882 6.42145 21.8691C6.80071 21.8048 7.17998 21.747 7.55925 21.6827C7.81638 21.6377 7.82924 21.3934 7.82281 21.2391C7.81638 21.0913 7.62354 21.207 7.52711 21.2199C7.1157 21.2906 6.70429 21.3677 6.29931 21.4641C6.12574 21.5027 6.02932 21.4706 5.93289 21.3163C5.68862 20.9499 5.43149 20.6027 5.16793 20.2492C5.12936 20.1978 5.07151 20.0435 4.99437 20.172C4.89794 20.3327 4.75009 20.4999 4.94294 20.7184C5.17436 20.982 5.36078 21.2841 5.58577 21.5541C5.72719 21.7277 5.68219 21.7727 5.48291 21.7984C5.12293 21.8498 4.76938 21.927 4.40939 21.9784C4.15226 22.017 4.09441 22.2355 4.12655 22.4091C4.15869 22.5955 4.34511 22.4477 4.44796 22.4348C4.81437 22.3769 5.18721 22.3062 5.5472 22.2162C5.7529 22.1648 5.85575 22.2227 5.96504 22.3834C6.21574 22.7562 6.4793 23.1162 6.73643 23.4826C6.78143 23.5469 6.87785 23.6755 6.91642 23.5855C6.98071 23.4248 7.19927 23.2769 7.00642 23.0455C6.71072 22.6984 6.44716 22.3255 6.1386 21.9205ZM5.25792 33.6843C5.09079 33.755 5.01365 33.7872 4.93651 33.8193C4.22297 34.1086 3.51586 34.4107 2.79589 34.6871C2.5259 34.79 2.6159 34.9892 2.6609 35.1371C2.71875 35.3299 2.86018 35.1757 2.95017 35.1371C3.77299 34.8028 4.58939 34.4493 5.40578 34.115C5.58577 34.0379 5.68862 33.9607 5.64362 33.7421C5.59862 33.5429 5.69505 33.3115 5.36078 33.2279C4.49939 33.0158 3.65085 32.7586 2.79589 32.5208C2.7059 32.4951 2.59019 32.3858 2.50662 32.5143C2.43591 32.6172 2.48733 32.7458 2.50662 32.8615C2.53233 33.0029 2.67375 32.9836 2.76375 33.0093C3.56729 33.2343 4.37082 33.4465 5.25792 33.6843ZM54.7236 19.6449C54.7557 20.0692 54.9293 20.4549 55.2893 20.7506C55.5978 21.0013 55.9771 21.0206 56.3049 20.8084C56.6199 20.6092 56.7099 20.3456 56.6071 19.9213C56.5364 19.6128 56.4592 19.2978 56.3949 18.9892C56.3628 18.835 56.3949 18.6935 56.5428 18.5971C56.6906 18.5007 56.8449 18.4943 56.9928 18.5843C57.3913 18.8092 57.5456 19.4199 57.2627 19.7606C57.102 19.9535 57.282 20.0499 57.3399 20.1335C57.4106 20.2363 57.4942 20.0885 57.552 20.0306C57.6677 19.9149 57.7384 19.7735 57.7577 19.6064C57.822 19.1178 57.6227 18.7257 57.3013 18.3914C57.0249 18.1021 56.6713 18.0443 56.3692 18.2114C56.0607 18.3785 55.945 18.6485 56.0285 19.0599C56.0864 19.3299 56.1635 19.5999 56.2407 19.8635C56.3178 20.127 56.2728 20.3585 56.0157 20.4935C55.7457 20.6349 55.5014 20.5449 55.3343 20.3199C55.0643 19.9663 54.91 19.5485 55.2571 19.1885C55.405 19.0407 55.2828 18.9185 55.1993 18.8285C55.0707 18.6871 55.0193 18.8735 54.9614 18.9314C54.7879 19.1178 54.73 19.3557 54.7236 19.6449ZM46.5532 10.0411C46.5532 9.96393 46.5468 9.93179 46.5532 9.90607C46.7782 9.10254 46.9839 8.299 47.2282 7.50832C47.3182 7.22548 47.0932 7.18691 46.9646 7.12905C46.7911 7.05191 46.8232 7.26405 46.7911 7.35404C46.6497 7.82331 46.5211 8.29257 46.3925 8.76184C46.2832 9.16039 46.1804 9.56537 46.0647 9.96393C45.9747 10.2789 46.2575 10.3175 46.4054 10.4589C46.5532 10.5939 46.6561 10.5232 46.7846 10.4268C47.5046 9.88679 48.231 9.35967 48.9445 8.81969C49.0153 8.76827 49.2338 8.7297 49.0924 8.58828C48.9895 8.48542 48.861 8.27329 48.636 8.45971C48.366 8.6847 48.0767 8.8904 47.7939 9.10254C47.3889 9.4111 46.9904 9.71322 46.5532 10.0411ZM20.2037 8.40185C19.4837 7.78474 18.7573 7.16762 18.0502 6.53765C17.8766 6.38337 17.7609 6.33194 17.5359 6.46051C17.3174 6.58265 17.2724 6.71764 17.311 6.94263C17.4652 7.87473 17.6131 8.80683 17.7738 9.75822C17.9088 9.6618 18.1595 9.71322 18.1145 9.43038C18.0116 8.78112 18.0116 8.78112 18.5709 8.47899C18.6545 8.434 18.7445 8.39543 18.8216 8.33114C19.1173 8.0933 19.3744 8.08044 19.6251 8.40185C19.7923 8.65256 19.998 8.65256 20.2037 8.40185ZM57.6806 35.1499C57.5199 35.0857 57.4685 35.1885 57.4363 35.3749C57.3977 35.5871 57.5006 35.6192 57.6742 35.6385C58.3877 35.7285 59.0948 35.8378 59.8083 35.9213C60.0076 35.9471 60.0591 36.0049 60.0076 36.1978C59.9626 36.3842 59.9626 36.577 59.9305 36.7699C59.9112 36.9177 59.9883 36.9499 60.1105 36.9627C60.239 36.9756 60.3355 36.982 60.3612 36.8084C60.4512 36.1335 60.5412 35.4521 60.6376 34.7771C60.6569 34.6293 60.644 34.5393 60.4576 34.52C60.2712 34.5007 60.2069 34.5585 60.194 34.7385C60.1812 34.9057 60.1298 35.0792 60.1298 35.2464C60.1298 35.4714 60.0333 35.4714 59.8534 35.4456C59.1462 35.3364 58.4327 35.2464 57.6806 35.1499ZM57.1728 26.7996C57.1535 27.0246 57.2435 27.0953 57.4813 27.0375C58.0084 26.9153 58.5484 26.8189 59.082 26.7096C59.8084 26.5618 59.8083 26.5618 59.9626 27.2817C59.9948 27.4167 59.9948 27.5453 60.2198 27.5003C60.4383 27.4553 60.3933 27.3267 60.3676 27.1982C60.2455 26.5618 60.1169 25.9254 59.9948 25.2825C59.9691 25.1347 59.9176 25.0575 59.7441 25.0961C59.5769 25.1283 59.5319 25.2118 59.5769 25.3597C59.6155 25.5011 59.6476 25.6489 59.6862 25.7904C59.7505 26.0282 59.6862 26.1375 59.4162 26.1825C58.7413 26.2918 58.0727 26.4396 57.4042 26.5746C57.2756 26.6003 57.1149 26.5939 57.1728 26.7996ZM9.47488 13.1909C9.33989 13.2359 9.28846 13.3516 9.21132 13.4352C9.14061 13.5123 9.19846 13.5895 9.26918 13.6538C9.95057 14.2516 10.6255 14.8559 11.3005 15.4537C11.3841 15.5244 11.4548 15.563 11.5384 15.4601C11.9176 15.0166 12.3033 14.573 12.689 14.1295C12.824 13.9752 12.6955 13.9109 12.6119 13.8209C12.509 13.7052 12.4447 13.7566 12.3676 13.853C12.1233 14.1487 11.8533 14.4252 11.6155 14.7273C11.4805 14.8944 11.3969 14.8944 11.2427 14.753C10.7284 14.2773 10.1948 13.8145 9.66773 13.3516C9.60345 13.2873 9.53916 13.2359 9.47488 13.1909ZM59.5641 39.804C59.7698 39.8555 59.6926 39.6176 59.7569 39.5148C59.8598 39.3476 59.7119 39.3476 59.6155 39.3219C59.082 39.1741 58.542 39.0326 58.0084 38.8848C57.6677 38.7948 57.327 38.7048 56.9928 38.6019C56.7678 38.5377 56.7806 38.7305 56.7356 38.8398C56.6842 38.9491 56.7099 39.0391 56.8513 39.0776C57.7449 39.3026 58.6255 39.5469 59.5641 39.804ZM44.779 5.94625C44.734 5.82411 44.599 5.81768 44.5026 5.75983C44.3869 5.68912 44.3226 5.76626 44.2776 5.86268C43.8855 6.66622 43.4998 7.46975 43.0948 8.26043C42.9984 8.44685 43.082 8.49185 43.2105 8.56899C43.3712 8.65898 43.4548 8.62684 43.5319 8.46614C43.9112 7.68189 44.2969 6.90406 44.6826 6.12624C44.7147 6.06838 44.7469 6.01053 44.779 5.94625ZM56.4078 23.6755C56.4464 23.6626 56.4721 23.6497 56.5042 23.6433C57.3527 23.354 58.2013 23.0583 59.0562 22.7691C59.2427 22.7048 59.1655 22.6148 59.127 22.5055C59.0884 22.3898 59.0884 22.2741 58.902 22.3384C58.047 22.6405 57.1856 22.9362 56.3242 23.2319C56.2278 23.264 56.1571 23.3155 56.2278 23.4119C56.2921 23.4955 56.2471 23.6626 56.4078 23.6755Z" fill="white"/>
<path d="M31.9287 62.9073C27.7504 62.9073 23.7005 62.0909 19.8821 60.471C16.1987 58.9153 12.8882 56.6783 10.0469 53.837C7.20557 50.9957 4.97496 47.6851 3.41288 44.0017C1.79938 40.1833 0.976562 36.1335 0.976562 31.9551C0.976562 27.7767 1.79296 23.7269 3.41288 19.9085C4.97496 16.2251 7.20557 12.9145 10.0469 10.0732C12.8882 7.23193 16.1987 5.00132 19.8821 3.43925C23.7005 1.82575 27.7504 1.00293 31.9287 1.00293C36.1071 1.00293 40.157 1.81932 43.9754 3.43925C47.6588 5.00132 50.9693 7.23193 53.8106 10.0732C56.6519 12.9145 58.8825 16.2251 60.4446 19.9085C62.0581 23.7269 62.8809 27.7767 62.8809 31.9551C62.8809 36.1335 62.0645 40.1833 60.4446 44.0017C58.8825 47.6851 56.6519 50.9957 53.8106 53.837C50.9693 56.6783 47.6588 58.9089 43.9754 60.471C40.157 62.0909 36.1007 62.9073 31.9287 62.9073ZM31.9287 7.43764C18.4036 7.43764 7.39842 18.4429 7.39842 31.968C7.39842 45.4931 18.4036 56.4983 31.9287 56.4983C45.4539 56.4983 56.4591 45.4931 56.4591 31.968C56.4526 18.4364 45.4539 7.43764 31.9287 7.43764Z" fill="white"/>
<path d="M12.6249 48.2765C17.8446 54.1262 24.3115 57.2568 32.154 57.199C40.0029 57.1411 46.4184 53.9205 51.5417 48.0129C51.786 48.7843 52.0367 49.5429 52.2745 50.3014C52.3388 50.5135 52.416 50.6357 52.6924 50.5971C53.8687 50.4493 55.0451 50.3271 56.2408 50.2371C50.3332 57.7068 42.6707 61.943 33.1118 62.2773C22.8973 62.6373 14.5984 58.5746 8.08008 50.8028C8.09293 50.7707 8.10579 50.7321 8.11865 50.7C8.80647 50.7771 9.48787 50.8478 10.1757 50.925C10.6128 50.9764 11.0499 51.0214 11.4871 51.0728C11.6221 51.0857 11.7249 51.0985 11.7763 50.9185C11.9049 50.4685 12.0592 50.025 12.207 49.5814C12.342 49.1572 12.4835 48.7201 12.6249 48.2765ZM30.1291 59.8088C30.1291 59.9246 30.1227 60.0467 30.1291 60.1624C30.1484 60.6445 30.5276 61.0045 31.0291 61.0109C31.5562 61.0238 31.9354 60.7088 31.9676 60.2138C31.9804 59.9888 31.974 59.7638 31.974 59.5389C31.9676 59.0632 31.7169 58.7482 31.2926 58.6646C30.7976 58.5682 30.3991 58.761 30.1998 59.1789C30.1034 59.3846 30.1419 59.5967 30.1291 59.8088ZM33.1632 60.4581C33.3304 60.3038 33.4461 60.2074 33.5425 60.0981C33.6518 59.9824 33.7675 59.8667 33.8511 59.7317C34.0503 59.4167 34.0118 59.0889 33.7546 58.8639C33.3754 58.5296 32.7133 58.5746 32.3983 58.9732C32.3468 59.0374 32.1797 59.1596 32.3147 59.2174C32.4626 59.2817 32.6168 59.5581 32.8225 59.3203C32.9704 59.1532 33.1504 59.0696 33.3175 59.2303C33.4975 59.3974 33.3432 59.5581 33.2275 59.6996C33.1632 59.7703 33.0925 59.841 33.0218 59.9053C32.8161 60.0981 32.6168 60.2845 32.4111 60.471C32.2761 60.5931 32.3083 60.7538 32.334 60.8888C32.3661 61.0366 32.514 60.9659 32.604 60.9659C32.9897 60.9724 33.3754 60.9595 33.7611 60.9724C33.9218 60.9788 33.9732 60.9338 33.9861 60.7602C33.9989 60.5095 33.9282 60.4131 33.6711 60.4452C33.5297 60.4774 33.3882 60.4581 33.1632 60.4581ZM35.2074 60.4581C35.3553 60.3167 35.4581 60.2267 35.5481 60.1367C35.651 60.0274 35.7603 59.9246 35.8438 59.8024C36.1074 59.4231 36.0431 59.0439 35.6896 58.7996C35.2846 58.5168 34.6417 58.6453 34.3846 59.0567C34.346 59.1146 34.2625 59.211 34.3653 59.2432C34.5453 59.301 34.706 59.5903 34.931 59.2817C35.0403 59.1339 35.2074 59.1274 35.3617 59.2303C35.5417 59.3589 35.4453 59.4874 35.3489 59.6096C35.2717 59.706 35.1881 59.8024 35.0917 59.8924C34.8796 60.0981 34.661 60.3038 34.436 60.5031C34.2946 60.6252 34.346 60.7859 34.3718 60.9209C34.3975 61.0366 34.5389 60.9724 34.6225 60.9788C35.0146 60.9852 35.4131 60.9724 35.8117 60.9852C35.9788 60.9916 36.0174 60.9338 36.0303 60.7667C36.0495 60.5031 35.9531 60.426 35.7088 60.4581C35.5739 60.471 35.426 60.4581 35.2074 60.4581ZM28.9849 60.4581C29.2098 60.2203 29.4348 60.0724 29.5827 59.8538C29.7177 59.661 29.8334 59.4617 29.7563 59.2046C29.6727 58.9025 29.467 58.7353 29.1777 58.671C28.792 58.5875 28.4513 58.6839 28.207 58.9989C28.162 59.0503 27.9756 59.1532 28.1556 59.2367C28.297 59.301 28.4385 59.5131 28.6184 59.3396C28.7856 59.1789 28.9656 59.0632 29.1391 59.2367C29.332 59.4296 29.1456 59.6096 29.0041 59.751C28.7534 59.9953 28.4963 60.2395 28.2392 60.4774C28.1042 60.5995 28.1363 60.7602 28.162 60.8952C28.1878 61.0431 28.342 60.9724 28.432 60.9724C28.8049 60.9788 29.1777 60.9659 29.557 60.9788C29.7755 60.9916 29.8141 60.9081 29.8205 60.7088C29.827 60.4774 29.737 60.4388 29.5441 60.4517C29.3706 60.471 29.2034 60.4581 28.9849 60.4581ZM27.3071 59.3139C27.0178 59.3139 26.7992 59.526 26.7992 59.8153C26.7992 60.1045 27.0114 60.3295 27.2942 60.336C27.5771 60.3424 27.8021 60.111 27.8085 59.8281C27.8085 59.5453 27.5899 59.3203 27.3071 59.3139ZM36.8595 59.3139C36.5767 59.3139 36.3581 59.5324 36.3517 59.8153C36.3452 60.0981 36.5702 60.3295 36.8466 60.3295C37.1359 60.336 37.3802 60.0917 37.3738 59.8088C37.3738 59.5389 37.1423 59.3203 36.8595 59.3139Z" fill="#221F51"/>
<path d="M30.1292 59.8088C30.1356 59.5966 30.1035 59.3845 30.1999 59.1788C30.3992 58.761 30.7977 58.5681 31.2927 58.6645C31.717 58.7481 31.9677 59.0631 31.9741 59.5388C31.9805 59.7638 31.9869 59.9888 31.9677 60.2138C31.9355 60.7087 31.5562 61.0173 31.0291 61.0109C30.5277 60.998 30.142 60.6445 30.1292 60.1623C30.1292 60.0402 30.1292 59.9245 30.1292 59.8088ZM31.4277 59.8409C31.4277 59.7252 31.4277 59.6031 31.4277 59.4874C31.4277 59.2495 31.267 59.1724 31.0741 59.166C30.8813 59.1595 30.7141 59.2367 30.7077 59.4745C30.7013 59.7124 30.7013 59.9438 30.7077 60.1816C30.7141 60.4195 30.8748 60.4902 31.0741 60.4837C31.2734 60.4773 31.4277 60.4066 31.4277 60.1623C31.4277 60.0595 31.4277 59.9502 31.4277 59.8409Z" fill="white"/>
<path d="M33.1636 60.458C33.3885 60.458 33.5364 60.4708 33.6843 60.4515C33.9414 60.4194 34.0121 60.5158 33.9992 60.7665C33.9864 60.9401 33.9349 60.9851 33.7742 60.9787C33.3885 60.9658 33.0029 60.9787 32.6172 60.9722C32.5207 60.9722 32.3729 61.0429 32.3472 60.8951C32.3215 60.7601 32.2893 60.5994 32.4243 60.4773C32.63 60.2908 32.8357 60.1044 33.035 59.9116C33.1057 59.8473 33.1764 59.783 33.2407 59.7059C33.3564 59.5644 33.5107 59.3973 33.3307 59.2366C33.1636 59.0823 32.9836 59.1595 32.8357 59.3266C32.6236 59.5644 32.4757 59.2816 32.3279 59.2237C32.1929 59.1659 32.36 59.0437 32.4114 58.9795C32.72 58.5809 33.3885 58.5359 33.7678 58.8702C34.0185 59.0952 34.0635 59.4294 33.8642 59.738C33.7807 59.873 33.665 59.9887 33.5557 60.1044C33.4335 60.2073 33.3307 60.3037 33.1636 60.458Z" fill="white"/>
<path d="M35.2074 60.4581C35.4259 60.4581 35.5738 60.4709 35.7152 60.4581C35.9595 60.4259 36.0559 60.5095 36.0366 60.7666C36.0237 60.9338 35.9852 60.9852 35.818 60.9852C35.4259 60.9723 35.0274 60.9852 34.6288 60.9788C34.5452 60.9788 34.4038 61.043 34.3781 60.9209C34.3524 60.7859 34.301 60.6252 34.4424 60.5031C34.6609 60.3038 34.8795 60.0981 35.0981 59.8924C35.1881 59.8024 35.2716 59.706 35.3552 59.6095C35.4516 59.4874 35.5416 59.3524 35.3681 59.2303C35.2138 59.121 35.0466 59.1338 34.9374 59.2817C34.7188 59.5903 34.5517 59.2946 34.3717 59.2431C34.2688 59.211 34.3524 59.1146 34.391 59.0567C34.6481 58.6453 35.2973 58.5232 35.6959 58.7996C36.0495 59.0439 36.1137 59.4295 35.8502 59.8024C35.7666 59.9245 35.6573 60.0274 35.5545 60.1367C35.4581 60.2331 35.3552 60.3167 35.2074 60.4581Z" fill="white"/>
<path d="M28.9848 60.458C29.2098 60.458 29.3705 60.4709 29.5377 60.458C29.7305 60.4451 29.8205 60.4837 29.8141 60.7151C29.8077 60.9208 29.7691 60.998 29.5505 60.9851C29.1777 60.9658 28.8048 60.9851 28.4256 60.9787C28.3292 60.9787 28.1813 61.0494 28.1556 60.9015C28.1299 60.7666 28.0977 60.6058 28.2327 60.4837C28.4899 60.2459 28.747 60.0016 28.9977 59.7573C29.1455 59.6159 29.332 59.4423 29.1327 59.2431C28.9591 59.0695 28.7727 59.1852 28.612 59.3459C28.4384 59.5195 28.2906 59.3073 28.1492 59.2431C27.9692 59.1595 28.1556 59.0566 28.2006 59.0052C28.4449 58.6838 28.792 58.5938 29.1713 58.6774C29.4605 58.7416 29.6662 58.9088 29.7498 59.2109C29.8269 59.468 29.7048 59.6673 29.5762 59.8602C29.4348 60.0723 29.2098 60.2202 28.9848 60.458Z" fill="white"/>
<path d="M27.3078 59.3137C27.5906 59.3137 27.8156 59.5451 27.8092 59.828C27.8028 60.1108 27.5778 60.3358 27.2949 60.3358C27.0121 60.3294 26.7935 60.1044 26.7999 59.8151C26.7999 59.5323 27.0185 59.3137 27.3078 59.3137Z" fill="white"/>
<path d="M36.8595 59.3137C37.1424 59.3137 37.3674 59.5323 37.3738 59.8151C37.3802 60.098 37.1359 60.3422 36.8467 60.3358C36.5638 60.3294 36.3453 60.1044 36.3517 59.8216C36.3581 59.5323 36.5767 59.3137 36.8595 59.3137Z" fill="white"/>
<path d="M5.66345 32.3213L5.79844 34.5969L2.61644 34.7898L2.48145 32.5463L2.81571 32.527L2.92499 34.3719L3.96638 34.3076L3.86995 32.662L4.20422 32.6427L4.30065 34.2883L5.43846 34.2176L5.32274 32.3406L5.66345 32.3213Z" fill="#221F51"/>
<path d="M2.57795 34.8219L2.43652 32.5141L2.83508 32.4884L2.94436 34.3333L3.92146 34.2755L3.82503 32.6298L4.22359 32.6041L4.32001 34.2498L5.39353 34.1855L5.27783 32.3084L5.68923 32.2827L5.83066 34.6226H5.79852L2.57795 34.8219ZM2.50723 32.5784L2.6358 34.7576L5.75352 34.5712L5.62495 32.3599L5.34211 32.3727L5.45782 34.2498L4.25573 34.3269L4.1593 32.6813L3.88931 32.6941L3.98574 34.3398L2.88007 34.4105L2.77079 32.5656L2.50723 32.5784Z" fill="#221F51"/>
<path d="M5.8314 29.2165L5.77354 29.8786L2.49512 30.6886L2.53369 30.2643L5.61927 29.5315L2.72011 28.2458L2.75868 27.8215L5.8314 29.2165Z" fill="#221F51"/>
<path d="M2.45605 30.7272L2.50105 30.2386L5.51592 29.5251L2.68104 28.2652L2.72604 27.7766L5.86304 29.1973L5.79876 29.9044L2.45605 30.7272ZM2.55891 30.2836L2.52676 30.6372L5.74091 29.8465L5.79234 29.2294L2.77747 27.8666L2.74533 28.2202L5.7152 29.5315L2.55891 30.2836Z" fill="#221F51"/>
<path d="M5.52193 24.5366L6.81402 24.2216L6.70474 24.6587L5.24552 25.0059L5.0141 25.9251L6.29976 26.2529L6.20333 26.6451L3.11133 25.8608L3.45845 24.498C3.50988 24.2923 3.59345 24.1123 3.70916 23.9709C3.82487 23.823 3.95986 23.7202 4.12057 23.6623C4.28128 23.6045 4.44841 23.5981 4.6284 23.6431C4.8791 23.7073 5.06553 23.8423 5.18124 24.048C5.29695 24.2537 5.34194 24.498 5.30337 24.7744C5.3548 24.633 5.42551 24.5559 5.52193 24.5366ZM4.93696 24.8901C4.98838 24.678 4.98196 24.4916 4.90482 24.3309C4.82768 24.1702 4.70554 24.0673 4.52555 24.0223C4.34556 23.9773 4.19128 24.0095 4.04986 24.1187C3.90843 24.228 3.81201 24.3823 3.76058 24.5944L3.52274 25.5458L4.69912 25.8415L4.93696 24.8901Z" fill="#221F51"/>
<path d="M6.22269 26.6837L3.06641 25.8866L3.41996 24.4917C3.47139 24.2795 3.56138 24.0931 3.67709 23.9517C3.79923 23.7974 3.93422 23.6946 4.10136 23.6367C4.26849 23.5789 4.44206 23.5724 4.62848 23.6174C4.89204 23.6817 5.08489 23.8231 5.2006 24.0353C5.29702 24.2088 5.34845 24.4081 5.34202 24.6267C5.39345 24.5624 5.44487 24.5238 5.51558 24.511L6.85909 24.1831L6.73053 24.6909L5.27131 25.0381L5.05275 25.9059L6.3384 26.2337L6.22269 26.6837ZM3.14355 25.8416L6.1777 26.6066L6.26126 26.2787L4.97561 25.9509L5.21988 24.9802L5.23917 24.9738L5.26488 24.7681C5.30345 24.5045 5.26488 24.2667 5.14917 24.061C5.03989 23.8681 4.8599 23.7331 4.61562 23.6688C4.44206 23.6238 4.28135 23.6303 4.12707 23.6881C3.97279 23.746 3.84423 23.8424 3.72852 23.9838C3.61924 24.1188 3.53567 24.2924 3.48424 24.4981L3.14355 25.8416ZM6.7691 24.2667L5.52844 24.5688C5.44487 24.5881 5.38059 24.6524 5.32916 24.7874L5.25202 24.9738L6.6791 24.6331L6.7691 24.2667ZM4.71848 25.8802L3.48424 25.5716L3.72852 24.5881C3.77995 24.3695 3.87637 24.2088 4.03065 24.0931C4.1785 23.9774 4.34563 23.9453 4.53205 23.9903C4.71847 24.0353 4.84704 24.1445 4.93061 24.3181C5.00775 24.4788 5.0206 24.6717 4.96275 24.8966L4.71848 25.8802ZM3.56138 25.5266L4.67348 25.8095L4.90489 24.8902C4.95632 24.6781 4.94346 24.5045 4.87275 24.3502C4.79561 24.196 4.67991 24.0995 4.51277 24.061C4.33921 24.016 4.19778 24.0481 4.06279 24.151C3.9278 24.2602 3.83137 24.4081 3.78637 24.6074L3.56138 25.5266Z" fill="#221F51"/>
<path d="M7.36043 19.0341L8.27325 20.5383L8.05468 20.9497L7.1033 19.2527L5.25195 19.4198L5.46409 19.0213L7.1483 18.9184L6.27405 17.4785L6.48618 17.0735L7.399 18.6934L9.33391 18.5263L9.12178 18.9313L7.36043 19.0341Z" fill="#221F51"/>
<path d="M8.05492 21.0205L7.08425 19.2913L5.19434 19.4649L5.44504 18.9956L7.09068 18.8928L6.23572 17.485L6.48642 17.0093L7.41852 18.6613L9.39201 18.4942L9.1413 18.9699L7.41852 19.0728L8.31205 20.5448L8.05492 21.0205ZM7.12282 19.2206L8.05492 20.8855L8.23492 20.5448L7.30924 19.0085L9.10274 18.9056L9.2763 18.5713L7.37995 18.7321L6.49285 17.1443L6.31929 17.4785L7.21282 18.9442L5.49647 19.047L5.3229 19.3749L7.12282 19.2206Z" fill="#221F51"/>
<path d="M9.84926 16.315L10.325 17.035L10.0742 17.3692L8.24219 14.4958L8.60217 14.0137L11.8613 14.9908L11.6106 15.325L10.7878 15.0679L9.84926 16.315ZM8.53789 14.3415L9.64355 16.0193L10.4535 14.9458L8.53789 14.3415Z" fill="#221F51"/>
<path d="M10.0673 17.4272L8.20312 14.5023L8.58882 13.988L11.9187 14.9844L11.6294 15.3701L10.8066 15.113L9.88733 16.3215L10.363 17.0415L10.0673 17.4272ZM8.28026 14.4959L10.0738 17.305L10.2859 17.0286L9.8102 16.3086L10.7809 15.0294L11.6037 15.2865L11.8158 15.0101L8.62096 14.0523L8.28026 14.4959ZM9.64306 16.0772L8.46668 14.2902L10.5109 14.933L9.64306 16.0772ZM8.61453 14.3994L9.64306 15.9615L10.3952 14.9587L8.61453 14.3994Z" fill="#221F51"/>
<path d="M14.4385 12.3616L12.9215 13.8401L10.6973 11.5516L10.9865 11.2688L12.9729 13.3066L14.2007 12.1109L14.4385 12.3616Z" fill="#221F51"/>
<path d="M12.9215 13.8788L10.6523 11.5517L10.9866 11.2239L12.973 13.2616L14.2008 12.066L14.49 12.3617L12.9215 13.8788ZM10.7423 11.5517L12.928 13.7888L14.4 12.3553L14.2008 12.1495L12.9665 13.3516L10.9802 11.3139L10.7423 11.5517Z" fill="#221F51"/>
<path d="M16.9771 10.8702C17.0093 10.9216 17.0607 10.9473 17.1185 10.9538C17.1764 10.9602 17.2342 10.9345 17.2985 10.8895L17.8064 10.5295L17.9478 10.7288L17.26 11.2109C17.1571 11.2816 17.0543 11.3138 16.9514 11.3073C16.8486 11.3009 16.7714 11.2495 16.7071 11.1595C16.6493 11.0759 16.63 10.9859 16.6493 10.8766C16.6686 10.7738 16.7136 10.6645 16.7843 10.5552C16.5464 10.7159 16.2957 10.7995 16.0257 10.8123C15.7557 10.8252 15.4986 10.7673 15.2479 10.6452C15.0036 10.5231 14.7915 10.3367 14.6179 10.0924C14.4444 9.84167 14.3351 9.57811 14.3029 9.3017C14.2708 9.01885 14.3094 8.75529 14.4187 8.50459C14.5279 8.25389 14.7015 8.04175 14.9394 7.87462C15.1772 7.70748 15.4343 7.61106 15.7107 7.59178C15.9872 7.57249 16.2507 7.63035 16.5014 7.75248C16.7521 7.87462 16.9643 8.06104 17.1378 8.31174C17.2857 8.52387 17.3885 8.75529 17.4335 8.99957C17.4785 9.24384 17.4657 9.48169 17.4014 9.71311C17.3371 9.94453 17.215 10.1502 17.0478 10.3302C16.9257 10.5809 16.9 10.7609 16.9771 10.8702ZM15.4408 10.3045C15.6336 10.4074 15.8329 10.4588 16.0386 10.4524C16.2443 10.4459 16.4436 10.3816 16.6236 10.2531C16.8036 10.1245 16.9321 9.96381 17.0093 9.76454C17.0864 9.56526 17.1057 9.35955 17.0671 9.14742C17.035 8.92886 16.9514 8.72958 16.8228 8.54959C16.6878 8.35674 16.5207 8.20889 16.3279 8.10604C16.135 8.00319 15.9357 7.95176 15.7236 7.95819C15.5115 7.96461 15.3186 8.0289 15.1386 8.15746C14.9586 8.28603 14.8301 8.44674 14.7529 8.63959C14.6758 8.83243 14.6565 9.03814 14.6886 9.25027C14.7208 9.46241 14.8044 9.66811 14.9394 9.85453C15.0872 10.0474 15.2479 10.1952 15.4408 10.3045Z" fill="#221F51"/>
<path d="M16.9712 11.3395C16.9647 11.3395 16.9519 11.3395 16.9455 11.3395C16.8362 11.333 16.7526 11.2816 16.6755 11.1788C16.6112 11.0888 16.5919 10.9859 16.6112 10.8702C16.624 10.7995 16.6498 10.7223 16.6883 10.6516C16.4826 10.7738 16.2576 10.8316 16.0198 10.8445C15.7498 10.8573 15.4862 10.7995 15.2291 10.6774C14.9784 10.5552 14.7663 10.3624 14.5863 10.1181C14.4063 9.85453 14.297 9.58454 14.2649 9.31456C14.2327 9.02528 14.2713 8.76172 14.3806 8.50459C14.4899 8.24746 14.6698 8.0289 14.9141 7.86176C15.1584 7.6882 15.422 7.59177 15.6984 7.57249C15.9684 7.5532 16.2448 7.61106 16.5019 7.7332C16.759 7.85533 16.9712 8.04818 17.1512 8.30532C17.3054 8.53031 17.4083 8.76172 17.4533 9.006C17.4983 9.25027 17.4854 9.49455 17.4211 9.73239C17.3569 9.95739 17.2347 10.1695 17.0612 10.3559C16.9455 10.5938 16.9197 10.7609 16.9905 10.8573C17.0162 10.8959 17.0547 10.9216 17.1062 10.9281C17.1512 10.9345 17.1962 10.9152 17.2669 10.8702L17.8004 10.4909L17.9804 10.7416L17.2669 11.243C17.1769 11.3073 17.074 11.3395 16.9712 11.3395ZM16.894 10.4395L16.8105 10.5745C16.7462 10.6774 16.7012 10.7802 16.6819 10.8831C16.6626 10.9795 16.6819 11.063 16.7333 11.1402C16.7976 11.2238 16.8619 11.2688 16.9519 11.2752C17.0483 11.2816 17.1447 11.2495 17.2412 11.1852L17.9033 10.7223L17.8004 10.5745L17.3183 10.9152C17.2412 10.9731 17.1769 10.9923 17.119 10.9859C17.0483 10.9795 16.9905 10.9473 16.9519 10.8895C16.8683 10.7738 16.894 10.5809 17.0226 10.3174L17.029 10.3109C17.1962 10.1309 17.3119 9.92524 17.3762 9.70668C17.4404 9.47526 17.4533 9.24385 17.4083 9.006C17.3633 8.77458 17.2669 8.54316 17.119 8.33103C16.9519 8.08675 16.7398 7.90033 16.4955 7.78463C16.2448 7.66249 15.9812 7.61106 15.7241 7.63035C15.4605 7.64963 15.2034 7.73963 14.972 7.90676C14.7406 8.06747 14.5734 8.27318 14.4641 8.52388C14.3549 8.76815 14.3163 9.02528 14.3484 9.3017C14.3806 9.56526 14.4834 9.82239 14.657 10.0795C14.8306 10.3174 15.0363 10.5038 15.2741 10.6195C15.5248 10.7416 15.7755 10.7931 16.0326 10.7802C16.3026 10.7673 16.5405 10.6838 16.7719 10.5295L16.894 10.4395ZM16.0005 10.4845C15.8077 10.4845 15.6084 10.4331 15.422 10.3302C15.2291 10.2209 15.0684 10.0731 14.9141 9.87382C14.7791 9.6874 14.6891 9.47526 14.657 9.2567C14.6248 9.03171 14.6441 8.826 14.7213 8.63316C14.7984 8.43388 14.9334 8.26675 15.1198 8.13818C15.3062 8.00962 15.4991 7.9389 15.7241 7.93248C15.9362 7.92605 16.1419 7.97747 16.3412 8.08675C16.5405 8.19603 16.714 8.34388 16.849 8.53673C16.984 8.72315 17.0676 8.92886 17.0997 9.14742C17.1383 9.36598 17.119 9.57812 17.0419 9.77739C16.9647 9.9831 16.8362 10.1438 16.6433 10.2788C16.4633 10.4074 16.2576 10.4781 16.0391 10.4845C16.0262 10.4845 16.0134 10.4845 16.0005 10.4845ZM15.4541 10.2788C15.6469 10.3817 15.8398 10.4267 16.0326 10.4202C16.2383 10.4138 16.4312 10.3495 16.5983 10.2274C16.7783 10.0988 16.9005 9.94453 16.9712 9.75168C17.0483 9.55883 17.0676 9.35955 17.029 9.15385C16.9969 8.94172 16.9197 8.74887 16.7912 8.56887C16.6626 8.38245 16.4955 8.23461 16.3091 8.13818C16.1162 8.03533 15.9234 7.99033 15.7241 7.99676C15.5184 8.00319 15.332 8.06747 15.1584 8.18961C14.9848 8.31174 14.8563 8.47245 14.7856 8.65887C14.7148 8.83886 14.6891 9.04457 14.7213 9.25027C14.7534 9.46241 14.837 9.66168 14.9655 9.84168C15.1134 10.0345 15.2677 10.1695 15.4541 10.2788Z" fill="#221F51"/>
<path d="M19.5615 7.87453L19.6515 8.72949L19.2787 8.90949L18.9766 5.52178L19.523 5.26465L21.9721 7.63668L21.5993 7.81668L20.9886 7.20599L19.5615 7.87453ZM19.3108 5.52821L19.523 7.52741L20.7315 6.94886L19.3108 5.52821Z" fill="#221F51"/>
<path d="M19.2529 8.96091L18.9443 5.50249L19.5293 5.22607L19.5422 5.23893L22.0235 7.64311L21.5864 7.85524L20.9757 7.24456L19.5936 7.90024L19.6836 8.7552L19.2529 8.96091ZM19.0086 5.54106L19.3043 8.86449L19.6129 8.71664L19.5229 7.86167L20.9885 7.16742L21.5992 7.7781L21.9078 7.63025L19.51 5.30965L19.0086 5.54106ZM19.4972 7.5724L19.2722 5.43821L20.7893 6.95528L19.4972 7.5724ZM19.3557 5.61177L19.555 7.47597L20.68 6.936L19.3557 5.61177Z" fill="#221F51"/>
<path d="M24.8904 5.45106L25.8225 6.40888L25.3918 6.53744L24.3505 5.45106L23.4376 5.71462L23.8105 6.98742L23.4248 7.0967L22.5312 4.03041L23.8812 3.63829C24.0869 3.58043 24.2797 3.56114 24.4662 3.58686C24.6526 3.61257 24.8069 3.67686 24.9419 3.78614C25.0704 3.89542 25.1668 4.03684 25.2183 4.21683C25.289 4.46754 25.2697 4.69252 25.1476 4.89823C25.0254 5.10393 24.839 5.26464 24.5819 5.37392C24.7169 5.34821 24.8261 5.37392 24.8904 5.45106ZM24.2926 5.12322C24.5047 5.05894 24.659 4.95608 24.7554 4.81466C24.8583 4.66681 24.8776 4.5061 24.8261 4.33254C24.7747 4.15898 24.6654 4.03684 24.5047 3.97255C24.344 3.90827 24.1576 3.90185 23.9455 3.96613L23.0005 4.24254L23.3412 5.40606L24.2926 5.12322Z" fill="#221F51"/>
<path d="M23.406 7.13535L22.4932 4.0112L23.8752 3.61265C24.0938 3.55479 24.2867 3.53551 24.4731 3.56122C24.6659 3.58694 24.8266 3.65765 24.9616 3.76693C25.103 3.88264 25.1995 4.03692 25.2509 4.21048C25.328 4.47404 25.3023 4.70546 25.1802 4.91759C25.0773 5.09115 24.9295 5.23258 24.7366 5.33543C24.8138 5.34829 24.8716 5.38043 24.9166 5.43185L25.8809 6.42824L25.3795 6.57609L24.3381 5.48971L23.4767 5.74041L23.8495 7.01321L23.406 7.13535ZM22.5767 4.0562L23.451 7.05821L23.7724 6.96821L23.3996 5.69541L24.3638 5.419L24.3767 5.43185L24.5759 5.34829C24.8202 5.24543 25.0066 5.09115 25.1288 4.88545C25.2445 4.6926 25.2638 4.47404 25.193 4.22976C25.148 4.06263 25.058 3.92764 24.9295 3.81835C24.8009 3.7155 24.6531 3.65122 24.4731 3.62551C24.2931 3.59979 24.1067 3.61908 23.901 3.67693L22.5767 4.0562ZM24.3895 5.44471L25.4052 6.49895L25.7652 6.38967L24.8716 5.47042C24.8009 5.38686 24.6788 5.38686 24.5952 5.40614L24.3895 5.44471ZM23.3224 5.44471L22.9624 4.22334L23.9395 3.94049C24.1517 3.87621 24.3445 3.87621 24.5181 3.94692C24.6852 4.0112 24.8073 4.1462 24.8588 4.32619C24.9166 4.51261 24.8909 4.68617 24.7816 4.83402C24.6788 4.98187 24.5181 5.09115 24.2995 5.15544L23.3224 5.44471ZM23.046 4.26833L23.3674 5.36757L24.2867 5.09115C24.4924 5.02687 24.6402 4.93045 24.7302 4.79545C24.8266 4.66046 24.8459 4.51261 24.7945 4.33904C24.7431 4.17191 24.6466 4.06263 24.4924 3.99835C24.3317 3.93406 24.1517 3.93406 23.9524 3.99192L23.046 4.26833Z" fill="#221F51"/>
<path d="M28.0144 5.8113C27.7637 5.69559 27.558 5.52203 27.3973 5.29061C27.2366 5.05919 27.1402 4.79563 27.1016 4.4935C27.063 4.19137 27.1016 3.90853 27.2044 3.64497C27.3073 3.38141 27.468 3.16928 27.6866 2.99571C27.9051 2.82858 28.1558 2.72572 28.4451 2.68715C28.7344 2.65501 29.0044 2.69358 29.2551 2.80929C29.5058 2.925 29.7115 3.09856 29.8722 3.32998C30.0329 3.5614 30.1357 3.82496 30.1679 4.12709C30.2 4.42279 30.1679 4.70563 30.065 4.96919C29.9622 5.23275 29.8015 5.45132 29.5829 5.61845C29.3643 5.79202 29.1136 5.89487 28.8244 5.92701C28.5351 5.97201 28.2651 5.92701 28.0144 5.8113ZM29.3579 5.34204C29.5186 5.20704 29.6343 5.03348 29.705 4.82777C29.7758 4.62207 29.8015 4.40994 29.7758 4.18495C29.75 3.95353 29.6729 3.74139 29.5572 3.5614C29.435 3.37498 29.2808 3.23999 29.0944 3.14356C28.9079 3.04714 28.7022 3.01499 28.4901 3.04071C28.2715 3.06642 28.0787 3.14999 27.9244 3.28499C27.7637 3.41998 27.648 3.58711 27.5773 3.79282C27.5066 3.99852 27.4809 4.21709 27.513 4.44208C27.5387 4.6735 27.6158 4.88563 27.7316 5.06562C27.8473 5.25204 28.0015 5.38703 28.188 5.48346C28.3744 5.57988 28.5801 5.61202 28.7987 5.58631C29.0044 5.5606 29.1972 5.48346 29.3579 5.34204Z" fill="#221F51"/>
<path d="M28.6057 5.97192C28.4 5.97192 28.1943 5.92692 28.0015 5.83693C27.7443 5.72122 27.5322 5.54123 27.3715 5.30338C27.2108 5.07196 27.1079 4.80198 27.0694 4.49342C27.0308 4.19772 27.0694 3.90844 27.1722 3.63203C27.2751 3.36847 27.4358 3.14991 27.6608 2.96991C27.8857 2.79635 28.1365 2.6935 28.4322 2.65493C28.7279 2.62278 29.0107 2.66136 29.2614 2.77706C29.5185 2.89277 29.7307 3.07277 29.8914 3.31061C30.0585 3.55489 30.1614 3.82488 30.1935 4.12058C30.2256 4.42271 30.1935 4.71198 30.0907 4.97554C29.9878 5.24553 29.8207 5.47052 29.5957 5.63765C29.3707 5.81764 29.12 5.9205 28.8243 5.95264C28.7536 5.97192 28.6829 5.97192 28.6057 5.97192ZM28.6379 2.71278C28.5736 2.71278 28.5157 2.71921 28.4514 2.72564C28.1686 2.76421 27.9243 2.86063 27.7122 3.02777C27.4936 3.20133 27.3393 3.40704 27.2429 3.66417C27.1401 3.92773 27.1079 4.21057 27.1401 4.49342C27.1786 4.79555 27.2751 5.05268 27.4293 5.27767C27.5836 5.50266 27.7893 5.67622 28.0336 5.7855C28.2843 5.90121 28.5543 5.93978 28.8243 5.90121C29.1071 5.86907 29.3514 5.77265 29.57 5.59908C29.7821 5.43838 29.9428 5.22624 30.0392 4.96268C30.1356 4.71198 30.1742 4.42913 30.1421 4.13986C30.1099 3.85702 30.0135 3.59346 29.8528 3.35561C29.6985 3.13062 29.4928 2.95706 29.2485 2.84777C29.0557 2.75778 28.85 2.71278 28.6379 2.71278ZM28.6571 5.62479C28.4836 5.62479 28.3229 5.58623 28.175 5.50909C27.9757 5.40623 27.8215 5.26481 27.7058 5.07839C27.5836 4.89197 27.5065 4.67341 27.4808 4.44199C27.4486 4.22343 27.4743 3.99844 27.545 3.77988C27.6158 3.56774 27.7315 3.40061 27.8986 3.25919C28.0593 3.12419 28.2586 3.03419 28.4836 3.00848C28.7086 2.98277 28.9143 3.01491 29.1071 3.11776C29.3064 3.22062 29.4607 3.36204 29.5828 3.54846C29.705 3.73488 29.7821 3.95344 29.8078 4.18486C29.8335 4.40985 29.8078 4.62198 29.7371 4.84054C29.6664 5.05268 29.5442 5.23267 29.3835 5.36766C29.2228 5.50909 29.03 5.59265 28.805 5.61837C28.7536 5.6248 28.7086 5.62479 28.6571 5.62479ZM28.6314 3.06634C28.5864 3.06634 28.5414 3.06634 28.4964 3.07276C28.2843 3.09848 28.0979 3.17562 27.95 3.31061C27.7893 3.44561 27.68 3.60631 27.6093 3.80559C27.5386 4.01772 27.5193 4.22986 27.545 4.44199C27.5708 4.66055 27.6415 4.87269 27.7572 5.05268C27.8665 5.22624 28.0079 5.36124 28.2007 5.45766C28.3743 5.54766 28.5736 5.5798 28.7921 5.55408C29.0043 5.52837 29.1843 5.45123 29.3321 5.31624C29.4864 5.18767 29.6021 5.02054 29.6664 4.81483C29.7371 4.60913 29.7628 4.40342 29.7371 4.18486C29.7114 3.9663 29.6407 3.75417 29.525 3.57417C29.4093 3.40061 29.2614 3.26561 29.075 3.16919C28.94 3.10491 28.7921 3.06634 28.6314 3.06634Z" fill="#221F51"/>
<path d="M34.8417 2.65478L34.591 4.58969C34.5524 4.8854 34.6038 5.11681 34.7388 5.30323C34.8738 5.48322 35.0795 5.59251 35.3495 5.63108C35.6195 5.66322 35.8445 5.61179 36.0245 5.47037C36.2045 5.32895 36.3138 5.11039 36.3523 4.82754L36.603 2.89263L37.0016 2.94405L36.7509 4.88539C36.7187 5.14253 36.6352 5.36109 36.5066 5.53465C36.378 5.70822 36.2045 5.83678 35.9988 5.91392C35.7931 5.99106 35.5617 6.01034 35.311 5.9782C35.0538 5.94606 34.8353 5.86249 34.6553 5.74036C34.4753 5.61179 34.3467 5.45109 34.2631 5.24538C34.1796 5.03968 34.1603 4.81468 34.1924 4.55755L34.4431 2.61621L34.8417 2.65478Z" fill="#221F51"/>
<path d="M35.5358 6.02328C35.4651 6.02328 35.3879 6.01685 35.3043 6.01042C35.0536 5.97828 34.8287 5.89472 34.6358 5.76615C34.4494 5.63116 34.3144 5.46402 34.2308 5.25831C34.1473 5.05261 34.1215 4.82762 34.1601 4.55763L34.4172 2.59058L34.8801 2.63557L34.623 4.60263C34.5844 4.88548 34.6358 5.11046 34.7644 5.29046C34.8929 5.46402 35.0922 5.56687 35.3558 5.60544C35.6193 5.63758 35.8315 5.58616 36.005 5.45116C36.1786 5.31617 36.2815 5.11047 36.32 4.82762L36.5772 2.86056L37.04 2.91842L36.7829 4.89191C36.7507 5.14904 36.6671 5.37403 36.5321 5.55402C36.3972 5.73401 36.2236 5.86257 36.0115 5.94614C35.8636 5.99757 35.7093 6.02328 35.5358 6.02328ZM34.4751 2.65486L34.2308 4.56406C34.1987 4.82119 34.218 5.03975 34.3015 5.2326C34.3787 5.43188 34.5072 5.58616 34.6808 5.71472C34.8608 5.83686 35.0794 5.914 35.3236 5.94614C35.5743 5.97828 35.7993 5.959 35.9986 5.88186C36.1979 5.80472 36.365 5.68258 36.4936 5.51545C36.6221 5.34188 36.6993 5.12975 36.7314 4.87905L36.9757 2.96985L36.6414 2.92485L36.3972 4.82762C36.3586 5.12332 36.2429 5.34831 36.0565 5.48973C35.87 5.63116 35.6386 5.68901 35.3558 5.65687C35.0729 5.6183 34.8608 5.50259 34.7258 5.31617C34.5844 5.11689 34.533 4.87905 34.5715 4.57692L34.8158 2.67415L34.4751 2.65486Z" fill="#221F51"/>
<path d="M40.9876 7.28307L40.3448 7.0838L39.5606 3.70252L38.6799 6.57596L38.3135 6.46669L39.252 3.41968L39.8884 3.61253L40.6727 7.00023L41.5598 4.12036L41.9262 4.22964L40.9876 7.28307Z" fill="#221F51"/>
<path d="M41.0064 7.32172L40.3186 7.10959L39.5601 3.82474L38.7051 6.61461L38.2744 6.48605L39.2322 3.37476L39.9136 3.58046L39.9201 3.59975L40.6786 6.87174L41.54 4.07544L41.9707 4.20401L41.0064 7.32172ZM40.37 7.05816L40.9614 7.24458L41.8807 4.249L41.5786 4.15901L40.6657 7.12244L39.8622 3.63189L39.2772 3.4519L38.358 6.44105L38.6601 6.53105L39.5665 3.5676L40.37 7.05816Z" fill="#221F51"/>
<path d="M44.3484 5.27114L43.0178 8.1703L42.6514 8.00316L43.982 5.104L44.3484 5.27114Z" fill="#221F51"/>
<path d="M43.0376 8.21537L42.6133 8.02252L43.9697 5.05908L44.3939 5.25193L43.0376 8.21537ZM42.6969 7.99038L43.0054 8.1318L44.3103 5.2905L44.0018 5.14908L42.6969 7.99038Z" fill="#221F51"/>
<path d="M45.9241 9.75169L45.3584 9.40456L46.0912 6.11328L46.4512 6.33827L45.7377 9.43027L48.1804 7.39251L48.5468 7.6175L45.9241 9.75169Z" fill="#221F51"/>
<path d="M45.9304 9.79025L45.3262 9.41741L46.0719 6.05542L46.4897 6.31898L45.7954 9.34027L48.1803 7.35393L48.6046 7.61749L45.9304 9.79025ZM45.3969 9.3917L45.924 9.71311L48.4889 7.62392L48.1803 7.4375L45.6862 9.52027L46.4126 6.35755L46.1104 6.17113L45.3969 9.3917Z" fill="#221F51"/>
<path d="M49.8134 12.715L48.0713 11.243L50.1348 8.80664L51.8511 10.2594L51.6326 10.5166L50.2248 9.3209L49.5498 10.118L50.8097 11.1851L50.5912 11.4422L49.3312 10.3751L48.592 11.243L50.0255 12.4579L49.8134 12.715Z" fill="#221F51"/>
<path d="M49.8134 12.76L48.0264 11.2494L50.1284 8.76807L51.8898 10.2594L51.6326 10.568L50.2248 9.37232L49.5949 10.118L50.8548 11.1851L50.5977 11.4937L49.3377 10.4266L48.6435 11.243L50.077 12.4579L49.8134 12.76ZM48.1164 11.2365L49.807 12.6636L49.9806 12.4579L48.5471 11.243L49.3249 10.3301L50.5848 11.3972L50.7648 11.1915L49.5049 10.1244L50.2184 9.28233L51.6262 10.478L51.7998 10.2723L50.1348 8.86449L48.1164 11.2365Z" fill="#221F51"/>
<path d="M53.0846 14.4959L52.6089 15.7429L52.3132 15.4022L52.8596 14.0073L52.2361 13.2938L51.2333 14.168L50.9697 13.8659L53.3803 11.7703L54.306 12.8309C54.4474 12.9916 54.5439 13.1588 54.5953 13.3388C54.6467 13.5188 54.6531 13.6859 54.6146 13.853C54.5696 14.0202 54.4796 14.1616 54.3381 14.2837C54.1453 14.4509 53.9267 14.528 53.6889 14.5087C53.451 14.4894 53.2325 14.3801 53.0204 14.1937C53.0975 14.2966 53.1168 14.3994 53.0846 14.4959ZM53.1232 13.808C53.2646 13.9752 53.4253 14.0716 53.5989 14.1037C53.7725 14.1359 53.9267 14.0909 54.0682 13.9687C54.2032 13.8466 54.2674 13.6987 54.261 13.5252C54.2546 13.3516 54.1774 13.1781 54.036 13.0173L53.3932 12.2781L52.4804 13.0752L53.1232 13.808Z" fill="#221F51"/>
<path d="M52.6219 15.8072L52.2812 15.4087L52.8276 14.0137L52.2362 13.3388L51.2334 14.213L50.9248 13.8659L53.3804 11.7317L54.3254 12.8181C54.4732 12.9852 54.5696 13.1523 54.6211 13.3388C54.6725 13.5252 54.6789 13.6987 54.6404 13.8659C54.5954 14.0394 54.4989 14.1873 54.3511 14.3159C54.1518 14.4894 53.9268 14.5666 53.6761 14.5473C53.4833 14.5344 53.2968 14.4573 53.1104 14.3223C53.1297 14.3866 53.1297 14.4509 53.1104 14.5151L52.6219 15.8072ZM52.3519 15.3958L52.5962 15.6787L53.0526 14.483C53.0847 14.393 53.059 14.303 52.9947 14.213L52.879 14.0523L52.3519 15.3958ZM52.8854 14.033L53.0397 14.168C53.2518 14.3544 53.464 14.4573 53.689 14.4766C53.914 14.4959 54.1261 14.4251 54.3125 14.258C54.4475 14.1423 54.5375 14.0073 54.5761 13.8466C54.6146 13.6859 54.6082 13.5252 54.5568 13.3516C54.5054 13.1781 54.4154 13.0173 54.2739 12.8566L53.3676 11.8217L51.0084 13.8723L51.2269 14.123L52.2297 13.2488L52.8854 14.0009V14.033ZM53.7018 14.1487C53.6633 14.1487 53.6247 14.1423 53.5861 14.1359C53.3997 14.1037 53.2326 14.0009 53.0911 13.8273L52.429 13.0688L53.3868 12.2331L54.0489 12.9981C54.1968 13.1652 54.2739 13.3452 54.2804 13.5252C54.2868 13.7052 54.2161 13.8659 54.0747 13.9944C53.9718 14.0973 53.8432 14.1487 53.7018 14.1487ZM52.5254 13.0816L53.149 13.7887C53.284 13.943 53.4383 14.0394 53.6054 14.0716C53.7661 14.1037 53.914 14.0587 54.0489 13.943C54.1775 13.8273 54.2354 13.6923 54.2289 13.5252C54.2225 13.358 54.1454 13.1909 54.0104 13.0366L53.3868 12.3231L52.5254 13.0816Z" fill="#221F51"/>
<path d="M53.908 17.1959C53.9273 16.9195 54.0494 16.6752 54.2808 16.4695L54.4865 16.7909C54.3387 16.9452 54.2551 17.1188 54.2423 17.3052C54.2294 17.4916 54.2937 17.6909 54.4223 17.8966C54.5508 18.0959 54.6987 18.2309 54.8722 18.2952C55.0458 18.3594 55.2065 18.3466 55.3608 18.2502C55.4958 18.1666 55.5793 18.0637 55.6115 17.9416C55.6436 17.8195 55.6243 17.6716 55.5601 17.498L55.2901 16.7716C55.2001 16.5402 55.1744 16.3345 55.2129 16.1674C55.2515 16.0003 55.3672 15.8588 55.5536 15.7367C55.7079 15.6403 55.8622 15.6081 56.0293 15.6274C56.19 15.6531 56.3507 15.7174 56.4986 15.8395C56.6464 15.9617 56.7814 16.1031 56.8907 16.2831C57.0643 16.5595 57.1414 16.8231 57.1221 17.0738C57.1029 17.3245 56.9871 17.5366 56.7686 17.723L56.5629 17.4016C56.7043 17.2731 56.775 17.1252 56.7814 16.9581C56.7879 16.7909 56.7364 16.6238 56.6207 16.4438C56.4986 16.251 56.3636 16.116 56.2093 16.0453C56.055 15.9745 55.9136 15.981 55.7786 16.0645C55.6629 16.1417 55.5858 16.2252 55.5601 16.3281C55.5343 16.4309 55.5536 16.5531 55.6115 16.7074L55.9008 17.4659C55.9972 17.7166 56.0229 17.9287 55.9715 18.1087C55.9265 18.2887 55.8043 18.4366 55.5986 18.5651C55.4315 18.668 55.2644 18.713 55.0844 18.7066C54.9044 18.6937 54.7372 18.6358 54.5701 18.5201C54.4094 18.4109 54.268 18.2566 54.1458 18.0637C53.9723 17.7616 53.8887 17.4723 53.908 17.1959Z" fill="#221F51"/>
<path d="M55.1164 18.7386C55.1036 18.7386 55.0907 18.7386 55.0843 18.7386C54.8914 18.7257 54.7179 18.6614 54.5507 18.5457C54.39 18.4365 54.2422 18.2822 54.12 18.0829C53.94 17.7679 53.8565 17.4722 53.8758 17.1958C53.895 16.9065 54.0236 16.6558 54.2615 16.4501L54.2872 16.4244L54.525 16.7972L54.5057 16.8165C54.3643 16.9644 54.2807 17.1315 54.2679 17.3115C54.255 17.4851 54.3129 17.6779 54.4414 17.8836C54.57 18.0829 54.7114 18.205 54.8721 18.2693C55.0393 18.3336 55.1871 18.3143 55.335 18.2243C55.4635 18.1472 55.5407 18.0508 55.5728 17.935C55.605 17.8193 55.5857 17.6843 55.5214 17.5108L55.2514 16.7844C55.1614 16.5465 55.1357 16.3408 55.1743 16.1608C55.2128 15.9873 55.3286 15.8394 55.5278 15.7109C55.6821 15.6144 55.8492 15.5759 56.0228 15.5952C56.2028 15.6273 56.3699 15.698 56.5114 15.8137C56.6785 15.9551 56.8071 16.103 56.9099 16.2637C57.0835 16.5465 57.167 16.8165 57.1478 17.0737C57.1285 17.3308 57.0063 17.5493 56.7813 17.7422L56.7556 17.7679L56.5178 17.3951L56.5371 17.3758C56.6721 17.2536 56.7363 17.1187 56.7428 16.9579C56.7492 16.7972 56.6978 16.6365 56.5885 16.463C56.4664 16.2701 56.3378 16.1416 56.1899 16.0773C56.0485 16.013 55.9135 16.0194 55.7914 16.0966C55.6757 16.1737 55.6114 16.2508 55.5857 16.3408C55.56 16.4308 55.5793 16.5465 55.6371 16.7008L55.9264 17.4594C56.0292 17.7229 56.0485 17.935 55.9971 18.1215C55.9521 18.3079 55.8235 18.4622 55.6114 18.5972C55.4507 18.6872 55.29 18.7386 55.1164 18.7386ZM54.2743 16.5208C54.0686 16.7137 53.9593 16.9387 53.94 17.2022C53.9208 17.4658 53.9979 17.7486 54.1715 18.0508C54.2936 18.2436 54.4286 18.3915 54.5829 18.4943C54.7372 18.6036 54.9043 18.6614 55.0779 18.6743C55.2514 18.6807 55.4121 18.6357 55.5728 18.5393C55.7721 18.4172 55.8878 18.2693 55.9328 18.1022C55.9842 17.9286 55.9585 17.7293 55.8621 17.4786L55.5728 16.7201C55.5086 16.553 55.4957 16.4308 55.5214 16.3215C55.5471 16.2187 55.6243 16.1287 55.7528 16.0387C55.9007 15.9487 56.0485 15.9423 56.2157 16.0194C56.3699 16.0901 56.5114 16.2251 56.6399 16.4308C56.7556 16.6173 56.8135 16.7908 56.8071 16.9644C56.8006 17.1315 56.7299 17.2858 56.6014 17.4144L56.7749 17.6843C56.9678 17.5108 57.0706 17.3115 57.0899 17.0801C57.1092 16.8358 57.0321 16.5787 56.8649 16.3087C56.7685 16.148 56.6399 16.0066 56.4792 15.8716C56.3442 15.7623 56.1964 15.6916 56.0228 15.6659C55.8557 15.6466 55.7143 15.6787 55.5728 15.7687C55.3864 15.8909 55.2836 16.0258 55.245 16.1801C55.2064 16.3408 55.2321 16.5401 55.3221 16.7651L55.5921 17.4915C55.6628 17.6779 55.6757 17.8258 55.6435 17.9543C55.6114 18.0829 55.5214 18.1922 55.38 18.2822C55.2193 18.385 55.0521 18.3979 54.8657 18.3272C54.6857 18.2629 54.5379 18.1279 54.4029 17.9158C54.2679 17.6972 54.2036 17.4915 54.2165 17.3051C54.2293 17.1187 54.3065 16.9451 54.4543 16.7908L54.2743 16.5208Z" fill="#221F51"/>
<path d="M58.6394 19.5741L55.7595 20.9369L55.5859 20.5769L58.4658 19.2141L58.6394 19.5741Z" fill="#221F51"/>
<path d="M55.7403 20.9819L55.541 20.564L58.4852 19.1755L58.6844 19.5934L55.7403 20.9819ZM55.6246 20.5962L55.7724 20.8983L58.5945 19.5677L58.4466 19.2655L55.6246 20.5962Z" fill="#221F51"/>
<path d="M59.5775 22.904L56.8776 23.8039L56.749 23.4246L59.4489 22.5247L59.1146 21.5219L59.4425 21.4126L60.2396 23.7975L59.9117 23.9068L59.5775 22.904Z" fill="#221F51"/>
<path d="M59.8924 23.9453L59.5581 22.9425L56.8647 23.8425L56.7168 23.4054L59.4167 22.5054L59.0824 21.5026L59.4681 21.374L60.2845 23.8168L59.8924 23.9453ZM59.5967 22.859L59.9309 23.8618L60.1945 23.7718L59.4167 21.4512L59.1531 21.5412L59.4874 22.544L56.7939 23.4439L56.9032 23.7589L59.5967 22.859Z" fill="#221F51"/>
<path d="M57.9825 28.593L57.584 26.3431L60.721 25.7903L61.1131 28.008L60.7788 28.0659L60.4574 26.2467L59.4353 26.4267L59.7182 28.0466L59.3839 28.1045L59.1011 26.4845L57.9761 26.6838L58.304 28.5352L57.9825 28.593Z" fill="#221F51"/>
<path d="M57.9573 28.6252L57.9509 28.5931L57.5459 26.311L60.7472 25.7454L61.1522 28.021L60.7536 28.0917L60.4322 26.2725L59.4744 26.4396L59.7572 28.0595L59.3587 28.1303L59.0758 26.5103L58.0152 26.6967L58.343 28.5481L57.9573 28.6252ZM57.623 26.3689L58.0087 28.5545L58.2723 28.5095L57.9444 26.6582L59.1337 26.446L59.4165 28.066L59.6865 28.021L59.4037 26.401L60.4901 26.2082L60.8115 28.0274L61.0815 27.9824L60.7022 25.8289L57.623 26.3689Z" fill="#221F51"/>
<path d="M61.0104 31.3958L58.1691 31.473L58.1562 31.0744L60.9975 30.9973L60.9718 29.9366L61.319 29.9302L61.3832 32.4436L61.0361 32.4501L61.0104 31.3958Z" fill="#221F51"/>
<path d="M61.0107 32.4821L60.985 31.4279L58.1437 31.505L58.1309 31.0422L60.9786 30.965L60.9529 29.9044L61.3643 29.8979L61.4286 32.4757L61.0107 32.4821ZM61.0429 31.3636L61.0686 32.4178L61.3514 32.4114L61.2871 29.9622L61.0043 29.9687L61.03 31.0293L58.1887 31.1065L58.2016 31.4407L61.0429 31.3636Z" fill="#221F51"/>
<path d="M61.2234 34.8477L58.0479 34.5585L58.0864 34.1599L61.262 34.4492L61.2234 34.8477Z" fill="#221F51"/>
<path d="M61.2555 34.8799L58.0156 34.5842L58.0606 34.1213L61.3005 34.417L61.2555 34.8799ZM58.0799 34.5263L61.1912 34.8092L61.2233 34.4749L58.112 34.192L58.0799 34.5263Z" fill="#221F51"/>
<path d="M31.4279 59.8409C31.4279 59.9501 31.4279 60.053 31.4279 60.1623C31.4279 60.4001 31.2736 60.4773 31.0744 60.4837C30.8751 60.4901 30.7144 60.413 30.7079 60.1816C30.7015 59.9437 30.7015 59.7123 30.7079 59.4745C30.7144 59.2366 30.8815 59.1595 31.0744 59.1659C31.2672 59.1723 31.4343 59.2495 31.4279 59.4873C31.4279 59.6094 31.4279 59.7252 31.4279 59.8409Z" fill="#221F51"/>
<path d="M38.4477 52.474C40.9419 51.452 43.0375 49.8899 44.7602 47.8328C45.0302 47.5114 45.2809 47.1707 45.5766 46.7914C44.1817 46.7914 42.8703 46.7914 41.559 46.785C41.3983 46.785 41.3661 46.875 41.3275 46.9907C40.9933 47.9743 40.569 48.9192 40.0933 49.8385C39.6176 50.7641 39.0069 51.5998 38.4091 52.4355C38.3834 52.4419 38.3512 52.4483 38.3705 52.4869C38.377 52.4933 38.422 52.4805 38.4477 52.474ZM25.6682 52.474C25.694 52.4805 25.739 52.4998 25.7454 52.4869C25.7711 52.4483 25.739 52.4419 25.7068 52.4355C25.7004 52.4162 25.7004 52.3905 25.6875 52.3776C24.3826 50.7898 23.4826 48.9835 22.8205 47.055C22.7434 46.8429 22.6405 46.785 22.4284 46.7914C21.2263 46.8043 20.0306 46.7979 18.835 46.7979C18.7643 46.7979 18.6871 46.7593 18.6293 46.8364C18.6164 46.9136 18.6743 46.9586 18.7064 47.0036C19.9149 48.6685 21.387 50.0442 23.1162 51.1498C23.9198 51.6705 24.7683 52.1269 25.6682 52.474ZM45.6988 33.5235C45.8273 33.4849 45.9238 33.4528 46.0266 33.427C47.0037 33.1506 47.6144 32.5078 47.8265 31.5307C48.058 30.4572 48.0515 29.3644 47.8522 28.2844C47.6401 27.1402 46.9587 26.4202 45.8081 26.1695C45.5124 26.1052 45.2167 26.0538 44.9145 26.0538C42.3625 26.0474 39.8233 26.0474 37.2713 26.0474C37.0592 26.0474 36.9113 26.1245 36.8085 26.3238C36.5449 26.8316 36.2621 27.3395 35.9921 27.8409C34.7707 30.1229 33.5493 32.3921 32.3279 34.6741C32.2701 34.7898 32.238 34.9441 32.0451 34.9313C31.878 34.9184 31.8523 34.7834 31.7944 34.6741C30.2902 31.9228 28.7924 29.1651 27.2946 26.4074C27.1468 26.1374 26.9603 26.0409 26.6518 26.0409C24.3505 26.0538 22.0556 26.0474 19.7478 26.0474C19.375 26.0474 19.0021 26.0731 18.6293 26.1245C17.2151 26.3109 16.3087 27.0566 15.9615 28.3166C15.8137 28.8565 15.7494 29.4094 15.743 29.9622C15.7237 31.0229 15.7301 32.0835 15.7365 33.1378C15.7365 33.7485 15.7944 34.3591 15.9423 34.9505C16.2058 35.9984 16.8165 36.744 17.8772 37.0655C18.4236 37.2326 18.9893 37.2969 19.555 37.3033C21.6763 37.3097 23.7912 37.3097 25.9125 37.3033C26.2918 37.3033 26.3818 37.2133 26.3818 36.8276C26.3882 36.3969 26.3818 35.9726 26.3818 35.5419C26.3818 35.0598 26.3046 34.9891 25.8225 34.9891C23.8298 34.9891 21.8434 34.9891 19.8507 34.9891C19.5614 34.9891 19.2721 34.9763 18.9893 34.912C18.4814 34.7898 18.16 34.4749 18.0636 33.9606C18.0057 33.6456 17.9736 33.3306 17.9543 33.0092C17.9415 32.7392 17.9929 32.6492 18.295 32.6492C20.7828 32.6621 23.2576 32.6557 25.7454 32.6557C26.2211 32.6557 26.3239 32.5528 26.3239 32.0707C26.3239 31.7493 26.3239 31.4278 26.3239 31.1064C26.3175 30.7079 26.2082 30.5922 25.8032 30.5922C24.5497 30.5922 23.2962 30.5922 22.0491 30.5922C20.7763 30.5922 19.4971 30.5857 18.2307 30.5986C18.0186 30.5986 17.9543 30.5472 17.9607 30.3286C17.9736 30.0072 18.0057 29.6858 18.07 29.3772C18.16 28.9272 18.43 28.6123 18.8864 28.4773C19.2014 28.3873 19.5164 28.368 19.8378 28.368C21.657 28.368 23.4762 28.3744 25.2954 28.3616C25.5011 28.3616 25.6104 28.4194 25.7132 28.6123C27.0825 31.1129 28.471 33.6006 29.8338 36.1076C30.2838 36.9305 30.9137 37.3804 31.8715 37.3097C32.0194 37.2969 32.1737 37.2969 32.3215 37.3097C33.2793 37.4062 33.89 36.9369 34.3271 36.1205C35.6835 33.6006 37.0656 31.1 38.4284 28.5801C38.5248 28.4001 38.6341 28.323 38.8462 28.3294C40.1126 28.3423 41.3725 28.3358 42.6325 28.3358C43.2239 28.3358 43.8089 28.3294 44.4003 28.3616C45.0495 28.4001 45.4224 28.7858 45.4545 29.4287C45.4738 29.8336 45.4738 30.245 45.4545 30.65C45.4224 31.28 45.0495 31.6528 44.426 31.7171C44.2138 31.7364 43.9953 31.7428 43.7832 31.7428C42.0797 31.7428 40.3826 31.7493 38.6791 31.7364C38.3834 31.7364 38.3191 31.82 38.332 32.09C38.3577 32.5464 38.3512 33.0092 38.332 33.472C38.3191 33.7163 38.3834 33.7935 38.6405 33.7935C40.0355 33.7806 41.4175 33.7935 42.8125 33.7806C43.031 33.7806 43.1596 33.8513 43.2882 34.0249C44.0274 35.0341 44.7731 36.0305 45.5188 37.0269C45.6152 37.1555 45.7052 37.2969 45.8916 37.2969C46.618 37.3033 47.3508 37.3097 48.0772 37.2969C48.3408 37.2904 48.4372 37.0655 48.2958 36.8405C48.2572 36.7762 48.2058 36.7248 48.1608 36.6605C47.3508 35.6191 46.5345 34.5906 45.6988 33.5235ZM22.0427 24.5174C24.0805 24.5174 26.1054 24.5174 28.1431 24.511C28.4517 24.511 28.7281 24.5624 29.0174 24.6782C29.6924 24.9417 30.2838 25.3403 30.8494 25.7838C31.743 26.4845 32.6494 26.2852 33.4529 25.7645C33.8707 25.4945 34.2757 25.1988 34.7 24.9353C35.2014 24.6203 35.7349 24.5046 36.3392 24.5046C40.2862 24.5239 44.2396 24.5174 48.1865 24.5174C48.2701 24.5174 48.3601 24.511 48.4437 24.5174C48.6365 24.5303 48.7136 24.4339 48.7136 24.2475C48.7136 23.9582 48.6944 23.6689 48.7201 23.3796C48.7458 23.0647 48.6172 22.9747 48.3151 22.9811C47.1709 22.9939 46.0202 22.9811 44.8824 22.9939C44.6574 22.9939 44.5931 22.9361 44.5995 22.7111C44.6188 22.3061 44.6124 21.8947 44.5995 21.4897C44.5931 21.329 44.6381 21.2519 44.7924 21.1747C45.1588 20.9947 45.2938 20.6476 45.1845 20.2555C45.0881 19.8955 44.7988 19.6769 44.3938 19.6962C44.2267 19.7027 44.1496 19.6512 44.066 19.5162C43.1146 17.9349 42.1568 16.36 41.2054 14.7786C41.1347 14.6565 41.109 14.5729 41.1926 14.4379C41.3983 14.0843 41.3468 13.7308 41.0961 13.4608C40.8519 13.2101 40.5047 13.1522 40.1512 13.3322C40.0419 13.3901 39.9648 13.3965 39.8683 13.3194C39.0905 12.7665 38.3127 12.2201 37.5349 11.6673C37.432 11.5966 37.387 11.513 37.3999 11.3716C37.432 10.9473 37.2842 10.6838 36.9563 10.5295C36.6413 10.3816 36.3071 10.4524 36.0242 10.7416C35.9149 10.8509 35.8249 10.8702 35.6835 10.8316C35.3235 10.7288 34.9635 10.6388 34.5971 10.5552C34.4429 10.5166 34.3529 10.4652 34.3143 10.2788C34.2307 9.90595 33.9543 9.70668 33.6072 9.68739C33.2408 9.66811 32.9708 9.82238 32.8358 10.1888C32.7715 10.3624 32.6622 10.3688 32.5208 10.3816C31.5373 10.4588 30.5602 10.5295 29.5831 10.6259C29.3517 10.6452 29.1974 10.6259 29.0495 10.4138C28.8438 10.1117 28.4903 10.0281 28.1689 10.1438C27.8603 10.2531 27.6289 10.5424 27.6482 10.8766C27.661 11.0888 27.571 11.1788 27.4103 11.2687C26.1697 11.963 24.9354 12.6637 23.7012 13.3644C23.5791 13.4351 23.5019 13.4544 23.3669 13.3644C23.0262 13.1394 22.6341 13.1844 22.3705 13.4544C22.107 13.7179 22.0684 14.1036 22.287 14.4507C22.3641 14.5793 22.3705 14.6757 22.2998 14.8043C21.567 16.1092 20.8406 17.4142 20.1142 18.7127C20.0435 18.8413 19.9856 18.9184 19.8057 18.912C19.3942 18.8863 19.105 19.1241 19.0021 19.5098C18.9121 19.8505 19.0728 20.2298 19.4135 20.3969C19.5678 20.4741 19.6064 20.5576 19.5999 20.7183C19.5935 21.3483 19.5807 21.9847 19.6064 22.6147C19.6192 22.9232 19.555 23.0325 19.2143 23.0261C18.0764 23.0004 16.9451 23.0197 15.8137 23.0132C15.5373 23.0132 15.4151 23.0968 15.4408 23.3796C15.4601 23.5789 15.4473 23.7846 15.4473 23.9903C15.4473 24.5239 15.4473 24.5239 15.9615 24.5239C17.9736 24.5174 20.0049 24.5174 22.0427 24.5174ZM27.211 38.8075C26.0411 38.8075 24.8776 38.8139 23.7141 38.8011C23.4633 38.8011 23.3862 38.8525 23.4055 39.1161C23.5083 40.9353 23.7462 42.7288 24.209 44.4901C24.2605 44.6894 24.3247 44.7408 24.524 44.7408C26.6003 44.7344 28.6703 44.7344 30.7466 44.7408C31.0037 44.7408 31.0359 44.6508 31.0359 44.4258C31.0294 42.6516 31.023 40.8774 31.0359 39.1032C31.0359 38.8332 30.9459 38.7947 30.708 38.7947C29.5381 38.814 28.3681 38.8075 27.211 38.8075ZM36.4613 44.7408C37.297 44.7408 38.1327 44.7408 38.9684 44.7408C39.9005 44.7408 39.8812 44.7408 40.0805 43.8152C40.4147 42.2531 40.6204 40.6782 40.7104 39.0839C40.7233 38.8525 40.6719 38.7947 40.4404 38.7947C38.0748 38.8011 35.7157 38.8011 33.3436 38.7947C33.1443 38.7947 33.0672 38.8332 33.0736 39.0518C33.0865 40.8646 33.0865 42.6645 33.0736 44.4773C33.0736 44.7023 33.1508 44.7344 33.3436 44.7344C34.385 44.7408 35.4264 44.7473 36.4613 44.7408ZM42.0025 44.7408C43.5774 44.7408 45.1009 44.7408 46.6309 44.7408C46.7402 44.7408 46.7916 44.7023 46.843 44.593C47.6851 42.8381 48.1801 40.9996 48.3665 39.0647C48.3858 38.8525 48.3151 38.7947 48.1094 38.7947C46.4187 38.8011 44.7345 38.8011 43.0439 38.7947C42.8446 38.7947 42.7739 38.8332 42.7611 39.0518C42.6839 40.961 42.4525 42.8445 42.0025 44.7408ZM18.565 38.8075C17.71 38.8075 16.8486 38.8139 15.9937 38.8011C15.7751 38.8011 15.7301 38.8654 15.7494 39.0711C15.9037 40.7874 16.3537 42.4202 16.9901 44.0209C17.2086 44.5737 17.485 44.7858 18.1086 44.7537C19.3557 44.6894 20.6156 44.7344 21.8627 44.728C21.9463 44.728 22.152 44.8372 22.0877 44.5673C21.6377 42.7545 21.4384 40.9096 21.3613 39.0454C21.3484 38.8204 21.2649 38.7882 21.0785 38.7947C20.2364 38.814 19.4007 38.8075 18.565 38.8075ZM24.9676 46.8043C24.9676 46.8429 24.9547 46.8622 24.9611 46.8814C25.5718 48.4564 26.3496 49.9284 27.4425 51.227C28.336 52.2812 29.3774 53.1297 30.7144 53.554C30.9844 53.6376 31.0294 53.5797 31.0294 53.3162C31.0166 51.2398 31.023 49.1699 31.0294 47.0872C31.0294 46.8493 30.978 46.7786 30.7337 46.785C28.8824 46.7979 27.0375 46.7914 25.1797 46.7914C25.109 46.7914 25.0383 46.7979 24.9676 46.8043ZM33.0865 50.2306C33.0865 51.2784 33.0929 52.3262 33.0801 53.3676C33.0801 53.6054 33.1379 53.6311 33.35 53.5669C34.1793 53.3097 34.9185 52.8919 35.5742 52.3262C37.2456 50.8863 38.2805 49.0285 39.0969 47.0229C39.1741 46.8364 39.1226 46.785 38.9234 46.785C37.0527 46.7914 35.1821 46.7914 33.3115 46.785C33.0929 46.785 33.0736 46.875 33.0736 47.055C33.0929 48.1157 33.0865 49.1699 33.0865 50.2306Z" fill="#221F51"/>
<path d="M45.6983 33.5235C46.534 34.5842 47.3503 35.6256 48.1667 36.6541C48.2117 36.712 48.2632 36.7698 48.3017 36.8341C48.4432 37.0591 48.3467 37.2841 48.0832 37.2905C47.3568 37.3034 46.624 37.2905 45.8976 37.2905C45.7111 37.2905 45.6211 37.1555 45.5247 37.0205C44.779 36.0177 44.0334 35.0149 43.2941 34.0185C43.172 33.8514 43.0434 33.7742 42.8184 33.7742C41.4235 33.7871 40.0414 33.7742 38.6465 33.7871C38.3893 33.7871 38.325 33.71 38.3379 33.4657C38.3572 33.0028 38.3636 32.5464 38.3379 32.0836C38.325 31.8072 38.3893 31.7236 38.685 31.73C40.3885 31.7493 42.0856 31.7365 43.7891 31.7365C44.0012 31.7365 44.2198 31.73 44.4319 31.7108C45.0555 31.6465 45.4283 31.2736 45.4604 30.6437C45.4797 30.2387 45.4797 29.8273 45.4604 29.4223C45.4283 28.7795 45.0555 28.3938 44.4062 28.3552C43.8212 28.3166 43.2298 28.3295 42.6384 28.3295C41.372 28.3231 40.1121 28.3359 38.8522 28.3231C38.64 28.3231 38.5307 28.3938 38.4343 28.5738C37.0651 31.0872 35.6894 33.5942 34.3331 36.1141C33.896 36.9305 33.2853 37.3934 32.3274 37.3034C32.1796 37.2905 32.0253 37.2905 31.8775 37.3034C30.9197 37.3741 30.2897 36.9241 29.8397 36.1013C28.4769 33.5942 27.0884 31.1065 25.7192 28.6059C25.6163 28.4131 25.507 28.3552 25.3013 28.3552C23.4821 28.3616 21.6629 28.3616 19.8437 28.3616C19.5223 28.3616 19.2009 28.3809 18.8923 28.4709C18.4359 28.6059 18.1724 28.9209 18.0759 29.3709C18.0117 29.6859 17.9795 30.0008 17.9667 30.3223C17.9602 30.5408 18.0245 30.5922 18.2367 30.5922C19.5095 30.5858 20.7887 30.5858 22.0551 30.5858C23.3086 30.5858 24.5621 30.5858 25.8092 30.5858C26.2142 30.5858 26.3234 30.6951 26.3299 31.1001C26.3363 31.4215 26.3299 31.7429 26.3299 32.0643C26.3299 32.5529 26.227 32.6493 25.7513 32.6493C23.2636 32.6493 20.7887 32.6557 18.3009 32.6429C17.9988 32.6429 17.9474 32.7329 17.9602 33.0028C17.9795 33.3243 18.0052 33.6457 18.0695 33.9542C18.1659 34.4685 18.4874 34.7835 18.9952 34.9056C19.278 34.9699 19.5673 34.9828 19.8566 34.9828C21.8493 34.9828 23.8357 34.9828 25.8285 34.9828C26.3106 34.9828 26.3877 35.0535 26.3877 35.5356C26.3877 35.9663 26.3941 36.3905 26.3877 36.8212C26.3813 37.2134 26.2977 37.2969 25.9185 37.2969C23.7971 37.2969 21.6822 37.2969 19.5609 37.2969C18.9888 37.2969 18.4295 37.2262 17.8831 37.0591C16.816 36.7377 16.2117 35.992 15.9482 34.9442C15.8003 34.3528 15.7425 33.7421 15.7425 33.1314C15.7425 32.0707 15.7296 31.0101 15.7489 29.9558C15.7618 29.403 15.8196 28.8502 15.9675 28.3102C16.3082 27.0631 17.2081 26.311 18.6224 26.1246C18.9952 26.0732 19.368 26.0474 19.7409 26.0474C22.0422 26.0474 24.3371 26.0539 26.6448 26.041C26.947 26.041 27.1398 26.131 27.2877 26.4074C28.7855 29.1652 30.2833 31.9229 31.7875 34.6742C31.8453 34.7835 31.871 34.9185 32.0382 34.9313C32.231 34.9442 32.2632 34.7835 32.321 34.6742C33.5488 32.3986 34.7702 30.123 35.9851 27.8409C36.2551 27.3331 36.538 26.8317 36.8015 26.3239C36.9044 26.1246 37.0522 26.0474 37.2644 26.0474C39.8164 26.0539 42.3556 26.0539 44.9076 26.0539C45.2097 26.0539 45.5054 26.1053 45.8011 26.1696C46.9518 26.4203 47.6332 27.1402 47.8453 28.2845C48.0446 29.3644 48.051 30.4572 47.8196 31.5308C47.6075 32.5079 46.9968 33.1507 46.0197 33.4271C45.9233 33.4593 45.8268 33.485 45.6983 33.5235Z" fill="white"/>
<path d="M22.0425 24.5111C20.0047 24.5111 17.9798 24.5111 15.942 24.5111C15.4277 24.5111 15.4277 24.5111 15.4277 23.9776C15.4277 23.7719 15.4406 23.5662 15.4213 23.3669C15.3956 23.0776 15.5177 22.994 15.7942 23.0005C16.932 23.0133 18.0633 22.9876 19.1947 23.0133C19.5354 23.0198 19.5997 22.9105 19.5868 22.6019C19.5997 21.9398 19.5997 21.3613 19.5804 20.7056C19.574 20.5513 19.5483 20.4613 19.394 20.3842C19.0469 20.217 18.8926 19.8378 18.9826 19.4971C19.0854 19.1114 19.3747 18.8799 19.7861 18.8992C19.9661 18.9121 20.024 18.835 20.0947 18.7C20.8211 17.395 21.5475 16.0901 22.2803 14.7916C22.351 14.663 22.3446 14.5666 22.2674 14.438C22.0489 14.0909 22.0939 13.7052 22.351 13.4416C22.6146 13.1781 23.0067 13.1266 23.3474 13.3516C23.4824 13.4416 23.566 13.4159 23.6817 13.3516C24.9159 12.6509 26.1566 11.9503 27.3908 11.256C27.5515 11.166 27.6415 11.0824 27.6286 10.8639C27.6093 10.5296 27.8343 10.2403 28.1493 10.1311C28.4707 10.0153 28.8243 10.0989 29.03 10.401C29.1714 10.6196 29.3321 10.6389 29.5635 10.6132C30.5406 10.5232 31.5242 10.446 32.5013 10.3689C32.6427 10.356 32.752 10.356 32.8163 10.176C32.9512 9.81606 33.2212 9.65536 33.5877 9.67464C33.9412 9.69393 34.2112 9.8932 34.2948 10.266C34.3398 10.4525 34.4233 10.5039 34.5776 10.5425C34.944 10.6325 35.304 10.7225 35.664 10.8189C35.8054 10.8574 35.8954 10.8446 36.0047 10.7289C36.2875 10.4396 36.6218 10.3753 36.9368 10.5168C37.2646 10.671 37.4189 10.9282 37.3803 11.3589C37.3675 11.5003 37.4125 11.5774 37.5153 11.6546C38.2932 12.201 39.071 12.7538 39.8488 13.3066C39.9516 13.3773 40.0224 13.3709 40.1316 13.3195C40.4852 13.1395 40.8323 13.1973 41.0766 13.448C41.3337 13.7116 41.3852 14.0716 41.173 14.4251C41.0895 14.5666 41.1152 14.6501 41.1859 14.7658C42.1437 16.3472 43.1015 17.9221 44.0465 19.5035C44.13 19.6385 44.2072 19.6899 44.3743 19.6835C44.7793 19.6642 45.0686 19.8828 45.165 20.2427C45.2678 20.6349 45.1328 20.9756 44.7729 21.162C44.6186 21.2391 44.58 21.3163 44.58 21.477C44.58 21.8755 44.58 22.2612 44.58 22.6983C44.5672 22.9233 44.6379 22.9876 44.8629 22.9812C46.0071 22.9683 47.1578 22.9876 48.2956 22.9683C48.5977 22.9619 48.7263 23.0519 48.7005 23.3669C48.6748 23.6562 48.6941 23.9454 48.6941 24.2347C48.6941 24.4211 48.617 24.5176 48.4241 24.5047C48.3406 24.4983 48.2506 24.5047 48.167 24.5047C44.22 24.5047 40.2666 24.5176 36.3197 24.4918C35.7154 24.4854 35.1819 24.6075 34.6805 24.9225C34.2562 25.1861 33.8512 25.4818 33.4334 25.7518C32.6298 26.2725 31.717 26.4718 30.8299 25.7711C30.2707 25.3275 29.6728 24.929 28.9979 24.6654C28.715 24.5561 28.4322 24.4983 28.1236 24.4983C26.1051 24.5111 24.0738 24.5111 22.0425 24.5111ZM20.3775 19.0535C21.7982 18.1471 23.2188 17.2407 24.6395 16.3343C24.7038 16.2958 24.7423 16.2443 24.7423 16.1544C24.7488 15.8201 25.0573 15.8329 24.7359 15.5758C24.6073 15.5115 24.0288 15.0615 23.8809 14.9587C23.6431 14.8044 23.3988 14.5473 23.0517 14.7658C22.9938 14.798 22.9038 14.798 22.8331 14.7851C22.6981 14.753 22.6403 14.8173 22.5824 14.9201C21.8303 16.2829 21.0782 17.6457 20.3261 19.0021C20.3068 19.0278 20.3004 19.0599 20.3325 19.0792C20.339 19.0985 20.3647 19.0664 20.3775 19.0535ZM26.1823 15.293C26.2208 15.2737 26.2594 15.2608 26.298 15.2351C28.4322 13.7695 30.5599 12.3167 32.6941 10.851C32.7391 10.8189 32.7841 10.7867 32.7455 10.716C31.6334 10.7996 30.5149 10.8896 29.4028 10.9732C29.2743 10.986 29.21 11.0374 29.1586 11.166C29.0493 11.436 28.8371 11.6738 28.535 11.6417C28.175 11.6031 28.0786 11.8217 27.95 12.0531C27.9115 12.1302 27.8665 12.201 27.8215 12.2781C27.2622 13.2745 26.703 14.2644 26.1437 15.2544C26.118 15.2608 26.0923 15.2737 26.118 15.3058C26.1244 15.3187 26.163 15.2994 26.1823 15.293ZM34.1341 14.753C33.7484 14.8173 33.3369 14.888 32.9255 14.9523C30.8106 15.293 28.7086 15.6401 26.5937 15.9808C26.4458 16.0065 26.3044 16.0001 26.2401 16.2186C26.1758 16.4436 26.343 16.4758 26.4394 16.5658C26.5872 16.72 26.7608 16.8486 26.9215 16.99C28.3615 18.2564 29.7885 19.5163 31.2285 20.7763C31.5885 21.0913 32.077 20.982 32.257 20.5513C32.5591 19.8442 32.8613 19.1371 33.1634 18.43C33.6069 17.3757 34.0505 16.3279 34.494 15.2801C34.5905 15.0487 34.3976 14.7466 34.1341 14.753ZM22.4667 23.0069C23.2381 23.0069 24.0095 23.0069 24.7809 23.0069C24.948 23.0069 25.0637 22.994 25.0702 22.7755C25.1409 20.8341 25.218 18.8928 25.3016 16.9515C25.308 16.7908 25.2437 16.7329 25.1216 16.6622C24.9995 16.585 24.9095 16.5722 24.7809 16.6558C23.4052 17.5429 22.036 18.43 20.6604 19.3106C20.5318 19.3942 20.5125 19.4713 20.5318 19.6192C20.5704 19.9535 20.4354 20.2427 20.1204 20.3842C19.9404 20.4677 19.9275 20.5706 19.9275 20.7313C19.934 21.3934 19.9404 22.0619 19.9211 22.7241C19.9147 22.9748 19.9983 23.0198 20.2297 23.0198C20.9754 23.0005 21.7275 23.0069 22.4667 23.0069ZM25.3916 22.7048C25.308 22.9619 25.4302 23.0198 25.7001 23.0133C26.523 23.0005 27.3522 23.0326 28.175 23.0005C28.6186 22.9812 29.0171 23.0712 29.4093 23.2383C29.5507 23.3026 29.6407 23.2833 29.7564 23.1933C30.0521 22.949 30.3671 22.7241 30.6692 22.4798C30.9713 22.2355 31.3956 22.0555 31.222 21.5348C31.2156 21.5155 31.222 21.4898 31.2349 21.4705C31.3056 21.3163 31.2413 21.2263 31.1192 21.117C29.4607 19.6706 27.8086 18.2243 26.1566 16.765C26.0473 16.6686 25.9573 16.6493 25.8159 16.7072C25.668 16.765 25.6616 16.855 25.6551 16.9772C25.5652 18.8799 25.4816 20.7763 25.3916 22.7048ZM32.7584 21.2327C32.8163 21.2134 32.8805 21.1941 32.9384 21.1748C35.1047 20.4742 37.2646 19.7735 39.431 19.0857C39.6624 19.0149 39.7074 18.8735 39.7652 18.6871C39.8231 18.4943 39.6688 18.4428 39.5724 18.3593C38.3189 17.3307 37.0589 16.3022 35.8118 15.2801C35.4711 14.9973 34.9376 15.1258 34.764 15.5308C34.3462 16.5143 33.9348 17.4979 33.5169 18.475C33.1891 19.2528 32.8548 20.0242 32.527 20.802C32.437 21.027 32.5527 21.2456 32.7584 21.2327ZM42.4651 22.9812C41.8994 21.9012 41.3466 20.8663 40.8066 19.8378C40.7359 19.7028 40.633 19.6963 40.5109 19.7092C40.2923 19.7221 40.0995 19.6513 39.9645 19.4906C39.8424 19.3556 39.7395 19.3492 39.5724 19.4006C37.3868 20.1142 35.2076 20.8149 33.022 21.522C32.9255 21.5541 32.7841 21.5413 32.7713 21.6827C32.7584 21.8434 32.9255 21.8434 33.022 21.882C33.9412 22.2291 34.8669 22.5698 35.7797 22.9105C35.9018 22.9555 36.024 22.9941 36.1525 22.9941C38.2546 22.9812 40.3309 22.9812 42.4651 22.9812ZM26.3108 15.6465C26.4073 15.6529 26.4394 15.6594 26.4715 15.6529C28.8371 15.2673 31.1963 14.8751 33.5619 14.4959C33.9348 14.438 34.3398 14.4444 34.4298 13.9495C34.4362 13.9237 34.4683 13.898 34.494 13.8787C34.6097 13.7887 34.5969 13.6988 34.5455 13.5702C34.3333 13.0431 34.1341 12.5159 33.9412 11.9824C33.8062 11.6031 33.7355 11.2174 33.202 11.1596C33.022 11.1403 32.9062 11.1146 32.752 11.2174C31.8906 11.8153 31.0228 12.4002 30.1614 12.9916C28.895 13.8723 27.6351 14.7401 26.3108 15.6465ZM40.3373 16.4822C40.3373 16.0772 40.3309 15.6722 40.3373 15.2608C40.3438 14.9908 40.3695 14.7337 40.0288 14.6309C39.9516 14.6051 39.8681 14.5087 39.8359 14.4251C39.7717 14.258 39.6624 14.2452 39.5081 14.258C38.3574 14.3544 37.2068 14.4444 36.069 14.5344C35.9533 14.5409 35.844 14.528 35.7925 14.6823C35.7411 14.8366 35.8568 14.8687 35.934 14.933C37.2453 16.0129 38.5567 17.0865 39.8617 18.16C39.9581 18.2435 40.0288 18.2757 40.1702 18.2114C40.3116 18.1407 40.3438 18.0636 40.3438 17.9157C40.3373 17.44 40.3373 16.9643 40.3373 16.4822ZM26.4008 14.0716C26.8894 13.2102 27.3779 12.3552 27.8665 11.5067C27.8022 11.4424 27.7636 11.4681 27.7251 11.4874C26.4201 12.2267 25.1216 12.9659 23.8295 13.7052C23.6495 13.808 23.6045 14.3223 23.7652 14.4444C24.1252 14.7273 24.4981 14.9973 24.8645 15.2737C24.9159 15.3123 24.9673 15.3701 25.0316 15.3444M40.7552 14.7658C40.7295 14.7787 40.6973 14.7916 40.6716 14.8044C40.6716 15.8715 40.6716 16.9386 40.6716 18.0057C40.6716 18.1214 40.7359 18.1536 40.8195 18.1857C41.1087 18.295 41.2694 18.5264 41.2952 18.8221C41.3144 19.0214 41.4044 19.0921 41.5716 19.1499C42.2337 19.4006 42.8829 19.6706 43.5451 19.9278C43.6286 19.9599 43.7251 20.0499 43.8086 19.9663C43.9243 19.8506 43.7829 19.767 43.7379 19.6899C43.0179 18.4878 42.2915 17.2922 41.5651 16.1029C41.2823 15.6594 41.0187 15.2094 40.7552 14.7658ZM44.2457 21.6184C44.1943 21.3613 44.2265 21.2198 43.9822 21.1106C43.7636 21.0141 43.6479 20.7956 43.6415 20.5642C43.6351 20.3649 43.5386 20.2942 43.3715 20.2299C42.7222 19.9792 42.0794 19.7156 41.4302 19.4649C41.3337 19.4263 41.2245 19.3042 41.1087 19.4199C40.9802 19.5485 41.1023 19.6578 41.1537 19.7606C41.6359 20.6734 42.1373 21.5798 42.5937 22.5055M36.1268 14.1744C37.2518 14.0844 38.3832 14.0009 39.5017 13.9109C39.5917 13.9045 39.7074 13.9237 39.7459 13.808C39.7974 13.6602 39.6495 13.6345 39.5724 13.583C38.9617 13.1523 38.351 12.7217 37.7467 12.2845C37.4253 12.0595 37.1361 11.7381 36.6925 12.0274C36.6797 12.0403 36.6475 12.0403 36.6282 12.0338C36.4418 11.9953 36.3711 12.1045 36.3004 12.2588C36.1011 12.6831 35.889 13.1009 35.6768 13.5188C35.4904 13.9173 35.6833 14.2002 36.1268 14.1744ZM33.9926 11.1981C33.9991 11.2174 34.0119 11.2367 34.0183 11.256C34.3076 12.0017 34.5969 12.7474 34.8797 13.493C34.9183 13.5959 34.9762 13.6409 35.0919 13.6538C35.2076 13.6666 35.2719 13.6152 35.3169 13.5188C35.5547 13.0173 35.799 12.5224 36.0368 12.021C36.0625 11.9695 36.1075 11.9245 36.069 11.8474C35.8761 11.4553 35.6833 11.0824 35.1433 11.0696C34.8926 11.0632 34.6483 10.9474 34.404 10.8896C34.2562 10.851 33.9926 11.0632 33.9926 11.1981ZM35.2397 23.0648C34.3848 22.7433 33.5941 22.4541 32.8098 22.1584C32.707 22.1198 32.6298 22.1262 32.5527 22.2034C32.4756 22.2869 32.5077 22.3512 32.5527 22.4348C32.7777 22.8783 33.0027 23.3283 33.2148 23.7783C33.2727 23.9004 33.3177 23.9711 33.4719 23.8747C33.9991 23.534 34.5776 23.2962 35.2397 23.0648ZM32.1991 24.7104C32.4434 24.6011 32.707 24.3697 32.9705 24.1447C33.0477 24.0804 32.9641 24.0033 32.9384 23.9454C32.7134 23.489 32.4756 23.0326 32.2441 22.5762C32.212 22.5055 32.1799 22.4348 32.0899 22.4476C31.987 22.4605 32.0063 22.5505 31.9934 22.6212C31.897 23.1548 31.807 23.6883 31.7106 24.2283C31.6527 24.5304 31.807 24.7168 32.1991 24.7104ZM31.3506 24.2668C31.4599 23.6562 31.5627 23.1162 31.6656 22.5698C31.6784 22.4862 31.6913 22.4026 31.6013 22.3448C31.5113 22.2869 31.447 22.3062 31.3699 22.3641C30.9135 22.7241 30.4506 23.0776 29.9621 23.4569C30.4442 23.7204 30.9071 23.9326 31.3506 24.2668Z" fill="white"/>
<path d="M27.2112 38.8075C28.3811 38.8075 29.5447 38.8139 30.7082 38.801C30.9396 38.801 31.036 38.8396 31.036 39.1096C31.0232 40.8838 31.0232 42.658 31.036 44.4322C31.036 44.6572 31.0103 44.7472 30.7467 44.7472C28.6704 44.7343 26.6005 44.7408 24.5242 44.7472C24.3249 44.7472 24.2606 44.6958 24.2092 44.4965C23.7463 42.7287 23.5085 40.9416 23.4056 39.1224C23.3928 38.8589 23.4699 38.8075 23.7142 38.8075C24.8777 38.8139 26.0412 38.8075 27.2112 38.8075Z" fill="white"/>
<path d="M36.4607 44.7408C35.4194 44.7408 34.3844 44.7343 33.3495 44.7472C33.1502 44.7472 33.073 44.7151 33.0795 44.4901C33.0923 42.6773 33.0923 40.8774 33.0795 39.0646C33.0795 38.846 33.1502 38.801 33.3495 38.8075C35.7151 38.8139 38.0742 38.8139 40.4463 38.8075C40.6777 38.8075 40.7291 38.8653 40.7163 39.0967C40.6263 40.6909 40.4206 42.2659 40.0863 43.8279C39.887 44.7472 39.8999 44.7536 38.9742 44.7536C38.1321 44.7408 37.2964 44.7408 36.4607 44.7408Z" fill="white"/>
<path d="M42.002 44.7408C42.4519 42.8444 42.6834 40.9674 42.7541 39.0582C42.7605 38.8396 42.8376 38.801 43.0369 38.801C44.7276 38.8075 46.4118 38.8075 48.1024 38.801C48.3145 38.801 48.3852 38.8524 48.3595 39.071C48.1731 41.0059 47.6781 42.8444 46.836 44.5993C46.7846 44.7022 46.7332 44.7472 46.6239 44.7472C45.094 44.7408 43.5705 44.7408 42.002 44.7408Z" fill="white"/>
<path d="M18.5653 38.8075C19.401 38.8075 20.2367 38.8139 21.0723 38.801C21.2652 38.801 21.3487 38.8267 21.3552 39.0517C21.4387 40.9159 21.6316 42.7544 22.0816 44.5736C22.1459 44.8436 21.9466 44.7343 21.8566 44.7343C20.6031 44.7408 19.3496 44.6958 18.1025 44.76C17.4789 44.7922 17.2025 44.58 16.9839 44.0272C16.3475 42.4266 15.8976 40.7938 15.7433 39.0774C15.724 38.8717 15.769 38.801 15.9876 38.8075C16.8554 38.8203 17.7039 38.8075 18.5653 38.8075Z" fill="white"/>
<path d="M24.9671 46.8044C25.0378 46.798 25.1085 46.7916 25.1792 46.7916C27.0306 46.7916 28.8755 46.798 30.7333 46.7852C30.9775 46.7852 31.0354 46.8494 31.029 47.0873C31.0161 49.1636 31.0161 51.2335 31.029 53.3163C31.029 53.5863 30.984 53.6377 30.714 53.5541C29.3705 53.1299 28.3291 52.2813 27.442 51.2271C26.3492 49.935 25.5714 48.4565 24.9607 46.8816C24.9542 46.8623 24.9607 46.843 24.9671 46.8044Z" fill="white"/>
<path d="M33.0865 50.2306C33.0865 49.17 33.0929 48.1093 33.0801 47.0615C33.0801 46.8815 33.0994 46.7915 33.3179 46.7915C35.1886 46.7979 37.0592 46.7979 38.9298 46.7915C39.1291 46.7915 39.1741 46.8429 39.1034 47.0294C38.287 49.035 37.2456 50.8928 35.5807 52.3327C34.925 52.8984 34.1857 53.3162 33.3565 53.5733C33.1444 53.6376 33.0801 53.6119 33.0865 53.3741C33.0929 52.3198 33.0865 51.2784 33.0865 50.2306Z" fill="white"/>
<path d="M25.6685 52.4741C24.7621 52.1334 23.92 51.6706 23.11 51.1499C21.3808 50.0443 19.9088 48.6622 18.7002 47.0037C18.6617 46.9522 18.6103 46.9137 18.6231 46.8365C18.6745 46.7594 18.7581 46.798 18.8288 46.798C20.0309 46.798 21.2266 46.8044 22.4222 46.7915C22.6344 46.7915 22.7436 46.843 22.8143 47.0551C23.4829 48.9836 24.3828 50.7899 25.6814 52.3777C25.6942 52.3906 25.6942 52.4163 25.7006 52.4356C25.6942 52.4484 25.6814 52.4613 25.6685 52.4741Z" fill="white"/>
<path d="M38.415 52.4356C39.0193 51.5935 39.63 50.7578 40.0992 49.8386C40.5685 48.9129 40.9992 47.968 41.3335 46.9909C41.3721 46.8752 41.4042 46.7852 41.5649 46.7852C42.8827 46.7916 44.1941 46.7916 45.5826 46.7916C45.2869 47.1709 45.0362 47.5116 44.7662 47.833C43.037 49.8964 40.9414 51.4521 38.4536 52.4742C38.4343 52.4613 38.4279 52.4485 38.415 52.4356Z" fill="white"/>
<path d="M38.4477 52.4741C38.422 52.4805 38.377 52.4934 38.377 52.487C38.3577 52.4484 38.3898 52.4484 38.4155 52.4355C38.4284 52.4484 38.4348 52.4613 38.4477 52.4741Z" fill="white"/>
<path d="M25.7065 52.4355C25.7323 52.442 25.7644 52.4548 25.7451 52.487C25.7387 52.4934 25.6937 52.4741 25.668 52.4741C25.6808 52.4613 25.6937 52.4484 25.7065 52.4355Z" fill="white"/>
<path d="M34.1344 14.7528C34.3979 14.7464 34.5908 15.0485 34.4943 15.2863C34.0508 16.3406 33.6072 17.3948 33.1637 18.4362C32.8615 19.1433 32.5594 19.8504 32.2573 20.5575C32.0773 20.9882 31.5823 21.0975 31.2288 20.7825C29.7888 19.5161 28.3617 18.2562 26.9218 16.9963C26.7611 16.8548 26.594 16.7198 26.4397 16.572C26.3497 16.482 26.1826 16.4499 26.2404 16.2249C26.3047 16.0063 26.4461 16.0127 26.594 15.987C28.7089 15.6399 30.8109 15.2992 32.9258 14.9585C33.3501 14.8878 33.7551 14.8171 34.1344 14.7528Z" fill="#221F51"/>
<path d="M22.467 23.0132C21.7149 23.0132 20.9692 23.0068 20.2171 23.0197C19.9857 23.0261 19.9021 22.9811 19.9085 22.724C19.915 22.0747 19.9214 21.3997 19.915 20.7312C19.915 20.5705 19.9278 20.4676 20.1078 20.3841C20.4164 20.2426 20.5578 19.9534 20.5192 19.6191C20.4999 19.4648 20.5192 19.3941 20.6478 19.3105C22.0299 18.4299 23.3991 17.5492 24.7683 16.6557C24.8969 16.5721 24.9869 16.5849 25.109 16.6621C25.2247 16.7328 25.2954 16.7906 25.289 16.9514C25.2055 18.8927 25.1283 20.834 25.0576 22.7754C25.0512 22.9939 24.9355 23.0068 24.7683 23.0068C24.0098 23.0132 23.2384 23.0132 22.467 23.0132Z" fill="#221F51"/>
<path d="M25.3921 22.7112C25.4756 20.7827 25.5592 18.8928 25.6428 16.99C25.6492 16.8679 25.6621 16.7779 25.8035 16.72C25.9449 16.6622 26.0285 16.6815 26.1442 16.7779C27.7963 18.2371 29.4483 19.6835 31.1068 21.1298C31.2225 21.2327 31.2932 21.3291 31.2225 21.4834C31.2161 21.5027 31.2097 21.5284 31.2097 21.5477C31.3768 22.0684 30.959 22.2484 30.6568 22.4926C30.3547 22.7305 30.0462 22.9619 29.744 23.2062C29.6283 23.2962 29.5383 23.3155 29.3969 23.2512C29.0048 23.0776 28.6062 22.994 28.1627 23.0133C27.3398 23.0519 26.517 23.0133 25.6878 23.0262C25.4371 23.0262 25.3149 22.9619 25.3921 22.7112Z" fill="#221F51"/>
<path d="M32.7585 21.239C32.5528 21.2454 32.4371 21.0333 32.5335 20.8083C32.8613 20.0304 33.1956 19.2591 33.5234 18.4812C33.9413 17.4977 34.3527 16.5142 34.7705 15.5371C34.9441 15.1321 35.4776 15.0035 35.8183 15.2864C37.0719 16.3149 38.3318 17.3434 39.5789 18.3655C39.6753 18.4491 39.8296 18.5005 39.7717 18.6934C39.7139 18.8798 39.6689 19.0148 39.4375 19.0919C37.2647 19.7733 35.1112 20.4804 32.9449 21.1811C32.8806 21.2004 32.8228 21.2197 32.7585 21.239Z" fill="#221F51"/>
<path d="M42.4649 22.9877C40.3307 22.9877 38.2544 22.9877 36.1652 22.9877C36.0366 22.9877 35.9145 22.9491 35.7923 22.9041C34.8731 22.5634 33.9474 22.2227 33.0346 21.8756C32.9382 21.837 32.771 21.837 32.7839 21.6763C32.7903 21.5349 32.9382 21.5477 33.0346 21.5156C35.2202 20.8085 37.3994 20.1014 39.585 19.3943C39.7457 19.3428 39.855 19.3493 39.9772 19.4842C40.1121 19.645 40.3114 19.7157 40.5236 19.7028C40.6457 19.6964 40.7486 19.6964 40.8193 19.8314C41.3528 20.8728 41.8992 21.9077 42.4649 22.9877Z" fill="#221F51"/>
<path d="M26.3105 15.6528C27.6283 14.7464 28.8947 13.8721 30.1611 13.0043C31.0225 12.4129 31.8903 11.8215 32.7517 11.2301C32.906 11.1273 33.0217 11.153 33.2017 11.1723C33.7352 11.2301 33.8059 11.6158 33.9409 11.9951C34.1338 12.5286 34.333 13.0557 34.5452 13.5829C34.5966 13.7114 34.6095 13.8014 34.4938 13.8914C34.468 13.9107 34.4359 13.9364 34.4295 13.9621C34.3395 14.4635 33.9345 14.4507 33.5617 14.5085C31.196 14.8878 28.8369 15.2799 26.4713 15.6656C26.4391 15.6656 26.407 15.6592 26.3105 15.6528Z" fill="#221F51"/>
<path d="M40.3371 16.4822C40.3371 16.9643 40.3307 17.4464 40.3371 17.9221C40.3371 18.0636 40.305 18.1471 40.1636 18.2178C40.0286 18.2821 39.9579 18.2435 39.855 18.1664C38.5436 17.0865 37.2323 16.0129 35.9273 14.9394C35.8502 14.8751 35.7409 14.843 35.7859 14.6887C35.8373 14.5344 35.9466 14.5473 36.0623 14.5409C37.213 14.4509 38.3637 14.3609 39.5015 14.2644C39.6557 14.2516 39.765 14.2644 39.8293 14.4316C39.8614 14.5151 39.9386 14.6116 40.0221 14.6373C40.3628 14.7401 40.3371 14.9973 40.3307 15.2673C40.3307 15.6722 40.3371 16.0772 40.3371 16.4822Z" fill="#221F51"/>
<path d="M26.1504 15.2671C26.7097 14.2707 27.2689 13.2808 27.8282 12.2908C27.8732 12.2137 27.9182 12.143 27.9567 12.0658C28.0853 11.8344 28.1817 11.6159 28.5417 11.6544C28.8374 11.6866 29.056 11.4487 29.1653 11.1787C29.2167 11.0437 29.281 10.9923 29.4095 10.9859C30.5281 10.9023 31.6466 10.8123 32.7522 10.7288C32.7908 10.8059 32.7458 10.838 32.7008 10.8638C30.5666 12.3294 28.4389 13.7822 26.3047 15.2478C26.2725 15.2736 26.2275 15.2864 26.189 15.3057C26.1761 15.2864 26.1632 15.28 26.1504 15.2671Z" fill="#221F51"/>
<path d="M24.6721 15.5243C25.0385 15.775 24.7492 15.8329 24.7428 16.1672C24.7428 16.2572 24.7042 16.3086 24.64 16.3471C23.2193 17.2535 21.7987 18.1599 20.378 19.0663C20.3652 19.0535 20.3523 19.0406 20.333 19.0277C21.0851 17.6649 21.8372 16.3021 22.5893 14.9458C22.6472 14.8429 22.705 14.7722 22.84 14.8108C22.9107 14.8301 23.0007 14.8301 23.0586 14.7915" fill="#221F51"/>
<path d="M27.8661 11.513C27.384 12.3615 26.889 13.2229 26.4005 14.0779C26.2976 14.2514 25.9312 14.9071 25.8284 15.0807C25.417 15.8071 25.4491 15.1964 25.0313 15.3571C24.9605 15.3828 24.9091 15.325 24.8641 15.2864C24.4977 15.01 24.1249 14.74 23.7649 14.4572C23.6042 14.3286 23.6492 13.8208 23.8292 13.7179C25.1277 12.9786 26.4326 12.2394 27.7247 11.5001C27.7633 11.4744 27.8018 11.4487 27.8661 11.513Z" fill="#221F51"/>
<path d="M40.7556 14.7722C41.0192 15.2158 41.2891 15.6593 41.5527 16.1029C42.2791 17.2985 43.0055 18.4942 43.7255 19.6899C43.7705 19.767 43.9119 19.8506 43.7962 19.9663C43.7062 20.0498 43.6162 19.9598 43.5326 19.9277C42.8769 19.6706 42.2213 19.4006 41.5591 19.1499C41.392 19.0856 41.302 19.0213 41.2827 18.822C41.257 18.5263 41.1027 18.3013 40.807 18.1856C40.7235 18.1535 40.6592 18.1214 40.6592 18.0056C40.6656 16.9386 40.6592 15.8715 40.6592 14.8044C40.6977 14.7979 40.7235 14.7851 40.7556 14.7722Z" fill="#221F51"/>
<path d="M44.1817 22.9362C44.021 23.0776 43.6481 23.0134 43.3781 22.9941C43.1017 22.9748 42.8446 22.8462 42.6067 22.5248C42.1503 21.5991 41.6489 20.6928 41.1668 19.7799C41.109 19.6707 40.9932 19.5614 41.1218 19.4392C41.2375 19.3235 41.3404 19.4457 41.4432 19.4842C42.0925 19.7349 42.7353 19.9985 43.3846 20.2492C43.5517 20.3135 43.6481 20.3778 43.6546 20.5835C43.661 20.8149 43.7767 21.0335 43.9953 21.1299C44.2395 21.2392 44.2717 21.3806 44.2588 21.6377" fill="#221F51"/>
<path d="M36.1265 14.1807C35.683 14.2064 35.4901 13.9171 35.683 13.5314C35.8887 13.1136 36.1072 12.6957 36.3065 12.2715C36.3772 12.1236 36.4479 12.0144 36.6344 12.0465C36.6536 12.0529 36.6794 12.0465 36.6986 12.0401C37.1422 11.7444 37.4379 12.0722 37.7529 12.2972C38.3636 12.7279 38.9743 13.1586 39.5785 13.5957C39.6557 13.6536 39.8035 13.6793 39.7521 13.8207C39.7135 13.9364 39.5978 13.9171 39.5078 13.9236C38.3829 14.0071 37.2579 14.0907 36.1265 14.1807Z" fill="#221F51"/>
<path d="M33.9932 11.2045C33.9932 11.0695 34.2567 10.8574 34.3981 10.8895C34.6489 10.9474 34.8931 11.0631 35.1374 11.0695C35.6774 11.0823 35.8638 11.4552 36.0631 11.8473C36.1016 11.9245 36.0566 11.9695 36.0309 12.0209C35.7931 12.5223 35.5552 13.0173 35.311 13.5187C35.266 13.6151 35.2017 13.6601 35.086 13.6537C34.9703 13.6408 34.9188 13.5958 34.8738 13.493C34.591 12.7473 34.3017 12.0016 34.0125 11.2559C34.0125 11.2431 33.9996 11.2238 33.9932 11.2045Z" fill="#221F51"/>
<path d="M35.2394 23.0712C34.5773 23.3026 33.9987 23.5404 33.4716 23.8811C33.3237 23.9776 33.2787 23.9069 33.2145 23.7847C32.9959 23.3347 32.7773 22.8848 32.5523 22.4412C32.5138 22.3576 32.4752 22.2934 32.5523 22.2098C32.6295 22.1262 32.7066 22.1262 32.8095 22.1648C33.6002 22.4541 34.3844 22.7498 35.2394 23.0712Z" fill="#221F51"/>
<path d="M32.1995 24.7168C31.8074 24.7168 31.6531 24.5304 31.711 24.2347C31.8074 23.7011 31.8974 23.1676 31.9938 22.6276C32.0067 22.5569 31.9874 22.4669 32.0903 22.4541C32.1867 22.4412 32.2124 22.5183 32.2445 22.5826C32.476 23.039 32.7074 23.4954 32.9388 23.9518C32.9709 24.0097 33.0481 24.0933 32.9709 24.1511C32.7074 24.3761 32.4438 24.6075 32.1995 24.7168Z" fill="#221F51"/>
<path d="M31.3504 24.2732C30.9133 23.9325 30.444 23.7204 29.9619 23.4632C30.4505 23.084 30.9069 22.7304 31.3697 22.3704C31.4468 22.3126 31.5111 22.2869 31.6011 22.3511C31.6911 22.4154 31.6847 22.4926 31.6654 22.5761C31.5626 23.129 31.4597 23.6689 31.3504 24.2732Z" fill="#221F51"/>
<path d="M20.3775 19.0598C20.3646 19.0727 20.3453 19.1048 20.3389 19.0984C20.3068 19.0791 20.3132 19.047 20.3325 19.0212C20.3453 19.0341 20.3646 19.0405 20.3775 19.0598Z" fill="#221F51"/>
<path d="M26.1824 15.2992C26.1631 15.3057 26.1245 15.3249 26.1181 15.3185C26.0924 15.2928 26.1181 15.2735 26.1438 15.2671C26.1631 15.2799 26.1759 15.2864 26.1824 15.2992Z" fill="#221F51"/>
<path d="M22.7114 15.0744C23.2262 15.0744 23.6435 14.6571 23.6435 14.1423C23.6435 13.6275 23.2262 13.2102 22.7114 13.2102C22.1966 13.2102 21.7793 13.6275 21.7793 14.1423C21.7793 14.6571 22.1966 15.0744 22.7114 15.0744Z" fill="white"/>
<path d="M32.09 22.7817C32.6758 22.7817 33.1506 22.3069 33.1506 21.7211C33.1506 21.1353 32.6758 20.6604 32.09 20.6604C31.5042 20.6604 31.0293 21.1353 31.0293 21.7211C31.0293 22.3069 31.5042 22.7817 32.09 22.7817Z" fill="white"/>
<path d="M44.4132 21.4961C44.999 21.4961 45.4739 21.0212 45.4739 20.4354C45.4739 19.8496 44.999 19.3748 44.4132 19.3748C43.8274 19.3748 43.3525 19.8496 43.3525 20.4354C43.3525 21.0212 43.8274 21.4961 44.4132 21.4961Z" fill="white"/>
<path d="M22.7755 15.1387C23.3613 15.1387 23.8362 14.6638 23.8362 14.078C23.8362 13.4922 23.3613 13.0173 22.7755 13.0173C22.1897 13.0173 21.7148 13.4922 21.7148 14.078C21.7148 14.6638 22.1897 15.1387 22.7755 15.1387Z" fill="white"/>
<path d="M25.5392 17.0029C26.125 17.0029 26.5998 16.528 26.5998 15.9423C26.5998 15.3565 26.125 14.8816 25.5392 14.8816C24.9534 14.8816 24.4785 15.3565 24.4785 15.9423C24.4785 16.528 24.9534 17.0029 25.5392 17.0029Z" fill="white"/>
<path d="M40.4982 19.9534C41.084 19.9534 41.5588 19.4785 41.5588 18.8927C41.5588 18.3069 41.084 17.832 40.4982 17.832C39.9124 17.832 39.4375 18.3069 39.4375 18.8927C39.4375 19.4785 39.9124 19.9534 40.4982 19.9534Z" fill="white"/>
<path d="M40.4982 15.0742C41.084 15.0742 41.5588 14.5993 41.5588 14.0135C41.5588 13.4278 41.084 12.9529 40.4982 12.9529C39.9124 12.9529 39.4375 13.4278 39.4375 14.0135C39.4375 14.5993 39.9124 15.0742 40.4982 15.0742Z" fill="white"/>
<path d="M35.0402 15.5244C35.6259 15.5244 36.1008 15.0495 36.1008 14.4637C36.1008 13.878 35.6259 13.4031 35.0402 13.4031C34.4544 13.4031 33.9795 13.878 33.9795 14.4637C33.9795 15.0495 34.4544 15.5244 35.0402 15.5244Z" fill="white"/>
<path d="M19.7609 20.7248C20.3467 20.7248 20.8215 20.25 20.8215 19.6642C20.8215 19.0784 20.3467 18.6035 19.7609 18.6035C19.1751 18.6035 18.7002 19.0784 18.7002 19.6642C18.7002 20.25 19.1751 20.7248 19.7609 20.7248Z" fill="white"/>
<path d="M36.5831 12.3809C37.1689 12.3809 37.6438 11.906 37.6438 11.3202C37.6438 10.7344 37.1689 10.2595 36.5831 10.2595C35.9973 10.2595 35.5225 10.7344 35.5225 11.3202C35.5225 11.906 35.9973 12.3809 36.5831 12.3809Z" fill="white"/>
<path d="M33.5616 11.6094C34.1474 11.6094 34.6223 11.1345 34.6223 10.5487C34.6223 9.96291 34.1474 9.48804 33.5616 9.48804C32.9759 9.48804 32.501 9.96291 32.501 10.5487C32.501 11.1345 32.9759 11.6094 33.5616 11.6094Z" fill="white"/>
<path d="M28.3614 11.9309C28.9472 11.9309 29.4221 11.456 29.4221 10.8702C29.4221 10.2844 28.9472 9.80957 28.3614 9.80957C27.7757 9.80957 27.3008 10.2844 27.3008 10.8702C27.3008 11.456 27.7757 11.9309 28.3614 11.9309Z" fill="white"/>
<path d="M31.9295 56.0805C28.6639 56.0805 25.4947 55.4441 22.512 54.1841C19.6322 52.9692 17.0416 51.2335 14.8238 49.0158C12.5996 46.798 10.8575 44.2203 9.63617 41.3533C8.37623 38.377 7.7334 35.2207 7.7334 31.968C7.7334 28.7153 8.37623 25.5525 9.63617 22.5827C10.8575 19.7092 12.5996 17.1315 14.8238 14.9202C17.048 12.7024 19.6322 10.9668 22.512 9.75181C25.4947 8.49187 28.6639 7.85547 31.9295 7.85547C35.195 7.85547 38.3642 8.49187 41.3469 9.75181C44.2268 10.9668 46.8174 12.7024 49.0351 14.9202C51.2593 17.1379 53.0014 19.7157 54.2228 22.5827C55.4827 25.559 56.1255 28.7153 56.1255 31.968C56.1255 35.2207 55.4827 38.3834 54.2228 41.3533C53.0014 44.2267 51.2593 46.8044 49.0351 49.0158C46.8109 51.2335 44.2268 52.9692 41.3469 54.1841C38.3642 55.4376 35.195 56.0805 31.9295 56.0805ZM31.9295 8.16403C18.7643 8.16403 8.05481 18.8414 8.05481 31.9615C8.05481 45.0817 18.7643 55.759 31.9295 55.759C45.0946 55.759 55.8041 45.0817 55.8041 31.9615C55.7977 18.8414 45.0882 8.16403 31.9295 8.16403Z" fill="white"/>
<path d="M31.9614 64C27.6481 64 23.4632 63.1515 19.5227 61.4865C15.7172 59.873 12.2973 57.5653 9.36601 54.6276C6.42829 51.6898 4.12696 48.2636 2.51346 44.458C0.848536 40.5111 0 36.3198 0 32C0 27.6802 0.842108 23.489 2.51346 19.542C4.12053 15.73 6.42829 12.3102 9.36601 9.37244C12.3037 6.43471 15.7172 4.12696 19.5227 2.51346C23.4632 0.842108 27.6481 0 31.9614 0C36.2748 0 40.4596 0.848536 44.4002 2.51346C48.2057 4.12696 51.6256 6.43471 54.5569 9.37244C57.4946 12.3102 59.7959 15.7364 61.4094 19.542C63.0743 23.489 63.9229 27.6802 63.9229 32C63.9229 36.3198 63.0808 40.5111 61.4094 44.458C59.8023 48.27 57.4946 51.6898 54.5569 54.6276C51.6191 57.5653 48.2057 59.873 44.4002 61.4865C40.4596 63.1515 36.2748 64 31.9614 64ZM31.9614 0.417838C14.5729 0.417838 0.424267 14.5858 0.424267 31.9936C0.424267 49.4078 14.5729 63.5693 31.9614 63.5693C49.3499 63.5693 63.4986 49.4014 63.4986 31.9936C63.4986 14.5793 49.3499 0.417838 31.9614 0.417838Z" fill="white"/>
</svg>
