<svg width="18" height="19" viewBox="0 0 18 19" fill="none" xmlns="http://www.w3.org/2000/svg">
<path d="M17.622 16.683C17.7418 16.8091 17.8369 16.9589 17.9017 17.1238C17.9666 17.2888 18 17.4656 18 17.6442C18 17.8229 17.9666 17.9997 17.9017 18.1647C17.8369 18.3296 17.7418 18.4794 17.622 18.6055C17.3794 18.8583 17.0524 19 16.7116 19C16.3708 19 16.0437 18.8583 15.8012 18.6055L9 11.4243L2.19881 18.6055C1.95628 18.8583 1.6292 19 1.28842 19C0.947634 19 0.620563 18.8583 0.378024 18.6055C0.258204 18.4794 0.163132 18.3296 0.0982625 18.1647C0.0333926 17.9997 0 17.8229 0 17.6442C0 17.4656 0.0333926 17.2888 0.0982625 17.1238C0.163132 16.9589 0.258204 16.8091 0.378024 16.683L7.17921 9.50183L0.378024 2.32068C0.136573 2.06574 0.000926238 1.71996 0.000926238 1.35942C0.000926238 1.1809 0.0342284 1.00413 0.0989309 0.839194C0.163634 0.674262 0.25847 0.5244 0.378024 0.398166C0.497579 0.271932 0.639511 0.171797 0.795717 0.10348C0.951923 0.0351627 1.11934 0 1.28842 0C1.62988 0 1.95736 0.143225 2.19881 0.398166L9 7.57932L15.8012 0.398166C16.0426 0.143225 16.3701 0 16.7116 0C17.053 0 17.3805 0.143225 17.622 0.398166C17.8634 0.653107 17.9991 0.998882 17.9991 1.35942C17.9991 1.71996 17.8634 2.06574 17.622 2.32068L10.8208 9.50183L17.622 16.683Z" fill="white"/>
</svg>
