<svg width="32" height="36" viewBox="0 0 32 36" fill="none" xmlns="http://www.w3.org/2000/svg">
<path d="M31.2899 29.0659V30.7684H0.751953V29.0659L4.14506 25.661V15.4462C4.14506 10.1686 7.58906 5.52083 12.6278 4.02266V3.52895C12.6278 2.62591 12.9853 1.75985 13.6216 1.1213C14.258 0.482756 15.121 0.124023 16.0209 0.124023C16.9208 0.124023 17.7839 0.482756 18.4202 1.1213C19.0565 1.75985 19.414 2.62591 19.414 3.52895V4.02266C24.4528 5.52083 27.8968 10.1686 27.8968 15.4462V25.661L31.2899 29.0659ZM19.414 32.4708C19.414 33.3739 19.0565 34.2399 18.4202 34.8785C17.7839 35.517 16.9208 35.8757 16.0209 35.8757C15.121 35.8757 14.258 35.517 13.6216 34.8785C12.9853 34.2399 12.6278 33.3739 12.6278 32.4708" fill="white"/>
</svg>
