<svg width="44" height="44" viewBox="0 0 44 44" fill="none" xmlns="http://www.w3.org/2000/svg">
<g filter="url(#filter0_d_1_243)">
<path d="M22 34.96C17.5 34.96 13.522 32.656 11.2 29.2C11.254 25.6 18.4 23.62 22 23.62C25.6 23.62 32.746 25.6 32.8 29.2C31.61 30.9719 30.0025 32.4241 28.1192 33.4285C26.2359 34.433 24.1344 34.9589 22 34.96ZM22 9.4C23.4322 9.4 24.8057 9.96893 25.8184 10.9816C26.8311 11.9943 27.4 13.3678 27.4 14.8C27.4 16.2322 26.8311 17.6057 25.8184 18.6184C24.8057 19.6311 23.4322 20.2 22 20.2C20.5678 20.2 19.1943 19.6311 18.1816 18.6184C17.1689 17.6057 16.6 16.2322 16.6 14.8C16.6 13.3678 17.1689 11.9943 18.1816 10.9816C19.1943 9.96893 20.5678 9.4 22 9.4ZM22 4C19.6362 4 17.2956 4.46558 15.1117 5.37017C12.9278 6.27475 10.9435 7.60062 9.27208 9.27208C5.89642 12.6477 4 17.2261 4 22C4 26.7739 5.89642 31.3523 9.27208 34.7279C10.9435 36.3994 12.9278 37.7252 15.1117 38.6298C17.2956 39.5344 19.6362 40 22 40C26.7739 40 31.3523 38.1036 34.7279 34.7279C38.1036 31.3523 40 26.7739 40 22C40 12.046 31.9 4 22 4Z" fill="white"/>
</g>
<defs>
<filter id="filter0_d_1_243" x="0" y="0" width="44" height="44" filterUnits="userSpaceOnUse" color-interpolation-filters="sRGB">
<feFlood flood-opacity="0" result="BackgroundImageFix"/>
<feColorMatrix in="SourceAlpha" type="matrix" values="0 0 0 0 0 0 0 0 0 0 0 0 0 0 0 0 0 0 127 0" result="hardAlpha"/>
<feOffset/>
<feGaussianBlur stdDeviation="2"/>
<feComposite in2="hardAlpha" operator="out"/>
<feColorMatrix type="matrix" values="0 0 0 0 0 0 0 0 0 0 0 0 0 0 0 0 0 0 0.54 0"/>
<feBlend mode="normal" in2="BackgroundImageFix" result="effect1_dropShadow_1_243"/>
<feBlend mode="normal" in="SourceGraphic" in2="effect1_dropShadow_1_243" result="shape"/>
</filter>
</defs>
</svg>
