<svg width="25" height="25" viewBox="0 0 25 25" fill="none" xmlns="http://www.w3.org/2000/svg">
<path d="M2.77778 25.0002C2.01389 25.0002 1.35972 24.7285 0.815278 24.185C0.271759 23.6405 0 22.9864 0 22.2225V16.6669H2.77778V22.2225H22.2222V2.77802H2.77778V8.33358H0V2.77802C0 2.01413 0.271759 1.35997 0.815278 0.815522C1.35972 0.272003 2.01389 0.000244141 2.77778 0.000244141H22.2222C22.9861 0.000244141 23.6403 0.272003 24.1847 0.815522C24.7282 1.35997 25 2.01413 25 2.77802V22.2225C25 22.9864 24.7282 23.6405 24.1847 24.185C23.6403 24.7285 22.9861 25.0002 22.2222 25.0002H2.77778ZM10.4167 19.4447L8.47222 17.4308L12.0139 13.8891H0V11.1114H12.0139L8.47222 7.56969L10.4167 5.5558L17.3611 12.5002L10.4167 19.4447Z" fill="white"/>
</svg>
