<svg width="29" height="25" viewBox="0 0 29 25" fill="none" xmlns="http://www.w3.org/2000/svg">
<path d="M16.178 0C23.2615 0 29 5.625 29 12.5C29 19.375 23.2615 25 16.178 25C11.682 25 7.74956 22.725 5.45671 19.2875L7.48057 17.725C9.28666 20.5875 12.5018 22.5 16.1908 22.5C18.9086 22.5 21.515 21.4464 23.4368 19.5711C25.3585 17.6957 26.4382 15.1522 26.4382 12.5C26.4382 9.84784 25.3585 7.3043 23.4368 5.42893C21.515 3.55357 18.9086 2.5 16.1908 2.5C10.9647 2.5 6.66078 6.325 6.03313 11.25H9.56846L4.77783 15.9125L0 11.25H3.44567C4.08613 4.9375 9.54285 0 16.178 0ZM19.9695 10.3C20.61 10.3125 21.1352 10.8125 21.1352 11.45V17.2125C21.1352 17.8375 20.61 18.3625 19.9567 18.3625H12.8732C12.22 18.3625 11.6948 17.8375 11.6948 17.2125V11.45C11.6948 10.8125 12.22 10.3125 12.8604 10.3V9.0375C12.8604 7.125 14.4616 5.575 16.4086 5.575C18.3684 5.575 19.9695 7.125 19.9695 9.0375V10.3ZM16.4086 7.325C15.4479 7.325 14.6537 8.0875 14.6537 9.0375V10.3H18.1762V9.0375C18.1762 8.0875 17.3821 7.325 16.4086 7.325Z" fill="white"/>
</svg>
