<svg width="155" height="154" viewBox="0 0 155 154" fill="none" xmlns="http://www.w3.org/2000/svg">
<g filter="url(#filter0_d_1_13539)">
<path d="M77.835 15C61.9256 15 46.6538 21.3253 35.4131 32.5735C24.1609 43.8261 17.8381 59.0868 17.835 75.0001C17.835 90.9067 24.1631 106.179 35.4131 117.427C46.6538 128.675 61.9256 135 77.835 135C93.7444 135 109.016 128.675 120.257 117.427C131.507 106.179 137.835 90.9067 137.835 75.0001C137.835 59.0935 131.507 43.8216 120.257 32.5735C109.016 21.3253 93.7444 15 77.835 15Z" fill="white"/>
</g>
<path d="M75.7245 47.546C74.4364 45.1833 71.7447 43.2722 68.4388 43.6102C65.4812 43.9118 61.0904 44.9211 58.0965 48.2311C55.0234 51.6304 53.8773 56.9318 56.2371 64.8747C58.757 73.3481 62.4989 81.7018 67.1507 88.4414C71.7679 95.1325 77.455 100.488 83.9795 102.542C89.7492 104.358 94.1616 103.6 97.38 101.605C100.485 99.6822 102.189 96.789 103.07 94.7855C104.058 92.5425 103.407 90.207 102.119 88.4854L97.3685 82.1443C96.3189 80.7432 94.8079 79.6874 93.057 79.1318C91.306 78.5763 89.4072 78.5501 87.6388 79.0572L81.0731 80.941C80.8657 81.0062 80.642 81.0141 80.4298 80.9637C80.2176 80.9134 80.0261 80.8069 79.8792 80.6576C76.9563 77.5159 73.6818 73.1344 72.7917 68.7C72.7635 68.5815 72.7829 68.4578 72.8462 68.3514C73.8122 66.8616 75.4734 65.1733 77.1281 63.6956C79.9304 61.192 80.9922 57.2122 79.1427 53.8204L75.7245 47.546Z" fill="#211E51"/>
<defs>
<filter id="filter0_d_1_13539" x="0.834961" y="0" width="154" height="154" filterUnits="userSpaceOnUse" color-interpolation-filters="sRGB">
<feFlood flood-opacity="0" result="BackgroundImageFix"/>
<feColorMatrix in="SourceAlpha" type="matrix" values="0 0 0 0 0 0 0 0 0 0 0 0 0 0 0 0 0 0 127 0" result="hardAlpha"/>
<feOffset dy="2"/>
<feGaussianBlur stdDeviation="8.5"/>
<feComposite in2="hardAlpha" operator="out"/>
<feColorMatrix type="matrix" values="0 0 0 0 0 0 0 0 0 0 0 0 0 0 0 0 0 0 0.54 0"/>
<feBlend mode="normal" in2="BackgroundImageFix" result="effect1_dropShadow_1_13539"/>
<feBlend mode="normal" in="SourceGraphic" in2="effect1_dropShadow_1_13539" result="shape"/>
</filter>
</defs>
</svg>
