<svg width="15" height="15" viewBox="0 0 15 15" fill="none" xmlns="http://www.w3.org/2000/svg">
<path d="M14.685 13.1708C14.7848 13.2703 14.8641 13.3886 14.9181 13.5188C14.9722 13.649 15 13.7887 15 13.9297C15 14.0707 14.9722 14.2103 14.9181 14.3405C14.8641 14.4707 14.7848 14.589 14.685 14.6886C14.4829 14.8881 14.2103 15 13.9263 15C13.6423 15 13.3698 14.8881 13.1677 14.6886L7.5 9.01922L1.83235 14.6886C1.63023 14.8881 1.35767 15 1.07368 15C0.789695 15 0.517136 14.8881 0.31502 14.6886C0.21517 14.589 0.135944 14.4707 0.0818854 14.3405C0.0278272 14.2103 0 14.0707 0 13.9297C0 13.7887 0.0278272 13.649 0.0818854 13.5188C0.135944 13.3886 0.21517 13.2703 0.31502 13.1708L5.98268 7.50145L0.31502 1.83212C0.11381 1.63085 0.000771865 1.35787 0.000771865 1.07323C0.000771865 0.93229 0.0285236 0.792732 0.0824425 0.662522C0.136361 0.532312 0.215391 0.414 0.31502 0.314341C0.414649 0.214683 0.532926 0.13563 0.663098 0.0816948C0.793269 0.02776 0.932786 0 1.07368 0C1.35824 0 1.63114 0.113072 1.83235 0.314341L7.5 5.98367L13.1677 0.314341C13.3689 0.113072 13.6418 0 13.9263 0C14.2109 0 14.4838 0.113072 14.685 0.314341C14.8862 0.515611 14.9992 0.788591 14.9992 1.07323C14.9992 1.35787 14.8862 1.63085 14.685 1.83212L9.01733 7.50145L14.685 13.1708Z" fill="white"/>
</svg>
