<svg width="140" height="140" viewBox="0 0 140 140" fill="none" xmlns="http://www.w3.org/2000/svg">
<g filter="url(#filter0_d_1_26629)">
<path d="M70 15C55.9467 15 42.4566 20.5874 32.5273 30.5232C22.5879 40.463 17.0028 53.9432 17 68C17 82.0508 22.5898 95.5409 32.5273 105.477C42.4566 115.413 55.9467 121 70 121C84.0533 121 97.5434 115.413 107.473 105.477C117.41 95.5409 123 82.0508 123 68C123 53.9492 117.41 40.459 107.473 30.5232C97.5434 20.5874 84.0533 15 70 15Z" fill="white"/>
</g>
<path fill-rule="evenodd" clip-rule="evenodd" d="M67.8564 95.4934L68.739 94.2906L67.8564 95.4934ZM69.6216 95.4934L69.6277 95.4905L69.6431 95.4801L69.689 95.4463L69.8699 95.3211C70.0231 95.2122 70.2468 95.0532 70.5287 94.8441C71.0926 94.429 71.8925 93.818 72.8471 93.0333C75.3531 90.9753 77.6963 88.7411 79.8575 86.3492C84.9264 80.7164 90.1914 72.6764 90.1914 63.4851C90.1914 57.9936 87.9328 52.723 83.912 48.8362C81.9246 46.9126 79.5609 45.3855 76.9569 44.343C74.3529 43.3005 71.56 42.7631 68.739 42.7617C65.9181 42.7629 63.1253 43.3001 60.5213 44.3423C57.9173 45.3846 55.5535 46.9114 53.566 48.8348C49.5413 52.7304 47.2839 57.9976 47.2866 63.4866C47.2866 72.6764 52.5516 80.7164 57.6205 86.3492C59.7817 88.7411 62.1249 90.9753 64.6309 93.0333C65.587 93.818 66.3854 94.429 66.9493 94.8441C67.2258 95.0489 67.5053 95.2502 67.7874 95.4478L67.8365 95.4801L67.8503 95.4905L67.8564 95.4934C68.385 95.8512 69.093 95.8512 69.6216 95.4934ZM68.739 94.2906L69.6216 95.4934L68.739 94.2906ZM76.4006 63.3733C76.4006 65.3256 75.5934 67.198 74.1565 68.5785C72.7197 69.959 70.771 70.7345 68.739 70.7345C66.707 70.7345 64.7583 69.959 63.3215 68.5785C61.8846 67.198 61.0774 65.3256 61.0774 63.3733C61.0774 61.4209 61.8846 59.5486 63.3215 58.1681C64.7583 56.7876 66.707 56.012 68.739 56.012C70.771 56.012 72.7197 56.7876 74.1565 58.1681C75.5934 59.5486 76.4006 61.4209 76.4006 63.3733Z" fill="#221F51"/>
<defs>
<filter id="filter0_d_1_26629" x="0" y="0" width="140" height="140" filterUnits="userSpaceOnUse" color-interpolation-filters="sRGB">
<feFlood flood-opacity="0" result="BackgroundImageFix"/>
<feColorMatrix in="SourceAlpha" type="matrix" values="0 0 0 0 0 0 0 0 0 0 0 0 0 0 0 0 0 0 127 0" result="hardAlpha"/>
<feOffset dy="2"/>
<feGaussianBlur stdDeviation="8.5"/>
<feComposite in2="hardAlpha" operator="out"/>
<feColorMatrix type="matrix" values="0 0 0 0 0 0 0 0 0 0 0 0 0 0 0 0 0 0 0.54 0"/>
<feBlend mode="normal" in2="BackgroundImageFix" result="effect1_dropShadow_1_26629"/>
<feBlend mode="normal" in="SourceGraphic" in2="effect1_dropShadow_1_26629" result="shape"/>
</filter>
</defs>
</svg>
