<svg width="140" height="140" viewBox="0 0 140 140" fill="none" xmlns="http://www.w3.org/2000/svg">
<g filter="url(#filter0_d_1_26640)">
<path d="M70.0001 15C55.9468 15 42.4566 20.5874 32.5274 30.5232C22.5879 40.463 17.0028 53.9433 17 68.0001C17 82.0509 22.5899 95.5411 32.5274 105.477C42.4566 115.413 55.9468 121 70.0001 121C84.0534 121 97.5436 115.413 107.473 105.477C117.41 95.5411 123 82.0509 123 68.0001C123 53.9493 117.41 40.4591 107.473 30.5232C97.5436 20.5874 84.0534 15 70.0001 15Z" fill="white"/>
</g>
<path d="M68.1355 43.7488C66.9978 41.6617 64.6201 39.9736 61.6998 40.2721C59.0874 40.5386 55.2087 41.4301 52.5642 44.3539C49.8496 47.3567 48.8372 52.0396 50.9217 59.0558C53.1476 66.5407 56.453 73.9197 60.5621 79.8731C64.6405 85.7835 69.6642 90.5146 75.4274 92.3286C80.5241 93.9324 84.4216 93.263 87.2646 91.5013C90.0069 89.8024 91.5123 87.2468 92.2912 85.477C93.1635 83.4957 92.5888 81.4327 91.451 79.9119L87.2544 74.3106C86.3273 73.0729 84.9926 72.1404 83.4459 71.6496C81.8992 71.1589 80.2219 71.1357 78.6599 71.5837L72.8602 73.2477C72.677 73.3053 72.4794 73.3123 72.2919 73.2678C72.1044 73.2233 71.9353 73.1293 71.8056 72.9974C69.2237 70.2222 66.3311 66.3519 65.5449 62.4348C65.52 62.3302 65.5371 62.2208 65.593 62.1269C66.4464 60.8109 67.9138 59.3196 69.3754 58.0143C71.8508 55.8027 72.7887 52.2872 71.155 49.2912L68.1355 43.7488Z" fill="#211E51"/>
<defs>
<filter id="filter0_d_1_26640" x="0" y="0" width="140" height="140" filterUnits="userSpaceOnUse" color-interpolation-filters="sRGB">
<feFlood flood-opacity="0" result="BackgroundImageFix"/>
<feColorMatrix in="SourceAlpha" type="matrix" values="0 0 0 0 0 0 0 0 0 0 0 0 0 0 0 0 0 0 127 0" result="hardAlpha"/>
<feOffset dy="2"/>
<feGaussianBlur stdDeviation="8.5"/>
<feComposite in2="hardAlpha" operator="out"/>
<feColorMatrix type="matrix" values="0 0 0 0 0 0 0 0 0 0 0 0 0 0 0 0 0 0 0.54 0"/>
<feBlend mode="normal" in2="BackgroundImageFix" result="effect1_dropShadow_1_26640"/>
<feBlend mode="normal" in="SourceGraphic" in2="effect1_dropShadow_1_26640" result="shape"/>
</filter>
</defs>
</svg>
