<svg width="140" height="140" viewBox="0 0 140 140" fill="none" xmlns="http://www.w3.org/2000/svg">
<g filter="url(#filter0_d_1_26648)">
<path d="M70.0001 15C55.9468 15 42.4566 20.5874 32.5274 30.5232C22.5879 40.463 17.0028 53.9433 17 68.0001C17 82.0509 22.5899 95.5411 32.5274 105.477C42.4566 115.413 55.9468 121 70.0001 121C84.0534 121 97.5435 115.413 107.473 105.477C117.41 95.5411 123 82.0509 123 68.0001C123 53.9493 117.41 40.4591 107.473 30.5232C97.5435 20.5874 84.0534 15 70.0001 15Z" fill="white"/>
</g>
<path d="M40.9907 67.4412C56.4436 60.7102 66.7455 56.2723 71.8964 54.1282C86.6205 48.0059 89.6763 46.9426 91.672 46.9066C92.111 46.8995 93.0881 47.008 93.7258 47.5235C94.2558 47.9583 94.4049 48.5463 94.4794 48.9591C94.5456 49.3715 94.6367 50.3114 94.5622 51.0451C93.7672 59.4258 90.3139 79.7629 88.5583 89.1497C87.8213 93.1214 86.3555 94.453 84.9394 94.583C81.8588 94.8663 79.5234 92.5492 76.5422 90.5956C71.8798 87.5373 69.2464 85.6343 64.7165 82.6506C59.4828 79.2022 62.8781 77.3067 65.8594 74.2095C66.6378 73.3987 80.2025 61.0638 80.4592 59.945C80.4923 59.805 80.5255 59.2833 80.2108 59.0084C79.9044 58.7326 79.4489 58.827 79.1177 58.9016C78.6456 59.0076 71.2008 63.9333 56.7583 73.6778C54.6465 75.1304 52.7336 75.8384 51.0111 75.8011C49.1229 75.7606 45.4792 74.7312 42.7712 73.8517C39.4587 72.7727 36.817 72.2021 37.0488 70.3695C37.1648 69.4155 38.4815 68.4391 40.9907 67.4412Z" fill="#211E51"/>
<defs>
<filter id="filter0_d_1_26648" x="0" y="0" width="140" height="140" filterUnits="userSpaceOnUse" color-interpolation-filters="sRGB">
<feFlood flood-opacity="0" result="BackgroundImageFix"/>
<feColorMatrix in="SourceAlpha" type="matrix" values="0 0 0 0 0 0 0 0 0 0 0 0 0 0 0 0 0 0 127 0" result="hardAlpha"/>
<feOffset dy="2"/>
<feGaussianBlur stdDeviation="8.5"/>
<feComposite in2="hardAlpha" operator="out"/>
<feColorMatrix type="matrix" values="0 0 0 0 0 0 0 0 0 0 0 0 0 0 0 0 0 0 0.54 0"/>
<feBlend mode="normal" in2="BackgroundImageFix" result="effect1_dropShadow_1_26648"/>
<feBlend mode="normal" in="SourceGraphic" in2="effect1_dropShadow_1_26648" result="shape"/>
</filter>
</defs>
</svg>
