<svg width="24" height="20" viewBox="0 0 24 20" fill="none" xmlns="http://www.w3.org/2000/svg">
<path d="M21.2733 19.1972L14.1096 13.2537C13.47 13.6782 12.7345 14.0143 11.903 14.262C11.0715 14.5096 10.1867 14.6335 9.24857 14.6335C6.92464 14.6335 4.95804 13.9659 3.34878 12.6307C1.73865 11.2948 0.933594 9.66281 0.933594 7.73469C0.933594 5.80658 1.73865 4.17458 3.34878 2.8387C4.95804 1.50352 6.92464 0.835938 9.24857 0.835938C11.5725 0.835938 13.5395 1.50352 15.1496 2.8387C16.7589 4.17458 17.5636 5.80658 17.5636 7.73469C17.5636 8.51302 17.4143 9.24711 17.1158 9.93699C16.8173 10.6269 16.4122 11.2371 15.9006 11.7678L23.0962 17.7379C23.3307 17.9325 23.448 18.1713 23.448 18.4543C23.448 18.7373 23.3201 18.985 23.0642 19.1972C22.8297 19.3918 22.5312 19.4891 22.1688 19.4891C21.8063 19.4891 21.5078 19.3918 21.2733 19.1972ZM9.24857 12.5108C10.8476 12.5108 12.207 12.0466 13.3267 11.1183C14.4456 10.1892 15.0051 9.06138 15.0051 7.73469C15.0051 6.40801 14.4456 5.28015 13.3267 4.35112C12.207 3.42279 10.8476 2.95863 9.24857 2.95863C7.64954 2.95863 6.29015 3.42279 5.17039 4.35112C4.0515 5.28015 3.49205 6.40801 3.49205 7.73469C3.49205 9.06138 4.0515 10.1892 5.17039 11.1183C6.29015 12.0466 7.64954 12.5108 9.24857 12.5108Z" fill="white"/>
</svg>
