<svg width="28" height="28" viewBox="0 0 28 28" fill="none" xmlns="http://www.w3.org/2000/svg">
<path d="M24.85 8.84329H18.34C17.885 8.84329 17.5233 8.48163 17.5233 8.02663C17.5233 7.57163 17.885 7.20996 18.34 7.20996H24.85C25.305 7.20996 25.6666 7.57163 25.6666 8.02663C25.6666 8.48163 25.305 8.84329 24.85 8.84329Z" fill="white"/>
<path d="M7.49004 8.84329H3.15004C2.69504 8.84329 2.33337 8.48163 2.33337 8.02663C2.33337 7.57163 2.69504 7.20996 3.15004 7.20996H7.49004C7.94504 7.20996 8.30671 7.57163 8.30671 8.02663C8.30671 8.48163 7.93337 8.84329 7.49004 8.84329Z" fill="white"/>
<path d="M11.83 12.6349C14.3751 12.6349 16.4383 10.5717 16.4383 8.02655C16.4383 5.48143 14.3751 3.41821 11.83 3.41821C9.2849 3.41821 7.22168 5.48143 7.22168 8.02655C7.22168 10.5717 9.2849 12.6349 11.83 12.6349Z" fill="white"/>
<path d="M24.85 20.7784H20.51C20.055 20.7784 19.6934 20.4167 19.6934 19.9617C19.6934 19.5067 20.055 19.145 20.51 19.145H24.85C25.305 19.145 25.6667 19.5067 25.6667 19.9617C25.6667 20.4167 25.305 20.7784 24.85 20.7784Z" fill="white"/>
<path d="M9.66004 20.7784H3.15004C2.69504 20.7784 2.33337 20.4167 2.33337 19.9617C2.33337 19.5067 2.69504 19.145 3.15004 19.145H9.66004C10.115 19.145 10.4767 19.5067 10.4767 19.9617C10.4767 20.4167 10.1034 20.7784 9.66004 20.7784Z" fill="white"/>
<path d="M16.17 24.5817C18.7151 24.5817 20.7783 22.5184 20.7783 19.9733C20.7783 17.4282 18.7151 15.365 16.17 15.365C13.6249 15.365 11.5616 17.4282 11.5616 19.9733C11.5616 22.5184 13.6249 24.5817 16.17 24.5817Z" fill="white"/>
</svg>
