<svg width="205" height="64" viewBox="0 0 205 64" fill="none" xmlns="http://www.w3.org/2000/svg">
<path d="M77.8 9.8H83.88V6.6H74.28V29H83.88V25.8H77.8V19.24H82.632V16.04H77.8V9.8ZM88.6853 6.6H85.1333L88.5893 29H93.8373L97.2933 6.6H94.0613L91.3733 24.872L88.6853 6.6ZM109.88 29C109.528 28.168 109.496 27.368 109.496 26.28V22.824C109.496 20.488 108.92 18.792 107.16 18.056C108.728 17.32 109.464 15.816 109.464 13.512V11.752C109.464 8.296 107.896 6.6 104.248 6.6H98.9363V29H102.456V19.88H103.672C105.272 19.88 105.976 20.648 105.976 22.728V26.248C105.976 28.072 106.104 28.424 106.296 29H109.88ZM104.152 9.8C105.4 9.8 105.944 10.504 105.944 12.104V14.312C105.944 16.104 105.144 16.68 103.832 16.68H102.456V9.8H104.152ZM125.26 6.6L122.54 14.856L119.884 6.6H116.236L119.916 17.48L115.98 29H119.276L122.188 20.136L125.068 29H128.78L124.844 17.48L128.524 6.6H125.26ZM138.338 6.6H133.186L129.602 29H132.834L133.442 24.936H137.762L138.37 29H141.922L138.338 6.6ZM135.586 10.568L137.282 21.896H133.89L135.586 10.568ZM143.561 29H152.873V25.8H147.081V6.6H143.561V29ZM154.117 23.624C154.117 27.208 156.005 29.256 159.461 29.256C160.389 29.256 161.221 29.096 161.925 28.84C162.405 29.8 163.397 30.376 164.965 30.376H165.445V27.24H165.125C164.549 27.24 164.293 27.176 164.133 26.76C164.581 25.928 164.805 24.872 164.805 23.624V11.976C164.805 8.392 162.917 6.344 159.461 6.344C156.005 6.344 154.117 8.392 154.117 11.976V23.624ZM157.637 11.752C157.637 10.152 158.341 9.544 159.461 9.544C160.581 9.544 161.285 10.152 161.285 11.752V23.848C161.285 25.448 160.581 26.056 159.461 26.056C158.341 26.056 157.637 25.448 157.637 23.848V11.752ZM174.901 6.6H169.749L166.165 29H169.397L170.005 24.936H174.325L174.933 29H178.485L174.901 6.6ZM172.149 10.568L173.845 21.896H170.453L172.149 10.568ZM191.068 29C190.716 28.168 190.684 27.368 190.684 26.28V22.824C190.684 20.488 190.108 18.792 188.348 18.056C189.916 17.32 190.652 15.816 190.652 13.512V11.752C190.652 8.296 189.084 6.6 185.436 6.6H180.124V29H183.644V19.88H184.86C186.46 19.88 187.164 20.648 187.164 22.728V26.248C187.164 28.072 187.292 28.424 187.484 29H191.068ZM185.34 9.8C186.588 9.8 187.132 10.504 187.132 12.104V14.312C187.132 16.104 186.332 16.68 185.02 16.68H183.644V9.8H185.34ZM196.231 11.752C196.231 10.152 196.935 9.544 198.055 9.544C199.175 9.544 199.879 10.152 199.879 11.752V23.848C199.879 25.448 199.175 26.056 198.055 26.056C196.935 26.056 196.231 25.448 196.231 23.848V11.752ZM192.711 23.624C192.711 27.208 194.599 29.256 198.055 29.256C201.511 29.256 203.399 27.208 203.399 23.624V11.976C203.399 8.392 201.511 6.344 198.055 6.344C194.599 6.344 192.711 8.392 192.711 11.976V23.624Z" fill="white"/>
<path d="M74.141 32.18V49.5558C74.141 53.207 75.9666 55.2934 79.4874 55.2934C83.0082 55.2934 84.8338 53.207 84.8338 49.5558V32.18H81.4434V49.784C81.4434 51.414 80.7262 52.0008 79.5852 52.0008C78.4442 52.0008 77.727 51.414 77.727 49.784V32.18H74.141ZM94.9541 55H98.6379V32.18H95.4431V45.8394L91.7593 32.18H87.2605V55H90.4879V38.4718L94.9541 55ZM101.205 55H104.791V32.18H101.205V55ZM110.087 32.18H106.468L109.989 55H115.335L118.856 32.18H115.563L112.825 50.7946L110.087 32.18ZM124.116 35.44H130.31V32.18H120.53V55H130.31V51.74H124.116V45.057H129.038V41.797H124.116V35.44ZM143.681 55C143.323 54.1524 143.29 53.3374 143.29 52.229V48.7082C143.29 46.3284 142.703 44.6006 140.91 43.8508C142.508 43.101 143.257 41.5688 143.257 39.2216V37.4286C143.257 33.9078 141.66 32.18 137.944 32.18H132.532V55H136.118V45.709H137.357C138.987 45.709 139.704 46.4914 139.704 48.6104V52.1964C139.704 54.0546 139.834 54.4132 140.03 55H143.681ZM137.846 35.44C139.117 35.44 139.671 36.1572 139.671 37.7872V40.0366C139.671 41.8622 138.856 42.449 137.52 42.449H136.118V35.44H137.846ZM145.192 37.6568C145.192 44.1768 152.201 45.057 152.201 49.7514C152.201 51.3814 151.484 51.9682 150.343 51.9682C149.202 51.9682 148.485 51.3814 148.485 49.7514V48.1214H145.094V49.5232C145.094 53.1744 146.92 55.2608 150.441 55.2608C153.961 55.2608 155.787 53.1744 155.787 49.5232C155.787 43.0032 148.778 42.123 148.778 37.4286C148.778 35.7986 149.43 35.1792 150.571 35.1792C151.712 35.1792 152.364 35.7986 152.364 37.4286V38.374H155.754V37.6568C155.754 34.0056 153.961 31.9192 150.473 31.9192C146.985 31.9192 145.192 34.0056 145.192 37.6568ZM157.841 55H161.427V32.18H157.841V55ZM163.006 35.44H166.755V55H170.341V35.44H174.09V32.18H163.006V35.44ZM179.256 35.44H185.45V32.18H175.67V55H185.45V51.74H179.256V45.057H184.178V41.797H179.256V35.44ZM186.629 35.44H190.378V55H193.964V35.44H197.713V32.18H186.629V35.44ZM199.292 55H202.878V32.18H199.292V55Z" fill="white"/>
<g clip-path="url(#clip0_408_3054)">
<path d="M31.9292 63.7814C49.4319 63.7814 63.6207 49.5639 63.6207 32.0257C63.6207 14.4875 49.4319 0.269989 31.9292 0.269989C14.4265 0.269989 0.237793 14.4875 0.237793 32.0257C0.237793 49.5639 14.4265 63.7814 31.9292 63.7814Z" fill="#221F51"/>
<path d="M31.9165 63.235C14.6437 63.2286 0.655762 49.2342 0.655762 31.9614C0.655762 14.6951 14.663 0.687818 31.9358 0.694247C49.215 0.700675 63.2094 14.7208 63.1965 32.0064C63.1837 49.2599 49.1765 63.2415 31.9165 63.235ZM12.5738 48.3343C12.4324 48.7778 12.291 49.2085 12.1495 49.6456C12.0081 50.0892 11.8538 50.5327 11.7188 50.9827C11.6674 51.1627 11.5581 51.1499 11.4296 51.137C10.9924 51.0856 10.5553 51.0341 10.1182 50.9892C9.43037 50.912 8.74897 50.8413 8.06115 50.7642C8.04829 50.7963 8.03543 50.8349 8.02257 50.867C14.5537 58.6324 22.8398 62.6951 33.0543 62.3415C42.6196 62.0072 50.2757 57.771 56.1833 50.3013C54.9876 50.3913 53.8048 50.507 52.6349 50.6613C52.3585 50.6999 52.2813 50.5777 52.217 50.3656C51.9792 49.6071 51.7349 48.8485 51.4842 48.0771C46.3544 53.9847 39.939 57.2053 32.0965 57.2632C24.2604 57.3146 17.7936 54.1904 12.5738 48.3343ZM7.47617 31.9357C7.41189 45.3451 18.3271 56.376 31.8201 56.4339C45.3388 56.4918 56.389 45.5701 56.4018 32C56.4211 18.4685 45.4673 7.50823 31.9422 7.5018C18.3657 7.48895 7.4376 18.5456 7.47617 31.9357ZM15.0358 11.9887C15.0551 12.2009 15.0037 12.413 15.2351 12.5094C15.4601 12.6059 15.6208 12.4773 15.7815 12.3423C15.9165 12.2266 16.0579 12.1109 16.1994 11.9952C16.3215 11.8988 16.2636 11.8216 16.1994 11.7252C16.1158 11.603 16.0451 11.6609 15.9679 11.7252C15.8522 11.8216 15.7429 11.9245 15.6208 12.008C15.4472 12.1173 15.3637 12.053 15.3637 11.8538C15.3637 11.7509 15.4022 11.6738 15.4601 11.5902C15.7944 11.1081 15.8458 10.5938 15.6401 10.041C15.3894 9.35315 14.6309 8.9096 13.8916 9.04459C13.2102 9.16673 12.7281 9.79027 12.7217 10.5231C12.7345 11.4359 13.6473 12.5609 15.0358 11.9887ZM39.6626 4.37766C39.7076 4.50622 39.7462 4.58336 39.759 4.6605C39.9133 5.39975 40.0933 6.13901 40.1961 6.88469C40.254 7.28967 40.4597 7.44395 40.8133 7.51466C40.9547 7.5468 41.0061 7.50823 41.0447 7.38609C41.3211 6.55042 41.5975 5.71474 41.8739 4.87906C41.9253 4.72478 41.9253 4.60264 41.7132 4.55122C41.5139 4.49979 41.4432 4.53836 41.4175 4.74407C41.4047 4.8662 41.3404 4.98192 41.3018 5.10405C41.1025 5.71474 40.9033 6.319 40.704 6.93611C40.6011 6.87183 40.614 6.79469 40.6011 6.72398C40.4404 5.95259 40.254 5.18119 40.1254 4.40337C40.0676 4.06267 39.9004 3.94053 39.6112 3.86339C39.444 3.8184 39.354 3.80554 39.2898 4.01767C39.0391 4.85335 38.7626 5.6826 38.4798 6.50542C38.4155 6.69827 38.4541 6.75612 38.6341 6.81397C38.8205 6.87183 38.8719 6.81398 38.9233 6.64684C39.1612 5.89473 39.4055 5.16191 39.6626 4.37766ZM2.60353 29.6087C2.52639 29.9044 2.62282 30.0201 2.94423 30.0458C3.74134 30.1101 4.54487 30.2065 5.33555 30.3094C5.5284 30.3351 5.6184 30.3286 5.65697 30.0972C5.69554 29.8337 5.55411 29.8465 5.38698 29.8337C5.1427 29.8144 4.89843 29.7822 4.65416 29.7501C4.58987 29.7437 4.51916 29.7372 4.47416 29.6987C4.37774 29.6151 4.55773 28.9273 4.6863 28.8758C5.02057 28.7409 5.36127 28.6059 5.70197 28.4773C5.94624 28.3873 5.90124 28.1623 5.86267 28.0145C5.80482 27.8088 5.65054 27.9952 5.56054 28.0209C5.29698 28.1109 5.03342 28.2073 4.78915 28.3294C4.5963 28.4259 4.52559 28.3616 4.46131 28.188C4.31989 27.828 4.04347 27.6545 3.67063 27.648C3.29136 27.6416 3.02137 27.828 2.86709 28.1752C2.64853 28.638 2.68067 29.1394 2.60353 29.6087ZM23.354 5.85616C23.8104 5.39975 23.8876 5.0462 23.624 4.6155C23.399 4.24266 22.9362 4.12695 22.3898 4.30052C22.0234 4.41623 21.6634 4.54479 21.297 4.67336C21.2134 4.7055 21.1106 4.71835 21.162 4.86621C21.4641 5.7276 21.7662 6.58899 22.0491 7.45038C22.1134 7.64965 22.2227 7.57251 22.3448 7.5468C22.4926 7.50823 22.5248 7.42466 22.4734 7.28967C22.3769 7.01968 22.2869 6.74969 22.1969 6.4797C22.1777 6.42185 22.1134 6.34471 22.1841 6.31257C22.3962 6.21615 22.6212 6.13901 22.8462 6.07472C22.9812 6.03615 23.0455 6.184 23.1226 6.25471C23.354 6.46042 23.5726 6.67898 23.7912 6.89754C23.9712 7.07753 24.164 6.96183 24.2797 6.85897C24.4083 6.74326 24.2026 6.67255 24.1383 6.60827C23.894 6.34471 23.6176 6.10044 23.354 5.85616ZM27.5196 6.184C28.3552 6.19686 29.0045 5.5476 29.0238 4.67978C29.0431 3.78625 28.3938 3.05986 27.5646 3.047C26.7353 3.03414 26.0732 3.61912 26.0411 4.56407C26.0089 5.43832 26.7096 6.17115 27.5196 6.184ZM51.1949 10.8895C51.2592 10.9538 51.3171 10.9988 51.3685 11.0502C51.6642 11.3395 51.9599 11.6352 52.2556 11.9309C52.3842 12.0595 52.487 12.0209 52.6092 11.8988C52.7442 11.7638 52.6477 11.6995 52.5577 11.6159C52.1399 11.2174 51.7285 10.8188 51.3171 10.4138C51.1949 10.2917 51.0921 10.2724 50.9699 10.401C50.3528 11.0502 49.7293 11.6995 49.1057 12.3423C48.9965 12.4516 49.0286 12.503 49.125 12.593C49.5686 13.0108 50.0057 13.4351 50.4364 13.8658C50.5778 14.0008 50.6614 13.9558 50.7771 13.8401C50.9121 13.7115 50.8285 13.6472 50.7385 13.5572C50.5392 13.3644 50.34 13.1651 50.1407 12.9723C49.62 12.4709 49.6264 12.4709 50.1471 11.9502C50.2757 11.828 50.34 11.8345 50.4557 11.9566C50.7192 12.2266 50.9957 12.4709 51.2592 12.7344C51.4006 12.8758 51.4714 12.7794 51.5742 12.6894C51.6899 12.5866 51.6513 12.5223 51.5614 12.4323C51.3621 12.2523 51.1757 12.0595 50.9828 11.8795C50.5714 11.4873 50.5714 11.4938 50.9828 11.0824C51.0471 11.0181 51.1178 10.9602 51.1949 10.8895ZM57.6875 31.1515C57.6939 31.1515 57.6939 31.1515 57.7004 31.1515C57.7004 31.46 57.7068 31.775 57.7004 32.0836C57.6939 32.2378 57.7518 32.2893 57.9061 32.2893C58.0539 32.2828 58.1568 32.2636 58.1375 32.0771C58.1118 31.8007 58.0925 31.5243 58.0925 31.2415C58.0925 30.3415 57.8804 30.5729 58.806 30.4958C59.0053 30.4765 59.0374 30.5665 59.0374 30.7336C59.0439 31.0743 59.0632 31.415 59.0824 31.7621C59.0889 31.8907 59.0503 32.0386 59.2817 32.0321C59.5324 32.0257 59.4874 31.8714 59.481 31.73C59.4746 31.5243 59.4746 31.325 59.4553 31.1193C59.4103 30.4636 59.4103 30.4701 60.0853 30.4636C60.2717 30.4636 60.3231 30.5215 60.3231 30.6951C60.3231 31.1129 60.3488 31.5307 60.3488 31.9486C60.3488 32.135 60.4131 32.18 60.5931 32.18C60.7924 32.18 60.7859 32.0707 60.7795 31.9357C60.7538 31.3572 60.7281 30.7786 60.7152 30.2065C60.7088 30.0201 60.6574 29.9687 60.471 29.9815C59.6031 30.0137 58.7353 30.0458 57.8739 30.0587C57.6682 30.0651 57.6168 30.1487 57.6361 30.3351C57.6554 30.5986 57.6682 30.875 57.6875 31.1515ZM3.76062 39.6432C4.58987 39.4504 5.50269 39.2318 6.42193 39.0133C6.5055 38.994 6.51836 38.9361 6.49907 38.8718C6.35122 38.2419 6.20337 37.6119 6.04909 36.9819C6.01052 36.8276 5.90124 36.8726 5.79196 36.8855C5.65697 36.9048 5.61197 36.9498 5.65054 37.0976C5.72768 37.3869 5.79839 37.6762 5.86267 37.9654C6.01052 38.6404 6.0041 38.6276 5.34198 38.8011C5.09771 38.8654 5.027 38.7883 4.98843 38.5633C4.92414 38.2097 4.82772 37.8626 4.74415 37.509C4.69915 37.329 4.57059 37.3998 4.46131 37.4126C4.31989 37.4319 4.33917 37.4962 4.37131 37.6119C4.44202 37.8755 4.49988 38.1519 4.53845 38.4219C4.56416 38.5954 4.74415 38.8011 4.63487 38.9168C4.51916 39.0325 4.27489 39.0133 4.09489 39.084C3.85062 39.1804 3.77991 39.0647 3.74134 38.8525C3.65777 38.4476 3.55492 38.0426 3.47135 37.6376C3.43278 37.464 3.33636 37.4898 3.20779 37.5155C3.08565 37.5412 3.02137 37.5605 3.05994 37.7212C3.20779 38.3061 3.34278 38.904 3.48421 39.4954C3.51635 39.6047 3.54206 39.6882 3.76062 39.6432ZM53.9527 16.1607C54.5312 16.45 54.8848 16.4178 55.1998 16.0578C55.489 15.73 55.4569 15.2479 55.1162 14.7658C54.9041 14.4701 54.6791 14.1872 54.4734 13.8915C54.3834 13.763 54.3191 13.7565 54.1969 13.8465C53.4963 14.3736 52.7892 14.8943 52.082 15.4022C51.9342 15.5114 51.9663 15.5693 52.0499 15.7043C52.1528 15.8714 52.2427 15.82 52.352 15.7364C52.6156 15.5372 52.8792 15.3379 53.162 15.1322C53.2584 15.2543 53.3356 15.3765 53.4384 15.4857C53.6441 15.6914 53.6891 15.8971 53.522 16.1543C53.3934 16.3471 53.3227 16.5785 53.1941 16.7778C53.0206 17.0414 53.1041 17.2214 53.342 17.4014C53.5863 17.0092 53.7534 16.5785 53.9527 16.1607ZM35.2528 6.12615C35.8635 6.12615 36.3392 5.72117 36.4292 5.11691C36.5063 4.57051 36.5706 4.01767 36.6606 3.47127C36.6992 3.2527 36.6477 3.17557 36.4292 3.14343C36.1913 3.11128 36.1913 3.24628 36.172 3.40698C36.1013 3.9341 36.037 4.46765 35.9535 4.99477C35.8763 5.48975 35.5742 5.73403 35.1242 5.69546C34.6421 5.65046 34.385 5.36118 34.43 4.84692C34.4814 4.28766 34.5585 3.72197 34.6485 3.16914C34.6807 2.98914 34.6678 2.91843 34.475 2.89272C34.295 2.87344 34.1793 2.86058 34.16 3.10485C34.115 3.61269 34.0443 4.12695 33.9607 4.62836C33.8257 5.50903 34.3528 6.13258 35.2528 6.12615ZM7.07119 16.4178C6.92334 16.45 6.87834 16.6493 6.76263 16.7842C6.64049 16.9257 6.71763 17.0028 6.79477 17.1057C7.35403 17.8192 7.90687 18.5392 8.47255 19.2527C8.54327 19.3427 8.60112 19.542 8.73612 19.4198C8.83897 19.3234 9.04467 19.1563 8.81326 18.9634C8.4147 18.642 8.45327 18.3013 8.76826 17.9478C8.8004 17.9092 8.82611 17.8578 8.85182 17.8128C9.16038 17.3114 9.16038 17.3114 9.75179 17.4206C9.79678 17.4271 9.83535 17.4464 9.88035 17.4399C10.0668 17.4206 10.0861 17.2407 10.1503 17.1185C10.1953 17.0285 10.0732 17.0092 10.0089 16.9964C9.04467 16.81 8.09329 16.6235 7.07119 16.4178ZM6.13909 21.9204C6.27408 21.8947 6.34479 21.8819 6.42193 21.869C6.8012 21.8047 7.18047 21.7469 7.55974 21.6826C7.81687 21.6376 7.82973 21.3933 7.8233 21.239C7.81687 21.0912 7.62402 21.2069 7.5276 21.2198C7.11619 21.2905 6.70478 21.3676 6.2998 21.464C6.12623 21.5026 6.02981 21.4705 5.93338 21.3162C5.68911 20.9498 5.43198 20.6026 5.16842 20.2491C5.12985 20.1977 5.07199 20.0434 4.99485 20.1719C4.89843 20.3327 4.75058 20.4998 4.94343 20.7184C5.17485 20.9819 5.36127 21.284 5.58626 21.554C5.72768 21.7276 5.68268 21.7726 5.4834 21.7983C5.12342 21.8497 4.76987 21.9269 4.40988 21.9783C4.15275 22.0169 4.09489 22.2354 4.12704 22.409C4.15918 22.5954 4.3456 22.4476 4.44845 22.4347C4.81486 22.3769 5.1877 22.3061 5.54769 22.2161C5.75339 22.1647 5.85624 22.2226 5.96552 22.3833C6.21623 22.7561 6.47979 23.1161 6.73692 23.4825C6.78192 23.5468 6.87834 23.6754 6.91691 23.5854C6.9812 23.4247 7.19976 23.2768 7.00691 23.0454C6.71121 22.6983 6.44765 22.3254 6.13909 21.9204ZM5.25841 33.6842C5.09128 33.7549 5.01414 33.7871 4.937 33.8192C4.22346 34.1085 3.51635 34.4106 2.79638 34.687C2.52639 34.7899 2.61639 34.9892 2.66139 35.137C2.71924 35.3298 2.86066 35.1756 2.95066 35.137C3.77348 34.8027 4.58987 34.4492 5.40627 34.1149C5.58626 34.0378 5.68911 33.9606 5.64411 33.7421C5.59911 33.5428 5.69554 33.3114 5.36127 33.2278C4.49988 33.0157 3.65134 32.7585 2.79638 32.5207C2.70638 32.495 2.59067 32.3857 2.50711 32.5143C2.4364 32.6171 2.48782 32.7457 2.50711 32.8614C2.53282 33.0028 2.67424 32.9835 2.76424 33.0092C3.56777 33.2342 4.37131 33.4464 5.25841 33.6842ZM54.7241 19.6448C54.7562 20.0691 54.9298 20.4548 55.2898 20.7505C55.5983 21.0012 55.9776 21.0205 56.3054 20.8084C56.6204 20.6091 56.7104 20.3455 56.6076 19.9212C56.5368 19.6127 56.4597 19.2977 56.3954 18.9891C56.3633 18.8349 56.3954 18.6934 56.5433 18.597C56.6911 18.5006 56.8454 18.4942 56.9933 18.5842C57.3918 18.8092 57.5461 19.4198 57.2632 19.7605C57.1025 19.9534 57.2825 20.0498 57.3404 20.1334C57.4111 20.2362 57.4947 20.0884 57.5525 20.0305C57.6682 19.9148 57.7389 19.7734 57.7582 19.6063C57.8225 19.1177 57.6232 18.7256 57.3018 18.3913C57.0254 18.102 56.6718 18.0442 56.3697 18.2113C56.0611 18.3785 55.9454 18.6484 56.029 19.0599C56.0869 19.3298 56.164 19.5998 56.2411 19.8634C56.3183 20.127 56.2733 20.3584 56.0161 20.4934C55.7462 20.6348 55.5019 20.5448 55.3348 20.3198C55.0648 19.9662 54.9105 19.5484 55.2576 19.1884C55.4055 19.0406 55.2833 18.9184 55.1998 18.8284C55.0712 18.687 55.0198 18.8734 54.9619 18.9313C54.7884 19.1177 54.7305 19.3556 54.7241 19.6448ZM46.5537 10.041C46.5537 9.96383 46.5473 9.93169 46.5537 9.90598C46.7787 9.10245 46.9844 8.29891 47.2287 7.50823C47.3187 7.22538 47.0937 7.18682 46.9651 7.12896C46.7916 7.05182 46.8237 7.26396 46.7916 7.35395C46.6501 7.82322 46.5216 8.29248 46.393 8.76174C46.2837 9.1603 46.1809 9.56528 46.0652 9.96383C45.9752 10.2788 46.258 10.3174 46.4059 10.4588C46.5537 10.5938 46.6566 10.5231 46.7851 10.4267C47.5051 9.8867 48.2315 9.35958 48.945 8.8196C49.0157 8.76817 49.2343 8.72961 49.0929 8.58818C48.99 8.48533 48.8615 8.2732 48.6365 8.45962C48.3665 8.68461 48.0772 8.89031 47.7944 9.10245C47.3894 9.411 46.9908 9.71313 46.5537 10.041ZM20.2042 8.40176C19.4842 7.78465 18.7578 7.16753 18.0507 6.53756C17.8771 6.38328 17.7614 6.33185 17.5364 6.46042C17.3179 6.58256 17.2729 6.71755 17.3114 6.94254C17.4657 7.87464 17.6136 8.80674 17.7743 9.75813C17.9093 9.6617 18.16 9.71313 18.115 9.43029C18.0121 8.78103 18.0121 8.78103 18.5714 8.4789C18.655 8.4339 18.745 8.39534 18.8221 8.33105C19.1178 8.09321 19.3749 8.08035 19.6256 8.40176C19.7928 8.65247 19.9985 8.65247 20.2042 8.40176ZM57.6811 35.1499C57.5204 35.0856 57.4689 35.1884 57.4368 35.3748C57.3982 35.587 57.5011 35.6191 57.6746 35.6384C58.3882 35.7284 59.0953 35.8377 59.8088 35.9212C60.0081 35.947 60.0595 36.0048 60.0081 36.1977C59.9631 36.3841 59.9631 36.5769 59.931 36.7698C59.9117 36.9176 59.9888 36.9498 60.111 36.9626C60.2395 36.9755 60.336 36.9819 60.3617 36.8084C60.4517 36.1334 60.5417 35.452 60.6381 34.777C60.6574 34.6292 60.6445 34.5392 60.4581 34.5199C60.2717 34.5006 60.2074 34.5585 60.1945 34.7384C60.1817 34.9056 60.1302 35.0791 60.1302 35.2463C60.1302 35.4713 60.0338 35.4713 59.8538 35.4456C59.1467 35.3363 58.4332 35.2463 57.6811 35.1499ZM57.1732 26.7995C57.154 27.0245 57.244 27.0952 57.4818 27.0374C58.0089 26.9152 58.5489 26.8188 59.0824 26.7095C59.8088 26.5617 59.8088 26.5617 59.9631 27.2816C59.9953 27.4166 59.9953 27.5452 60.2202 27.5002C60.4388 27.4552 60.3938 27.3266 60.3681 27.1981C60.246 26.5617 60.1174 25.9253 59.9953 25.2824C59.9695 25.1346 59.9181 25.0574 59.7446 25.096C59.5774 25.1282 59.5324 25.2117 59.5774 25.3596C59.616 25.501 59.6481 25.6488 59.6867 25.7903C59.751 26.0281 59.6867 26.1374 59.4167 26.1824C58.7417 26.2917 58.0732 26.4395 57.4047 26.5745C57.2761 26.6002 57.1154 26.5938 57.1732 26.7995ZM9.47537 13.1908C9.34038 13.2358 9.28895 13.3515 9.21181 13.4351C9.1411 13.5122 9.19895 13.5894 9.26966 13.6537C9.95106 14.2515 10.626 14.8558 11.301 15.4536C11.3846 15.5243 11.4553 15.5629 11.5388 15.46C11.9181 15.0165 12.3038 14.5729 12.6895 14.1294C12.8245 13.9751 12.6959 13.9108 12.6124 13.8208C12.5095 13.7051 12.4452 13.7565 12.3681 13.8529C12.1238 14.1486 11.8538 14.4251 11.616 14.7272C11.481 14.8943 11.3974 14.8943 11.2431 14.7529C10.7289 14.2772 10.1953 13.8144 9.66822 13.3515C9.60394 13.2873 9.53965 13.2358 9.47537 13.1908ZM59.5646 39.8039C59.7703 39.8554 59.6931 39.6175 59.7574 39.5147C59.8603 39.3475 59.7124 39.3475 59.616 39.3218C59.0824 39.174 58.5425 39.0325 58.0089 38.8847C57.6682 38.7947 57.3275 38.7047 56.9933 38.6018C56.7683 38.5376 56.7811 38.7304 56.7361 38.8397C56.6847 38.949 56.7104 39.039 56.8518 39.0775C57.7454 39.3025 58.626 39.5468 59.5646 39.8039ZM44.7795 5.94616C44.7345 5.82402 44.5995 5.81759 44.5031 5.75974C44.3874 5.68903 44.3231 5.76617 44.2781 5.86259C43.886 6.66613 43.5003 7.46966 43.0953 8.26034C42.9989 8.44676 43.0824 8.49176 43.211 8.5689C43.3717 8.65889 43.4553 8.62675 43.5324 8.46604C43.9117 7.68179 44.2974 6.90397 44.6831 6.12615C44.7152 6.06829 44.7474 6.01044 44.7795 5.94616ZM56.4083 23.6754C56.4468 23.6625 56.4726 23.6497 56.5047 23.6432C57.3532 23.354 58.2018 23.0583 59.0567 22.769C59.2431 22.7047 59.166 22.6147 59.1274 22.5054C59.0889 22.3897 59.0889 22.274 58.9025 22.3383C58.0475 22.6404 57.1861 22.9361 56.3247 23.2318C56.2283 23.264 56.1576 23.3154 56.2283 23.4118C56.2926 23.4954 56.2476 23.6625 56.4083 23.6754Z" fill="white"/>
<path d="M31.9292 62.9072C27.7509 62.9072 23.701 62.0908 19.8826 60.4709C16.1992 58.9152 12.8887 56.6782 10.0474 53.8369C7.20606 50.9956 4.97544 47.685 3.41337 44.0016C1.79987 40.1832 0.977051 36.1334 0.977051 31.955C0.977051 27.7766 1.79344 23.7268 3.41337 19.9084C4.97544 16.225 7.20606 12.9144 10.0474 10.0731C12.8887 7.23184 16.1992 5.00123 19.8826 3.43916C23.701 1.82566 27.7509 1.00284 31.9292 1.00284C36.1076 1.00284 40.1574 1.81923 43.9758 3.43916C47.6592 5.00123 50.9698 7.23184 53.8111 10.0731C56.6524 12.9144 58.883 16.225 60.4451 19.9084C62.0586 23.7268 62.8814 27.7766 62.8814 31.955C62.8814 36.1334 62.065 40.1832 60.4451 44.0016C58.883 47.685 56.6524 50.9956 53.8111 53.8369C50.9698 56.6782 47.6592 58.9088 43.9758 60.4709C40.1574 62.0908 36.1012 62.9072 31.9292 62.9072ZM31.9292 7.43755C18.4041 7.43755 7.39891 18.4428 7.39891 31.9679C7.39891 45.493 18.4041 56.4982 31.9292 56.4982C45.4543 56.4982 56.4596 45.493 56.4596 31.9679C56.4531 18.4363 45.4543 7.43755 31.9292 7.43755Z" fill="white"/>
<path d="M12.6251 48.2764C17.8449 54.1262 24.3117 57.2567 32.1542 57.1989C40.0032 57.141 46.4186 53.9204 51.542 48.0128C51.7862 48.7842 52.0369 49.5428 52.2748 50.3013C52.3391 50.5135 52.4162 50.6356 52.6926 50.597C53.869 50.4492 55.0454 50.327 56.241 50.237C50.3334 57.7067 42.6709 61.9429 33.1121 62.2772C22.8975 62.6372 14.5986 58.5745 8.08032 50.8027C8.09318 50.7706 8.10603 50.732 8.11889 50.6999C8.80672 50.777 9.48811 50.8477 10.1759 50.9249C10.6131 50.9763 11.0502 51.0213 11.4873 51.0727C11.6223 51.0856 11.7252 51.0984 11.7766 50.9184C11.9052 50.4685 12.0594 50.0249 12.2073 49.5814C12.3423 49.1571 12.4837 48.72 12.6251 48.2764ZM30.1293 59.8087C30.1293 59.9245 30.1229 60.0466 30.1293 60.1623C30.1486 60.6444 30.5279 61.0044 31.0293 61.0108C31.5564 61.0237 31.9357 60.7087 31.9678 60.2137C31.9807 59.9887 31.9743 59.7638 31.9743 59.5388C31.9678 59.0631 31.7171 58.7481 31.2929 58.6645C30.7979 58.5681 30.3993 58.7609 30.2 59.1788C30.1036 59.3845 30.1422 59.5966 30.1293 59.8087ZM33.1635 60.458C33.3306 60.3037 33.4463 60.2073 33.5428 60.098C33.652 59.9823 33.7677 59.8666 33.8513 59.7316C34.0506 59.4166 34.012 59.0888 33.7549 58.8638C33.3756 58.5295 32.7135 58.5745 32.3985 58.9731C32.3471 59.0374 32.18 59.1595 32.315 59.2174C32.4628 59.2816 32.6171 59.558 32.8228 59.3202C32.9706 59.1531 33.1506 59.0695 33.3178 59.2302C33.4978 59.3973 33.3435 59.558 33.2278 59.6995C33.1635 59.7702 33.0928 59.8409 33.0221 59.9052C32.8164 60.098 32.6171 60.2844 32.4114 60.4709C32.2764 60.593 32.3085 60.7537 32.3342 60.8887C32.3664 61.0366 32.5142 60.9658 32.6042 60.9658C32.9899 60.9723 33.3756 60.9594 33.7613 60.9723C33.922 60.9787 33.9735 60.9337 33.9863 60.7601C33.9992 60.5094 33.9285 60.413 33.6713 60.4452C33.5299 60.4773 33.3885 60.458 33.1635 60.458ZM35.2077 60.458C35.3555 60.3166 35.4584 60.2266 35.5484 60.1366C35.6512 60.0273 35.7605 59.9245 35.8441 59.8023C36.1076 59.4231 36.0434 59.0438 35.6898 58.7995C35.2848 58.5167 34.642 58.6452 34.3849 59.0566C34.3463 59.1145 34.2627 59.2109 34.3656 59.2431C34.5456 59.3009 34.7063 59.5902 34.9313 59.2816C35.0405 59.1338 35.2077 59.1274 35.362 59.2302C35.542 59.3588 35.4455 59.4873 35.3491 59.6095C35.272 59.7059 35.1884 59.8023 35.092 59.8923C34.8798 60.098 34.6613 60.3037 34.4363 60.503C34.2949 60.6251 34.3463 60.7859 34.372 60.9208C34.3977 61.0366 34.5391 60.9723 34.6227 60.9787C35.0148 60.9851 35.4134 60.9723 35.8119 60.9851C35.9791 60.9916 36.0176 60.9337 36.0305 60.7666C36.0498 60.503 35.9534 60.4259 35.7091 60.458C35.5741 60.4709 35.4262 60.458 35.2077 60.458ZM28.9851 60.458C29.2101 60.2202 29.4351 60.0723 29.5829 59.8538C29.7179 59.6609 29.8336 59.4616 29.7565 59.2045C29.6729 58.9024 29.4672 58.7352 29.178 58.6709C28.7923 58.5874 28.4516 58.6838 28.2073 58.9988C28.1623 59.0502 27.9759 59.1531 28.1559 59.2366C28.2973 59.3009 28.4387 59.5131 28.6187 59.3395C28.7858 59.1788 28.9658 59.0631 29.1394 59.2366C29.3322 59.4295 29.1458 59.6095 29.0044 59.7509C28.7537 59.9952 28.4966 60.2394 28.2394 60.4773C28.1044 60.5994 28.1366 60.7601 28.1623 60.8951C28.188 61.043 28.3423 60.9723 28.4323 60.9723C28.8051 60.9787 29.1779 60.9658 29.5572 60.9787C29.7758 60.9916 29.8144 60.908 29.8208 60.7087C29.8272 60.4773 29.7372 60.4387 29.5444 60.4516C29.3708 60.4709 29.2037 60.458 28.9851 60.458ZM27.3073 59.3138C27.018 59.3138 26.7995 59.5259 26.7995 59.8152C26.7995 60.1045 27.0116 60.3294 27.2945 60.3359C27.5773 60.3423 27.8023 60.1109 27.8087 59.828C27.8087 59.5452 27.5902 59.3202 27.3073 59.3138ZM36.8597 59.3138C36.5769 59.3138 36.3583 59.5323 36.3519 59.8152C36.3455 60.098 36.5705 60.3294 36.8469 60.3294C37.1362 60.3359 37.3804 60.0916 37.374 59.8087C37.374 59.5388 37.1426 59.3202 36.8597 59.3138Z" fill="#221F51"/>
<path d="M30.1294 59.8087C30.1358 59.5966 30.1037 59.3845 30.2001 59.1788C30.3994 58.7609 30.7979 58.5681 31.2929 58.6645C31.7172 58.7481 31.9679 59.0631 31.9743 59.5388C31.9808 59.7638 31.9872 59.9887 31.9679 60.2137C31.9358 60.7087 31.5565 61.0173 31.0294 61.0108C30.528 60.998 30.1423 60.6444 30.1294 60.1623C30.1294 60.0402 30.1294 59.9245 30.1294 59.8087ZM31.4279 59.8409C31.4279 59.7252 31.4279 59.603 31.4279 59.4873C31.4279 59.2495 31.2672 59.1723 31.0744 59.1659C30.8815 59.1595 30.7144 59.2366 30.708 59.4745C30.7015 59.7123 30.7015 59.9437 30.708 60.1816C30.7144 60.4194 30.8751 60.4901 31.0744 60.4837C31.2736 60.4773 31.4279 60.4066 31.4279 60.1623C31.4279 60.0595 31.4279 59.9502 31.4279 59.8409Z" fill="white"/>
<path d="M33.1636 60.458C33.3885 60.458 33.5364 60.4709 33.6843 60.4516C33.9414 60.4195 34.0121 60.5159 33.9992 60.7666C33.9864 60.9401 33.9349 60.9852 33.7742 60.9787C33.3885 60.9659 33.0029 60.9787 32.6172 60.9723C32.5207 60.9723 32.3729 61.043 32.3472 60.8952C32.3215 60.7602 32.2893 60.5995 32.4243 60.4773C32.63 60.2909 32.8357 60.1045 33.035 59.9116C33.1057 59.8473 33.1764 59.7831 33.2407 59.7059C33.3564 59.5645 33.5107 59.3974 33.3307 59.2367C33.1636 59.0824 32.9836 59.1595 32.8357 59.3266C32.6236 59.5645 32.4757 59.2817 32.3279 59.2238C32.1929 59.1659 32.36 59.0438 32.4114 58.9795C32.72 58.581 33.3885 58.536 33.7678 58.8702C34.0185 59.0952 34.0635 59.4295 33.8642 59.7381C33.7807 59.8731 33.665 59.9888 33.5557 60.1045C33.4335 60.2073 33.3307 60.3038 33.1636 60.458Z" fill="white"/>
<path d="M35.2076 60.458C35.4262 60.458 35.574 60.4709 35.7154 60.458C35.9597 60.4259 36.0561 60.5094 36.0368 60.7666C36.024 60.9337 35.9854 60.9851 35.8183 60.9851C35.4262 60.9723 35.0276 60.9851 34.6291 60.9787C34.5455 60.9787 34.4041 61.043 34.3783 60.9208C34.3526 60.7859 34.3012 60.6251 34.4426 60.503C34.6612 60.3037 34.8798 60.098 35.0983 59.8923C35.1883 59.8023 35.2719 59.7059 35.3555 59.6095C35.4519 59.4873 35.5419 59.3523 35.3683 59.2302C35.214 59.1209 35.0469 59.1338 34.9376 59.2816C34.7191 59.5902 34.5519 59.2945 34.3719 59.2431C34.2691 59.2109 34.3526 59.1145 34.3912 59.0566C34.6483 58.6452 35.2976 58.5231 35.6961 58.7995C36.0497 59.0438 36.114 59.4295 35.8504 59.8023C35.7669 59.9245 35.6576 60.0273 35.5547 60.1366C35.4583 60.233 35.3554 60.3166 35.2076 60.458Z" fill="white"/>
<path d="M28.9851 60.458C29.2101 60.458 29.3708 60.4709 29.5379 60.458C29.7308 60.4451 29.8208 60.4837 29.8143 60.7151C29.8079 60.9208 29.7693 60.998 29.5508 60.9851C29.1779 60.9658 28.8051 60.9851 28.4258 60.9787C28.3294 60.9787 28.1815 61.0494 28.1558 60.9015C28.1301 60.7666 28.098 60.6058 28.233 60.4837C28.4901 60.2459 28.7472 60.0016 28.9979 59.7573C29.1458 59.6159 29.3322 59.4423 29.1329 59.2431C28.9594 59.0695 28.7729 59.1852 28.6122 59.3459C28.4387 59.5195 28.2908 59.3073 28.1494 59.2431C27.9694 59.1595 28.1558 59.0566 28.2008 59.0052C28.4451 58.6838 28.7922 58.5938 29.1715 58.6774C29.4608 58.7416 29.6665 58.9088 29.75 59.2109C29.8272 59.468 29.705 59.6673 29.5765 59.8602C29.4351 60.0723 29.2101 60.2202 28.9851 60.458Z" fill="white"/>
<path d="M27.3073 59.3138C27.5901 59.3138 27.8151 59.5452 27.8087 59.828C27.8023 60.1109 27.5773 60.3359 27.2944 60.3359C27.0116 60.3295 26.793 60.1045 26.7995 59.8152C26.7995 59.5323 27.018 59.3138 27.3073 59.3138Z" fill="white"/>
<path d="M36.8598 59.3138C37.1426 59.3138 37.3676 59.5323 37.374 59.8152C37.3805 60.098 37.1362 60.3423 36.8469 60.3359C36.5641 60.3295 36.3455 60.1045 36.3519 59.8216C36.3584 59.5323 36.5769 59.3138 36.8598 59.3138Z" fill="white"/>
<path d="M5.6632 32.3214L5.79819 34.5971L2.61619 34.7899L2.4812 32.5464L2.81547 32.5271L2.92475 34.3721L3.96613 34.3078L3.86971 32.6621L4.20398 32.6429L4.3004 34.2885L5.43821 34.2178L5.3225 32.3407L5.6632 32.3214Z" fill="#221F51"/>
<path d="M2.5777 34.822L2.43628 32.5143L2.83483 32.4886L2.94411 34.3335L3.92121 34.2756L3.82479 32.63L4.22334 32.6043L4.31977 34.2499L5.39329 34.1856L5.27758 32.3086L5.68899 32.2829L5.83041 34.6228H5.79827L2.5777 34.822ZM2.50699 32.5786L2.63555 34.7578L5.75327 34.5713L5.62471 32.36L5.34186 32.3729L5.45757 34.2499L4.25548 34.3271L4.15906 32.6814L3.88907 32.6943L3.98549 34.3399L2.87983 34.4106L2.77055 32.5657L2.50699 32.5786Z" fill="#221F51"/>
<path d="M5.83042 29.2166L5.77257 29.8787L2.49414 30.6887L2.53271 30.2644L5.61829 29.5316L2.71913 28.2459L2.7577 27.8217L5.83042 29.2166Z" fill="#221F51"/>
<path d="M2.45557 30.7272L2.50057 30.2387L5.51543 29.5251L2.68056 28.2652L2.72556 27.7766L5.86256 29.1973L5.79827 29.9044L2.45557 30.7272ZM2.55842 30.2837L2.52628 30.6372L5.74042 29.8465L5.79185 29.2294L2.77698 27.8666L2.74484 28.2202L5.71471 29.5316L2.55842 30.2837Z" fill="#221F51"/>
<path d="M5.52169 24.5368L6.81377 24.2218L6.70449 24.6589L5.24528 25.0061L5.01385 25.9253L6.29951 26.2532L6.20309 26.6453L3.11108 25.861L3.45821 24.4982C3.50964 24.2925 3.5932 24.1125 3.70891 23.9711C3.82462 23.8233 3.95962 23.7204 4.12033 23.6626C4.28103 23.6047 4.44817 23.5983 4.62816 23.6433C4.87886 23.7076 5.06528 23.8425 5.18099 24.0483C5.2967 24.254 5.3417 24.4982 5.30313 24.7746C5.35455 24.6332 5.42527 24.5561 5.52169 24.5368ZM4.93671 24.8904C4.98814 24.6782 4.98171 24.4918 4.90457 24.3311C4.82743 24.1704 4.7053 24.0675 4.52531 24.0225C4.34531 23.9775 4.19103 24.0097 4.04961 24.119C3.90819 24.2282 3.81177 24.3825 3.76034 24.5947L3.52249 25.546L4.69887 25.8417L4.93671 24.8904Z" fill="#221F51"/>
<path d="M6.22245 26.6839L3.06616 25.8868L3.41972 24.4918C3.47114 24.2797 3.56114 24.0933 3.67685 23.9518C3.79899 23.7976 3.93398 23.6947 4.10111 23.6369C4.26825 23.579 4.44181 23.5726 4.62823 23.6176C4.89179 23.6819 5.08464 23.8233 5.20035 24.0354C5.29678 24.209 5.3482 24.4083 5.34178 24.6268C5.3932 24.5625 5.44463 24.524 5.51534 24.5111L6.85885 24.1833L6.73028 24.6911L5.27106 25.0382L5.0525 25.906L6.33816 26.2339L6.22245 26.6839ZM3.1433 25.8418L6.17745 26.6067L6.26102 26.2789L4.97536 25.951L5.21964 24.9804L5.23892 24.9739L5.26464 24.7682C5.30321 24.5047 5.26464 24.2668 5.14893 24.0611C5.03965 23.8683 4.85965 23.7333 4.61538 23.669C4.44181 23.624 4.28111 23.6304 4.12683 23.6883C3.97255 23.7461 3.84398 23.8426 3.72827 23.984C3.61899 24.119 3.53543 24.2925 3.484 24.4982L3.1433 25.8418ZM6.76885 24.2668L5.52819 24.569C5.44463 24.5882 5.38035 24.6525 5.32892 24.7875L5.25178 24.9739L6.67886 24.6332L6.76885 24.2668ZM4.71823 25.8803L3.484 25.5718L3.72827 24.5882C3.7797 24.3697 3.87613 24.209 4.0304 24.0933C4.17826 23.9776 4.34539 23.9454 4.53181 23.9904C4.71823 24.0354 4.8468 24.1447 4.93036 24.3183C5.0075 24.479 5.02036 24.6718 4.96251 24.8968L4.71823 25.8803ZM3.56114 25.5268L4.67323 25.8096L4.90465 24.8904C4.95608 24.6782 4.94322 24.5047 4.87251 24.3504C4.79537 24.1961 4.67966 24.0997 4.51253 24.0611C4.33896 24.0161 4.19754 24.0483 4.06255 24.1511C3.92755 24.2604 3.83113 24.4083 3.78613 24.6075L3.56114 25.5268Z" fill="#221F51"/>
<path d="M7.36043 19.0342L8.27325 20.5384L8.05468 20.9498L7.1033 19.2528L5.25195 19.4199L5.46409 19.0213L7.1483 18.9185L6.27405 17.4786L6.48618 17.0736L7.399 18.6935L9.33391 18.5264L9.12178 18.9313L7.36043 19.0342Z" fill="#221F51"/>
<path d="M8.05468 21.0205L7.08401 19.2913L5.19409 19.4649L5.4448 18.9956L7.09044 18.8928L6.23547 17.485L6.48618 17.0093L7.41828 18.6613L9.39176 18.4942L9.14106 18.9699L7.41828 19.0728L8.31181 20.5448L8.05468 21.0205ZM7.12258 19.2206L8.05468 20.8855L8.23467 20.5448L7.309 19.0085L9.10249 18.9056L9.27605 18.5713L7.37971 18.7321L6.49261 17.1443L6.31904 17.4785L7.21257 18.9442L5.49622 19.047L5.32266 19.3749L7.12258 19.2206Z" fill="#221F51"/>
<path d="M9.84804 16.315L10.3237 17.035L10.073 17.3693L8.24097 14.4958L8.60095 14.0137L11.8601 14.9908L11.6094 15.3251L10.7866 15.0679L9.84804 16.315ZM8.53667 14.3415L9.64233 16.0193L10.4523 14.9458L8.53667 14.3415Z" fill="#221F51"/>
<path d="M10.0666 17.4271L8.20239 14.5022L8.58809 13.988L11.9179 14.9844L11.6287 15.3701L10.8058 15.1129L9.8866 16.3214L10.3623 17.0414L10.0666 17.4271ZM8.27953 14.4958L10.073 17.305L10.2852 17.0286L9.80946 16.3086L10.7801 15.0294L11.603 15.2865L11.8151 15.0101L8.62023 14.0523L8.27953 14.4958ZM9.64233 16.0772L8.46595 14.2901L10.5101 14.9329L9.64233 16.0772ZM8.6138 14.3994L9.64233 15.9615L10.3944 14.9586L8.6138 14.3994Z" fill="#221F51"/>
<path d="M14.4378 12.3616L12.9207 13.8401L10.6965 11.5517L10.9858 11.2688L12.9721 13.3066L14.1999 12.1109L14.4378 12.3616Z" fill="#221F51"/>
<path d="M12.9208 13.8787L10.6516 11.5517L10.9859 11.2238L12.9722 13.2616L14.2 12.0659L14.4893 12.3616L12.9208 13.8787ZM10.7416 11.5517L12.9272 13.7887L14.3993 12.3552L14.2 12.1495L12.9658 13.3516L10.9795 11.3138L10.7416 11.5517Z" fill="#221F51"/>
<path d="M16.9771 10.8702C17.0093 10.9217 17.0607 10.9474 17.1185 10.9538C17.1764 10.9602 17.2342 10.9345 17.2985 10.8895L17.8064 10.5295L17.9478 10.7288L17.26 11.2109C17.1571 11.2816 17.0543 11.3138 16.9514 11.3074C16.8486 11.3009 16.7714 11.2495 16.7071 11.1595C16.6493 11.0759 16.63 10.9859 16.6493 10.8767C16.6686 10.7738 16.7136 10.6645 16.7843 10.5552C16.5464 10.716 16.2957 10.7995 16.0257 10.8124C15.7557 10.8252 15.4986 10.7674 15.2479 10.6452C15.0036 10.5231 14.7915 10.3367 14.6179 10.0924C14.4444 9.8417 14.3351 9.57814 14.3029 9.30173C14.2708 9.01888 14.3094 8.75532 14.4187 8.50462C14.5279 8.25392 14.7015 8.04178 14.9394 7.87465C15.1772 7.70751 15.4343 7.61109 15.7107 7.59181C15.9872 7.57252 16.2507 7.63038 16.5014 7.75251C16.7521 7.87465 16.9643 8.06107 17.1378 8.31177C17.2857 8.5239 17.3885 8.75532 17.4335 8.9996C17.4785 9.24387 17.4657 9.48172 17.4014 9.71314C17.3371 9.94456 17.215 10.1503 17.0478 10.3303C16.9257 10.581 16.9 10.761 16.9771 10.8702ZM15.4408 10.3045C15.6336 10.4074 15.8329 10.4588 16.0386 10.4524C16.2443 10.446 16.4436 10.3817 16.6236 10.2531C16.8036 10.1245 16.9321 9.96384 17.0093 9.76457C17.0864 9.56529 17.1057 9.35958 17.0671 9.14745C17.035 8.92889 16.9514 8.72961 16.8228 8.54962C16.6878 8.35677 16.5207 8.20892 16.3279 8.10607C16.135 8.00322 15.9357 7.95179 15.7236 7.95822C15.5115 7.96464 15.3186 8.02893 15.1386 8.15749C14.9586 8.28606 14.8301 8.44677 14.7529 8.63962C14.6758 8.83246 14.6565 9.03817 14.6886 9.2503C14.7208 9.46244 14.8044 9.66814 14.9394 9.85456C15.0872 10.0474 15.2479 10.1953 15.4408 10.3045Z" fill="#221F51"/>
<path d="M16.9707 11.3395C16.9643 11.3395 16.9514 11.3395 16.945 11.3395C16.8357 11.3331 16.7521 11.2817 16.675 11.1788C16.6107 11.0888 16.5914 10.986 16.6107 10.8703C16.6236 10.7996 16.6493 10.7224 16.6878 10.6517C16.4821 10.7738 16.2571 10.8317 16.0193 10.8445C15.7493 10.8574 15.4857 10.7996 15.2286 10.6774C14.9779 10.5553 14.7658 10.3624 14.5858 10.1182C14.4058 9.85459 14.2965 9.58461 14.2644 9.31462C14.2322 9.02534 14.2708 8.76178 14.3801 8.50465C14.4894 8.24752 14.6694 8.02896 14.9136 7.86182C15.1579 7.68826 15.4215 7.59183 15.6979 7.57255C15.9679 7.55327 16.2443 7.61112 16.5014 7.73326C16.7585 7.85539 16.9707 8.04824 17.1507 8.30538C17.305 8.53037 17.4078 8.76179 17.4528 9.00606C17.4978 9.25034 17.4849 9.49461 17.4207 9.73246C17.3564 9.95745 17.2342 10.1696 17.0607 10.356C16.945 10.5938 16.9193 10.761 16.99 10.8574C17.0157 10.896 17.0543 10.9217 17.1057 10.9281C17.1507 10.9345 17.1957 10.9153 17.2664 10.8703L17.7999 10.491L17.9799 10.7417L17.2664 11.2431C17.1764 11.3074 17.0735 11.3395 16.9707 11.3395ZM16.8935 10.4396L16.81 10.5746C16.7457 10.6774 16.7007 10.7803 16.6814 10.8831C16.6621 10.9795 16.6814 11.0631 16.7328 11.1402C16.7971 11.2238 16.8614 11.2688 16.9514 11.2752C17.0478 11.2817 17.1442 11.2495 17.2407 11.1852L17.9028 10.7224L17.7999 10.5746L17.3178 10.9153C17.2407 10.9731 17.1764 10.9924 17.1185 10.986C17.0478 10.9795 16.99 10.9474 16.9514 10.8895C16.8678 10.7738 16.8935 10.581 17.0221 10.3174L17.0285 10.311C17.1957 10.131 17.3114 9.9253 17.3757 9.70674C17.4399 9.47532 17.4528 9.24391 17.4078 9.00606C17.3628 8.77464 17.2664 8.54322 17.1185 8.33109C16.9514 8.08682 16.7393 7.9004 16.495 7.78469C16.2443 7.66255 15.9807 7.61112 15.7236 7.63041C15.46 7.64969 15.2029 7.73969 14.9715 7.90682C14.7401 8.06753 14.5729 8.27324 14.4637 8.52394C14.3544 8.76821 14.3158 9.02534 14.3479 9.30176C14.3801 9.56532 14.4829 9.82245 14.6565 10.0796C14.8301 10.3174 15.0358 10.5038 15.2736 10.6196C15.5243 10.7417 15.775 10.7931 16.0322 10.7803C16.3021 10.7674 16.54 10.6838 16.7714 10.5296L16.8935 10.4396ZM16 10.4846C15.8072 10.4846 15.6079 10.4331 15.4215 10.3303C15.2286 10.221 15.0679 10.0732 14.9136 9.87388C14.7786 9.68746 14.6886 9.47532 14.6565 9.25676C14.6244 9.03177 14.6436 8.82607 14.7208 8.63322C14.7979 8.43394 14.9329 8.26681 15.1193 8.13824C15.3058 8.00968 15.4986 7.93896 15.7236 7.93254C15.9357 7.92611 16.1414 7.97753 16.3407 8.08681C16.54 8.19609 16.7136 8.34394 16.8485 8.53679C16.9835 8.72321 17.0671 8.92892 17.0992 9.14748C17.1378 9.36604 17.1185 9.57818 17.0414 9.77745C16.9643 9.98316 16.8357 10.1439 16.6428 10.2789C16.4628 10.4074 16.2571 10.4781 16.0386 10.4846C16.0257 10.4846 16.0129 10.4846 16 10.4846ZM15.4536 10.2789C15.6465 10.3817 15.8393 10.4267 16.0322 10.4203C16.2379 10.4139 16.4307 10.3496 16.5978 10.2274C16.7778 10.0989 16.9 9.94459 16.9707 9.75174C17.0478 9.55889 17.0671 9.35962 17.0285 9.15391C16.9964 8.94178 16.9193 8.74893 16.7907 8.56893C16.6621 8.38251 16.495 8.23467 16.3086 8.13824C16.1157 8.03539 15.9229 7.99039 15.7236 7.99682C15.5179 8.00325 15.3315 8.06753 15.1579 8.18967C14.9843 8.31181 14.8558 8.47251 14.7851 8.65893C14.7144 8.83892 14.6886 9.04463 14.7208 9.25033C14.7529 9.46247 14.8365 9.66175 14.9651 9.84174C15.1129 10.0346 15.2672 10.1696 15.4536 10.2789Z" fill="#221F51"/>
<path d="M19.5613 7.87465L19.6513 8.72961L19.2784 8.90961L18.9763 5.5219L19.5227 5.26477L21.9719 7.63681L21.5991 7.8168L20.9884 7.20611L19.5613 7.87465ZM19.3106 5.52833L19.5227 7.52753L20.7312 6.94898L19.3106 5.52833Z" fill="#221F51"/>
<path d="M19.2526 8.96106L18.9441 5.50265L19.5291 5.22623L19.5419 5.23908L22.0232 7.64326L21.5861 7.8554L20.9754 7.24471L19.5933 7.9004L19.6833 8.75536L19.2526 8.96106ZM19.0084 5.54121L19.3041 8.86464L19.6126 8.71679L19.5226 7.86182L20.9883 7.16757L21.599 7.77826L21.9075 7.63041L19.5098 5.3098L19.0084 5.54121ZM19.4969 7.57255L19.2719 5.43836L20.789 6.95544L19.4969 7.57255ZM19.3555 5.61192L19.5548 7.47613L20.6797 6.93615L19.3555 5.61192Z" fill="#221F51"/>
<path d="M24.8902 5.45121L25.8223 6.40903L25.3916 6.53759L24.3502 5.45121L23.4374 5.71477L23.8102 6.98757L23.4245 7.09686L22.531 4.03056L23.8809 3.63844C24.0867 3.58059 24.2795 3.5613 24.4659 3.58701C24.6523 3.61272 24.8066 3.67701 24.9416 3.78629C25.0702 3.89557 25.1666 4.03699 25.218 4.21699C25.2887 4.46769 25.2695 4.69268 25.1473 4.89838C25.0252 5.10409 24.8388 5.2648 24.5816 5.37408C24.7166 5.34836 24.8259 5.37407 24.8902 5.45121ZM24.2924 5.12337C24.5045 5.05909 24.6588 4.95624 24.7552 4.81481C24.858 4.66696 24.8773 4.50626 24.8259 4.33269C24.7745 4.15913 24.6652 4.03699 24.5045 3.97271C24.3438 3.90842 24.1574 3.902 23.9452 3.96628L23.0003 4.2427L23.341 5.40622L24.2924 5.12337Z" fill="#221F51"/>
<path d="M23.4052 7.13544L22.4924 4.0113L23.8745 3.61274C24.0931 3.55489 24.2859 3.5356 24.4723 3.56132C24.6652 3.58703 24.8259 3.65774 24.9609 3.76702C25.1023 3.88273 25.1987 4.03701 25.2502 4.21057C25.3273 4.47413 25.3016 4.70555 25.1795 4.91768C25.0766 5.09125 24.9287 5.23267 24.7359 5.33552C24.813 5.34838 24.8709 5.38052 24.9159 5.43194L25.8801 6.42833L25.3787 6.57618L24.3374 5.4898L23.476 5.7405L23.8488 7.0133L23.4052 7.13544ZM22.576 4.05629L23.4502 7.0583L23.7717 6.96831L23.3988 5.69551L24.3631 5.41909L24.3759 5.43194L24.5752 5.34838C24.8195 5.24552 25.0059 5.09125 25.128 4.88554C25.2437 4.69269 25.263 4.47413 25.1923 4.22985C25.1473 4.06272 25.0573 3.92773 24.9287 3.81845C24.8002 3.71559 24.6523 3.65131 24.4723 3.6256C24.2924 3.59988 24.1059 3.61917 23.9002 3.67702L22.576 4.05629ZM24.3888 5.4448L25.4044 6.49904L25.7644 6.38976L24.8709 5.47052C24.8002 5.38695 24.678 5.38695 24.5945 5.40623L24.3888 5.4448ZM23.3217 5.4448L22.9617 4.22343L23.9388 3.94058C24.1509 3.8763 24.3438 3.8763 24.5173 3.94701C24.6845 4.0113 24.8066 4.14629 24.858 4.32628C24.9159 4.5127 24.8902 4.68626 24.7809 4.83411C24.678 4.98197 24.5173 5.09125 24.2988 5.15553L23.3217 5.4448ZM23.0453 4.26843L23.3667 5.36766L24.2859 5.09125C24.4916 5.02696 24.6395 4.93054 24.7295 4.79555C24.8259 4.66055 24.8452 4.5127 24.7938 4.33914C24.7423 4.172 24.6459 4.06272 24.4916 3.99844C24.3309 3.93415 24.1509 3.93416 23.9517 3.99201L23.0453 4.26843Z" fill="#221F51"/>
<path d="M28.0144 5.81118C27.7637 5.69547 27.558 5.5219 27.3973 5.29049C27.2366 5.05907 27.1402 4.79551 27.1016 4.49338C27.063 4.19125 27.1016 3.90841 27.2044 3.64485C27.3073 3.38129 27.468 3.16915 27.6866 2.99559C27.9051 2.82846 28.1558 2.7256 28.4451 2.68703C28.7344 2.65489 29.0044 2.69346 29.2551 2.80917C29.5058 2.92488 29.7115 3.09844 29.8722 3.32986C30.0329 3.56128 30.1357 3.82484 30.1679 4.12697C30.2 4.42267 30.1679 4.70551 30.065 4.96907C29.9622 5.23263 29.8015 5.45119 29.5829 5.61833C29.3643 5.79189 29.1136 5.89475 28.8244 5.92689C28.5351 5.97189 28.2651 5.92689 28.0144 5.81118ZM29.3579 5.34191C29.5186 5.20692 29.6343 5.03336 29.705 4.82765C29.7758 4.62195 29.8015 4.40981 29.7758 4.18482C29.75 3.95341 29.6729 3.74127 29.5572 3.56128C29.435 3.37486 29.2808 3.23987 29.0944 3.14344C28.9079 3.04702 28.7022 3.01487 28.4901 3.04059C28.2715 3.0663 28.0787 3.14987 27.9244 3.28486C27.7637 3.41986 27.648 3.58699 27.5773 3.7927C27.5066 3.9984 27.4809 4.21696 27.513 4.44195C27.5387 4.67337 27.6158 4.8855 27.7316 5.0655C27.8473 5.25192 28.0015 5.38691 28.188 5.48333C28.3744 5.57976 28.5801 5.6119 28.7987 5.58619C29.0044 5.56048 29.1972 5.48334 29.3579 5.34191Z" fill="#221F51"/>
<path d="M28.6057 5.97189C28.4 5.97189 28.1943 5.92689 28.0015 5.8369C27.7443 5.72119 27.5322 5.5412 27.3715 5.30335C27.2108 5.07193 27.1079 4.80194 27.0694 4.49339C27.0308 4.19769 27.0694 3.90841 27.1722 3.632C27.2751 3.36844 27.4358 3.14987 27.6608 2.96988C27.8857 2.79632 28.1365 2.69346 28.4322 2.6549C28.7279 2.62275 29.0107 2.66133 29.2614 2.77703C29.5185 2.89274 29.7307 3.07273 29.8914 3.31058C30.0585 3.55486 30.1614 3.82485 30.1935 4.12055C30.2256 4.42268 30.1935 4.71195 30.0907 4.97551C29.9878 5.2455 29.8207 5.47049 29.5957 5.63762C29.3707 5.81761 29.12 5.92047 28.8243 5.95261C28.7536 5.97189 28.6829 5.97189 28.6057 5.97189ZM28.6379 2.71275C28.5736 2.71275 28.5157 2.71918 28.4514 2.72561C28.1686 2.76418 27.9243 2.8606 27.7122 3.02774C27.4936 3.2013 27.3393 3.40701 27.2429 3.66414C27.1401 3.9277 27.1079 4.21054 27.1401 4.49339C27.1786 4.79552 27.2751 5.05265 27.4293 5.27764C27.5836 5.50263 27.7893 5.67619 28.0336 5.78547C28.2843 5.90118 28.5543 5.93975 28.8243 5.90118C29.1071 5.86904 29.3514 5.77262 29.57 5.59905C29.7821 5.43835 29.9428 5.22621 30.0392 4.96265C30.1356 4.71195 30.1742 4.4291 30.1421 4.13983C30.1099 3.85699 30.0135 3.59343 29.8528 3.35558C29.6985 3.13059 29.4928 2.95702 29.2485 2.84774C29.0557 2.75775 28.85 2.71275 28.6379 2.71275ZM28.6571 5.62476C28.4836 5.62476 28.3229 5.58619 28.175 5.50906C27.9757 5.4062 27.8215 5.26478 27.7058 5.07836C27.5836 4.89194 27.5065 4.67338 27.4808 4.44196C27.4486 4.2234 27.4743 3.99841 27.545 3.77984C27.6158 3.56771 27.7315 3.40058 27.8986 3.25916C28.0593 3.12416 28.2586 3.03416 28.4836 3.00845C28.7086 2.98274 28.9143 3.01488 29.1071 3.11773C29.3064 3.22059 29.4607 3.36201 29.5828 3.54843C29.705 3.73485 29.7821 3.95341 29.8078 4.18483C29.8335 4.40982 29.8078 4.62195 29.7371 4.84051C29.6664 5.05265 29.5442 5.23264 29.3835 5.36763C29.2228 5.50905 29.03 5.59262 28.805 5.61834C28.7536 5.62477 28.7086 5.62476 28.6571 5.62476ZM28.6314 3.06631C28.5864 3.06631 28.5414 3.06631 28.4964 3.07273C28.2843 3.09845 28.0979 3.17559 27.95 3.31058C27.7893 3.44558 27.68 3.60628 27.6093 3.80556C27.5386 4.01769 27.5193 4.22983 27.545 4.44196C27.5708 4.66052 27.6415 4.87266 27.7572 5.05265C27.8665 5.22621 28.0079 5.36121 28.2007 5.45763C28.3743 5.54763 28.5736 5.57977 28.7921 5.55405C29.0043 5.52834 29.1843 5.4512 29.3321 5.31621C29.4864 5.18764 29.6021 5.02051 29.6664 4.8148C29.7371 4.6091 29.7628 4.40339 29.7371 4.18483C29.7114 3.96627 29.6407 3.75414 29.525 3.57414C29.4093 3.40058 29.2614 3.26558 29.075 3.16916C28.94 3.10488 28.7921 3.06631 28.6314 3.06631Z" fill="#221F51"/>
<path d="M34.8412 2.65493L34.5905 4.58985C34.5519 4.88555 34.6034 5.11697 34.7383 5.30339C34.8733 5.48338 35.079 5.59266 35.349 5.63123C35.619 5.66337 35.844 5.61195 36.024 5.47052C36.204 5.3291 36.3133 5.11054 36.3518 4.82769L36.6025 2.89278L37.0011 2.9442L36.7504 4.88555C36.7183 5.14268 36.6347 5.36124 36.5061 5.53481C36.3776 5.70837 36.204 5.83693 35.9983 5.91407C35.7926 5.99121 35.5612 6.0105 35.3105 5.97835C35.0533 5.94621 34.8348 5.86265 34.6548 5.74051C34.4748 5.61194 34.3462 5.45124 34.2627 5.24553C34.1791 5.03983 34.1598 4.81484 34.1919 4.55771L34.4426 2.61636L34.8412 2.65493Z" fill="#221F51"/>
<path d="M35.5355 6.02334C35.4648 6.02334 35.3877 6.01691 35.3041 6.01049C35.0534 5.97834 34.8284 5.89478 34.6356 5.76621C34.4491 5.63122 34.3142 5.46408 34.2306 5.25838C34.147 5.05267 34.1213 4.82768 34.1599 4.55769L34.417 2.59064L34.8798 2.63564L34.6227 4.60269C34.5841 4.88554 34.6356 5.11052 34.7641 5.29052C34.8927 5.46408 35.092 5.56693 35.3555 5.6055C35.6191 5.63765 35.8312 5.58622 36.0048 5.45122C36.1784 5.31623 36.2812 5.11053 36.3198 4.82768L36.5769 2.86063L37.0397 2.91848L36.7826 4.89197C36.7505 5.1491 36.6669 5.37409 36.5319 5.55408C36.3969 5.73407 36.2233 5.86263 36.0112 5.9462C35.8634 5.99763 35.7091 6.02334 35.5355 6.02334ZM34.4749 2.65492L34.2306 4.56412C34.1984 4.82125 34.2177 5.03982 34.3013 5.23266C34.3784 5.43194 34.507 5.58622 34.6806 5.71479C34.8606 5.83692 35.0791 5.91406 35.3234 5.9462C35.5741 5.97834 35.7991 5.95906 35.9984 5.88192C36.1976 5.80478 36.3648 5.68264 36.4933 5.51551C36.6219 5.34194 36.699 5.12981 36.7312 4.87911L36.9755 2.96991L36.6412 2.92491L36.3969 4.82768C36.3583 5.12338 36.2426 5.34837 36.0562 5.4898C35.8698 5.63122 35.6384 5.68907 35.3555 5.65693C35.0727 5.61836 34.8606 5.50265 34.7256 5.31623C34.5841 5.11695 34.5327 4.87911 34.5713 4.57698L34.8156 2.67421L34.4749 2.65492Z" fill="#221F51"/>
<path d="M40.9867 7.28329L40.3438 7.08401L39.5596 3.70274L38.6789 6.57618L38.3125 6.4669L39.251 3.41989L39.8874 3.61274L40.6717 7.00045L41.5588 4.12058L41.9252 4.22985L40.9867 7.28329Z" fill="#221F51"/>
<path d="M41.0059 7.32185L40.3181 7.10971L39.5596 3.82486L38.7046 6.61473L38.2739 6.48617L39.2317 3.37488L39.9131 3.58058L39.9196 3.59987L40.6781 6.87187L41.5395 4.07556L41.9702 4.20413L41.0059 7.32185ZM40.3696 7.05828L40.961 7.24471L41.8802 4.24913L41.5781 4.15913L40.6653 7.12257L39.8617 3.63201L39.2767 3.45202L38.3575 6.44117L38.6596 6.53117L39.566 3.56773L40.3696 7.05828Z" fill="#221F51"/>
<path d="M44.3487 5.27123L43.018 8.17039L42.6516 8.00325L43.9823 5.1041L44.3487 5.27123Z" fill="#221F51"/>
<path d="M43.0373 8.2154L42.613 8.02255L43.9694 5.05911L44.3937 5.25196L43.0373 8.2154ZM42.6966 7.99041L43.0052 8.13183L44.3101 5.29053L44.0016 5.14911L42.6966 7.99041Z" fill="#221F51"/>
<path d="M45.9236 9.75178L45.3579 9.40465L46.0907 6.11337L46.4507 6.33836L45.7372 9.43037L48.1799 7.3926L48.5463 7.61759L45.9236 9.75178Z" fill="#221F51"/>
<path d="M45.9299 9.79031L45.3257 9.41747L46.0714 6.05548L46.4892 6.31904L45.7949 9.34033L48.1798 7.35399L48.6041 7.61755L45.9299 9.79031ZM45.3964 9.39176L45.9235 9.71318L48.4884 7.62398L48.1798 7.43756L45.6857 9.52033L46.4121 6.35761L46.1099 6.17119L45.3964 9.39176Z" fill="#221F51"/>
<path d="M49.8126 12.7152L48.0706 11.2431L50.134 8.80679L51.8504 10.2596L51.6318 10.5167L50.224 9.32106L49.5491 10.1182L50.809 11.1853L50.5904 11.4424L49.3305 10.3753L48.5912 11.2431L50.0248 12.4581L49.8126 12.7152Z" fill="#221F51"/>
<path d="M49.8127 12.7602L48.0256 11.2495L50.1277 8.76819L51.889 10.2596L51.6319 10.5681L50.2241 9.37244L49.5941 10.1181L50.8541 11.1852L50.5969 11.4938L49.337 10.4267L48.6427 11.2431L50.0763 12.458L49.8127 12.7602ZM48.1156 11.2366L49.8063 12.6637L49.9798 12.458L48.5463 11.2431L49.3241 10.3303L50.5841 11.3974L50.7641 11.1917L49.5041 10.1246L50.2177 9.28245L51.6255 10.4781L51.799 10.2724L50.1341 8.86461L48.1156 11.2366Z" fill="#221F51"/>
<path d="M53.0846 14.4958L52.6089 15.7429L52.3132 15.4022L52.8596 14.0072L52.2361 13.2937L51.2333 14.168L50.9697 13.8658L53.3803 11.7702L54.306 12.8309C54.4474 12.9916 54.5439 13.1587 54.5953 13.3387C54.6467 13.5187 54.6531 13.6858 54.6146 13.853C54.5696 14.0201 54.4796 14.1615 54.3381 14.2837C54.1453 14.4508 53.9267 14.5279 53.6889 14.5087C53.451 14.4894 53.2325 14.3801 53.0204 14.1937C53.0975 14.2965 53.1168 14.3994 53.0846 14.4958ZM53.1232 13.808C53.2646 13.9751 53.4253 14.0715 53.5989 14.1037C53.7725 14.1358 53.9267 14.0908 54.0682 13.9687C54.2032 13.8465 54.2674 13.6987 54.261 13.5251C54.2546 13.3516 54.1774 13.178 54.036 13.0173L53.3932 12.278L52.4804 13.0751L53.1232 13.808Z" fill="#221F51"/>
<path d="M52.6219 15.8072L52.2812 15.4086L52.8276 14.0137L52.2362 13.3387L51.2334 14.213L50.9248 13.8658L53.3804 11.7317L54.3254 12.818C54.4732 12.9852 54.5696 13.1523 54.6211 13.3387C54.6725 13.5252 54.6789 13.6987 54.6404 13.8658C54.5954 14.0394 54.4989 14.1873 54.3511 14.3158C54.1518 14.4894 53.9268 14.5665 53.6761 14.5472C53.4833 14.5344 53.2968 14.4573 53.1104 14.3223C53.1297 14.3865 53.1297 14.4508 53.1104 14.5151L52.6219 15.8072ZM52.3519 15.3958L52.5962 15.6786L53.0526 14.483C53.0847 14.393 53.059 14.303 52.9947 14.213L52.879 14.0523L52.3519 15.3958ZM52.8854 14.033L53.0397 14.168C53.2518 14.3544 53.464 14.4573 53.689 14.4765C53.914 14.4958 54.1261 14.4251 54.3125 14.258C54.4475 14.1423 54.5375 14.0073 54.5761 13.8466C54.6146 13.6859 54.6082 13.5252 54.5568 13.3516C54.5054 13.178 54.4154 13.0173 54.2739 12.8566L53.3676 11.8217L51.0084 13.8723L51.2269 14.123L52.2297 13.2487L52.8854 14.0008V14.033ZM53.7018 14.1487C53.6633 14.1487 53.6247 14.1423 53.5861 14.1358C53.3997 14.1037 53.2326 14.0008 53.0911 13.8273L52.429 13.0687L53.3868 12.2331L54.0489 12.998C54.1968 13.1652 54.2739 13.3452 54.2804 13.5252C54.2868 13.7051 54.2161 13.8658 54.0747 13.9944C53.9718 14.0973 53.8432 14.1487 53.7018 14.1487ZM52.5254 13.0816L53.149 13.7887C53.284 13.943 53.4383 14.0394 53.6054 14.0716C53.7661 14.1037 53.914 14.0587 54.0489 13.943C54.1775 13.8273 54.2354 13.6923 54.2289 13.5252C54.2225 13.358 54.1454 13.1909 54.0104 13.0366L53.3868 12.3231L52.5254 13.0816Z" fill="#221F51"/>
<path d="M53.9075 17.1957C53.9268 16.9193 54.0489 16.675 54.2803 16.4693L54.4861 16.7907C54.3382 16.945 54.2546 17.1186 54.2418 17.305C54.2289 17.4914 54.2932 17.6907 54.4218 17.8964C54.5503 18.0957 54.6982 18.2307 54.8718 18.2949C55.0453 18.3592 55.206 18.3464 55.3603 18.2499C55.4953 18.1664 55.5789 18.0635 55.611 17.9414C55.6431 17.8192 55.6239 17.6714 55.5596 17.4978L55.2896 16.7714C55.1996 16.54 55.1739 16.3343 55.2124 16.1672C55.251 16 55.3667 15.8586 55.5531 15.7365C55.7074 15.6401 55.8617 15.6079 56.0288 15.6272C56.1895 15.6529 56.3503 15.7172 56.4981 15.8393C56.646 15.9615 56.781 16.1029 56.8902 16.2829C57.0638 16.5593 57.1409 16.8229 57.1216 17.0736C57.1024 17.3243 56.9867 17.5364 56.7681 17.7228L56.5624 17.4014C56.7038 17.2728 56.7745 17.125 56.7809 16.9579C56.7874 16.7907 56.7359 16.6236 56.6202 16.4436C56.4981 16.2507 56.3631 16.1157 56.2088 16.045C56.0545 15.9743 55.9131 15.9808 55.7781 16.0643C55.6624 16.1415 55.5853 16.225 55.5596 16.3279C55.5339 16.4307 55.5531 16.5529 55.611 16.7071L55.9003 17.4657C55.9967 17.7164 56.0224 17.9285 55.971 18.1085C55.926 18.2885 55.8038 18.4364 55.5981 18.5649C55.431 18.6678 55.2639 18.7128 55.0839 18.7063C54.9039 18.6935 54.7368 18.6356 54.5696 18.5199C54.4089 18.4106 54.2675 18.2564 54.1454 18.0635C53.9718 17.7614 53.8882 17.4721 53.9075 17.1957Z" fill="#221F51"/>
<path d="M55.1162 18.7385C55.1033 18.7385 55.0905 18.7385 55.084 18.7385C54.8912 18.7256 54.7176 18.6614 54.5505 18.5456C54.3898 18.4364 54.2419 18.2821 54.1198 18.0828C53.9398 17.7678 53.8562 17.4721 53.8755 17.1957C53.8948 16.9064 54.0234 16.6557 54.2612 16.45L54.2869 16.4243L54.5248 16.7971L54.5055 16.8164C54.3641 16.9643 54.2805 17.1314 54.2676 17.3114C54.2548 17.485 54.3126 17.6778 54.4412 17.8835C54.5698 18.0828 54.7112 18.2049 54.8719 18.2692C55.039 18.3335 55.1869 18.3142 55.3347 18.2242C55.4633 18.1471 55.5404 18.0507 55.5726 17.935C55.6047 17.8192 55.5854 17.6843 55.5212 17.5107L55.2512 16.7843C55.1612 16.5464 55.1355 16.3407 55.174 16.1607C55.2126 15.9872 55.3283 15.8393 55.5276 15.7108C55.6819 15.6143 55.849 15.5758 56.0226 15.5951C56.2026 15.6272 56.3697 15.6979 56.5111 15.8136C56.6783 15.955 56.8068 16.1029 56.9097 16.2636C57.0832 16.5464 57.1668 16.8164 57.1475 17.0736C57.1282 17.3307 57.0061 17.5493 56.7811 17.7421L56.7554 17.7678L56.5175 17.395L56.5368 17.3757C56.6718 17.2536 56.7361 17.1186 56.7425 16.9579C56.749 16.7971 56.6975 16.6364 56.5883 16.4629C56.4661 16.27 56.3376 16.1415 56.1897 16.0772C56.0483 16.0129 55.9133 16.0193 55.7911 16.0965C55.6754 16.1736 55.6112 16.2507 55.5854 16.3407C55.5597 16.4307 55.579 16.5464 55.6369 16.7007L55.9261 17.4593C56.029 17.7228 56.0483 17.935 55.9969 18.1214C55.9519 18.3078 55.8233 18.4621 55.6112 18.5971C55.4504 18.6871 55.2897 18.7385 55.1162 18.7385ZM54.2741 16.5207C54.0684 16.7136 53.9591 16.9386 53.9398 17.2021C53.9205 17.4657 53.9977 17.7485 54.1712 18.0507C54.2934 18.2435 54.4284 18.3914 54.5826 18.4942C54.7369 18.6035 54.904 18.6614 55.0776 18.6742C55.2512 18.6806 55.4119 18.6356 55.5726 18.5392C55.7719 18.4171 55.8876 18.2692 55.9326 18.1021C55.984 17.9285 55.9583 17.7293 55.8619 17.4785L55.5726 16.72C55.5083 16.5529 55.4954 16.4307 55.5212 16.3215C55.5469 16.2186 55.624 16.1286 55.7526 16.0386C55.9004 15.9486 56.0483 15.9422 56.2154 16.0193C56.3697 16.09 56.5111 16.225 56.6397 16.4307C56.7554 16.6172 56.8132 16.7907 56.8068 16.9643C56.8004 17.1314 56.7297 17.2857 56.6011 17.4143L56.7747 17.6843C56.9675 17.5107 57.0704 17.3114 57.0897 17.08C57.1089 16.8357 57.0318 16.5786 56.8647 16.3086C56.7682 16.1479 56.6397 16.0065 56.479 15.8715C56.344 15.7622 56.1961 15.6915 56.0226 15.6658C55.8554 15.6465 55.714 15.6786 55.5726 15.7686C55.3862 15.8908 55.2833 16.0258 55.2447 16.18C55.2062 16.3407 55.2319 16.54 55.3219 16.765L55.5919 17.4914C55.6626 17.6778 55.6754 17.8257 55.6433 17.9542C55.6112 18.0828 55.5212 18.1921 55.3797 18.2821C55.219 18.3849 55.0519 18.3978 54.8655 18.3271C54.6855 18.2628 54.5376 18.1278 54.4026 17.9157C54.2676 17.6971 54.2034 17.4914 54.2162 17.305C54.2291 17.1186 54.3062 16.945 54.4541 16.7907L54.2741 16.5207Z" fill="#221F51"/>
<path d="M58.6386 19.5742L55.7588 20.937L55.5852 20.577L58.4651 19.2142L58.6386 19.5742Z" fill="#221F51"/>
<path d="M55.7396 20.9819L55.5403 20.5641L58.4844 19.1756L58.6837 19.5934L55.7396 20.9819ZM55.6238 20.5963L55.7717 20.8984L58.5937 19.5677L58.4459 19.2656L55.6238 20.5963Z" fill="#221F51"/>
<path d="M59.5775 22.904L56.8776 23.804L56.749 23.4247L59.4489 22.5248L59.1146 21.5219L59.4425 21.4127L60.2396 23.7976L59.9117 23.9068L59.5775 22.904Z" fill="#221F51"/>
<path d="M59.8924 23.9454L59.5581 22.9426L56.8647 23.8425L56.7168 23.4054L59.4167 22.5054L59.0824 21.5026L59.4681 21.3741L60.2845 23.8168L59.8924 23.9454ZM59.5967 22.859L59.9309 23.8618L60.1945 23.7718L59.4167 21.4512L59.1531 21.5412L59.4874 22.544L56.7939 23.444L56.9032 23.7589L59.5967 22.859Z" fill="#221F51"/>
<path d="M57.983 28.593L57.5845 26.3431L60.7215 25.7903L61.1136 28.0081L60.7793 28.0659L60.4579 26.2467L59.4358 26.4267L59.7187 28.0466L59.3844 28.1045L59.1015 26.4846L57.9766 26.6838L58.3044 28.5352L57.983 28.593Z" fill="#221F51"/>
<path d="M57.9573 28.6252L57.9509 28.593L57.5459 26.311L60.7472 25.7453L61.1522 28.0209L60.7536 28.0916L60.4322 26.2724L59.4744 26.4396L59.7572 28.0595L59.3587 28.1302L59.0758 26.5103L58.0152 26.6967L58.343 28.548L57.9573 28.6252ZM57.623 26.3688L58.0087 28.5545L58.2723 28.5095L57.9444 26.6581L59.1337 26.446L59.4165 28.0659L59.6865 28.0209L59.4037 26.401L60.4901 26.2081L60.8115 28.0273L61.0815 27.9823L60.7022 25.8289L57.623 26.3688Z" fill="#221F51"/>
<path d="M61.0109 31.3958L58.1696 31.4729L58.1567 31.0743L60.998 30.9972L60.9723 29.9365L61.3195 29.9301L61.3837 32.4436L61.0366 32.45L61.0109 31.3958Z" fill="#221F51"/>
<path d="M61.0107 32.4821L60.985 31.4279L58.1437 31.5051L58.1309 31.0422L60.9786 30.9651L60.9529 29.9044L61.3643 29.898L61.4286 32.4757L61.0107 32.4821ZM61.0429 31.3636L61.0686 32.4179L61.3514 32.4114L61.2871 29.9623L61.0043 29.9687L61.03 31.0294L58.1887 31.1065L58.2016 31.4408L61.0429 31.3636Z" fill="#221F51"/>
<path d="M61.2229 34.8478L58.0474 34.5585L58.0859 34.1599L61.2615 34.4492L61.2229 34.8478Z" fill="#221F51"/>
<path d="M61.255 34.8799L58.0151 34.5842L58.0601 34.1214L61.3 34.4171L61.255 34.8799ZM58.0794 34.5264L61.1907 34.8092L61.2228 34.4749L58.1116 34.1921L58.0794 34.5264Z" fill="#221F51"/>
<path d="M31.4279 59.8409C31.4279 59.9502 31.4279 60.053 31.4279 60.1623C31.4279 60.4002 31.2736 60.4773 31.0744 60.4837C30.8751 60.4902 30.7144 60.413 30.7079 60.1816C30.7015 59.9437 30.7015 59.7123 30.7079 59.4745C30.7144 59.2366 30.8815 59.1595 31.0744 59.1659C31.2672 59.1724 31.4343 59.2495 31.4279 59.4873C31.4279 59.6095 31.4279 59.7252 31.4279 59.8409Z" fill="#221F51"/>
<path d="M38.4474 52.4741C40.9416 51.452 43.0372 49.8899 44.76 47.8329C45.03 47.5114 45.2807 47.1707 45.5764 46.7915C44.1815 46.7915 42.8701 46.7915 41.5587 46.785C41.398 46.785 41.3659 46.875 41.3273 46.9908C40.993 47.9743 40.5688 48.9192 40.0931 49.8385C39.6174 50.7642 39.0067 51.5998 38.4089 52.4355C38.3832 52.4419 38.351 52.4484 38.3703 52.4869C38.3767 52.4934 38.4217 52.4805 38.4474 52.4741ZM25.668 52.4741C25.6937 52.4805 25.7387 52.4998 25.7451 52.4869C25.7709 52.4484 25.7387 52.4419 25.7066 52.4355C25.7001 52.4162 25.7001 52.3905 25.6873 52.3777C24.3823 50.7899 23.4824 48.9835 22.8203 47.055C22.7431 46.8429 22.6403 46.785 22.4282 46.7915C21.2261 46.8043 20.0304 46.7979 18.8347 46.7979C18.764 46.7979 18.6869 46.7593 18.629 46.8365C18.6162 46.9136 18.674 46.9586 18.7062 47.0036C19.9147 48.6685 21.3868 50.0442 23.116 51.1499C23.9195 51.6705 24.768 52.127 25.668 52.4741ZM45.6985 33.5235C45.8271 33.4849 45.9235 33.4528 46.0264 33.4271C47.0035 33.1507 47.6142 32.5078 47.8263 31.5307C48.0577 30.4572 48.0513 29.3644 47.852 28.2844C47.6399 27.1402 46.9585 26.4202 45.8078 26.1695C45.5121 26.1053 45.2164 26.0538 44.9143 26.0538C42.3623 26.0474 39.8231 26.0474 37.2711 26.0474C37.0589 26.0474 36.9111 26.1245 36.8082 26.3238C36.5447 26.8317 36.2618 27.3395 35.9918 27.8409C34.7705 30.1229 33.5491 32.3921 32.3277 34.6742C32.2699 34.7899 32.2377 34.9441 32.0449 34.9313C31.8777 34.9184 31.852 34.7834 31.7942 34.6742C30.2899 31.9229 28.7922 29.1651 27.2944 26.4074C27.1465 26.1374 26.9601 26.041 26.6515 26.041C24.3502 26.0538 22.0553 26.0474 19.7476 26.0474C19.3747 26.0474 19.0019 26.0731 18.629 26.1245C17.2148 26.311 16.3084 27.0566 15.9613 28.3166C15.8134 28.8566 15.7492 29.4094 15.7427 29.9622C15.7235 31.0229 15.7299 32.0836 15.7363 33.1378C15.7363 33.7485 15.7942 34.3592 15.942 34.9506C16.2056 35.9984 16.8163 36.7441 17.8769 37.0655C18.4233 37.2326 18.989 37.2969 19.5547 37.3033C21.676 37.3098 23.7909 37.3098 25.9123 37.3033C26.2915 37.3033 26.3815 37.2133 26.3815 36.8276C26.388 36.3969 26.3815 35.9727 26.3815 35.542C26.3815 35.0599 26.3044 34.9891 25.8223 34.9891C23.8295 34.9891 21.8432 34.9891 19.8504 34.9891C19.5611 34.9891 19.2719 34.9763 18.989 34.912C18.4812 34.7899 18.1598 34.4749 18.0633 33.9606C18.0055 33.6456 17.9733 33.3307 17.9541 33.0092C17.9412 32.7392 17.9926 32.6493 18.2948 32.6493C20.7825 32.6621 23.2574 32.6557 25.7451 32.6557C26.2208 32.6557 26.3237 32.5528 26.3237 32.0707C26.3237 31.7493 26.3237 31.4279 26.3237 31.1065C26.3173 30.7079 26.208 30.5922 25.803 30.5922C24.5495 30.5922 23.296 30.5922 22.0489 30.5922C20.7761 30.5922 19.4969 30.5858 18.2305 30.5986C18.0183 30.5986 17.9541 30.5472 17.9605 30.3286C17.9734 30.0072 18.0055 29.6858 18.0698 29.3773C18.1598 28.9273 18.4298 28.6123 18.8862 28.4773C19.2011 28.3873 19.5161 28.368 19.8376 28.368C21.6568 28.368 23.476 28.3744 25.2952 28.3616C25.5009 28.3616 25.6101 28.4194 25.713 28.6123C27.0822 31.1129 28.4707 33.6006 29.8335 36.1077C30.2835 36.9305 30.9135 37.3805 31.8713 37.3098C32.0191 37.2969 32.1734 37.2969 32.3213 37.3098C33.2791 37.4062 33.8898 36.9369 34.3269 36.1205C35.6833 33.6006 37.0653 31.1 38.4281 28.5802C38.5246 28.4002 38.6339 28.323 38.846 28.3294C40.1124 28.3423 41.3723 28.3359 42.6322 28.3359C43.2236 28.3359 43.8086 28.3294 44.4 28.3616C45.0493 28.4002 45.4221 28.7859 45.4543 29.4287C45.4735 29.8337 45.4735 30.2451 45.4543 30.6501C45.4221 31.28 45.0493 31.6529 44.4257 31.7172C44.2136 31.7364 43.995 31.7429 43.7829 31.7429C42.0794 31.7429 40.3823 31.7493 38.6789 31.7364C38.3831 31.7364 38.3189 31.82 38.3317 32.09C38.3574 32.5464 38.351 33.0092 38.3317 33.4721C38.3189 33.7163 38.3832 33.7935 38.6403 33.7935C40.0352 33.7806 41.4173 33.7935 42.8122 33.7806C43.0308 33.7806 43.1594 33.8513 43.2879 34.0249C44.0272 35.0341 44.7729 36.0305 45.5185 37.0269C45.615 37.1555 45.705 37.2969 45.8914 37.2969C46.6178 37.3033 47.3506 37.3098 48.077 37.2969C48.3406 37.2905 48.437 37.0655 48.2956 36.8405C48.257 36.7762 48.2056 36.7248 48.1606 36.6605C47.3506 35.6191 46.5342 34.5906 45.6985 33.5235ZM22.0425 24.5175C24.0802 24.5175 26.1051 24.5175 28.1429 24.511C28.4514 24.511 28.7279 24.5625 29.0171 24.6782C29.6921 24.9417 30.2835 25.3403 30.8492 25.7838C31.7427 26.4845 32.6491 26.2852 33.4527 25.7646C33.8705 25.4946 34.2755 25.1989 34.6997 24.9353C35.2011 24.6203 35.7347 24.5046 36.339 24.5046C40.2859 24.5239 44.2393 24.5175 48.1863 24.5175C48.2698 24.5175 48.3598 24.511 48.4434 24.5175C48.6363 24.5303 48.7134 24.4339 48.7134 24.2475C48.7134 23.9582 48.6941 23.6689 48.7198 23.3797C48.7455 23.0647 48.617 22.9747 48.3148 22.9811C47.1706 22.994 46.0199 22.9811 44.8821 22.994C44.6572 22.994 44.5929 22.9361 44.5993 22.7111C44.6186 22.3061 44.6122 21.8947 44.5993 21.4898C44.5929 21.329 44.6379 21.2519 44.7921 21.1748C45.1586 20.9948 45.2936 20.6476 45.1843 20.2555C45.0878 19.8955 44.7986 19.677 44.3936 19.6963C44.2265 19.7027 44.1493 19.6513 44.0658 19.5163C43.1144 17.9349 42.1566 16.36 41.2052 14.7786C41.1345 14.6565 41.1087 14.5729 41.1923 14.4379C41.398 14.0844 41.3466 13.7308 41.0959 13.4608C40.8516 13.2101 40.5045 13.1523 40.1509 13.3323C40.0416 13.3901 39.9645 13.3965 39.8681 13.3194C39.0903 12.7666 38.3124 12.2202 37.5346 11.6673C37.4318 11.5966 37.3868 11.5131 37.3996 11.3716C37.4318 10.9474 37.2839 10.6838 36.9561 10.5295C36.6411 10.3817 36.3068 10.4524 36.024 10.7417C35.9147 10.8509 35.8247 10.8702 35.6833 10.8317C35.3233 10.7288 34.9633 10.6388 34.5969 10.5552C34.4426 10.5167 34.3526 10.4652 34.314 10.2788C34.2305 9.90598 33.9541 9.70671 33.6069 9.68742C33.2405 9.66814 32.9705 9.82242 32.8355 10.1888C32.7713 10.3624 32.662 10.3688 32.5206 10.3817C31.537 10.4588 30.5599 10.5295 29.5828 10.6259C29.3514 10.6452 29.1971 10.626 29.0493 10.4138C28.8436 10.1117 28.49 10.0281 28.1686 10.1438C27.86 10.2531 27.6286 10.5424 27.6479 10.8767C27.6608 11.0888 27.5708 11.1788 27.4101 11.2688C26.1694 11.963 24.9352 12.6637 23.7009 13.3644C23.5788 13.4351 23.5017 13.4544 23.3667 13.3644C23.026 13.1394 22.6339 13.1844 22.3703 13.4544C22.1067 13.718 22.0682 14.1037 22.2867 14.4508C22.3639 14.5793 22.3703 14.6758 22.2996 14.8043C21.5668 16.1093 20.8404 17.4142 20.114 18.7127C20.0433 18.8413 19.9854 18.9184 19.8054 18.912C19.394 18.8863 19.1047 19.1241 19.0019 19.5098C18.9119 19.8505 19.0726 20.2298 19.4133 20.3969C19.5676 20.4741 19.6061 20.5576 19.5997 20.7184C19.5933 21.3483 19.5804 21.9847 19.6061 22.6147C19.619 22.9233 19.5547 23.0325 19.214 23.0261C18.0762 23.0004 16.9448 23.0197 15.8134 23.0133C15.537 23.0133 15.4149 23.0968 15.4406 23.3797C15.4599 23.5789 15.447 23.7846 15.447 23.9904C15.447 24.5239 15.447 24.5239 15.9613 24.5239C17.9733 24.5175 20.0047 24.5175 22.0425 24.5175ZM27.2108 38.8076C26.0408 38.8076 24.8773 38.814 23.7138 38.8011C23.4631 38.8011 23.386 38.8526 23.4053 39.1161C23.5081 40.9353 23.7459 42.7288 24.2088 44.4902C24.2602 44.6894 24.3245 44.7409 24.5238 44.7409C26.6001 44.7344 28.67 44.7344 30.7463 44.7409C31.0035 44.7409 31.0356 44.6509 31.0356 44.4259C31.0292 42.6517 31.0228 40.8775 31.0356 39.1032C31.0356 38.8333 30.9456 38.7947 30.7078 38.7947C29.5378 38.814 28.3679 38.8076 27.2108 38.8076ZM36.4611 44.7409C37.2968 44.7409 38.1324 44.7409 38.9681 44.7409C39.9002 44.7409 39.8809 44.7409 40.0802 43.8152C40.4145 42.2531 40.6202 40.6782 40.7102 39.084C40.723 38.8526 40.6716 38.7947 40.4402 38.7947C38.0746 38.8011 35.7154 38.8011 33.3434 38.7947C33.1441 38.7947 33.067 38.8333 33.0734 39.0518C33.0862 40.8646 33.0862 42.6645 33.0734 44.4773C33.0734 44.7023 33.1505 44.7344 33.3434 44.7344C34.3848 44.7409 35.4261 44.7473 36.4611 44.7409ZM42.0023 44.7409C43.5772 44.7409 45.1007 44.7409 46.6306 44.7409C46.7399 44.7409 46.7913 44.7023 46.8428 44.593C47.6849 42.8381 48.1799 40.9996 48.3663 39.0647C48.3856 38.8525 48.3148 38.7947 48.1091 38.7947C46.4185 38.8011 44.7343 38.8011 43.0437 38.7947C42.8444 38.7947 42.7737 38.8333 42.7608 39.0518C42.6837 40.961 42.4522 42.8445 42.0023 44.7409ZM18.5647 38.8076C17.7098 38.8076 16.8484 38.814 15.9934 38.8011C15.7749 38.8011 15.7299 38.8654 15.7492 39.0711C15.9034 40.7875 16.3534 42.4202 16.9898 44.0209C17.2084 44.5737 17.4848 44.7859 18.1083 44.7537C19.3554 44.6894 20.6154 44.7344 21.8625 44.728C21.946 44.728 22.1517 44.8373 22.0875 44.5673C21.6375 42.7545 21.4382 40.9096 21.3611 39.0454C21.3482 38.8204 21.2646 38.7883 21.0782 38.7947C20.2361 38.814 19.4004 38.8076 18.5647 38.8076ZM24.9673 46.8043C24.9673 46.8429 24.9545 46.8622 24.9609 46.8815C25.5716 48.4564 26.3494 49.9285 27.4422 51.227C28.3357 52.2812 29.3771 53.1298 30.7142 53.554C30.9842 53.6376 31.0292 53.5797 31.0292 53.3162C31.0163 51.2398 31.0228 49.1699 31.0292 47.0872C31.0292 46.8493 30.9778 46.7786 30.7335 46.785C28.8821 46.7979 27.0372 46.7915 25.1795 46.7915C25.1087 46.7915 25.038 46.7979 24.9673 46.8043ZM33.0862 50.2306C33.0862 51.2784 33.0927 52.3262 33.0798 53.3676C33.0798 53.6055 33.1377 53.6312 33.3498 53.5669C34.179 53.3098 34.9183 52.8919 35.574 52.3262C37.2453 50.8863 38.2803 49.0285 39.0967 47.0229C39.1738 46.8365 39.1224 46.785 38.9231 46.785C37.0525 46.7915 35.1819 46.7915 33.3112 46.785C33.0927 46.785 33.0734 46.875 33.0734 47.055C33.0927 48.1157 33.0862 49.1699 33.0862 50.2306Z" fill="#221F51"/>
<path d="M45.6988 33.5235C46.5344 34.5842 47.3508 35.6256 48.1672 36.6541C48.2122 36.7119 48.2636 36.7698 48.3022 36.8341C48.4436 37.0591 48.3472 37.2841 48.0837 37.2905C47.3573 37.3033 46.6244 37.2905 45.898 37.2905C45.7116 37.2905 45.6216 37.1555 45.5252 37.0205C44.7795 36.0177 44.0338 35.0149 43.2946 34.0185C43.1725 33.8513 43.0439 33.7742 42.8189 33.7742C41.424 33.7871 40.0419 33.7742 38.6469 33.7871C38.3898 33.7871 38.3255 33.7099 38.3384 33.4657C38.3577 33.0028 38.3641 32.5464 38.3384 32.0836C38.3255 31.8072 38.3898 31.7236 38.6855 31.73C40.389 31.7493 42.0861 31.7364 43.7896 31.7364C44.0017 31.7364 44.2203 31.73 44.4324 31.7107C45.0559 31.6464 45.4288 31.2736 45.4609 30.6436C45.4802 30.2387 45.4802 29.8272 45.4609 29.4223C45.4288 28.7794 45.0559 28.3937 44.4067 28.3552C43.8217 28.3166 43.2303 28.3295 42.6389 28.3295C41.3725 28.323 40.1126 28.3359 38.8526 28.323C38.6405 28.323 38.5312 28.3937 38.4348 28.5737C37.0656 31.0872 35.6899 33.5942 34.3336 36.1141C33.8964 36.9305 33.2858 37.3933 32.3279 37.3033C32.1801 37.2905 32.0258 37.2905 31.878 37.3033C30.9201 37.374 30.2902 36.9241 29.8402 36.1012C28.4774 33.5942 27.0889 31.1065 25.7197 28.6059C25.6168 28.413 25.5075 28.3552 25.3018 28.3552C23.4826 28.3616 21.6634 28.3616 19.8442 28.3616C19.5228 28.3616 19.2014 28.3809 18.8928 28.4709C18.4364 28.6059 18.1729 28.9209 18.0764 29.3708C18.0122 29.6858 17.98 30.0008 17.9672 30.3222C17.9607 30.5408 18.025 30.5922 18.2371 30.5922C19.5099 30.5858 20.7892 30.5858 22.0555 30.5858C23.3091 30.5858 24.5626 30.5858 25.8097 30.5858C26.2146 30.5858 26.3239 30.6951 26.3304 31.1C26.3368 31.4215 26.3304 31.7429 26.3304 32.0643C26.3304 32.5528 26.2275 32.6493 25.7518 32.6493C23.2641 32.6493 20.7892 32.6557 18.3014 32.6428C17.9993 32.6428 17.9479 32.7328 17.9607 33.0028C17.98 33.3242 18.0057 33.6456 18.07 33.9542C18.1664 34.4685 18.4878 34.7835 18.9957 34.9056C19.2785 34.9699 19.5678 34.9827 19.8571 34.9827C21.8498 34.9827 23.8362 34.9827 25.8289 34.9827C26.3111 34.9827 26.3882 35.0534 26.3882 35.5356C26.3882 35.9663 26.3946 36.3905 26.3882 36.8212C26.3818 37.2133 26.2982 37.2969 25.9189 37.2969C23.7976 37.2969 21.6827 37.2969 19.5614 37.2969C18.9892 37.2969 18.43 37.2262 17.8836 37.0591C16.8165 36.7377 16.2122 35.992 15.9487 34.9442C15.8008 34.3528 15.743 33.7421 15.743 33.1314C15.743 32.0707 15.7301 31.01 15.7494 29.9558C15.7623 29.403 15.8201 28.8501 15.968 28.3102C16.3087 27.0631 17.2086 26.311 18.6228 26.1246C18.9957 26.0731 19.3685 26.0474 19.7414 26.0474C22.0427 26.0474 24.3376 26.0538 26.6453 26.041C26.9475 26.041 27.1403 26.131 27.2882 26.4074C28.786 29.1651 30.2837 31.9229 31.788 34.6742C31.8458 34.7834 31.8715 34.9184 32.0387 34.9313C32.2315 34.9442 32.2637 34.7834 32.3215 34.6742C33.5493 32.3986 34.7707 30.1229 35.9856 27.8409C36.2556 27.3331 36.5385 26.8317 36.802 26.3238C36.9049 26.1246 37.0527 26.0474 37.2649 26.0474C39.8169 26.0538 42.3561 26.0538 44.9081 26.0538C45.2102 26.0538 45.5059 26.1053 45.8016 26.1696C46.9523 26.4203 47.6337 27.1402 47.8458 28.2845C48.0451 29.3644 48.0515 30.4572 47.8201 31.5307C47.608 32.5078 46.9973 33.1507 46.0202 33.4271C45.9238 33.4592 45.8273 33.4849 45.6988 33.5235Z" fill="white"/>
<path d="M22.0425 24.5111C20.0047 24.5111 17.9798 24.5111 15.942 24.5111C15.4277 24.5111 15.4277 24.5111 15.4277 23.9775C15.4277 23.7718 15.4406 23.5661 15.4213 23.3668C15.3956 23.0776 15.5177 22.994 15.7942 23.0004C16.932 23.0133 18.0633 22.9876 19.1947 23.0133C19.5354 23.0197 19.5997 22.9104 19.5868 22.6019C19.5997 21.9398 19.5997 21.3612 19.5804 20.7055C19.574 20.5512 19.5483 20.4612 19.394 20.3841C19.0469 20.217 18.8926 19.8377 18.9826 19.497C19.0854 19.1113 19.3747 18.8799 19.7861 18.8992C19.9661 18.912 20.024 18.8349 20.0947 18.6999C20.8211 17.395 21.5475 16.09 22.2803 14.7915C22.351 14.6629 22.3446 14.5665 22.2674 14.4379C22.0489 14.0908 22.0939 13.7051 22.351 13.4416C22.6146 13.178 23.0067 13.1266 23.3474 13.3516C23.4824 13.4416 23.566 13.4158 23.6817 13.3516C24.9159 12.6509 26.1566 11.9502 27.3908 11.2559C27.5515 11.1659 27.6415 11.0824 27.6286 10.8638C27.6093 10.5295 27.8343 10.2403 28.1493 10.131C28.4707 10.0153 28.8243 10.0988 29.03 10.401C29.1714 10.6195 29.3321 10.6388 29.5635 10.6131C30.5406 10.5231 31.5242 10.446 32.5013 10.3688C32.6427 10.356 32.752 10.356 32.8163 10.176C32.9512 9.816 33.2212 9.6553 33.5877 9.67458C33.9412 9.69387 34.2112 9.89314 34.2948 10.266C34.3398 10.4524 34.4233 10.5038 34.5776 10.5424C34.944 10.6324 35.304 10.7224 35.664 10.8188C35.8054 10.8574 35.8954 10.8445 36.0047 10.7288C36.2875 10.4395 36.6218 10.3753 36.9368 10.5167C37.2646 10.671 37.4189 10.9281 37.3803 11.3588C37.3675 11.5002 37.4125 11.5774 37.5153 11.6545C38.2932 12.2009 39.071 12.7537 39.8488 13.3066C39.9516 13.3773 40.0224 13.3708 40.1316 13.3194C40.4852 13.1394 40.8323 13.1973 41.0766 13.448C41.3337 13.7115 41.3852 14.0715 41.173 14.4251C41.0895 14.5665 41.1152 14.6501 41.1859 14.7658C42.1437 16.3471 43.1015 17.9221 44.0465 19.5034C44.13 19.6384 44.2072 19.6898 44.3743 19.6834C44.7793 19.6641 45.0686 19.8827 45.165 20.2427C45.2678 20.6348 45.1328 20.9755 44.7729 21.1619C44.6186 21.2391 44.58 21.3162 44.58 21.4769C44.58 21.8755 44.58 22.2612 44.58 22.6983C44.5672 22.9233 44.6379 22.9876 44.8629 22.9811C46.0071 22.9683 47.1578 22.9876 48.2956 22.9683C48.5977 22.9618 48.7263 23.0518 48.7005 23.3668C48.6748 23.6561 48.6941 23.9454 48.6941 24.2346C48.6941 24.4211 48.617 24.5175 48.4241 24.5046C48.3406 24.4982 48.2506 24.5046 48.167 24.5046C44.22 24.5046 40.2666 24.5175 36.3197 24.4918C35.7154 24.4853 35.1819 24.6075 34.6805 24.9225C34.2562 25.186 33.8512 25.4817 33.4334 25.7517C32.6298 26.2724 31.717 26.4717 30.8299 25.771C30.2707 25.3275 29.6728 24.9289 28.9979 24.6653C28.715 24.5561 28.4322 24.4982 28.1236 24.4982C26.1051 24.5111 24.0738 24.5111 22.0425 24.5111ZM20.3775 19.0535C21.7982 18.1471 23.2188 17.2407 24.6395 16.3343C24.7038 16.2957 24.7423 16.2443 24.7423 16.1543C24.7488 15.82 25.0573 15.8329 24.7359 15.5757C24.6073 15.5115 24.0288 15.0615 23.8809 14.9586C23.6431 14.8044 23.3988 14.5472 23.0517 14.7658C22.9938 14.7979 22.9038 14.7979 22.8331 14.7851C22.6981 14.7529 22.6403 14.8172 22.5824 14.9201C21.8303 16.2829 21.0782 17.6457 20.3261 19.002C20.3068 19.0277 20.3004 19.0599 20.3325 19.0792C20.339 19.0984 20.3647 19.0663 20.3775 19.0535ZM26.1823 15.2929C26.2208 15.2736 26.2594 15.2608 26.298 15.235C28.4322 13.7694 30.5599 12.3166 32.6941 10.851C32.7391 10.8188 32.7841 10.7867 32.7455 10.716C31.6334 10.7995 30.5149 10.8895 29.4028 10.9731C29.2743 10.986 29.21 11.0374 29.1586 11.1659C29.0493 11.4359 28.8371 11.6738 28.535 11.6416C28.175 11.6031 28.0786 11.8216 27.95 12.053C27.9115 12.1302 27.8665 12.2009 27.8215 12.278C27.2622 13.2744 26.703 14.2644 26.1437 15.2543C26.118 15.2608 26.0923 15.2736 26.118 15.3058C26.1244 15.3186 26.163 15.2993 26.1823 15.2929ZM34.1341 14.7529C33.7484 14.8172 33.3369 14.8879 32.9255 14.9522C30.8106 15.2929 28.7086 15.64 26.5937 15.9807C26.4458 16.0064 26.3044 16 26.2401 16.2186C26.1758 16.4436 26.343 16.4757 26.4394 16.5657C26.5872 16.72 26.7608 16.8485 26.9215 16.99C28.3615 18.2563 29.7885 19.5163 31.2285 20.7762C31.5885 21.0912 32.077 20.9819 32.257 20.5512C32.5591 19.8441 32.8613 19.137 33.1634 18.4299C33.6069 17.3757 34.0505 16.3279 34.494 15.28C34.5905 15.0486 34.3976 14.7465 34.1341 14.7529ZM22.4667 23.0068C23.2381 23.0068 24.0095 23.0068 24.7809 23.0068C24.948 23.0068 25.0637 22.994 25.0702 22.7754C25.1409 20.8341 25.218 18.8927 25.3016 16.9514C25.308 16.7907 25.2437 16.7328 25.1216 16.6621C24.9995 16.585 24.9095 16.5721 24.7809 16.6557C23.4052 17.5428 22.036 18.4299 20.6604 19.3106C20.5318 19.3941 20.5125 19.4713 20.5318 19.6191C20.5704 19.9534 20.4354 20.2427 20.1204 20.3841C19.9404 20.4677 19.9275 20.5705 19.9275 20.7312C19.934 21.3933 19.9404 22.0619 19.9211 22.724C19.9147 22.9747 19.9983 23.0197 20.2297 23.0197C20.9754 23.0004 21.7275 23.0068 22.4667 23.0068ZM25.3916 22.7047C25.308 22.9618 25.4302 23.0197 25.7001 23.0133C26.523 23.0004 27.3522 23.0326 28.175 23.0004C28.6186 22.9811 29.0171 23.0711 29.4093 23.2383C29.5507 23.3025 29.6407 23.2833 29.7564 23.1933C30.0521 22.949 30.3671 22.724 30.6692 22.4797C30.9713 22.2355 31.3956 22.0555 31.222 21.5348C31.2156 21.5155 31.222 21.4898 31.2349 21.4705C31.3056 21.3162 31.2413 21.2262 31.1192 21.1169C29.4607 19.6706 27.8086 18.2242 26.1566 16.765C26.0473 16.6686 25.9573 16.6493 25.8159 16.7071C25.668 16.765 25.6616 16.855 25.6551 16.9771C25.5652 18.8799 25.4816 20.7762 25.3916 22.7047ZM32.7584 21.2326C32.8163 21.2134 32.8805 21.1941 32.9384 21.1748C35.1047 20.4741 37.2646 19.7734 39.431 19.0856C39.6624 19.0149 39.7074 18.8735 39.7652 18.687C39.8231 18.4942 39.6688 18.4428 39.5724 18.3592C38.3189 17.3307 37.0589 16.3021 35.8118 15.28C35.4711 14.9972 34.9376 15.1258 34.764 15.5308C34.3462 16.5143 33.9348 17.4978 33.5169 18.4749C33.1891 19.2527 32.8548 20.0241 32.527 20.8019C32.437 21.0269 32.5527 21.2455 32.7584 21.2326ZM42.4651 22.9811C41.8994 21.9012 41.3466 20.8662 40.8066 19.8377C40.7359 19.7027 40.633 19.6963 40.5109 19.7091C40.2923 19.722 40.0995 19.6513 39.9645 19.4906C39.8424 19.3556 39.7395 19.3491 39.5724 19.4006C37.3868 20.1141 35.2076 20.8148 33.022 21.5219C32.9255 21.5541 32.7841 21.5412 32.7713 21.6826C32.7584 21.8433 32.9255 21.8433 33.022 21.8819C33.9412 22.229 34.8669 22.5697 35.7797 22.9104C35.9018 22.9554 36.024 22.994 36.1525 22.994C38.2546 22.9811 40.3309 22.9811 42.4651 22.9811ZM26.3108 15.6465C26.4073 15.6529 26.4394 15.6593 26.4715 15.6529C28.8371 15.2672 31.1963 14.8751 33.5619 14.4958C33.9348 14.4379 34.3398 14.4444 34.4298 13.9494C34.4362 13.9237 34.4683 13.898 34.494 13.8787C34.6097 13.7887 34.5969 13.6987 34.5455 13.5701C34.3333 13.043 34.1341 12.5159 33.9412 11.9823C33.8062 11.6031 33.7355 11.2174 33.202 11.1595C33.022 11.1402 32.9062 11.1145 32.752 11.2174C31.8906 11.8152 31.0228 12.4002 30.1614 12.9916C28.895 13.8723 27.6351 14.7401 26.3108 15.6465ZM40.3373 16.4821C40.3373 16.0772 40.3309 15.6722 40.3373 15.2608C40.3438 14.9908 40.3695 14.7336 40.0288 14.6308C39.9516 14.6051 39.8681 14.5087 39.8359 14.4251C39.7717 14.258 39.6624 14.2451 39.5081 14.2579C38.3574 14.3544 37.2068 14.4444 36.069 14.5344C35.9533 14.5408 35.844 14.5279 35.7925 14.6822C35.7411 14.8365 35.8568 14.8686 35.934 14.9329C37.2453 16.0129 38.5567 17.0864 39.8617 18.1599C39.9581 18.2435 40.0288 18.2756 40.1702 18.2113C40.3116 18.1406 40.3438 18.0635 40.3438 17.9156C40.3373 17.44 40.3373 16.9643 40.3373 16.4821ZM26.4008 14.0715C26.8894 13.2101 27.3779 12.3552 27.8665 11.5066C27.8022 11.4424 27.7636 11.4681 27.7251 11.4874C26.4201 12.2266 25.1216 12.9659 23.8295 13.7051C23.6495 13.808 23.6045 14.3222 23.7652 14.4444C24.1252 14.7272 24.4981 14.9972 24.8645 15.2736C24.9159 15.3122 24.9673 15.37 25.0316 15.3443M40.7552 14.7658C40.7295 14.7786 40.6973 14.7915 40.6716 14.8044C40.6716 15.8714 40.6716 16.9385 40.6716 18.0056C40.6716 18.1214 40.7359 18.1535 40.8195 18.1856C41.1087 18.2949 41.2694 18.5263 41.2952 18.822C41.3144 19.0213 41.4044 19.092 41.5716 19.1499C42.2337 19.4006 42.8829 19.6706 43.5451 19.9277C43.6286 19.9598 43.7251 20.0498 43.8086 19.9663C43.9243 19.8506 43.7829 19.767 43.7379 19.6898C43.0179 18.4878 42.2915 17.2921 41.5651 16.1029C41.2823 15.6593 41.0187 15.2093 40.7552 14.7658ZM44.2457 21.6183C44.1943 21.3612 44.2265 21.2198 43.9822 21.1105C43.7636 21.0141 43.6479 20.7955 43.6415 20.5641C43.6351 20.3648 43.5386 20.2941 43.3715 20.2298C42.7222 19.9791 42.0794 19.7156 41.4302 19.4649C41.3337 19.4263 41.2245 19.3042 41.1087 19.4199C40.9802 19.5484 41.1023 19.6577 41.1537 19.7606C41.6359 20.6734 42.1373 21.5798 42.5937 22.5054M36.1268 14.1744C37.2518 14.0844 38.3832 14.0008 39.5017 13.9108C39.5917 13.9044 39.7074 13.9237 39.7459 13.808C39.7974 13.6601 39.6495 13.6344 39.5724 13.583C38.9617 13.1523 38.351 12.7216 37.7467 12.2845C37.4253 12.0595 37.1361 11.7381 36.6925 12.0273C36.6797 12.0402 36.6475 12.0402 36.6282 12.0338C36.4418 11.9952 36.3711 12.1045 36.3004 12.2588C36.1011 12.683 35.889 13.1009 35.6768 13.5187C35.4904 13.9172 35.6833 14.2001 36.1268 14.1744ZM33.9926 11.1981C33.9991 11.2174 34.0119 11.2367 34.0183 11.2559C34.3076 12.0016 34.5969 12.7473 34.8797 13.493C34.9183 13.5958 34.9762 13.6408 35.0919 13.6537C35.2076 13.6665 35.2719 13.6151 35.3169 13.5187C35.5547 13.0173 35.799 12.5223 36.0368 12.0209C36.0625 11.9695 36.1075 11.9245 36.069 11.8473C35.8761 11.4552 35.6833 11.0824 35.1433 11.0695C34.8926 11.0631 34.6483 10.9474 34.404 10.8895C34.2562 10.851 33.9926 11.0631 33.9926 11.1981ZM35.2397 23.0647C34.3848 22.7433 33.5941 22.454 32.8098 22.1583C32.707 22.1197 32.6298 22.1262 32.5527 22.2033C32.4756 22.2869 32.5077 22.3512 32.5527 22.4347C32.7777 22.8783 33.0027 23.3283 33.2148 23.7782C33.2727 23.9004 33.3177 23.9711 33.4719 23.8747C33.9991 23.534 34.5776 23.2961 35.2397 23.0647ZM32.1991 24.7103C32.4434 24.6011 32.707 24.3696 32.9705 24.1447C33.0477 24.0804 32.9641 24.0032 32.9384 23.9454C32.7134 23.489 32.4756 23.0326 32.2441 22.5761C32.212 22.5054 32.1799 22.4347 32.0899 22.4476C31.987 22.4604 32.0063 22.5504 31.9934 22.6211C31.897 23.1547 31.807 23.6882 31.7106 24.2282C31.6527 24.5303 31.807 24.7168 32.1991 24.7103ZM31.3506 24.2668C31.4599 23.6561 31.5627 23.1161 31.6656 22.5697C31.6784 22.4862 31.6913 22.4026 31.6013 22.3447C31.5113 22.2869 31.447 22.3062 31.3699 22.364C30.9135 22.724 30.4506 23.0776 29.9621 23.4568C30.4442 23.7204 30.9071 23.9325 31.3506 24.2668Z" fill="white"/>
<path d="M27.2109 38.8075C28.3809 38.8075 29.5444 38.814 30.7079 38.8011C30.9394 38.8011 31.0358 38.8397 31.0358 39.1097C31.0229 40.8839 31.0229 42.6581 31.0358 44.4323C31.0358 44.6573 31.0101 44.7473 30.7465 44.7473C28.6702 44.7344 26.6003 44.7409 24.5239 44.7473C24.3246 44.7473 24.2604 44.6959 24.2089 44.4966C23.7461 42.7288 23.5083 40.9417 23.4054 39.1225C23.3925 38.859 23.4697 38.8075 23.714 38.8075C24.8775 38.814 26.041 38.8075 27.2109 38.8075Z" fill="white"/>
<path d="M36.4612 44.7409C35.4199 44.7409 34.3849 44.7344 33.3499 44.7473C33.1507 44.7473 33.0735 44.7151 33.08 44.4902C33.0928 42.6774 33.0928 40.8775 33.08 39.0647C33.08 38.8461 33.1507 38.8011 33.3499 38.8076C35.7156 38.814 38.0747 38.814 40.4468 38.8076C40.6782 38.8076 40.7296 38.8654 40.7168 39.0968C40.6268 40.691 40.4211 42.266 40.0868 43.828C39.8875 44.7473 39.9004 44.7537 38.9747 44.7537C38.1326 44.7409 37.2969 44.7409 36.4612 44.7409Z" fill="white"/>
<path d="M42.0024 44.7409C42.4524 42.8445 42.6838 40.9674 42.7546 39.0582C42.761 38.8397 42.8381 38.8011 43.0374 38.8011C44.728 38.8075 46.4122 38.8075 48.1029 38.8011C48.315 38.8011 48.3857 38.8525 48.36 39.0711C48.1736 41.006 47.6786 42.8445 46.8365 44.5994C46.7851 44.7023 46.7337 44.7473 46.6244 44.7473C45.0944 44.7409 43.5709 44.7409 42.0024 44.7409Z" fill="white"/>
<path d="M18.5648 38.8075C19.4005 38.8075 20.2362 38.814 21.0718 38.8011C21.2647 38.8011 21.3483 38.8268 21.3547 39.0518C21.4383 40.916 21.6311 42.7545 22.0811 44.5737C22.1454 44.8437 21.9461 44.7344 21.8561 44.7344C20.6026 44.7408 19.3491 44.6959 18.102 44.7601C17.4784 44.7923 17.202 44.5801 16.9835 44.0273C16.3471 42.4267 15.8971 40.7939 15.7428 39.0775C15.7235 38.8718 15.7685 38.8011 15.9871 38.8075C16.8549 38.8204 17.7034 38.8075 18.5648 38.8075Z" fill="white"/>
<path d="M24.9673 46.8043C25.0381 46.7979 25.1088 46.7915 25.1795 46.7915C27.0308 46.7915 28.8757 46.7979 30.7335 46.785C30.9778 46.785 31.0356 46.8493 31.0292 47.0872C31.0164 49.1635 31.0164 51.2334 31.0292 53.3162C31.0292 53.5862 30.9842 53.6376 30.7142 53.554C29.3707 53.1298 28.3293 52.2812 27.4422 51.227C26.3494 49.9349 25.5716 48.4564 24.9609 46.8815C24.9545 46.8622 24.9609 46.8429 24.9673 46.8043Z" fill="white"/>
<path d="M33.0863 50.2306C33.0863 49.1699 33.0927 48.1093 33.0798 47.0615C33.0798 46.8815 33.0991 46.7915 33.3177 46.7915C35.1883 46.7979 37.0589 46.7979 38.9296 46.7915C39.1288 46.7915 39.1738 46.8429 39.1031 47.0293C38.2867 49.0349 37.2454 50.8927 35.5804 52.3327C34.9248 52.8983 34.1855 53.3162 33.3562 53.5733C33.1441 53.6376 33.0798 53.6119 33.0863 53.374C33.0927 52.3198 33.0863 51.2784 33.0863 50.2306Z" fill="white"/>
<path d="M25.668 52.4741C24.7616 52.1334 23.9195 51.6705 23.1096 51.1499C21.3804 50.0442 19.9083 48.6621 18.6998 47.0036C18.6612 46.9522 18.6098 46.9136 18.6226 46.8365C18.674 46.7593 18.7576 46.7979 18.8283 46.7979C20.0304 46.7979 21.2261 46.8043 22.4217 46.7915C22.6339 46.7915 22.7432 46.8429 22.8139 47.055C23.4824 48.9835 24.3824 50.7899 25.6809 52.3777C25.6937 52.3905 25.6937 52.4162 25.7002 52.4355C25.6937 52.4484 25.6809 52.4612 25.668 52.4741Z" fill="white"/>
<path d="M38.4153 52.4355C39.0195 51.5934 39.6302 50.7577 40.0995 49.8385C40.5688 48.9128 40.9995 47.9678 41.3337 46.9907C41.3723 46.875 41.4044 46.785 41.5651 46.785C42.8829 46.7915 44.1943 46.7915 45.5828 46.7915C45.2871 47.1707 45.0364 47.5114 44.7664 47.8328C43.0372 49.8963 40.9416 51.452 38.4539 52.4741C38.4346 52.4612 38.4281 52.4484 38.4153 52.4355Z" fill="white"/>
<path d="M38.4474 52.4741C38.4217 52.4805 38.3767 52.4934 38.3767 52.4869C38.3574 52.4484 38.3896 52.4484 38.4153 52.4355C38.4282 52.4484 38.4346 52.4612 38.4474 52.4741Z" fill="white"/>
<path d="M25.7068 52.4355C25.7325 52.4419 25.7646 52.4548 25.7454 52.4869C25.7389 52.4934 25.6939 52.4741 25.6682 52.4741C25.6811 52.4612 25.6939 52.4484 25.7068 52.4355Z" fill="white"/>
<path d="M34.1341 14.7529C34.3977 14.7465 34.5905 15.0486 34.4941 15.2865C34.0505 16.3407 33.607 17.3949 33.1634 18.4363C32.8613 19.1434 32.5592 19.8505 32.257 20.5576C32.0771 20.9883 31.5821 21.0976 31.2285 20.7826C29.7886 19.5163 28.3615 18.2563 26.9216 16.9964C26.7609 16.855 26.5937 16.72 26.4394 16.5721C26.3495 16.4821 26.1823 16.45 26.2402 16.225C26.3045 16.0064 26.4459 16.0129 26.5937 15.9871C28.7086 15.64 30.8107 15.2993 32.9256 14.9586C33.3499 14.8879 33.7548 14.8172 34.1341 14.7529Z" fill="#221F51"/>
<path d="M22.4668 23.0133C21.7146 23.0133 20.969 23.0068 20.2169 23.0197C19.9854 23.0261 19.9019 22.9811 19.9083 22.724C19.9147 22.0747 19.9212 21.3998 19.9147 20.7312C19.9147 20.5705 19.9276 20.4677 20.1076 20.3841C20.4161 20.2427 20.5576 19.9534 20.519 19.6191C20.4997 19.4648 20.519 19.3941 20.6476 19.3106C22.0296 18.4299 23.3989 17.5492 24.7681 16.6557C24.8966 16.5721 24.9866 16.585 25.1088 16.6621C25.2245 16.7328 25.2952 16.7907 25.2888 16.9514C25.2052 18.8927 25.1281 20.8341 25.0574 22.7754C25.0509 22.994 24.9352 23.0068 24.7681 23.0068C24.0095 23.0133 23.2382 23.0133 22.4668 23.0133Z" fill="#221F51"/>
<path d="M25.3916 22.7111C25.4752 20.7826 25.5587 18.8927 25.6423 16.9899C25.6487 16.8678 25.6616 16.7778 25.803 16.72C25.9444 16.6621 26.028 16.6814 26.1437 16.7778C27.7958 18.237 29.4478 19.6834 31.1063 21.1298C31.222 21.2326 31.2928 21.329 31.222 21.4833C31.2156 21.5026 31.2092 21.5283 31.2092 21.5476C31.3763 22.0683 30.9585 22.2483 30.6564 22.4926C30.3542 22.7304 30.0457 22.9618 29.7435 23.2061C29.6278 23.2961 29.5378 23.3154 29.3964 23.2511C29.0043 23.0775 28.6057 22.994 28.1622 23.0132C27.3394 23.0518 26.5165 23.0132 25.6873 23.0261C25.4366 23.0261 25.3144 22.9618 25.3916 22.7111Z" fill="#221F51"/>
<path d="M32.7585 21.2391C32.5528 21.2455 32.4371 21.0333 32.5335 20.8084C32.8613 20.0305 33.1956 19.2591 33.5234 18.4813C33.9413 17.4978 34.3527 16.5143 34.7705 15.5372C34.9441 15.1322 35.4776 15.0036 35.8183 15.2865C37.0719 16.315 38.3318 17.3435 39.5789 18.3656C39.6753 18.4492 39.8296 18.5006 39.7717 18.6935C39.7139 18.8799 39.6689 19.0149 39.4375 19.092C37.2647 19.7734 35.1112 20.4805 32.9449 21.1812C32.8806 21.2005 32.8228 21.2198 32.7585 21.2391Z" fill="#221F51"/>
<path d="M42.4651 22.9875C40.331 22.9875 38.2546 22.9875 36.1654 22.9875C36.0369 22.9875 35.9147 22.949 35.7926 22.904C34.8733 22.5633 33.9477 22.2226 33.0349 21.8754C32.9384 21.8369 32.7713 21.8369 32.7841 21.6762C32.7906 21.5347 32.9384 21.5476 33.0349 21.5155C35.2205 20.8084 37.3997 20.1012 39.5853 19.3941C39.746 19.3427 39.8553 19.3491 39.9774 19.4841C40.1124 19.6448 40.3117 19.7155 40.5238 19.7027C40.6459 19.6963 40.7488 19.6963 40.8195 19.8313C41.3531 20.8726 41.8995 21.9076 42.4651 22.9875Z" fill="#221F51"/>
<path d="M26.311 15.6529C27.6288 14.7465 28.8952 13.8722 30.1616 13.0044C31.023 12.413 31.8908 11.8216 32.7522 11.2302C32.9065 11.1273 33.0222 11.1531 33.2022 11.1723C33.7357 11.2302 33.8064 11.6159 33.9414 11.9952C34.1343 12.5287 34.3335 13.0558 34.5457 13.5829C34.5971 13.7115 34.61 13.8015 34.4942 13.8915C34.4685 13.9108 34.4364 13.9365 34.43 13.9622C34.34 14.4636 33.935 14.4508 33.5621 14.5086C31.1965 14.8879 28.8374 15.28 26.4717 15.6657C26.4396 15.6657 26.4075 15.6593 26.311 15.6529Z" fill="#221F51"/>
<path d="M40.3374 16.4821C40.3374 16.9643 40.3309 17.4464 40.3374 17.9221C40.3374 18.0635 40.3052 18.1471 40.1638 18.2178C40.0288 18.2821 39.9581 18.2435 39.8553 18.1663C38.5439 17.0864 37.2325 16.0129 35.9276 14.9393C35.8504 14.8751 35.7412 14.8429 35.7861 14.6886C35.8376 14.5344 35.9469 14.5472 36.0626 14.5408C37.2132 14.4508 38.3639 14.3608 39.5017 14.2644C39.656 14.2515 39.7653 14.2644 39.8295 14.4315C39.8617 14.5151 39.9388 14.6115 40.0224 14.6372C40.3631 14.7401 40.3374 14.9972 40.3309 15.2672C40.3309 15.6722 40.3374 16.0772 40.3374 16.4821Z" fill="#221F51"/>
<path d="M26.1501 15.2672C26.7094 14.2708 27.2687 13.2808 27.8279 12.2909C27.8729 12.2137 27.9179 12.143 27.9565 12.0659C28.0851 11.8345 28.1815 11.6159 28.5415 11.6545C28.8372 11.6866 29.0557 11.4488 29.165 11.1788C29.2164 11.0438 29.2807 10.9923 29.4093 10.9859C30.5278 10.9024 31.6463 10.8124 32.752 10.7288C32.7906 10.8059 32.7456 10.8381 32.7006 10.8638C30.5664 12.3294 28.4386 13.7822 26.3044 15.2479C26.2723 15.2736 26.2273 15.2864 26.1887 15.3057C26.1759 15.2864 26.163 15.28 26.1501 15.2672Z" fill="#221F51"/>
<path d="M24.6716 15.5243C25.038 15.775 24.7488 15.8329 24.7423 16.1672C24.7423 16.2572 24.7038 16.3086 24.6395 16.3471C23.2188 17.2535 21.7982 18.1599 20.3775 19.0663C20.3647 19.0535 20.3518 19.0406 20.3325 19.0277C21.0846 17.6649 21.8367 16.3021 22.5888 14.9458C22.6467 14.8429 22.7046 14.7722 22.8396 14.8108C22.9103 14.8301 23.0003 14.8301 23.0581 14.7915" fill="#221F51"/>
<path d="M27.8666 11.5131C27.3845 12.3616 26.8895 13.223 26.401 14.0779C26.2981 14.2515 25.9317 14.9072 25.8289 15.0808C25.4174 15.8072 25.4496 15.1965 25.0317 15.3572C24.961 15.3829 24.9096 15.325 24.8646 15.2865C24.4982 15.01 24.1254 14.7401 23.7654 14.4572C23.6047 14.3287 23.6497 13.8208 23.8297 13.718C25.1282 12.9787 26.4331 12.2395 27.7252 11.5002C27.7638 11.4745 27.8023 11.4488 27.8666 11.5131Z" fill="#221F51"/>
<path d="M40.7554 14.7722C41.0189 15.2157 41.2889 15.6593 41.5525 16.1028C42.2789 17.2985 43.0053 18.4942 43.7252 19.6898C43.7702 19.767 43.9116 19.8505 43.7959 19.9662C43.7059 20.0498 43.6159 19.9598 43.5324 19.9277C42.8767 19.6705 42.221 19.4006 41.5589 19.1498C41.3918 19.0856 41.3018 19.0213 41.2825 18.822C41.2568 18.5263 41.1025 18.3013 40.8068 18.1856C40.7232 18.1535 40.6589 18.1213 40.6589 18.0056C40.6654 16.9385 40.6589 15.8714 40.6589 14.8043C40.6975 14.7979 40.7232 14.785 40.7554 14.7722Z" fill="#221F51"/>
<path d="M44.1817 22.9361C44.021 23.0775 43.6481 23.0132 43.3781 22.994C43.1017 22.9747 42.8446 22.8461 42.6067 22.5247C42.1503 21.599 41.6489 20.6926 41.1668 19.7798C41.109 19.6705 40.9932 19.5613 41.1218 19.4391C41.2375 19.3234 41.3404 19.4455 41.4432 19.4841C42.0925 19.7348 42.7353 19.9984 43.3846 20.2491C43.5517 20.3134 43.6481 20.3776 43.6546 20.5834C43.661 20.8148 43.7767 21.0333 43.9953 21.1298C44.2395 21.239 44.2717 21.3805 44.2588 21.6376" fill="#221F51"/>
<path d="M36.127 14.1808C35.6835 14.2065 35.4906 13.9172 35.6835 13.5315C35.8892 13.1137 36.1077 12.6958 36.307 12.2716C36.3777 12.1237 36.4484 12.0144 36.6348 12.0466C36.6541 12.053 36.6798 12.0466 36.6991 12.0402C37.1427 11.7445 37.4384 12.0723 37.7534 12.2973C38.3641 12.728 38.9747 13.1587 39.579 13.5958C39.6561 13.6537 39.804 13.6794 39.7526 13.8208C39.714 13.9365 39.5983 13.9172 39.5083 13.9236C38.3833 14.0072 37.2584 14.0908 36.127 14.1808Z" fill="#221F51"/>
<path d="M33.9927 11.2045C33.9927 11.0695 34.2562 10.8574 34.3977 10.8895C34.6484 10.9474 34.8926 11.0631 35.1369 11.0695C35.6769 11.0823 35.8633 11.4552 36.0626 11.8473C36.1012 11.9245 36.0562 11.9695 36.0304 12.0209C35.7926 12.5223 35.5547 13.0173 35.3105 13.5187C35.2655 13.6151 35.2012 13.6601 35.0855 13.6537C34.9698 13.6408 34.9184 13.5958 34.8734 13.493C34.5905 12.7473 34.3012 12.0016 34.012 11.2559C34.012 11.2431 33.9991 11.2238 33.9927 11.2045Z" fill="#221F51"/>
<path d="M35.2399 23.0711C34.5777 23.3025 33.9992 23.5404 33.4721 23.8811C33.3242 23.9775 33.2792 23.9068 33.2149 23.7847C32.9964 23.3347 32.7778 22.8847 32.5528 22.4411C32.5143 22.3576 32.4757 22.2933 32.5528 22.2097C32.63 22.1262 32.7071 22.1262 32.81 22.1647C33.6006 22.454 34.3849 22.7497 35.2399 23.0711Z" fill="#221F51"/>
<path d="M32.1993 24.7167C31.8072 24.7167 31.6529 24.5303 31.7107 24.2346C31.8072 23.7011 31.8972 23.1675 31.9936 22.6276C32.0064 22.5568 31.9872 22.4668 32.09 22.454C32.1864 22.4411 32.2122 22.5183 32.2443 22.5826C32.4757 23.039 32.7071 23.4954 32.9385 23.9518C32.9707 24.0096 33.0478 24.0932 32.9707 24.1511C32.7071 24.3761 32.4436 24.6075 32.1993 24.7167Z" fill="#221F51"/>
<path d="M31.3507 24.2732C30.9135 23.9325 30.4443 23.7204 29.9622 23.4632C30.4507 23.084 30.9071 22.7304 31.37 22.3704C31.4471 22.3126 31.5114 22.2869 31.6014 22.3511C31.6914 22.4154 31.6849 22.4926 31.6657 22.5761C31.5628 23.129 31.4599 23.6689 31.3507 24.2732Z" fill="#221F51"/>
<path d="M20.3777 19.0599C20.3649 19.0727 20.3456 19.1049 20.3392 19.0984C20.307 19.0792 20.3134 19.047 20.3327 19.0213C20.3456 19.0342 20.3649 19.0406 20.3777 19.0599Z" fill="#221F51"/>
<path d="M26.1824 15.2993C26.1631 15.3058 26.1245 15.325 26.1181 15.3186C26.0924 15.2929 26.1181 15.2736 26.1438 15.2672C26.1631 15.28 26.1759 15.2865 26.1824 15.2993Z" fill="#221F51"/>
<path d="M22.7112 15.0743C23.2259 15.0743 23.6433 14.657 23.6433 14.1422C23.6433 13.6274 23.2259 13.2101 22.7112 13.2101C22.1964 13.2101 21.7791 13.6274 21.7791 14.1422C21.7791 14.657 22.1964 15.0743 22.7112 15.0743Z" fill="white"/>
<path d="M32.09 22.7818C32.6758 22.7818 33.1506 22.3069 33.1506 21.7212C33.1506 21.1354 32.6758 20.6605 32.09 20.6605C31.5042 20.6605 31.0293 21.1354 31.0293 21.7212C31.0293 22.3069 31.5042 22.7818 32.09 22.7818Z" fill="white"/>
<path d="M44.413 21.4962C44.9988 21.4962 45.4736 21.0213 45.4736 20.4355C45.4736 19.8497 44.9988 19.3748 44.413 19.3748C43.8272 19.3748 43.3523 19.8497 43.3523 20.4355C43.3523 21.0213 43.8272 21.4962 44.413 21.4962Z" fill="white"/>
<path d="M22.7753 15.1386C23.3611 15.1386 23.8359 14.6637 23.8359 14.0779C23.8359 13.4921 23.3611 13.0173 22.7753 13.0173C22.1895 13.0173 21.7146 13.4921 21.7146 14.0779C21.7146 14.6637 22.1895 15.1386 22.7753 15.1386Z" fill="white"/>
<path d="M25.5394 17.0028C26.1252 17.0028 26.6001 16.5279 26.6001 15.9421C26.6001 15.3563 26.1252 14.8815 25.5394 14.8815C24.9536 14.8815 24.4788 15.3563 24.4788 15.9421C24.4788 16.5279 24.9536 17.0028 25.5394 17.0028Z" fill="white"/>
<path d="M40.4982 19.9534C41.084 19.9534 41.5588 19.4785 41.5588 18.8927C41.5588 18.3069 41.084 17.8321 40.4982 17.8321C39.9124 17.8321 39.4375 18.3069 39.4375 18.8927C39.4375 19.4785 39.9124 19.9534 40.4982 19.9534Z" fill="white"/>
<path d="M40.4982 15.0743C41.084 15.0743 41.5588 14.5994 41.5588 14.0136C41.5588 13.4278 41.084 12.953 40.4982 12.953C39.9124 12.953 39.4375 13.4278 39.4375 14.0136C39.4375 14.5994 39.9124 15.0743 40.4982 15.0743Z" fill="white"/>
<path d="M35.0406 15.5243C35.6264 15.5243 36.1013 15.0494 36.1013 14.4636C36.1013 13.8778 35.6264 13.403 35.0406 13.403C34.4549 13.403 33.98 13.8778 33.98 14.4636C33.98 15.0494 34.4549 15.5243 35.0406 15.5243Z" fill="white"/>
<path d="M19.7606 20.7248C20.3464 20.7248 20.8213 20.2499 20.8213 19.6641C20.8213 19.0783 20.3464 18.6035 19.7606 18.6035C19.1748 18.6035 18.7 19.0783 18.7 19.6641C18.7 20.2499 19.1748 20.7248 19.7606 20.7248Z" fill="white"/>
<path d="M36.5834 12.3809C37.1692 12.3809 37.644 11.906 37.644 11.3202C37.644 10.7344 37.1692 10.2596 36.5834 10.2596C35.9976 10.2596 35.5227 10.7344 35.5227 11.3202C35.5227 11.906 35.9976 12.3809 36.5834 12.3809Z" fill="white"/>
<path d="M33.5621 11.6095C34.1479 11.6095 34.6228 11.1346 34.6228 10.5488C34.6228 9.96301 34.1479 9.48813 33.5621 9.48813C32.9763 9.48813 32.5015 9.96301 32.5015 10.5488C32.5015 11.1346 32.9763 11.6095 33.5621 11.6095Z" fill="white"/>
<path d="M28.3614 11.9309C28.9472 11.9309 29.4221 11.456 29.4221 10.8702C29.4221 10.2844 28.9472 9.80957 28.3614 9.80957C27.7757 9.80957 27.3008 10.2844 27.3008 10.8702C27.3008 11.456 27.7757 11.9309 28.3614 11.9309Z" fill="white"/>
<path d="M31.9292 56.0803C28.6636 56.0803 25.4945 55.4439 22.5118 54.184C19.6319 52.969 17.0413 51.2334 14.8236 49.0157C12.5994 46.7979 10.8573 44.2201 9.63593 41.3531C8.37599 38.3768 7.73315 35.2206 7.73315 31.9678C7.73315 28.7151 8.37599 25.5524 9.63593 22.5825C10.8573 19.7091 12.5994 17.1314 14.8236 14.92C17.0477 12.7023 19.6319 10.9666 22.5118 9.75169C25.4945 8.49175 28.6636 7.85535 31.9292 7.85535C35.1948 7.85535 38.3639 8.49175 41.3467 9.75169C44.2265 10.9666 46.8171 12.7023 49.0349 14.92C51.2591 17.1378 53.0011 19.7155 54.2225 22.5825C55.4825 25.5588 56.1253 28.7151 56.1253 31.9678C56.1253 35.2206 55.4825 38.3833 54.2225 41.3531C53.0011 44.2266 51.2591 46.8043 49.0349 49.0157C46.8107 51.2334 44.2265 52.969 41.3467 54.184C38.3639 55.4375 35.1948 56.0803 31.9292 56.0803ZM31.9292 8.1639C18.7641 8.1639 8.05457 18.8413 8.05457 31.9614C8.05457 45.0815 18.7641 55.7589 31.9292 55.7589C45.0943 55.7589 55.8039 45.0815 55.8039 31.9614C55.7974 18.8413 45.0879 8.1639 31.9292 8.1639Z" fill="white"/>
<path d="M31.9614 64C27.6481 64 23.4632 63.1515 19.5227 61.4865C15.7172 59.873 12.2973 57.5653 9.36601 54.6276C6.42829 51.6898 4.12696 48.2636 2.51346 44.458C0.848536 40.5111 0 36.3198 0 32C0 27.6802 0.842108 23.489 2.51346 19.542C4.12053 15.73 6.42829 12.3102 9.36601 9.37244C12.3037 6.43471 15.7172 4.12696 19.5227 2.51346C23.4632 0.842108 27.6481 0 31.9614 0C36.2748 0 40.4596 0.848536 44.4002 2.51346C48.2057 4.12696 51.6256 6.43471 54.5569 9.37244C57.4946 12.3102 59.7959 15.7364 61.4094 19.542C63.0743 23.489 63.9229 27.6802 63.9229 32C63.9229 36.3198 63.0808 40.5111 61.4094 44.458C59.8023 48.27 57.4946 51.6898 54.5569 54.6276C51.6191 57.5653 48.2057 59.873 44.4002 61.4865C40.4596 63.1515 36.2748 64 31.9614 64ZM31.9614 0.417838C14.5729 0.417838 0.424267 14.5858 0.424267 31.9936C0.424267 49.4078 14.5729 63.5693 31.9614 63.5693C49.3499 63.5693 63.4986 49.4014 63.4986 31.9936C63.4986 14.5793 49.3499 0.417838 31.9614 0.417838Z" fill="white"/>
</g>
<defs>
<clipPath id="clip0_408_3054">
<rect width="63.9229" height="64" fill="white"/>
</clipPath>
</defs>
</svg>
