<svg width="94" height="93" viewBox="0 0 94 93" fill="none" xmlns="http://www.w3.org/2000/svg">
<g filter="url(#filter0_d_136_209)">
<path d="M46.9109 91.7209C72.626 91.7209 93.4722 71.2943 93.4722 46.0968C93.4722 20.8993 72.626 0.472656 46.9109 0.472656C21.1958 0.472656 0.349609 20.8993 0.349609 46.0968C0.349609 71.2943 21.1958 91.7209 46.9109 91.7209Z" fill="#221F51"/>
<path d="M46.8919 90.9357C21.5146 90.9265 0.963379 70.8204 0.963379 46.0042C0.963379 21.1973 21.5429 1.0728 46.9202 1.08203C72.307 1.09127 92.8676 21.2342 92.8487 46.0689C92.8298 70.8574 72.2503 90.9449 46.8919 90.9357ZM18.4734 69.5275C18.2657 70.1647 18.0579 70.7835 17.8501 71.4115C17.6423 72.0488 17.4157 72.6861 17.2173 73.3326C17.1418 73.5911 16.9812 73.5727 16.7923 73.5542C16.1501 73.4803 15.5079 73.4064 14.8657 73.3418C13.8551 73.231 12.854 73.1294 11.8434 73.0185C11.8245 73.0647 11.8056 73.1201 11.7868 73.1663C21.3823 84.323 33.5563 90.1599 48.5636 89.6519C62.6169 89.1717 73.8653 83.0854 82.5448 72.3536C80.7881 72.4829 79.0503 72.6491 77.3314 72.8708C76.9253 72.9262 76.812 72.7507 76.7176 72.4459C76.3681 71.3561 76.0092 70.2663 75.6409 69.158C68.1042 77.6456 58.6786 82.2727 47.1563 82.3558C35.6435 82.4297 26.1424 77.9411 18.4734 69.5275ZM10.984 45.9673C10.8895 65.2329 26.9263 81.0813 46.7502 81.1644C66.612 81.2475 82.847 65.5561 82.8659 46.0597C82.8942 26.6186 66.8008 10.8718 46.9297 10.8626C26.9829 10.8441 10.9273 26.7294 10.984 45.9673ZM22.0907 17.3091C22.119 17.6139 22.0435 17.9186 22.3835 18.0572C22.714 18.1957 22.9501 18.011 23.1862 17.817C23.3846 17.6508 23.5924 17.4846 23.8001 17.3183C23.9796 17.1798 23.8946 17.069 23.8001 16.9304C23.6774 16.7549 23.5735 16.8381 23.4601 16.9304C23.2901 17.069 23.1296 17.2167 22.9501 17.3368C22.6951 17.4938 22.5723 17.4014 22.5723 17.1151C22.5723 16.9674 22.629 16.8565 22.714 16.7365C23.2051 16.0438 23.2807 15.3049 22.9785 14.5107C22.6101 13.5225 21.4957 12.8852 20.4096 13.0791C19.4085 13.2546 18.7001 14.1505 18.6907 15.2033C18.7096 16.5148 20.0507 18.1311 22.0907 17.3091ZM58.2725 6.37407C58.3386 6.55878 58.3953 6.66961 58.4142 6.78043C58.6408 7.84253 58.9053 8.90464 59.0564 9.97597C59.1414 10.5578 59.4436 10.7795 59.963 10.8811C60.1708 10.9272 60.2464 10.8718 60.3031 10.6964C60.7092 9.49572 61.1153 8.29508 61.5214 7.09445C61.5969 6.87279 61.5969 6.69731 61.2853 6.62343C60.9925 6.54954 60.8886 6.60495 60.8508 6.9005C60.8319 7.07597 60.7375 7.24222 60.6808 7.4177C60.3881 8.29508 60.0953 9.16323 59.8025 10.0499C59.6514 9.9575 59.6703 9.84667 59.6514 9.74508C59.4153 8.6368 59.1414 7.52852 58.9525 6.41101C58.8675 5.92152 58.6219 5.74604 58.1969 5.63522C57.9514 5.57057 57.8191 5.55209 57.7247 5.85687C57.3564 7.0575 56.9503 8.2489 56.5347 9.43107C56.4403 9.70814 56.4969 9.79126 56.7614 9.87438C57.0353 9.9575 57.1108 9.87438 57.1864 9.63425C57.5358 8.55368 57.8947 7.50082 58.2725 6.37407ZM3.82506 42.624C3.71172 43.0488 3.85339 43.2151 4.32561 43.252C5.49673 43.3444 6.67729 43.4829 7.83896 43.6307C8.12229 43.6676 8.25452 43.6584 8.31118 43.3259C8.36785 42.9473 8.16007 42.9657 7.91451 42.9473C7.55562 42.9195 7.19674 42.8734 6.83785 42.8272C6.7434 42.8179 6.63951 42.8087 6.5734 42.7533C6.43174 42.6332 6.69618 41.645 6.88507 41.5711C7.37618 41.3772 7.87674 41.1832 8.3773 40.9985C8.73619 40.8692 8.67007 40.546 8.61341 40.3336C8.52841 40.038 8.30174 40.3059 8.16952 40.3428C7.78229 40.4721 7.39507 40.6106 7.03618 40.7861C6.75284 40.9246 6.64896 40.8323 6.55451 40.5829C6.34673 40.0657 5.94062 39.8164 5.39284 39.8071C4.83562 39.7979 4.43895 40.0657 4.21228 40.5644C3.89117 41.2294 3.93839 41.9498 3.82506 42.624ZM34.3118 8.49827C34.9824 7.84254 35.0957 7.33457 34.7085 6.71578C34.3779 6.18011 33.6979 6.01388 32.8952 6.26324C32.3568 6.42948 31.8279 6.61419 31.2896 6.79891C31.1668 6.84508 31.0157 6.86356 31.0913 7.07598C31.5352 8.31355 31.9791 9.55113 32.3946 10.7887C32.4891 11.075 32.6496 10.9642 32.8291 10.9272C33.0463 10.8718 33.0935 10.7518 33.0179 10.5578C32.8763 10.1699 32.7441 9.78202 32.6118 9.39412C32.5835 9.311 32.4891 9.20018 32.5929 9.154C32.9046 9.01546 33.2352 8.90463 33.5657 8.81228C33.7641 8.75686 33.8585 8.96928 33.9718 9.07087C34.3118 9.36642 34.633 9.68043 34.9541 9.99444C35.2185 10.253 35.5018 10.0868 35.6718 9.93903C35.8607 9.77279 35.5585 9.67119 35.4641 9.57884C35.1052 9.20017 34.6991 8.84922 34.3118 8.49827ZM40.4319 8.96928C41.6596 8.98776 42.6135 8.05495 42.6419 6.80814C42.6702 5.52438 41.7163 4.48076 40.498 4.46229C39.2796 4.44382 38.3069 5.28426 38.2596 6.6419C38.2124 7.89795 39.2419 8.95081 40.4319 8.96928ZM75.2159 15.7298C75.3103 15.8221 75.3953 15.8868 75.4709 15.9607C75.9053 16.3763 76.3398 16.8011 76.7742 17.226C76.9631 17.4107 77.1142 17.3553 77.2937 17.1798C77.492 16.9858 77.3503 16.8935 77.2181 16.7734C76.6042 16.2008 75.9998 15.6282 75.3953 15.0463C75.2159 14.8709 75.0648 14.8432 74.8853 15.0279C73.9787 15.9607 73.0625 16.8935 72.1464 17.817C71.9859 17.974 72.0331 18.0479 72.1748 18.1772C72.8264 18.7775 73.4687 19.3871 74.1014 20.0059C74.3092 20.1998 74.432 20.1352 74.602 19.9689C74.8003 19.7842 74.6775 19.6919 74.5453 19.5626C74.2525 19.2855 73.9598 18.9992 73.667 18.7221C72.902 18.0017 72.9114 18.0018 73.6764 17.2537C73.8653 17.0782 73.9598 17.0874 74.1298 17.2629C74.517 17.6508 74.9231 18.0018 75.3103 18.3804C75.5181 18.5836 75.622 18.4451 75.7731 18.3158C75.9431 18.168 75.8864 18.0756 75.7542 17.9463C75.4614 17.6877 75.1876 17.4107 74.9042 17.1521C74.2998 16.5887 74.2998 16.5979 74.9042 16.0069C74.9987 15.9145 75.1025 15.8314 75.2159 15.7298ZM84.7548 44.8406C84.7643 44.8406 84.7643 44.8406 84.7737 44.8406C84.7737 45.2839 84.7831 45.7364 84.7737 46.1797C84.7643 46.4014 84.8493 46.4753 85.0759 46.4753C85.2931 46.466 85.4443 46.4383 85.4159 46.1705C85.3781 45.7734 85.3498 45.3762 85.3498 44.9699C85.3498 43.6769 85.0381 44.0093 86.3981 43.8985C86.6909 43.8708 86.7381 44.0001 86.7381 44.2402C86.7476 44.7297 86.7759 45.2192 86.8043 45.7179C86.8137 45.9027 86.757 46.1151 87.097 46.1058C87.4654 46.0966 87.3993 45.875 87.3898 45.6718C87.3804 45.3762 87.3804 45.0899 87.352 44.7944C87.2859 43.8523 87.2859 43.8616 88.2776 43.8523C88.5515 43.8523 88.627 43.9355 88.627 44.1848C88.627 44.7851 88.6648 45.3855 88.6648 45.9858C88.6648 46.2536 88.7593 46.3183 89.0237 46.3183C89.3165 46.3183 89.3071 46.1613 89.2976 45.9673C89.2598 45.1361 89.2221 44.3049 89.2032 43.4829C89.1937 43.2151 89.1182 43.1412 88.8443 43.1597C87.5693 43.2058 86.2943 43.252 85.0287 43.2705C84.7265 43.2797 84.6509 43.3998 84.6793 43.6676C84.7076 44.0463 84.7265 44.4434 84.7548 44.8406ZM5.52506 57.0409C6.7434 56.7638 8.08452 56.4498 9.43508 56.1358C9.55786 56.1081 9.57675 56.0249 9.54841 55.9326C9.33119 55.0275 9.11397 54.1224 8.8873 53.2173C8.83063 52.9956 8.67008 53.0603 8.50952 53.0788C8.31119 53.1065 8.24507 53.1711 8.30174 53.3835C8.41508 53.7991 8.51896 54.2148 8.61341 54.6304C8.83063 55.6001 8.82119 55.5816 7.84841 55.831C7.48952 55.9233 7.38563 55.8125 7.32896 55.4893C7.23452 54.9813 7.09284 54.4826 6.97007 53.9746C6.90395 53.716 6.71507 53.8176 6.55451 53.8361C6.34673 53.8638 6.37506 53.9562 6.42229 54.1224C6.52618 54.5011 6.61118 54.8982 6.66785 55.2861C6.70563 55.5354 6.97007 55.831 6.80951 55.9972C6.63951 56.1635 6.28062 56.1358 6.01618 56.2374C5.65729 56.3759 5.5534 56.2096 5.49673 55.9049C5.37395 55.323 5.22284 54.7412 5.10006 54.1593C5.04339 53.91 4.90173 53.9469 4.71284 53.9839C4.53339 54.0208 4.43895 54.0485 4.49562 54.2794C4.71284 55.1198 4.91117 55.9788 5.11895 56.8284C5.16617 56.9854 5.20395 57.1055 5.52506 57.0409ZM79.2676 23.303C80.1176 23.7186 80.637 23.6724 81.0998 23.1552C81.5248 22.6842 81.4776 21.9916 80.977 21.2989C80.6653 20.874 80.3348 20.4677 80.0326 20.0428C79.9003 19.8581 79.8059 19.8489 79.6265 19.9782C78.597 20.7355 77.5581 21.4836 76.5192 22.2132C76.302 22.3702 76.3492 22.4533 76.472 22.6473C76.6231 22.8874 76.7553 22.8135 76.9159 22.6935C77.3031 22.4072 77.6903 22.1209 78.1059 21.8253C78.2476 22.0008 78.3609 22.1763 78.512 22.3333C78.8142 22.6288 78.8803 22.9244 78.6348 23.2938C78.4459 23.5708 78.342 23.9033 78.1531 24.1896C77.8981 24.5683 78.0209 24.8269 78.3703 25.0855C78.7292 24.5221 78.9748 23.9033 79.2676 23.303ZM51.7936 8.88616C52.6908 8.88616 53.3897 8.30432 53.5219 7.43617C53.6352 6.65114 53.7297 5.85687 53.8619 5.07184C53.9186 4.75783 53.843 4.647 53.5219 4.60082C53.1725 4.55464 53.1725 4.74859 53.1441 4.97948C53.0402 5.7368 52.9458 6.50337 52.823 7.26069C52.7097 7.97183 52.2658 8.32279 51.6047 8.26738C50.8963 8.20273 50.5186 7.78712 50.5847 7.04827C50.6602 6.24477 50.7736 5.43203 50.9058 4.63776C50.953 4.37916 50.9341 4.27757 50.6508 4.24063C50.3863 4.21292 50.2163 4.19445 50.188 4.5454C50.1219 5.27502 50.018 6.01387 49.8952 6.73425C49.6969 7.99954 50.4713 8.8954 51.7936 8.88616ZM10.389 23.6724C10.1717 23.7186 10.1056 24.0049 9.93564 24.1989C9.75619 24.4021 9.86952 24.5129 9.98286 24.6607C10.8045 25.6858 11.6168 26.7202 12.4479 27.7454C12.5518 27.8747 12.6368 28.161 12.8351 27.9855C12.9862 27.847 13.2884 27.6068 12.9484 27.3298C12.3629 26.868 12.4195 26.3785 12.8823 25.8705C12.9295 25.8151 12.9673 25.7412 13.0051 25.6766C13.4584 24.9562 13.4584 24.9562 14.3273 25.1132C14.3934 25.1224 14.4501 25.1501 14.5162 25.1409C14.7901 25.1132 14.8184 24.8546 14.9129 24.6791C14.979 24.5498 14.7995 24.5221 14.7051 24.5037C13.2884 24.2358 11.8906 23.968 10.389 23.6724ZM9.01952 31.5782C9.21785 31.5412 9.32174 31.5227 9.43508 31.5043C9.9923 31.4119 10.5495 31.3288 11.1068 31.2364C11.4845 31.1718 11.5034 30.8208 11.494 30.5992C11.4845 30.3868 11.2012 30.553 11.0595 30.5715C10.4551 30.6731 9.85063 30.7839 9.25563 30.9224C9.00063 30.9778 8.85896 30.9317 8.7173 30.71C8.3584 30.1836 7.98063 29.6849 7.59341 29.1769C7.53674 29.103 7.45174 28.8813 7.3384 29.0661C7.19674 29.297 6.97951 29.5371 7.26285 29.8511C7.60285 30.2298 7.87674 30.6638 8.2073 31.0517C8.41508 31.3011 8.34896 31.3657 8.05618 31.4027C7.52729 31.4766 7.00785 31.5874 6.47896 31.6613C6.10118 31.7167 6.01618 32.0307 6.0634 32.2801C6.11062 32.5479 6.38451 32.3355 6.53562 32.317C7.07396 32.2339 7.62174 32.1323 8.15063 32.003C8.45285 31.9291 8.60396 32.0122 8.76452 32.2431C9.13285 32.7788 9.52008 33.296 9.89785 33.8224C9.96397 33.9148 10.1056 34.0995 10.1623 33.9702C10.2568 33.7393 10.5779 33.5269 10.2945 33.1944C9.86008 32.6957 9.47285 32.16 9.01952 31.5782ZM7.72562 48.4794C7.48007 48.581 7.36673 48.6272 7.2534 48.6734C6.20506 49.089 5.16617 49.523 4.10839 49.9202C3.71172 50.0679 3.84395 50.3542 3.91006 50.5667C3.99506 50.8437 4.20284 50.6221 4.33506 50.5667C5.54395 50.0864 6.7434 49.5784 7.94285 49.0982C8.2073 48.9874 8.3584 48.8765 8.29229 48.5625C8.22618 48.2762 8.36785 47.9437 7.87674 47.8237C6.61118 47.5189 5.36451 47.1495 4.10839 46.8078C3.97617 46.7708 3.80617 46.6138 3.68339 46.7985C3.5795 46.9463 3.65505 47.131 3.68339 47.2972C3.72117 47.5004 3.92894 47.4727 4.06117 47.5097C5.24173 47.8329 6.42229 48.1377 7.72562 48.4794ZM80.4009 28.3087C80.4481 28.9183 80.7031 29.4724 81.232 29.8973C81.6854 30.2575 82.2426 30.2852 82.7242 29.9804C83.187 29.6941 83.3193 29.3154 83.1681 28.7059C83.0642 28.2626 82.9509 27.81 82.8565 27.3667C82.8092 27.145 82.8565 26.9419 83.0737 26.8033C83.2909 26.6648 83.5176 26.6556 83.7348 26.7849C84.3204 27.1081 84.547 27.9855 84.1315 28.475C83.8954 28.7521 84.1598 28.8906 84.2448 29.0106C84.3487 29.1584 84.4715 28.946 84.5565 28.8629C84.7265 28.6966 84.8304 28.4935 84.8587 28.2533C84.9531 27.5514 84.6604 26.988 84.1881 26.5078C83.782 26.0922 83.2626 26.0091 82.8187 26.2492C82.3653 26.4893 82.1954 26.8772 82.3181 27.4683C82.4031 27.8562 82.5165 28.2441 82.6298 28.6228C82.7431 29.0014 82.677 29.3339 82.2992 29.5278C81.9026 29.731 81.5437 29.6017 81.2981 29.2785C80.9015 28.7705 80.6748 28.1702 81.1848 27.653C81.402 27.4406 81.2226 27.2651 81.0998 27.1358C80.9109 26.9326 80.8354 27.2005 80.7504 27.2836C80.4954 27.5514 80.4103 27.8931 80.4009 28.3087ZM68.397 14.5107C68.397 14.3998 68.3875 14.3537 68.397 14.3167C68.7275 13.1623 69.0297 12.0078 69.3886 10.8718C69.5209 10.4655 69.1903 10.41 69.0014 10.3269C68.7464 10.2161 68.7936 10.5209 68.7464 10.6502C68.5386 11.3244 68.3497 11.9986 68.1609 12.6728C68.0003 13.2454 67.8492 13.8272 67.6792 14.3998C67.547 14.8524 67.9625 14.9078 68.1797 15.111C68.397 15.3049 68.5481 15.2033 68.737 15.0648C69.7947 14.289 70.862 13.5317 71.9103 12.7559C72.0142 12.682 72.3353 12.6266 72.1275 12.4234C71.9764 12.2757 71.7875 11.9709 71.457 12.2387C71.0603 12.562 70.6353 12.8575 70.2198 13.1623C69.6248 13.6056 69.0392 14.0397 68.397 14.5107ZM29.684 12.1556C28.6263 11.269 27.559 10.3823 26.5201 9.47725C26.2651 9.25559 26.0951 9.1817 25.7646 9.36642C25.4435 9.54189 25.3774 9.73584 25.434 10.0591C25.6607 11.3983 25.8779 12.7374 26.114 14.1043C26.3124 13.9658 26.6807 14.0397 26.6146 13.6333C26.4635 12.7005 26.4635 12.7005 27.2851 12.2664C27.4079 12.2018 27.5401 12.1464 27.6535 12.054C28.0879 11.7123 28.4657 11.6938 28.834 12.1556C29.0796 12.5158 29.3818 12.5158 29.684 12.1556ZM84.7454 50.5851C84.5092 50.4928 84.4337 50.6405 84.3865 50.9084C84.3298 51.2132 84.4809 51.2593 84.7359 51.287C85.7843 51.4163 86.8231 51.5733 87.8715 51.6934C88.1643 51.7304 88.2398 51.8135 88.1643 52.0905C88.0982 52.3584 88.0982 52.6355 88.0509 52.9125C88.0226 53.1249 88.1359 53.1711 88.3154 53.1896C88.5043 53.2081 88.6459 53.2173 88.6837 52.9679C88.8159 51.9982 88.9482 51.0192 89.0898 50.0495C89.1182 49.8371 89.0993 49.7078 88.8254 49.68C88.5515 49.6523 88.457 49.7355 88.4381 49.994C88.4193 50.2342 88.3437 50.4835 88.3437 50.7237C88.3437 51.0469 88.202 51.0469 87.9376 51.01C86.8987 50.853 85.8504 50.7237 84.7454 50.5851ZM83.9992 38.588C83.9709 38.9113 84.1031 39.0129 84.4526 38.9297C85.227 38.7543 86.0204 38.6157 86.8043 38.4587C87.8715 38.2463 87.8715 38.2463 88.0982 39.2807C88.1454 39.4746 88.1454 39.6594 88.4759 39.5947C88.797 39.5301 88.7309 39.3453 88.6932 39.1606C88.5137 38.2463 88.3248 37.332 88.1454 36.4084C88.1076 36.196 88.032 36.0852 87.777 36.1406C87.5315 36.1868 87.4654 36.3068 87.5315 36.5192C87.5882 36.7224 87.6354 36.9348 87.692 37.138C87.7865 37.4797 87.692 37.6367 87.2954 37.7014C86.3037 37.8584 85.3215 38.0708 84.3393 38.2648C84.1504 38.3017 83.9142 38.2925 83.9992 38.588ZM13.9212 19.0361C13.7229 19.1008 13.6473 19.267 13.534 19.3871C13.4301 19.4979 13.5151 19.6088 13.619 19.7011C14.6201 20.56 15.6118 21.4282 16.6034 22.2871C16.7262 22.3887 16.8301 22.4441 16.9529 22.2963C17.5101 21.6591 18.0768 21.0218 18.6434 20.3845C18.8418 20.1629 18.6529 20.0705 18.5301 19.9412C18.379 19.775 18.2846 19.8489 18.1712 19.9874C17.8123 20.4123 17.4157 20.8094 17.0662 21.2435C16.8679 21.4836 16.7451 21.4836 16.5184 21.2804C15.7629 20.597 14.979 19.932 14.2045 19.267C14.1101 19.1747 14.0157 19.1008 13.9212 19.0361ZM87.5126 57.2717C87.8148 57.3456 87.7015 57.0039 87.7959 56.8561C87.947 56.616 87.7298 56.616 87.5882 56.5791C86.8043 56.3667 86.0109 56.1635 85.227 55.951C84.7265 55.8217 84.2259 55.6925 83.7348 55.5447C83.4043 55.4523 83.4231 55.7294 83.357 55.8864C83.2815 56.0434 83.3192 56.1727 83.527 56.2281C84.8398 56.5514 86.1337 56.9023 87.5126 57.2717ZM65.7903 8.62756C65.7242 8.45209 65.5258 8.44285 65.3842 8.35973C65.2142 8.25814 65.1197 8.36897 65.0536 8.5075C64.4775 9.66196 63.9108 10.8164 63.3158 11.9524C63.1742 12.2202 63.297 12.2849 63.4858 12.3957C63.722 12.525 63.8447 12.4788 63.9581 12.2479C64.5153 11.1212 65.082 10.0037 65.6486 8.88616C65.6958 8.80304 65.7431 8.71992 65.7903 8.62756ZM82.8754 34.0995C82.932 34.081 82.9698 34.0625 83.017 34.0533C84.2637 33.6377 85.5104 33.2129 86.7665 32.7973C87.0404 32.7049 86.927 32.5756 86.8704 32.4186C86.8137 32.2524 86.8137 32.0861 86.5398 32.1785C85.2837 32.6126 84.0181 33.0374 82.7526 33.4622C82.6109 33.5084 82.507 33.5823 82.6109 33.7208C82.7054 33.8409 82.6393 34.081 82.8754 34.0995Z" fill="white"/>
<path d="M46.9107 90.4647C40.7718 90.4647 34.8218 89.2918 29.2118 86.9644C23.8001 84.7294 18.9362 81.5154 14.7617 77.4332C10.5872 73.351 7.31002 68.5947 5.01501 63.3027C2.64444 57.8167 1.43555 51.9982 1.43555 45.995C1.43555 39.9919 2.635 34.1734 5.01501 28.6874C7.31002 23.3954 10.5872 18.639 14.7617 14.5569C18.9362 10.4747 23.8001 7.26996 29.2118 5.0257C34.8218 2.70755 40.7718 1.52539 46.9107 1.52539C53.0496 1.52539 58.9997 2.69831 64.6097 5.0257C70.0214 7.26996 74.8853 10.4747 79.0597 14.5569C83.2342 18.639 86.5114 23.3954 88.8064 28.6874C91.177 34.1734 92.3859 39.9919 92.3859 45.995C92.3859 51.9982 91.1864 57.8167 88.8064 63.3027C86.5114 68.5947 83.2342 73.351 79.0597 77.4332C74.8853 81.5154 70.0214 84.7201 64.6097 86.9644C58.9997 89.2918 53.0402 90.4647 46.9107 90.4647ZM46.9107 10.7703C27.0395 10.7703 10.8706 26.5817 10.8706 46.0135C10.8706 65.4453 27.0395 81.2568 46.9107 81.2568C66.7819 81.2568 82.9509 65.4453 82.9509 46.0135C82.9414 26.5725 66.7819 10.7703 46.9107 10.7703Z" fill="white"/>
<path d="M18.5488 69.4451C26.2177 77.8495 35.7189 82.3473 47.2412 82.2642C58.7729 82.181 68.1985 77.554 75.7257 69.0664C76.0846 70.1747 76.4529 71.2645 76.8024 72.3543C76.8968 72.6591 77.0102 72.8346 77.4163 72.7791C79.1446 72.5667 80.8729 72.3912 82.6296 72.262C73.9501 82.9938 62.6923 89.0801 48.6484 89.5603C33.6411 90.0775 21.4483 84.2406 11.8716 73.0747C11.8905 73.0285 11.9094 72.9731 11.9282 72.9269C12.9388 73.0377 13.9399 73.1393 14.9505 73.2502C15.5927 73.324 16.2349 73.3887 16.8772 73.4626C17.0755 73.4811 17.2266 73.4995 17.3022 73.2409C17.491 72.5944 17.7177 71.9572 17.9349 71.3199C18.1333 70.7104 18.3411 70.0823 18.5488 69.4451ZM44.2661 86.0138C44.2661 86.1801 44.2567 86.3555 44.2661 86.5218C44.2945 87.2145 44.8517 87.7317 45.5884 87.7409C46.3628 87.7594 46.92 87.3068 46.9673 86.5957C46.9862 86.2724 46.9767 85.9492 46.9767 85.6259C46.9673 84.9425 46.5989 84.4899 45.9756 84.3699C45.2484 84.2314 44.6628 84.5084 44.37 85.1087C44.2284 85.4043 44.285 85.709 44.2661 86.0138ZM48.7239 86.9466C48.9695 86.725 49.1395 86.5864 49.2812 86.4294C49.4417 86.2632 49.6117 86.097 49.7345 85.903C50.0273 85.4505 49.9706 84.9794 49.5928 84.6562C49.0356 84.1759 48.0628 84.2406 47.6 84.8132C47.5245 84.9055 47.2789 85.081 47.4773 85.1641C47.6945 85.2565 47.9212 85.6536 48.2234 85.3119C48.4406 85.0718 48.705 84.9517 48.9506 85.1826C49.215 85.4227 48.9884 85.6536 48.8184 85.8568C48.7239 85.9584 48.62 86.06 48.5162 86.1524C48.2139 86.4294 47.9212 86.6973 47.6189 86.9651C47.4206 87.1406 47.4678 87.3715 47.5056 87.5654C47.5528 87.7778 47.77 87.6762 47.9023 87.6762C48.4689 87.6855 49.0356 87.667 49.6023 87.6855C49.8384 87.6947 49.9139 87.6301 49.9328 87.3807C49.9517 87.0205 49.8478 86.882 49.4701 86.9282C49.2623 86.9743 49.0545 86.9466 48.7239 86.9466ZM51.7273 86.9466C51.9445 86.7435 52.0956 86.6142 52.2278 86.4849C52.379 86.3278 52.5395 86.1801 52.6623 86.0046C53.0495 85.4597 52.9551 84.9148 52.4356 84.5638C51.8406 84.1575 50.8962 84.3422 50.5184 84.9333C50.4617 85.0164 50.3389 85.1549 50.4901 85.2011C50.7545 85.2842 50.9906 85.6998 51.3212 85.2565C51.4817 85.0441 51.7273 85.0348 51.954 85.1826C52.2184 85.3673 52.0767 85.552 51.9351 85.7275C51.8217 85.8661 51.6989 86.0046 51.5573 86.1339C51.2456 86.4294 50.9245 86.725 50.5939 87.0113C50.3862 87.1868 50.4617 87.4176 50.4995 87.6116C50.5373 87.7778 50.7451 87.6855 50.8678 87.6947C51.444 87.704 52.0295 87.6855 52.6151 87.704C52.8606 87.7132 52.9173 87.6301 52.9362 87.3899C52.9645 87.0113 52.8228 86.9005 52.464 86.9466C52.2656 86.9651 52.0484 86.9466 51.7273 86.9466ZM42.585 86.9466C42.9156 86.6049 43.2461 86.3925 43.4634 86.0785C43.6617 85.8014 43.8317 85.5151 43.7184 85.1457C43.5956 84.7116 43.2934 84.4715 42.8684 84.3791C42.3017 84.2591 41.8011 84.3976 41.4422 84.8501C41.3761 84.924 41.1022 85.0718 41.3667 85.1919C41.5745 85.2842 41.7822 85.589 42.0467 85.3396C42.2922 85.1087 42.5567 84.9425 42.8117 85.1919C43.095 85.4689 42.8211 85.7275 42.6134 85.9307C42.245 86.2817 41.8672 86.6326 41.4895 86.9743C41.2911 87.1498 41.3384 87.3807 41.3761 87.5747C41.4139 87.7871 41.6406 87.6855 41.7728 87.6855C42.3206 87.6947 42.8684 87.6762 43.4256 87.6947C43.7467 87.7132 43.8034 87.5931 43.8128 87.3068C43.8223 86.9743 43.69 86.9189 43.4067 86.9374C43.1517 86.9651 42.9061 86.9466 42.585 86.9466ZM40.12 85.3027C39.695 85.3027 39.3739 85.6075 39.3739 86.0231C39.3739 86.4387 39.6856 86.7619 40.1011 86.7712C40.5167 86.7804 40.8472 86.4479 40.8567 86.0415C40.8567 85.6352 40.5356 85.3119 40.12 85.3027ZM54.1545 85.3027C53.739 85.3027 53.4179 85.6167 53.4084 86.0231C53.399 86.4294 53.7295 86.7619 54.1356 86.7619C54.5606 86.7712 54.9195 86.4202 54.9101 86.0138C54.9101 85.6259 54.5701 85.3119 54.1545 85.3027Z" fill="#221F51"/>
<path d="M44.2665 86.013C44.2759 85.7082 44.2287 85.4035 44.3704 85.1079C44.6632 84.5076 45.2487 84.2305 45.9759 84.3691C46.5993 84.4891 46.9676 84.9417 46.9771 85.6251C46.9865 85.9484 46.9959 86.2716 46.9676 86.5948C46.9204 87.306 46.3632 87.7493 45.5887 87.7401C44.8521 87.7216 44.2854 87.2136 44.2665 86.521C44.2665 86.3455 44.2665 86.1792 44.2665 86.013ZM46.1743 86.0592C46.1743 85.8929 46.1743 85.7175 46.1743 85.5512C46.1743 85.2095 45.9382 85.0987 45.6548 85.0894C45.3715 85.0802 45.1259 85.191 45.1165 85.5327C45.1071 85.8745 45.1071 86.207 45.1165 86.5487C45.1259 86.8904 45.3621 86.992 45.6548 86.9827C45.9476 86.9735 46.1743 86.8719 46.1743 86.521C46.1743 86.3732 46.1743 86.2162 46.1743 86.0592Z" fill="white"/>
<path d="M48.7239 86.9466C49.0544 86.9466 49.2717 86.9651 49.4889 86.9374C49.8667 86.8912 49.9705 87.0297 49.9517 87.3899C49.9328 87.6393 49.8572 87.7039 49.6211 87.6947C49.0544 87.6762 48.4878 87.6947 47.9211 87.6855C47.7794 87.6855 47.5622 87.7871 47.5244 87.5746C47.4867 87.3807 47.4394 87.1498 47.6378 86.9743C47.94 86.7065 48.2422 86.4387 48.535 86.1616C48.6389 86.0692 48.7428 85.9769 48.8372 85.866C49.0072 85.6629 49.2339 85.4227 48.9694 85.1919C48.7239 84.9702 48.4594 85.081 48.2422 85.3211C47.9305 85.6629 47.7133 85.2565 47.4961 85.1734C47.2978 85.0903 47.5433 84.9148 47.6189 84.8224C48.0722 84.2498 49.0544 84.1852 49.6117 84.6654C49.98 84.9887 50.0461 85.4689 49.7533 85.9122C49.6305 86.1062 49.4606 86.2724 49.3 86.4387C49.1206 86.5864 48.9694 86.725 48.7239 86.9466Z" fill="white"/>
<path d="M51.7276 86.946C52.0487 86.946 52.266 86.9645 52.4737 86.946C52.8326 86.8999 52.9743 87.0199 52.946 87.3894C52.9271 87.6295 52.8704 87.7034 52.6248 87.7034C52.0487 87.6849 51.4632 87.7034 50.8776 87.6941C50.7548 87.6941 50.5471 87.7865 50.5093 87.611C50.4715 87.4171 50.3959 87.1862 50.6037 87.0107C50.9248 86.7244 51.246 86.4288 51.5671 86.1333C51.6993 86.004 51.8221 85.8655 51.9449 85.7269C52.0865 85.5515 52.2187 85.3575 51.9637 85.182C51.7371 85.025 51.4915 85.0435 51.331 85.2559C51.0098 85.6992 50.7643 85.2744 50.4998 85.2005C50.3487 85.1543 50.4715 85.0158 50.5282 84.9327C50.906 84.3416 51.8598 84.1661 52.4454 84.5632C52.9648 84.9142 53.0593 85.4683 52.6721 86.004C52.5493 86.1795 52.3887 86.3273 52.2376 86.4843C52.096 86.6228 51.9448 86.7429 51.7276 86.946Z" fill="white"/>
<path d="M42.5854 86.9462C42.9159 86.9462 43.1521 86.9647 43.3976 86.9462C43.6809 86.9278 43.8132 86.9832 43.8037 87.3157C43.7943 87.6112 43.7376 87.722 43.4165 87.7036C42.8687 87.6759 42.3209 87.7036 41.7637 87.6943C41.622 87.6943 41.4048 87.7959 41.367 87.5835C41.3293 87.3895 41.282 87.1587 41.4804 86.9832C41.8582 86.6415 42.2359 86.2905 42.6043 85.9396C42.8215 85.7364 43.0954 85.487 42.8026 85.2007C42.5476 84.9513 42.2737 85.1176 42.0376 85.3485C41.7826 85.5978 41.5654 85.2931 41.3576 85.2007C41.0932 85.0806 41.367 84.9329 41.4332 84.859C41.792 84.3972 42.302 84.2679 42.8593 84.388C43.2843 84.4803 43.5865 84.7205 43.7093 85.1545C43.8226 85.524 43.6432 85.8103 43.4543 86.0873C43.2465 86.3921 42.9159 86.6045 42.5854 86.9462Z" fill="white"/>
<path d="M40.1203 85.3027C40.5359 85.3027 40.8665 85.6352 40.857 86.0416C40.8476 86.448 40.517 86.7712 40.1015 86.7712C39.6859 86.762 39.3648 86.4387 39.3742 86.0231C39.3742 85.6168 39.6953 85.3027 40.1203 85.3027Z" fill="white"/>
<path d="M54.1545 85.3027C54.5701 85.3027 54.9006 85.6168 54.9101 86.0231C54.9195 86.4295 54.5606 86.7804 54.1356 86.7712C53.7201 86.762 53.399 86.4387 53.4084 86.0324C53.4179 85.6167 53.739 85.3027 54.1545 85.3027Z" fill="white"/>
<path d="M8.32053 46.5215L8.51886 49.7909L3.84384 50.068L3.64551 46.8447L4.13662 46.817L4.29717 49.4677L5.82718 49.3753L5.68551 47.011L6.17663 46.9833L6.31829 49.3476L7.98997 49.246L7.81996 46.5492L8.32053 46.5215Z" fill="#221F51"/>
<path d="M3.78737 50.1139L3.57959 46.7983L4.16515 46.7614L4.3257 49.412L5.76126 49.3289L5.6196 46.9645L6.20515 46.9276L6.34682 49.2919L7.92405 49.1996L7.75405 46.5028L8.35849 46.4658L8.56627 49.8276H8.51905L3.78737 50.1139ZM3.68348 46.8907L3.87237 50.0215L8.45294 49.7537L8.26405 46.5766L7.8485 46.5951L8.0185 49.2919L6.25238 49.4028L6.11071 47.0384L5.71404 47.0569L5.85571 49.4212L4.23126 49.5228L4.0707 46.8722L3.68348 46.8907Z" fill="#221F51"/>
<path d="M8.56624 42.0608L8.48124 43.012L3.66455 44.1757L3.72122 43.5662L8.25457 42.5133L3.99511 40.6662L4.05178 40.0566L8.56624 42.0608Z" fill="#221F51"/>
<path d="M3.60791 44.2313L3.67402 43.5294L8.10348 42.5043L3.93847 40.6941L4.00458 39.9922L8.61348 42.0333L8.51904 43.0492L3.60791 44.2313ZM3.75902 43.5941L3.7118 44.1021L8.43404 42.9661L8.5096 42.0794L4.08013 40.1215L4.03291 40.6294L8.39626 42.5135L3.75902 43.5941Z" fill="#221F51"/>
<path d="M8.11297 35.3369L10.0113 34.8844L9.85075 35.5124L7.70686 36.0111L7.36685 37.3318L9.25575 37.8028L9.11408 38.3662L4.57129 37.2395L5.08129 35.2815C5.15684 34.986 5.27962 34.7274 5.44962 34.5242C5.61963 34.3118 5.81796 34.164 6.05407 34.0809C6.29019 33.9978 6.53574 33.9885 6.80018 34.0532C7.16852 34.1455 7.44241 34.3395 7.61241 34.635C7.78241 34.9306 7.84852 35.2815 7.79185 35.6786C7.86741 35.4755 7.9713 35.3646 8.11297 35.3369ZM7.25352 35.8449C7.32907 35.5401 7.31963 35.2723 7.2063 35.0414C7.09296 34.8105 6.91352 34.6627 6.64907 34.5981C6.38463 34.5334 6.15796 34.5796 5.95018 34.7366C5.7424 34.8936 5.60073 35.1153 5.52518 35.42L5.17573 36.7869L6.90408 37.2118L7.25352 35.8449Z" fill="#221F51"/>
<path d="M9.14261 38.4215L4.50537 37.2762L5.02482 35.2721C5.10037 34.9673 5.2326 34.6995 5.4026 34.4963C5.58204 34.2747 5.78037 34.1269 6.02593 34.0438C6.27149 33.9606 6.52649 33.9514 6.80038 34.0161C7.1876 34.1084 7.47094 34.3116 7.64094 34.6164C7.78261 34.8657 7.85816 35.152 7.84872 35.4661C7.92428 35.3737 7.99983 35.3183 8.10372 35.2998L10.0776 34.8288L9.88873 35.5584L7.74483 36.0571L7.42372 37.3039L9.31261 37.775L9.14261 38.4215ZM4.61871 37.2116L9.0765 38.3106L9.19928 37.8396L7.31038 37.3686L7.66927 35.974L7.6976 35.9648L7.73538 35.6692C7.79205 35.2906 7.73539 34.9489 7.56539 34.6533C7.40483 34.3762 7.14038 34.1823 6.78149 34.0899C6.52649 34.0253 6.29038 34.0345 6.06371 34.1176C5.83704 34.2008 5.64815 34.3393 5.47815 34.5425C5.3176 34.7364 5.19482 34.9858 5.11926 35.2813L4.61871 37.2116ZM9.94539 34.9489L8.12261 35.3829C7.99983 35.4106 7.90539 35.503 7.82983 35.6969L7.71649 35.9648L9.81317 35.4753L9.94539 34.9489ZM6.9326 37.267L5.11926 36.8237L5.47815 35.4106C5.55371 35.0966 5.69538 34.8657 5.92204 34.6995C6.13927 34.5333 6.38482 34.4871 6.65871 34.5517C6.9326 34.6164 7.12149 34.7734 7.24427 35.0227C7.3576 35.2536 7.37649 35.5307 7.29149 35.854L6.9326 37.267ZM5.2326 36.759L6.86649 37.1654L7.20649 35.8447C7.28205 35.5399 7.26316 35.2906 7.15927 35.0689C7.04593 34.8473 6.87594 34.7087 6.63038 34.6533C6.37538 34.5887 6.1676 34.6348 5.96927 34.7826C5.77093 34.9396 5.62927 35.152 5.56315 35.4383L5.2326 36.759Z" fill="#221F51"/>
<path d="M10.8141 27.4321L12.1552 29.5932L11.8341 30.1843L10.4363 27.7461L7.71631 27.9862L8.02798 27.4136L10.5024 27.2659L9.21798 25.1971L9.52965 24.6152L10.8708 26.9426L13.7136 26.7025L13.4019 27.2843L10.8141 27.4321Z" fill="#221F51"/>
<path d="M11.8341 30.2855L10.408 27.8011L7.63135 28.0505L7.99968 27.3763L10.4175 27.2285L9.16135 25.2059L9.52969 24.5225L10.8991 26.896L13.7986 26.6559L13.4303 27.3393L10.8991 27.4871L12.2119 29.6021L11.8341 30.2855ZM10.4647 27.6995L11.8341 30.0916L12.0986 29.6021L10.7386 27.3947L13.3736 27.247L13.6286 26.7667L10.8425 26.9976L9.53913 24.7164L9.28413 25.1967L10.5969 27.3024L8.07524 27.4502L7.82024 27.9212L10.4647 27.6995Z" fill="#221F51"/>
<path d="M14.469 23.5251L15.1679 24.5595L14.7996 25.0398L12.1079 20.9114L12.6368 20.2188L17.4252 21.6226L17.0568 22.1028L15.8479 21.7334L14.469 23.5251ZM12.5424 20.6898L14.1668 23.1003L15.3568 21.5579L12.5424 20.6898Z" fill="#221F51"/>
<path d="M14.7902 25.1227L12.0513 20.9205L12.6179 20.1816L17.5102 21.6132L17.0852 22.1673L15.8763 21.7979L14.5257 23.5342L15.2246 24.5686L14.7902 25.1227ZM12.1646 20.9113L14.7996 24.9472L15.1113 24.5501L14.4124 23.5157L15.8385 21.6778L17.0474 22.0472L17.3591 21.6501L12.6652 20.274L12.1646 20.9113ZM14.1668 23.1832L12.4385 20.6157L15.4418 21.5393L14.1668 23.1832ZM12.6557 20.7727L14.1668 23.017L15.2718 21.5762L12.6557 20.7727Z" fill="#221F51"/>
<path d="M21.212 17.8445L18.9831 19.9687L15.7153 16.6808L16.1403 16.2744L19.0587 19.2021L20.8626 17.4843L21.212 17.8445Z" fill="#221F51"/>
<path d="M18.9833 20.0243L15.6494 16.681L16.1405 16.21L19.0589 19.1377L20.8628 17.4198L21.2878 17.8447L18.9833 20.0243ZM15.7816 16.681L18.9928 19.895L21.1555 17.8354L20.8628 17.5399L19.0494 19.267L16.1311 16.3393L15.7816 16.681Z" fill="#221F51"/>
<path d="M24.9431 15.7017C24.9903 15.7756 25.0658 15.8126 25.1508 15.8218C25.2358 15.831 25.3208 15.7941 25.4153 15.7294L26.1614 15.2122L26.3692 15.4986L25.3586 16.1912C25.2075 16.2928 25.0564 16.339 24.9053 16.3298C24.7542 16.3205 24.6408 16.2466 24.5464 16.1173C24.4614 15.9973 24.433 15.868 24.4614 15.711C24.4897 15.5632 24.5558 15.4062 24.6597 15.2492C24.3103 15.4801 23.9419 15.6001 23.5453 15.6186C23.1486 15.6371 22.7708 15.554 22.4025 15.3785C22.0436 15.203 21.7319 14.9352 21.4769 14.5842C21.2219 14.224 21.0614 13.8454 21.0141 13.4482C20.9669 13.0419 21.0236 12.6632 21.1841 12.303C21.3447 11.9428 21.5997 11.6381 21.9492 11.3979C22.2986 11.1578 22.6764 11.0193 23.0825 10.9916C23.4886 10.9639 23.8758 11.047 24.2442 11.2225C24.6125 11.3979 24.9242 11.6658 25.1792 12.0259C25.3964 12.3307 25.5475 12.6632 25.6136 13.0142C25.6797 13.3651 25.6608 13.7068 25.5664 14.0393C25.4719 14.3718 25.2925 14.6673 25.0469 14.9259C24.8675 15.2861 24.8297 15.5447 24.9431 15.7017ZM22.6858 14.889C22.9692 15.0368 23.2619 15.1107 23.5642 15.1014C23.8664 15.0922 24.1592 14.9998 24.4236 14.8151C24.6881 14.6304 24.8769 14.3995 24.9903 14.1132C25.1036 13.8269 25.1319 13.5314 25.0753 13.2266C25.028 12.9126 24.9053 12.6263 24.7164 12.3677C24.518 12.0906 24.2725 11.8782 23.9892 11.7304C23.7058 11.5826 23.413 11.5088 23.1014 11.518C22.7897 11.5272 22.5064 11.6196 22.2419 11.8043C21.9775 11.989 21.7886 12.2199 21.6753 12.497C21.5619 12.774 21.5336 13.0696 21.5808 13.3744C21.628 13.6791 21.7508 13.9747 21.9492 14.2425C22.1664 14.5196 22.4025 14.732 22.6858 14.889Z" fill="#221F51"/>
<path d="M24.9336 16.3763C24.9242 16.3763 24.9053 16.3763 24.8959 16.3763C24.7353 16.3671 24.6125 16.2932 24.4992 16.1454C24.4047 16.0161 24.3764 15.8684 24.4047 15.7021C24.4236 15.6005 24.4614 15.4897 24.5181 15.3881C24.2159 15.5636 23.8853 15.6467 23.5358 15.6652C23.1392 15.6836 22.752 15.6005 22.3742 15.425C22.0058 15.2496 21.6942 14.9725 21.4297 14.6215C21.1653 14.2429 21.0047 13.855 20.9575 13.4671C20.9103 13.0515 20.9669 12.6728 21.1275 12.3034C21.2881 11.934 21.5525 11.6199 21.9114 11.3798C22.2703 11.1305 22.6575 10.9919 23.0636 10.9642C23.4603 10.9365 23.8664 11.0196 24.2442 11.1951C24.622 11.3706 24.9336 11.6477 25.1981 12.0171C25.4247 12.3403 25.5759 12.6728 25.642 13.0238C25.7081 13.3747 25.6892 13.7257 25.5947 14.0674C25.5003 14.3906 25.3209 14.6954 25.0659 14.9633C24.8959 15.305 24.8581 15.5451 24.962 15.6836C24.9997 15.7391 25.0564 15.776 25.132 15.7852C25.1981 15.7945 25.2642 15.7668 25.3681 15.7021L26.152 15.1572L26.4164 15.5174L25.3681 16.2378C25.2359 16.3301 25.0847 16.3763 24.9336 16.3763ZM24.8203 15.0833L24.6975 15.2773C24.6031 15.425 24.537 15.5728 24.5086 15.7206C24.4803 15.8591 24.5086 15.9792 24.5842 16.09C24.6786 16.2101 24.7731 16.2747 24.9053 16.284C25.047 16.2932 25.1886 16.247 25.3303 16.1547L26.3031 15.4897L26.152 15.2773L25.4436 15.7668C25.3303 15.8499 25.2358 15.8776 25.1508 15.8684C25.047 15.8591 24.962 15.8129 24.9053 15.7298C24.7825 15.5636 24.8203 15.2865 25.0092 14.9078L25.0186 14.8986C25.2642 14.64 25.4342 14.3445 25.5286 14.0305C25.6231 13.698 25.642 13.3655 25.5759 13.0238C25.5097 12.6913 25.3681 12.3588 25.1508 12.054C24.9053 11.7031 24.5936 11.4352 24.2347 11.269C23.8664 11.0935 23.4792 11.0196 23.1014 11.0473C22.7142 11.075 22.3364 11.2043 21.9964 11.4445C21.6564 11.6754 21.4108 11.9709 21.2503 12.3311C21.0897 12.6821 21.0331 13.0515 21.0803 13.4486C21.1275 13.8273 21.2786 14.1967 21.5336 14.5661C21.7886 14.9078 22.0908 15.1757 22.4403 15.3419C22.8086 15.5174 23.177 15.5913 23.5547 15.5728C23.9514 15.5543 24.3009 15.4343 24.6409 15.2126L24.8203 15.0833ZM23.5075 15.148C23.2242 15.148 22.9314 15.0741 22.6575 14.9263C22.3742 14.7693 22.1381 14.5569 21.9114 14.2706C21.7131 14.0027 21.5808 13.698 21.5336 13.384C21.4864 13.0607 21.5147 12.7652 21.6281 12.4881C21.7414 12.2018 21.9397 11.9617 22.2136 11.777C22.4875 11.5922 22.7708 11.4907 23.1014 11.4814C23.4131 11.4722 23.7153 11.5461 24.0081 11.7031C24.3008 11.8601 24.5559 12.0725 24.7542 12.3496C24.9525 12.6174 25.0753 12.9129 25.1225 13.227C25.1792 13.541 25.1509 13.8457 25.0375 14.132C24.9242 14.4276 24.7353 14.6585 24.452 14.8524C24.1875 15.0371 23.8853 15.1387 23.5642 15.148C23.5453 15.148 23.5264 15.148 23.5075 15.148ZM22.7047 14.8524C22.9881 15.0002 23.2714 15.0648 23.5547 15.0556C23.857 15.0464 24.1403 14.954 24.3858 14.7785C24.6503 14.5938 24.8297 14.3722 24.9336 14.0951C25.047 13.818 25.0753 13.5317 25.0186 13.2362C24.9714 12.9314 24.8581 12.6543 24.6692 12.3957C24.4803 12.1279 24.2347 11.9155 23.9608 11.777C23.6775 11.6292 23.3942 11.5645 23.1014 11.5738C22.7992 11.583 22.5253 11.6754 22.2703 11.8508C22.0153 12.0263 21.8264 12.2572 21.7225 12.525C21.6186 12.7836 21.5808 13.0792 21.6281 13.3747C21.6753 13.6795 21.7981 13.9658 21.9869 14.2244C22.2042 14.5015 22.4308 14.6954 22.7047 14.8524Z" fill="#221F51"/>
<path d="M28.7398 11.3991L28.872 12.6274L28.3243 12.886L27.8804 8.01884L28.6832 7.64941L32.2815 11.0574L31.7337 11.316L30.8365 10.4386L28.7398 11.3991ZM28.3715 8.02807L28.6832 10.9004L30.4587 10.0692L28.3715 8.02807Z" fill="#221F51"/>
<path d="M28.2863 12.9597L27.833 7.99089L28.6925 7.59375L28.7113 7.61222L32.3569 11.0664L31.7147 11.3711L30.8175 10.4937L28.7869 11.4358L28.9191 12.6641L28.2863 12.9597ZM27.9275 8.0463L28.3619 12.8211L28.8152 12.6087L28.683 11.3804L30.8364 10.3829L31.7336 11.2603L32.1869 11.0479L28.6641 7.71382L27.9275 8.0463ZM28.6452 10.9648L28.3147 7.89853L30.5436 10.0781L28.6452 10.9648ZM28.4375 8.14789L28.7302 10.8262L30.383 10.0504L28.4375 8.14789Z" fill="#221F51"/>
<path d="M36.5692 7.91705L37.9386 9.29316L37.3058 9.47788L35.7758 7.91705L34.4347 8.29571L34.9825 10.1244L34.4158 10.2814L33.103 5.87597L35.0864 5.3126C35.3886 5.22948 35.6719 5.20177 35.9458 5.23871C36.2197 5.27565 36.4464 5.36801 36.6447 5.52502C36.8336 5.68202 36.9753 5.88521 37.0508 6.14381C37.1547 6.504 37.1264 6.82724 36.9469 7.12278C36.7675 7.41833 36.4936 7.64922 36.1158 7.80623C36.3142 7.76928 36.4747 7.80622 36.5692 7.91705ZM35.6908 7.44603C36.0025 7.35368 36.2292 7.20591 36.3708 7.00272C36.5219 6.7903 36.5503 6.55941 36.4747 6.31005C36.3992 6.06069 36.2386 5.88521 36.0025 5.79285C35.7664 5.70049 35.4925 5.69126 35.1808 5.78362L33.7925 6.18075L34.293 7.8524L35.6908 7.44603Z" fill="#221F51"/>
<path d="M34.3875 10.3366L33.0464 5.8481L35.077 5.27549C35.3981 5.19237 35.6814 5.16466 35.9553 5.2016C36.2386 5.23854 36.4747 5.34014 36.6731 5.49714C36.8808 5.66339 37.0225 5.88504 37.0981 6.1344C37.2114 6.51306 37.1736 6.84555 36.9942 7.15032C36.8431 7.39968 36.6258 7.60287 36.3425 7.75064C36.4558 7.76911 36.5408 7.81529 36.607 7.88917L38.0236 9.3207L37.287 9.53312L35.757 7.9723L34.4914 8.33248L35.0392 10.1611L34.3875 10.3366ZM33.1692 5.91275L34.4536 10.2258L34.9258 10.0965L34.3781 8.26784L35.7947 7.8707L35.8136 7.88917L36.1064 7.76911C36.4653 7.62134 36.7392 7.39968 36.9186 7.10414C37.0886 6.82707 37.117 6.51306 37.0131 6.16211C36.947 5.92198 36.8147 5.72803 36.6258 5.57103C36.437 5.42326 36.2197 5.3309 35.9553 5.29396C35.6908 5.25702 35.4169 5.28472 35.1147 5.36784L33.1692 5.91275ZM35.8325 7.90765L37.3247 9.4223L37.8536 9.26529L36.5408 7.94459C36.437 7.82453 36.2575 7.82453 36.1347 7.85223L35.8325 7.90765ZM34.2647 7.90765L33.7358 6.15287L35.1714 5.7465C35.4831 5.65415 35.7664 5.65415 36.0214 5.75574C36.267 5.8481 36.4464 6.04204 36.522 6.30064C36.607 6.56847 36.5692 6.81784 36.4086 7.03026C36.2575 7.24268 36.0214 7.39969 35.7003 7.49204L34.2647 7.90765ZM33.8586 6.21752L34.3308 7.79682L35.6814 7.39969C35.9836 7.30733 36.2008 7.1688 36.3331 6.97485C36.4747 6.7809 36.5031 6.56848 36.4275 6.31911C36.352 6.07899 36.2103 5.92198 35.9836 5.82963C35.7475 5.73727 35.4831 5.73727 35.1903 5.82039L33.8586 6.21752Z" fill="#221F51"/>
<path d="M41.1591 8.43385C40.7907 8.26761 40.4885 8.01825 40.2524 7.68576C40.0163 7.35328 39.8746 6.97462 39.8179 6.54054C39.7613 6.10647 39.8179 5.7001 39.9691 5.32144C40.1202 4.94278 40.3563 4.638 40.6774 4.38864C40.9985 4.14851 41.3668 4.00074 41.7918 3.94532C42.2168 3.89914 42.6135 3.95456 42.9818 4.1208C43.3502 4.28704 43.6524 4.5364 43.8885 4.86889C44.1246 5.20137 44.2757 5.58004 44.323 6.01411C44.3702 6.43895 44.323 6.84532 44.1718 7.22398C44.0207 7.60264 43.7846 7.91666 43.4635 8.15678C43.1424 8.40615 42.7741 8.55392 42.3491 8.60009C41.9241 8.66474 41.5274 8.60009 41.1591 8.43385ZM43.133 7.75965C43.3691 7.5657 43.5391 7.31634 43.643 7.0208C43.7468 6.72526 43.7846 6.42048 43.7468 6.09723C43.7091 5.76475 43.5957 5.45997 43.4257 5.20138C43.2463 4.93354 43.0196 4.73959 42.7457 4.60106C42.4718 4.46252 42.1696 4.41634 41.8579 4.45328C41.5368 4.49023 41.2535 4.61029 41.0268 4.80424C40.7907 4.99819 40.6207 5.23832 40.5168 5.53386C40.4129 5.8294 40.3752 6.14341 40.4224 6.46666C40.4602 6.79914 40.5735 7.10392 40.7435 7.36251C40.9135 7.63035 41.1402 7.8243 41.4141 7.96283C41.6879 8.10137 41.9902 8.14755 42.3113 8.11061C42.6135 8.07366 42.8968 7.96284 43.133 7.75965Z" fill="#221F51"/>
<path d="M42.0278 8.66502C41.7256 8.66502 41.4234 8.60037 41.14 8.47107C40.7622 8.30483 40.4506 8.04623 40.2145 7.70451C39.9784 7.37203 39.8272 6.98414 39.7706 6.54082C39.7139 6.11598 39.7706 5.70038 39.9217 5.30324C40.0728 4.92458 40.3089 4.61057 40.6395 4.35197C40.97 4.10261 41.3384 3.95484 41.7728 3.89942C42.2072 3.85325 42.6228 3.90866 42.9911 4.0749C43.3689 4.24115 43.6806 4.49974 43.9167 4.84146C44.1623 5.19242 44.3134 5.58032 44.3606 6.00516C44.4078 6.43923 44.3606 6.85484 44.2095 7.2335C44.0584 7.6214 43.8128 7.94464 43.4823 8.18477C43.1517 8.44337 42.7834 8.59114 42.3489 8.63732C42.245 8.66503 42.1411 8.66502 42.0278 8.66502ZM42.075 3.98255C41.9806 3.98255 41.8956 3.99178 41.8011 4.00102C41.3856 4.05643 41.0267 4.19497 40.715 4.4351C40.3939 4.68446 40.1672 4.98 40.0256 5.34942C39.8745 5.72808 39.8272 6.13446 39.8745 6.54082C39.9311 6.9749 40.0728 7.34433 40.2995 7.66758C40.5261 7.99082 40.8284 8.24018 41.1873 8.39719C41.5556 8.56343 41.9523 8.61884 42.3489 8.56343C42.7645 8.51725 43.1234 8.37872 43.4445 8.12936C43.7561 7.89847 43.9923 7.59369 44.1339 7.21503C44.2756 6.85484 44.3323 6.44847 44.285 6.03286C44.2378 5.62649 44.0961 5.24783 43.86 4.90611C43.6334 4.58287 43.3311 4.3335 42.9723 4.17649C42.6889 4.0472 42.3867 3.98255 42.075 3.98255ZM42.1034 8.1663C41.8484 8.1663 41.6122 8.11088 41.395 8.00006C41.1022 7.85229 40.8756 7.6491 40.7056 7.38127C40.5261 7.11343 40.4128 6.79942 40.375 6.46694C40.3278 6.15293 40.3656 5.82968 40.4695 5.51566C40.5734 5.21089 40.7434 4.97076 40.9889 4.76758C41.225 4.57363 41.5178 4.44433 41.8484 4.40739C42.1789 4.37044 42.4811 4.41662 42.7645 4.56439C43.0573 4.71216 43.2839 4.91535 43.4634 5.18318C43.6428 5.45102 43.7561 5.76503 43.7939 6.09751C43.8317 6.42076 43.7939 6.72553 43.69 7.03955C43.5861 7.34432 43.4067 7.60292 43.1706 7.79687C42.9345 8.00006 42.6511 8.12012 42.3206 8.15706C42.245 8.1663 42.1789 8.1663 42.1034 8.1663ZM42.0656 4.49051C41.9995 4.49051 41.9334 4.49051 41.8672 4.49974C41.5556 4.53668 41.2817 4.64751 41.0645 4.84146C40.8284 5.03541 40.6678 5.2663 40.5639 5.55261C40.46 5.85739 40.4317 6.16216 40.4695 6.46694C40.5072 6.78095 40.6111 7.08573 40.7811 7.34433C40.9417 7.59369 41.1495 7.78764 41.4328 7.92617C41.6878 8.05547 41.9806 8.10165 42.3017 8.06471C42.6134 8.02776 42.8778 7.91694 43.095 7.72299C43.3217 7.53827 43.4917 7.29815 43.5861 7.00261C43.69 6.70707 43.7278 6.41153 43.69 6.09751C43.6523 5.7835 43.5484 5.47873 43.3784 5.22013C43.2084 4.97076 42.9911 4.77681 42.7173 4.63828C42.5189 4.54592 42.3017 4.49051 42.0656 4.49051Z" fill="#221F51"/>
<path d="M51.1894 3.89916L50.821 6.6791C50.7644 7.10394 50.8399 7.43642 51.0382 7.70425C51.2366 7.96285 51.5388 8.11986 51.9355 8.17527C52.3321 8.22145 52.6627 8.14757 52.9271 7.94438C53.1916 7.7412 53.3521 7.42718 53.4088 7.02082L53.7771 4.24088L54.3627 4.31477L53.9944 7.10393C53.9471 7.47336 53.8244 7.78737 53.6355 8.03674C53.4466 8.2861 53.1916 8.47081 52.8894 8.58164C52.5871 8.69247 52.2471 8.72017 51.8788 8.67399C51.501 8.62782 51.1799 8.50775 50.9155 8.33227C50.651 8.14756 50.4621 7.91667 50.3394 7.62113C50.2166 7.32559 50.1882 7.00234 50.2355 6.63292L50.6038 3.84375L51.1894 3.89916Z" fill="#221F51"/>
<path d="M52.2095 8.73848C52.1056 8.73848 51.9923 8.72924 51.8695 8.72001C51.5011 8.67383 51.1706 8.55377 50.8873 8.36905C50.6134 8.17511 50.415 7.93498 50.2923 7.63944C50.1695 7.34389 50.1317 7.02065 50.1884 6.63275L50.5661 3.80664L51.2461 3.87129L50.8684 6.6974C50.8117 7.10377 50.8873 7.42702 51.0761 7.68561C51.265 7.93498 51.5578 8.08275 51.945 8.13816C52.3323 8.18434 52.6439 8.11045 52.8989 7.91651C53.1539 7.72256 53.305 7.42702 53.3617 7.02065L53.7395 4.19454L54.4195 4.27766L54.0417 7.11301C53.9945 7.48243 53.8717 7.80568 53.6734 8.06428C53.475 8.32288 53.22 8.50759 52.9084 8.62765C52.6911 8.70154 52.4645 8.73848 52.2095 8.73848ZM50.6511 3.899L50.2923 6.64199C50.245 7.01141 50.2734 7.32543 50.3961 7.6025C50.5095 7.8888 50.6984 8.11046 50.9534 8.29517C51.2178 8.47065 51.5389 8.58147 51.8978 8.62765C52.2662 8.67383 52.5967 8.64612 52.8895 8.5353C53.1823 8.42447 53.4278 8.24899 53.6167 8.00886C53.8056 7.7595 53.9189 7.45473 53.9661 7.09454L54.325 4.35155L53.8339 4.2869L53.475 7.02065C53.4184 7.44549 53.2484 7.76874 52.9745 7.97192C52.7006 8.17511 52.3606 8.25823 51.945 8.21205C51.5295 8.15663 51.2178 7.99039 51.0195 7.72256C50.8117 7.43625 50.7361 7.09453 50.7928 6.66046L51.1517 3.92671L50.6511 3.899Z" fill="#221F51"/>
<path d="M60.218 10.5487L59.2735 10.2624L58.1213 5.40442L56.8274 9.53275L56.2891 9.37575L57.668 4.99805L58.603 5.27512L59.7552 10.1423L61.0585 6.00474L61.5969 6.16174L60.218 10.5487Z" fill="#221F51"/>
<path d="M60.2463 10.6043L59.2358 10.2995L58.1213 5.58009L56.8652 9.58836L56.2324 9.40365L57.6397 4.93359L58.6408 5.22914L58.6502 5.25684L59.7647 9.95779L61.0302 5.94028L61.663 6.125L60.2463 10.6043ZM59.3113 10.2256L60.1802 10.4935L61.5308 6.18965L61.0869 6.06034L59.7458 10.318L58.5652 5.30302L57.7058 5.04442L56.3552 9.339L56.7991 9.4683L58.1308 5.21066L59.3113 10.2256Z" fill="#221F51"/>
<path d="M65.1574 7.65809L63.2024 11.8234L62.6641 11.5832L64.6191 7.41797L65.1574 7.65809Z" fill="#221F51"/>
<path d="M63.2308 11.8882L62.6074 11.6111L64.6002 7.35352L65.2235 7.63059L63.2308 11.8882ZM62.7302 11.565L63.1835 11.7682L65.1008 7.686L64.6474 7.48282L62.7302 11.565Z" fill="#221F51"/>
<path d="M67.4717 14.0955L66.6406 13.5968L67.7173 8.86816L68.2462 9.19141L67.1979 13.6338L70.7868 10.7061L71.3251 11.0293L67.4717 14.0955Z" fill="#221F51"/>
<path d="M67.481 14.1511L66.5933 13.6154L67.6888 8.78516L68.3027 9.16382L67.2827 13.5046L70.7866 10.6508L71.4099 11.0294L67.481 14.1511ZM66.6971 13.5785L67.4716 14.0402L71.2399 11.0387L70.7866 10.7708L67.1222 13.7632L68.1894 9.21923L67.7455 8.9514L66.6971 13.5785Z" fill="#221F51"/>
<path d="M73.1854 18.3526L70.626 16.2376L73.6577 12.7373L76.1793 14.8246L75.8582 15.194L73.7899 13.4762L72.7982 14.6214L74.6493 16.1545L74.3282 16.5239L72.4771 14.9908L71.391 16.2376L73.4971 17.9832L73.1854 18.3526Z" fill="#221F51"/>
<path d="M73.1856 18.417L70.5601 16.2466L73.6484 12.6816L76.2362 14.8243L75.8584 15.2676L73.7901 13.5498L72.8645 14.6211L74.7156 16.1542L74.3379 16.5976L72.4867 15.0644L71.4667 16.2374L73.5729 17.9829L73.1856 18.417ZM70.6923 16.2281L73.1762 18.2784L73.4312 17.9829L71.3251 16.2374L72.4678 14.9259L74.319 16.459L74.5834 16.1635L72.7323 14.6304L73.7806 13.4205L75.849 15.1383L76.104 14.8428L73.6578 12.8202L70.6923 16.2281Z" fill="#221F51"/>
<path d="M77.9925 20.911L77.2936 22.7027L76.8592 22.2133L77.6619 20.2091L76.7458 19.184L75.2725 20.44L74.8853 20.0059L78.4269 16.9951L79.7869 18.519C79.9947 18.7499 80.1364 18.99 80.2119 19.2486C80.2875 19.5072 80.2969 19.7473 80.2403 19.9875C80.1742 20.2276 80.0419 20.4308 79.8342 20.6063C79.5508 20.8464 79.2297 20.9572 78.8803 20.9295C78.5308 20.9018 78.2097 20.7448 77.898 20.477C78.0114 20.6247 78.0397 20.7725 77.9925 20.911ZM78.0492 19.9228C78.2569 20.1629 78.493 20.3015 78.748 20.3477C79.003 20.3938 79.2297 20.3292 79.4375 20.1537C79.6358 19.9782 79.7303 19.7658 79.7208 19.5164C79.7114 19.2671 79.5981 19.0177 79.3903 18.7868L78.4458 17.7247L77.1047 18.87L78.0492 19.9228Z" fill="#221F51"/>
<path d="M77.3127 22.7949L76.8121 22.2222L77.6149 20.2181L76.746 19.2484L75.2727 20.5044L74.8193 20.0057L78.4271 16.9395L79.8155 18.5003C80.0327 18.7404 80.1744 18.9805 80.2499 19.2484C80.3255 19.5162 80.3349 19.7656 80.2783 20.0057C80.2121 20.2551 80.0705 20.4675 79.8532 20.6522C79.5605 20.9015 79.2299 21.0124 78.8616 20.9847C78.5782 20.9662 78.3043 20.8554 78.0305 20.6614C78.0588 20.7538 78.0588 20.8461 78.0305 20.9385L77.3127 22.7949ZM76.916 22.2038L77.2749 22.6101L77.9455 20.8923C77.9927 20.763 77.9549 20.6337 77.8605 20.5044L77.6905 20.2735L76.916 22.2038ZM77.6999 20.2458L77.9266 20.4398C78.2382 20.7076 78.5499 20.8554 78.8805 20.8831C79.211 20.9108 79.5227 20.8092 79.7966 20.5691C79.9949 20.4028 80.1271 20.2089 80.1838 19.978C80.2405 19.7471 80.231 19.5162 80.1555 19.2668C80.0799 19.0175 79.9477 18.7866 79.7399 18.5557L78.4082 17.0688L74.9421 20.0149L75.2632 20.3751L76.7366 19.1191L77.6999 20.1996V20.2458ZM78.8993 20.4121C78.8427 20.4121 78.786 20.4028 78.7294 20.3936C78.4555 20.3474 78.2099 20.1996 78.0021 19.9503L77.0293 18.8605L78.4366 17.6598L79.4094 18.7589C79.6266 18.999 79.7399 19.2576 79.7494 19.5162C79.7588 19.7748 79.6549 20.0057 79.4471 20.1904C79.296 20.3382 79.1071 20.4121 78.8993 20.4121ZM77.171 18.8789L78.0871 19.8949C78.2855 20.1165 78.5121 20.2551 78.7577 20.3012C78.9938 20.3474 79.211 20.2828 79.4094 20.1165C79.5982 19.9503 79.6832 19.7563 79.6738 19.5162C79.6644 19.2761 79.551 19.0359 79.3527 18.8143L78.4366 17.7891L77.171 18.8789Z" fill="#221F51"/>
<path d="M79.2018 24.7905C79.2301 24.3933 79.4095 24.0424 79.7495 23.7468L80.0518 24.2086C79.8345 24.4303 79.7118 24.6796 79.6929 24.9475C79.674 25.2153 79.7684 25.5016 79.9573 25.7972C80.1462 26.0835 80.3634 26.2774 80.6184 26.3698C80.8734 26.4621 81.1095 26.4437 81.3362 26.3051C81.5345 26.1851 81.6573 26.0373 81.7045 25.8618C81.7518 25.6863 81.7234 25.4739 81.629 25.2245L81.2323 24.1809C81.1001 23.8484 81.0623 23.5529 81.119 23.3128C81.1756 23.0726 81.3456 22.8695 81.6195 22.694C81.8462 22.5554 82.0729 22.5093 82.3184 22.537C82.5545 22.5739 82.7906 22.6663 83.0079 22.8417C83.2251 23.0172 83.4234 23.2204 83.584 23.479C83.839 23.8761 83.9523 24.2548 83.924 24.615C83.8957 24.9752 83.7257 25.28 83.4045 25.5478L83.1023 25.086C83.3101 24.9013 83.414 24.6889 83.4234 24.4487C83.4329 24.2086 83.3573 23.9685 83.1873 23.7099C83.0079 23.4328 82.8095 23.2389 82.5829 23.1373C82.3562 23.0357 82.1484 23.0449 81.9501 23.165C81.7801 23.2758 81.6668 23.3959 81.629 23.5437C81.5912 23.6914 81.6195 23.8669 81.7045 24.0886L82.1295 25.1784C82.2712 25.5386 82.309 25.8433 82.2334 26.1019C82.1673 26.3605 81.9879 26.5729 81.6856 26.7577C81.4401 26.9054 81.1945 26.9701 80.9301 26.9608C80.6656 26.9424 80.4201 26.8593 80.1745 26.693C79.9384 26.536 79.7306 26.3144 79.5512 26.0373C79.2962 25.6032 79.1734 25.1876 79.2018 24.7905Z" fill="#221F51"/>
<path d="M80.9772 27.0066C80.9583 27.0066 80.9394 27.0066 80.9299 27.0066C80.6466 26.9881 80.3916 26.8957 80.1461 26.7295C79.9099 26.5725 79.6927 26.3508 79.5133 26.0645C79.2488 25.612 79.126 25.1871 79.1544 24.79C79.1827 24.3744 79.3716 24.0142 79.7211 23.7187L79.7588 23.6817L80.1083 24.2174L80.0799 24.2451C79.8722 24.4575 79.7494 24.6976 79.7305 24.9562C79.7116 25.2056 79.7966 25.4827 79.9855 25.7782C80.1744 26.0645 80.3822 26.24 80.6183 26.3324C80.8638 26.4247 81.0811 26.397 81.2983 26.2677C81.4872 26.1569 81.6005 26.0183 81.6477 25.8521C81.695 25.6859 81.6666 25.4919 81.5722 25.2425L81.1755 24.1989C81.0433 23.8572 81.0055 23.5617 81.0622 23.3031C81.1188 23.0537 81.2888 22.8413 81.5816 22.6566C81.8083 22.518 82.0538 22.4626 82.3088 22.4903C82.5733 22.5365 82.8188 22.6381 83.0266 22.8043C83.2722 23.0075 83.4611 23.2199 83.6122 23.4508C83.8672 23.8572 83.99 24.2451 83.9616 24.6145C83.9333 24.984 83.7538 25.298 83.4233 25.575L83.3855 25.612L83.0361 25.0763L83.0644 25.0486C83.2627 24.8731 83.3572 24.6792 83.3666 24.4483C83.3761 24.2174 83.3005 23.9865 83.1399 23.7371C82.9605 23.4601 82.7716 23.2754 82.5544 23.183C82.3466 23.0906 82.1483 23.0999 81.9688 23.2107C81.7988 23.3215 81.7044 23.4324 81.6666 23.5617C81.6288 23.691 81.6572 23.8572 81.7422 24.0789L82.1672 25.1687C82.3183 25.5473 82.3466 25.8521 82.2711 26.1199C82.205 26.3878 82.0161 26.6094 81.7044 26.8034C81.4683 26.9327 81.2322 27.0066 80.9772 27.0066ZM79.7399 23.8203C79.4377 24.0973 79.2772 24.4206 79.2488 24.7992C79.2205 25.1779 79.3338 25.5843 79.5888 26.0183C79.7683 26.2954 79.9666 26.5078 80.1933 26.6556C80.4199 26.8126 80.6655 26.8957 80.9205 26.9142C81.1755 26.9234 81.4116 26.8588 81.6477 26.7203C81.9405 26.5448 82.1105 26.3324 82.1766 26.0922C82.2522 25.8429 82.2144 25.5566 82.0727 25.1964L81.6477 24.1066C81.5533 23.8664 81.5344 23.691 81.5722 23.534C81.6099 23.3862 81.7233 23.2569 81.9122 23.1276C82.1294 22.9983 82.3466 22.989 82.5922 23.0999C82.8188 23.2015 83.0266 23.3954 83.2155 23.691C83.3855 23.9588 83.4705 24.2082 83.4611 24.4575C83.4516 24.6976 83.3477 24.9193 83.1588 25.104L83.4138 25.4919C83.6972 25.2425 83.8483 24.9562 83.8766 24.6238C83.905 24.2728 83.7916 23.9034 83.5461 23.5155C83.4044 23.2846 83.2155 23.0814 82.9794 22.8875C82.7811 22.7305 82.5638 22.6289 82.3088 22.5919C82.0633 22.5642 81.8555 22.6104 81.6477 22.7397C81.3738 22.9152 81.2227 23.1091 81.1661 23.3308C81.1094 23.5617 81.1472 23.848 81.2794 24.1712L81.6761 25.2148C81.7799 25.4827 81.7988 25.6951 81.7516 25.8798C81.7044 26.0645 81.5722 26.2215 81.3644 26.3508C81.1283 26.4986 80.8827 26.5171 80.6088 26.4155C80.3444 26.3231 80.1272 26.1292 79.9288 25.8244C79.7305 25.5104 79.636 25.2148 79.6549 24.947C79.6738 24.6792 79.7872 24.4298 80.0044 24.2082L79.7399 23.8203Z" fill="#221F51"/>
<path d="M86.1526 28.2076L81.9215 30.1656L81.6665 29.6484L85.8976 27.6904L86.1526 28.2076Z" fill="#221F51"/>
<path d="M81.8934 30.23L81.6006 29.6297L85.9262 27.6348L86.2189 28.2351L81.8934 30.23ZM81.7234 29.6758L81.9406 30.1099L86.0867 28.1981L85.8695 27.7641L81.7234 29.6758Z" fill="#221F51"/>
<path d="M87.5315 32.9913L83.5649 34.2843L83.376 33.7394L87.3427 32.4464L86.8515 31.0056L87.3332 30.8486L88.5043 34.2751L88.0227 34.4321L87.5315 32.9913Z" fill="#221F51"/>
<path d="M87.9942 34.4872L87.5031 33.0465L83.5458 34.3395L83.3286 33.7114L87.2953 32.4184L86.8042 30.9777L87.3709 30.793L88.5703 34.3025L87.9942 34.4872ZM87.5597 32.9264L88.0509 34.3672L88.4381 34.2379L87.2953 30.9038L86.9081 31.0331L87.3992 32.4739L83.442 33.7668L83.6025 34.2194L87.5597 32.9264Z" fill="#221F51"/>
<path d="M85.1891 41.1644L84.6035 37.932L89.2124 37.1377L89.7885 40.324L89.2974 40.4071L88.8252 37.7934L87.3235 38.052L87.7391 40.3794L87.248 40.4625L86.8324 38.1351L85.1796 38.4215L85.6613 41.0813L85.1891 41.1644Z" fill="#221F51"/>
<path d="M85.1513 41.2108L85.1419 41.1646L84.5469 37.886L89.2502 37.0732L89.8452 40.3427L89.2597 40.4443L88.7874 37.8306L87.3802 38.0707L87.7958 40.3981L87.2102 40.4997L86.7947 38.1723L85.2363 38.4401L85.718 41.1L85.1513 41.2108ZM84.6602 37.9691L85.2269 41.1092L85.6141 41.0446L85.1324 38.3847L86.8797 38.0799L87.2952 40.4073L87.6919 40.3427L87.2763 38.0153L88.8725 37.7382L89.3447 40.3519L89.7413 40.2872L89.1841 37.1933L84.6602 37.9691Z" fill="#221F51"/>
<path d="M89.6382 45.1917L85.4637 45.3025L85.4448 44.7299L89.6193 44.6191L89.5815 43.0952L90.0915 43.0859L90.1859 46.6971L89.676 46.7063L89.6382 45.1917Z" fill="#221F51"/>
<path d="M89.6379 46.7528L89.6001 45.2381L85.4256 45.349L85.4067 44.684L89.5906 44.5732L89.5529 43.0493L90.1573 43.04L90.2518 46.7435L89.6379 46.7528ZM89.6851 45.1458L89.7229 46.6604L90.1384 46.6512L90.044 43.1324L89.6284 43.1416L89.6662 44.6655L85.4917 44.7763L85.5106 45.2566L89.6851 45.1458Z" fill="#221F51"/>
<path d="M89.9493 50.1513L85.2837 49.7357L85.3404 49.1631L90.0059 49.5787L89.9493 50.1513Z" fill="#221F51"/>
<path d="M89.9963 50.1972L85.2363 49.7724L85.3024 49.1074L90.0625 49.5323L89.9963 50.1972ZM85.3308 49.6893L89.9019 50.0956L89.9491 49.6154L85.378 49.209L85.3308 49.6893Z" fill="#221F51"/>
<path d="M46.1738 86.0601C46.1738 86.2171 46.1738 86.3649 46.1738 86.5219C46.1738 86.8636 45.9471 86.9744 45.6543 86.9837C45.3615 86.9929 45.1254 86.8821 45.116 86.5496C45.1065 86.2079 45.1065 85.8754 45.116 85.5337C45.1254 85.192 45.371 85.0811 45.6543 85.0904C45.9376 85.0996 46.1832 85.2104 46.1738 85.5522C46.1738 85.7276 46.1738 85.8939 46.1738 86.0601Z" fill="#221F51"/>
<path d="M56.4874 75.4758C60.1518 74.0073 63.2307 71.763 65.7619 68.8076C66.1585 68.3459 66.5269 67.8564 66.9613 67.3115C64.9119 67.3115 62.9852 67.3115 61.0585 67.3022C60.8224 67.3022 60.7752 67.4315 60.7185 67.5978C60.2274 69.0108 59.6041 70.3685 58.9052 71.6892C58.2063 73.0191 57.3091 74.2197 56.4307 75.4204C56.3929 75.4296 56.3457 75.4388 56.374 75.4943C56.3835 75.5035 56.4496 75.485 56.4874 75.4758ZM37.7118 75.4758C37.7495 75.485 37.8156 75.5127 37.8251 75.4943C37.8629 75.4388 37.8156 75.4296 37.7684 75.4204C37.759 75.3927 37.759 75.3557 37.7401 75.3372C35.8229 73.056 34.5006 70.4608 33.5278 67.6901C33.4145 67.3853 33.2634 67.3022 32.9517 67.3115C31.1856 67.3299 29.4289 67.3207 27.6723 67.3207C27.5684 67.3207 27.455 67.2653 27.37 67.3761C27.3512 67.4869 27.4362 67.5516 27.4834 67.6162C29.2589 70.0083 31.4217 71.9847 33.9623 73.5732C35.1429 74.3213 36.3895 74.977 37.7118 75.4758ZM67.1407 48.2491C67.3296 48.1937 67.4713 48.1475 67.6224 48.1105C69.058 47.7134 69.9552 46.7898 70.2669 45.386C70.6069 43.8437 70.5974 42.2736 70.3046 40.722C69.993 39.0781 68.9919 38.0437 67.3013 37.6835C66.8669 37.5911 66.4324 37.5172 65.9885 37.5172C62.2391 37.508 58.5085 37.508 54.759 37.508C54.4474 37.508 54.2301 37.6188 54.079 37.9051C53.6918 38.6348 53.2762 39.3644 52.8796 40.0848C51.0851 43.3634 49.2907 46.6236 47.4962 49.9023C47.4112 50.0685 47.364 50.2901 47.0807 50.2717C46.8351 50.2532 46.7973 50.0593 46.7123 49.9023C44.5023 45.9494 42.3018 41.9873 40.1012 38.0252C39.884 37.6373 39.6101 37.4988 39.1568 37.4988C35.7756 37.5172 32.404 37.508 29.0134 37.508C28.4656 37.508 27.9178 37.545 27.37 37.6188C25.2923 37.8867 23.9606 38.958 23.4506 40.7682C23.2334 41.544 23.1389 42.3383 23.1295 43.1325C23.1011 44.6564 23.1106 46.1803 23.12 47.6949C23.12 48.5723 23.205 49.4497 23.4223 50.2994C23.8095 51.8048 24.7067 52.8761 26.265 53.3379C27.0678 53.578 27.8989 53.6704 28.7301 53.6796C31.8467 53.6889 34.954 53.6889 38.0706 53.6796C38.6279 53.6796 38.7601 53.5503 38.7601 52.9962C38.7695 52.3774 38.7601 51.7679 38.7601 51.1491C38.7601 50.4564 38.6468 50.3548 37.9384 50.3548C35.0106 50.3548 32.0923 50.3548 29.1645 50.3548C28.7395 50.3548 28.3145 50.3363 27.8989 50.244C27.1528 50.0685 26.6806 49.6159 26.5389 48.8771C26.4539 48.4245 26.4067 47.972 26.3784 47.5102C26.3595 47.1223 26.435 46.993 26.8789 46.993C30.534 47.0115 34.1701 47.0023 37.8251 47.0023C38.524 47.0023 38.6751 46.8545 38.6751 46.1618C38.6751 45.7 38.6751 45.2383 38.6751 44.7765C38.6656 44.2039 38.5051 44.0376 37.9101 44.0376C36.0684 44.0376 34.2267 44.0376 32.3945 44.0376C30.5245 44.0376 28.6451 44.0284 26.7845 44.0469C26.4728 44.0469 26.3784 43.973 26.3878 43.659C26.4067 43.1972 26.4539 42.7354 26.5484 42.2921C26.6806 41.6456 27.0773 41.193 27.7478 40.9991C28.2106 40.8698 28.6734 40.8421 29.1456 40.8421C31.8184 40.8421 34.4912 40.8513 37.164 40.8328C37.4662 40.8328 37.6268 40.916 37.7779 41.193C39.7895 44.7857 41.8295 48.3599 43.8318 51.9618C44.4929 53.144 45.4184 53.7905 46.8257 53.6889C47.0429 53.6704 47.2696 53.6704 47.4868 53.6889C48.894 53.8274 49.7912 53.1532 50.4335 51.9803C52.4263 48.3599 54.4568 44.7672 56.459 41.1469C56.6007 40.8883 56.7613 40.7774 57.0729 40.7867C58.9335 40.8051 60.7846 40.7959 62.6357 40.7959C63.5046 40.7959 64.3641 40.7867 65.233 40.8328C66.1869 40.8883 66.7346 41.4424 66.7819 42.366C66.8102 42.9478 66.8102 43.5389 66.7819 44.1207C66.7346 45.0258 66.1869 45.5615 65.2707 45.6539C64.9591 45.6816 64.638 45.6908 64.3263 45.6908C61.8235 45.6908 59.3302 45.7 56.8274 45.6816C56.3929 45.6816 56.2985 45.8016 56.3174 46.1895C56.3552 46.8453 56.3457 47.5102 56.3174 48.1752C56.2985 48.5261 56.3929 48.637 56.7707 48.637C58.8202 48.6185 60.8507 48.637 62.9002 48.6185C63.2213 48.6185 63.4102 48.7201 63.5991 48.9695C64.6852 50.4194 65.7807 51.851 66.8763 53.2825C67.018 53.4672 67.1502 53.6704 67.4241 53.6704C68.4913 53.6796 69.568 53.6889 70.6352 53.6704C71.0224 53.6612 71.1641 53.3379 70.9563 53.0147C70.8997 52.9223 70.8241 52.8484 70.758 52.7561C69.568 51.2599 68.3685 49.7822 67.1407 48.2491ZM32.3851 35.3099C35.379 35.3099 38.354 35.3099 41.3479 35.3007C41.8012 35.3007 42.2073 35.3746 42.6323 35.5408C43.624 35.9195 44.4929 36.4921 45.324 37.1294C46.6368 38.136 47.9685 37.8497 49.149 37.1016C49.7629 36.7137 50.3579 36.2889 50.9812 35.9102C51.7179 35.4577 52.5018 35.2915 53.3896 35.2915C59.1885 35.3192 64.9969 35.3099 70.7958 35.3099C70.9185 35.3099 71.0508 35.3007 71.1735 35.3099C71.4569 35.3284 71.5702 35.1899 71.5702 34.922C71.5702 34.5064 71.5419 34.0908 71.5797 33.6752C71.6174 33.2227 71.4285 33.0934 70.9847 33.1026C69.3035 33.1211 67.613 33.1026 65.9413 33.1211C65.6107 33.1211 65.5163 33.038 65.5257 32.7147C65.5541 32.1329 65.5446 31.5418 65.5257 30.9599C65.5163 30.729 65.5824 30.6182 65.8091 30.5074C66.3474 30.2488 66.5457 29.7501 66.3852 29.1867C66.2435 28.6695 65.8185 28.3555 65.2235 28.3832C64.978 28.3924 64.8646 28.3185 64.7419 28.1246C63.3441 25.8526 61.9368 23.5899 60.5391 21.3179C60.4352 21.1424 60.3974 21.0224 60.5202 20.8284C60.8224 20.3205 60.7468 19.8125 60.3785 19.4246C60.0196 19.0644 59.5096 18.9813 58.9902 19.2399C58.8296 19.323 58.7163 19.3322 58.5746 19.2214C57.4318 18.4272 56.289 17.6421 55.1463 16.8479C54.9951 16.7463 54.929 16.6262 54.9479 16.423C54.9951 15.8135 54.7779 15.4348 54.2963 15.2131C53.8335 15.0007 53.3424 15.1023 52.9268 15.5179C52.7662 15.6749 52.634 15.7026 52.4263 15.6472C51.8974 15.4995 51.3685 15.3702 50.8301 15.2501C50.6035 15.1947 50.4712 15.1208 50.4146 14.853C50.2918 14.3173 49.8857 14.031 49.3757 14.0033C48.8373 13.9756 48.4407 14.1972 48.2423 14.7237C48.1479 14.973 47.9873 14.9823 47.7796 15.0007C46.3346 15.1116 44.899 15.2131 43.4634 15.3517C43.1234 15.3794 42.8968 15.3517 42.6796 15.0469C42.3773 14.6128 41.8579 14.4928 41.3857 14.659C40.9323 14.816 40.5923 15.2316 40.6207 15.7119C40.6395 16.0166 40.5073 16.1459 40.2712 16.2752C38.4484 17.2727 36.6351 18.2794 34.8217 19.2861C34.6423 19.3877 34.529 19.4154 34.3306 19.2861C33.8301 18.9628 33.254 19.0275 32.8667 19.4154C32.4795 19.794 32.4228 20.3482 32.744 20.8469C32.8573 21.0316 32.8667 21.1701 32.7628 21.3549C31.6862 23.2297 30.6189 25.1045 29.5517 26.9701C29.4478 27.1548 29.3628 27.2657 29.0984 27.2564C28.4939 27.2195 28.0689 27.5612 27.9178 28.1154C27.7856 28.6048 28.0217 29.1497 28.5223 29.3899C28.7489 29.5007 28.8056 29.6208 28.7962 29.8517C28.7867 30.7567 28.7678 31.6711 28.8056 32.5762C28.8245 33.0195 28.7301 33.1765 28.2295 33.1673C26.5578 33.1303 24.8956 33.158 23.2334 33.1488C22.8273 33.1488 22.6478 33.2688 22.6856 33.6752C22.7139 33.9615 22.695 34.2571 22.695 34.5526C22.695 35.3192 22.695 35.3192 23.4506 35.3192C26.4067 35.3099 29.3912 35.3099 32.3851 35.3099ZM39.9784 55.8408C38.2595 55.8408 36.5501 55.85 34.8406 55.8315C34.4723 55.8315 34.359 55.9054 34.3873 56.2841C34.5384 58.8978 34.8879 61.4745 35.5679 64.0051C35.6434 64.2914 35.7379 64.3653 36.0306 64.3653C39.0812 64.3561 42.1223 64.3561 45.1729 64.3653C45.5507 64.3653 45.5979 64.236 45.5979 63.9127C45.5884 61.3637 45.579 58.8147 45.5979 56.2656C45.5979 55.8777 45.4657 55.8223 45.1162 55.8223C43.3973 55.85 41.6784 55.8408 39.9784 55.8408ZM53.569 64.3653C54.7968 64.3653 56.0246 64.3653 57.2524 64.3653C58.6218 64.3653 58.5935 64.3653 58.8863 63.0354C59.3774 60.7911 59.6796 58.5284 59.8118 56.2379C59.8307 55.9054 59.7552 55.8223 59.4152 55.8223C55.9396 55.8315 52.4735 55.8315 48.9885 55.8223C48.6957 55.8223 48.5823 55.8777 48.5918 56.1917C48.6107 58.7962 48.6107 61.3822 48.5918 63.9866C48.5918 64.3099 48.7051 64.356 48.9885 64.356C50.5185 64.3653 52.0485 64.3745 53.569 64.3653ZM61.7102 64.3653C64.0241 64.3653 66.2624 64.3653 68.5102 64.3653C68.6707 64.3653 68.7463 64.3099 68.8219 64.1529C70.0591 61.6315 70.7863 58.9901 71.0602 56.2102C71.0885 55.9054 70.9846 55.8223 70.6824 55.8223C68.1985 55.8315 65.7241 55.8315 63.2402 55.8223C62.9474 55.8223 62.8435 55.8777 62.8246 56.1917C62.7113 58.9347 62.3713 61.6408 61.7102 64.3653ZM27.2756 55.8408C26.0195 55.8408 24.7539 55.85 23.4978 55.8315C23.1767 55.8315 23.1106 55.9239 23.1389 56.2194C23.3656 58.6854 24.0267 61.0312 24.9617 63.3309C25.2828 64.1252 25.6889 64.4299 26.605 64.3838C28.4373 64.2914 30.2884 64.356 32.1206 64.3468C32.2434 64.3468 32.5456 64.5038 32.4512 64.1159C31.7901 61.5115 31.4973 58.8608 31.3839 56.1825C31.3651 55.8592 31.2423 55.8131 30.9684 55.8223C29.7312 55.85 28.5034 55.8408 27.2756 55.8408ZM36.6823 67.3299C36.6823 67.3853 36.6634 67.413 36.6729 67.4408C37.5701 69.7035 38.7129 71.8185 40.3184 73.6841C41.6312 75.1987 43.1612 76.4178 45.1257 77.0274C45.5223 77.1474 45.5884 77.0643 45.5884 76.6856C45.5696 73.7025 45.579 70.7287 45.5884 67.7363C45.5884 67.3946 45.5129 67.293 45.154 67.3022C42.434 67.3207 39.7234 67.3115 36.994 67.3115C36.8901 67.3115 36.7862 67.3207 36.6823 67.3299ZM48.6107 72.2525C48.6107 73.7579 48.6201 75.2634 48.6012 76.7595C48.6012 77.1012 48.6862 77.1382 48.9979 77.0458C50.2162 76.6764 51.3024 76.0761 52.2657 75.2634C54.7213 73.1946 56.2418 70.5255 57.4413 67.6439C57.5546 67.3761 57.4791 67.3022 57.1863 67.3022C54.4379 67.3115 51.6896 67.3115 48.9412 67.3022C48.6201 67.3022 48.5918 67.4315 48.5918 67.6901C48.6201 69.214 48.6107 70.7286 48.6107 72.2525Z" fill="#221F51"/>
<path d="M67.141 48.2493C68.3688 49.7732 69.5682 51.2694 70.7677 52.7471C70.8338 52.8302 70.9093 52.9133 70.966 53.0057C71.1738 53.3289 71.0321 53.6522 70.6449 53.6614C69.5777 53.6799 68.501 53.6614 67.4338 53.6614C67.1599 53.6614 67.0276 53.4675 66.886 53.2735C65.7904 51.8327 64.6949 50.392 63.6087 48.9605C63.4293 48.7203 63.2404 48.6095 62.9099 48.6095C60.8604 48.628 58.8298 48.6095 56.7804 48.628C56.4026 48.628 56.3082 48.5172 56.327 48.1662C56.3554 47.5012 56.3648 46.8455 56.327 46.1805C56.3082 45.7834 56.4026 45.6633 56.837 45.6726C59.3398 45.7003 61.8332 45.6818 64.336 45.6818C64.6476 45.6818 64.9687 45.6726 65.2804 45.6449C66.1965 45.5525 66.7443 45.0168 66.7915 44.1117C66.8199 43.5299 66.8199 42.9388 66.7915 42.357C66.7443 41.4334 66.1965 40.8793 65.2426 40.8239C64.3832 40.7684 63.5143 40.7869 62.6454 40.7869C60.7848 40.7777 58.9337 40.7962 57.0826 40.7777C56.7709 40.7777 56.6104 40.8793 56.4687 41.1379C54.457 44.749 52.4359 48.3509 50.4431 51.9713C49.8009 53.1442 48.9037 53.8092 47.4965 53.6799C47.2792 53.6614 47.0526 53.6614 46.8353 53.6799C45.4281 53.7815 44.5026 53.135 43.8414 51.9528C41.8392 48.3509 39.7992 44.7767 37.7875 41.184C37.6364 40.907 37.4759 40.8239 37.1736 40.8239C34.5009 40.8331 31.8281 40.8331 29.1553 40.8331C28.6831 40.8331 28.2108 40.8608 27.7575 40.9901C27.0869 41.184 26.6997 41.6366 26.558 42.2831C26.4636 42.7356 26.4164 43.1882 26.3975 43.65C26.388 43.964 26.4825 44.0379 26.7942 44.0379C28.6642 44.0286 30.5436 44.0286 32.4042 44.0286C34.2459 44.0286 36.0875 44.0286 37.9198 44.0286C38.5148 44.0286 38.6753 44.1856 38.6848 44.7675C38.6942 45.2293 38.6848 45.691 38.6848 46.1528C38.6848 46.8547 38.5337 46.9933 37.8348 46.9933C34.1797 46.9933 30.5436 47.0025 26.8886 46.984C26.4447 46.984 26.3692 47.1133 26.388 47.5012C26.4164 47.963 26.4542 48.4248 26.5486 48.8681C26.6903 49.607 27.1625 50.0595 27.9086 50.235C28.3242 50.3273 28.7492 50.3458 29.1742 50.3458C32.102 50.3458 35.0203 50.3458 37.9481 50.3458C38.6564 50.3458 38.7698 50.4474 38.7698 51.1401C38.7698 51.7589 38.7792 52.3684 38.7698 52.9872C38.7603 53.5506 38.6375 53.6706 38.0803 53.6706C34.9636 53.6706 31.8564 53.6706 28.7397 53.6706C27.8992 53.6706 27.0775 53.5691 26.2747 53.3289C24.7069 52.8671 23.8192 51.7958 23.4319 50.2904C23.2147 49.4407 23.1297 48.5633 23.1297 47.6859C23.1297 46.1621 23.1108 44.6382 23.1391 43.1235C23.158 42.3293 23.243 41.535 23.4603 40.7592C23.9608 38.9675 25.283 37.8869 27.3608 37.6191C27.9086 37.5452 28.4564 37.5083 29.0042 37.5083C32.3853 37.5083 35.757 37.5175 39.1475 37.499C39.5914 37.499 39.8748 37.6283 40.092 38.0255C42.2926 41.9875 44.4931 45.9496 46.7031 49.9025C46.7881 50.0595 46.8259 50.2535 47.0715 50.2719C47.3548 50.2904 47.402 50.0595 47.487 49.9025C49.2909 46.6331 51.0854 43.3637 52.8704 40.085C53.267 39.3554 53.6826 38.635 54.0698 37.9054C54.2209 37.6191 54.4382 37.5083 54.7498 37.5083C58.4993 37.5175 62.2299 37.5175 65.9793 37.5175C66.4232 37.5175 66.8576 37.5914 67.2921 37.6837C68.9827 38.0439 69.9838 39.0783 70.2954 40.7223C70.5882 42.2739 70.5977 43.8439 70.2577 45.3863C69.946 46.7901 69.0488 47.7136 67.6132 48.1108C67.4715 48.157 67.3299 48.1939 67.141 48.2493Z" fill="white"/>
<path d="M32.3851 35.3005C29.3912 35.3005 26.4162 35.3005 23.4223 35.3005C22.6667 35.3005 22.6667 35.3005 22.6667 34.534C22.6667 34.2384 22.6856 33.9429 22.6573 33.6566C22.6195 33.241 22.7989 33.1209 23.205 33.1302C24.8767 33.1486 26.5389 33.1117 28.2012 33.1486C28.7017 33.1579 28.7962 33.0009 28.7773 32.5575C28.7962 31.6063 28.7962 30.7751 28.7678 29.833C28.7584 29.6114 28.7206 29.4821 28.494 29.3712C27.984 29.1311 27.7573 28.5862 27.8895 28.0967C28.0406 27.5426 28.4656 27.2101 29.0701 27.2378C29.3345 27.2563 29.4195 27.1455 29.5234 26.9515C30.5906 25.0767 31.6579 23.2018 32.7345 21.3362C32.8384 21.1515 32.829 21.013 32.7156 20.8283C32.3945 20.3295 32.4606 19.7754 32.8384 19.3967C33.2256 19.0181 33.8018 18.9442 34.3023 19.2674C34.5006 19.3967 34.6234 19.3598 34.7934 19.2674C36.6068 18.2608 38.4295 17.2541 40.2429 16.2566C40.479 16.1273 40.6112 16.0073 40.5923 15.6932C40.564 15.213 40.8946 14.7974 41.3573 14.6404C41.8296 14.4741 42.349 14.5942 42.6512 15.0283C42.859 15.3423 43.0951 15.37 43.4351 15.3331C44.8707 15.2038 46.3157 15.0929 47.7512 14.9821C47.959 14.9636 48.1196 14.9636 48.214 14.705C48.4124 14.1878 48.809 13.9569 49.3474 13.9846C49.8668 14.0124 50.2635 14.2987 50.3863 14.8343C50.4524 15.1022 50.5751 15.176 50.8018 15.2315C51.3401 15.3608 51.869 15.4901 52.3979 15.6286C52.6057 15.684 52.7379 15.6655 52.8985 15.4993C53.314 15.0837 53.8052 14.9913 54.2679 15.1945C54.7496 15.4162 54.9763 15.7856 54.9196 16.4044C54.9007 16.6076 54.9668 16.7184 55.1179 16.8292C56.2607 17.6143 57.4035 18.4085 58.5463 19.2028C58.6974 19.3044 58.8013 19.2951 58.9618 19.2213C59.4813 18.9627 59.9913 19.0458 60.3502 19.406C60.728 19.7846 60.8035 20.3018 60.4919 20.8098C60.3691 21.013 60.4068 21.133 60.5107 21.2993C61.918 23.5713 63.3252 25.834 64.7135 28.106C64.8363 28.2999 64.9496 28.3738 65.1952 28.3646C65.7902 28.3368 66.2152 28.6509 66.3569 29.1681C66.508 29.7314 66.3097 30.2209 65.7808 30.4888C65.5541 30.5996 65.4974 30.7104 65.4974 30.9413C65.4974 31.5139 65.4974 32.0681 65.4974 32.6961C65.4785 33.0193 65.5824 33.1117 65.913 33.1024C67.5941 33.084 69.2847 33.1117 70.9563 33.084C71.4002 33.0747 71.5891 33.204 71.5513 33.6566C71.5136 34.0722 71.5419 34.4878 71.5419 34.9034C71.5419 35.1712 71.4286 35.3098 71.1452 35.2913C71.0224 35.2821 70.8902 35.2913 70.7674 35.2913C64.9685 35.2913 59.1602 35.3098 53.3613 35.2728C52.4735 35.2636 51.6896 35.4391 50.9529 35.8916C50.3296 36.2703 49.7346 36.6951 49.1207 37.083C47.9401 37.8311 46.599 38.1174 45.2957 37.1107C44.474 36.4735 43.5957 35.9008 42.604 35.5222C42.1885 35.3652 41.7729 35.2821 41.3196 35.2821C38.354 35.3005 35.3695 35.3005 32.3851 35.3005ZM29.939 27.4595C32.0262 26.1572 34.1134 24.855 36.2006 23.5528C36.2951 23.4974 36.3518 23.4235 36.3518 23.2942C36.3612 22.8139 36.8145 22.8324 36.3423 22.463C36.1534 22.3706 35.3034 21.7241 35.0862 21.5764C34.7368 21.3547 34.3779 20.9853 33.8679 21.2993C33.7829 21.3455 33.6506 21.3455 33.5468 21.327C33.3484 21.2808 33.2634 21.3732 33.1784 21.5209C32.0734 23.4789 30.9684 25.4369 29.8634 27.3856C29.8351 27.4225 29.8256 27.4687 29.8728 27.4964C29.8823 27.5241 29.9201 27.4779 29.939 27.4595ZM38.4673 22.0566C38.524 22.0289 38.5807 22.0104 38.6373 21.9735C41.7729 19.8678 44.899 17.7805 48.0346 15.6748C48.1007 15.6286 48.1668 15.5824 48.1101 15.4808C46.4762 15.6009 44.8329 15.7302 43.199 15.8502C43.0101 15.8687 42.9157 15.9426 42.8401 16.1273C42.6796 16.5152 42.3679 16.8569 41.924 16.8108C41.3951 16.7553 41.2534 17.0694 41.0646 17.4018C41.0079 17.5127 40.9418 17.6143 40.8757 17.7251C40.054 19.1566 39.2323 20.5789 38.4107 22.0012C38.3729 22.0104 38.3351 22.0289 38.3729 22.0751C38.3823 22.0936 38.439 22.0658 38.4673 22.0566ZM50.1502 21.2808C49.5835 21.3732 48.979 21.4748 48.3746 21.5671C45.2673 22.0566 42.179 22.5553 39.0718 23.0448C38.8545 23.0818 38.6468 23.0725 38.5523 23.3865C38.4579 23.7098 38.7034 23.756 38.8451 23.8853C39.0623 24.1069 39.3173 24.2916 39.5534 24.4948C41.669 26.3142 43.7657 28.1244 45.8812 29.9346C46.4101 30.3872 47.1279 30.2302 47.3924 29.6114C47.8362 28.5954 48.2801 27.5795 48.724 26.5636C49.3757 25.049 50.0274 23.5435 50.679 22.0381C50.8207 21.7057 50.5374 21.2716 50.1502 21.2808ZM33.0084 33.1394C34.1418 33.1394 35.2751 33.1394 36.4084 33.1394C36.654 33.1394 36.824 33.1209 36.8334 32.8069C36.9373 30.0177 37.0507 27.2286 37.1734 24.4394C37.1829 24.2085 37.0884 24.1254 36.909 24.0238C36.7295 23.913 36.5973 23.8945 36.4084 24.0146C34.3873 25.2891 32.3756 26.5636 30.3545 27.8289C30.1656 27.949 30.1373 28.0598 30.1656 28.2722C30.2223 28.7525 30.024 29.1681 29.5612 29.3712C29.2967 29.4913 29.2778 29.6391 29.2778 29.87C29.2873 30.8212 29.2967 31.7817 29.2684 32.733C29.259 33.0932 29.3817 33.1579 29.7217 33.1579C30.8173 33.1302 31.9223 33.1394 33.0084 33.1394ZM37.3057 32.7053C37.1829 33.0747 37.3623 33.1579 37.759 33.1486C38.9679 33.1302 40.1862 33.1763 41.3951 33.1302C42.0468 33.1024 42.6323 33.2317 43.2085 33.4719C43.4162 33.5642 43.5485 33.5365 43.7185 33.4072C44.1529 33.0563 44.6157 32.733 45.0596 32.3821C45.5035 32.0311 46.1268 31.7725 45.8718 31.0244C45.8624 30.9967 45.8718 30.9598 45.8907 30.9321C45.9946 30.7104 45.9001 30.5811 45.7207 30.4241C43.284 28.3461 40.8568 26.2681 38.4295 24.1716C38.269 24.033 38.1368 24.0053 37.929 24.0885C37.7118 24.1716 37.7023 24.3009 37.6929 24.4763C37.5607 27.2101 37.4379 29.9346 37.3057 32.7053ZM48.129 30.5903C48.214 30.5626 48.3085 30.5349 48.3935 30.5072C51.5763 29.5005 54.7496 28.4939 57.9324 27.5056C58.2724 27.404 58.3385 27.2009 58.4235 26.933C58.5085 26.656 58.2818 26.5821 58.1402 26.462C56.2985 24.9843 54.4474 23.5066 52.6152 22.0381C52.1146 21.6318 51.3307 21.8165 51.0757 22.3983C50.4618 23.8114 49.8574 25.2244 49.2435 26.6283C48.7618 27.7458 48.2707 28.854 47.789 29.9716C47.6568 30.2948 47.8268 30.6088 48.129 30.5903ZM62.3902 33.1024C61.5591 31.5509 60.7468 30.0639 59.9535 28.5862C59.8496 28.3923 59.6985 28.383 59.5191 28.4015C59.198 28.42 58.9146 28.3184 58.7163 28.0875C58.5368 27.8935 58.3857 27.8843 58.1402 27.9582C54.9291 28.9833 51.7274 29.99 48.5163 31.006C48.3746 31.0521 48.1668 31.0337 48.1479 31.2368C48.129 31.4677 48.3746 31.4677 48.5163 31.5232C49.8668 32.0219 51.2268 32.5114 52.5679 33.0009C52.7474 33.0655 52.9268 33.1209 53.1157 33.1209C56.2041 33.1024 59.2546 33.1024 62.3902 33.1024ZM38.6562 22.5646C38.7979 22.5738 38.8451 22.583 38.8923 22.5738C42.3679 22.0197 45.834 21.4563 49.3096 20.9114C49.8574 20.8283 50.4524 20.8375 50.5846 20.1264C50.594 20.0894 50.6413 20.0525 50.679 20.0248C50.849 19.8955 50.8301 19.7662 50.7546 19.5815C50.4429 18.8241 50.1502 18.0668 49.8668 17.3002C49.6685 16.7553 49.5646 16.2012 48.7807 16.1181C48.5162 16.0904 48.3462 16.0534 48.1196 16.2012C46.854 17.0601 45.579 17.9006 44.3135 18.7502C42.4529 20.0155 40.6018 21.2623 38.6562 22.5646ZM59.2641 23.7652C59.2641 23.1834 59.2546 22.6015 59.2641 22.0104C59.2735 21.6225 59.3113 21.2531 58.8107 21.1053C58.6974 21.0684 58.5746 20.9299 58.5274 20.8098C58.433 20.5697 58.2724 20.5512 58.0457 20.5697C56.3552 20.7082 54.6646 20.8375 52.9929 20.9668C52.8229 20.976 52.6624 20.9576 52.5868 21.1792C52.5113 21.4009 52.6813 21.4471 52.7946 21.5394C54.7213 23.091 56.6479 24.6334 58.5652 26.1757C58.7068 26.2958 58.8107 26.3419 59.0185 26.2496C59.2263 26.148 59.2735 26.0372 59.2735 25.8248C59.2641 25.1413 59.2641 24.4579 59.2641 23.7652ZM38.7884 20.3018C39.5062 19.0643 40.224 17.8359 40.9418 16.6168C40.8473 16.5244 40.7907 16.5614 40.734 16.5891C38.8168 17.6512 36.909 18.7133 35.0106 19.7754C34.7462 19.9232 34.6801 20.662 34.9162 20.8375C35.4451 21.2439 35.9929 21.6318 36.5312 22.0289C36.6068 22.0843 36.6823 22.1674 36.7768 22.1305M59.878 21.2993C59.8402 21.3178 59.793 21.3362 59.7552 21.3547C59.7552 22.8878 59.7552 24.4209 59.7552 25.9541C59.7552 26.1203 59.8496 26.1665 59.9724 26.2127C60.3974 26.3697 60.6335 26.7021 60.6713 27.127C60.6996 27.4133 60.8319 27.5149 61.0774 27.598C62.0502 27.9582 63.0041 28.3461 63.9769 28.7155C64.0996 28.7617 64.2413 28.891 64.3641 28.7709C64.5341 28.6047 64.3263 28.4846 64.2602 28.3738C63.2024 26.6467 62.1352 24.9289 61.068 23.2203C60.6524 22.583 60.2652 21.9365 59.878 21.2993ZM65.0063 31.1445C64.9308 30.7751 64.978 30.5719 64.6191 30.4149C64.298 30.2763 64.128 29.9623 64.1185 29.6298C64.1091 29.3435 63.9674 29.2419 63.7219 29.1496C62.768 28.7894 61.8235 28.4107 60.8696 28.0505C60.728 27.9951 60.5674 27.8197 60.3974 27.9859C60.2085 28.1706 60.388 28.3276 60.4635 28.4754C61.1719 29.7868 61.9085 31.0891 62.5791 32.419M53.0779 20.4496C54.7307 20.3203 56.393 20.2002 58.0363 20.0709C58.1685 20.0617 58.3385 20.0894 58.3952 19.9232C58.4707 19.7107 58.2535 19.6738 58.1402 19.5999C57.243 18.9811 56.3457 18.3623 55.4579 17.7343C54.9857 17.4111 54.5607 16.9493 53.909 17.3649C53.8902 17.3834 53.8429 17.3834 53.8146 17.3741C53.5407 17.3187 53.4368 17.4757 53.3329 17.6974C53.0402 18.3069 52.7285 18.9072 52.4168 19.5076C52.1429 20.0802 52.4263 20.4865 53.0779 20.4496ZM49.9424 16.1735C49.9518 16.2012 49.9707 16.2289 49.9801 16.2566C50.4051 17.328 50.8302 18.3993 51.2457 19.4706C51.3024 19.6184 51.3874 19.683 51.5574 19.7015C51.7274 19.72 51.8218 19.6461 51.8879 19.5076C52.2374 18.7872 52.5963 18.076 52.9457 17.3557C52.9835 17.2818 53.0496 17.2171 52.9929 17.1063C52.7096 16.5429 52.4263 16.0073 51.6329 15.9888C51.2646 15.9795 50.9057 15.8133 50.5468 15.7302C50.3296 15.6748 49.9424 15.9795 49.9424 16.1735ZM51.7746 33.2225C50.5185 32.7607 49.3568 32.3451 48.2046 31.9203C48.0535 31.8649 47.9401 31.8741 47.8268 31.9849C47.7135 32.105 47.7607 32.1974 47.8268 32.3174C48.1574 32.9547 48.4879 33.6012 48.7996 34.2477C48.8846 34.4231 48.9507 34.5247 49.1774 34.3862C49.9518 33.8967 50.8018 33.555 51.7746 33.2225ZM47.3074 35.5868C47.6662 35.4298 48.0535 35.0973 48.4407 34.7741C48.554 34.6817 48.4313 34.5709 48.3935 34.4878C48.0629 33.8321 47.7135 33.1763 47.3735 32.5206C47.3262 32.419 47.279 32.3174 47.1468 32.3359C46.9957 32.3544 47.024 32.4837 47.0051 32.5853C46.8635 33.3518 46.7312 34.1184 46.5896 34.8942C46.5046 35.3282 46.7312 35.5961 47.3074 35.5868ZM46.0607 34.9496C46.2212 34.0722 46.3724 33.2964 46.5235 32.5114C46.5424 32.3913 46.5612 32.2712 46.429 32.1881C46.2968 32.105 46.2024 32.1327 46.089 32.2158C45.4185 32.733 44.7385 33.241 44.0207 33.7859C44.729 34.1645 45.409 34.4693 46.0607 34.9496Z" fill="white"/>
<path d="M39.9784 55.8403C41.6973 55.8403 43.4067 55.8495 45.1162 55.8311C45.4562 55.8311 45.5978 55.8865 45.5978 56.2744C45.5789 58.8234 45.5789 61.3724 45.5978 63.9215C45.5978 64.2447 45.5601 64.374 45.1728 64.374C42.1223 64.3556 39.0811 64.3648 36.0306 64.374C35.7378 64.374 35.6434 64.3001 35.5678 64.0138C34.8878 61.474 34.5383 58.9065 34.3872 56.2928C34.3683 55.9142 34.4817 55.8403 34.8406 55.8403C36.55 55.8495 38.2595 55.8403 39.9784 55.8403Z" fill="white"/>
<path d="M53.5689 64.3652C52.0389 64.3652 50.5184 64.3559 48.9978 64.3744C48.705 64.3744 48.5917 64.3282 48.6011 64.005C48.62 61.4005 48.62 58.8146 48.6011 56.2101C48.6011 55.8961 48.705 55.8314 48.9978 55.8407C52.4734 55.8499 55.9395 55.8499 59.4245 55.8407C59.7645 55.8407 59.84 55.9238 59.8212 56.2563C59.6889 58.5467 59.3867 60.8094 58.8956 63.0537C58.6028 64.3744 58.6217 64.3836 57.2617 64.3836C56.0245 64.3652 54.7967 64.3652 53.5689 64.3652Z" fill="white"/>
<path d="M61.71 64.3648C62.3711 61.6403 62.7111 58.9435 62.815 56.2005C62.8244 55.8865 62.9378 55.8311 63.2305 55.8311C65.7144 55.8403 68.1889 55.8403 70.6728 55.8311C70.9844 55.8311 71.0883 55.9049 71.0506 56.2189C70.7767 58.9989 70.0494 61.6403 68.8122 64.1616C68.7367 64.3094 68.6611 64.374 68.5005 64.374C66.2528 64.3648 64.0144 64.3648 61.71 64.3648Z" fill="white"/>
<path d="M27.2756 55.8403C28.5034 55.8403 29.7311 55.8495 30.9589 55.8311C31.2423 55.8311 31.365 55.868 31.3745 56.1912C31.4973 58.8696 31.7806 61.511 32.4417 64.1247C32.5362 64.5126 32.2434 64.3556 32.1111 64.3556C30.2695 64.3648 28.4278 64.3001 26.5956 64.3925C25.6795 64.4387 25.2733 64.1339 24.9522 63.3396C24.0172 61.04 23.3561 58.6941 23.1295 56.2282C23.1011 55.9326 23.1672 55.8311 23.4883 55.8403C24.7633 55.8588 26.01 55.8403 27.2756 55.8403Z" fill="white"/>
<path d="M36.6823 67.3295C36.7862 67.3202 36.8901 67.311 36.994 67.311C39.714 67.311 42.4246 67.3202 45.154 67.3018C45.5129 67.3018 45.5979 67.3941 45.5884 67.7358C45.5696 70.719 45.5696 73.6928 45.5884 76.6852C45.5884 77.0731 45.5223 77.147 45.1257 77.0269C43.1518 76.4174 41.6218 75.1982 40.3184 73.6836C38.7129 71.8272 37.5701 69.703 36.6729 67.4403C36.6634 67.4126 36.6729 67.3849 36.6823 67.3295Z" fill="white"/>
<path d="M48.6105 72.2526C48.6105 70.7287 48.62 69.2048 48.6011 67.6994C48.6011 67.4408 48.6294 67.3115 48.9505 67.3115C51.6989 67.3208 54.4472 67.3208 57.1956 67.3115C57.4883 67.3115 57.5544 67.3854 57.4505 67.6532C56.2511 70.5348 54.7211 73.2039 52.275 75.2727C51.3116 76.0854 50.2255 76.6857 49.0072 77.0551C48.6955 77.1475 48.6011 77.1106 48.6105 76.7688C48.62 75.2542 48.6105 73.758 48.6105 72.2526Z" fill="white"/>
<path d="M37.7115 75.4756C36.3799 74.9861 35.1426 74.3211 33.9526 73.573C31.4121 71.9845 29.2493 69.9988 27.4737 67.616C27.417 67.5421 27.3415 67.4867 27.3604 67.3759C27.4359 67.2651 27.5587 67.3205 27.6626 67.3205C29.4287 67.3205 31.1854 67.3297 32.9421 67.3113C33.2537 67.3113 33.4143 67.3851 33.5182 67.6899C34.5004 70.4606 35.8226 73.0558 37.7304 75.337C37.7493 75.3555 37.7493 75.3925 37.7587 75.4202C37.7493 75.4386 37.7304 75.4571 37.7115 75.4756Z" fill="white"/>
<path d="M56.4399 75.4199C57.3277 74.21 58.2249 73.0094 58.9144 71.6887C59.6038 70.3588 60.2366 69.0011 60.7277 67.5973C60.7844 67.4311 60.8316 67.3018 61.0677 67.3018C63.0039 67.311 64.9305 67.311 66.9705 67.311C66.5361 67.8559 66.1678 68.3454 65.7711 68.8072C63.2305 71.7718 60.1516 74.0068 56.4966 75.4753C56.4683 75.4568 56.4588 75.4384 56.4399 75.4199Z" fill="white"/>
<path d="M56.4868 75.475C56.4493 75.4842 56.3836 75.5025 56.3836 75.4933C56.3554 75.4383 56.4024 75.4383 56.4399 75.4199C56.4587 75.4383 56.468 75.4566 56.4868 75.475Z" fill="white"/>
<path d="M37.7682 75.4199C37.8058 75.4291 37.8527 75.4475 37.8245 75.4933C37.8151 75.5025 37.7495 75.475 37.7119 75.475C37.7307 75.4566 37.7495 75.4383 37.7682 75.4199Z" fill="white"/>
<path d="M50.15 21.2804C50.5372 21.2712 50.8205 21.7053 50.6789 22.047C50.0272 23.5616 49.3755 25.0763 48.7239 26.5724C48.28 27.5884 47.8361 28.6043 47.3922 29.6202C47.1277 30.239 46.4005 30.396 45.8811 29.9435C43.7655 28.124 41.6688 26.3139 39.5533 24.5037C39.3172 24.3005 39.0716 24.1065 38.8449 23.8941C38.7127 23.7648 38.4672 23.7186 38.5522 23.3954C38.6466 23.0814 38.8544 23.0906 39.0716 23.0537C42.1788 22.5549 45.2672 22.0654 48.3744 21.576C48.9977 21.4744 49.5928 21.3728 50.15 21.2804Z" fill="#221F51"/>
<path d="M33.0084 33.149C31.9034 33.149 30.8079 33.1397 29.7029 33.1582C29.3629 33.1674 29.2401 33.1028 29.2495 32.7333C29.259 31.8005 29.2684 30.8308 29.259 29.8703C29.259 29.6394 29.2779 29.4916 29.5423 29.3716C29.9956 29.1684 30.2034 28.7528 30.1468 28.2725C30.1184 28.0509 30.1468 27.9493 30.3356 27.8292C32.3662 26.5639 34.3779 25.2987 36.3895 24.0149C36.5784 23.8948 36.7107 23.9133 36.8901 24.0241C37.0601 24.1257 37.164 24.2088 37.1546 24.4397C37.0318 27.2289 36.9184 30.0181 36.8146 32.8072C36.8051 33.1212 36.6351 33.1397 36.3895 33.1397C35.2751 33.149 34.1418 33.149 33.0084 33.149Z" fill="#221F51"/>
<path d="M37.3057 32.7149C37.4284 29.9442 37.5512 27.2289 37.674 24.4952C37.6835 24.3197 37.7023 24.1904 37.9101 24.1073C38.1179 24.0242 38.2407 24.0519 38.4107 24.1904C40.8379 26.2869 43.2651 28.3649 45.7018 30.443C45.8718 30.5907 45.9757 30.7293 45.8718 30.9509C45.8624 30.9786 45.8529 31.0156 45.8529 31.0433C46.0985 31.7914 45.4846 32.05 45.0407 32.4009C44.5968 32.7426 44.1435 33.0751 43.6996 33.4261C43.5296 33.5554 43.3974 33.5831 43.1896 33.4907C42.6135 33.2414 42.0279 33.1213 41.3762 33.149C40.1674 33.2044 38.9585 33.149 37.7401 33.1675C37.3718 33.1675 37.1923 33.0751 37.3057 32.7149Z" fill="#221F51"/>
<path d="M48.1292 30.5995C47.827 30.6087 47.657 30.3039 47.7987 29.9807C48.2804 28.8632 48.7715 27.7549 49.2531 26.6374C49.867 25.2243 50.4715 23.8113 51.0854 22.4075C51.3404 21.8256 52.1243 21.6409 52.6248 22.0473C54.4665 23.525 56.3176 25.0027 58.1498 26.4711C58.2915 26.5912 58.5182 26.6651 58.4332 26.9422C58.3482 27.21 58.2821 27.4039 57.9421 27.5148C54.7498 28.4938 51.5859 29.5097 48.4031 30.5164C48.3087 30.5441 48.2237 30.5718 48.1292 30.5995Z" fill="#221F51"/>
<path d="M62.3899 33.1117C59.2544 33.1117 56.2038 33.1117 53.1344 33.1117C52.9455 33.1117 52.766 33.0563 52.5866 32.9917C51.236 32.5022 49.876 32.0127 48.5349 31.514C48.3932 31.4585 48.1477 31.4585 48.1666 31.2276C48.176 31.0245 48.3932 31.0429 48.5349 30.9968C51.746 29.9808 54.9477 28.9649 58.1588 27.949C58.3949 27.8751 58.5555 27.8843 58.7349 28.0783C58.9333 28.3092 59.226 28.4108 59.5377 28.3923C59.7172 28.3831 59.8683 28.3831 59.9722 28.577C60.7561 30.0732 61.5588 31.5601 62.3899 33.1117Z" fill="#221F51"/>
<path d="M38.6562 22.574C40.5924 21.2718 42.4529 20.0157 44.3135 18.7689C45.5791 17.9193 46.8541 17.0696 48.1196 16.2199C48.3463 16.0721 48.5163 16.1091 48.7807 16.1368C49.5646 16.2199 49.6685 16.774 49.8669 17.3189C50.1502 18.0855 50.443 18.8428 50.7546 19.6001C50.8302 19.7849 50.8491 19.9142 50.6791 20.0435C50.6413 20.0712 50.5941 20.1081 50.5846 20.145C50.4524 20.8654 49.8574 20.847 49.3096 20.9301C45.8341 21.475 42.3679 22.0384 38.8924 22.5925C38.8451 22.5925 38.7979 22.5833 38.6562 22.574Z" fill="#221F51"/>
<path d="M59.2642 23.7649C59.2642 24.4575 59.2547 25.1502 59.2642 25.8336C59.2642 26.0368 59.2169 26.1569 59.0091 26.2585C58.8108 26.3508 58.7069 26.2954 58.5558 26.1846C56.6291 24.633 54.7025 23.0907 52.7852 21.5483C52.6719 21.4559 52.5113 21.4098 52.5775 21.1881C52.653 20.9665 52.8136 20.9849 52.9836 20.9757C54.6741 20.8464 56.3647 20.7171 58.0364 20.5786C58.263 20.5601 58.4236 20.5786 58.518 20.8187C58.5653 20.9387 58.6786 21.0773 58.8014 21.1142C59.3019 21.262 59.2641 21.6314 59.2547 22.0193C59.2547 22.6012 59.2642 23.183 59.2642 23.7649Z" fill="#221F51"/>
<path d="M38.4199 22.0194C39.2416 20.5879 40.0633 19.1656 40.8849 17.7433C40.951 17.6325 41.0172 17.5309 41.0738 17.42C41.2627 17.0876 41.4044 16.7735 41.9333 16.829C42.3677 16.8751 42.6888 16.5334 42.8494 16.1455C42.9249 15.9516 43.0194 15.8777 43.2083 15.8684C44.8516 15.7484 46.495 15.6191 48.1194 15.499C48.1761 15.6099 48.11 15.656 48.0438 15.693C44.9083 17.7987 41.7822 19.886 38.6466 21.9917C38.5994 22.0286 38.5333 22.0471 38.4766 22.0748C38.4577 22.0471 38.4388 22.0379 38.4199 22.0194Z" fill="#221F51"/>
<path d="M36.2481 22.3888C36.7864 22.749 36.3614 22.8321 36.352 23.3124C36.352 23.4417 36.2953 23.5155 36.2008 23.571C34.1136 24.8732 32.0264 26.1754 29.9392 27.4776C29.9203 27.4592 29.9014 27.4407 29.873 27.4222C30.9781 25.4643 32.0831 23.5063 33.1881 21.5576C33.2731 21.4098 33.3581 21.3082 33.5564 21.3636C33.6603 21.3914 33.7925 21.3914 33.8775 21.3359" fill="#221F51"/>
<path d="M40.9418 16.6263C40.2335 17.8454 39.5063 19.083 38.7885 20.3113C38.6374 20.5607 38.099 21.5027 37.9479 21.7521C37.3435 22.7957 37.3907 21.9184 36.7768 22.1492C36.6729 22.1862 36.5974 22.1031 36.5313 22.0476C35.9929 21.6505 35.4451 21.2626 34.9163 20.8563C34.6801 20.6715 34.7463 19.9419 35.0107 19.7942C36.9185 18.7321 38.8357 17.67 40.7341 16.6079C40.7907 16.5709 40.8474 16.534 40.9418 16.6263Z" fill="#221F51"/>
<path d="M59.878 21.3086C60.2652 21.9459 60.6619 22.5831 61.0491 23.2204C62.1163 24.9382 63.1836 26.656 64.2413 28.3739C64.3075 28.4847 64.5152 28.6048 64.3452 28.771C64.213 28.8911 64.0808 28.7618 63.958 28.7156C62.9947 28.3462 62.0313 27.9583 61.0586 27.5981C60.813 27.5057 60.6808 27.4134 60.6524 27.1271C60.6147 26.7022 60.388 26.379 59.9535 26.2127C59.8308 26.1665 59.7363 26.1204 59.7363 25.9541C59.7458 24.421 59.7363 22.8879 59.7363 21.3548C59.793 21.3455 59.8308 21.3271 59.878 21.3086Z" fill="#221F51"/>
<path d="M64.9118 33.0374C64.6757 33.2406 64.1279 33.1482 63.7313 33.1205C63.3252 33.0928 62.9474 32.9081 62.5979 32.4463C61.9274 31.1164 61.1907 29.8142 60.4824 28.5027C60.3974 28.3457 60.2274 28.1887 60.4163 28.0132C60.5863 27.847 60.7374 28.0224 60.8885 28.0779C61.8424 28.4381 62.7868 28.8167 63.7407 29.1769C63.9863 29.2693 64.128 29.3616 64.1374 29.6572C64.1468 29.9896 64.3168 30.3036 64.6379 30.4422C64.9968 30.5992 65.0441 30.8024 65.0252 31.1718" fill="#221F51"/>
<path d="M53.0781 20.4584C52.4265 20.4954 52.1431 20.0798 52.4265 19.5256C52.7287 18.9253 53.0498 18.325 53.3426 17.7155C53.4465 17.503 53.5504 17.346 53.8242 17.3922C53.8526 17.4014 53.8904 17.3922 53.9187 17.383C54.5704 16.9581 55.0048 17.4291 55.4676 17.7524C56.3648 18.3712 57.262 18.99 58.1498 19.618C58.2632 19.7011 58.4804 19.7381 58.4048 19.9412C58.3481 20.1075 58.1782 20.0798 58.0459 20.089C56.3931 20.2091 54.7404 20.3291 53.0781 20.4584Z" fill="#221F51"/>
<path d="M49.9424 16.1828C49.9424 15.9889 50.3296 15.6841 50.5374 15.7303C50.9057 15.8134 51.2646 15.9796 51.6235 15.9889C52.4168 16.0074 52.6907 16.543 52.9835 17.1064C53.0402 17.2172 52.9741 17.2819 52.9363 17.3558C52.5868 18.0761 52.2374 18.7873 51.8785 19.5077C51.8124 19.6462 51.7179 19.7108 51.5479 19.7016C51.3779 19.6831 51.3024 19.6185 51.2363 19.4707C50.8207 18.3994 50.3957 17.3281 49.9707 16.2567C49.9707 16.2382 49.9518 16.2105 49.9424 16.1828Z" fill="#221F51"/>
<path d="M51.7745 33.2315C50.8017 33.564 49.9517 33.9058 49.1772 34.3952C48.96 34.5338 48.8939 34.4322 48.7994 34.2567C48.4783 33.6102 48.1572 32.9637 47.8267 32.3265C47.77 32.2064 47.7133 32.114 47.8267 31.994C47.94 31.8739 48.0533 31.8739 48.2044 31.9293C49.3661 32.3449 50.5183 32.7698 51.7745 33.2315Z" fill="#221F51"/>
<path d="M47.3073 35.5958C46.7312 35.5958 46.5046 35.3279 46.5896 34.9031C46.7312 34.1365 46.8634 33.37 47.0051 32.5942C47.024 32.4926 46.9957 32.3633 47.1468 32.3448C47.2885 32.3263 47.3262 32.4372 47.3735 32.5295C47.7135 33.1853 48.0535 33.841 48.3935 34.4967C48.4407 34.5798 48.554 34.6999 48.4407 34.783C48.0535 35.1063 47.6662 35.4388 47.3073 35.5958Z" fill="#221F51"/>
<path d="M46.0605 34.9591C45.4183 34.4697 44.7288 34.1649 44.0205 33.7954C44.7383 33.2505 45.4088 32.7426 46.0888 32.2254C46.2022 32.1423 46.2966 32.1053 46.4288 32.1977C46.5611 32.29 46.5516 32.4009 46.5233 32.5209C46.3722 33.3152 46.2211 34.091 46.0605 34.9591Z" fill="#221F51"/>
<path d="M29.9383 27.4681C29.9195 27.4865 29.8914 27.5324 29.882 27.5232C29.835 27.4957 29.8444 27.4498 29.8726 27.4131C29.8914 27.4314 29.9195 27.4406 29.9383 27.4681Z" fill="#221F51"/>
<path d="M38.4668 22.0654C38.4387 22.0746 38.3824 22.1021 38.373 22.0929C38.3354 22.0562 38.373 22.0287 38.4105 22.0195C38.4387 22.0379 38.4574 22.0471 38.4668 22.0654Z" fill="#221F51"/>
<path d="M33.367 21.7428C34.1233 21.7428 34.7365 21.1432 34.7365 20.4036C34.7365 19.664 34.1233 19.0645 33.367 19.0645C32.6107 19.0645 31.9976 19.664 31.9976 20.4036C31.9976 21.1432 32.6107 21.7428 33.367 21.7428Z" fill="white"/>
<path d="M47.1467 32.8163C48.0074 32.8163 48.7051 32.1341 48.7051 31.2924C48.7051 30.4508 48.0074 29.7686 47.1467 29.7686C46.2861 29.7686 45.5884 30.4508 45.5884 31.2924C45.5884 32.1341 46.2861 32.8163 47.1467 32.8163Z" fill="white"/>
<path d="M65.2517 30.9687C66.1123 30.9687 66.81 30.2864 66.81 29.4448C66.81 28.6032 66.1123 27.9209 65.2517 27.9209C64.3911 27.9209 63.6934 28.6032 63.6934 29.4448C63.6934 30.2864 64.3911 30.9687 65.2517 30.9687Z" fill="white"/>
<path d="M33.4617 21.8349C34.3223 21.8349 35.02 21.1526 35.02 20.311C35.02 19.4694 34.3223 18.7871 33.4617 18.7871C32.601 18.7871 31.9033 19.4694 31.9033 20.311C31.9033 21.1526 32.601 21.8349 33.4617 21.8349Z" fill="white"/>
<path d="M37.5227 24.5136C38.3833 24.5136 39.081 23.8313 39.081 22.9897C39.081 22.1481 38.3833 21.4658 37.5227 21.4658C36.662 21.4658 35.9644 22.1481 35.9644 22.9897C35.9644 23.8313 36.662 24.5136 37.5227 24.5136Z" fill="white"/>
<path d="M59.5002 28.7528C60.3609 28.7528 61.0586 28.0706 61.0586 27.229C61.0586 26.3873 60.3609 25.7051 59.5002 25.7051C58.6396 25.7051 57.9419 26.3873 57.9419 27.229C57.9419 28.0706 58.6396 28.7528 59.5002 28.7528Z" fill="white"/>
<path d="M59.5002 21.7421C60.3609 21.7421 61.0586 21.0598 61.0586 20.2182C61.0586 19.3766 60.3609 18.6943 59.5002 18.6943C58.6396 18.6943 57.9419 19.3766 57.9419 20.2182C57.9419 21.0598 58.6396 21.7421 59.5002 21.7421Z" fill="white"/>
<path d="M51.4817 22.3886C52.3423 22.3886 53.04 21.7063 53.04 20.8647C53.04 20.0231 52.3423 19.3408 51.4817 19.3408C50.621 19.3408 49.9233 20.0231 49.9233 20.8647C49.9233 21.7063 50.621 22.3886 51.4817 22.3886Z" fill="white"/>
<path d="M29.0325 29.8603C29.8931 29.8603 30.5908 29.178 30.5908 28.3364C30.5908 27.4948 29.8931 26.8125 29.0325 26.8125C28.1718 26.8125 27.4741 27.4948 27.4741 28.3364C27.4741 29.178 28.1718 29.8603 29.0325 29.8603Z" fill="white"/>
<path d="M53.7483 17.873C54.6089 17.873 55.3066 17.1907 55.3066 16.3491C55.3066 15.5075 54.6089 14.8252 53.7483 14.8252C52.8876 14.8252 52.1899 15.5075 52.1899 16.3491C52.1899 17.1907 52.8876 17.873 53.7483 17.873Z" fill="white"/>
<path d="M49.3098 16.7646C50.1705 16.7646 50.8681 16.0823 50.8681 15.2407C50.8681 14.3991 50.1705 13.7168 49.3098 13.7168C48.4492 13.7168 47.7515 14.3991 47.7515 15.2407C47.7515 16.0823 48.4492 16.7646 49.3098 16.7646Z" fill="white"/>
<path d="M41.6692 17.2265C42.5298 17.2265 43.2275 16.5442 43.2275 15.7026C43.2275 14.861 42.5298 14.1787 41.6692 14.1787C40.8085 14.1787 40.1108 14.861 40.1108 15.7026C40.1108 16.5442 40.8085 17.2265 41.6692 17.2265Z" fill="white"/>
<path d="M46.9108 80.6569C42.113 80.6569 37.4569 79.7426 33.0747 77.9324C28.8436 76.1869 25.0374 73.6933 21.7791 70.507C18.5113 67.3207 15.9518 63.6172 14.1574 59.4981C12.3063 55.222 11.3618 50.6873 11.3618 46.014C11.3618 41.3408 12.3063 36.7968 14.1574 32.53C15.9518 28.4016 18.5113 24.6981 21.7791 21.5211C25.0469 18.3348 28.8436 15.8411 33.0747 14.0956C37.4569 12.2854 42.113 11.3711 46.9108 11.3711C51.7086 11.3711 56.3648 12.2854 60.747 14.0956C64.9781 15.8411 68.7843 18.3348 72.0426 21.5211C75.3104 24.7074 77.8699 28.4109 79.6643 32.53C81.5154 36.8061 82.4599 41.3408 82.4599 46.014C82.4599 50.6873 81.5154 55.2312 79.6643 59.4981C77.8699 63.6264 75.3104 67.3299 72.0426 70.507C68.7748 73.6933 64.9781 76.1869 60.747 77.9324C56.3648 79.7334 51.7086 80.6569 46.9108 80.6569ZM46.9108 11.8144C27.5685 11.8144 11.834 27.1548 11.834 46.0048C11.834 64.8547 27.5685 80.1952 46.9108 80.1952C66.2531 80.1952 81.9876 64.8547 81.9876 46.0048C81.9782 27.1548 66.2437 11.8144 46.9108 11.8144Z" fill="white"/>
<path d="M46.958 92.0351C40.6207 92.0351 34.4724 90.816 28.6829 88.424C23.0918 86.1058 18.0673 82.7902 13.7606 78.5695C9.44448 74.3488 6.06336 69.4262 3.6928 63.9587C1.24667 58.288 0 52.2664 0 46.06C0 39.8537 1.23723 33.832 3.6928 28.1613C6.05392 22.6846 9.44448 17.7712 13.7606 13.5505C18.0767 9.32985 23.0918 6.01425 28.6829 3.6961C34.4724 1.29483 40.6207 0.0849609 46.958 0.0849609C53.2952 0.0849609 59.4436 1.30407 65.233 3.6961C70.8242 6.01425 75.8486 9.32985 80.1553 13.5505C84.4714 17.7712 87.8526 22.6938 90.2231 28.1613C92.6692 33.832 93.9159 39.8537 93.9159 46.06C93.9159 52.2664 92.6787 58.288 90.2231 63.9587C87.862 69.4355 84.4714 74.3488 80.1553 78.5695C75.8392 82.7902 70.8242 86.1058 65.233 88.424C59.4436 90.816 53.2952 92.0351 46.958 92.0351ZM46.958 0.685278C21.4106 0.685278 0.623336 21.0407 0.623336 46.0508C0.623336 71.0702 21.4106 91.4163 46.958 91.4163C72.5053 91.4163 93.2926 71.0609 93.2926 46.0508C93.2926 21.0314 72.5053 0.685278 46.958 0.685278Z" fill="white"/>
</g>
<defs>
<filter id="filter0_d_136_209" x="-2" y="0.0849609" width="97.916" height="95.9502" filterUnits="userSpaceOnUse" color-interpolation-filters="sRGB">
<feFlood flood-opacity="0" result="BackgroundImageFix"/>
<feColorMatrix in="SourceAlpha" type="matrix" values="0 0 0 0 0 0 0 0 0 0 0 0 0 0 0 0 0 0 127 0" result="hardAlpha"/>
<feOffset dy="2"/>
<feGaussianBlur stdDeviation="1"/>
<feComposite in2="hardAlpha" operator="out"/>
<feColorMatrix type="matrix" values="0 0 0 0 0 0 0 0 0 0 0 0 0 0 0 0 0 0 0.54 0"/>
<feBlend mode="normal" in2="BackgroundImageFix" result="effect1_dropShadow_136_209"/>
<feBlend mode="normal" in="SourceGraphic" in2="effect1_dropShadow_136_209" result="shape"/>
</filter>
</defs>
</svg>
