<svg width="17" height="17" viewBox="0 0 17 17" fill="none" xmlns="http://www.w3.org/2000/svg">
<path d="M1.29117 0.0921444L16.487 7.65364C16.6405 7.72994 16.7702 7.84993 16.861 7.99972C16.9518 8.1495 17 8.32297 17 8.50006C17 8.67714 16.9518 8.85061 16.861 9.0004C16.7702 9.15018 16.6405 9.27017 16.487 9.34648L1.29117 16.908C1.13539 16.9856 0.961454 17.015 0.790059 16.9928C0.618664 16.9705 0.457023 16.8975 0.324369 16.7824C0.191714 16.6673 0.0936315 16.515 0.0417899 16.3436C-0.0100517 16.1721 -0.0134696 15.9888 0.0319431 15.8154L1.55224 10.0166C1.57085 9.94549 1.60916 9.88169 1.66238 9.83312C1.71561 9.78455 1.78139 9.75335 1.85154 9.74342L9.21504 8.70266C9.24582 8.6981 9.27495 8.68535 9.29959 8.66562C9.32423 8.6459 9.34355 8.61988 9.35568 8.5901L9.36866 8.54358C9.37435 8.50168 9.36626 8.45902 9.3457 8.42251C9.32515 8.38601 9.29334 8.3578 9.25543 8.34248L9.21577 8.33122L1.85948 7.29046C1.78946 7.28039 1.72382 7.24913 1.67074 7.20057C1.61766 7.15201 1.57946 7.08829 1.5609 7.01732L0.0319431 1.18544C-0.0136535 1.012 -0.0103747 0.828578 0.0413887 0.657024C0.0931522 0.48547 0.191219 0.333011 0.323908 0.217807C0.456598 0.102602 0.618317 0.0295074 0.789806 0.00722833C0.961294 -0.0150508 1.13532 0.0144249 1.29117 0.0921444Z" fill="white"/>
</svg>
