<svg width="155" height="154" viewBox="0 0 155 154" fill="none" xmlns="http://www.w3.org/2000/svg">
<g filter="url(#filter0_d_1_13524)">
<path d="M77.6212 15C61.7118 15 46.4399 21.3253 35.1992 32.5735C23.947 43.8261 17.6242 59.0868 17.6211 75.0001C17.6211 90.9067 23.9492 106.179 35.1992 117.427C46.4399 128.675 61.7118 135 77.6212 135C93.5306 135 108.802 128.675 120.043 117.427C131.293 106.179 137.621 90.9067 137.621 75.0001C137.621 59.0935 131.293 43.8216 120.043 32.5735C108.802 21.3253 93.5306 15 77.6212 15Z" fill="white"/>
</g>
<path d="M44.7803 74.3675C62.2741 66.7475 73.9366 61.7234 79.7679 59.2962C96.4366 52.3653 99.896 51.1615 102.155 51.1207C102.652 51.1127 103.759 51.2356 104.48 51.8192C105.08 52.3113 105.249 52.977 105.334 53.4443C105.409 53.9112 105.512 54.9753 105.427 55.8059C104.527 65.2934 100.618 88.3166 98.6304 98.9431C97.796 103.439 96.1366 104.947 94.5335 105.094C91.046 105.415 88.4023 102.792 85.0273 100.58C79.7491 97.1178 76.7679 94.9634 71.6397 91.5856C65.7147 87.6819 69.5585 85.5359 72.9335 82.0297C73.8147 81.1119 89.171 67.1478 89.4616 65.8812C89.4991 65.7228 89.5366 65.1321 89.1804 64.8209C88.8335 64.5087 88.3179 64.6156 87.9429 64.7C87.4085 64.82 78.9804 70.3962 62.6303 81.4278C60.2397 83.0722 58.0741 83.8737 56.1241 83.8315C53.9866 83.7856 49.8616 82.6203 46.7959 81.6247C43.0459 80.4031 40.0553 79.7572 40.3178 77.6825C40.4491 76.6025 41.9397 75.4972 44.7803 74.3675Z" fill="#211E51"/>
<defs>
<filter id="filter0_d_1_13524" x="0.621094" y="0" width="154" height="154" filterUnits="userSpaceOnUse" color-interpolation-filters="sRGB">
<feFlood flood-opacity="0" result="BackgroundImageFix"/>
<feColorMatrix in="SourceAlpha" type="matrix" values="0 0 0 0 0 0 0 0 0 0 0 0 0 0 0 0 0 0 127 0" result="hardAlpha"/>
<feOffset dy="2"/>
<feGaussianBlur stdDeviation="8.5"/>
<feComposite in2="hardAlpha" operator="out"/>
<feColorMatrix type="matrix" values="0 0 0 0 0 0 0 0 0 0 0 0 0 0 0 0 0 0 0.54 0"/>
<feBlend mode="normal" in2="BackgroundImageFix" result="effect1_dropShadow_1_13524"/>
<feBlend mode="normal" in="SourceGraphic" in2="effect1_dropShadow_1_13524" result="shape"/>
</filter>
</defs>
</svg>
