<svg width="75" height="75" viewBox="0 0 75 75" fill="none" xmlns="http://www.w3.org/2000/svg">
<g filter="url(#filter0_d_1_18953)">
<path d="M37.4167 57.3167C29.8125 57.3167 23.0904 53.4233 19.1667 47.5833C19.2579 41.5 31.3333 38.1542 37.4167 38.1542C43.5 38.1542 55.5754 41.5 55.6667 47.5833C53.6558 50.5776 50.9395 53.0314 47.757 54.7287C44.5745 56.4261 41.0235 57.3148 37.4167 57.3167M37.4167 14.125C39.8368 14.125 42.1577 15.0864 43.869 16.7977C45.5803 18.5089 46.5417 20.8299 46.5417 23.25C46.5417 25.6701 45.5803 27.9911 43.869 29.7023C42.1577 31.4136 39.8368 32.375 37.4167 32.375C34.9966 32.375 32.6756 31.4136 30.9643 29.7023C29.253 27.9911 28.2917 25.6701 28.2917 23.25C28.2917 20.8299 29.253 18.5089 30.9643 16.7977C32.6756 15.0864 34.9966 14.125 37.4167 14.125M37.4167 5C33.4223 5 29.467 5.78675 25.7767 7.31533C22.0864 8.84391 18.7333 11.0844 15.9088 13.9088C10.2046 19.6131 7 27.3497 7 35.4167C7 43.4837 10.2046 51.2203 15.9088 56.9245C18.7333 59.7489 22.0864 61.9894 25.7767 63.518C29.467 65.0466 33.4223 65.8333 37.4167 65.8333C45.4837 65.8333 53.2203 62.6287 58.9245 56.9245C64.6287 51.2203 67.8333 43.4837 67.8333 35.4167C67.8333 18.5962 54.1458 5 37.4167 5Z" fill="white"/>
</g>
<defs>
<filter id="filter0_d_1_18953" x="0" y="0" width="74.833" height="74.8333" filterUnits="userSpaceOnUse" color-interpolation-filters="sRGB">
<feFlood flood-opacity="0" result="BackgroundImageFix"/>
<feColorMatrix in="SourceAlpha" type="matrix" values="0 0 0 0 0 0 0 0 0 0 0 0 0 0 0 0 0 0 127 0" result="hardAlpha"/>
<feOffset dy="2"/>
<feGaussianBlur stdDeviation="3.5"/>
<feComposite in2="hardAlpha" operator="out"/>
<feColorMatrix type="matrix" values="0 0 0 0 0 0 0 0 0 0 0 0 0 0 0 0 0 0 0.54 0"/>
<feBlend mode="normal" in2="BackgroundImageFix" result="effect1_dropShadow_1_18953"/>
<feBlend mode="normal" in="SourceGraphic" in2="effect1_dropShadow_1_18953" result="shape"/>
</filter>
</defs>
</svg>
