<svg width="14" height="7" viewBox="0 0 14 7" fill="none" xmlns="http://www.w3.org/2000/svg">
<path d="M7.05628 1.42303C8.16233 1.42057 9.24697 1.62748 10.1855 2.01997C11.124 2.41247 11.8784 2.97462 12.3618 3.6418C11.3692 5.00129 9.34209 5.86056 7.05628 5.86056C4.77046 5.86056 2.74331 5.00129 1.75079 3.6418C2.23419 2.97462 2.98851 2.41247 3.92705 2.01997C4.86558 1.62748 5.95022 1.42057 7.05628 1.42303ZM7.05628 0.616211C4.04863 0.616211 1.4801 1.87082 0.439453 3.6418C1.4801 5.41277 4.04863 6.66738 7.05628 6.66738C10.0639 6.66738 12.6325 5.41277 13.6731 3.6418C12.6325 1.87082 10.0639 0.616211 7.05628 0.616211ZM7.05628 2.63327C7.45511 2.63327 7.83762 2.73952 8.11964 2.92866C8.40166 3.11779 8.5601 3.37432 8.5601 3.6418C8.5601 3.90927 8.40166 4.1658 8.11964 4.35493C7.83762 4.54407 7.45511 4.65032 7.05628 4.65032C6.65744 4.65032 6.27493 4.54407 5.99291 4.35493C5.71089 4.1658 5.55245 3.90927 5.55245 3.6418C5.55245 3.37432 5.71089 3.11779 5.99291 2.92866C6.27493 2.73952 6.65744 2.63327 7.05628 2.63327ZM7.05628 1.82644C5.56448 1.82644 4.34939 2.64134 4.34939 3.6418C4.34939 4.64226 5.56448 5.45715 7.05628 5.45715C8.54807 5.45715 9.76316 4.64226 9.76316 3.6418C9.76316 2.64134 8.54807 1.82644 7.05628 1.82644Z" fill="white" fill-opacity="0.5"/>
</svg>
