<svg width="18" height="18" viewBox="0 0 18 18" fill="none" xmlns="http://www.w3.org/2000/svg">
<path d="M15.75 16.5H2.25C1.9425 16.5 1.6875 16.245 1.6875 15.9375C1.6875 15.63 1.9425 15.375 2.25 15.375H15.75C16.0575 15.375 16.3125 15.63 16.3125 15.9375C16.3125 16.245 16.0575 16.5 15.75 16.5Z" fill="white"/>
<path d="M14.2651 2.61024C12.8101 1.15524 11.3851 1.11774 9.89256 2.61024L8.98506 3.51774C8.91006 3.59274 8.88006 3.71274 8.91006 3.81774C9.48006 5.80524 11.0701 7.39524 13.0576 7.96524C13.0876 7.97274 13.1176 7.98024 13.1476 7.98024C13.2301 7.98024 13.3051 7.95024 13.3651 7.89024L14.2651 6.98274C15.0076 6.24774 15.3676 5.53524 15.3676 4.81524C15.3751 4.07274 15.0151 3.35274 14.2651 2.61024Z" fill="white"/>
<path d="M11.7075 8.6476C11.49 8.5426 11.28 8.4376 11.0775 8.3176C10.9125 8.2201 10.755 8.1151 10.5975 8.0026C10.47 7.9201 10.32 7.8001 10.1775 7.6801C10.1625 7.6726 10.11 7.6276 10.05 7.5676C9.80249 7.3576 9.52499 7.0876 9.27749 6.7876C9.25499 6.7726 9.21749 6.7201 9.16499 6.6526C9.08999 6.5626 8.96249 6.4126 8.84999 6.2401C8.75999 6.1276 8.65499 5.9626 8.55749 5.7976C8.43749 5.5951 8.33249 5.3926 8.22749 5.1826V5.1826C8.08983 4.88759 7.70263 4.79996 7.47244 5.03015L3.25499 9.2476C3.1575 9.3451 3.06749 9.5326 3.04499 9.6601L2.63999 12.5326C2.56499 13.0426 2.7075 13.5226 3.0225 13.8451C3.2925 14.1076 3.66749 14.2501 4.07249 14.2501C4.16249 14.2501 4.25249 14.2426 4.34249 14.2276L7.22249 13.8226C7.35749 13.8001 7.54499 13.7101 7.63499 13.6126L11.8594 9.38819C12.085 9.1626 12.0002 8.77445 11.7075 8.6476V8.6476Z" fill="white"/>
</svg>
