<svg width="139" height="139" viewBox="0 0 139 139" fill="none" xmlns="http://www.w3.org/2000/svg">
<g clip-path="url(#clip0_1_20047)">
<g filter="url(#filter0_d_1_20047)">
<path d="M69.3465 138.525C107.36 138.525 138.176 107.647 138.176 69.5559C138.176 31.4651 107.36 0.586426 69.3465 0.586426C31.3328 0.586426 0.516602 31.4651 0.516602 69.5559C0.516602 107.647 31.3328 138.525 69.3465 138.525Z" fill="#221F51"/>
<path d="M69.3183 137.339C31.8039 137.325 1.42383 106.931 1.42383 69.4162C1.42383 31.9158 31.8458 1.49386 69.3602 1.50782C106.888 1.52178 137.283 31.9717 137.255 69.514C137.227 106.986 106.805 137.353 69.3183 137.339ZM27.3083 104.976C27.0012 105.939 26.694 106.875 26.3869 107.824C26.0797 108.787 25.7446 109.751 25.4514 110.728C25.3398 111.119 25.1024 111.091 24.8232 111.063C23.8738 110.951 22.9244 110.84 21.9751 110.742C20.4812 110.575 19.0013 110.421 17.5074 110.253C17.4795 110.323 17.4515 110.407 17.4236 110.477C31.6084 127.342 49.6047 136.166 71.7894 135.398C92.5641 134.672 109.192 125.471 122.023 109.248C119.426 109.444 116.857 109.695 114.316 110.03C113.716 110.114 113.548 109.849 113.408 109.388C112.892 107.74 112.361 106.093 111.817 104.418C100.676 117.248 86.7421 124.243 69.7092 124.368C52.6902 124.48 38.645 117.695 27.3083 104.976ZM16.2369 69.3604C16.0973 98.4839 39.8038 122.442 69.1088 122.567C98.4697 122.693 122.469 98.9726 122.497 69.5C122.539 40.1112 98.749 16.3069 69.3741 16.293C39.8876 16.2651 16.1531 40.2787 16.2369 69.3604ZM32.6556 26.0381C32.6974 26.4988 32.5857 26.9595 33.0884 27.1689C33.577 27.3784 33.926 27.0991 34.2751 26.8059C34.5683 26.5546 34.8754 26.3033 35.1826 26.052C35.4478 25.8426 35.3222 25.6751 35.1826 25.4656C35.0011 25.2004 34.8475 25.326 34.68 25.4656C34.4287 25.6751 34.1913 25.8984 33.926 26.0799C33.5491 26.3173 33.3676 26.1777 33.3676 25.7449C33.3676 25.5215 33.4514 25.3539 33.577 25.1724C34.303 24.1253 34.4147 23.0084 33.9679 21.8077C33.4234 20.3139 31.776 19.3505 30.1704 19.6437C28.6905 19.909 27.6434 21.2632 27.6294 22.8548C27.6574 24.8374 29.6399 27.2806 32.6556 26.0381ZM86.1418 9.50772C86.2395 9.78695 86.3233 9.95448 86.3512 10.122C86.6863 11.7276 87.0772 13.3332 87.3006 14.9527C87.4262 15.8323 87.873 16.1673 88.6409 16.3209C88.948 16.3907 89.0597 16.3069 89.1435 16.0417C89.7439 14.2267 90.3442 12.4117 90.9445 10.5967C91.0562 10.2616 91.0562 9.99637 90.5955 9.88468C90.1627 9.77298 90.0091 9.85675 89.9533 10.3035C89.9253 10.5688 89.7857 10.8201 89.702 11.0854C89.2692 12.4117 88.8363 13.7241 88.4035 15.0644C88.1802 14.9248 88.2081 14.7572 88.1802 14.6036C87.8311 12.9283 87.4262 11.2529 87.147 9.56357C87.0214 8.82361 86.6584 8.55835 86.0301 8.39081C85.6671 8.29308 85.4716 8.26515 85.332 8.72588C84.7875 10.5409 84.1872 12.3419 83.5729 14.129C83.4333 14.5478 83.5171 14.6734 83.908 14.7991C84.3129 14.9248 84.4245 14.7991 84.5362 14.4361C85.0528 12.8026 85.5833 11.211 86.1418 9.50772ZM5.65414 64.3063C5.4866 64.9486 5.69602 65.1999 6.39409 65.2557C8.12531 65.3953 9.87049 65.6048 11.5877 65.8281C12.0066 65.884 12.2021 65.87 12.2858 65.3674C12.3696 64.795 12.0624 64.8229 11.6994 64.795C11.1689 64.7531 10.6384 64.6833 10.1078 64.6135C9.96823 64.5995 9.81465 64.5856 9.71692 64.5018C9.5075 64.3203 9.89842 62.8264 10.1776 62.7147C10.9036 62.4215 11.6436 62.1284 12.3836 61.8491C12.9141 61.6537 12.8164 61.165 12.7326 60.8439C12.6069 60.3971 12.2719 60.802 12.0764 60.8579C11.504 61.0533 10.9316 61.2627 10.401 61.528C9.98218 61.7374 9.82861 61.5978 9.689 61.2209C9.38185 60.439 8.78151 60.0621 7.97174 60.0481C7.14802 60.0341 6.56164 60.439 6.22656 61.1929C5.75188 62.1982 5.82168 63.2872 5.65414 64.3063ZM50.7216 12.7189C51.7129 11.7276 51.8804 10.9597 51.308 10.0243C50.8194 9.21453 49.8141 8.96323 48.6274 9.34019C47.8316 9.59149 47.0498 9.87072 46.254 10.1499C46.0725 10.2198 45.8491 10.2477 45.9608 10.5688C46.617 12.4396 47.2732 14.3105 47.8875 16.1813C48.0271 16.6141 48.2644 16.4466 48.5297 16.3907C48.8508 16.3069 48.9206 16.1254 48.8089 15.8323C48.5995 15.2459 48.404 14.6595 48.2086 14.0731C48.1667 13.9475 48.0271 13.7799 48.1807 13.7101C48.6414 13.5007 49.13 13.3332 49.6187 13.1935C49.9119 13.1098 50.0515 13.4309 50.219 13.5845C50.7216 14.0312 51.1963 14.5059 51.671 14.9806C52.0619 15.3715 52.4808 15.1202 52.7321 14.8968C53.0113 14.6455 52.5645 14.4919 52.4249 14.3523C51.8944 13.7799 51.2941 13.2494 50.7216 12.7189ZM59.7687 13.4309C61.5836 13.4588 62.9937 12.0487 63.0356 10.1639C63.0775 8.22327 61.6674 6.64563 59.8664 6.61771C58.0654 6.58978 56.6273 7.86027 56.5575 9.9126C56.4877 11.8114 58.0095 13.403 59.7687 13.4309ZM111.189 23.6507C111.328 23.7903 111.454 23.888 111.566 23.9997C112.208 24.628 112.85 25.2702 113.492 25.9124C113.771 26.1916 113.995 26.1079 114.26 25.8426C114.553 25.5494 114.344 25.4098 114.148 25.2283C113.241 24.3627 112.347 23.4971 111.454 22.6175C111.189 22.3522 110.965 22.3104 110.7 22.5896C109.36 23.9997 108.005 25.4098 106.651 26.8059C106.414 27.0433 106.484 27.155 106.693 27.3504C107.656 28.2579 108.606 29.1794 109.541 30.1148C109.848 30.408 110.03 30.3102 110.281 30.0589C110.574 29.7797 110.393 29.6401 110.197 29.4446C109.765 29.0258 109.332 28.593 108.899 28.1742C107.768 27.0852 107.782 27.0852 108.913 25.9543C109.192 25.689 109.332 25.703 109.583 25.9682C110.155 26.5546 110.756 27.0852 111.328 27.6576C111.635 27.9647 111.789 27.7553 112.012 27.5599C112.264 27.3365 112.18 27.1969 111.984 27.0014C111.552 26.6105 111.147 26.1916 110.728 25.8007C109.834 24.9491 109.834 24.963 110.728 24.0695C110.867 23.9299 111.021 23.8042 111.189 23.6507ZM125.29 67.6571C125.304 67.6571 125.304 67.6571 125.318 67.6571C125.318 68.3272 125.332 69.0113 125.318 69.6815C125.304 70.0166 125.429 70.1283 125.764 70.1283C126.085 70.1143 126.309 70.0724 126.267 69.6675C126.211 69.0672 126.169 68.4668 126.169 67.8525C126.169 65.8979 125.708 66.4006 127.719 66.233C128.152 66.1911 128.222 66.3866 128.222 66.7496C128.236 67.4895 128.277 68.2295 128.319 68.9834C128.333 69.2626 128.249 69.5838 128.752 69.5698C129.297 69.5558 129.199 69.2208 129.185 68.9136C129.171 68.4669 129.171 68.034 129.129 67.5873C129.031 66.1632 129.031 66.1772 130.497 66.1632C130.902 66.1632 131.014 66.2889 131.014 66.6658C131.014 67.5733 131.07 68.4808 131.07 69.3883C131.07 69.7932 131.209 69.8909 131.6 69.8909C132.033 69.8909 132.019 69.6536 132.005 69.3604C131.949 68.1038 131.893 66.8473 131.865 65.6048C131.852 65.1999 131.74 65.0882 131.335 65.1161C129.45 65.1859 127.565 65.2557 125.695 65.2836C125.248 65.2976 125.136 65.4791 125.178 65.884C125.22 66.4564 125.248 67.0567 125.29 67.6571ZM8.1672 86.1001C9.96822 85.6813 11.9507 85.2066 13.9472 84.7319C14.1287 84.69 14.1567 84.5644 14.1148 84.4248C13.7937 83.0565 13.4725 81.6883 13.1375 80.3201C13.0537 79.985 12.8164 80.0828 12.579 80.1107C12.2858 80.1526 12.1881 80.2503 12.2719 80.5714C12.4394 81.1997 12.593 81.8279 12.7326 82.4562C13.0537 83.9222 13.0397 83.8942 11.6017 84.2712C11.0712 84.4108 10.9176 84.2433 10.8338 83.7546C10.6942 82.9867 10.4848 82.2328 10.3033 81.465C10.2056 81.074 9.92634 81.2276 9.689 81.2555C9.38185 81.2974 9.42373 81.437 9.49353 81.6883C9.64711 82.2607 9.77277 82.8611 9.85654 83.4475C9.91238 83.8244 10.3033 84.2712 10.066 84.5225C9.81465 84.7738 9.28411 84.7319 8.89319 84.8855C8.36266 85.0949 8.20908 84.8436 8.12532 84.3829C7.94382 83.5033 7.72043 82.6237 7.53893 81.7442C7.45516 81.3672 7.24575 81.4231 6.96652 81.4789C6.70125 81.5348 6.56164 81.5766 6.64541 81.9257C6.96652 83.1962 7.25971 84.4946 7.56686 85.779C7.63666 86.0164 7.69251 86.1979 8.1672 86.1001ZM117.178 35.099C118.435 35.7273 119.202 35.6575 119.887 34.8756C120.515 34.1636 120.445 33.1165 119.705 32.0694C119.244 31.4272 118.756 30.8129 118.309 30.1706C118.113 29.8914 117.974 29.8775 117.709 30.0729C116.187 31.2177 114.651 32.3486 113.115 33.4516C112.794 33.6889 112.864 33.8146 113.045 34.1078C113.269 34.4708 113.464 34.3591 113.702 34.1776C114.274 33.7448 114.847 33.312 115.461 32.8652C115.67 33.1305 115.838 33.3957 116.061 33.6331C116.508 34.0798 116.606 34.5266 116.243 35.0851C115.963 35.5039 115.81 36.0065 115.531 36.4393C115.154 37.0117 115.335 37.4027 115.852 37.7936C116.382 36.9419 116.745 36.0065 117.178 35.099ZM76.5642 13.3052C77.8906 13.3052 78.9237 12.4257 79.1192 11.1133C79.2867 9.92657 79.4263 8.72588 79.6218 7.53916C79.7056 7.06447 79.5939 6.89693 79.1192 6.82713C78.6026 6.75732 78.6026 7.05051 78.5607 7.39954C78.4072 8.54438 78.2675 9.70318 78.086 10.848C77.9185 11.923 77.2623 12.4536 76.285 12.3698C75.2379 12.2721 74.6795 11.6438 74.7772 10.5269C74.8889 9.31226 75.0564 8.08365 75.2519 6.88297C75.3217 6.49205 75.2938 6.33847 74.8749 6.28263C74.484 6.24074 74.2327 6.21282 74.1908 6.74335C74.0931 7.84631 73.9395 8.96322 73.758 10.0522C73.4648 11.9649 74.6096 13.3192 76.5642 13.3052ZM15.3573 35.6575C15.0362 35.7273 14.9385 36.1601 14.6872 36.4533C14.4219 36.7604 14.5895 36.928 14.757 37.1514C15.9716 38.7011 17.1723 40.2648 18.4009 41.8145C18.5545 42.0099 18.6802 42.4427 18.9733 42.1775C19.1967 41.9681 19.6435 41.605 19.1409 41.1862C18.2753 40.4881 18.359 39.7482 19.0432 38.9803C19.113 38.8965 19.1688 38.7848 19.2247 38.6871C19.8948 37.5981 19.8948 37.5981 21.1793 37.8355C21.277 37.8494 21.3608 37.8913 21.4585 37.8773C21.8634 37.8355 21.9053 37.4445 22.0449 37.1793C22.1426 36.9838 21.8773 36.9419 21.7377 36.914C19.6435 36.5091 17.5772 36.1042 15.3573 35.6575ZM13.3329 47.6085C13.6261 47.5526 13.7797 47.5247 13.9472 47.4968C14.771 47.3572 15.5947 47.2315 16.4184 47.0919C16.9769 46.9942 17.0048 46.4636 16.9908 46.1286C16.9769 45.8074 16.558 46.0588 16.3486 46.0867C15.4551 46.2402 14.5615 46.4078 13.682 46.6172C13.305 46.701 13.0956 46.6312 12.8862 46.2961C12.3556 45.5003 11.7972 44.7464 11.2248 43.9785C11.141 43.8668 11.0153 43.5317 10.8478 43.811C10.6384 44.16 10.3173 44.523 10.7361 44.9977C11.2387 45.5701 11.6436 46.2263 12.1322 46.8127C12.4394 47.1896 12.3417 47.2874 11.9089 47.3432C11.127 47.4549 10.3591 47.6224 9.57731 47.7341C9.01885 47.8179 8.89319 48.2926 8.963 48.6695C9.03281 49.0744 9.43769 48.7533 9.66107 48.7254C10.4569 48.5997 11.2666 48.4462 12.0485 48.2507C12.4952 48.139 12.7186 48.2647 12.956 48.6137C13.5005 49.4235 14.0729 50.2053 14.6313 51.0011C14.7291 51.1407 14.9385 51.4199 15.0223 51.2245C15.1619 50.8754 15.6366 50.5543 15.2177 50.0517C14.5755 49.2978 14.0031 48.488 13.3329 47.6085ZM11.4202 73.1579C11.0572 73.3115 10.8897 73.3813 10.7221 73.4511C9.17242 74.0793 7.63666 74.7355 6.07298 75.3359C5.4866 75.5593 5.68207 75.9921 5.7798 76.3132C5.90545 76.732 6.2126 76.3969 6.40806 76.3132C8.19512 75.5872 9.96823 74.8193 11.7413 74.0933C12.1322 73.9258 12.3556 73.7582 12.2579 73.2835C12.1602 72.8507 12.3696 72.3481 11.6436 72.1666C9.77277 71.7059 7.92985 71.1474 6.07298 70.6309C5.87752 70.575 5.62622 70.3377 5.44472 70.6169C5.29114 70.8403 5.40283 71.1195 5.44472 71.3708C5.50056 71.678 5.80772 71.6361 6.00318 71.6919C7.74835 72.1806 9.49353 72.6413 11.4202 73.1579ZM118.853 42.6661C118.923 43.5876 119.3 44.4253 120.082 45.0675C120.752 45.612 121.576 45.6539 122.288 45.1931C122.972 44.7603 123.168 44.1879 122.944 43.2665C122.791 42.5963 122.623 41.9122 122.483 41.2421C122.414 40.907 122.483 40.5998 122.805 40.3904C123.126 40.181 123.461 40.167 123.782 40.3625C124.647 40.8511 124.982 42.1775 124.368 42.9174C124.019 43.3363 124.41 43.5457 124.536 43.7272C124.689 43.9506 124.871 43.6295 124.996 43.5038C125.248 43.2525 125.401 42.9453 125.443 42.5823C125.583 41.5213 125.15 40.6696 124.452 39.9436C123.852 39.3154 123.084 39.1897 122.428 39.5527C121.757 39.9157 121.506 40.5021 121.688 41.3956C121.813 41.982 121.981 42.5684 122.148 43.1408C122.316 43.7132 122.218 44.2158 121.66 44.509C121.073 44.8162 120.543 44.6207 120.18 44.1321C119.593 43.3642 119.258 42.4567 120.012 41.6749C120.333 41.3537 120.068 41.0885 119.887 40.893C119.607 40.5859 119.496 40.9907 119.37 41.1164C118.993 41.5213 118.867 42.0379 118.853 42.6661ZM101.108 21.8077C101.108 21.6402 101.094 21.5704 101.108 21.5146C101.597 19.7694 102.044 18.0242 102.574 16.3069C102.77 15.6926 102.281 15.6089 102.002 15.4832C101.625 15.3157 101.695 15.7764 101.625 15.9719C101.318 16.9911 101.039 18.0102 100.759 19.0294C100.522 19.895 100.299 20.7746 100.047 21.6402C99.8519 22.3243 100.466 22.4081 100.787 22.7152C101.108 23.0084 101.332 22.8548 101.611 22.6454C103.175 21.4727 104.752 20.3278 106.302 19.1551C106.456 19.0434 106.93 18.9596 106.623 18.6525C106.4 18.4291 106.121 17.9684 105.632 18.3732C105.046 18.8619 104.417 19.3086 103.803 19.7694C102.923 20.4395 102.058 21.0957 101.108 21.8077ZM43.8805 18.2476C42.3169 16.9073 40.7392 15.567 39.2035 14.1988C38.8265 13.8637 38.5752 13.752 38.0865 14.0312C37.6119 14.2965 37.5141 14.5897 37.5979 15.0783C37.933 17.1027 38.2541 19.1271 38.6031 21.1934C38.8963 20.984 39.4408 21.0957 39.3431 20.4814C39.1197 19.0713 39.1197 19.0713 40.3343 18.4151C40.5158 18.3174 40.7113 18.2336 40.8788 18.094C41.5211 17.5774 42.0795 17.5495 42.624 18.2476C42.987 18.7921 43.4338 18.7921 43.8805 18.2476ZM125.276 76.3411C124.927 76.2015 124.815 76.4249 124.745 76.8297C124.661 77.2905 124.885 77.3603 125.262 77.4022C126.811 77.5976 128.347 77.835 129.897 78.0165C130.33 78.0723 130.441 78.198 130.33 78.6168C130.232 79.0217 130.232 79.4405 130.162 79.8594C130.12 80.1805 130.288 80.2503 130.553 80.2782C130.832 80.3062 131.042 80.3201 131.098 79.9431C131.293 78.4772 131.489 76.9973 131.698 75.5313C131.74 75.2102 131.712 75.0148 131.307 74.9729C130.902 74.931 130.763 75.0566 130.735 75.4476C130.707 75.8106 130.595 76.1875 130.595 76.5505C130.595 77.0392 130.386 77.0392 129.995 76.9833C128.459 76.746 126.909 76.5505 125.276 76.3411ZM124.173 58.2052C124.131 58.6938 124.326 58.8474 124.843 58.7218C125.988 58.4565 127.16 58.2471 128.319 58.0097C129.897 57.6886 129.897 57.6886 130.232 59.2523C130.302 59.5455 130.302 59.8247 130.79 59.727C131.265 59.6293 131.167 59.35 131.112 59.0708C130.846 57.6886 130.567 56.3064 130.302 54.9103C130.246 54.5892 130.134 54.4216 129.757 54.5054C129.394 54.5752 129.297 54.7567 129.394 55.0778C129.478 55.385 129.548 55.7061 129.632 56.0132C129.771 56.5298 129.632 56.7672 129.045 56.8649C127.579 57.1022 126.127 57.4234 124.675 57.7165C124.396 57.7724 124.047 57.7584 124.173 58.2052ZM20.5789 28.6488C20.2857 28.7466 20.174 28.9979 20.0065 29.1794C19.8529 29.3469 19.9786 29.5145 20.1321 29.6541C21.6121 30.9525 23.078 32.2649 24.544 33.5633C24.7255 33.7168 24.879 33.8006 25.0605 33.5772C25.8843 32.6139 26.7219 31.6505 27.5596 30.6872C27.8528 30.3521 27.5736 30.2125 27.3921 30.0171C27.1687 29.7658 27.0291 29.8774 26.8616 30.0869C26.331 30.7291 25.7446 31.3294 25.2281 31.9856C24.9349 32.3486 24.7534 32.3486 24.4183 32.0415C23.3014 31.0083 22.1426 30.0031 20.9978 28.9979C20.8581 28.8583 20.7185 28.7466 20.5789 28.6488ZM129.366 86.4492C129.813 86.5609 129.646 86.0443 129.785 85.8209C130.009 85.4579 129.687 85.4579 129.478 85.4021C128.319 85.081 127.147 84.7738 125.988 84.4527C125.248 84.2572 124.508 84.0618 123.782 83.8384C123.293 83.6988 123.321 84.1176 123.223 84.355C123.112 84.5923 123.168 84.7878 123.475 84.8715C125.415 85.3602 127.328 85.8907 129.366 86.4492ZM97.2551 12.9143C97.1574 12.649 96.8642 12.6351 96.6547 12.5094C96.4034 12.3559 96.2638 12.5234 96.1661 12.7328C95.3145 14.478 94.4768 16.2232 93.5972 17.9404C93.3878 18.3453 93.5693 18.443 93.8485 18.6106C94.1975 18.806 94.379 18.7362 94.5466 18.3872C95.3703 16.6839 96.208 14.9946 97.0457 13.3052C97.1155 13.1796 97.1853 13.0539 97.2551 12.9143ZM122.511 51.4199C122.595 51.392 122.651 51.3641 122.721 51.3501C124.564 50.7219 126.407 50.0796 128.263 49.4514C128.668 49.3118 128.501 49.1163 128.417 48.879C128.333 48.6277 128.333 48.3763 127.928 48.516C126.071 49.1721 124.201 49.8144 122.33 50.4566C122.12 50.5264 121.967 50.6381 122.12 50.8475C122.26 51.029 122.162 51.392 122.511 51.4199Z" fill="white"/>
<path d="M69.3464 136.627C60.2714 136.627 51.4757 134.853 43.1826 131.335C35.1827 127.956 27.9926 123.098 21.8216 116.927C15.6507 110.756 10.8061 103.566 7.41346 95.566C3.90914 87.2729 2.12207 78.4772 2.12207 69.4023C2.12207 60.3273 3.89517 51.5316 7.41346 43.2385C10.8061 35.2386 15.6507 28.0485 21.8216 21.8776C27.9926 15.7066 35.1827 10.862 43.1826 7.46935C51.4757 3.96504 60.2714 2.17798 69.3464 2.17798C78.4213 2.17798 87.217 3.95107 95.5101 7.46935C103.51 10.862 110.7 15.7066 116.871 21.8776C123.042 28.0485 127.887 35.2386 131.279 43.2385C134.784 51.5316 136.571 60.3273 136.571 69.4023C136.571 78.4772 134.798 87.2729 131.279 95.566C127.887 103.566 123.042 110.756 116.871 116.927C110.7 123.098 103.51 127.943 95.5101 131.335C87.217 134.853 78.4073 136.627 69.3464 136.627ZM69.3464 16.1534C39.9715 16.1534 16.0695 40.0553 16.0695 69.4302C16.0695 98.805 39.9715 122.707 69.3464 122.707C98.7212 122.707 122.623 98.805 122.623 69.4302C122.609 40.0414 98.7212 16.1534 69.3464 16.1534Z" fill="white"/>
<path d="M27.4205 104.85C38.7572 117.555 52.8024 124.354 69.8354 124.229C86.8823 124.103 100.816 117.108 111.943 104.278C112.474 105.953 113.018 107.601 113.535 109.248C113.674 109.709 113.842 109.974 114.442 109.89C116.997 109.569 119.552 109.304 122.149 109.109C109.318 125.332 92.6763 134.532 71.9156 135.258C49.7309 136.04 31.7067 127.216 17.5498 110.337C17.5777 110.267 17.6056 110.184 17.6336 110.114C19.1274 110.281 20.6074 110.435 22.1012 110.602C23.0506 110.714 24 110.812 24.9494 110.923C25.2426 110.951 25.4659 110.979 25.5776 110.588C25.8569 109.611 26.1919 108.648 26.513 107.684C26.8062 106.763 27.1134 105.814 27.4205 104.85ZM65.4375 129.897C65.4375 130.148 65.4235 130.414 65.4375 130.665C65.4794 131.712 66.3031 132.494 67.3921 132.508C68.5369 132.536 69.3607 131.852 69.4305 130.777C69.4584 130.288 69.4444 129.799 69.4444 129.311C69.4305 128.278 68.886 127.593 67.9645 127.412C66.8895 127.203 66.0239 127.621 65.5911 128.529C65.3817 128.976 65.4654 129.436 65.4375 129.897ZM72.0273 131.307C72.3903 130.972 72.6416 130.763 72.851 130.525C73.0884 130.274 73.3397 130.023 73.5212 129.73C73.954 129.045 73.8702 128.333 73.3118 127.845C72.488 127.119 71.05 127.216 70.3659 128.082C70.2542 128.222 69.8912 128.487 70.1844 128.613C70.5055 128.752 70.8406 129.353 71.2874 128.836C71.6085 128.473 71.9994 128.291 72.3624 128.641C72.7533 129.004 72.4182 129.353 72.1669 129.66C72.0273 129.813 71.8737 129.967 71.7202 130.106C71.2734 130.525 70.8406 130.93 70.3938 131.335C70.1006 131.6 70.1704 131.949 70.2263 132.243C70.2961 132.564 70.6172 132.41 70.8127 132.41C71.6503 132.424 72.488 132.396 73.3257 132.424C73.6748 132.438 73.7864 132.34 73.8144 131.963C73.8423 131.419 73.6887 131.209 73.1303 131.279C72.8231 131.349 72.516 131.307 72.0273 131.307ZM76.467 131.307C76.7882 131 77.0115 130.805 77.207 130.609C77.4304 130.372 77.6677 130.148 77.8492 129.883C78.4216 129.059 78.282 128.236 77.5141 127.705C76.6346 127.091 75.2384 127.37 74.68 128.264C74.5962 128.389 74.4147 128.599 74.6381 128.668C75.029 128.794 75.378 129.422 75.8667 128.752C76.104 128.431 76.467 128.417 76.8021 128.641C77.193 128.92 76.9836 129.199 76.7742 129.464C76.6066 129.674 76.4251 129.883 76.2157 130.079C75.755 130.525 75.2803 130.972 74.7917 131.405C74.4845 131.67 74.5962 132.019 74.6521 132.312C74.7079 132.564 75.0151 132.424 75.1966 132.438C76.0482 132.452 76.9138 132.424 77.7794 132.452C78.1424 132.466 78.2262 132.34 78.2541 131.977C78.296 131.405 78.0866 131.237 77.556 131.307C77.2628 131.335 76.9417 131.307 76.467 131.307ZM62.9524 131.307C63.441 130.791 63.9297 130.469 64.2508 129.995C64.544 129.576 64.7953 129.143 64.6277 128.585C64.4463 127.929 63.9995 127.566 63.3712 127.426C62.5335 127.244 61.7936 127.454 61.263 128.138C61.1653 128.25 60.7604 128.473 61.1513 128.654C61.4585 128.794 61.7657 129.255 62.1566 128.878C62.5196 128.529 62.9105 128.278 63.2874 128.654C63.7063 129.073 63.3014 129.464 62.9943 129.771C62.4498 130.302 61.8913 130.832 61.3328 131.349C61.0397 131.614 61.1095 131.963 61.1653 132.257C61.2212 132.578 61.5562 132.424 61.7517 132.424C62.5615 132.438 63.3712 132.41 64.1949 132.438C64.6696 132.466 64.7534 132.284 64.7674 131.852C64.7813 131.349 64.5859 131.265 64.167 131.293C63.7901 131.335 63.4271 131.307 62.9524 131.307ZM59.3084 128.822C58.6802 128.822 58.2055 129.283 58.2055 129.911C58.2055 130.539 58.6662 131.028 59.2805 131.042C59.8948 131.056 60.3835 130.553 60.3974 129.939C60.3974 129.325 59.9227 128.836 59.3084 128.822ZM80.0551 128.822C79.4408 128.822 78.9661 129.297 78.9522 129.911C78.9382 130.525 79.4269 131.028 80.0272 131.028C80.6555 131.042 81.186 130.511 81.172 129.897C81.172 129.311 80.6694 128.836 80.0551 128.822Z" fill="#221F51"/>
<path d="M65.4371 129.897C65.451 129.436 65.3812 128.976 65.5907 128.529C66.0235 127.621 66.8891 127.202 67.9641 127.412C68.8856 127.593 69.4301 128.278 69.444 129.311C69.458 129.799 69.4719 130.288 69.4301 130.777C69.3602 131.852 68.5365 132.522 67.3917 132.508C66.3027 132.48 65.465 131.712 65.4371 130.665C65.4371 130.4 65.4371 130.148 65.4371 129.897ZM68.2573 129.967C68.2573 129.716 68.2573 129.45 68.2573 129.199C68.2573 128.682 67.9083 128.515 67.4894 128.501C67.0706 128.487 66.7076 128.654 66.6936 129.171C66.6797 129.688 66.6797 130.19 66.6936 130.707C66.7076 131.223 67.0566 131.377 67.4894 131.363C67.9222 131.349 68.2573 131.195 68.2573 130.665C68.2573 130.442 68.2573 130.204 68.2573 129.967Z" fill="white"/>
<path d="M72.0265 131.307C72.5151 131.307 72.8362 131.335 73.1574 131.293C73.7158 131.224 73.8694 131.433 73.8415 131.977C73.8135 132.354 73.7018 132.452 73.3528 132.438C72.5151 132.41 71.6774 132.438 70.8398 132.424C70.6303 132.424 70.3092 132.578 70.2534 132.257C70.1975 131.963 70.1277 131.614 70.4209 131.349C70.8677 130.944 71.3144 130.539 71.7473 130.121C71.9008 129.981 72.0544 129.841 72.194 129.674C72.4453 129.367 72.7804 129.004 72.3895 128.655C72.0265 128.32 71.6356 128.487 71.3144 128.85C70.8537 129.367 70.5326 128.752 70.2115 128.627C69.9183 128.501 70.2813 128.236 70.393 128.096C71.0631 127.231 72.5151 127.133 73.3388 127.859C73.8833 128.347 73.9811 129.073 73.5483 129.744C73.3668 130.037 73.1155 130.288 72.8781 130.539C72.6129 130.763 72.3895 130.972 72.0265 131.307Z" fill="white"/>
<path d="M76.4662 131.307C76.9409 131.307 77.262 131.335 77.5692 131.307C78.0997 131.238 78.3092 131.419 78.2673 131.977C78.2393 132.34 78.1556 132.452 77.7926 132.452C76.9409 132.424 76.0753 132.452 75.2097 132.438C75.0282 132.438 74.7211 132.578 74.6652 132.313C74.6094 132.019 74.4977 131.67 74.8048 131.405C75.2795 130.972 75.7542 130.525 76.2289 130.079C76.4244 129.883 76.6059 129.674 76.7874 129.464C76.9968 129.199 77.1922 128.906 76.8153 128.641C76.4802 128.403 76.1172 128.431 75.8799 128.752C75.4052 129.423 75.0422 128.78 74.6513 128.669C74.4279 128.599 74.6094 128.389 74.6931 128.264C75.2516 127.37 76.6617 127.105 77.5273 127.705C78.2952 128.236 78.4348 129.073 77.8624 129.883C77.6809 130.149 77.4435 130.372 77.2202 130.609C77.0107 130.819 76.7874 131 76.4662 131.307Z" fill="white"/>
<path d="M62.9517 131.307C63.4404 131.307 63.7894 131.335 64.1524 131.307C64.5712 131.279 64.7667 131.363 64.7527 131.866C64.7388 132.312 64.655 132.48 64.1803 132.452C63.3706 132.41 62.5608 132.452 61.7371 132.438C61.5276 132.438 61.2065 132.592 61.1507 132.271C61.0948 131.977 61.025 131.628 61.3182 131.363C61.8767 130.846 62.4351 130.316 62.9796 129.785C63.3008 129.478 63.7056 129.101 63.2728 128.668C62.8959 128.292 62.491 128.543 62.142 128.892C61.765 129.269 61.4439 128.808 61.1367 128.668C60.7458 128.487 61.1507 128.264 61.2484 128.152C61.779 127.454 62.5329 127.258 63.3566 127.44C63.9849 127.579 64.4316 127.942 64.6131 128.599C64.7807 129.157 64.5154 129.59 64.2362 130.009C63.929 130.469 63.4404 130.791 62.9517 131.307Z" fill="white"/>
<path d="M59.3083 128.822C59.9226 128.822 60.4113 129.325 60.3973 129.939C60.3834 130.553 59.8947 131.042 59.2804 131.042C58.6661 131.028 58.1914 130.539 58.2054 129.911C58.2054 129.297 58.6801 128.822 59.3083 128.822Z" fill="white"/>
<path d="M80.0544 128.822C80.6687 128.822 81.1574 129.297 81.1713 129.911C81.1853 130.525 80.6548 131.056 80.0265 131.042C79.4122 131.028 78.9375 130.539 78.9515 129.925C78.9654 129.297 79.4401 128.822 80.0544 128.822Z" fill="white"/>
<path d="M12.2996 70.198L12.5928 75.1403L5.68186 75.5592L5.38867 70.6866L6.11466 70.6448L6.35201 74.6517L8.61376 74.5121L8.40434 70.938L9.13033 70.8961L9.33975 74.4702L11.8109 74.3166L11.5596 70.2399L12.2996 70.198Z" fill="#221F51"/>
<path d="M5.59817 75.629L5.29102 70.6169L6.15663 70.561L6.39396 74.568L8.5161 74.4423L8.30668 70.8682L9.17229 70.8123L9.38171 74.3865L11.7133 74.2468L11.462 70.1701L12.3555 70.1143L12.6626 75.1962H12.5928L5.59817 75.629ZM5.44459 70.7565L5.72382 75.4894L12.4951 75.0845L12.2159 70.2818L11.6016 70.3097L11.8529 74.3865L9.2421 74.554L9.03268 70.9799L8.4463 71.0078L8.65572 74.5819L6.25435 74.7355L6.01701 70.7286L5.44459 70.7565Z" fill="#221F51"/>
<path d="M12.663 63.4547L12.5373 64.8927L5.41699 66.6519L5.50077 65.7304L12.2023 64.1388L5.90564 61.3465L5.98942 60.425L12.663 63.4547Z" fill="#221F51"/>
<path d="M5.33301 66.7357L5.43074 65.6746L11.9786 64.1249L5.82166 61.3885L5.91939 60.3274L12.7326 63.4129L12.593 64.9486L5.33301 66.7357ZM5.55639 65.7724L5.48658 66.5402L12.4673 64.823L12.579 63.4827L6.03108 60.5228L5.96127 61.2907L12.4115 64.1389L5.55639 65.7724Z" fill="#221F51"/>
<path d="M11.9924 53.2909L14.7986 52.6068L14.5613 53.5562L11.392 54.3101L10.8894 56.3066L13.6817 57.0186L13.4723 57.8703L6.75684 56.167L7.51075 53.2071C7.62244 52.7604 7.80394 52.3695 8.05525 52.0623C8.30655 51.7412 8.59975 51.5178 8.94878 51.3922C9.29782 51.2665 9.66081 51.2525 10.0517 51.3503C10.5962 51.4899 11.0011 51.7831 11.2524 52.2298C11.5037 52.6766 11.6014 53.2071 11.5177 53.8075C11.6294 53.5003 11.783 53.3328 11.9924 53.2909ZM10.7219 54.0588C10.8336 53.5981 10.8196 53.1932 10.6521 52.8441C10.4845 52.4951 10.2193 52.2717 9.82835 52.174C9.43743 52.0763 9.10235 52.1461 8.7952 52.3834C8.48805 52.6208 8.27863 52.9558 8.16694 53.4166L7.65036 55.4829L10.2053 56.1251L10.7219 54.0588Z" fill="#221F51"/>
<path d="M13.5142 57.954L6.65918 56.2227L7.42706 53.1931C7.53875 52.7324 7.73421 52.3275 7.98552 52.0204C8.25078 51.6853 8.54397 51.4619 8.90697 51.3362C9.26996 51.2106 9.64692 51.1966 10.0518 51.2944C10.6242 51.434 11.0431 51.7411 11.2944 52.2019C11.5038 52.5788 11.6155 53.0116 11.6015 53.4863C11.7132 53.3467 11.8249 53.2629 11.9785 53.235L14.8964 52.523L14.6172 53.6259L11.4479 54.3798L10.9733 56.2646L13.7656 56.9767L13.5142 57.954ZM6.82672 56.125L13.4165 57.7864L13.598 57.0744L10.8057 56.3624L11.3363 54.2542L11.3781 54.2402L11.434 53.7935C11.5178 53.221 11.434 52.7045 11.1827 52.2577C10.9453 51.8389 10.5544 51.5457 10.0239 51.4061C9.64692 51.3083 9.29789 51.3223 8.96282 51.4479C8.62774 51.5736 8.34851 51.783 8.09721 52.0902C7.85986 52.3834 7.67836 52.7603 7.56667 53.2071L6.82672 56.125ZM14.701 52.7045L12.0064 53.3607C11.8249 53.4025 11.6853 53.5422 11.5736 53.8353L11.4061 54.2402L14.5055 53.5003L14.701 52.7045ZM10.2473 56.2088L7.56667 55.5386L8.09721 53.4025C8.2089 52.9278 8.41832 52.5788 8.75339 52.3275C9.07451 52.0762 9.4375 52.0064 9.84238 52.1041C10.2473 52.2019 10.5265 52.4392 10.708 52.8162C10.8755 53.1652 10.9035 53.584 10.7778 54.0727L10.2473 56.2088ZM7.73421 55.4409L10.1495 56.0552L10.6521 54.0587C10.7638 53.598 10.7359 53.221 10.5823 52.886C10.4148 52.5509 10.1635 52.3415 9.8005 52.2577C9.42354 52.16 9.11639 52.2298 8.8232 52.4532C8.53001 52.6905 8.32059 53.0116 8.22286 53.4444L7.73421 55.4409Z" fill="#221F51"/>
<path d="M15.9856 41.34L17.9681 44.607L17.4934 45.5005L15.4271 41.8147L11.4062 42.1777L11.867 41.3121L15.5249 41.0887L13.6261 37.9614L14.0868 37.0818L16.0694 40.6001L20.2718 40.2371L19.811 41.1166L15.9856 41.34Z" fill="#221F51"/>
<path d="M17.4931 45.6541L15.3849 41.8984L11.2803 42.2754L11.8248 41.2562L15.3989 41.0328L13.542 37.9753L14.0865 36.9421L16.1109 40.5302L20.3971 40.1672L19.8526 41.2004L16.1109 41.4238L18.0516 44.6209L17.4931 45.6541ZM15.4687 41.7449L17.4931 45.3609L17.884 44.6209L15.8736 41.2841L19.7688 41.0608L20.1458 40.3348L16.0272 40.6838L14.1005 37.2353L13.7235 37.9613L15.6642 41.1445L11.9365 41.3679L11.5595 42.0799L15.4687 41.7449Z" fill="#221F51"/>
<path d="M21.3888 35.4342L22.4219 36.9979L21.8774 37.7239L17.8984 31.4831L18.6803 30.436L25.7587 32.5582L25.2142 33.2842L23.4272 32.7257L21.3888 35.4342ZM18.5407 31.1481L20.942 34.792L22.7012 32.4604L18.5407 31.1481Z" fill="#221F51"/>
<path d="M21.8633 37.8495L17.8145 31.497L18.6521 30.3801L25.8842 32.5441L25.2559 33.3818L23.4688 32.8234L21.4723 35.4481L22.5055 37.0118L21.8633 37.8495ZM17.982 31.4831L21.8772 37.5842L22.338 36.9839L21.3048 35.4202L23.413 32.6419L25.2 33.2003L25.6608 32.6L18.7219 30.5197L17.982 31.4831ZM20.9418 34.9176L18.3869 31.0363L22.8266 32.4325L20.9418 34.9176ZM18.708 31.2737L20.9418 34.6663L22.5753 32.4883L18.708 31.2737Z" fill="#221F51"/>
<path d="M31.357 26.8478L28.0621 30.0589L23.2314 25.0887L23.8597 24.4744L28.1738 28.9001L30.8404 26.3033L31.357 26.8478Z" fill="#221F51"/>
<path d="M28.0622 30.1428L23.1338 25.0887L23.8598 24.3767L28.1739 28.8025L30.8405 26.2057L31.4688 26.8479L28.0622 30.1428ZM23.3293 25.0887L28.0761 29.9473L31.2733 26.8339L30.8405 26.3872L28.1599 28.9979L23.8458 24.5722L23.3293 25.0887Z" fill="#221F51"/>
<path d="M36.8718 23.6087C36.9416 23.7204 37.0533 23.7762 37.1789 23.7902C37.3046 23.8042 37.4303 23.7483 37.5699 23.6506L38.6728 22.8687L38.98 23.3016L37.4861 24.3487C37.2627 24.5022 37.0393 24.572 36.8159 24.5581C36.5926 24.5441 36.425 24.4324 36.2854 24.237C36.1598 24.0555 36.1179 23.86 36.1598 23.6227C36.2016 23.3993 36.2994 23.1619 36.453 22.9246C35.9364 23.2736 35.3919 23.4551 34.8055 23.4831C34.2191 23.511 33.6607 23.3853 33.1162 23.1201C32.5856 22.8548 32.1249 22.4499 31.748 21.9194C31.371 21.3749 31.1336 20.8025 31.0638 20.2021C30.994 19.5878 31.0778 19.0154 31.3151 18.4709C31.5525 17.9264 31.9294 17.4657 32.446 17.1027C32.9626 16.7397 33.5211 16.5303 34.1214 16.4884C34.7217 16.4465 35.2942 16.5721 35.8386 16.8374C36.3831 17.1027 36.8439 17.5076 37.2208 18.0521C37.5419 18.5128 37.7653 19.0154 37.8631 19.5459C37.9608 20.0765 37.9329 20.593 37.7932 21.0956C37.6536 21.5983 37.3884 22.045 37.0254 22.4359C36.7601 22.9804 36.7043 23.3714 36.8718 23.6087ZM33.535 22.3801C33.9539 22.6035 34.3867 22.7152 34.8334 22.7012C35.2802 22.6873 35.713 22.5476 36.1039 22.2684C36.4948 21.9892 36.7741 21.6401 36.9416 21.2073C37.1091 20.7745 37.151 20.3278 37.0673 19.867C36.9974 19.3923 36.8159 18.9595 36.5367 18.5686C36.2435 18.1498 35.8805 17.8287 35.4617 17.6053C35.0428 17.3819 34.61 17.2702 34.1493 17.2842C33.6886 17.2981 33.2697 17.4378 32.8788 17.717C32.4879 17.9962 32.2087 18.3452 32.0411 18.7641C31.8736 19.1829 31.8317 19.6297 31.9015 20.0904C31.9713 20.5512 32.1528 20.9979 32.446 21.4028C32.7671 21.8216 33.1162 22.1427 33.535 22.3801Z" fill="#221F51"/>
<path d="M36.8576 24.628C36.8436 24.628 36.8157 24.628 36.8018 24.628C36.5644 24.6141 36.3829 24.5024 36.2154 24.279C36.0758 24.0835 36.0339 23.8602 36.0758 23.6089C36.1037 23.4553 36.1595 23.2877 36.2433 23.1342C35.7965 23.3994 35.3079 23.5251 34.7913 23.553C34.2049 23.5809 33.6325 23.4553 33.0741 23.19C32.5296 22.9247 32.0688 22.5059 31.6779 21.9754C31.287 21.4029 31.0497 20.8166 30.9799 20.2302C30.91 19.6019 30.9938 19.0295 31.2312 18.471C31.4685 17.9126 31.8594 17.4379 32.39 17.0749C32.9205 16.6979 33.4929 16.4885 34.0932 16.4466C34.6796 16.4047 35.28 16.5304 35.8384 16.7957C36.3969 17.0609 36.8576 17.4798 37.2485 18.0382C37.5836 18.5269 37.807 19.0295 37.9047 19.56C38.0024 20.0906 37.9745 20.6211 37.8349 21.1377C37.6953 21.6263 37.43 22.0871 37.0531 22.4919C36.8018 23.0085 36.7459 23.3715 36.8995 23.5809C36.9553 23.6647 37.0391 23.7205 37.1508 23.7345C37.2485 23.7485 37.3463 23.7066 37.4998 23.6089L38.6586 22.7851L39.0496 23.3296L37.4998 24.4186C37.3044 24.5582 37.081 24.628 36.8576 24.628ZM36.6901 22.6734L36.5086 22.9666C36.369 23.19 36.2712 23.4134 36.2293 23.6368C36.1875 23.8462 36.2293 24.0277 36.341 24.1952C36.4807 24.3767 36.6203 24.4745 36.8157 24.4884C37.0251 24.5024 37.2346 24.4326 37.444 24.293L38.882 23.2877L38.6586 22.9666L37.6115 23.7066C37.444 23.8322 37.3044 23.8741 37.1787 23.8602C37.0251 23.8462 36.8995 23.7764 36.8157 23.6507C36.6342 23.3994 36.6901 22.9806 36.9693 22.4082L36.9833 22.3942C37.3463 22.0033 37.5976 21.5565 37.7372 21.0818C37.8768 20.5792 37.9047 20.0766 37.807 19.56C37.7093 19.0574 37.4998 18.5548 37.1787 18.0941C36.8157 17.5636 36.355 17.1587 35.8245 16.9074C35.28 16.6421 34.7076 16.5304 34.1491 16.5723C33.5767 16.6142 33.0182 16.8096 32.5156 17.1726C32.013 17.5217 31.65 17.9684 31.4127 18.5129C31.1753 19.0435 31.0915 19.6019 31.1613 20.2023C31.2312 20.7747 31.4545 21.3331 31.8315 21.8916C32.2085 22.4082 32.6552 22.813 33.1718 23.0644C33.7163 23.3296 34.2608 23.4413 34.8192 23.4134C35.4056 23.3855 35.9222 23.204 36.4248 22.8689L36.6901 22.6734ZM34.7494 22.7712C34.3306 22.7712 33.8978 22.6595 33.4929 22.4361C33.0741 22.1987 32.725 21.8776 32.39 21.4448C32.0968 21.0399 31.9013 20.5792 31.8315 20.1045C31.7617 19.6159 31.8036 19.1691 31.9711 18.7503C32.1386 18.3175 32.4318 17.9545 32.8367 17.6752C33.2416 17.396 33.6604 17.2424 34.1491 17.2285C34.6098 17.2145 35.0566 17.3262 35.4894 17.5635C35.9222 17.8009 36.2992 18.122 36.5923 18.5408C36.8855 18.9457 37.067 19.3925 37.1368 19.8672C37.2206 20.3419 37.1787 20.8026 37.0112 21.2354C36.8437 21.6822 36.5644 22.0312 36.1456 22.3244C35.7547 22.6036 35.3079 22.7572 34.8332 22.7712C34.8053 22.7712 34.7774 22.7712 34.7494 22.7712ZM33.5627 22.3244C33.9816 22.5478 34.4004 22.6455 34.8192 22.6315C35.266 22.6176 35.6849 22.478 36.0478 22.2127C36.4388 21.9335 36.704 21.5984 36.8576 21.1796C37.0251 20.7607 37.067 20.3279 36.9833 19.8811C36.9135 19.4204 36.7459 19.0016 36.4667 18.6107C36.1875 18.2058 35.8245 17.8847 35.4196 17.6752C35.0007 17.4519 34.5819 17.3541 34.1491 17.3681C33.7023 17.3821 33.2974 17.5217 32.9205 17.7869C32.5435 18.0522 32.2643 18.4012 32.1107 18.8061C31.9571 19.197 31.9013 19.6438 31.9711 20.0906C32.0409 20.5513 32.2224 20.9841 32.5016 21.375C32.8228 21.7939 33.1578 22.0871 33.5627 22.3244Z" fill="#221F51"/>
<path d="M42.4844 17.1027L42.6798 18.9595L41.8701 19.3505L41.2139 11.9928L42.4006 11.4343L47.7199 16.5861L46.9101 16.977L45.5838 15.6507L42.4844 17.1027ZM41.9399 12.0067L42.4006 16.3488L45.0253 15.0922L41.9399 12.0067Z" fill="#221F51"/>
<path d="M41.8137 19.4622L41.1436 11.9509L42.414 11.3506L42.442 11.3785L47.8311 16.6001L46.8817 17.0608L45.5554 15.7345L42.5537 17.1585L42.7491 19.0154L41.8137 19.4622ZM41.2832 12.0347L41.9254 19.2528L42.5955 18.9316L42.4001 17.0748L45.5833 15.5669L46.9096 16.8933L47.5798 16.5722L42.3722 11.5321L41.2832 12.0347ZM42.3442 16.4465L41.8556 11.8113L45.1505 15.1062L42.3442 16.4465ZM42.0371 12.1883L42.4699 16.2371L44.9131 15.0643L42.0371 12.1883Z" fill="#221F51"/>
<path d="M54.0584 11.8394L56.0828 13.9197L55.1474 14.1989L52.8857 11.8394L50.9031 12.4119L51.7129 15.1762L50.8752 15.4136L48.9346 8.75397L51.8665 7.90232C52.3132 7.77667 52.7321 7.73478 53.137 7.79063C53.5418 7.84647 53.8769 7.98609 54.1701 8.22344C54.4493 8.46078 54.6588 8.76793 54.7704 9.15885C54.924 9.70335 54.8821 10.192 54.6169 10.6388C54.3516 11.0855 53.9467 11.4346 53.3883 11.6719C53.6815 11.6161 53.9188 11.6719 54.0584 11.8394ZM52.76 11.1274C53.2207 10.9878 53.5558 10.7644 53.7652 10.4573C53.9886 10.1362 54.0305 9.78712 53.9188 9.41016C53.8071 9.0332 53.5698 8.76793 53.2207 8.62831C52.8717 8.4887 52.4668 8.47474 52.0061 8.61435L49.9538 9.21469L50.6937 11.7417L52.76 11.1274Z" fill="#221F51"/>
<path d="M50.8331 15.4973L48.8506 8.71202L51.8523 7.84641C52.327 7.72076 52.7458 7.67887 53.1507 7.73472C53.5695 7.79057 53.9186 7.94414 54.2118 8.18149C54.5189 8.43279 54.7283 8.76786 54.84 9.14482C55.0076 9.71724 54.9517 10.2199 54.6865 10.6806C54.4631 11.0575 54.142 11.3647 53.7231 11.5881C53.8907 11.616 54.0163 11.6858 54.114 11.7975L56.2083 13.9615L55.1193 14.2826L52.8575 11.9231L50.9867 12.4676L51.7964 15.232L50.8331 15.4973ZM49.0321 8.80975L50.9308 15.3297L51.6289 15.1343L50.8191 12.3699L52.9134 11.7696L52.9413 11.7975L53.3741 11.616C53.9046 11.3926 54.3095 11.0575 54.5748 10.6108C54.8261 10.1919 54.868 9.71724 54.7144 9.1867C54.6167 8.82371 54.4212 8.53052 54.142 8.29318C53.8627 8.06979 53.5416 7.93018 53.1507 7.87433C52.7598 7.81849 52.3549 7.86037 51.9081 7.98602L49.0321 8.80975ZM52.9692 11.8254L55.1751 14.1151L55.9569 13.8777L54.0163 11.8813C53.8627 11.6998 53.5975 11.6998 53.416 11.7417L52.9692 11.8254ZM50.6516 11.8254L49.8698 9.17274L51.9919 8.55844C52.4526 8.41882 52.8715 8.41883 53.2484 8.57241C53.6114 8.71202 53.8767 9.0052 53.9884 9.39612C54.114 9.80101 54.0582 10.178 53.8209 10.4991C53.5975 10.8202 53.2484 11.0575 52.7737 11.1972L50.6516 11.8254ZM50.0513 9.27048L50.7493 11.6579L52.7458 11.0575C53.1926 10.9179 53.5137 10.7085 53.7092 10.4153C53.9186 10.1221 53.9605 9.80101 53.8488 9.42405C53.7371 9.06105 53.5277 8.82371 53.1926 8.6841C52.8436 8.54448 52.4526 8.54448 52.0198 8.67014L50.0513 9.27048Z" fill="#221F51"/>
<path d="M60.8445 12.6212C60.3 12.3698 59.8532 11.9929 59.5042 11.4903C59.1551 10.9877 58.9457 10.4152 58.8619 9.75906C58.7782 9.10287 58.8619 8.48857 59.0853 7.91615C59.3087 7.34373 59.6577 6.88301 60.1324 6.50605C60.6071 6.14305 61.1516 5.91966 61.7799 5.83589C62.4081 5.76608 62.9945 5.84986 63.539 6.10116C64.0835 6.35247 64.5303 6.72942 64.8793 7.23204C65.2284 7.73465 65.4517 8.30707 65.5215 8.96326C65.5913 9.60548 65.5215 10.2198 65.2982 10.7922C65.0748 11.3646 64.7257 11.8393 64.2511 12.2023C63.7764 12.5793 63.2319 12.8026 62.6036 12.8725C61.9753 12.9702 61.389 12.8725 60.8445 12.6212ZM63.7624 11.602C64.1114 11.3088 64.3627 10.9318 64.5163 10.4851C64.6699 10.0383 64.7257 9.57756 64.6699 9.08891C64.614 8.5863 64.4465 8.12557 64.1952 7.73465C63.9299 7.32977 63.5949 7.03658 63.19 6.82716C62.7851 6.61774 62.3383 6.54792 61.8776 6.60377C61.4029 6.65962 60.9841 6.84112 60.649 7.13431C60.3 7.4275 60.0487 7.79049 59.8951 8.23726C59.7415 8.68403 59.6857 9.15872 59.7555 9.64737C59.8113 10.15 59.9789 10.6107 60.2302 11.0016C60.4815 11.4065 60.8165 11.6997 61.2214 11.9091C61.6263 12.1185 62.0731 12.1883 62.5478 12.1325C62.9945 12.0767 63.4134 11.9091 63.7624 11.602Z" fill="#221F51"/>
<path d="M62.1284 12.9702C61.6816 12.9702 61.2349 12.8724 60.816 12.677C60.2576 12.4257 59.7968 12.0348 59.4478 11.5182C59.0988 11.0156 58.8754 10.4292 58.7916 9.75904C58.7079 9.11682 58.7916 8.48855 59.015 7.88821C59.2384 7.31579 59.5874 6.8411 60.0761 6.45018C60.5647 6.07322 61.1092 5.84984 61.7514 5.76607C62.3937 5.69626 63.008 5.78003 63.5525 6.03134C64.1109 6.28264 64.5717 6.67356 64.9207 7.19014C65.2837 7.72067 65.5071 8.30705 65.5769 8.94928C65.6467 9.60547 65.5769 10.2337 65.3535 10.8061C65.1301 11.3925 64.7671 11.8812 64.2785 12.2442C63.7898 12.6351 63.2453 12.8585 62.6031 12.9283C62.4495 12.9702 62.2959 12.9702 62.1284 12.9702ZM62.1982 5.89172C62.0586 5.89172 61.933 5.90569 61.7933 5.91965C61.179 6.00342 60.6485 6.21284 60.1878 6.57584C59.7131 6.9528 59.378 7.39956 59.1686 7.95801C58.9452 8.53043 58.8754 9.14474 58.9452 9.75904C59.029 10.4152 59.2384 10.9737 59.5735 11.4623C59.9085 11.951 60.3553 12.3279 60.8858 12.5653C61.4303 12.8166 62.0167 12.9004 62.6031 12.8166C63.2174 12.7468 63.7479 12.5374 64.2226 12.1604C64.6833 11.8114 65.0324 11.3506 65.2418 10.7782C65.4512 10.2337 65.535 9.61943 65.4652 8.99116C65.3954 8.37686 65.186 7.80444 64.8369 7.28787C64.5019 6.79922 64.0551 6.42225 63.5245 6.18491C63.1057 5.98945 62.6589 5.89172 62.1982 5.89172ZM62.2401 12.2163C61.8631 12.2163 61.5141 12.1325 61.193 11.9649C60.7602 11.7416 60.4251 11.4344 60.1738 11.0295C59.9085 10.6246 59.741 10.15 59.6852 9.64735C59.6153 9.17266 59.6712 8.68401 59.8248 8.20932C59.9783 7.74859 60.2297 7.3856 60.5926 7.07845C60.9417 6.78526 61.3745 6.58979 61.8631 6.53395C62.3518 6.4781 62.7986 6.54791 63.2174 6.77129C63.6502 6.99468 63.9853 7.30183 64.2505 7.70671C64.5158 8.11159 64.6833 8.58628 64.7392 9.0889C64.795 9.57755 64.7392 10.0383 64.5856 10.513C64.432 10.9737 64.1668 11.3646 63.8177 11.6578C63.4687 11.9649 63.0499 12.1464 62.5612 12.2023C62.4495 12.2163 62.3518 12.2163 62.2401 12.2163ZM62.1843 6.6596C62.0865 6.6596 61.9888 6.6596 61.8911 6.67356C61.4303 6.72941 61.0255 6.89695 60.7043 7.19014C60.3553 7.48333 60.118 7.83236 59.9644 8.26517C59.8108 8.72589 59.7689 9.18663 59.8248 9.64735C59.8806 10.122 60.0342 10.5828 60.2855 10.9737C60.5228 11.3506 60.83 11.6438 61.2488 11.8533C61.6258 12.0487 62.0586 12.1185 62.5333 12.0627C62.994 12.0068 63.3849 11.8393 63.706 11.5461C64.0411 11.2669 64.2924 10.9039 64.432 10.4571C64.5856 10.0103 64.6415 9.56358 64.5856 9.0889C64.5298 8.61421 64.3762 8.15348 64.1249 7.76256C63.8736 7.3856 63.5525 7.0924 63.1476 6.88298C62.8544 6.74337 62.5333 6.6596 62.1843 6.6596Z" fill="#221F51"/>
<path d="M75.6705 5.76614L75.126 9.96853C75.0423 10.6108 75.154 11.1134 75.4472 11.5182C75.7403 11.9092 76.1871 12.1465 76.7735 12.2303C77.3599 12.3001 77.8485 12.1884 78.2394 11.8813C78.6304 11.5741 78.8677 11.0994 78.9515 10.4851L79.496 6.28271L80.3616 6.3944L79.8171 10.6108C79.7473 11.1692 79.5658 11.6439 79.2865 12.0209C79.0073 12.3978 78.6304 12.677 78.1836 12.8446C77.7368 13.0121 77.2342 13.054 76.6897 12.9842C76.1313 12.9144 75.6566 12.7329 75.2657 12.4676C74.8747 12.1884 74.5955 11.8394 74.414 11.3926C74.2325 10.9458 74.1906 10.4572 74.2604 9.89873L74.8049 5.68237L75.6705 5.76614Z" fill="#221F51"/>
<path d="M77.1782 13.0819C77.0246 13.0819 76.8571 13.0679 76.6756 13.0539C76.1311 12.9841 75.6424 12.8026 75.2236 12.5234C74.8187 12.2302 74.5255 11.8672 74.344 11.4205C74.1625 10.9737 74.1067 10.485 74.1904 9.89867L74.7489 5.62646L75.7541 5.7242L75.1957 9.9964C75.1119 10.6107 75.2236 11.0993 75.5028 11.4903C75.782 11.8672 76.2148 12.0906 76.7873 12.1744C77.3597 12.2442 77.8204 12.1325 78.1974 11.8393C78.5743 11.5461 78.7977 11.0994 78.8815 10.485L79.4399 6.21285L80.4452 6.3385L79.8867 10.6247C79.8169 11.1831 79.6354 11.6718 79.3422 12.0627C79.049 12.4536 78.672 12.7328 78.2113 12.9143C77.8902 13.026 77.5551 13.0819 77.1782 13.0819ZM74.8745 5.76608L74.344 9.91263C74.2742 10.4711 74.3161 10.9458 74.4976 11.3646C74.6651 11.7974 74.9444 12.1325 75.3213 12.4117C75.7122 12.677 76.1869 12.8445 76.7175 12.9143C77.262 12.9841 77.7506 12.9423 78.1834 12.7747C78.6162 12.6072 78.9792 12.3419 79.2584 11.9789C79.5377 11.602 79.7052 11.1412 79.775 10.5967L80.3055 6.45019L79.5795 6.35246L79.049 10.485C78.9652 11.1273 78.7139 11.6159 78.309 11.9231C77.9042 12.2302 77.4016 12.3559 76.7873 12.2861C76.173 12.2023 75.7122 11.951 75.419 11.5461C75.1119 11.1133 75.0002 10.5967 75.084 9.94055L75.6145 5.80797L74.8745 5.76608Z" fill="#221F51"/>
<path d="M89.0179 15.8183L87.6218 15.3855L85.9185 8.0418L84.0058 14.2825L83.21 14.0452L85.2483 7.42749L86.6305 7.84633L88.3338 15.204L90.2605 8.94929L91.0563 9.18663L89.0179 15.8183Z" fill="#221F51"/>
<path d="M89.0596 15.9022L87.5657 15.4414L85.9183 8.30713L84.0614 14.3664L83.126 14.0872L85.2062 7.32983L86.6861 7.7766L86.7001 7.81848L88.3476 14.9249L90.2184 8.85163L91.1538 9.13086L89.0596 15.9022ZM87.6774 15.3297L88.9619 15.7346L90.9584 9.22859L90.3022 9.03313L88.3196 15.4693L86.5745 7.88829L85.304 7.49737L83.3075 13.9894L83.9637 14.1849L85.9322 7.74868L87.6774 15.3297Z" fill="#221F51"/>
<path d="M96.3196 11.4484L93.4296 17.7451L92.6338 17.3821L95.5238 11.0854L96.3196 11.4484Z" fill="#221F51"/>
<path d="M93.4713 17.8429L92.5498 17.424L95.4957 10.9878L96.4171 11.4066L93.4713 17.8429ZM92.7313 17.3542L93.4015 17.6614L96.2356 11.4904L95.5655 11.1833L92.7313 17.3542Z" fill="#221F51"/>
<path d="M99.7393 21.1798L98.5107 20.4258L100.102 13.2776L100.884 13.7662L99.3345 20.4817L104.64 16.0559L105.436 16.5446L99.7393 21.1798Z" fill="#221F51"/>
<path d="M99.7538 21.2634L98.4414 20.4537L100.061 13.1519L100.968 13.7243L99.4606 20.2861L104.64 15.9721L105.562 16.5445L99.7538 21.2634ZM98.595 20.3978L99.7398 21.0959L105.31 16.5584L104.64 16.1536L99.2232 20.6771L100.801 13.808L100.145 13.4032L98.595 20.3978Z" fill="#221F51"/>
<path d="M108.187 27.6157L104.403 24.4186L108.885 19.1272L112.613 22.2825L112.138 22.8409L109.08 20.2441L107.614 21.9753L110.351 24.2929L109.876 24.8514L107.14 22.5338L105.534 24.4186L108.648 27.0573L108.187 27.6157Z" fill="#221F51"/>
<path d="M108.187 27.7135L104.306 24.4326L108.871 19.0435L112.696 22.2825L112.138 22.9527L109.08 20.3558L107.712 21.9754L110.449 24.293L109.89 24.9631L107.154 22.6455L105.646 24.4186L108.759 27.0573L108.187 27.7135ZM104.501 24.4046L108.173 27.5041L108.55 27.0573L105.437 24.4186L107.126 22.4361L109.862 24.7537L110.253 24.3069L107.517 21.9893L109.067 20.1604L112.124 22.7572L112.501 22.3104L108.885 19.2529L104.501 24.4046Z" fill="#221F51"/>
<path d="M115.294 31.4831L114.26 34.1916L113.618 33.4517L114.805 30.4221L113.451 28.8723L111.273 30.7711L110.7 30.1149L115.936 25.5635L117.946 27.8671C118.253 28.2161 118.463 28.5791 118.574 28.9701C118.686 29.361 118.7 29.724 118.616 30.087C118.519 30.45 118.323 30.7571 118.016 31.0224C117.597 31.3854 117.122 31.5529 116.606 31.511C116.089 31.4692 115.615 31.2318 115.154 30.8269C115.321 31.0503 115.363 31.2737 115.294 31.4831ZM115.377 29.9892C115.684 30.3522 116.033 30.5617 116.41 30.6315C116.787 30.7013 117.122 30.6035 117.43 30.3383C117.723 30.073 117.862 29.7519 117.848 29.3749C117.834 28.998 117.667 28.621 117.36 28.272L115.964 26.6664L113.981 28.3976L115.377 29.9892Z" fill="#221F51"/>
<path d="M114.288 34.3313L113.548 33.4657L114.735 30.436L113.451 28.9701L111.273 30.8689L110.603 30.1149L115.936 25.4797L117.988 27.8392C118.309 28.2022 118.519 28.5652 118.63 28.9701C118.742 29.375 118.756 29.7519 118.672 30.1149C118.575 30.4919 118.365 30.813 118.044 31.0922C117.611 31.4692 117.123 31.6367 116.578 31.5948C116.159 31.5669 115.754 31.3994 115.349 31.1062C115.391 31.2458 115.391 31.3854 115.349 31.525L114.288 34.3313ZM113.702 33.4378L114.233 34.0521L115.224 31.4552C115.294 31.2598 115.238 31.0643 115.098 30.8689L114.847 30.5198L113.702 33.4378ZM114.861 30.4779L115.196 30.7711C115.657 31.176 116.117 31.3994 116.606 31.4413C117.095 31.4832 117.555 31.3296 117.96 30.9666C118.253 30.7153 118.449 30.4221 118.533 30.0731C118.616 29.724 118.602 29.375 118.491 28.998C118.379 28.6211 118.184 28.272 117.876 27.923L115.908 25.6752L110.784 30.1289L111.259 30.6734L113.437 28.7746L114.861 30.4081V30.4779ZM116.634 30.7292C116.55 30.7292 116.466 30.7153 116.383 30.7013C115.978 30.6315 115.615 30.4081 115.308 30.0312L113.87 28.3837L115.95 26.5687L117.388 28.2301C117.709 28.5931 117.876 28.9841 117.89 29.375C117.904 29.7659 117.751 30.1149 117.444 30.3942C117.22 30.6175 116.941 30.7292 116.634 30.7292ZM114.079 28.4116L115.433 29.9474C115.726 30.2825 116.061 30.4919 116.424 30.5617C116.773 30.6315 117.095 30.5338 117.388 30.2825C117.667 30.0312 117.793 29.738 117.779 29.375C117.765 29.012 117.597 28.649 117.304 28.3139L115.95 26.7642L114.079 28.4116Z" fill="#221F51"/>
<path d="M117.08 37.3469C117.122 36.7466 117.387 36.216 117.89 35.7693L118.337 36.4673C118.016 36.8024 117.834 37.1794 117.806 37.5842C117.778 37.9891 117.918 38.4219 118.197 38.8687C118.476 39.3015 118.797 39.5947 119.174 39.7343C119.551 39.8739 119.9 39.846 120.235 39.6366C120.529 39.4551 120.71 39.2317 120.78 38.9664C120.85 38.7012 120.808 38.38 120.668 38.0031L120.082 36.4254C119.886 35.9228 119.831 35.4761 119.914 35.1131C119.998 34.7501 120.249 34.4429 120.654 34.1777C120.989 33.9682 121.324 33.8984 121.687 33.9403C122.036 33.9962 122.385 34.1358 122.707 34.401C123.028 34.6663 123.321 34.9735 123.558 35.3644C123.935 35.9647 124.103 36.5371 124.061 37.0816C124.019 37.6261 123.768 38.0869 123.293 38.4917L122.846 37.7937C123.153 37.5144 123.307 37.1933 123.321 36.8303C123.335 36.4673 123.223 36.1043 122.972 35.7134C122.707 35.2946 122.413 35.0014 122.078 34.8478C121.743 34.6942 121.436 34.7082 121.143 34.8897C120.892 35.0572 120.724 35.2387 120.668 35.4621C120.612 35.6855 120.654 35.9508 120.78 36.2858L121.408 37.9333C121.618 38.4778 121.673 38.9385 121.562 39.3294C121.464 39.7203 121.199 40.0415 120.752 40.3207C120.389 40.5441 120.026 40.6418 119.635 40.6278C119.244 40.5999 118.881 40.4743 118.518 40.223C118.169 39.9856 117.862 39.6505 117.597 39.2317C117.22 38.5755 117.038 37.9472 117.08 37.3469Z" fill="#221F51"/>
<path d="M119.705 40.6977C119.677 40.6977 119.649 40.6977 119.636 40.6977C119.217 40.6698 118.84 40.5302 118.477 40.2789C118.128 40.0415 117.807 39.7064 117.541 39.2736C117.15 38.5895 116.969 37.9473 117.011 37.347C117.053 36.7187 117.332 36.1742 117.848 35.7274L117.904 35.6716L118.421 36.4814L118.379 36.5233C118.072 36.8444 117.89 37.2074 117.862 37.5983C117.835 37.9752 117.96 38.3941 118.239 38.8408C118.519 39.2736 118.826 39.5389 119.175 39.6785C119.538 39.8181 119.859 39.7763 120.18 39.5808C120.459 39.4133 120.627 39.2038 120.697 38.9525C120.766 38.7012 120.725 38.408 120.585 38.0311L119.999 36.4534C119.803 35.9369 119.747 35.4901 119.831 35.0992C119.915 34.7222 120.166 34.4011 120.599 34.1219C120.934 33.9125 121.297 33.8287 121.674 33.8706C122.065 33.9404 122.428 34.094 122.735 34.3453C123.098 34.6524 123.377 34.9735 123.601 35.3226C123.978 35.9369 124.159 36.5233 124.117 37.0817C124.075 37.6402 123.81 38.1148 123.321 38.5337L123.265 38.5895L122.749 37.7798L122.791 37.7379C123.084 37.4726 123.224 37.1794 123.238 36.8304C123.252 36.4814 123.14 36.1323 122.903 35.7554C122.637 35.3365 122.358 35.0573 122.037 34.9177C121.73 34.7781 121.437 34.792 121.171 34.9596C120.92 35.1271 120.78 35.2946 120.725 35.4901C120.669 35.6856 120.711 35.9369 120.836 36.2719L121.464 37.9194C121.688 38.4918 121.73 38.9525 121.618 39.3574C121.52 39.7623 121.241 40.0974 120.78 40.3906C120.431 40.586 120.082 40.6977 119.705 40.6977ZM117.876 35.881C117.43 36.2999 117.192 36.7885 117.15 37.3609C117.109 37.9334 117.276 38.5477 117.653 39.2038C117.918 39.6227 118.211 39.9438 118.547 40.1672C118.882 40.4045 119.245 40.5302 119.622 40.5581C119.999 40.5721 120.348 40.4743 120.697 40.2649C121.129 39.9996 121.381 39.6785 121.478 39.3155C121.59 38.9386 121.534 38.5058 121.325 37.9613L120.697 36.3138C120.557 35.9508 120.529 35.6856 120.585 35.4482C120.641 35.2248 120.808 35.0294 121.088 34.8339C121.409 34.6385 121.73 34.6245 122.093 34.792C122.428 34.9456 122.735 35.2388 123.014 35.6856C123.266 36.0904 123.391 36.4674 123.377 36.8444C123.363 37.2074 123.21 37.5424 122.93 37.8217L123.307 38.408C123.726 38.0311 123.95 37.5983 123.991 37.0957C124.033 36.5651 123.866 36.0067 123.503 35.4203C123.293 35.0713 123.014 34.7641 122.665 34.4709C122.372 34.2336 122.051 34.08 121.674 34.0242C121.311 33.9823 121.004 34.0521 120.697 34.2475C120.292 34.5128 120.068 34.806 119.985 35.1411C119.901 35.4901 119.957 35.9229 120.152 36.4116L120.738 37.9892C120.892 38.3941 120.92 38.7152 120.85 38.9944C120.78 39.2736 120.585 39.511 120.278 39.7065C119.929 39.9298 119.566 39.9578 119.161 39.8042C118.77 39.6646 118.449 39.3714 118.156 38.9107C117.862 38.436 117.723 37.9892 117.751 37.5843C117.779 37.1794 117.946 36.8025 118.267 36.4674L117.876 35.881Z" fill="#221F51"/>
<path d="M127.355 42.5125L121.101 45.4724L120.724 44.6905L126.978 41.7307L127.355 42.5125Z" fill="#221F51"/>
<path d="M121.059 45.5701L120.626 44.6626L127.02 41.647L127.453 42.5545L121.059 45.5701ZM120.807 44.7325L121.129 45.3886L127.258 42.4986L126.937 41.8424L120.807 44.7325Z" fill="#221F51"/>
<path d="M129.395 49.7447L123.531 51.6993L123.252 50.8755L129.116 48.9209L128.39 46.743L129.102 46.5056L130.833 51.6853L130.121 51.9226L129.395 49.7447Z" fill="#221F51"/>
<path d="M130.079 52.0064L129.353 49.8285L123.503 51.7831L123.182 50.8337L129.045 48.8791L128.319 46.7011L129.157 46.4219L130.93 51.7272L130.079 52.0064ZM129.436 49.647L130.162 51.825L130.735 51.6295L129.045 46.5894L128.473 46.7849L129.199 48.9629L123.349 50.9175L123.587 51.6016L129.436 49.647Z" fill="#221F51"/>
<path d="M125.932 62.1004L125.066 57.2139L131.88 56.0132L132.731 60.8299L132.005 60.9555L131.307 57.0044L129.087 57.3954L129.702 60.9136L128.976 61.0393L128.361 57.521L125.918 57.9538L126.63 61.9747L125.932 62.1004Z" fill="#221F51"/>
<path d="M125.876 62.1702L125.862 62.1004L124.982 57.1441L131.935 55.9155L132.815 60.8579L131.949 61.0114L131.251 57.0604L129.171 57.4234L129.785 60.9416L128.92 61.0952L128.305 57.5769L126.002 57.9818L126.714 62.0027L125.876 62.1702ZM125.15 57.2698L125.988 62.0167L126.56 61.9189L125.848 57.8981L128.431 57.4373L129.045 60.9556L129.632 60.8579L129.017 57.3396L131.377 56.9208L132.075 60.8718L132.661 60.7741L131.837 56.097L125.15 57.2698Z" fill="#221F51"/>
<path d="M132.507 68.1876L126.337 68.3551L126.309 67.4895L132.48 67.322L132.424 65.0184L133.178 65.0044L133.317 70.4633L132.563 70.4773L132.507 68.1876Z" fill="#221F51"/>
<path d="M132.508 70.5471L132.452 68.2574L126.281 68.4249L126.253 67.4197L132.438 67.2522L132.382 64.9485L133.276 64.9346L133.415 70.5331L132.508 70.5471ZM132.577 68.1178L132.633 70.4074L133.248 70.3935L133.108 65.0742L132.494 65.0881L132.55 67.3918L126.379 67.5593L126.407 68.2853L132.577 68.1178Z" fill="#221F51"/>
<path d="M132.969 75.685L126.072 75.0568L126.156 74.1912L133.053 74.8194L132.969 75.685Z" fill="#221F51"/>
<path d="M133.038 75.7549L126.002 75.1127L126.1 74.1074L133.136 74.7496L133.038 75.7549ZM126.142 74.987L132.899 75.6013L132.969 74.8753L126.211 74.261L126.142 74.987Z" fill="#221F51"/>
<path d="M68.2577 129.967C68.2577 130.204 68.2577 130.428 68.2577 130.665C68.2577 131.182 67.9227 131.349 67.4899 131.363C67.0571 131.377 66.708 131.21 66.6941 130.707C66.6801 130.19 66.6801 129.688 66.6941 129.171C66.708 128.655 67.071 128.487 67.4899 128.501C67.9087 128.515 68.2717 128.683 68.2577 129.199C68.2577 129.464 68.2577 129.716 68.2577 129.967Z" fill="#221F51"/>
<path d="M83.5035 113.967C88.9206 111.747 93.472 108.355 97.2137 103.887C97.8 103.189 98.3446 102.449 98.9868 101.625C95.9571 101.625 93.109 101.625 90.2609 101.611C89.9118 101.611 89.842 101.807 89.7583 102.058C89.0323 104.194 88.1108 106.246 87.0777 108.243C86.0445 110.253 84.7182 112.068 83.4198 113.883C83.3639 113.897 83.2941 113.911 83.336 113.995C83.35 114.009 83.4477 113.981 83.5035 113.967ZM55.7482 113.967C55.8041 113.981 55.9018 114.023 55.9158 113.995C55.9716 113.911 55.9018 113.897 55.832 113.883C55.818 113.841 55.818 113.786 55.7901 113.758C52.9559 110.309 51.0013 106.386 49.5633 102.198C49.3958 101.737 49.1724 101.611 48.7117 101.625C46.1009 101.653 43.5041 101.639 40.9072 101.639C40.7537 101.639 40.5861 101.555 40.4605 101.723C40.4325 101.891 40.5582 101.988 40.628 102.086C43.2527 105.702 46.4499 108.69 50.2055 111.091C51.9507 112.222 53.7936 113.213 55.7482 113.967ZM99.252 72.8088C99.5313 72.7251 99.7407 72.6553 99.9641 72.5994C102.086 71.9991 103.413 70.6029 103.873 68.4808C104.376 66.1492 104.362 63.7758 103.929 61.4303C103.468 58.9451 101.988 57.3815 99.4894 56.837C98.8472 56.6974 98.2049 56.5857 97.5487 56.5857C92.0061 56.5717 86.4913 56.5717 80.9486 56.5717C80.4879 56.5717 80.1668 56.7392 79.9434 57.172C79.371 58.275 78.7567 59.3779 78.1703 60.4669C75.5176 65.4232 72.8649 70.3516 70.2123 75.3079C70.0866 75.5592 70.0168 75.8943 69.598 75.8664C69.235 75.8385 69.1791 75.5453 69.0535 75.3079C65.7865 69.3324 62.5335 63.343 59.2805 57.3535C58.9594 56.7672 58.5545 56.5577 57.8843 56.5577C52.8861 56.5857 47.9019 56.5717 42.8898 56.5717C42.08 56.5717 41.2702 56.6275 40.4605 56.7392C37.3889 57.1441 35.4204 58.7636 34.6665 61.5001C34.3454 62.6728 34.2057 63.8735 34.1918 65.0742C34.1499 67.3778 34.1639 69.6815 34.1778 71.9712C34.1778 73.2975 34.3035 74.6238 34.6246 75.9083C35.197 78.184 36.5233 79.8035 38.827 80.5016C40.0137 80.8646 41.2423 81.0042 42.4709 81.0182C47.0782 81.0321 51.6715 81.0321 56.2788 81.0182C57.1025 81.0182 57.2979 80.8227 57.2979 79.985C57.3119 79.0496 57.2979 78.1281 57.2979 77.1927C57.2979 76.1456 57.1304 75.992 56.0833 75.992C51.7553 75.992 47.4412 75.992 43.1131 75.992C42.4849 75.992 41.8566 75.9641 41.2423 75.8245C40.1394 75.5592 39.4413 74.8751 39.2319 73.7582C39.1062 73.0741 39.0364 72.39 38.9945 71.6919C38.9666 71.1055 39.0783 70.9101 39.7345 70.9101C45.1375 70.938 50.5127 70.924 55.9158 70.924C56.9489 70.924 57.1723 70.7007 57.1723 69.6536C57.1723 68.9555 57.1723 68.2574 57.1723 67.5593C57.1583 66.6937 56.921 66.4424 56.0414 66.4424C53.3189 66.4424 50.5965 66.4424 47.8879 66.4424C45.1236 66.4424 42.3453 66.4285 39.5949 66.4564C39.1341 66.4564 38.9945 66.3447 39.0085 65.87C39.0364 65.1719 39.1062 64.4739 39.2458 63.8037C39.4413 62.8264 40.0277 62.1423 41.0189 61.8491C41.703 61.6537 42.3871 61.6118 43.0852 61.6118C47.0363 61.6118 50.9874 61.6257 54.9385 61.5978C55.3852 61.5978 55.6226 61.7235 55.846 62.1423C58.8197 67.5733 61.8354 72.9764 64.7952 78.4213C65.7725 80.2084 67.1408 81.1857 69.221 81.0321C69.5421 81.0042 69.8772 81.0042 70.1983 81.0321C72.2786 81.2415 73.6049 80.2224 74.5543 78.4493C77.5001 72.9764 80.5018 67.5454 83.4617 62.0725C83.6711 61.6816 83.9084 61.514 84.3692 61.528C87.1196 61.5559 89.856 61.542 92.5924 61.542C93.8769 61.542 95.1474 61.528 96.4318 61.5978C97.8419 61.6816 98.6517 62.5193 98.7215 63.9154C98.7634 64.795 98.7634 65.6885 98.7215 66.5681C98.6517 67.9363 97.8419 68.7461 96.4877 68.8857C96.027 68.9276 95.5523 68.9415 95.0915 68.9415C91.3918 68.9415 87.7059 68.9555 84.0062 68.9276C83.3639 68.9276 83.2243 69.1091 83.2522 69.6954C83.3081 70.6867 83.2941 71.6919 83.2522 72.6972C83.2243 73.2277 83.3639 73.3952 83.9224 73.3952C86.952 73.3673 89.9537 73.3952 92.9834 73.3673C93.458 73.3673 93.7373 73.5209 94.0165 73.8978C95.6221 76.0898 97.2416 78.2538 98.8611 80.4178C99.0705 80.6971 99.266 81.0042 99.6709 81.0042C101.249 81.0182 102.84 81.0321 104.418 81.0042C104.99 80.9902 105.2 80.5016 104.892 80.0129C104.809 79.8733 104.697 79.7616 104.599 79.622C102.84 77.3603 101.067 75.1264 99.252 72.8088ZM47.874 53.2489C52.2998 53.2489 56.6976 53.2489 61.1234 53.2349C61.7935 53.2349 62.3939 53.3466 63.0221 53.5979C64.4881 54.1703 65.7725 55.0359 67.0011 55.9993C68.9418 57.5211 70.9103 57.0883 72.6555 55.9574C73.563 55.371 74.4426 54.7288 75.364 54.1564C76.453 53.4723 77.6118 53.221 78.9242 53.221C87.4965 53.2628 96.0828 53.2489 104.655 53.2489C104.837 53.2489 105.032 53.2349 105.214 53.2489C105.632 53.2768 105.8 53.0674 105.8 52.6625C105.8 52.0342 105.758 51.406 105.814 50.7777C105.87 50.0936 105.591 49.8981 104.934 49.9121C102.449 49.94 99.9501 49.9121 97.4789 49.94C96.9903 49.94 96.8507 49.8144 96.8646 49.3257C96.9065 48.4461 96.8926 47.5526 96.8646 46.673C96.8507 46.324 96.9484 46.1565 97.2835 45.9889C98.0793 45.598 98.3725 44.8441 98.1351 43.9925C97.9257 43.2106 97.2974 42.7359 96.4179 42.7778C96.0549 42.7918 95.8873 42.6801 95.7058 42.3869C93.6395 38.9524 91.5593 35.5318 89.493 32.0973C89.3394 31.832 89.2836 31.6505 89.4651 31.3574C89.9118 30.5895 89.8001 29.8216 89.2556 29.2352C88.7251 28.6907 87.9712 28.5651 87.2033 28.956C86.966 29.0816 86.7984 29.0956 86.589 28.9281C84.8997 27.7274 83.2104 26.5407 81.521 25.34C81.2976 25.1864 81.1999 25.0049 81.2278 24.6977C81.2976 23.7763 80.9765 23.2039 80.2645 22.8688C79.5804 22.5477 78.8544 22.7013 78.2401 23.3295C78.0027 23.5669 77.8073 23.6088 77.5001 23.525C76.7183 23.3016 75.9365 23.1061 75.1407 22.9246C74.8056 22.8409 74.6101 22.7292 74.5263 22.3243C74.3448 21.5145 73.7445 21.0817 72.9906 21.0399C72.1948 20.998 71.6084 21.333 71.3152 22.1288C71.1756 22.5058 70.9383 22.5198 70.6311 22.5477C68.495 22.7152 66.3729 22.8688 64.2507 23.0782C63.7481 23.1201 63.4131 23.0782 63.0919 22.6175C62.6452 21.9613 61.8773 21.7798 61.1792 22.0311C60.5091 22.2685 60.0065 22.8967 60.0484 23.6227C60.0763 24.0834 59.8808 24.2789 59.5318 24.4744C56.8372 25.9822 54.1566 27.504 51.476 29.0258C51.2108 29.1794 51.0432 29.2213 50.75 29.0258C50.0101 28.5371 49.1584 28.6349 48.586 29.2212C48.0136 29.7937 47.9298 30.6314 48.4045 31.3853C48.5721 31.6645 48.586 31.8739 48.4324 32.1531C46.8408 34.9873 45.2632 37.8215 43.6856 40.6417C43.532 40.9209 43.4063 41.0885 43.0154 41.0745C42.1219 41.0187 41.4936 41.5352 41.2702 42.3729C41.0748 43.1129 41.4238 43.9366 42.1638 44.2996C42.4988 44.4671 42.5826 44.6486 42.5686 44.9977C42.5547 46.3659 42.5268 47.7481 42.5826 49.1163C42.6105 49.7864 42.4709 50.0238 41.731 50.0098C39.2598 49.954 36.8026 49.9959 34.3454 49.9819C33.745 49.9819 33.4797 50.1634 33.5356 50.7777C33.5775 51.2105 33.5496 51.6573 33.5496 52.104C33.5496 53.2628 33.5496 53.2628 34.6665 53.2628C39.0364 53.2489 43.4482 53.2489 47.874 53.2489ZM59.099 84.2851C56.558 84.2851 54.031 84.2991 51.504 84.2712C50.9595 84.2712 50.7919 84.3829 50.8338 84.9553C51.0572 88.9064 51.5738 92.8016 52.579 96.627C52.6907 97.0599 52.8303 97.1715 53.2631 97.1715C57.7726 97.1576 62.2682 97.1576 66.7778 97.1715C67.3362 97.1715 67.406 96.9761 67.406 96.4874C67.3921 92.6341 67.3781 88.7807 67.406 84.9274C67.406 84.341 67.2106 84.2572 66.694 84.2572C64.153 84.2991 61.612 84.2851 59.099 84.2851ZM79.1895 97.1715C81.0045 97.1715 82.8194 97.1715 84.6344 97.1715C86.6588 97.1715 86.617 97.1715 87.0498 95.1611C87.7757 91.7685 88.2225 88.3479 88.418 84.8855C88.4459 84.3829 88.3342 84.2572 87.8316 84.2572C82.6938 84.2712 77.5699 84.2712 72.4182 84.2572C71.9854 84.2572 71.8178 84.341 71.8318 84.8157C71.8597 88.7528 71.8597 92.662 71.8318 96.5991C71.8318 97.0878 71.9993 97.1576 72.4182 97.1576C74.6799 97.1715 76.9417 97.1855 79.1895 97.1715ZM91.2242 97.1715C94.6448 97.1715 97.9536 97.1715 101.276 97.1715C101.514 97.1715 101.625 97.0878 101.737 96.8504C103.566 93.039 104.641 89.046 105.046 84.8436C105.088 84.3829 104.934 84.2572 104.488 84.2572C100.816 84.2712 97.1578 84.2712 93.486 84.2572C93.0532 84.2572 92.8996 84.341 92.8717 84.8157C92.7041 88.9622 92.2015 93.0529 91.2242 97.1715ZM40.3208 84.2851C38.464 84.2851 36.5931 84.2991 34.7363 84.2712C34.2616 84.2712 34.1639 84.4108 34.2057 84.8576C34.5408 88.5853 35.5181 92.1315 36.9003 95.6079C37.375 96.8085 37.9753 97.2693 39.3296 97.1995C42.0381 97.0598 44.7745 97.1576 47.4831 97.1436C47.6646 97.1436 48.1113 97.381 47.9717 96.7946C46.9944 92.8575 46.5616 88.8505 46.3941 84.8017C46.3661 84.3131 46.1847 84.2433 45.7798 84.2572C43.9508 84.2991 42.1358 84.2851 40.3208 84.2851ZM54.2264 101.653C54.2264 101.737 54.1985 101.779 54.2125 101.821C55.5388 105.241 57.2281 108.438 59.6016 111.259C61.5422 113.548 63.804 115.391 66.7079 116.313C67.2943 116.494 67.3921 116.368 67.3921 115.796C67.3641 111.287 67.3781 106.791 67.3921 102.267C67.3921 101.751 67.2804 101.597 66.7498 101.611C62.7289 101.639 58.722 101.625 54.6872 101.625C54.5336 101.625 54.38 101.639 54.2264 101.653ZM71.8597 109.095C71.8597 111.37 71.8737 113.646 71.8458 115.908C71.8458 116.424 71.9714 116.48 72.4321 116.341C74.2332 115.782 75.8387 114.875 77.2628 113.646C80.8927 110.519 83.1405 106.484 84.9137 102.128C85.0812 101.723 84.9695 101.611 84.5367 101.611C80.4739 101.625 76.4111 101.625 72.3484 101.611C71.8737 101.611 71.8318 101.807 71.8318 102.198C71.8737 104.501 71.8597 106.791 71.8597 109.095Z" fill="#221F51"/>
<path d="M99.252 72.809C101.067 75.1126 102.84 77.3743 104.613 79.6082C104.711 79.7338 104.823 79.8595 104.906 79.9991C105.214 80.4878 105.004 80.9764 104.432 80.9904C102.854 81.0183 101.262 80.9904 99.6848 80.9904C99.2799 80.9904 99.0844 80.6972 98.875 80.404C97.2555 78.226 95.636 76.048 94.0304 73.884C93.7652 73.521 93.4859 73.3535 92.9973 73.3535C89.9676 73.3814 86.9659 73.3535 83.9363 73.3814C83.3778 73.3814 83.2382 73.2138 83.2661 72.6833C83.308 71.6781 83.322 70.6868 83.2661 69.6816C83.2382 69.0813 83.3778 68.8998 84.0201 68.9137C87.7198 68.9556 91.4057 68.9277 95.1054 68.9277C95.5662 68.9277 96.0409 68.9137 96.5016 68.8718C97.8558 68.7322 98.6656 67.9225 98.7354 66.5542C98.7773 65.6747 98.7773 64.7811 98.7354 63.9016C98.6656 62.5054 97.8558 61.6677 96.4457 61.584C95.1753 61.5002 93.8908 61.5281 92.6063 61.5281C89.8559 61.5142 87.1195 61.5421 84.3831 61.5142C83.9223 61.5142 83.685 61.6677 83.4756 62.0587C80.5018 67.5176 77.514 72.9625 74.5682 78.4354C73.6188 80.2085 72.2925 81.2137 70.2122 81.0183C69.8911 80.9904 69.556 80.9904 69.2349 81.0183C67.1547 81.1719 65.7864 80.1946 64.8091 78.4075C61.8493 72.9625 58.8337 67.5595 55.8599 62.1285C55.6365 61.7096 55.3991 61.584 54.9524 61.584C51.0013 61.5979 47.0502 61.5979 43.0991 61.5979C42.4011 61.5979 41.703 61.6398 41.0328 61.8353C40.0416 62.1285 39.4692 62.8126 39.2597 63.7899C39.1201 64.474 39.0503 65.1581 39.0224 65.8562C39.0084 66.3309 39.148 66.4426 39.6088 66.4426C42.3731 66.4286 45.1515 66.4286 47.9019 66.4286C50.6243 66.4286 53.3468 66.4286 56.0553 66.4286C56.9349 66.4286 57.1723 66.6659 57.1862 67.5455C57.2002 68.2436 57.1862 68.9416 57.1862 69.6397C57.1862 70.7008 56.9628 70.9102 55.9297 70.9102C50.5266 70.9102 45.1515 70.9242 39.7484 70.8962C39.0922 70.8962 38.9805 71.0917 39.0084 71.6781C39.0503 72.3762 39.1062 73.0742 39.2458 73.7444C39.4552 74.8613 40.1533 75.5454 41.2562 75.8107C41.8705 75.9503 42.4988 75.9782 43.1271 75.9782C47.4551 75.9782 51.7692 75.9782 56.0972 75.9782C57.1443 75.9782 57.3119 76.1318 57.3119 77.1789C57.3119 78.1143 57.3258 79.0358 57.3119 79.9712C57.2979 80.8228 57.1164 81.0043 56.2927 81.0043C51.6854 81.0043 47.0921 81.0043 42.4848 81.0043C41.2423 81.0043 40.0276 80.8508 38.8409 80.4878C36.5233 79.7897 35.2109 78.1702 34.6385 75.8944C34.3174 74.61 34.1917 73.2837 34.1917 71.9573C34.1917 69.6537 34.1638 67.35 34.2057 65.0604C34.2336 63.8597 34.3593 62.659 34.6804 61.4862C35.4203 58.7777 37.3749 57.1442 40.4465 56.7394C41.2562 56.6277 42.066 56.5718 42.8757 56.5718C47.8739 56.5718 52.8582 56.5858 57.8703 56.5579C58.5265 56.5579 58.9453 56.7533 59.2665 57.3537C62.5195 63.3431 65.7725 69.3326 69.0395 75.3081C69.1651 75.5454 69.221 75.8386 69.584 75.8665C70.0028 75.8944 70.0726 75.5454 70.1983 75.3081C72.8649 70.3657 75.5176 65.4234 78.1563 60.4671C78.7426 59.3641 79.357 58.2751 79.9294 57.1722C80.1528 56.7394 80.4739 56.5718 80.9346 56.5718C86.4773 56.5858 91.9921 56.5858 97.5347 56.5858C98.1909 56.5858 98.8332 56.6975 99.4754 56.8371C101.974 57.3816 103.454 58.9453 103.915 61.4304C104.348 63.7759 104.362 66.1494 103.859 68.4809C103.399 70.6031 102.072 71.9992 99.9501 72.5995C99.7406 72.6693 99.5312 72.7252 99.252 72.809Z" fill="white"/>
<path d="M47.8739 53.2349C43.4481 53.2349 39.0502 53.2349 34.6245 53.2349C33.5076 53.2349 33.5076 53.2349 33.5076 52.0761C33.5076 51.6293 33.5355 51.1826 33.4936 50.7498C33.4378 50.1215 33.703 49.94 34.3034 49.9539C36.7745 49.9819 39.2318 49.926 41.689 49.9819C42.4289 49.9958 42.5685 49.7585 42.5406 49.0883C42.5685 47.6503 42.5685 46.3938 42.5267 44.9697C42.5127 44.6346 42.4568 44.4392 42.1218 44.2717C41.3678 43.9087 41.0328 43.0849 41.2282 42.345C41.4516 41.5073 42.0799 41.0047 42.9734 41.0466C43.3643 41.0745 43.49 40.9069 43.6436 40.6138C45.2212 37.7796 46.7988 34.9454 48.3905 32.1252C48.544 31.846 48.5301 31.6366 48.3625 31.3573C47.8878 30.6034 47.9856 29.7657 48.544 29.1933C49.1164 28.6209 49.9681 28.5092 50.708 28.9978C51.0012 29.1933 51.1827 29.1375 51.434 28.9978C54.1146 27.476 56.8092 25.9543 59.4898 24.4464C59.8388 24.251 60.0343 24.0695 60.0064 23.5948C59.9645 22.8688 60.4531 22.2405 61.1372 22.0032C61.8353 21.7519 62.6032 21.9334 63.05 22.5895C63.3571 23.0642 63.7061 23.1061 64.2087 23.0503C66.3309 22.8548 68.467 22.6873 70.5891 22.5197C70.8963 22.4918 71.1336 22.4918 71.2732 22.1009C71.5664 21.3191 72.1528 20.97 72.9486 21.0119C73.7165 21.0538 74.3029 21.4866 74.4844 22.2964C74.5821 22.7012 74.7636 22.8129 75.0987 22.8967C75.8945 23.0922 76.6763 23.2876 77.4581 23.497C77.7653 23.5808 77.9608 23.5529 78.1981 23.3016C78.8124 22.6733 79.5384 22.5337 80.2225 22.8409C80.9345 23.1759 81.2696 23.7344 81.1859 24.6698C81.1579 24.977 81.2557 25.1445 81.479 25.312C83.1684 26.4987 84.8577 27.6994 86.547 28.9001C86.7704 29.0537 86.924 29.0397 87.1613 28.928C87.9292 28.5371 88.6831 28.6628 89.2137 29.2073C89.7721 29.7797 89.8838 30.5615 89.4231 31.3294C89.2416 31.6366 89.2974 31.8181 89.451 32.0694C91.5313 35.5039 93.6115 38.9244 95.6638 42.3589C95.8453 42.6521 96.0129 42.7638 96.3759 42.7499C97.2554 42.708 97.8837 43.1827 98.0931 43.9645C98.3165 44.8161 98.0233 45.5561 97.2415 45.961C96.9064 46.1285 96.8227 46.2961 96.8227 46.6451C96.8227 47.5107 96.8227 48.3484 96.8227 49.2978C96.7947 49.7864 96.9483 49.926 97.4369 49.9121C99.9221 49.8841 102.421 49.926 104.892 49.8841C105.549 49.8702 105.828 50.0656 105.772 50.7498C105.716 51.378 105.758 52.0063 105.758 52.6345C105.758 53.0394 105.59 53.2488 105.172 53.2209C104.99 53.207 104.795 53.2209 104.613 53.2209C96.0408 53.2209 87.4545 53.2488 78.8822 53.193C77.5698 53.179 76.411 53.4443 75.3221 54.1284C74.4006 54.7008 73.521 55.3431 72.6135 55.9294C70.8684 57.0603 68.8858 57.4931 66.9592 55.9713C65.7445 55.008 64.4461 54.1424 62.9801 53.57C62.3658 53.3326 61.7515 53.207 61.0814 53.207C56.6975 53.2349 52.2857 53.2349 47.8739 53.2349ZM44.2579 41.3816C47.3433 39.4131 50.4288 37.4445 53.5143 35.476C53.6539 35.3922 53.7377 35.2805 53.7377 35.085C53.7516 34.359 54.4218 34.387 53.7237 33.8285C53.4445 33.6889 52.188 32.7116 51.8668 32.4882C51.3503 32.1531 50.8197 31.5947 50.0658 32.0694C49.9402 32.1392 49.7447 32.1392 49.5911 32.1112C49.2979 32.0414 49.1723 32.1811 49.0466 32.4044C47.4131 35.3643 45.7797 38.3241 44.1462 41.2699C44.1043 41.3258 44.0903 41.3956 44.1601 41.4375C44.1741 41.4794 44.2299 41.4096 44.2579 41.3816ZM56.865 33.2142C56.9488 33.1723 57.0326 33.1444 57.1163 33.0885C61.7515 29.9053 66.3728 26.7501 71.008 23.5668C71.1057 23.497 71.2034 23.4272 71.1197 23.2737C68.7043 23.4552 66.275 23.6506 63.8597 23.8321C63.5805 23.86 63.4409 23.9717 63.3292 24.251C63.0918 24.8373 62.6311 25.3539 61.9749 25.2841C61.1931 25.2003 60.9837 25.675 60.7044 26.1776C60.6207 26.3452 60.5229 26.4987 60.4252 26.6663C59.2106 28.8303 57.9959 30.9804 56.7813 33.1304C56.7254 33.1444 56.6696 33.1723 56.7254 33.2421C56.7394 33.27 56.8231 33.2282 56.865 33.2142ZM74.1353 32.0414C73.2976 32.181 72.4041 32.3346 71.5106 32.4742C66.9173 33.2142 62.3519 33.9681 57.7586 34.7081C57.4375 34.7639 57.1303 34.7499 56.9907 35.2246C56.8511 35.7133 57.2141 35.7831 57.4235 35.9786C57.7446 36.3136 58.1216 36.5929 58.4706 36.9C61.598 39.6504 64.6974 42.3869 67.8248 45.1233C68.6066 45.8074 69.6677 45.5701 70.0586 44.6346C70.7148 43.0989 71.371 41.5631 72.0271 40.0274C72.9905 37.7377 73.9538 35.462 74.9172 33.1863C75.1266 32.6837 74.7077 32.0275 74.1353 32.0414ZM48.7953 49.9679C50.4707 49.9679 52.1461 49.9679 53.8214 49.9679C54.1844 49.9679 54.4357 49.94 54.4497 49.4653C54.6033 45.2489 54.7708 41.0326 54.9523 36.8162C54.9663 36.4672 54.8267 36.3416 54.5614 36.188C54.2961 36.0204 54.1007 35.9925 53.8214 36.174C50.8337 38.1007 47.8599 40.0274 44.8722 41.9401C44.5929 42.1216 44.5511 42.2891 44.5929 42.6102C44.6767 43.3362 44.3835 43.9645 43.6994 44.2717C43.3085 44.4531 43.2806 44.6765 43.2806 45.0256C43.2945 46.4636 43.3085 47.9156 43.2666 49.3536C43.2526 49.8981 43.4341 49.9958 43.9368 49.9958C45.5563 49.954 47.1898 49.9679 48.7953 49.9679ZM55.1478 49.3117C54.9663 49.8702 55.2315 49.9958 55.8179 49.9819C57.605 49.9539 59.406 50.0238 61.1931 49.9539C62.1564 49.9121 63.022 50.1075 63.8737 50.4705C64.1808 50.6101 64.3763 50.5683 64.6276 50.3728C65.2698 49.8423 65.9539 49.3536 66.6101 48.8231C67.2663 48.2925 68.1878 47.9016 67.8108 46.7707C67.7968 46.7289 67.8108 46.673 67.8387 46.6311C67.9923 46.2961 67.8527 46.1006 67.5874 45.8632C63.9854 42.7219 60.3973 39.5806 56.8092 36.4114C56.5718 36.2019 56.3764 36.1601 56.0692 36.2857C55.7481 36.4114 55.7342 36.6068 55.7202 36.8721C55.5247 41.0047 55.3432 45.1233 55.1478 49.3117ZM71.1476 46.1146C71.2732 46.0727 71.4128 46.0308 71.5385 45.9889C76.2435 44.4671 80.9345 42.9453 85.6395 41.4514C86.1421 41.2979 86.2399 40.9907 86.3655 40.5858C86.4912 40.167 86.1561 40.0553 85.9467 39.8738C83.2242 37.64 80.4878 35.4061 77.7793 33.1863C77.0393 32.572 75.8805 32.8512 75.5035 33.7308C74.596 35.8669 73.7025 38.003 72.795 40.1251C72.083 41.8144 71.357 43.4898 70.645 45.1791C70.4495 45.6678 70.7008 46.1425 71.1476 46.1146ZM92.2293 49.9121C91.0007 47.5665 89.8 45.3188 88.6273 43.0849C88.4737 42.7917 88.2503 42.7778 87.9851 42.8057C87.5104 42.8336 87.0915 42.68 86.7983 42.331C86.5331 42.0378 86.3097 42.0239 85.9467 42.1355C81.1998 43.6853 76.4669 45.2071 71.72 46.7428C71.5106 46.8126 71.2034 46.7847 71.1755 47.0919C71.1476 47.4409 71.5106 47.4409 71.72 47.5247C73.7165 48.2786 75.7269 49.0185 77.7094 49.7585C77.9747 49.8562 78.24 49.94 78.5192 49.94C83.0846 49.9121 87.5941 49.9121 92.2293 49.9121ZM57.1443 33.9821C57.3537 33.996 57.4235 34.01 57.4933 33.996C62.6311 33.1583 67.755 32.3067 72.8928 31.483C73.7025 31.3573 74.5821 31.3713 74.7775 30.2963C74.7915 30.2404 74.8613 30.1846 74.9172 30.1427C75.1685 29.9472 75.1405 29.7518 75.0288 29.4725C74.5681 28.3277 74.1353 27.1829 73.7165 26.0241C73.4233 25.2003 73.2697 24.3627 72.1109 24.237C71.72 24.1951 71.4687 24.1393 71.1336 24.3626C69.2628 25.6611 67.378 26.9316 65.5072 28.216C62.7568 30.1287 60.0203 32.0135 57.1443 33.9821ZM87.6081 35.7971C87.6081 34.9175 87.5941 34.0379 87.6081 33.1444C87.6221 32.558 87.6779 31.9996 86.938 31.7762C86.7704 31.7203 86.5889 31.5109 86.5191 31.3294C86.3795 30.9664 86.1422 30.9385 85.8071 30.9664C83.308 31.1758 80.8089 31.3713 78.3377 31.5668C78.0864 31.5807 77.8491 31.5528 77.7374 31.8879C77.6257 32.2229 77.877 32.2927 78.0445 32.4324C80.8927 34.7779 83.7408 37.1094 86.575 39.441C86.7844 39.6225 86.9379 39.6923 87.2451 39.5527C87.5522 39.3991 87.6221 39.2316 87.6221 38.9105C87.6081 37.8773 87.6081 36.8442 87.6081 35.7971ZM57.3397 30.5615C58.4008 28.6907 59.4619 26.8338 60.5229 24.9909C60.3833 24.8513 60.2995 24.9071 60.2158 24.949C57.3816 26.5546 54.5614 28.1602 51.7552 29.7657C51.3642 29.9891 51.2665 31.106 51.6155 31.3713C52.3974 31.9856 53.2071 32.572 54.0029 33.1723C54.1146 33.2561 54.2263 33.3817 54.3659 33.3259M88.5156 32.0694C88.4598 32.0973 88.3899 32.1252 88.3341 32.1531C88.3341 34.4707 88.3341 36.7883 88.3341 39.1059C88.3341 39.3572 88.4737 39.427 88.6552 39.4968C89.2835 39.7342 89.6325 40.2368 89.6883 40.879C89.7302 41.3118 89.9257 41.4654 90.2887 41.5911C91.7267 42.1356 93.1368 42.7219 94.5748 43.2804C94.7563 43.3502 94.9658 43.5457 95.1473 43.3642C95.3986 43.1129 95.0914 42.9313 94.9937 42.7638C93.43 40.153 91.8524 37.5562 90.2747 34.9733C89.6604 34.01 89.088 33.0327 88.5156 32.0694ZM96.0966 46.9522C95.985 46.3938 96.0548 46.0866 95.5242 45.8493C95.0495 45.6399 94.7982 45.1652 94.7843 44.6626C94.7703 44.2298 94.5609 44.0762 94.1979 43.9366C92.7878 43.3921 91.3917 42.8197 89.9816 42.2752C89.7721 42.1914 89.5348 41.9261 89.2835 42.1774C89.0043 42.4567 89.2695 42.694 89.3812 42.9174C90.4283 44.8999 91.5173 46.8685 92.5086 48.8789M78.4634 30.7849C80.9066 30.5894 83.3638 30.408 85.7931 30.2125C85.9886 30.1985 86.2399 30.2404 86.3236 29.9891C86.4353 29.668 86.1142 29.6121 85.9467 29.5005C84.6204 28.565 83.294 27.6296 81.9816 26.6803C81.2836 26.1916 80.6553 25.4935 79.692 26.1218C79.664 26.1497 79.5942 26.1497 79.5524 26.1358C79.1475 26.052 78.9939 26.2893 78.8403 26.6244C78.4075 27.5459 77.9468 28.4533 77.4861 29.3608C77.0812 30.2264 77.5 30.8408 78.4634 30.7849ZM73.8282 24.3208C73.8421 24.3626 73.8701 24.4045 73.884 24.4464C74.5123 26.0659 75.1405 27.6855 75.7549 29.305C75.8386 29.5284 75.9643 29.6261 76.2156 29.654C76.4669 29.682 76.6065 29.5703 76.7042 29.3608C77.2208 28.2718 77.7513 27.1968 78.2679 26.1078C78.3238 25.9961 78.4215 25.8984 78.3377 25.7309C77.9189 24.8792 77.5 24.0695 76.3273 24.0415C75.7828 24.0276 75.2522 23.7763 74.7217 23.6506C74.4006 23.5668 73.8282 24.0276 73.8282 24.3208ZM76.5367 50.0936C74.6798 49.3955 72.9626 48.7672 71.2593 48.125C71.0359 48.0412 70.8683 48.0552 70.7008 48.2227C70.5333 48.4042 70.6031 48.5438 70.7008 48.7253C71.1895 49.6887 71.6781 50.666 72.1388 51.6433C72.2645 51.9086 72.3622 52.0621 72.6973 51.8527C73.8421 51.1128 75.0987 50.5962 76.5367 50.0936ZM69.9329 53.6677C70.4635 53.4303 71.0359 52.9277 71.6083 52.4391C71.7758 52.2995 71.5943 52.1319 71.5385 52.0063C71.0498 51.015 70.5333 50.0238 70.0307 49.0325C69.9609 48.8789 69.891 48.7253 69.6956 48.7533C69.4722 48.7812 69.5141 48.9767 69.4862 49.1302C69.2767 50.289 69.0813 51.4478 68.8719 52.6206C68.7462 53.2768 69.0813 53.6817 69.9329 53.6677ZM68.09 52.7043C68.3274 51.378 68.5508 50.2053 68.7741 49.0185C68.8021 48.837 68.83 48.6555 68.6345 48.5299C68.4391 48.4042 68.2994 48.4461 68.1319 48.5718C67.1406 49.3536 66.1354 50.1215 65.0744 50.9452C66.1215 51.5176 67.1267 51.9784 68.09 52.7043Z" fill="white"/>
<path d="M59.0991 84.2852C61.6401 84.2852 64.1672 84.2992 66.6942 84.2712C67.1968 84.2712 67.4062 84.355 67.4062 84.9414C67.3783 88.7947 67.3783 92.6481 67.4062 96.5014C67.4062 96.9901 67.3504 97.1856 66.7779 97.1856C62.2684 97.1576 57.7728 97.1716 53.2633 97.1856C52.8305 97.1856 52.6909 97.0739 52.5792 96.6411C51.5739 92.8017 51.0574 88.9204 50.834 84.9693C50.8061 84.3969 50.9736 84.2852 51.5041 84.2852C54.0312 84.2992 56.5582 84.2852 59.0991 84.2852Z" fill="white"/>
<path d="M79.1892 97.1716C76.9275 97.1716 74.6797 97.1576 72.4319 97.1856C71.9991 97.1856 71.8316 97.1157 71.8455 96.6271C71.8735 92.69 71.8735 88.7808 71.8455 84.8436C71.8455 84.369 71.9991 84.2712 72.4319 84.2852C77.5697 84.2991 82.6936 84.2991 87.8453 84.2852C88.3479 84.2852 88.4596 84.4108 88.4317 84.9135C88.2362 88.3759 87.7895 91.7964 87.0635 95.1891C86.6307 97.1855 86.6586 97.1995 84.6482 97.1995C82.8192 97.1716 81.0042 97.1716 79.1892 97.1716Z" fill="white"/>
<path d="M91.2236 97.1716C92.2009 93.053 92.7036 88.9762 92.8571 84.8297C92.8711 84.355 93.0386 84.2712 93.4714 84.2712C97.1433 84.2852 100.801 84.2852 104.473 84.2712C104.934 84.2712 105.087 84.3829 105.031 84.8576C104.627 89.06 103.552 93.053 101.723 96.8644C101.611 97.0878 101.499 97.1856 101.262 97.1856C97.9391 97.1716 94.6302 97.1716 91.2236 97.1716Z" fill="white"/>
<path d="M40.3204 84.2852C42.1354 84.2852 43.9504 84.2992 45.7654 84.2712C46.1842 84.2712 46.3657 84.3271 46.3797 84.8157C46.5612 88.8646 46.98 92.8575 47.9573 96.8086C48.0969 97.395 47.6641 97.1576 47.4687 97.1576C44.7462 97.1716 42.0237 97.0739 39.3152 97.2135C37.961 97.2833 37.3606 96.8226 36.8859 95.6219C35.5037 92.1455 34.5264 88.5993 34.1914 84.8716C34.1495 84.4248 34.2472 84.2712 34.7219 84.2852C36.6067 84.3131 38.4496 84.2852 40.3204 84.2852Z" fill="white"/>
<path d="M54.2258 101.653C54.3794 101.639 54.533 101.625 54.6865 101.625C58.7074 101.625 62.7144 101.639 66.7492 101.611C67.2797 101.611 67.4054 101.751 67.3914 102.268C67.3635 106.777 67.3635 111.273 67.3914 115.796C67.3914 116.383 67.2937 116.494 66.7073 116.313C63.7894 115.391 61.5276 113.548 59.601 111.259C57.2275 108.452 55.5382 105.241 54.2118 101.821C54.1979 101.779 54.2118 101.737 54.2258 101.653Z" fill="white"/>
<path d="M71.8597 109.095C71.8597 106.791 71.8736 104.487 71.8457 102.212C71.8457 101.821 71.8876 101.625 72.3623 101.625C76.425 101.639 80.4878 101.639 84.5506 101.625C84.9834 101.625 85.0811 101.737 84.9276 102.142C83.1545 106.498 80.8927 110.533 77.2767 113.66C75.8526 114.889 74.2471 115.796 72.446 116.355C71.9853 116.494 71.8457 116.438 71.8597 115.922C71.8736 113.632 71.8597 111.37 71.8597 109.095Z" fill="white"/>
<path d="M55.7475 113.967C53.7789 113.227 51.95 112.222 50.1909 111.091C46.4352 108.69 43.2381 105.688 40.6133 102.086C40.5295 101.974 40.4179 101.89 40.4458 101.723C40.5575 101.555 40.739 101.639 40.8925 101.639C43.5033 101.639 46.1002 101.653 48.697 101.625C49.1577 101.625 49.3951 101.737 49.5486 102.198C51.0006 106.386 52.9552 110.309 55.7754 113.758C55.8034 113.786 55.8033 113.841 55.8173 113.883C55.8033 113.911 55.7754 113.939 55.7475 113.967Z" fill="white"/>
<path d="M83.4336 113.883C84.746 112.054 86.0723 110.239 87.0915 108.243C88.1107 106.233 89.0461 104.18 89.7721 102.058C89.8559 101.807 89.9257 101.611 90.2747 101.611C93.1368 101.625 95.9849 101.625 99.0006 101.625C98.3584 102.449 97.8139 103.189 97.2275 103.887C93.4719 108.369 88.9204 111.747 83.5174 113.967C83.4755 113.939 83.4615 113.911 83.4336 113.883Z" fill="white"/>
<path d="M83.5033 113.967C83.4474 113.981 83.3497 114.009 83.3497 113.995C83.3078 113.911 83.3776 113.911 83.4335 113.883C83.4614 113.911 83.4753 113.939 83.5033 113.967Z" fill="white"/>
<path d="M55.8318 113.883C55.8877 113.897 55.9575 113.925 55.9156 113.995C55.9016 114.009 55.8039 113.967 55.748 113.967C55.776 113.939 55.8039 113.911 55.8318 113.883Z" fill="white"/>
<path d="M74.1353 32.0415C74.7078 32.0275 75.1266 32.6837 74.9172 33.2003C73.9538 35.49 72.9905 37.7796 72.0272 40.0414C71.371 41.5771 70.7148 43.1129 70.0586 44.6486C69.6677 45.5841 68.5926 45.8214 67.8248 45.1373C64.6974 42.3869 61.598 39.6505 58.4706 36.914C58.1216 36.6069 57.7586 36.3137 57.4235 35.9926C57.228 35.7971 56.865 35.7273 56.9907 35.2386C57.1303 34.764 57.4375 34.7779 57.7586 34.7221C62.3519 33.9682 66.9173 33.2282 71.5106 32.4882C72.432 32.3347 73.3116 32.1811 74.1353 32.0415Z" fill="#221F51"/>
<path d="M48.7947 49.982C47.1612 49.982 45.5417 49.9681 43.9082 49.996C43.4056 50.01 43.2241 49.9122 43.238 49.3538C43.252 47.9437 43.266 46.4777 43.252 45.0257C43.252 44.6767 43.2799 44.4533 43.6708 44.2718C44.341 43.9647 44.6482 43.3364 44.5644 42.6104C44.5225 42.2753 44.5644 42.1218 44.8436 41.9403C47.8453 40.0275 50.8191 38.1148 53.7929 36.1742C54.0721 35.9927 54.2676 36.0206 54.5328 36.1881C54.7842 36.3417 54.9377 36.4674 54.9238 36.8164C54.7423 41.0328 54.5747 45.2491 54.4211 49.4655C54.4072 49.9401 54.1559 49.9681 53.7929 49.9681C52.1454 49.982 50.4701 49.982 48.7947 49.982Z" fill="#221F51"/>
<path d="M55.1475 49.3256C55.329 45.1372 55.5105 41.0326 55.692 36.9C55.7059 36.6347 55.7339 36.4393 56.041 36.3136C56.3482 36.1879 56.5297 36.2298 56.781 36.4392C60.369 39.6085 63.9571 42.7498 67.5592 45.8911C67.8105 46.1145 67.9641 46.3239 67.8105 46.659C67.7965 46.7009 67.7826 46.7567 67.7826 46.7986C68.1456 47.9295 67.2381 48.3204 66.5819 48.851C65.9257 49.3675 65.2555 49.8701 64.5994 50.4007C64.3481 50.5961 64.1526 50.638 63.8454 50.4984C62.9938 50.1215 62.1282 49.94 61.1649 49.9818C59.3778 50.0656 57.5907 49.9818 55.7897 50.0098C55.2452 50.0098 54.9799 49.8701 55.1475 49.3256Z" fill="#221F51"/>
<path d="M71.1475 46.1287C70.7007 46.1427 70.4494 45.6819 70.6588 45.1933C71.3709 43.5039 72.0969 41.8286 72.8089 40.1392C73.7164 38.0031 74.6099 35.867 75.5174 33.7449C75.8944 32.8653 77.0532 32.5861 77.7931 33.2004C80.5156 35.4342 83.2521 37.6681 85.9606 39.8879C86.17 40.0694 86.5051 40.1811 86.3794 40.6C86.2538 41.0048 86.156 41.298 85.6534 41.4656C80.9345 42.9455 76.2574 44.4812 71.5524 46.003C71.4128 46.0449 71.2871 46.0868 71.1475 46.1287Z" fill="#221F51"/>
<path d="M92.2286 49.9262C87.5934 49.9262 83.0839 49.9262 78.5464 49.9262C78.2672 49.9262 78.0019 49.8424 77.7366 49.7447C75.7402 49.0047 73.7297 48.2648 71.7472 47.5109C71.5378 47.4271 71.1748 47.4271 71.2027 47.0781C71.2167 46.7709 71.5378 46.7988 71.7472 46.729C76.4941 45.1933 81.227 43.6575 85.9739 42.1217C86.3229 42.0101 86.5603 42.024 86.8255 42.3172C87.1187 42.6662 87.5515 42.8198 88.0123 42.7919C88.2775 42.7779 88.5009 42.7779 88.6545 43.0711C89.8133 45.3329 91 47.5807 92.2286 49.9262Z" fill="#221F51"/>
<path d="M57.1445 33.9961C60.0066 32.0276 62.757 30.1288 65.5074 28.244C67.3783 26.9596 69.2631 25.6751 71.1339 24.3907C71.469 24.1673 71.7203 24.2231 72.1112 24.265C73.27 24.3907 73.4236 25.2284 73.7168 26.0521C74.1356 27.2109 74.5684 28.3557 75.0291 29.5006C75.1408 29.7798 75.1687 29.9753 74.9174 30.1707C74.8616 30.2126 74.7918 30.2684 74.7778 30.3243C74.5824 31.4133 73.7028 31.3854 72.893 31.511C67.7552 32.3347 62.6314 33.1864 57.4936 34.0241C57.4238 34.0241 57.354 34.0101 57.1445 33.9961Z" fill="#221F51"/>
<path d="M87.6077 35.7971C87.6077 36.8442 87.5938 37.8913 87.6077 38.9245C87.6077 39.2316 87.5379 39.4131 87.2308 39.5667C86.9376 39.7063 86.784 39.6226 86.5606 39.455C83.7125 37.1095 80.8643 34.778 78.0302 32.4464C77.8626 32.3068 77.6253 32.237 77.723 31.9019C77.8347 31.5668 78.0721 31.5947 78.3234 31.5808C80.8225 31.3853 83.3216 31.1899 85.7927 30.9804C86.1278 30.9525 86.3652 30.9804 86.5048 31.3434C86.5746 31.5249 86.7421 31.7344 86.9236 31.7902C87.6636 32.0136 87.6077 32.572 87.5938 33.1584C87.5938 34.038 87.6077 34.9176 87.6077 35.7971Z" fill="#221F51"/>
<path d="M56.7949 33.1583C58.0096 30.9943 59.2242 28.8442 60.4389 26.6941C60.5366 26.5266 60.6343 26.373 60.7181 26.2055C60.9973 25.7029 61.2067 25.2282 61.9886 25.312C62.6308 25.3818 63.1055 24.8652 63.3428 24.2788C63.4545 23.9856 63.5941 23.8739 63.8734 23.86C66.3027 23.6785 68.7319 23.483 71.1333 23.3015C71.2171 23.4691 71.1194 23.5389 71.0216 23.5947C66.3864 26.7779 61.7652 29.9332 57.13 33.1164C57.0602 33.1722 56.9625 33.2002 56.8787 33.2421C56.8508 33.2002 56.8228 33.1862 56.7949 33.1583Z" fill="#221F51"/>
<path d="M53.5841 33.7168C54.3799 34.2613 53.7517 34.387 53.7377 35.113C53.7377 35.3084 53.6539 35.4201 53.5143 35.5039C50.4288 37.4725 47.3434 39.441 44.2579 41.4096C44.23 41.3817 44.202 41.3537 44.1602 41.3258C45.7936 38.366 47.4271 35.4062 49.0606 32.4603C49.1863 32.2369 49.3119 32.0834 49.6051 32.1671C49.7587 32.209 49.9542 32.209 50.0798 32.1252" fill="#221F51"/>
<path d="M60.5225 25.0049C59.4754 26.8478 58.4004 28.7186 57.3393 30.5755C57.1159 30.9524 56.3201 32.3765 56.0967 32.7535C55.2032 34.3311 55.273 33.0048 54.3655 33.3538C54.212 33.4096 54.1003 33.284 54.0025 33.2002C53.2067 32.5999 52.397 32.0135 51.6151 31.3992C51.2661 31.12 51.3638 30.017 51.7547 29.7936C54.5749 28.1881 57.4091 26.5825 60.2154 24.9769C60.2991 24.9211 60.3829 24.8652 60.5225 25.0049Z" fill="#221F51"/>
<path d="M88.5151 32.0833C89.0875 33.0466 89.6739 34.0099 90.2463 34.9733C91.8239 37.5701 93.4016 40.1669 94.9653 42.7637C95.063 42.9313 95.3701 43.1128 95.1188 43.3641C94.9234 43.5456 94.7279 43.3501 94.5464 43.2803C93.1224 42.7219 91.6983 42.1355 90.2603 41.591C89.8973 41.4514 89.7018 41.3118 89.6599 40.879C89.6041 40.2367 89.269 39.7481 88.6268 39.4968C88.4453 39.427 88.3057 39.3572 88.3057 39.1059C88.3196 36.7883 88.3057 34.4707 88.3057 32.1531C88.3894 32.1391 88.4453 32.1112 88.5151 32.0833Z" fill="#221F51"/>
<path d="M95.9569 49.8144C95.6079 50.1215 94.7981 49.9819 94.2117 49.94C93.6114 49.8981 93.0529 49.6189 92.5364 48.9208C91.5451 46.9104 90.4561 44.9418 89.409 42.9593C89.2833 42.722 89.032 42.4846 89.3113 42.2194C89.5626 41.9681 89.786 42.2333 90.0093 42.3171C91.4194 42.8616 92.8156 43.434 94.2257 43.9785C94.5887 44.1181 94.7981 44.2577 94.8121 44.7045C94.826 45.2071 95.0773 45.6818 95.552 45.8912C96.0826 46.1286 96.1524 46.4357 96.1245 46.9942" fill="#221F51"/>
<path d="M78.4632 30.7988C77.4999 30.8547 77.081 30.2264 77.4999 29.3887C77.9466 28.4812 78.4213 27.5737 78.8541 26.6523C79.0077 26.3312 79.1613 26.0938 79.5661 26.1636C79.608 26.1776 79.6639 26.1636 79.7058 26.1497C80.6691 25.5074 81.3113 26.2195 81.9954 26.7081C83.3218 27.6435 84.6481 28.579 85.9605 29.5283C86.128 29.654 86.4491 29.7098 86.3374 30.017C86.2537 30.2683 86.0024 30.2264 85.8069 30.2404C83.3637 30.4219 80.9204 30.6034 78.4632 30.7988Z" fill="#221F51"/>
<path d="M73.8281 24.3348C73.8281 24.0416 74.4006 23.5808 74.7077 23.6507C75.2522 23.7763 75.7827 24.0276 76.3133 24.0416C77.486 24.0695 77.8909 24.8793 78.3237 25.7309C78.4075 25.8984 78.3098 25.9962 78.2539 26.1079C77.7373 27.1969 77.2208 28.2719 76.6902 29.3609C76.5925 29.5703 76.4529 29.668 76.2016 29.6541C75.9503 29.6261 75.8386 29.5284 75.7409 29.305C75.1265 27.6855 74.4983 26.066 73.87 24.4465C73.87 24.4185 73.8421 24.3766 73.8281 24.3348Z" fill="#221F51"/>
<path d="M76.5361 50.1076C75.0981 50.6102 73.8416 51.1268 72.6967 51.8667C72.3756 52.0762 72.2779 51.9226 72.1383 51.6573C71.6636 50.68 71.1889 49.7027 70.7002 48.7394C70.6165 48.5579 70.5327 48.4183 70.7002 48.2368C70.8678 48.0553 71.0353 48.0553 71.2587 48.139C72.976 48.7673 74.6792 49.4095 76.5361 50.1076Z" fill="#221F51"/>
<path d="M69.9323 53.6817C69.0807 53.6817 68.7456 53.2768 68.8713 52.6346C69.0807 51.4758 69.2761 50.317 69.4856 49.1442C69.5135 48.9906 69.4716 48.7952 69.695 48.7672C69.9044 48.7393 69.9603 48.9069 70.0301 49.0465C70.5327 50.0377 71.0353 51.029 71.5379 52.0203C71.6077 52.1459 71.7752 52.3274 71.6077 52.4531C71.0353 52.9417 70.4629 53.4443 69.9323 53.6817Z" fill="#221F51"/>
<path d="M68.0899 52.7184C67.1405 51.9785 66.1213 51.5178 65.0742 50.9593C66.1353 50.1356 67.1265 49.3677 68.1318 48.5859C68.2993 48.4602 68.4389 48.4044 68.6344 48.544C68.8298 48.6836 68.8159 48.8511 68.774 49.0326C68.5506 50.2333 68.3272 51.4061 68.0899 52.7184Z" fill="#221F51"/>
<path d="M44.2576 41.3955C44.2297 41.4235 44.1878 41.4933 44.1739 41.4793C44.1041 41.4374 44.118 41.3676 44.1599 41.3118C44.1878 41.3397 44.2297 41.3536 44.2576 41.3955Z" fill="#221F51"/>
<path d="M56.8649 33.2283C56.823 33.2422 56.7392 33.2841 56.7253 33.2701C56.6694 33.2143 56.7253 33.1724 56.7811 33.1584C56.823 33.1864 56.8509 33.2003 56.8649 33.2283Z" fill="#221F51"/>
<path d="M49.3252 32.7395C50.4432 32.7395 51.3496 31.8331 51.3496 30.7151C51.3496 29.597 50.4432 28.6907 49.3252 28.6907C48.2071 28.6907 47.3008 29.597 47.3008 30.7151C47.3008 31.8331 48.2071 32.7395 49.3252 32.7395Z" fill="white"/>
<path d="M69.6952 49.4793C70.9675 49.4793 71.9989 48.448 71.9989 47.1757C71.9989 45.9034 70.9675 44.8721 69.6952 44.8721C68.423 44.8721 67.3916 45.9034 67.3916 47.1757C67.3916 48.448 68.423 49.4793 69.6952 49.4793Z" fill="white"/>
<path d="M96.4599 46.6871C97.7321 46.6871 98.7635 45.6557 98.7635 44.3835C98.7635 43.1112 97.7321 42.0798 96.4599 42.0798C95.1876 42.0798 94.1562 43.1112 94.1562 44.3835C94.1562 45.6557 95.1876 46.6871 96.4599 46.6871Z" fill="white"/>
<path d="M49.4657 32.8792C50.738 32.8792 51.7694 31.8479 51.7694 30.5756C51.7694 29.3033 50.738 28.272 49.4657 28.272C48.1935 28.272 47.1621 29.3033 47.1621 30.5756C47.1621 31.8479 48.1935 32.8792 49.4657 32.8792Z" fill="white"/>
<path d="M55.4687 36.9281C56.7409 36.9281 57.7723 35.8967 57.7723 34.6244C57.7723 33.3522 56.7409 32.3208 55.4687 32.3208C54.1964 32.3208 53.165 33.3522 53.165 34.6244C53.165 35.8967 54.1964 36.9281 55.4687 36.9281Z" fill="white"/>
<path d="M87.957 43.3363C89.2292 43.3363 90.2606 42.3049 90.2606 41.0326C90.2606 39.7604 89.2292 38.729 87.957 38.729C86.6847 38.729 85.6533 39.7604 85.6533 41.0326C85.6533 42.3049 86.6847 43.3363 87.957 43.3363Z" fill="white"/>
<path d="M87.957 32.7396C89.2292 32.7396 90.2606 31.7082 90.2606 30.436C90.2606 29.1637 89.2292 28.1323 87.957 28.1323C86.6847 28.1323 85.6533 29.1637 85.6533 30.436C85.6533 31.7082 86.6847 32.7396 87.957 32.7396Z" fill="white"/>
<path d="M76.1034 33.7169C77.3757 33.7169 78.4071 32.6855 78.4071 31.4133C78.4071 30.141 77.3757 29.1096 76.1034 29.1096C74.8312 29.1096 73.7998 30.141 73.7998 31.4133C73.7998 32.6855 74.8312 33.7169 76.1034 33.7169Z" fill="white"/>
<path d="M42.9179 45.0116C44.1902 45.0116 45.2215 43.9802 45.2215 42.7079C45.2215 41.4357 44.1902 40.4043 42.9179 40.4043C41.6456 40.4043 40.6143 41.4357 40.6143 42.7079C40.6143 43.9802 41.6456 45.0116 42.9179 45.0116Z" fill="white"/>
<path d="M79.454 26.8897C80.7263 26.8897 81.7577 25.8584 81.7577 24.5861C81.7577 23.3138 80.7263 22.2825 79.454 22.2825C78.1818 22.2825 77.1504 23.3138 77.1504 24.5861C77.1504 25.8584 78.1818 26.8897 79.454 26.8897Z" fill="white"/>
<path d="M72.8925 25.2142C74.1648 25.2142 75.1961 24.1828 75.1961 22.9106C75.1961 21.6383 74.1648 20.6069 72.8925 20.6069C71.6202 20.6069 70.5889 21.6383 70.5889 22.9106C70.5889 24.1828 71.6202 25.2142 72.8925 25.2142Z" fill="white"/>
<path d="M61.5976 25.9124C62.8698 25.9124 63.9012 24.8811 63.9012 23.6088C63.9012 22.3365 62.8698 21.3052 61.5976 21.3052C60.3253 21.3052 59.2939 22.3365 59.2939 23.6088C59.2939 24.8811 60.3253 25.9124 61.5976 25.9124Z" fill="white"/>
<path d="M69.3467 121.799C62.2543 121.799 55.3713 120.417 48.8932 117.681C42.6385 115.042 37.0121 111.273 32.1954 106.456C27.3647 101.639 23.5812 96.0406 20.9285 89.8138C18.192 83.3496 16.7959 76.4946 16.7959 69.4301C16.7959 62.3656 18.192 55.4966 20.9285 49.0464C23.5812 42.8057 27.3647 37.2071 32.1954 32.4044C37.026 27.5877 42.6385 23.8181 48.8932 21.1794C55.3713 18.443 62.2543 17.0608 69.3467 17.0608C76.4391 17.0608 83.3221 18.443 89.8002 21.1794C96.0549 23.8181 101.681 27.5877 106.498 32.4044C111.329 37.2211 115.112 42.8196 117.765 49.0464C120.501 55.5106 121.898 62.3656 121.898 69.4301C121.898 76.4946 120.501 83.3636 117.765 89.8138C115.112 96.0546 111.329 101.653 106.498 106.456C101.667 111.273 96.0549 115.042 89.8002 117.681C83.3221 120.403 76.4391 121.799 69.3467 121.799ZM69.3467 17.7309C40.7537 17.7309 17.494 40.9209 17.494 69.4161C17.494 97.9114 40.7537 121.101 69.3467 121.101C97.9397 121.101 121.199 97.9114 121.199 69.4161C121.186 40.9209 97.9258 17.7309 69.3467 17.7309Z" fill="white"/>
<path d="M69.4162 139C60.0481 139 50.9592 137.157 42.4009 133.541C34.1357 130.037 26.7082 125.025 20.3418 118.644C13.9614 112.264 8.96324 104.822 5.45892 96.5573C1.84291 87.9849 0 78.8821 0 69.5C0 60.1179 1.82895 51.0151 5.45892 42.4427C8.94928 34.1636 13.9614 26.7361 20.3418 20.3558C26.7222 13.9754 34.1357 8.96324 42.4009 5.45892C50.9592 1.82895 60.0481 0 69.4162 0C78.7843 0 87.8732 1.84291 96.4316 5.45892C104.697 8.96324 112.124 13.9754 118.491 20.3558C124.871 26.7361 129.869 34.1776 133.374 42.4427C136.99 51.0151 138.832 60.1179 138.832 69.5C138.832 78.8821 137.004 87.9849 133.374 96.5573C129.883 104.836 124.871 112.264 118.491 118.644C112.11 125.025 104.697 130.037 96.4316 133.541C87.8732 137.157 78.7843 139 69.4162 139ZM69.4162 0.907493C31.6506 0.907493 0.921455 31.6785 0.921455 69.486C0.921455 107.308 31.6506 138.065 69.4162 138.065C107.182 138.065 137.911 107.294 137.911 69.486C137.911 31.6645 107.182 0.907493 69.4162 0.907493Z" fill="white"/>
</g>
</g>
<defs>
<filter id="filter0_d_1_20047" x="-17" y="-15" width="172.832" height="173" filterUnits="userSpaceOnUse" color-interpolation-filters="sRGB">
<feFlood flood-opacity="0" result="BackgroundImageFix"/>
<feColorMatrix in="SourceAlpha" type="matrix" values="0 0 0 0 0 0 0 0 0 0 0 0 0 0 0 0 0 0 127 0" result="hardAlpha"/>
<feOffset dy="2"/>
<feGaussianBlur stdDeviation="8.5"/>
<feComposite in2="hardAlpha" operator="out"/>
<feColorMatrix type="matrix" values="0 0 0 0 0 0 0 0 0 0 0 0 0 0 0 0 0 0 0.54 0"/>
<feBlend mode="normal" in2="BackgroundImageFix" result="effect1_dropShadow_1_20047"/>
<feBlend mode="normal" in="SourceGraphic" in2="effect1_dropShadow_1_20047" result="shape"/>
</filter>
<clipPath id="clip0_1_20047">
<rect width="138.832" height="139" fill="white"/>
</clipPath>
</defs>
</svg>
