<svg width="78" height="72" viewBox="0 0 78 72" fill="none" xmlns="http://www.w3.org/2000/svg">
<path d="M38.9728 35.6716V35.7111M23.4293 35.6716V35.7111M54.5162 35.6716V35.7111M4 67.26L9.05163 51.8607C4.68564 45.2993 3.10623 37.5291 4.60704 29.9948C6.10786 22.4605 10.5868 15.6749 17.211 10.8995C23.8353 6.12413 32.1541 3.68401 40.6207 4.03283C49.0874 4.38166 57.1257 7.49569 63.2411 12.7959C69.3565 18.0962 73.1329 25.2219 73.8681 32.8483C74.6033 40.4747 72.2473 48.0828 67.2381 54.2579C62.2289 60.4331 54.9074 64.7551 46.6349 66.4204C38.3624 68.0856 29.7019 66.9809 22.2636 63.3114L4 67.26Z" stroke="white" stroke-width="8" stroke-linecap="round" stroke-linejoin="round"/>
</svg>
