<svg width="48" height="48" viewBox="0 0 48 48" fill="none" xmlns="http://www.w3.org/2000/svg">
<g filter="url(#filter0_d_1_22488)">
<path d="M29.5989 21.9801C29.5989 23.4703 29.0069 24.8995 27.9532 25.9532C26.8995 27.0069 25.4703 27.5989 23.9801 27.5989C22.4899 27.5989 21.0607 27.0069 20.007 25.9532C18.9533 24.8995 18.3613 23.4703 18.3613 21.9801C18.3613 21.6598 18.395 21.3471 18.4531 21.0436H16.4884V28.5297C16.4884 29.0504 16.9098 29.4718 17.4305 29.4718H30.5316C30.7811 29.4713 31.0203 29.3718 31.1965 29.1952C31.3728 29.0186 31.4718 28.7793 31.4718 28.5297V21.0436H29.5071C29.5652 21.3471 29.5989 21.6598 29.5989 21.9801V21.9801ZM23.9801 25.726C24.4721 25.7258 24.9593 25.6288 25.4139 25.4404C25.8684 25.252 26.2814 24.9759 26.6292 24.6279C26.977 24.2799 27.2529 23.8668 27.4411 23.4121C27.6293 22.9575 27.7261 22.4703 27.726 21.9782C27.7258 21.4862 27.6288 20.999 27.4404 20.5445C27.252 20.0899 26.9759 19.677 26.6279 19.3291C26.2799 18.9813 25.8668 18.7054 25.4121 18.5172C24.9575 18.329 24.4703 18.2323 23.9782 18.2324C22.9845 18.2326 22.0316 18.6276 21.3291 19.3304C20.6266 20.0333 20.2321 20.9864 20.2324 21.9801C20.2326 22.9738 20.6276 23.9267 21.3304 24.6292C22.0333 25.3317 22.9864 25.7262 23.9801 25.726V25.726ZM28.4751 18.047H30.7208C30.87 18.047 31.0131 17.9878 31.1187 17.8825C31.2244 17.7772 31.284 17.6343 31.2845 17.4851V15.2394C31.2845 15.0899 31.2251 14.9465 31.1194 14.8408C31.0137 14.7351 30.8703 14.6757 30.7208 14.6757H28.4751C28.3256 14.6757 28.1822 14.7351 28.0765 14.8408C27.9708 14.9465 27.9114 15.0899 27.9114 15.2394V17.4851C27.9133 17.7941 28.1661 18.047 28.4751 18.047V18.047ZM23.9801 4C19.2115 4 14.6382 5.89433 11.2662 9.26625C7.89433 12.6382 6 17.2115 6 21.9801C6 26.7487 7.89433 31.322 11.2662 34.694C14.6382 38.0659 19.2115 39.9602 23.9801 39.9602C26.3413 39.9602 28.6793 39.4951 30.8608 38.5916C33.0422 37.688 35.0243 36.3636 36.694 34.694C38.3636 33.0243 39.688 31.0422 40.5916 28.8608C41.4951 26.6793 41.9602 24.3413 41.9602 21.9801C41.9602 19.6189 41.4951 17.2809 40.5916 15.0994C39.688 12.918 38.3636 10.9359 36.694 9.26625C35.0243 7.59664 33.0422 6.27224 30.8608 5.36865C28.6793 4.46507 26.3413 4 23.9801 4V4ZM33.3447 29.2639C33.3447 30.4083 32.4083 31.3447 31.2639 31.3447H16.6963C15.5519 31.3447 14.6155 30.4083 14.6155 29.2639V14.6963C14.6155 13.5519 15.5519 12.6155 16.6963 12.6155H31.2639C32.4083 12.6155 33.3447 13.5519 33.3447 14.6963V29.2639V29.2639Z" fill="white"/>
</g>
<defs>
<filter id="filter0_d_1_22488" x="0" y="0" width="47.96" height="47.9604" filterUnits="userSpaceOnUse" color-interpolation-filters="sRGB">
<feFlood flood-opacity="0" result="BackgroundImageFix"/>
<feColorMatrix in="SourceAlpha" type="matrix" values="0 0 0 0 0 0 0 0 0 0 0 0 0 0 0 0 0 0 127 0" result="hardAlpha"/>
<feOffset dy="2"/>
<feGaussianBlur stdDeviation="3"/>
<feComposite in2="hardAlpha" operator="out"/>
<feColorMatrix type="matrix" values="0 0 0 0 0 0 0 0 0 0 0 0 0 0 0 0 0 0 0.54 0"/>
<feBlend mode="normal" in2="BackgroundImageFix" result="effect1_dropShadow_1_22488"/>
<feBlend mode="normal" in="SourceGraphic" in2="effect1_dropShadow_1_22488" result="shape"/>
</filter>
</defs>
</svg>
