<svg width="48" height="49" viewBox="0 0 48 49" fill="none" xmlns="http://www.w3.org/2000/svg">
<g filter="url(#filter0_d_1_22503)">
<path d="M23.9801 4.69336C19.2126 4.69336 14.6361 6.58886 11.2676 9.95956C7.89567 13.3316 6.00093 17.9047 6 22.6735C6 27.4402 7.89634 32.0167 11.2676 35.3874C14.6361 38.7581 19.2126 40.6536 23.9801 40.6536C28.7476 40.6536 33.3241 38.7581 36.6926 35.3874C40.0639 32.0167 41.9602 27.4402 41.9602 22.6735C41.9602 17.9068 40.0639 13.3303 36.6926 9.95956C33.3241 6.58886 28.7476 4.69336 23.9801 4.69336Z" fill="white"/>
</g>
<path fill-rule="evenodd" clip-rule="evenodd" d="M23.2527 32.0004L23.5521 31.5923L23.2527 32.0004ZM23.8515 32.0004L23.8536 31.9994L23.8588 31.9959L23.8744 31.9844L23.9357 31.942C23.9877 31.905 24.0636 31.8511 24.1592 31.7801C24.3505 31.6393 24.6219 31.432 24.9457 31.1658C25.7959 30.4676 26.5908 29.7097 27.324 28.8983C29.0436 26.9873 30.8297 24.2598 30.8297 21.1417C30.8297 19.2787 30.0635 17.4907 28.6995 16.1721C28.0253 15.5195 27.2234 15.0015 26.34 14.6478C25.4566 14.2941 24.5091 14.1118 23.5521 14.1113C22.5951 14.1117 21.6476 14.294 20.7642 14.6476C19.8808 15.0011 19.0789 15.5191 18.4047 16.1716C17.0393 17.4932 16.2735 19.2801 16.2744 21.1422C16.2744 24.2598 18.0606 26.9873 19.7802 28.8983C20.5133 29.7097 21.3083 30.4676 22.1584 31.1658C22.4828 31.432 22.7536 31.6393 22.9449 31.7801C23.0387 31.8496 23.1335 31.9179 23.2293 31.9849L23.2459 31.9959L23.2506 31.9994L23.2527 32.0004C23.432 32.1218 23.6722 32.1218 23.8515 32.0004V32.0004ZM23.5521 31.5923L23.8515 32.0004L23.5521 31.5923ZM26.1512 21.1037C26.1512 21.7661 25.8774 22.4013 25.39 22.8696C24.9025 23.3379 24.2414 23.601 23.5521 23.601C22.8627 23.601 22.2016 23.3379 21.7142 22.8696C21.2268 22.4013 20.9529 21.7661 20.9529 21.1037C20.9529 20.4414 21.2268 19.8062 21.7142 19.3379C22.2016 18.8696 22.8627 18.6064 23.5521 18.6064C24.2414 18.6064 24.9025 18.8696 25.39 19.3379C25.8774 19.8062 26.1512 20.4414 26.1512 21.1037V21.1037Z" fill="#221F51"/>
<defs>
<filter id="filter0_d_1_22503" x="0" y="0.693359" width="47.96" height="47.96" filterUnits="userSpaceOnUse" color-interpolation-filters="sRGB">
<feFlood flood-opacity="0" result="BackgroundImageFix"/>
<feColorMatrix in="SourceAlpha" type="matrix" values="0 0 0 0 0 0 0 0 0 0 0 0 0 0 0 0 0 0 127 0" result="hardAlpha"/>
<feOffset dy="2"/>
<feGaussianBlur stdDeviation="3"/>
<feComposite in2="hardAlpha" operator="out"/>
<feColorMatrix type="matrix" values="0 0 0 0 0 0 0 0 0 0 0 0 0 0 0 0 0 0 0.54 0"/>
<feBlend mode="normal" in2="BackgroundImageFix" result="effect1_dropShadow_1_22503"/>
<feBlend mode="normal" in="SourceGraphic" in2="effect1_dropShadow_1_22503" result="shape"/>
</filter>
</defs>
</svg>
