<svg width="129" height="129" viewBox="0 0 129 129" fill="none" xmlns="http://www.w3.org/2000/svg">
<g filter="url(#filter0_d_0_12)">
<path d="M64.3257 128.496C99.5872 128.496 128.172 99.8532 128.172 64.5201C128.172 29.187 99.5872 0.543945 64.3257 0.543945C29.0641 0.543945 0.479004 29.187 0.479004 64.5201C0.479004 99.8532 29.0641 128.496 64.3257 128.496Z" fill="#221F51"/>
<path d="M64.2998 127.395C29.5014 127.383 1.3208 99.189 1.3208 64.3906C1.3208 29.6052 29.5402 1.38574 64.3386 1.39869C99.1499 1.41164 127.343 29.657 127.318 64.4813C127.292 99.2408 99.0722 127.408 64.2998 127.395ZM25.3313 97.3759C25.0464 98.2695 24.7615 99.1372 24.4765 100.018C24.1916 100.911 23.8808 101.805 23.6089 102.712C23.5052 103.074 23.2851 103.048 23.0261 103.022C22.1454 102.919 21.2648 102.815 20.3841 102.725C18.9984 102.569 17.6257 102.427 16.2399 102.271C16.214 102.336 16.1881 102.414 16.1622 102.478C29.3201 118.123 46.0135 126.308 66.592 125.595C85.8626 124.922 101.287 116.387 113.188 101.339C110.78 101.52 108.397 101.753 106.04 102.064C105.483 102.142 105.327 101.896 105.198 101.468C104.719 99.9401 104.227 98.4119 103.722 96.8579C93.3869 108.76 80.4622 115.248 64.6624 115.364C48.8756 115.468 35.8472 109.174 25.3313 97.3759ZM15.0614 64.3388C14.9319 91.3538 36.9221 113.577 64.1055 113.694C91.3407 113.81 113.603 91.8071 113.629 64.4683C113.668 37.2072 91.5997 15.1264 64.3516 15.1134C36.9998 15.0875 14.9837 37.3626 15.0614 64.3388ZM30.2914 24.153C30.3302 24.5803 30.2266 25.0077 30.6929 25.202C31.1461 25.3962 31.4699 25.1372 31.7937 24.8653C32.0656 24.6321 32.3505 24.399 32.6354 24.1659C32.8815 23.9717 32.765 23.8163 32.6354 23.622C32.4671 23.3759 32.3246 23.4925 32.1692 23.622C31.9361 23.8163 31.716 24.0235 31.4699 24.1918C31.1202 24.412 30.9519 24.2825 30.9519 23.881C30.9519 23.6738 31.0296 23.5184 31.1461 23.35C31.8196 22.3787 31.9232 21.3427 31.5087 20.2289C31.0037 18.8432 29.4755 17.9496 27.9862 18.2216C26.6134 18.4676 25.6421 19.7238 25.6292 21.2002C25.6551 23.0392 27.494 25.3056 30.2914 24.153ZM79.9053 8.81941C79.996 9.07842 80.0737 9.23383 80.0996 9.38923C80.4104 10.8786 80.773 12.3679 80.9802 13.8702C81.0967 14.6861 81.5112 14.9969 82.2234 15.1393C82.5084 15.2041 82.612 15.1264 82.6897 14.8803C83.2466 13.1967 83.8034 11.5131 84.3603 9.82956C84.4639 9.51874 84.4639 9.27268 84.0365 9.16907C83.6351 9.06547 83.4926 9.14317 83.4408 9.55759C83.4149 9.80365 83.2854 10.0368 83.2077 10.2828C82.8062 11.5131 82.4048 12.7305 82.0033 13.9738C81.7961 13.8443 81.822 13.6889 81.7961 13.5464C81.4723 11.9923 81.0967 10.4382 80.8377 8.87121C80.7212 8.18482 80.3845 7.93877 79.8017 7.78336C79.465 7.6927 79.2837 7.6668 79.1542 8.09417C78.6491 9.77775 78.0922 11.4484 77.5224 13.1061C77.3929 13.4946 77.4706 13.6111 77.8332 13.7277C78.2088 13.8443 78.3124 13.7277 78.416 13.391C78.8951 11.8758 79.3873 10.3994 79.9053 8.81941ZM5.24484 59.6507C5.08944 60.2464 5.28369 60.4795 5.93123 60.5313C7.53711 60.6608 9.15594 60.8551 10.7489 61.0623C11.1374 61.1141 11.3187 61.1012 11.3964 60.6349C11.4741 60.104 11.1892 60.1299 10.8525 60.104C10.3603 60.0651 9.86823 60.0003 9.3761 59.9356C9.24659 59.9226 9.10414 59.9097 9.01348 59.832C8.81923 59.6636 9.18184 58.2779 9.44085 58.1743C10.1143 57.9023 10.8007 57.6304 11.4871 57.3714C11.9792 57.1901 11.8885 56.7368 11.8108 56.4389C11.6943 56.0245 11.3834 56.4001 11.2021 56.4519C10.6712 56.6332 10.1402 56.8274 9.64806 57.0735C9.25954 57.2678 9.11709 57.1383 8.98758 56.7886C8.70267 56.0633 8.14579 55.7137 7.39465 55.7007C6.63057 55.6878 6.08664 56.0633 5.77582 56.7627C5.3355 57.6951 5.40025 58.7053 5.24484 59.6507ZM47.0495 11.7981C47.969 10.8786 48.1244 10.1663 47.5934 9.29858C47.1402 8.54744 46.2077 8.31433 45.1069 8.664C44.3687 8.89711 43.6435 9.15612 42.9053 9.41514C42.7369 9.47989 42.5297 9.50579 42.6333 9.80366C43.242 11.539 43.8507 13.2744 44.4205 15.0098C44.55 15.4113 44.7702 15.2559 45.0163 15.2041C45.3141 15.1264 45.3789 14.958 45.2753 14.6861C45.081 14.1421 44.8997 13.5982 44.7184 13.0543C44.6795 12.9377 44.55 12.7823 44.6925 12.7176C45.1199 12.5233 45.5731 12.3679 46.0264 12.2384C46.2984 12.1607 46.4279 12.4585 46.5833 12.601C47.0495 13.0154 47.4898 13.4557 47.9302 13.8961C48.2928 14.2587 48.6813 14.0256 48.9144 13.8184C49.1734 13.5852 48.759 13.4428 48.6295 13.3133C48.1374 12.7823 47.5805 12.2902 47.0495 11.7981ZM55.4415 12.4585C57.1251 12.4844 58.4331 11.1764 58.472 9.42808C58.5108 7.62795 57.2028 6.16453 55.5322 6.13863C53.8615 6.11272 52.5276 7.29123 52.4629 9.19497C52.3981 10.9563 53.8098 12.4326 55.4415 12.4585ZM103.139 21.9384C103.268 22.0679 103.385 22.1586 103.488 22.2622C104.084 22.845 104.68 23.4407 105.276 24.0364C105.535 24.2954 105.742 24.2177 105.988 23.9717C106.26 23.6997 106.066 23.5702 105.884 23.4018C105.042 22.5989 104.214 21.7959 103.385 20.9801C103.139 20.734 102.932 20.6951 102.685 20.9542C101.442 22.2622 100.186 23.5702 98.9298 24.8653C98.7096 25.0854 98.7744 25.189 98.9686 25.3703C99.8622 26.2121 100.743 27.0669 101.611 27.9346C101.895 28.2065 102.064 28.1159 102.297 27.8827C102.569 27.6237 102.401 27.4942 102.219 27.3129C101.818 26.9244 101.416 26.5229 101.015 26.1344C99.9658 25.1243 99.9788 25.1243 101.028 24.0753C101.287 23.8292 101.416 23.8422 101.649 24.0882C102.18 24.6321 102.737 25.1243 103.268 25.6552C103.553 25.9402 103.696 25.7459 103.903 25.5646C104.136 25.3574 104.058 25.2279 103.877 25.0466C103.475 24.6839 103.1 24.2954 102.711 23.9328C101.883 23.1428 101.883 23.1558 102.711 22.3269C102.841 22.1974 102.983 22.0809 103.139 21.9384ZM116.219 62.7588C116.232 62.7588 116.232 62.7588 116.245 62.7588C116.245 63.3805 116.258 64.015 116.245 64.6367C116.232 64.9475 116.348 65.0511 116.659 65.0511C116.957 65.0381 117.164 64.9993 117.125 64.6237C117.074 64.0668 117.035 63.51 117.035 62.9401C117.035 61.127 116.607 61.5933 118.472 61.4379C118.874 61.399 118.939 61.5803 118.939 61.917C118.951 62.6034 118.99 63.2898 119.029 63.9891C119.042 64.2482 118.964 64.546 119.431 64.5331C119.936 64.5201 119.845 64.2093 119.832 63.9244C119.819 63.51 119.819 63.1085 119.78 62.6941C119.69 61.3731 119.69 61.3861 121.049 61.3731C121.425 61.3731 121.529 61.4897 121.529 61.8393C121.529 62.6811 121.58 63.5229 121.58 64.3647C121.58 64.7403 121.71 64.8309 122.073 64.8309C122.474 64.8309 122.461 64.6108 122.448 64.3388C122.396 63.1732 122.345 62.0077 122.319 60.8551C122.306 60.4795 122.202 60.3759 121.827 60.4018C120.078 60.4666 118.33 60.5313 116.594 60.5572C116.18 60.5702 116.076 60.7385 116.115 61.1141C116.154 61.6451 116.18 62.202 116.219 62.7588ZM7.57596 79.8666C9.24659 79.4781 11.0856 79.0378 12.9375 78.5975C13.1059 78.5586 13.1318 78.4421 13.0929 78.3126C12.7951 77.0434 12.4972 75.7742 12.1864 74.5051C12.1087 74.1943 11.8885 74.2849 11.6684 74.3108C11.3964 74.3497 11.3057 74.4403 11.3835 74.7382C11.5389 75.321 11.6813 75.9037 11.8108 76.4865C12.1087 77.8463 12.0957 77.8204 10.7618 78.1701C10.2697 78.2996 10.1272 78.1442 10.0495 77.6909C9.92003 76.9786 9.72576 76.2793 9.55741 75.567C9.46675 75.2044 9.20774 75.3469 8.98758 75.3728C8.70267 75.4116 8.74152 75.5411 8.80627 75.7742C8.94873 76.3052 9.06529 76.8621 9.14299 77.406C9.19479 77.7557 9.55741 78.1701 9.33725 78.4032C9.10414 78.6363 8.61201 78.5975 8.24939 78.7399C7.75727 78.9342 7.61481 78.7011 7.53711 78.2737C7.36875 77.4578 7.16154 76.6419 6.99318 75.826C6.91548 75.4764 6.72122 75.5282 6.46221 75.58C6.21614 75.6318 6.08664 75.6706 6.16434 75.9944C6.46221 77.1729 6.73417 78.3773 7.01908 79.5688C7.08384 79.7889 7.13564 79.9573 7.57596 79.8666ZM108.695 32.5579C109.86 33.1407 110.572 33.076 111.207 32.3507C111.79 31.6902 111.725 30.7189 111.039 29.7476C110.611 29.1519 110.158 28.5821 109.744 27.9864C109.562 27.7273 109.433 27.7144 109.187 27.8957C107.775 28.9577 106.35 30.0067 104.926 31.0298C104.628 31.2499 104.693 31.3665 104.861 31.6384C105.068 31.9752 105.25 31.8715 105.47 31.7032C106.001 31.3017 106.532 30.9003 107.102 30.4858C107.296 30.7319 107.451 30.978 107.659 31.1981C108.073 31.6125 108.164 32.027 107.827 32.545C107.568 32.9335 107.425 33.3997 107.166 33.8012C106.817 34.3322 106.985 34.6948 107.464 35.0574C107.956 34.2674 108.293 33.3997 108.695 32.5579ZM71.0211 12.342C72.2515 12.342 73.2098 11.5261 73.3911 10.3087C73.5465 9.20793 73.676 8.09417 73.8573 6.99337C73.935 6.55304 73.8314 6.39764 73.3911 6.33289C72.9119 6.26813 72.9119 6.54009 72.8731 6.86386C72.7306 7.92581 72.6011 9.00072 72.4328 10.0627C72.2774 11.0599 71.6687 11.552 70.7621 11.4743C69.7908 11.3836 69.2728 10.8009 69.3635 9.76481C69.4671 8.6381 69.6225 7.49844 69.8038 6.38468C69.8685 6.02207 69.8426 5.87961 69.4541 5.82781C69.0915 5.78896 68.8584 5.76305 68.8195 6.25518C68.7289 7.27828 68.5864 8.31433 68.4181 9.32448C68.1461 11.0987 69.2081 12.3549 71.0211 12.342ZM14.2455 33.076C13.9477 33.1407 13.857 33.5422 13.6239 33.8141C13.3778 34.0991 13.5333 34.2545 13.6887 34.4617C14.8154 35.8992 15.9291 37.3497 17.0688 38.7872C17.2112 38.9685 17.3278 39.37 17.5998 39.1239C17.807 38.9297 18.2214 38.5929 17.7552 38.2044C16.9522 37.5569 17.0299 36.8705 17.6645 36.1582C17.7293 36.0805 17.7811 35.9769 17.8329 35.8863C18.4545 34.8761 18.4545 34.8761 19.646 35.0963C19.7366 35.1092 19.8143 35.1481 19.905 35.1351C20.2805 35.0963 20.3194 34.7336 20.4489 34.4876C20.5396 34.3063 20.2935 34.2674 20.164 34.2415C18.2214 33.866 16.3047 33.4904 14.2455 33.076ZM12.3677 44.1617C12.6397 44.1099 12.7821 44.084 12.9375 44.0581C13.7016 43.9286 14.4657 43.812 15.2298 43.6825C15.7478 43.5919 15.7737 43.0998 15.7608 42.7889C15.7478 42.4911 15.3593 42.7242 15.165 42.7501C14.3362 42.8926 13.5074 43.048 12.6915 43.2422C12.3418 43.3199 12.1475 43.2552 11.9533 42.9444C11.4611 42.2062 10.9431 41.5068 10.4122 40.7945C10.3344 40.6909 10.2179 40.3801 10.0625 40.6391C9.86822 40.9629 9.57036 41.2996 9.95888 41.7399C10.4251 42.2709 10.8007 42.8796 11.2539 43.4235C11.5389 43.7732 11.4482 43.8638 11.0467 43.9157C10.3215 44.0193 9.60921 44.1747 8.88398 44.2783C8.36595 44.356 8.24939 44.7963 8.31415 45.146C8.3789 45.5215 8.75447 45.2237 8.96168 45.1978C9.69987 45.0812 10.451 44.9388 11.1762 44.7574C11.5907 44.6538 11.7979 44.7704 12.018 45.0942C12.5231 45.8453 13.0541 46.5705 13.5721 47.3087C13.6628 47.4382 13.857 47.6972 13.9347 47.5159C14.0642 47.1922 14.5046 46.8943 14.116 46.4281C13.5203 45.7287 12.9893 44.9776 12.3677 44.1617ZM10.5935 67.8614C10.2567 68.0039 10.1013 68.0686 9.94592 68.1334C8.5084 68.7161 7.08383 69.3248 5.63336 69.8817C5.08944 70.0889 5.27075 70.4904 5.3614 70.7882C5.47796 71.1768 5.76287 70.8659 5.94418 70.7882C7.60186 70.1148 9.2466 69.4025 10.8913 68.7291C11.2539 68.5737 11.4611 68.4183 11.3705 67.9779C11.2798 67.5765 11.4741 67.1102 10.8007 66.9419C9.06529 66.5145 7.3558 65.9965 5.63336 65.5173C5.45205 65.4655 5.21894 65.2454 5.05058 65.5044C4.90813 65.7116 5.01173 65.9706 5.05058 66.2037C5.10239 66.4886 5.3873 66.4498 5.56861 66.5016C7.18744 66.9548 8.80627 67.3822 10.5935 67.8614ZM110.249 39.5772C110.313 40.4319 110.663 41.209 111.388 41.8047C112.01 42.3098 112.774 42.3486 113.434 41.9212C114.069 41.5198 114.25 40.9888 114.043 40.1341C113.901 39.5124 113.745 38.8778 113.616 38.2562C113.551 37.9454 113.616 37.6605 113.914 37.4662C114.212 37.272 114.522 37.259 114.82 37.4403C115.623 37.8936 115.934 39.1239 115.364 39.8103C115.04 40.1988 115.403 40.3931 115.52 40.5614C115.662 40.7686 115.83 40.4708 115.947 40.3542C116.18 40.1211 116.322 39.8362 116.361 39.4995C116.491 38.5152 116.089 37.7252 115.442 37.0518C114.885 36.469 114.173 36.3525 113.564 36.6892C112.942 37.0259 112.709 37.5698 112.878 38.3987C112.994 38.9426 113.15 39.4865 113.305 40.0175C113.46 40.5485 113.37 41.0147 112.852 41.2867C112.308 41.5716 111.816 41.3903 111.479 40.937C110.935 40.2247 110.624 39.3829 111.324 38.6577C111.621 38.3598 111.375 38.1138 111.207 37.9325C110.948 37.6475 110.844 38.0231 110.728 38.1397C110.378 38.5152 110.262 38.9944 110.249 39.5772ZM93.7884 20.2289C93.7884 20.0735 93.7754 20.0088 93.7884 19.957C94.2416 18.3381 94.6561 16.7193 95.1482 15.1264C95.3295 14.5565 94.8762 14.4788 94.6172 14.3623C94.2676 14.2069 94.3323 14.6342 94.2675 14.8156C93.9826 15.761 93.7236 16.7063 93.4646 17.6517C93.2445 18.4547 93.0372 19.2706 92.8041 20.0735C92.6228 20.7081 93.1926 20.7858 93.4905 21.0707C93.7884 21.3427 93.9956 21.2002 94.2546 21.006C95.7051 19.9181 97.1685 18.8562 98.606 17.7683C98.7485 17.6647 99.1888 17.587 98.9039 17.3021C98.6967 17.0949 98.4377 16.6675 97.9844 17.0431C97.4405 17.4963 96.8577 17.9108 96.2879 18.3381C95.472 18.9598 94.669 19.5684 93.7884 20.2289ZM40.7037 16.9265C39.2532 15.6832 37.7898 14.44 36.3652 13.1708C36.0156 12.86 35.7825 12.7564 35.3292 13.0154C34.8889 13.2615 34.7982 13.5334 34.8759 13.9867C35.1867 15.8646 35.4846 17.7424 35.8084 19.6591C36.0803 19.4648 36.5854 19.5684 36.4947 18.9986C36.2875 17.6906 36.2875 17.6906 37.4142 17.0819C37.5826 16.9913 37.7639 16.9136 37.9193 16.7841C38.515 16.3049 39.0331 16.279 39.5381 16.9265C39.8749 17.4316 40.2893 17.4316 40.7037 16.9265ZM116.206 70.8141C115.882 70.6846 115.779 70.8918 115.714 71.2674C115.636 71.6948 115.843 71.7595 116.193 71.7984C117.631 71.9797 119.055 72.1999 120.493 72.3682C120.894 72.42 120.998 72.5366 120.894 72.9251C120.803 73.3007 120.803 73.6892 120.739 74.0777C120.7 74.3756 120.855 74.4403 121.101 74.4662C121.36 74.4921 121.555 74.5051 121.606 74.1554C121.788 72.7956 121.969 71.4228 122.163 70.063C122.202 69.7651 122.176 69.5838 121.801 69.545C121.425 69.5061 121.296 69.6227 121.27 69.9853C121.244 70.322 121.14 70.6717 121.14 71.0084C121.14 71.4617 120.946 71.4617 120.583 71.4099C119.159 71.1897 117.721 71.0084 116.206 70.8141ZM115.183 53.9912C115.144 54.4445 115.325 54.587 115.804 54.4704C116.866 54.2244 117.954 54.0301 119.029 53.8099C120.493 53.5121 120.493 53.5121 120.803 54.9625C120.868 55.2345 120.868 55.4935 121.321 55.4029C121.762 55.3122 121.671 55.0532 121.619 54.7942C121.373 53.5121 121.114 52.23 120.868 50.9349C120.816 50.637 120.713 50.4816 120.363 50.5593C120.026 50.6241 119.936 50.7924 120.026 51.0903C120.104 51.3752 120.169 51.6731 120.247 51.958C120.376 52.4372 120.247 52.6573 119.703 52.748C118.343 52.9681 116.996 53.266 115.649 53.538C115.39 53.5898 115.066 53.5768 115.183 53.9912ZM19.0891 26.5747C18.8171 26.6654 18.7135 26.8985 18.5581 27.0669C18.4156 27.2223 18.5322 27.3777 18.6747 27.5072C20.0474 28.7116 21.4072 29.929 22.7671 31.1334C22.9354 31.2758 23.0779 31.3535 23.2462 31.1463C24.0103 30.2527 24.7874 29.3591 25.5644 28.4655C25.8364 28.1547 25.5774 28.0252 25.409 27.8439C25.2018 27.6108 25.0723 27.7144 24.9169 27.9087C24.4247 28.5044 23.8808 29.0613 23.4016 29.6699C23.1297 30.0067 22.9613 30.0067 22.6505 29.7217C21.6145 28.7634 20.5396 27.8309 19.4776 26.8985C19.3481 26.769 19.2186 26.6654 19.0891 26.5747ZM120 80.1904C120.415 80.294 120.259 79.8148 120.389 79.6076C120.596 79.2709 120.298 79.2709 120.104 79.2191C119.029 78.9212 117.941 78.6363 116.866 78.3385C116.18 78.1571 115.494 77.9758 114.82 77.7686C114.367 77.6391 114.393 78.0276 114.302 78.2478C114.199 78.468 114.25 78.6493 114.535 78.727C116.335 79.1802 118.11 79.6724 120 80.1904ZM90.214 11.9794C90.1233 11.7333 89.8514 11.7204 89.6571 11.6038C89.424 11.4613 89.2945 11.6167 89.2038 11.811C88.4139 13.4298 87.6368 15.0487 86.8209 16.6416C86.6267 17.0172 86.795 17.1078 87.054 17.2632C87.3778 17.4445 87.5462 17.3798 87.7016 17.056C88.4657 15.476 89.2427 13.909 90.0197 12.342C90.0845 12.2254 90.1492 12.1089 90.214 11.9794ZM113.642 47.6972C113.719 47.6713 113.771 47.6454 113.836 47.6325C115.545 47.0497 117.255 46.454 118.977 45.8712C119.353 45.7417 119.198 45.5604 119.12 45.3402C119.042 45.1071 119.042 44.874 118.667 45.0035C116.944 45.6122 115.209 46.2079 113.473 46.8036C113.279 46.8684 113.137 46.972 113.279 47.1663C113.409 47.3346 113.318 47.6713 113.642 47.6972Z" fill="white"/>
<path d="M64.3258 126.735C55.9079 126.735 47.749 125.09 40.0563 121.827C32.6356 118.693 25.966 114.186 20.2419 108.462C14.5177 102.737 10.0238 96.0678 6.8768 88.6471C3.62619 80.9544 1.96851 72.7955 1.96851 64.3776C1.96851 55.9597 3.61324 47.8008 6.8768 40.1081C10.0238 32.6874 14.5177 26.0178 20.2419 20.2936C25.966 14.5694 32.6356 10.0756 40.0563 6.92855C47.749 3.67794 55.9079 2.02026 64.3258 2.02026C72.7438 2.02026 80.9027 3.66499 88.5953 6.92855C96.0161 10.0756 102.686 14.5694 108.41 20.2936C114.134 26.0178 118.628 32.6874 121.775 40.1081C125.025 47.8008 126.683 55.9597 126.683 64.3776C126.683 72.7955 125.038 80.9544 121.775 88.6471C118.628 96.0678 114.134 102.737 108.41 108.462C102.686 114.186 96.0161 118.68 88.5953 121.827C80.9027 125.09 72.7308 126.735 64.3258 126.735ZM64.3258 14.9839C37.0777 14.9839 14.9062 37.1553 14.9062 64.4035C14.9062 91.6516 37.0777 113.823 64.3258 113.823C91.574 113.823 113.745 91.6516 113.745 64.4035C113.733 37.1424 91.574 14.9839 64.3258 14.9839Z" fill="white"/>
<path d="M25.4349 97.2593C35.9508 109.044 48.9792 115.351 64.779 115.235C80.5917 115.118 93.5164 108.63 103.838 96.7283C104.33 98.2823 104.835 99.8105 105.314 101.339C105.444 101.766 105.599 102.012 106.156 101.934C108.526 101.637 110.896 101.391 113.305 101.209C101.403 116.258 85.9662 124.792 66.7086 125.466C46.13 126.191 29.4108 118.006 16.2788 102.349C16.3047 102.284 16.3306 102.206 16.3565 102.142C17.7422 102.297 19.115 102.44 20.5007 102.595C21.3814 102.699 22.262 102.789 23.1426 102.893C23.4146 102.919 23.6218 102.945 23.7254 102.582C23.9844 101.675 24.2953 100.782 24.5931 99.8882C24.8651 99.0335 25.15 98.1529 25.4349 97.2593ZM60.6995 120.493C60.6995 120.726 60.6866 120.972 60.6995 121.205C60.7384 122.176 61.5024 122.902 62.5126 122.914C63.5745 122.94 64.3386 122.306 64.4034 121.309C64.4293 120.855 64.4163 120.402 64.4163 119.949C64.4034 118.99 63.8983 118.356 63.0436 118.187C62.0464 117.993 61.2434 118.382 60.842 119.224C60.6477 119.638 60.7254 120.065 60.6995 120.493ZM66.8122 121.801C67.1489 121.49 67.382 121.296 67.5763 121.075C67.7965 120.842 68.0296 120.609 68.1979 120.337C68.5994 119.703 68.5217 119.042 68.0037 118.589C67.2396 117.916 65.9057 118.006 65.2711 118.809C65.1675 118.939 64.8308 119.185 65.1027 119.301C65.4006 119.431 65.7114 119.988 66.1258 119.508C66.4237 119.172 66.7863 119.003 67.123 119.327C67.4856 119.664 67.1748 119.988 66.9417 120.273C66.8122 120.415 66.6698 120.557 66.5273 120.687C66.1129 121.075 65.7114 121.451 65.297 121.827C65.025 122.073 65.0898 122.396 65.1416 122.668C65.2063 122.966 65.5042 122.824 65.6855 122.824C66.4625 122.837 67.2396 122.811 68.0166 122.837C68.3404 122.85 68.444 122.759 68.4699 122.409C68.4958 121.904 68.3533 121.71 67.8353 121.775C67.5504 121.84 67.2655 121.801 66.8122 121.801ZM70.9305 121.801C71.2284 121.516 71.4356 121.334 71.6169 121.153C71.8241 120.933 72.0443 120.726 72.2126 120.48C72.7436 119.716 72.6141 118.952 71.9018 118.459C71.0859 117.89 69.7909 118.149 69.2728 118.977C69.1951 119.094 69.0268 119.288 69.234 119.353C69.5966 119.47 69.9204 120.052 70.3736 119.431C70.5938 119.133 70.9305 119.12 71.2413 119.327C71.6039 119.586 71.4097 119.845 71.2154 120.091C71.06 120.285 70.8917 120.48 70.6974 120.661C70.27 121.075 69.8297 121.49 69.3764 121.891C69.0915 122.137 69.1951 122.461 69.2469 122.733C69.2987 122.966 69.5836 122.837 69.752 122.85C70.542 122.863 71.3449 122.837 72.1479 122.863C72.4846 122.876 72.5623 122.759 72.5882 122.422C72.6271 121.891 72.4328 121.736 71.9407 121.801C71.6687 121.827 71.3708 121.801 70.9305 121.801ZM58.3943 121.801C58.8476 121.322 59.3008 121.024 59.5987 120.583C59.8707 120.195 60.1038 119.793 59.9484 119.275C59.78 118.667 59.3656 118.33 58.7828 118.2C58.0058 118.032 57.3194 118.226 56.8273 118.861C56.7366 118.965 56.361 119.172 56.7237 119.34C57.0086 119.47 57.2935 119.897 57.6561 119.547C57.9928 119.224 58.3554 118.99 58.7051 119.34C59.0936 119.729 58.7181 120.091 58.4331 120.376C57.9281 120.868 57.41 121.36 56.892 121.84C56.6201 122.086 56.6848 122.409 56.7366 122.681C56.7884 122.979 57.0992 122.837 57.2805 122.837C58.0317 122.85 58.7828 122.824 59.5469 122.85C59.9872 122.876 60.0649 122.707 60.0779 122.306C60.0908 121.84 59.9095 121.762 59.521 121.788C59.1713 121.827 58.8346 121.801 58.3943 121.801ZM55.0142 119.496C54.4314 119.496 53.9911 119.923 53.9911 120.506C53.9911 121.088 54.4184 121.542 54.9883 121.555C55.5581 121.568 56.0114 121.101 56.0243 120.532C56.0243 119.962 55.584 119.508 55.0142 119.496ZM74.2588 119.496C73.689 119.496 73.2487 119.936 73.2357 120.506C73.2228 121.075 73.676 121.542 74.2329 121.542C74.8157 121.555 75.3078 121.063 75.2949 120.493C75.2949 119.949 74.8286 119.508 74.2588 119.496Z" fill="#221F51"/>
<path d="M60.6997 120.493C60.7127 120.065 60.6479 119.638 60.8422 119.224C61.2437 118.382 62.0466 117.993 63.0438 118.188C63.8985 118.356 64.4036 118.991 64.4166 119.949C64.4295 120.402 64.4425 120.855 64.4036 121.309C64.3389 122.306 63.5748 122.928 62.5128 122.915C61.5027 122.889 60.7256 122.176 60.6997 121.205C60.6997 120.959 60.6997 120.726 60.6997 120.493ZM63.3158 120.558C63.3158 120.324 63.3158 120.078 63.3158 119.845C63.3158 119.366 62.992 119.211 62.6035 119.198C62.215 119.185 61.8782 119.34 61.8653 119.819C61.8523 120.299 61.8523 120.765 61.8653 121.244C61.8782 121.723 62.202 121.866 62.6035 121.853C63.005 121.84 63.3158 121.697 63.3158 121.205C63.3158 120.998 63.3158 120.778 63.3158 120.558Z" fill="white"/>
<path d="M66.8123 121.801C67.2655 121.801 67.5634 121.827 67.8613 121.788C68.3793 121.723 68.5217 121.917 68.4958 122.422C68.4699 122.772 68.3663 122.863 68.0426 122.85C67.2655 122.824 66.4885 122.85 65.7115 122.837C65.5172 122.837 65.2193 122.979 65.1675 122.681C65.1157 122.41 65.051 122.086 65.3229 121.84C65.7374 121.464 66.1518 121.089 66.5533 120.7C66.6957 120.571 66.8382 120.441 66.9677 120.286C67.2008 120.001 67.5116 119.664 67.149 119.34C66.8123 119.029 66.4496 119.185 66.1518 119.522C65.7244 120.001 65.4266 119.431 65.1287 119.314C64.8567 119.198 65.1934 118.952 65.297 118.822C65.9187 118.019 67.2655 117.929 68.0296 118.602C68.5347 119.055 68.6254 119.729 68.2239 120.35C68.0555 120.622 67.8224 120.855 67.6023 121.089C67.3562 121.296 67.149 121.49 66.8123 121.801Z" fill="white"/>
<path d="M70.9306 121.801C71.3709 121.801 71.6688 121.827 71.9537 121.801C72.4458 121.736 72.6401 121.904 72.6012 122.422C72.5753 122.759 72.4976 122.863 72.1609 122.863C71.3709 122.837 70.568 122.863 69.765 122.85C69.5967 122.85 69.3118 122.979 69.26 122.733C69.2081 122.461 69.1045 122.137 69.3895 121.891C69.8298 121.49 70.2701 121.076 70.7104 120.661C70.8917 120.48 71.0601 120.286 71.2285 120.091C71.4227 119.845 71.604 119.573 71.2544 119.327C70.9435 119.107 70.6068 119.133 70.3867 119.431C69.9463 120.052 69.6096 119.457 69.247 119.353C69.0398 119.288 69.2082 119.094 69.2859 118.978C69.8039 118.149 71.1119 117.903 71.9148 118.459C72.6271 118.952 72.7566 119.729 72.2257 120.48C72.0573 120.726 71.8371 120.933 71.6299 121.153C71.4357 121.347 71.2285 121.516 70.9306 121.801Z" fill="white"/>
<path d="M58.3944 121.801C58.8477 121.801 59.1714 121.827 59.5082 121.801C59.8967 121.775 60.078 121.853 60.065 122.319C60.0521 122.733 59.9744 122.889 59.5341 122.863C58.7829 122.824 58.0318 122.863 57.2677 122.85C57.0734 122.85 56.7756 122.992 56.7238 122.694C56.672 122.423 56.6072 122.099 56.8792 121.853C57.3972 121.374 57.9152 120.881 58.4203 120.389C58.7182 120.104 59.0937 119.755 58.6923 119.353C58.3426 119.004 57.967 119.237 57.6433 119.56C57.2936 119.91 56.9957 119.483 56.7108 119.353C56.3482 119.185 56.7238 118.978 56.8144 118.874C57.3066 118.227 58.0059 118.045 58.77 118.214C59.3527 118.343 59.7672 118.68 59.9355 119.288C60.0909 119.806 59.8449 120.208 59.5859 120.596C59.301 121.024 58.8477 121.322 58.3944 121.801Z" fill="white"/>
<path d="M55.0143 119.496C55.5842 119.496 56.0374 119.962 56.0245 120.532C56.0115 121.101 55.5583 121.555 54.9884 121.555C54.4186 121.542 53.9783 121.089 53.9912 120.506C53.9912 119.936 54.4316 119.496 55.0143 119.496Z" fill="white"/>
<path d="M74.259 119.496C74.8288 119.496 75.2821 119.936 75.295 120.506C75.308 121.076 74.8158 121.568 74.2331 121.555C73.6632 121.542 73.2229 121.089 73.2359 120.519C73.2488 119.936 73.6891 119.496 74.259 119.496Z" fill="white"/>
<path d="M11.4093 65.116L11.6813 69.7005L5.27074 70.089L4.99878 65.5692L5.67221 65.5304L5.89237 69.2472L7.99037 69.1177L7.79611 65.8024L8.46955 65.7635L8.66381 69.0789L10.9561 68.9364L10.723 65.1548L11.4093 65.116Z" fill="#221F51"/>
<path d="M5.19312 70.1538L4.9082 65.5045L5.71114 65.4528L5.9313 69.1696L7.8998 69.053L7.70554 65.7377L8.50848 65.6859L8.70274 69.0012L10.8655 68.8717L10.6324 65.0901L11.4612 65.0383L11.7461 69.7524H11.6814L5.19312 70.1538ZM5.05066 65.6341L5.30967 70.0243L11.5907 69.6488L11.3317 65.1937L10.7619 65.2196L10.995 69.0012L8.57323 69.1566L8.37897 65.8413L7.83504 65.8672L8.0293 69.1825L5.80179 69.325L5.58164 65.6082L5.05066 65.6341Z" fill="#221F51"/>
<path d="M11.746 58.8608L11.6295 60.1947L5.02466 61.8265L5.10237 60.9718L11.3187 59.4954L5.47793 56.9053L5.55564 56.0505L11.746 58.8608Z" fill="#221F51"/>
<path d="M4.94702 61.9043L5.03768 60.9201L11.1115 59.4825L5.40029 56.9442L5.49095 55.96L11.8109 58.822L11.6814 60.2466L4.94702 61.9043ZM5.15423 61.0107L5.08948 61.723L11.5648 60.1301L11.6684 58.8868L5.59455 56.1413L5.5298 56.8536L11.513 59.4955L5.15423 61.0107Z" fill="#221F51"/>
<path d="M11.1246 49.4329L13.7276 48.7983L13.5075 49.6789L10.5677 50.3783L10.1015 52.2302L12.6916 52.8907L12.4973 53.6807L6.26807 52.1007L6.9674 49.3552C7.071 48.9408 7.23936 48.5781 7.47247 48.2932C7.70559 47.9954 7.97755 47.7881 8.30132 47.6716C8.62508 47.555 8.9618 47.5421 9.32441 47.6327C9.82949 47.7622 10.2051 48.0342 10.4382 48.4486C10.6713 48.863 10.7619 49.3552 10.6842 49.912C10.7878 49.6271 10.9303 49.4717 11.1246 49.4329ZM9.94604 50.1452C10.0496 49.7178 10.0367 49.3422 9.88129 49.0185C9.72588 48.6947 9.47983 48.4875 9.11721 48.3968C8.75459 48.3062 8.44377 48.3709 8.15886 48.5911C7.87394 48.8112 7.67968 49.1221 7.57608 49.5494L7.0969 51.4661L9.46688 52.0619L9.94604 50.1452Z" fill="#221F51"/>
<path d="M12.5363 53.7584L6.17749 52.1526L6.88978 49.3423C6.99338 48.9149 7.17469 48.5393 7.4078 48.2544C7.65386 47.9436 7.92582 47.7364 8.26254 47.6198C8.59926 47.5033 8.94893 47.4903 9.32449 47.581C9.85547 47.7105 10.244 47.9954 10.4771 48.4228C10.6714 48.7724 10.775 49.1739 10.762 49.6142C10.8656 49.4847 10.9692 49.407 11.1117 49.3811L13.8184 48.7206L13.5594 49.7437L10.6196 50.4431L10.1792 52.1914L12.7694 52.8519L12.5363 53.7584ZM6.3329 52.0619L12.4456 53.603L12.614 52.9425L10.0238 52.2821L10.516 50.3265L10.5548 50.3136L10.6066 49.8991C10.6843 49.3682 10.6066 48.889 10.3735 48.4746C10.1533 48.086 9.79072 47.8141 9.29859 47.6846C8.94892 47.5939 8.62516 47.6069 8.31435 47.7234C8.00353 47.84 7.74452 48.0343 7.5114 48.3192C7.29124 48.5911 7.12289 48.9408 7.01928 49.3552L6.3329 52.0619ZM13.6371 48.889L11.1376 49.4977C10.9692 49.5365 10.8397 49.666 10.7361 49.938L10.5807 50.3136L13.4558 49.6272L13.6371 48.889ZM9.50581 52.1396L7.01928 51.518L7.5114 49.5365C7.61501 49.0962 7.80927 48.7724 8.12009 48.5393C8.41795 48.3062 8.75467 48.2415 9.13024 48.3321C9.5058 48.4228 9.76482 48.6429 9.93318 48.9926C10.0886 49.3164 10.1145 49.7049 9.99793 50.1581L9.50581 52.1396ZM7.17469 51.4273L9.41515 51.9971L9.88137 50.1452C9.98498 49.7178 9.95907 49.3682 9.81662 49.0573C9.66121 48.7465 9.4281 48.5523 9.09138 48.4746C8.74172 48.3839 8.4568 48.4487 8.18484 48.6559C7.91288 48.876 7.71862 49.1739 7.62796 49.5754L7.17469 51.4273Z" fill="#221F51"/>
<path d="M14.8284 38.3472L16.6674 41.3776L16.227 42.2065L14.3103 38.7875L10.5806 39.1242L11.0079 38.3213L14.401 38.114L12.6397 35.2131L13.0671 34.3972L14.9061 37.6608L18.8042 37.3241L18.3769 38.1399L14.8284 38.3472Z" fill="#221F51"/>
<path d="M16.2271 42.3488L14.2716 38.8651L10.4641 39.2147L10.9692 38.2693L14.2846 38.0621L12.5621 35.2259L13.0672 34.2676L14.945 37.5959L18.9209 37.2592L18.4158 38.2175L14.945 38.4247L16.7452 41.3904L16.2271 42.3488ZM14.3493 38.7226L16.2271 42.0768L16.5898 41.3904L14.7249 38.2952L18.3381 38.088L18.6878 37.4146L14.8673 37.7383L13.0801 34.5395L12.7305 35.213L14.5306 38.1657L11.0728 38.3729L10.7231 39.0334L14.3493 38.7226Z" fill="#221F51"/>
<path d="M19.8402 32.8687L20.7985 34.3192L20.2935 34.9927L16.6025 29.2037L17.3278 28.2324L23.8937 30.2009L23.3887 30.8744L21.731 30.3563L19.8402 32.8687ZM17.1983 28.8929L19.4258 32.273L21.0576 30.1103L17.1983 28.8929Z" fill="#221F51"/>
<path d="M20.2806 35.1093L16.5249 29.2167L17.3019 28.1807L24.0104 30.188L23.4276 30.9651L21.7699 30.447L19.918 32.8817L20.8763 34.3322L20.2806 35.1093ZM16.6803 29.2038L20.2935 34.8632L20.7209 34.3063L19.7626 32.8558L21.7181 30.2787L23.3758 30.7967L23.8032 30.2398L17.3667 28.3102L16.6803 29.2038ZM19.4258 32.3896L17.0559 28.7893L21.1742 30.0844L19.4258 32.3896ZM17.3537 29.0095L19.4258 32.1565L20.9411 30.1362L17.3537 29.0095Z" fill="#221F51"/>
<path d="M29.0871 24.9042L26.0307 27.8829L21.5498 23.2725L22.1326 22.7026L26.1343 26.808L28.6079 24.3992L29.0871 24.9042Z" fill="#221F51"/>
<path d="M26.0308 27.9607L21.4592 23.2725L22.1327 22.6121L26.1344 26.7174L28.608 24.3086L29.1908 24.9043L26.0308 27.9607ZM21.6405 23.2725L26.0438 27.7794L29.0095 24.8914L28.608 24.4769L26.1215 26.8987L22.1197 22.7934L21.6405 23.2725Z" fill="#221F51"/>
<path d="M34.2025 21.8998C34.2673 22.0034 34.3709 22.0552 34.4874 22.0681C34.604 22.0811 34.7205 22.0293 34.85 21.9386L35.8731 21.2134L36.1581 21.6148L34.7723 22.5861C34.5651 22.7286 34.3579 22.7934 34.1507 22.7804C33.9435 22.7675 33.7881 22.6638 33.6586 22.4825C33.542 22.3142 33.5032 22.1329 33.542 21.9127C33.5809 21.7055 33.6715 21.4853 33.814 21.2652C33.3348 21.5889 32.8297 21.7573 32.2858 21.7832C31.7419 21.8091 31.2239 21.6926 30.7188 21.4465C30.2267 21.2004 29.7993 20.8249 29.4496 20.3327C29.1 19.8277 28.8798 19.2967 28.815 18.7398C28.7503 18.17 28.828 17.639 29.0482 17.1339C29.2683 16.6288 29.618 16.2015 30.0972 15.8648C30.5763 15.528 31.0944 15.3338 31.6512 15.2949C32.2081 15.2561 32.7391 15.3726 33.2442 15.6187C33.7492 15.8648 34.1766 16.2403 34.5263 16.7454C34.8241 17.1728 35.0314 17.639 35.122 18.1311C35.2127 18.6232 35.1868 19.1024 35.0573 19.5686C34.9277 20.0349 34.6817 20.4493 34.345 20.8119C34.0989 21.317 34.0471 21.6796 34.2025 21.8998ZM31.1073 20.7601C31.4958 20.9673 31.8973 21.0709 32.3117 21.058C32.7261 21.045 33.1276 20.9155 33.4902 20.6565C33.8528 20.3975 34.1119 20.0737 34.2673 19.6722C34.4227 19.2708 34.4615 18.8564 34.3838 18.429C34.3191 17.9887 34.1507 17.5872 33.8917 17.2246C33.6197 16.8361 33.283 16.5382 32.8945 16.331C32.506 16.1238 32.1045 16.0202 31.6771 16.0331C31.2498 16.0461 30.8612 16.1756 30.4986 16.4346C30.136 16.6936 29.877 17.0174 29.7216 17.4059C29.5662 17.7944 29.5273 18.2088 29.5921 18.6362C29.6568 19.0636 29.8252 19.478 30.0972 19.8536C30.395 20.2421 30.7188 20.5399 31.1073 20.7601Z" fill="#221F51"/>
<path d="M34.1896 22.8452C34.1767 22.8452 34.1508 22.8452 34.1378 22.8452C33.9177 22.8322 33.7493 22.7286 33.5939 22.5214C33.4644 22.3401 33.4255 22.1329 33.4644 21.8998C33.4903 21.7573 33.5421 21.6019 33.6198 21.4595C33.2054 21.7055 32.7521 21.8221 32.2729 21.848C31.729 21.8739 31.198 21.7573 30.68 21.5113C30.1749 21.2652 29.7476 20.8767 29.3849 20.3846C29.0223 19.8536 28.8022 19.3097 28.7374 18.7657C28.6727 18.183 28.7504 17.652 28.9705 17.134C29.1907 16.6159 29.5533 16.1756 30.0454 15.8389C30.5375 15.4892 31.0685 15.295 31.6254 15.2561C32.1693 15.2173 32.7262 15.3338 33.2442 15.5799C33.7623 15.8259 34.1896 16.2145 34.5522 16.7325C34.8631 17.1858 35.0703 17.652 35.1609 18.1441C35.2516 18.6362 35.2257 19.1284 35.0962 19.6075C34.9667 20.0608 34.7206 20.4882 34.3709 20.8637C34.1378 21.3429 34.086 21.6796 34.2285 21.8739C34.2803 21.9516 34.358 22.0034 34.4616 22.0164C34.5522 22.0293 34.6429 21.9905 34.7854 21.8998L35.8603 21.1357L36.2229 21.6408L34.7854 22.6509C34.604 22.7804 34.3968 22.8452 34.1896 22.8452ZM34.0342 21.0321L33.8659 21.3041C33.7364 21.5113 33.6457 21.7185 33.6068 21.9257C33.568 22.12 33.6068 22.2883 33.7104 22.4437C33.84 22.6121 33.9695 22.7027 34.1508 22.7157C34.345 22.7286 34.5393 22.6639 34.7336 22.5344L36.0675 21.6019L35.8603 21.3041L34.889 21.9904C34.7336 22.107 34.604 22.1459 34.4875 22.1329C34.345 22.12 34.2285 22.0552 34.1508 21.9387C33.9824 21.7055 34.0342 21.317 34.2932 20.786L34.3062 20.7731C34.6429 20.4105 34.876 19.9961 35.0055 19.5557C35.135 19.0895 35.1609 18.6233 35.0703 18.1441C34.9796 17.6779 34.7854 17.2117 34.4875 16.7843C34.1508 16.2922 33.7234 15.9166 33.2313 15.6835C32.7262 15.4374 32.1952 15.3338 31.6772 15.3727C31.1462 15.4115 30.6282 15.5928 30.162 15.9296C29.6958 16.2533 29.359 16.6677 29.1389 17.1728C28.9187 17.6649 28.841 18.183 28.9058 18.7398C28.9705 19.2708 29.1777 19.7888 29.5274 20.3069C29.8771 20.786 30.2915 21.1616 30.7707 21.3947C31.2757 21.6408 31.7808 21.7444 32.2988 21.7185C32.8428 21.6926 33.3219 21.5242 33.7882 21.2134L34.0342 21.0321ZM32.2341 21.1228C31.8456 21.1228 31.4441 21.0192 31.0685 20.8119C30.68 20.5918 30.3562 20.2939 30.0454 19.8925C29.7735 19.5169 29.5921 19.0895 29.5274 18.6492C29.4626 18.1959 29.5015 17.7815 29.6569 17.393C29.8123 16.9915 30.0843 16.6548 30.4598 16.3958C30.8354 16.1368 31.2239 15.9943 31.6772 15.9814C32.1046 15.9684 32.519 16.072 32.9205 16.2922C33.3219 16.5123 33.6716 16.8102 33.9436 17.1987C34.2155 17.5743 34.3839 17.9887 34.4486 18.429C34.5263 18.8693 34.4875 19.2967 34.3321 19.6982C34.1767 20.1126 33.9177 20.4364 33.5291 20.7083C33.1665 20.9674 32.7521 21.1098 32.3118 21.1228C32.2859 21.1228 32.26 21.1228 32.2341 21.1228ZM31.1333 20.7083C31.5218 20.9156 31.9103 21.0062 32.2988 20.9933C32.7133 20.9803 33.1018 20.8508 33.4385 20.6047C33.8011 20.3457 34.0472 20.0349 34.1896 19.6464C34.345 19.2579 34.3839 18.8564 34.3062 18.442C34.2414 18.0146 34.086 17.6261 33.827 17.2635C33.568 16.8879 33.2313 16.59 32.8557 16.3958C32.4672 16.1886 32.0787 16.0979 31.6772 16.1109C31.2628 16.1238 30.8872 16.2533 30.5375 16.4994C30.1879 16.7454 29.9289 17.0692 29.7864 17.4448C29.6439 17.8074 29.5921 18.2218 29.6569 18.6362C29.7217 19.0636 29.89 19.4651 30.149 19.8277C30.4469 20.2162 30.7577 20.4882 31.1333 20.7083Z" fill="#221F51"/>
<path d="M39.4087 15.8646L39.59 17.5871L38.8389 17.9497L38.2302 11.1247L39.331 10.6067L44.2652 15.3855L43.5141 15.7481L42.2838 14.5178L39.4087 15.8646ZM38.9037 11.1377L39.331 15.1653L41.7657 13.9998L38.9037 11.1377Z" fill="#221F51"/>
<path d="M38.7872 18.0534L38.1655 11.0859L39.344 10.5291L39.3699 10.555L44.3689 15.3985L43.4882 15.8259L42.2579 14.5956L39.4735 15.9165L39.6549 17.639L38.7872 18.0534ZM38.295 11.1636L38.8908 17.8591L39.5124 17.5613L39.3311 15.8388L42.2838 14.4401L43.5141 15.6705L44.1358 15.3726L39.3052 10.6974L38.295 11.1636ZM39.2793 15.256L38.826 10.9564L41.8824 14.0128L39.2793 15.256ZM38.9944 11.3061L39.3958 15.0618L41.6622 13.9739L38.9944 11.3061Z" fill="#221F51"/>
<path d="M50.1447 10.9823L52.0226 12.9119L51.1549 13.171L49.0569 10.9823L47.2179 11.5133L47.969 14.0775L47.192 14.2977L45.3918 8.12021L48.1115 7.33022C48.5259 7.21367 48.9144 7.17481 49.29 7.22661C49.6656 7.27842 49.9764 7.40793 50.2483 7.62809C50.5073 7.84825 50.7016 8.13316 50.8052 8.49578C50.9477 9.00086 50.9088 9.45413 50.6628 9.86855C50.4167 10.283 50.0411 10.6067 49.5231 10.8269C49.7951 10.7751 50.0152 10.8269 50.1447 10.9823ZM48.9403 10.3218C49.3677 10.1923 49.6785 9.9851 49.8728 9.70019C50.08 9.40233 50.1188 9.07856 50.0152 8.72889C49.9116 8.37922 49.6915 8.13316 49.3677 8.00365C49.0439 7.87415 48.6684 7.8612 48.241 7.9907L46.3372 8.54758L47.0236 10.8917L48.9403 10.3218Z" fill="#221F51"/>
<path d="M47.1532 14.3754L45.3142 8.0814L48.0986 7.27846C48.5389 7.1619 48.9274 7.12305 49.303 7.17486C49.6915 7.22666 50.0153 7.36912 50.2873 7.58928C50.5722 7.82239 50.7664 8.1332 50.87 8.48287C51.0254 9.01384 50.9736 9.48007 50.7276 9.90744C50.5204 10.2571 50.2225 10.542 49.834 10.7492C49.9894 10.7751 50.1059 10.8399 50.1966 10.9435L52.1392 12.9508L51.129 13.2487L49.031 11.06L47.2957 11.5651L48.0468 14.1294L47.1532 14.3754ZM45.4826 8.17206L47.2438 14.22L47.8914 14.0387L47.1402 11.4745L49.0828 10.9176L49.1087 10.9435L49.5102 10.7751C50.0023 10.5679 50.3779 10.2571 50.624 9.84269C50.8571 9.45417 50.8959 9.01384 50.7535 8.52172C50.6628 8.185 50.4815 7.91304 50.2225 7.69288C49.9635 7.48567 49.6656 7.35617 49.303 7.30436C48.9404 7.25256 48.5648 7.29141 48.1504 7.40797L45.4826 8.17206ZM49.1346 10.9694L51.1808 13.0933L51.9061 12.8731L50.1059 11.0212C49.9635 10.8528 49.7174 10.8528 49.5491 10.8917L49.1346 10.9694ZM46.9848 10.9694L46.2596 8.50877L48.2281 7.93894C48.6555 7.80943 49.044 7.80944 49.3937 7.9519C49.7304 8.0814 49.9764 8.35336 50.08 8.71598C50.1966 9.09155 50.1448 9.44122 49.9246 9.73908C49.7174 10.0369 49.3937 10.2571 48.9533 10.3866L46.9848 10.9694ZM46.428 8.59943L47.0755 10.814L48.9274 10.2571C49.3419 10.1276 49.6397 9.93334 49.821 9.66138C50.0153 9.38942 50.0541 9.09155 49.9505 8.74188C49.8469 8.40516 49.6527 8.18501 49.3419 8.0555C49.0181 7.92599 48.6555 7.926 48.254 8.04255L46.428 8.59943Z" fill="#221F51"/>
<path d="M56.4389 11.7075C55.9338 11.4744 55.5194 11.1248 55.1956 10.6585C54.8718 10.1923 54.6776 9.66134 54.5999 9.05266C54.5222 8.44398 54.5999 7.87415 54.8071 7.34318C55.0143 6.8122 55.3381 6.38483 55.7784 6.03516C56.2187 5.69845 56.7238 5.49123 57.3065 5.41353C57.8893 5.34877 58.4333 5.42648 58.9383 5.65959C59.4434 5.8927 59.8578 6.24237 60.1816 6.70859C60.5054 7.17481 60.7126 7.70579 60.7773 8.31447C60.8421 8.9102 60.7773 9.48003 60.5701 10.011C60.3629 10.542 60.0391 10.9823 59.5988 11.319C59.1585 11.6687 58.6534 11.8759 58.0706 11.9407C57.4879 12.0313 56.9439 11.9407 56.4389 11.7075ZM59.1455 10.7621C59.4693 10.4902 59.7024 10.1405 59.8449 9.7261C59.9873 9.31168 60.0391 8.8843 59.9873 8.43103C59.9355 7.96481 59.7801 7.53744 59.547 7.17482C59.3009 6.79925 58.9901 6.52729 58.6146 6.33303C58.239 6.13877 57.8246 6.07401 57.3972 6.12581C56.9569 6.17761 56.5684 6.34598 56.2576 6.61794C55.9338 6.88991 55.7007 7.22662 55.5582 7.64104C55.4158 8.05546 55.364 8.49579 55.4287 8.94906C55.4805 9.41528 55.6359 9.84265 55.869 10.2053C56.1021 10.5808 56.413 10.8528 56.7885 11.0471C57.1641 11.2413 57.5785 11.3061 58.0188 11.2543C58.4333 11.2025 58.8218 11.0471 59.1455 10.7621Z" fill="#221F51"/>
<path d="M57.6301 12.0314C57.2157 12.0314 56.8013 11.9407 56.4128 11.7594C55.8947 11.5263 55.4674 11.1637 55.1436 10.6845C54.8198 10.2183 54.6126 9.67435 54.5349 9.05272C54.4572 8.45699 54.5349 7.87421 54.7421 7.31733C54.9493 6.78635 55.2731 6.34603 55.7264 5.98341C56.1797 5.63375 56.6847 5.42653 57.2805 5.34883C57.8762 5.28408 58.446 5.36178 58.9511 5.59489C59.4691 5.82801 59.8965 6.19062 60.2203 6.6698C60.557 7.16192 60.7642 7.70585 60.8289 8.30158C60.8937 8.91026 60.8289 9.49304 60.6217 10.024C60.4145 10.5679 60.0778 11.0212 59.6245 11.3579C59.1713 11.7205 58.6662 11.9278 58.0705 11.9925C57.928 12.0314 57.7855 12.0314 57.6301 12.0314ZM57.6949 5.46539C57.5654 5.46539 57.4488 5.47834 57.3193 5.49129C56.7495 5.56899 56.2574 5.76326 55.83 6.09997C55.3897 6.44964 55.0788 6.86406 54.8846 7.38208C54.6774 7.91306 54.6126 8.48289 54.6774 9.05272C54.7551 9.6614 54.9493 10.1794 55.2602 10.6327C55.571 11.086 55.9854 11.4356 56.4775 11.6558C56.9826 11.8889 57.5265 11.9666 58.0705 11.8889C58.6403 11.8242 59.1324 11.6299 59.5727 11.2802C60.0001 10.9565 60.3239 10.5291 60.5181 9.99811C60.7124 9.49304 60.7901 8.92321 60.7253 8.34043C60.6606 7.7706 60.4663 7.23963 60.1426 6.76045C59.8317 6.30718 59.4173 5.95751 58.9252 5.73735C58.5367 5.55604 58.1223 5.46539 57.6949 5.46539ZM57.7337 11.332C57.3841 11.332 57.0603 11.2543 56.7624 11.0989C56.361 10.8917 56.0501 10.6068 55.817 10.2312C55.571 9.85565 55.4156 9.41534 55.3638 8.94911C55.299 8.50879 55.3508 8.05551 55.4933 7.61519C55.6357 7.18782 55.8688 6.85111 56.2056 6.56619C56.5293 6.29423 56.9308 6.11292 57.3841 6.06111C57.8373 6.00931 58.2518 6.07407 58.6403 6.28128C59.0417 6.48849 59.3526 6.7734 59.5986 7.14897C59.8447 7.52454 60.0001 7.96487 60.0519 8.43109C60.1037 8.88436 60.0519 9.31173 59.9094 9.75205C59.767 10.1794 59.5209 10.542 59.1972 10.814C58.8734 11.0989 58.4849 11.2673 58.0316 11.3191C57.928 11.332 57.8373 11.332 57.7337 11.332ZM57.6819 6.17767C57.5913 6.17767 57.5006 6.17767 57.41 6.19062C56.9826 6.24242 56.607 6.39783 56.3092 6.6698C55.9854 6.94176 55.7652 7.26553 55.6228 7.667C55.4803 8.09437 55.4415 8.52174 55.4933 8.94911C55.5451 9.38944 55.6875 9.81681 55.9206 10.1794C56.1408 10.5291 56.4257 10.8011 56.8142 10.9953C57.1639 11.1766 57.5654 11.2414 58.0057 11.1896C58.4331 11.1378 58.7957 10.9824 59.0935 10.7104C59.4044 10.4514 59.6375 10.1147 59.767 9.70025C59.9094 9.28583 59.9612 8.87141 59.9094 8.43109C59.8576 7.99077 59.7152 7.5634 59.4821 7.20078C59.249 6.85111 58.9511 6.57914 58.5755 6.38488C58.3036 6.25537 58.0057 6.17767 57.6819 6.17767Z" fill="#221F51"/>
<path d="M70.1926 5.3487L69.6875 9.24684C69.6098 9.84257 69.7134 10.3088 69.9854 10.6844C70.2574 11.047 70.6718 11.2671 71.2157 11.3448C71.7596 11.4096 72.2129 11.306 72.5755 11.0211C72.9381 10.7362 73.1583 10.2958 73.236 9.72602L73.7411 5.82787L74.544 5.93148L74.0389 9.84257C73.9742 10.3606 73.8058 10.8009 73.5468 11.1506C73.2878 11.5003 72.9381 11.7593 72.5237 11.9147C72.1093 12.0701 71.6431 12.1089 71.138 12.0442C70.62 11.9794 70.1797 11.8111 69.817 11.565C69.4544 11.306 69.1954 10.9822 69.0271 10.5678C68.8587 10.1534 68.8198 9.70012 68.8846 9.18209L69.3897 5.271L70.1926 5.3487Z" fill="#221F51"/>
<path d="M71.5912 12.1349C71.4487 12.1349 71.2933 12.1219 71.125 12.109C70.6199 12.0442 70.1666 11.8759 69.7781 11.6169C69.4025 11.3449 69.1306 11.0082 68.9622 10.5938C68.7939 10.1793 68.742 9.72607 68.8197 9.18214L69.3378 5.21924L70.2702 5.30989L69.7522 9.2728C69.6745 9.84262 69.7781 10.2959 70.0371 10.6585C70.2961 11.0082 70.6976 11.2154 71.2286 11.2931C71.7596 11.3578 72.1869 11.2542 72.5366 10.9823C72.8863 10.7103 73.0935 10.2959 73.1712 9.72607L73.6892 5.76317L74.6216 5.87973L74.1036 9.85557C74.0389 10.3736 73.8705 10.8269 73.5985 11.1895C73.3266 11.5521 72.9769 11.8111 72.5495 11.9795C72.2517 12.0831 71.9409 12.1349 71.5912 12.1349ZM69.4543 5.34874L68.9622 9.19509C68.8975 9.71311 68.9363 10.1534 69.1047 10.542C69.2601 10.9434 69.5191 11.2542 69.8688 11.5133C70.2314 11.7593 70.6717 11.9147 71.1638 11.9795C71.6689 12.0442 72.1222 12.0054 72.5236 11.85C72.9251 11.6946 73.2618 11.4485 73.5208 11.1118C73.7798 10.7621 73.9352 10.3347 74 9.82967L74.4921 5.98333L73.8187 5.89267L73.3266 9.72607C73.2489 10.3218 73.0158 10.7751 72.6402 11.06C72.2646 11.3449 71.7984 11.4614 71.2286 11.3967C70.6587 11.319 70.2314 11.0859 69.9594 10.7103C69.6745 10.3088 69.5709 9.82967 69.6486 9.22099L70.1407 5.3876L69.4543 5.34874Z" fill="#221F51"/>
<path d="M82.5735 14.6732L81.2784 14.2718L79.6984 7.45972L77.9242 13.2487L77.186 13.0285L79.0768 6.88989L80.3589 7.27841L81.9389 14.1034L83.7261 8.30152L84.4643 8.52167L82.5735 14.6732Z" fill="#221F51"/>
<path d="M82.6122 14.751L81.2265 14.3236L79.6983 7.70586L77.9759 13.3264L77.1082 13.0674L79.0378 6.79932L80.4106 7.21374L80.4235 7.25259L81.9517 13.8445L83.6871 8.21094L84.5548 8.46995L82.6122 14.751ZM81.3301 14.22L82.5215 14.5956L84.3735 8.56061L83.7648 8.3793L81.9258 14.3495L80.307 7.31734L79.1285 6.95473L77.2765 12.9768L77.8852 13.1581L79.7112 7.18784L81.3301 14.22Z" fill="#221F51"/>
<path d="M89.3464 10.6197L86.6657 16.4604L85.9275 16.1237L88.6083 10.283L89.3464 10.6197Z" fill="#221F51"/>
<path d="M86.7046 16.5511L85.8499 16.1626L88.5825 10.1924L89.4372 10.5809L86.7046 16.5511ZM86.0182 16.0979L86.6399 16.3828L89.2688 10.6586L88.6472 10.3737L86.0182 16.0979Z" fill="#221F51"/>
<path d="M92.5193 19.6465L91.3796 18.9471L92.856 12.3164L93.5812 12.7697L92.1437 18.9989L97.065 14.8936L97.8032 15.3469L92.5193 19.6465Z" fill="#221F51"/>
<path d="M92.5323 19.724L91.3149 18.9729L92.8172 12.1997L93.659 12.7307L92.2603 18.8175L97.065 14.8157L97.9198 15.3467L92.5323 19.724ZM91.4574 18.9211L92.5193 19.5686L97.6867 15.3597L97.065 14.9841L92.0402 19.1801L93.5036 12.8084L92.8949 12.4328L91.4574 18.9211Z" fill="#221F51"/>
<path d="M100.354 25.6164L96.8447 22.6507L101.002 17.7424L104.46 20.6693L104.019 21.1873L101.183 18.7785L99.8234 20.3844L102.362 22.5342L101.921 23.0522L99.383 20.9024L97.8937 22.6507L100.782 25.0984L100.354 25.6164Z" fill="#221F51"/>
<path d="M100.354 25.7071L96.7542 22.6637L100.989 17.6648L104.537 20.6693L104.019 21.291L101.183 18.8822L99.9141 20.3844L102.452 22.5342L101.934 23.1559L99.3961 21.0061L97.9974 22.6508L100.885 25.0985L100.354 25.7071ZM96.9355 22.6378L100.341 25.5129L100.691 25.0985L97.8031 22.6508L99.3702 20.8118L101.908 22.9616L102.271 22.5472L99.7328 20.3974L101.17 18.7008L104.007 21.1097L104.356 20.6952L101.002 17.8591L96.9355 22.6378Z" fill="#221F51"/>
<path d="M106.946 29.2037L105.988 31.7161L105.392 31.0298L106.493 28.2195L105.237 26.7819L103.217 28.5432L102.686 27.9346L107.542 23.7126L109.407 25.8495C109.692 26.1733 109.886 26.51 109.99 26.8726C110.093 27.2352 110.106 27.5719 110.029 27.9086C109.938 28.2454 109.757 28.5303 109.472 28.7763C109.083 29.1131 108.643 29.2685 108.164 29.2296C107.685 29.1908 107.244 28.9706 106.817 28.595C106.972 28.8022 107.011 29.0095 106.946 29.2037ZM107.024 27.818C107.309 28.1547 107.633 28.349 107.982 28.4137C108.332 28.4785 108.643 28.3878 108.928 28.1418C109.2 27.8957 109.329 27.5978 109.316 27.2482C109.303 26.8985 109.148 26.5488 108.863 26.2251L107.568 24.7357L105.729 26.3416L107.024 27.818Z" fill="#221F51"/>
<path d="M106.014 31.8457L105.328 31.0428L106.428 28.2325L105.237 26.8727L103.217 28.634L102.595 27.9346L107.542 23.635L109.446 25.8237C109.744 26.1604 109.938 26.4971 110.042 26.8727C110.145 27.2482 110.158 27.5979 110.08 27.9346C109.99 28.2843 109.796 28.5822 109.498 28.8412C109.096 29.1908 108.643 29.3462 108.138 29.3074C107.749 29.2815 107.374 29.1261 106.998 28.8541C107.037 28.9836 107.037 29.1131 106.998 29.2426L106.014 31.8457ZM105.47 31.0169L105.962 31.5867L106.882 29.1779C106.946 28.9966 106.895 28.8153 106.765 28.634L106.532 28.3102L105.47 31.0169ZM106.545 28.2713L106.856 28.5433C107.283 28.9189 107.71 29.1261 108.164 29.1649C108.617 29.2038 109.044 29.0613 109.42 28.7246C109.692 28.4915 109.873 28.2195 109.951 27.8958C110.029 27.572 110.016 27.2482 109.912 26.8986C109.808 26.5489 109.627 26.2251 109.342 25.9014L107.516 23.8163L102.763 27.9476L103.204 28.4526L105.224 26.6914L106.545 28.2066V28.2713ZM108.19 28.5045C108.112 28.5045 108.034 28.4915 107.957 28.4786C107.581 28.4138 107.244 28.2066 106.959 27.8569L105.625 26.3287L107.555 24.6452L108.889 26.1863C109.187 26.523 109.342 26.8856 109.355 27.2482C109.368 27.6109 109.226 27.9346 108.941 28.1936C108.734 28.4008 108.475 28.5045 108.19 28.5045ZM105.82 26.3546L107.076 27.7792C107.348 28.09 107.659 28.2843 107.995 28.349C108.319 28.4138 108.617 28.3231 108.889 28.09C109.148 27.8569 109.265 27.585 109.252 27.2482C109.239 26.9115 109.083 26.5748 108.811 26.264L107.555 24.8265L105.82 26.3546Z" fill="#221F51"/>
<path d="M108.604 34.6431C108.643 34.0862 108.889 33.5941 109.355 33.1797L109.769 33.8272C109.472 34.1381 109.303 34.4877 109.277 34.8633C109.251 35.2389 109.381 35.6403 109.64 36.0547C109.899 36.4562 110.197 36.7282 110.546 36.8577C110.896 36.9872 111.22 36.9613 111.531 36.767C111.803 36.5987 111.971 36.3915 112.036 36.1454C112.101 35.8993 112.062 35.6015 111.932 35.2518L111.388 33.7884C111.207 33.3222 111.155 32.9077 111.233 32.571C111.311 32.2343 111.544 31.9494 111.919 31.7033C112.23 31.5091 112.541 31.4443 112.878 31.4832C113.201 31.535 113.525 31.6645 113.823 31.9105C114.121 32.1566 114.393 32.4415 114.613 32.8041C114.963 33.361 115.118 33.892 115.079 34.3971C115.04 34.9021 114.807 35.3295 114.367 35.7051L113.952 35.0575C114.237 34.7985 114.38 34.5007 114.393 34.164C114.406 33.8272 114.302 33.4905 114.069 33.1279C113.823 32.7394 113.551 32.4674 113.24 32.325C112.929 32.1825 112.644 32.1955 112.373 32.3638C112.139 32.5192 111.984 32.6876 111.932 32.8948C111.88 33.102 111.919 33.3481 112.036 33.6589L112.619 35.1871C112.813 35.6921 112.865 36.1195 112.761 36.4821C112.67 36.8447 112.424 37.1426 112.01 37.4016C111.673 37.6088 111.336 37.6995 110.974 37.6865C110.611 37.6606 110.274 37.5441 109.938 37.311C109.614 37.0908 109.329 36.78 109.083 36.3915C108.733 35.7828 108.565 35.2 108.604 34.6431Z" fill="#221F51"/>
<path d="M111.039 37.7513C111.013 37.7513 110.987 37.7513 110.974 37.7513C110.585 37.7254 110.236 37.5959 109.899 37.3627C109.575 37.1426 109.277 36.8318 109.031 36.4303C108.669 35.7957 108.5 35.2 108.539 34.6431C108.578 34.0603 108.837 33.5553 109.316 33.1408L109.368 33.089L109.847 33.8402L109.808 33.879C109.523 34.1769 109.355 34.5136 109.329 34.8762C109.303 35.2259 109.42 35.6144 109.679 36.0288C109.938 36.4303 110.223 36.6764 110.547 36.8059C110.883 36.9354 111.181 36.8965 111.479 36.7152C111.738 36.5598 111.893 36.3655 111.958 36.1324C112.023 35.8993 111.984 35.6274 111.855 35.2777L111.311 33.8143C111.129 33.3351 111.077 32.9207 111.155 32.5581C111.233 32.2084 111.466 31.9105 111.867 31.6515C112.178 31.4573 112.515 31.3796 112.865 31.4184C113.227 31.4832 113.564 31.6256 113.849 31.8587C114.186 32.1436 114.445 32.4415 114.652 32.7653C115.002 33.3351 115.17 33.879 115.131 34.3971C115.092 34.9151 114.846 35.3554 114.393 35.7439L114.341 35.7957L113.862 35.0446L113.901 35.0057C114.173 34.7597 114.302 34.4877 114.315 34.1639C114.328 33.8402 114.224 33.5164 114.004 33.1667C113.758 32.7782 113.499 32.5192 113.201 32.3897C112.916 32.2602 112.645 32.2731 112.398 32.4286C112.165 32.584 112.036 32.7394 111.984 32.9207C111.932 33.102 111.971 33.3351 112.088 33.6459L112.67 35.1741C112.878 35.7051 112.916 36.1324 112.813 36.508C112.722 36.8836 112.463 37.1944 112.036 37.4663C111.712 37.6477 111.388 37.7513 111.039 37.7513ZM109.342 33.2833C108.928 33.6718 108.708 34.1251 108.669 34.6561C108.63 35.187 108.785 35.7569 109.135 36.3655C109.381 36.7541 109.653 37.0519 109.964 37.2591C110.275 37.4793 110.611 37.5959 110.961 37.6218C111.311 37.6347 111.634 37.5441 111.958 37.3498C112.36 37.1037 112.593 36.8059 112.683 36.4692C112.787 36.1195 112.735 35.718 112.541 35.2129L111.958 33.6848C111.829 33.348 111.803 33.102 111.855 32.8818C111.906 32.6746 112.062 32.4933 112.321 32.312C112.619 32.1307 112.916 32.1177 113.253 32.2731C113.564 32.4156 113.849 32.6876 114.108 33.102C114.341 33.4776 114.458 33.8272 114.445 34.1769C114.432 34.5136 114.289 34.8244 114.03 35.0834L114.38 35.6274C114.768 35.2777 114.976 34.8762 115.014 34.41C115.053 33.9179 114.898 33.3998 114.561 32.8559C114.367 32.5322 114.108 32.2472 113.784 31.9753C113.512 31.7551 113.214 31.6127 112.865 31.5609C112.528 31.522 112.243 31.5868 111.958 31.7681C111.583 32.0141 111.375 32.2861 111.298 32.5969C111.22 32.9207 111.272 33.3221 111.453 33.7754L111.997 35.2388C112.139 35.6144 112.165 35.9123 112.101 36.1713C112.036 36.4303 111.855 36.6505 111.57 36.8318C111.246 37.039 110.909 37.0649 110.534 36.9224C110.171 36.7929 109.873 36.521 109.601 36.0936C109.329 35.6533 109.2 35.2388 109.226 34.8633C109.251 34.4877 109.407 34.138 109.705 33.8272L109.342 33.2833Z" fill="#221F51"/>
<path d="M118.136 39.4347L112.334 42.1802L111.984 41.455L117.786 38.7095L118.136 39.4347Z" fill="#221F51"/>
<path d="M112.295 42.271L111.894 41.4292L117.825 38.6318L118.226 39.4736L112.295 42.271ZM112.062 41.4939L112.36 42.1026L118.045 39.4218L117.747 38.8131L112.062 41.4939Z" fill="#221F51"/>
<path d="M120.026 46.1432L114.587 47.9563L114.328 47.1922L119.767 45.3791L119.094 43.3588L119.754 43.1387L121.36 47.9434L120.7 48.1635L120.026 46.1432Z" fill="#221F51"/>
<path d="M120.661 48.2413L119.988 46.221L114.561 48.0341L114.263 47.1534L119.703 45.3404L119.029 43.32L119.806 43.061L121.451 47.9823L120.661 48.2413ZM120.065 46.0526L120.739 48.0729L121.27 47.8916L119.703 43.2164L119.172 43.3978L119.845 45.4181L114.419 47.2311L114.639 47.8657L120.065 46.0526Z" fill="#221F51"/>
<path d="M116.815 57.6045L116.012 53.0718L122.332 51.958L123.122 56.426L122.448 56.5425L121.801 52.8775L119.742 53.2401L120.311 56.5037L119.638 56.6202L119.068 53.3567L116.802 53.7582L117.462 57.4879L116.815 57.6045Z" fill="#221F51"/>
<path d="M116.763 57.6693L116.75 57.6046L115.934 53.0071L122.384 51.8674L123.199 56.452L122.396 56.5944L121.749 52.9294L119.819 53.2661L120.389 56.5297L119.586 56.6721L119.016 53.4086L116.879 53.7841L117.54 57.5139L116.763 57.6693ZM116.089 53.1236L116.867 57.5269L117.398 57.4362L116.737 53.7064L119.133 53.2791L119.703 56.5426L120.247 56.452L119.677 53.1884L121.865 52.7999L122.513 56.4649L123.057 56.3743L122.293 52.0358L116.089 53.1236Z" fill="#221F51"/>
<path d="M122.915 63.2511L117.19 63.4065L117.165 62.6036L122.889 62.4481L122.837 60.3113L123.536 60.2983L123.666 65.362L122.966 65.375L122.915 63.2511Z" fill="#221F51"/>
<path d="M122.914 65.4398L122.863 63.3159L117.138 63.4713L117.113 62.5389L122.85 62.3834L122.798 60.2466L123.627 60.2336L123.756 65.4268L122.914 65.4398ZM122.979 63.1864L123.031 65.3103L123.601 65.2973L123.471 60.3631L122.901 60.3761L122.953 62.513L117.229 62.6684L117.255 63.3418L122.979 63.1864Z" fill="#221F51"/>
<path d="M123.342 70.2056L116.944 69.6228L117.022 68.8198L123.419 69.4026L123.342 70.2056Z" fill="#221F51"/>
<path d="M123.407 70.2704L116.879 69.6746L116.97 68.7422L123.497 69.3379L123.407 70.2704ZM117.009 69.5581L123.277 70.1279L123.342 69.4545L117.074 68.8846L117.009 69.5581Z" fill="#221F51"/>
<path d="M63.3157 120.558C63.3157 120.778 63.3157 120.985 63.3157 121.205C63.3157 121.684 63.0048 121.84 62.6034 121.853C62.2019 121.866 61.8781 121.71 61.8652 121.244C61.8522 120.765 61.8522 120.299 61.8652 119.819C61.8781 119.34 62.2149 119.185 62.6034 119.198C62.9919 119.211 63.3286 119.366 63.3157 119.845C63.3157 120.091 63.3157 120.324 63.3157 120.558Z" fill="#221F51"/>
<path d="M77.4577 105.716C82.4825 103.657 86.7044 100.51 90.1752 96.3658C90.7191 95.7182 91.2242 95.0318 91.8199 94.2677C89.0096 94.2677 86.3677 94.2677 83.7258 94.2548C83.402 94.2548 83.3373 94.4361 83.2596 94.6692C82.5861 96.6507 81.7314 98.5544 80.773 100.406C79.8147 102.271 78.5844 103.955 77.38 105.638C77.3282 105.651 77.2634 105.664 77.3023 105.742C77.3152 105.755 77.4059 105.729 77.4577 105.716ZM51.7118 105.716C51.7636 105.729 51.8543 105.768 51.8672 105.742C51.919 105.664 51.8543 105.651 51.7895 105.638C51.7766 105.6 51.7766 105.548 51.7507 105.522C49.1217 102.323 47.3086 98.6839 45.9747 94.7987C45.8193 94.3714 45.6121 94.2548 45.1847 94.2677C42.7629 94.2936 40.3541 94.2807 37.9453 94.2807C37.8028 94.2807 37.6474 94.203 37.5308 94.3584C37.5049 94.5138 37.6215 94.6045 37.6863 94.6951C40.121 98.0493 43.0867 100.821 46.5704 103.048C48.1892 104.097 49.8987 105.017 51.7118 105.716ZM92.066 67.5376C92.325 67.4599 92.5193 67.3952 92.7265 67.3434C94.695 66.7865 95.9253 65.4914 96.3527 63.5229C96.8189 61.3602 96.8059 59.1586 96.4045 56.9829C95.9771 54.6776 94.6043 53.2272 92.2862 52.7221C91.6904 52.5926 91.0947 52.489 90.486 52.489C85.3446 52.476 80.2291 52.476 75.0877 52.476C74.6603 52.476 74.3625 52.6314 74.1553 53.0329C73.6243 54.056 73.0544 55.0791 72.5105 56.0893C70.0499 60.6867 67.5893 65.2583 65.1287 69.8558C65.0121 70.0889 64.9474 70.3997 64.5588 70.3738C64.2221 70.3479 64.1703 70.0759 64.0538 69.8558C61.0233 64.3129 58.0058 58.7571 54.9883 53.2013C54.6905 52.6573 54.3149 52.4631 53.6933 52.4631C49.0569 52.489 44.4335 52.476 39.7843 52.476C39.0331 52.476 38.282 52.5278 37.5308 52.6314C34.6817 53.007 32.8557 54.5093 32.1563 57.0476C31.8585 58.1355 31.729 59.2492 31.716 60.363C31.6772 62.4998 31.6901 64.6367 31.7031 66.7606C31.7031 67.9909 31.8196 69.2212 32.1175 70.4127C32.6485 72.5236 33.8788 74.0259 36.0156 74.6734C37.1164 75.0102 38.2561 75.1397 39.3957 75.1526C43.6695 75.1656 47.9302 75.1656 52.2039 75.1526C52.968 75.1526 53.1493 74.9713 53.1493 74.1943C53.1623 73.3266 53.1493 72.4718 53.1493 71.6041C53.1493 70.6328 52.9939 70.4904 52.0226 70.4904C48.0079 70.4904 44.0062 70.4904 39.9915 70.4904C39.4087 70.4904 38.8259 70.4645 38.2561 70.335C37.233 70.0889 36.5855 69.4543 36.3912 68.4183C36.2746 67.7837 36.2099 67.1491 36.171 66.5016C36.1451 65.9576 36.2487 65.7763 36.8574 65.7763C41.8693 65.8022 46.8553 65.7893 51.8672 65.7893C52.8256 65.7893 53.0328 65.5821 53.0328 64.6108C53.0328 63.9633 53.0328 63.3157 53.0328 62.6682C53.0198 61.8653 52.7997 61.6321 51.9838 61.6321C49.4584 61.6321 46.933 61.6321 44.4206 61.6321C41.8564 61.6321 39.2792 61.6192 36.7279 61.6451C36.3005 61.6451 36.171 61.5415 36.184 61.1012C36.2099 60.4536 36.2746 59.8061 36.4041 59.1845C36.5855 58.2779 37.1294 57.6433 38.0489 57.3714C38.6835 57.1901 39.318 57.1512 39.9656 57.1512C43.6306 57.1512 47.2956 57.1642 50.9607 57.1383C51.3751 57.1383 51.5952 57.2548 51.8025 57.6433C54.5609 62.6811 57.3583 67.693 60.1038 72.7438C61.0104 74.4015 62.2795 75.308 64.2092 75.1656C64.507 75.1396 64.8178 75.1396 65.1157 75.1656C67.0454 75.3598 68.2757 74.4144 69.1563 72.7697C71.8889 67.693 74.6733 62.6552 77.4188 57.5786C77.6131 57.216 77.8332 57.0606 78.2606 57.0735C80.8119 57.0994 83.3502 57.0865 85.8885 57.0865C87.08 57.0865 88.2585 57.0735 89.45 57.1383C90.758 57.216 91.5091 57.993 91.5739 59.2881C91.6127 60.104 91.6127 60.9328 91.5739 61.7487C91.5091 63.0179 90.758 63.769 89.5018 63.8985C89.0744 63.9374 88.6341 63.9503 88.2067 63.9503C84.7748 63.9503 81.3558 63.9633 77.9239 63.9374C77.3282 63.9374 77.1987 64.1057 77.2246 64.6496C77.2764 65.5691 77.2634 66.5016 77.2246 67.434C77.1987 67.9261 77.3282 68.0816 77.8462 68.0816C80.6565 68.0557 83.4409 68.0816 86.2512 68.0557C86.6915 68.0557 86.9505 68.1981 87.2095 68.5478C88.6988 70.581 90.2011 72.5884 91.7034 74.5957C91.8976 74.8547 92.0789 75.1397 92.4545 75.1397C93.9179 75.1526 95.3943 75.1656 96.8577 75.1397C97.3887 75.1267 97.583 74.6734 97.298 74.2202C97.2203 74.0907 97.1167 73.987 97.0261 73.8575C95.3943 71.7595 93.7496 69.6874 92.066 67.5376ZM44.4076 49.3938C48.513 49.3938 52.5924 49.3938 56.6978 49.3808C57.3194 49.3808 57.8763 49.4844 58.4591 49.7175C59.8189 50.2485 61.0104 51.0515 62.15 51.9451C63.9502 53.3567 65.7762 52.9552 67.395 51.9062C68.2368 51.3623 69.0527 50.7666 69.9074 50.2356C70.9176 49.601 71.9925 49.3679 73.2099 49.3679C81.1616 49.4067 89.1262 49.3938 97.0779 49.3938C97.2463 49.3938 97.4276 49.3808 97.5959 49.3938C97.9844 49.4197 98.1398 49.2254 98.1398 48.8499C98.1398 48.2671 98.101 47.6843 98.1528 47.1015C98.2046 46.4669 97.9456 46.2856 97.3369 46.2986C95.0317 46.3245 92.7135 46.2986 90.4213 46.3245C89.968 46.3245 89.8385 46.2079 89.8514 45.7546C89.8903 44.9388 89.8773 44.1099 89.8514 43.294C89.8385 42.9703 89.9291 42.8149 90.2399 42.6594C90.9781 42.2968 91.2501 41.5975 91.0299 40.8075C90.8357 40.0823 90.2529 39.642 89.437 39.6808C89.1003 39.6938 88.9449 39.5901 88.7765 39.3182C86.8598 36.1323 84.9302 32.9594 83.0135 29.7736C82.871 29.5275 82.8192 29.3591 82.9876 29.0872C83.402 28.3749 83.2984 27.6626 82.7933 27.1187C82.3012 26.6136 81.6019 26.497 80.8896 26.8597C80.6694 26.9762 80.514 26.9892 80.3198 26.8338C78.7527 25.72 77.1857 24.6192 75.6187 23.5054C75.4115 23.363 75.3208 23.1946 75.3467 22.9097C75.4115 22.055 75.1136 21.524 74.4531 21.2132C73.8185 20.9153 73.1451 21.0578 72.5753 21.6406C72.3551 21.8607 72.1738 21.8996 71.8889 21.8219C71.1637 21.6147 70.4384 21.4333 69.7002 21.265C69.3894 21.1873 69.2081 21.0837 69.1304 20.7081C68.962 19.957 68.4052 19.5555 67.7058 19.5167C66.9676 19.4778 66.4237 19.7886 66.1518 20.5268C66.0223 20.8765 65.8021 20.8894 65.5172 20.9153C63.5357 21.0707 61.5672 21.2132 59.5987 21.4074C59.1325 21.4463 58.8217 21.4074 58.5238 20.9801C58.1094 20.3714 57.3971 20.203 56.7496 20.4361C56.128 20.6563 55.6617 21.2391 55.7006 21.9125C55.7265 22.3399 55.5452 22.5212 55.2214 22.7025C52.722 24.1012 50.2354 25.5128 47.7489 26.9244C47.5028 27.0669 47.3474 27.1057 47.0755 26.9244C46.3891 26.4711 45.5991 26.5618 45.0681 27.1057C44.5371 27.6367 44.4594 28.4137 44.8998 29.1131C45.0552 29.3721 45.0681 29.5663 44.9257 29.8254C43.4493 32.4543 41.9859 35.0833 40.5225 37.6994C40.38 37.9584 40.2634 38.1138 39.9008 38.1008C39.072 38.049 38.4892 38.5282 38.282 39.3052C38.1007 39.9916 38.4244 40.7557 39.1108 41.0924C39.4216 41.2478 39.4994 41.4162 39.4864 41.7399C39.4734 43.0091 39.4475 44.2912 39.4993 45.5604C39.5252 46.182 39.3957 46.4022 38.7094 46.3892C36.4171 46.3374 34.1378 46.3763 31.8585 46.3633C31.3016 46.3633 31.0555 46.5317 31.1073 47.1015C31.1462 47.503 31.1203 47.9174 31.1203 48.3318C31.1203 49.4067 31.1203 49.4067 32.1563 49.4067C36.2099 49.3938 40.3023 49.3938 44.4076 49.3938ZM54.82 78.1831C52.4629 78.1831 50.1189 78.196 47.7748 78.1701C47.2697 78.1701 47.1143 78.2737 47.1532 78.8047C47.3604 82.4697 47.8396 86.083 48.772 89.6314C48.8756 90.0329 49.0051 90.1365 49.4066 90.1365C53.5896 90.1236 57.7597 90.1236 61.9428 90.1365C62.4608 90.1365 62.5256 89.9552 62.5256 89.5019C62.5126 85.9275 62.4997 82.3532 62.5256 78.7788C62.5256 78.2349 62.3443 78.1572 61.8651 78.1572C59.5081 78.196 57.1511 78.1831 54.82 78.1831ZM73.4559 90.1365C75.1395 90.1365 76.8231 90.1365 78.5067 90.1365C80.3845 90.1365 80.3457 90.1365 80.7471 88.2716C81.4206 85.1246 81.835 81.9517 82.0163 78.7399C82.0422 78.2737 81.9386 78.1572 81.4724 78.1572C76.7065 78.1701 71.9536 78.1701 67.1749 78.1572C66.7734 78.1572 66.618 78.2349 66.6309 78.6752C66.6568 82.3273 66.6568 85.9534 66.6309 89.6055C66.6309 90.0588 66.7863 90.1235 67.1749 90.1235C69.2729 90.1365 71.3709 90.1495 73.4559 90.1365ZM84.6194 90.1365C87.7923 90.1365 90.8616 90.1365 93.9438 90.1365C94.164 90.1365 94.2676 90.0588 94.3712 89.8386C96.0677 86.3031 97.0649 82.5992 97.4405 78.7011C97.4794 78.2737 97.3369 78.1572 96.9225 78.1572C93.5165 78.1701 90.1234 78.1701 86.7174 78.1572C86.3159 78.1572 86.1735 78.2349 86.1475 78.6752C85.9921 82.5215 85.5259 86.3161 84.6194 90.1365ZM37.4013 78.1831C35.6789 78.1831 33.9435 78.196 32.2211 78.1701C31.7808 78.1701 31.6901 78.2996 31.729 78.714C32.0398 82.1719 32.9463 85.4613 34.2284 88.686C34.6688 89.7998 35.2256 90.2272 36.4818 90.1624C38.9943 90.0329 41.5326 90.1235 44.045 90.1106C44.2134 90.1106 44.6278 90.3308 44.4983 89.7868C43.5918 86.1347 43.1903 82.4179 43.0349 78.6622C43.009 78.209 42.8406 78.1442 42.465 78.1572C40.7685 78.196 39.0849 78.1831 37.4013 78.1831ZM50.3002 94.2937C50.3002 94.3714 50.2743 94.4102 50.2872 94.4491C51.5175 97.622 53.0846 100.588 55.2862 103.204C57.0863 105.328 59.1843 107.037 61.8781 107.892C62.422 108.06 62.5126 107.944 62.5126 107.413C62.4867 103.23 62.4997 99.0595 62.5126 94.8635C62.5126 94.3843 62.409 94.2418 61.9169 94.2548C58.1871 94.2807 54.4703 94.2677 50.7276 94.2677C50.5851 94.2677 50.4426 94.2807 50.3002 94.2937ZM66.6568 101.196C66.6568 103.307 66.6698 105.418 66.6439 107.516C66.6439 107.995 66.7604 108.047 67.1878 107.918C68.8584 107.4 70.3478 106.558 71.6687 105.418C75.0359 102.517 77.121 98.7746 78.7657 94.734C78.9211 94.3584 78.8175 94.2548 78.416 94.2548C74.6474 94.2677 70.8787 94.2677 67.1101 94.2548C66.6698 94.2548 66.6309 94.4361 66.6309 94.7987C66.6698 96.9356 66.6568 99.0595 66.6568 101.196Z" fill="#221F51"/>
<path d="M92.066 67.5377C93.7495 69.6745 95.3943 71.7725 97.039 73.8446C97.1297 73.9612 97.2333 74.0778 97.311 74.2073C97.5959 74.6605 97.4016 75.1138 96.8707 75.1268C95.4072 75.1527 93.9309 75.1268 92.4674 75.1268C92.0919 75.1268 91.9106 74.8548 91.7163 74.5828C90.214 72.5625 88.7118 70.5422 87.2224 68.5349C86.9764 68.1982 86.7174 68.0427 86.2641 68.0427C83.4538 68.0686 80.6694 68.0428 77.8591 68.0687C77.3411 68.0687 77.2116 67.9132 77.2375 67.4211C77.2763 66.4887 77.2893 65.5692 77.2375 64.6367C77.2116 64.0799 77.3411 63.9115 77.9368 63.9245C81.3687 63.9633 84.7877 63.9374 88.2196 63.9374C88.647 63.9374 89.0873 63.9244 89.5147 63.8856C90.7709 63.7561 91.522 63.005 91.5868 61.7358C91.6256 60.9199 91.6256 60.0911 91.5868 59.2752C91.522 57.9801 90.7709 57.2031 89.4629 57.1254C88.2844 57.0477 87.0929 57.0736 85.9015 57.0736C83.3502 57.0606 80.8118 57.0865 78.2735 57.0606C77.8462 57.0606 77.626 57.2031 77.4317 57.5657C74.6732 62.6294 71.9018 67.6801 69.1692 72.7568C68.2886 74.4015 67.0583 75.334 65.1286 75.1527C64.8308 75.1268 64.52 75.1268 64.2221 75.1527C62.2924 75.2951 61.0233 74.3886 60.1167 72.7309C57.3712 67.6801 54.5739 62.6682 51.8154 57.6304C51.6082 57.2419 51.388 57.1254 50.9736 57.1254C47.3086 57.1383 43.6435 57.1383 39.9785 57.1383C39.331 57.1383 38.6834 57.1772 38.0618 57.3585C37.1423 57.6304 36.6113 58.265 36.4171 59.1716C36.2876 59.8061 36.2228 60.4407 36.1969 61.0883C36.1839 61.5286 36.3135 61.6322 36.7408 61.6322C39.3051 61.6192 41.8822 61.6192 44.4335 61.6192C46.9589 61.6192 49.4843 61.6192 51.9967 61.6192C52.8126 61.6192 53.0327 61.8394 53.0457 62.6553C53.0586 63.3028 53.0457 63.9503 53.0457 64.5979C53.0457 65.5821 52.8385 65.7764 51.8801 65.7764C46.8682 65.7764 41.8822 65.7893 36.8703 65.7634C36.2617 65.7634 36.158 65.9448 36.1839 66.4887C36.2228 67.1362 36.2746 67.7837 36.4041 68.4054C36.5984 69.4414 37.2459 70.076 38.269 70.3221C38.8388 70.4516 39.4216 70.4775 40.0044 70.4775C44.0191 70.4775 48.0208 70.4775 52.0355 70.4775C53.0068 70.4775 53.1622 70.6199 53.1622 71.5912C53.1622 72.4589 53.1752 73.3137 53.1622 74.1814C53.1493 74.9713 52.9809 75.1397 52.2168 75.1397C47.9431 75.1397 43.6824 75.1397 39.4087 75.1397C38.256 75.1397 37.1293 74.9973 36.0285 74.6605C33.8787 74.013 32.6614 72.5107 32.1304 70.3998C31.8325 69.2083 31.716 67.978 31.716 66.7477C31.716 64.6108 31.6901 62.474 31.7289 60.3501C31.7548 59.2363 31.8714 58.1226 32.1693 57.0347C32.8556 54.5223 34.6687 53.0071 37.5179 52.6315C38.269 52.5279 39.0201 52.4761 39.7713 52.4761C44.4076 52.4761 49.031 52.489 53.6803 52.4631C54.2889 52.4631 54.6775 52.6444 54.9753 53.2013C57.9928 58.7571 61.0103 64.313 64.0408 69.8558C64.1573 70.076 64.2091 70.348 64.5459 70.3739C64.9344 70.3998 64.9991 70.076 65.1157 69.8558C67.5892 65.2713 70.0499 60.6868 72.4975 56.0893C73.0415 55.0662 73.6113 54.0561 74.1423 53.033C74.3495 52.6315 74.6474 52.4761 75.0747 52.4761C80.2161 52.489 85.3316 52.489 90.473 52.489C91.0817 52.489 91.6774 52.5926 92.2732 52.7221C94.5913 53.2272 95.9641 54.6777 96.3915 56.9829C96.7929 59.1586 96.8059 61.3602 96.3397 63.523C95.9123 65.4915 94.682 66.7865 92.7135 67.3434C92.5192 67.4082 92.325 67.46 92.066 67.5377Z" fill="white"/>
<path d="M44.4077 49.3807C40.3023 49.3807 36.2229 49.3807 32.1175 49.3807C31.0815 49.3807 31.0815 49.3807 31.0815 48.3058C31.0815 47.8914 31.1074 47.477 31.0685 47.0755C31.0167 46.4928 31.2628 46.3244 31.8197 46.3373C34.1119 46.3632 36.3912 46.3114 38.6705 46.3632C39.3569 46.3762 39.4864 46.156 39.4605 45.5344C39.4864 44.2005 39.4864 43.0349 39.4476 41.714C39.4346 41.4032 39.3828 41.2218 39.072 41.0664C38.3727 40.7297 38.0619 39.9656 38.2432 39.2792C38.4504 38.5022 39.0332 38.036 39.862 38.0748C40.2246 38.1007 40.3412 37.9453 40.4836 37.6734C41.9471 35.0444 43.4105 32.4154 44.8869 29.7994C45.0293 29.5404 45.0164 29.3461 44.8609 29.0871C44.4206 28.3878 44.5113 27.6107 45.0293 27.0797C45.5603 26.5488 46.3503 26.4452 47.0367 26.8984C47.3086 27.0797 47.477 27.0279 47.7101 26.8984C50.1966 25.4868 52.6961 24.0752 55.1826 22.6765C55.5064 22.4952 55.6877 22.3269 55.6618 21.8865C55.6229 21.2131 56.0762 20.6303 56.7108 20.4102C57.3583 20.1771 58.0706 20.3454 58.485 20.9541C58.7699 21.3944 59.0937 21.4333 59.5599 21.3815C61.5284 21.2002 63.5099 21.0447 65.4784 20.8893C65.7633 20.8634 65.9834 20.8634 66.1129 20.5008C66.3849 19.7756 66.9288 19.4518 67.667 19.4907C68.3793 19.5295 68.9232 19.931 69.0916 20.6821C69.1823 21.0577 69.3506 21.1613 69.6614 21.239C70.3996 21.4203 71.1248 21.6016 71.8501 21.7959C72.135 21.8736 72.3163 21.8477 72.5365 21.6146C73.1063 21.0318 73.7797 20.9023 74.4143 21.1872C75.0748 21.498 75.3856 22.016 75.3079 22.8837C75.282 23.1686 75.3727 23.3241 75.5799 23.4795C77.1469 24.5803 78.7139 25.694 80.2809 26.8078C80.4882 26.9502 80.6306 26.9373 80.8508 26.8337C81.5631 26.4711 82.2624 26.5876 82.7545 27.0927C83.2726 27.6237 83.3762 28.3489 82.9488 29.0612C82.7804 29.3461 82.8322 29.5145 82.9747 29.7476C84.9043 32.9334 86.834 36.1063 88.7377 39.2922C88.9061 39.5642 89.0615 39.6678 89.3982 39.6548C90.2141 39.616 90.7969 40.0563 90.9911 40.7815C91.1983 41.5715 90.9264 42.2579 90.2011 42.6335C89.8903 42.7889 89.8126 42.9443 89.8126 43.268C89.8126 44.071 89.8126 44.848 89.8126 45.7287C89.7867 46.1819 89.9292 46.3114 90.3824 46.2985C92.6877 46.2726 95.0058 46.3114 97.2981 46.2726C97.9068 46.2596 98.1658 46.441 98.114 47.0755C98.0622 47.6583 98.101 48.2411 98.101 48.8239C98.101 49.1994 97.9456 49.3937 97.5571 49.3678C97.3887 49.3548 97.2074 49.3678 97.0391 49.3678C89.0874 49.3678 81.1227 49.3937 73.1711 49.3419C71.9537 49.3289 70.8788 49.575 69.8686 50.2096C69.0139 50.7406 68.198 51.3363 67.3562 51.8802C65.7374 52.9292 63.8984 53.3307 62.1112 51.9191C60.9845 51.0255 59.7801 50.2225 58.4203 49.6916C57.8504 49.4714 57.2806 49.3549 56.659 49.3549C52.5925 49.3808 48.5001 49.3807 44.4077 49.3807ZM41.0535 38.3857C43.9155 36.5596 46.7776 34.7336 49.6397 32.9075C49.7692 32.8298 49.8469 32.7262 49.8469 32.5449C49.8599 31.8715 50.4815 31.8974 49.834 31.3794C49.575 31.2498 48.4094 30.3433 48.1116 30.1361C47.6324 29.8253 47.1403 29.3073 46.4409 29.7476C46.3244 29.8123 46.1431 29.8123 46.0006 29.7864C45.7286 29.7217 45.6121 29.8512 45.4955 30.0584C43.9803 32.8039 42.4651 35.5495 40.9499 38.2821C40.911 38.3339 40.898 38.3986 40.9628 38.4375C40.9758 38.4763 41.0276 38.4116 41.0535 38.3857ZM52.7479 30.8095C52.8256 30.7707 52.9033 30.7448 52.981 30.693C57.2806 27.7402 61.5673 24.8134 65.8669 21.8606C65.9575 21.7959 66.0482 21.7311 65.9705 21.5887C63.73 21.757 61.4766 21.9383 59.2362 22.1067C58.9771 22.1326 58.8476 22.2362 58.744 22.4952C58.5239 23.0391 58.0965 23.5183 57.4878 23.4536C56.7626 23.3759 56.5683 23.8162 56.3093 24.2824C56.2316 24.4378 56.141 24.5803 56.0503 24.7357C54.9236 26.743 53.7969 28.7374 52.6702 30.7318C52.6184 30.7448 52.5666 30.7707 52.6184 30.8354C52.6313 30.8613 52.709 30.8225 52.7479 30.8095ZM68.7678 29.7217C67.9908 29.8512 67.1619 29.9936 66.3331 30.1231C62.0723 30.8095 57.8375 31.5089 53.5767 32.1953C53.2789 32.2471 52.9939 32.2341 52.8644 32.6744C52.7349 33.1277 53.0717 33.1924 53.2659 33.3738C53.5638 33.6846 53.9134 33.9436 54.2372 34.2285C57.1382 36.7798 60.0132 39.3181 62.9141 41.8564C63.6394 42.491 64.6236 42.2708 64.9862 41.4032C65.5949 39.9786 66.2036 38.554 66.8123 37.1294C67.7059 35.0055 68.5995 32.8946 69.4931 30.7836C69.6873 30.3174 69.2988 29.7087 68.7678 29.7217ZM45.2624 46.3503C46.8165 46.3503 48.3706 46.3503 49.9246 46.3503C50.2614 46.3503 50.4945 46.3244 50.5074 45.8841C50.6499 41.973 50.8053 38.0619 50.9737 34.1508C50.9866 33.827 50.8571 33.7105 50.611 33.568C50.365 33.4126 50.1837 33.3867 49.9246 33.5551C47.1532 35.3423 44.3947 37.1294 41.6233 38.9037C41.3643 39.072 41.3254 39.2274 41.3643 39.5253C41.442 40.1987 41.17 40.7815 40.5354 41.0664C40.1728 41.2348 40.1469 41.442 40.1469 41.7658C40.1599 43.0997 40.1728 44.4466 40.134 45.7805C40.121 46.2855 40.2894 46.3762 40.7556 46.3762C42.2579 46.3374 43.7731 46.3503 45.2624 46.3503ZM51.155 45.7416C50.9866 46.2596 51.2327 46.3762 51.7766 46.3632C53.4343 46.3373 55.1049 46.4021 56.7626 46.3373C57.6562 46.2985 58.4591 46.4798 59.2491 46.8165C59.534 46.946 59.7153 46.9072 59.9484 46.7259C60.5442 46.2337 61.1788 45.7805 61.7874 45.2883C62.3961 44.7962 63.2509 44.4336 62.9012 43.3846C62.8882 43.3457 62.9012 43.2939 62.9271 43.2551C63.0695 42.9443 62.94 42.763 62.694 42.5428C59.3527 39.6289 56.0244 36.715 52.6961 33.7752C52.4759 33.581 52.2946 33.5421 52.0097 33.6587C51.7118 33.7752 51.6989 33.9565 51.6859 34.2026C51.5046 38.036 51.3363 41.8564 51.155 45.7416ZM65.9964 42.7759C66.1129 42.7371 66.2425 42.6982 66.359 42.6594C70.7234 41.2477 75.0748 39.8361 79.4391 38.4504C79.9054 38.308 79.996 38.023 80.1126 37.6475C80.2291 37.2589 79.9183 37.1553 79.7241 36.987C77.1987 34.9149 74.6604 32.8428 72.1479 30.7836C71.4616 30.2138 70.3867 30.4728 70.037 31.2887C69.1952 33.2702 68.3664 35.2516 67.5246 37.2201C66.8641 38.7871 66.1906 40.3412 65.5302 41.9082C65.3489 42.3615 65.582 42.8018 65.9964 42.7759ZM85.5519 46.2985C84.4122 44.1228 83.2984 42.0377 82.2106 39.9656C82.0681 39.6937 81.8609 39.6807 81.6149 39.7066C81.1745 39.7325 80.786 39.5901 80.5141 39.2663C80.268 38.9943 80.0608 38.9814 79.7241 39.085C75.3209 40.5225 70.9306 41.9341 66.5274 43.3587C66.3331 43.4235 66.0482 43.3975 66.0223 43.6825C65.9964 44.0062 66.3331 44.0062 66.5274 44.0839C68.3793 44.7833 70.2442 45.4697 72.0832 46.156C72.3293 46.2467 72.5753 46.3244 72.8343 46.3244C77.0692 46.2985 81.2522 46.2985 85.5519 46.2985ZM53.0069 31.5218C53.2012 31.5348 53.2659 31.5477 53.3307 31.5348C58.0965 30.7577 62.8494 29.9677 67.6152 29.2036C68.3664 29.0871 69.1823 29.1 69.3636 28.1028C69.3765 28.051 69.4413 27.9992 69.4931 27.9604C69.7262 27.7791 69.7003 27.5978 69.5967 27.3388C69.1693 26.2768 68.7678 25.2149 68.3793 24.1399C68.1074 23.3759 67.9649 22.5988 66.89 22.4823C66.5274 22.4434 66.2943 22.3916 65.9834 22.5988C64.2481 23.8032 62.4997 24.9817 60.7643 26.1732C58.2131 27.9474 55.6747 29.6958 53.0069 31.5218ZM81.2652 33.2054C81.2652 32.3895 81.2523 31.5736 81.2652 30.7448C81.2782 30.2008 81.3299 29.6828 80.6436 29.4756C80.4882 29.4238 80.3198 29.2296 80.255 29.0612C80.1255 28.7245 79.9054 28.6986 79.5946 28.7245C77.2764 28.9187 74.9582 29.1 72.666 29.2814C72.4329 29.2943 72.2127 29.2684 72.1091 29.5792C72.0055 29.89 72.2386 29.9548 72.394 30.0843C75.0359 32.26 77.6779 34.4228 80.3069 36.5855C80.5011 36.7539 80.6436 36.8186 80.9285 36.6891C81.2134 36.5467 81.2782 36.3913 81.2782 36.0934C81.2652 35.135 81.2652 34.1767 81.2652 33.2054ZM53.1882 28.3489C54.1725 26.6135 55.1567 24.8911 56.141 23.1816C56.0114 23.0521 55.9337 23.1039 55.856 23.1427C53.2271 24.6321 50.611 26.1214 48.008 27.6107C47.6453 27.8179 47.5547 28.854 47.8784 29.1C48.6037 29.6699 49.3548 30.2138 50.093 30.7707C50.1966 30.8484 50.3002 30.9649 50.4297 30.9131M82.107 29.7476C82.0552 29.7735 81.9904 29.7994 81.9386 29.8253C81.9386 31.9751 81.9386 34.1249 81.9386 36.2747C81.9386 36.5078 82.0681 36.5726 82.2365 36.6373C82.8193 36.8575 83.143 37.3237 83.1948 37.9194C83.2337 38.3209 83.415 38.4634 83.7517 38.5799C85.0856 39.085 86.3936 39.6289 87.7276 40.1469C87.8959 40.2117 88.0902 40.393 88.2585 40.2246C88.4917 39.9915 88.2067 39.8232 88.1161 39.6678C86.6656 37.246 85.2022 34.8372 83.7388 32.4413C83.1689 31.5477 82.638 30.6412 82.107 29.7476ZM89.1392 43.553C89.0356 43.0349 89.1003 42.75 88.6082 42.5299C88.1679 42.3356 87.9348 41.8953 87.9218 41.4291C87.9089 41.0276 87.7146 40.8851 87.3779 40.7556C86.0699 40.2505 84.7748 39.7196 83.4668 39.2145C83.2726 39.1368 83.0524 38.8907 82.8193 39.1238C82.5603 39.3829 82.8063 39.603 82.9099 39.8102C83.8812 41.6492 84.8914 43.4753 85.8109 45.3402M72.7825 28.5561C75.0489 28.3748 77.3282 28.2065 79.5816 28.0251C79.7629 28.0122 79.996 28.051 80.0737 27.8179C80.1773 27.5201 79.8795 27.4683 79.7241 27.3647C78.4938 26.497 77.2634 25.6293 76.0461 24.7486C75.3986 24.2954 74.8158 23.6478 73.9222 24.2306C73.8963 24.2565 73.8315 24.2565 73.7927 24.2436C73.4171 24.1658 73.2747 24.386 73.1322 24.6968C72.7307 25.5516 72.3034 26.3934 71.876 27.2351C71.5004 28.0381 71.8889 28.6079 72.7825 28.5561ZM68.4829 22.56C68.4959 22.5988 68.5218 22.6377 68.5347 22.6765C69.1175 24.1788 69.7003 25.6811 70.2701 27.1833C70.3478 27.3906 70.4644 27.4812 70.6975 27.5071C70.9306 27.533 71.0601 27.4294 71.1507 27.2351C71.6299 26.225 72.122 25.2278 72.6012 24.2176C72.653 24.114 72.7437 24.0234 72.666 23.868C72.2775 23.078 71.8889 22.3269 70.8011 22.301C70.296 22.288 69.8039 22.0549 69.3118 21.9383C69.0139 21.8606 68.4829 22.288 68.4829 22.56ZM70.9953 46.4669C69.2729 45.8193 67.68 45.2365 66.1 44.6408C65.8928 44.5631 65.7374 44.5761 65.582 44.7315C65.4266 44.8998 65.4913 45.0293 65.582 45.1977C66.0352 46.0913 66.4885 46.9978 66.9159 47.9044C67.0324 48.1504 67.1231 48.2929 67.4339 48.0986C68.4959 47.4123 69.6614 46.9331 70.9953 46.4669ZM64.8697 49.7822C65.3618 49.5621 65.8928 49.0958 66.4238 48.6426C66.5792 48.5131 66.4108 48.3576 66.359 48.2411C65.9057 47.3216 65.4266 46.4021 64.9603 45.4826C64.8956 45.3401 64.8308 45.1977 64.6495 45.2236C64.4423 45.2495 64.4812 45.4308 64.4553 45.5733C64.261 46.6482 64.0797 47.7231 63.8854 48.8109C63.7689 49.4196 64.0797 49.7952 64.8697 49.7822ZM63.1602 48.8886C63.3804 47.6583 63.5876 46.5705 63.7948 45.4697C63.8207 45.3013 63.8466 45.1329 63.6653 45.0164C63.484 44.8998 63.3545 44.9387 63.1991 45.0552C62.2796 45.7805 61.3471 46.4928 60.3629 47.2568C61.3342 47.7878 62.2666 48.2152 63.1602 48.8886Z" fill="white"/>
<path d="M54.8201 78.1831C57.1771 78.1831 59.5212 78.1961 61.8653 78.1702C62.3315 78.1702 62.5258 78.2479 62.5258 78.7918C62.4999 82.3662 62.4999 85.9405 62.5258 89.5149C62.5258 89.9682 62.474 90.1495 61.943 90.1495C57.7599 90.1236 53.5898 90.1366 49.4068 90.1495C49.0053 90.1495 48.8758 90.0459 48.7722 89.6444C47.8397 86.083 47.3606 82.4827 47.1534 78.8177C47.1275 78.2867 47.2829 78.1831 47.775 78.1831C50.1191 78.1961 52.4631 78.1831 54.8201 78.1831Z" fill="white"/>
<path d="M73.4561 90.1365C71.3581 90.1365 69.273 90.1235 67.188 90.1494C66.7865 90.1494 66.6311 90.0847 66.6441 89.6314C66.67 85.9793 66.67 82.3532 66.6441 78.7011C66.6441 78.2607 66.7865 78.1701 67.188 78.183C71.9538 78.196 76.7067 78.196 81.4855 78.183C81.9517 78.183 82.0553 78.2996 82.0294 78.7658C81.8481 81.9776 81.4337 85.1505 80.7603 88.2975C80.3588 90.1494 80.3847 90.1624 78.5198 90.1624C76.8232 90.1365 75.1397 90.1365 73.4561 90.1365Z" fill="white"/>
<path d="M84.6194 90.1366C85.5259 86.3161 85.9922 82.5345 86.1346 78.6882C86.1476 78.2479 86.303 78.1702 86.7045 78.1702C90.1105 78.1831 93.5035 78.1831 96.9095 78.1702C97.3369 78.1702 97.4794 78.2738 97.4276 78.7141C97.052 82.6122 96.0548 86.3161 94.3583 89.8516C94.2547 90.0588 94.1511 90.1495 93.9309 90.1495C90.8486 90.1366 87.7793 90.1366 84.6194 90.1366Z" fill="white"/>
<path d="M37.4014 78.1831C39.085 78.1831 40.7686 78.1961 42.4522 78.1702C42.8407 78.1702 43.0091 78.222 43.022 78.6752C43.1904 82.4309 43.5789 86.1348 44.4854 89.7998C44.615 90.3438 44.2135 90.1236 44.0322 90.1236C41.5068 90.1365 38.9814 90.0459 36.469 90.1754C35.2128 90.2402 34.6559 89.8128 34.2156 88.699C32.9335 85.4743 32.0269 82.1849 31.7161 78.727C31.6773 78.3126 31.7679 78.1702 32.2082 78.1831C33.9566 78.209 35.6661 78.1831 37.4014 78.1831Z" fill="white"/>
<path d="M50.3003 94.2935C50.4428 94.2805 50.5852 94.2676 50.7277 94.2676C54.4575 94.2676 58.1743 94.2805 61.917 94.2546C62.4092 94.2546 62.5257 94.3842 62.5128 94.8633C62.4869 99.0464 62.4869 103.216 62.5128 107.412C62.5128 107.956 62.4221 108.06 61.8782 107.892C59.1715 107.037 57.0735 105.327 55.2863 103.204C53.0847 100.6 51.5177 97.6218 50.2873 94.4489C50.2744 94.41 50.2874 94.3712 50.3003 94.2935Z" fill="white"/>
<path d="M66.657 101.196C66.657 99.0593 66.6699 96.9225 66.644 94.8115C66.644 94.4489 66.6829 94.2676 67.1232 94.2676C70.8918 94.2805 74.6605 94.2805 78.4291 94.2676C78.8306 94.2676 78.9212 94.3712 78.7788 94.7468C77.1341 98.7874 75.0361 102.53 71.6818 105.431C70.3609 106.571 68.8716 107.412 67.2009 107.931C66.7735 108.06 66.644 108.008 66.657 107.529C66.6699 105.405 66.657 103.307 66.657 101.196Z" fill="white"/>
<path d="M51.7119 105.716C49.8858 105.03 48.1893 104.097 46.5575 103.048C43.0738 100.821 40.1081 98.0363 37.6734 94.6951C37.5957 94.5915 37.4921 94.5138 37.518 94.3584C37.6216 94.203 37.7899 94.2807 37.9324 94.2807C40.3542 94.2807 42.763 94.2936 45.1718 94.2677C45.5992 94.2677 45.8193 94.3713 45.9618 94.7987C47.3087 98.6839 49.1217 102.323 51.7378 105.522C51.7637 105.548 51.7637 105.6 51.7766 105.638C51.7637 105.664 51.7378 105.69 51.7119 105.716Z" fill="white"/>
<path d="M77.3931 105.638C78.6104 103.942 79.8407 102.258 80.7861 100.406C81.7315 98.5413 82.5992 96.6376 83.2727 94.6691C83.3504 94.436 83.4151 94.2546 83.7389 94.2546C86.3938 94.2676 89.0357 94.2676 91.833 94.2676C91.2373 95.0317 90.7322 95.7181 90.1883 96.3656C86.7046 100.523 82.4827 103.657 77.4708 105.716C77.4319 105.69 77.419 105.664 77.3931 105.638Z" fill="white"/>
<path d="M77.4578 105.716C77.406 105.729 77.3153 105.755 77.3153 105.742C77.2765 105.664 77.3412 105.664 77.393 105.638C77.4189 105.664 77.4319 105.69 77.4578 105.716Z" fill="white"/>
<path d="M51.7896 105.638C51.8414 105.651 51.9062 105.677 51.8673 105.742C51.8544 105.755 51.7637 105.716 51.7119 105.716C51.7378 105.69 51.7637 105.664 51.7896 105.638Z" fill="white"/>
<path d="M68.7679 29.7216C69.2989 29.7087 69.6874 30.3174 69.4932 30.7965C68.5996 32.9204 67.706 35.0444 66.8124 37.1424C66.2037 38.5669 65.595 39.9915 64.9863 41.4161C64.6237 42.2838 63.6265 42.5039 62.9142 41.8693C60.0133 39.3181 57.1383 36.7797 54.2373 34.2414C53.9136 33.9565 53.5768 33.6845 53.266 33.3867C53.0847 33.2054 52.748 33.1406 52.8646 32.6873C52.9941 32.247 53.279 32.26 53.5768 32.2082C57.8376 31.5088 62.0725 30.8224 66.3332 30.1361C67.188 29.9936 68.0039 29.8511 68.7679 29.7216Z" fill="#221F51"/>
<path d="M45.2625 46.3632C43.7472 46.3632 42.245 46.3503 40.7297 46.3762C40.2635 46.3892 40.0952 46.2985 40.1081 45.7805C40.1211 44.4725 40.134 43.1126 40.1211 41.7658C40.1211 41.442 40.147 41.2348 40.5096 41.0664C41.1312 40.7815 41.4161 40.1987 41.3384 39.5253C41.2996 39.2145 41.3384 39.072 41.5974 38.9037C44.3818 37.1294 47.1403 35.3552 49.8988 33.5551C50.1578 33.3867 50.3391 33.4126 50.5852 33.568C50.8183 33.7105 50.9607 33.827 50.9478 34.1508C50.7794 38.0619 50.624 41.973 50.4816 45.8841C50.4686 46.3244 50.2355 46.3503 49.8988 46.3503C48.3706 46.3633 46.8165 46.3632 45.2625 46.3632Z" fill="#221F51"/>
<path d="M51.1549 45.7547C51.3232 41.8695 51.4916 38.062 51.6599 34.2286C51.6729 33.9826 51.6988 33.8013 51.9837 33.6847C52.2686 33.5681 52.437 33.607 52.6701 33.8013C55.9984 36.7411 59.3267 39.6549 62.668 42.5688C62.9011 42.7761 63.0435 42.9703 62.9011 43.2811C62.8881 43.32 62.8752 43.3718 62.8752 43.4106C63.2119 44.4596 62.3701 44.8223 61.7614 45.3144C61.1527 45.7936 60.5311 46.2598 59.9224 46.7519C59.6893 46.9332 59.508 46.9721 59.2231 46.8426C58.4331 46.4929 57.6302 46.3245 56.7366 46.3634C55.0789 46.4411 53.4212 46.3634 51.7506 46.3893C51.2455 46.3893 50.9994 46.2598 51.1549 45.7547Z" fill="#221F51"/>
<path d="M65.9963 42.7889C65.5819 42.8019 65.3488 42.3745 65.5431 41.9212C66.2036 40.3542 66.877 38.8001 67.5375 37.2331C68.3793 35.2517 69.2081 33.2702 70.0499 31.3017C70.3996 30.4858 71.4745 30.2268 72.1608 30.7966C74.6862 32.8687 77.2245 34.9409 79.737 37C79.9312 37.1684 80.242 37.272 80.1255 37.6605C80.0089 38.0361 79.9183 38.308 79.4521 38.4634C75.0747 39.8362 70.7363 41.2608 66.3719 42.6724C66.2424 42.7112 66.1259 42.7501 65.9963 42.7889Z" fill="#221F51"/>
<path d="M85.5517 46.3116C81.2521 46.3116 77.069 46.3116 72.8601 46.3116C72.6011 46.3116 72.355 46.2338 72.1089 46.1432C70.257 45.4568 68.3921 44.7704 66.5531 44.0711C66.3589 43.9934 66.0221 43.9934 66.048 43.6696C66.061 43.3847 66.3589 43.4106 66.5531 43.3459C70.9563 41.9213 75.3466 40.4967 79.7498 39.0721C80.0736 38.9685 80.2937 38.9815 80.5398 39.2535C80.8118 39.5772 81.2132 39.7197 81.6406 39.6938C81.8867 39.6808 82.0939 39.6808 82.2364 39.9528C83.3113 42.0508 84.4121 44.1358 85.5517 46.3116Z" fill="#221F51"/>
<path d="M53.0068 31.5347C55.6617 29.7086 58.213 27.9474 60.7643 26.199C62.4997 25.0076 64.248 23.8161 65.9834 22.6247C66.2942 22.4174 66.5273 22.4692 66.8899 22.5081C67.9648 22.6246 68.1073 23.4017 68.3793 24.1658C68.7678 25.2407 69.1692 26.3026 69.5966 27.3646C69.7002 27.6236 69.7261 27.8049 69.493 27.9862C69.4412 28.0251 69.3765 28.0769 69.3635 28.1287C69.1822 29.1388 68.3663 29.1129 67.6152 29.2295C62.8493 29.9936 58.0964 30.7836 53.3306 31.5606C53.2658 31.5606 53.2011 31.5476 53.0068 31.5347Z" fill="#221F51"/>
<path d="M81.2652 33.2054C81.2652 34.1767 81.2522 35.148 81.2652 36.1063C81.2652 36.3913 81.2004 36.5596 80.9155 36.7021C80.6436 36.8316 80.5011 36.7539 80.2939 36.5985C77.652 34.4228 75.01 32.26 72.381 30.0972C72.2256 29.9677 72.0055 29.903 72.0961 29.5922C72.1997 29.2814 72.4199 29.3073 72.653 29.2943C74.9712 29.113 77.2893 28.9317 79.5816 28.7374C79.8924 28.7115 80.1126 28.7374 80.2421 29.0741C80.3068 29.2425 80.4623 29.4368 80.6306 29.4886C81.317 29.6958 81.2652 30.2138 81.2522 30.7577C81.2522 31.5736 81.2652 32.3895 81.2652 33.2054Z" fill="#221F51"/>
<path d="M52.6831 30.7577C53.8098 28.7503 54.9365 26.7559 56.0632 24.7615C56.1539 24.6061 56.2445 24.4636 56.3222 24.3082C56.5813 23.842 56.7755 23.4017 57.5007 23.4794C58.0965 23.5441 58.5368 23.065 58.757 22.521C58.8606 22.2491 58.9901 22.1455 59.2491 22.1325C61.5025 21.9642 63.7559 21.7829 65.9834 21.6145C66.0611 21.7699 65.9705 21.8347 65.8798 21.8865C61.5802 24.8392 57.2935 27.7661 52.9939 30.7188C52.9292 30.7706 52.8385 30.7965 52.7608 30.8354C52.7349 30.7965 52.709 30.7836 52.6831 30.7577Z" fill="#221F51"/>
<path d="M49.7046 31.2759C50.4428 31.781 49.86 31.8976 49.847 32.571C49.847 32.7523 49.7693 32.8559 49.6398 32.9336C46.7777 34.7596 43.9156 36.5857 41.0535 38.4117C41.0276 38.3858 41.0017 38.3599 40.9629 38.334C42.4781 35.5885 43.9933 32.843 45.5086 30.1104C45.6251 29.9032 45.7417 29.7607 46.0136 29.8384C46.1561 29.8773 46.3374 29.8773 46.454 29.7996" fill="#221F51"/>
<path d="M56.1409 23.1946C55.1696 24.904 54.1724 26.6394 53.1882 28.3619C52.9809 28.7115 52.2428 30.0325 52.0355 30.3822C51.2067 31.8456 51.2715 30.6153 50.4297 30.939C50.2872 30.9908 50.1836 30.8743 50.0929 30.7966C49.3548 30.2397 48.6036 29.6958 47.8784 29.126C47.5546 28.8669 47.6453 27.8438 48.0079 27.6366C50.6239 26.1473 53.2529 24.658 55.856 23.1687C55.9337 23.1169 56.0114 23.0651 56.1409 23.1946Z" fill="#221F51"/>
<path d="M82.1071 29.7605C82.6381 30.6541 83.182 31.5477 83.713 32.4413C85.1764 34.8501 86.6398 37.2589 88.0903 39.6677C88.1809 39.8231 88.4659 39.9915 88.2327 40.2246C88.0514 40.393 87.8701 40.2117 87.7018 40.1469C86.3808 39.6289 85.0598 39.085 83.7259 38.5799C83.3892 38.4504 83.2079 38.3209 83.169 37.9194C83.1172 37.3237 82.8064 36.8704 82.2107 36.6373C82.0423 36.5725 81.9128 36.5078 81.9128 36.2747C81.9258 34.1249 81.9128 31.9751 81.9128 29.8253C81.9905 29.8123 82.0423 29.7864 82.1071 29.7605Z" fill="#221F51"/>
<path d="M89.0098 46.2078C88.686 46.4927 87.9349 46.3632 87.391 46.3243C86.8341 46.2855 86.3161 46.0265 85.8369 45.379C84.9174 43.5141 83.9073 41.688 82.936 39.849C82.8194 39.6289 82.5863 39.4087 82.8453 39.1626C83.0784 38.9295 83.2856 39.1756 83.4928 39.2533C84.8009 39.7584 86.0959 40.2893 87.4039 40.7944C87.7406 40.9239 87.9349 41.0534 87.9479 41.4679C87.9608 41.9341 88.1939 42.3744 88.6342 42.5687C89.1264 42.7888 89.1911 43.0737 89.1652 43.5918" fill="#221F51"/>
<path d="M72.7826 28.5692C71.889 28.621 71.5005 28.0382 71.889 27.2612C72.3034 26.4194 72.7438 25.5776 73.1452 24.7229C73.2877 24.425 73.4301 24.2049 73.8057 24.2696C73.8446 24.2826 73.8964 24.2696 73.9352 24.2567C74.8288 23.6609 75.4245 24.3214 76.0591 24.7747C77.2894 25.6424 78.5197 26.5101 79.7371 27.3907C79.8925 27.5073 80.1904 27.5591 80.0868 27.844C80.0091 28.0771 79.776 28.0382 79.5947 28.0512C77.3283 28.2196 75.0619 28.3879 72.7826 28.5692Z" fill="#221F51"/>
<path d="M68.4829 22.573C68.4829 22.3011 69.0139 21.8737 69.2988 21.9385C69.8039 22.055 70.296 22.2881 70.7881 22.3011C71.876 22.327 72.2516 23.0781 72.653 23.8681C72.7307 24.0235 72.6401 24.1142 72.5883 24.2178C72.1091 25.2279 71.6299 26.2251 71.1378 27.2353C71.0471 27.4295 70.9176 27.5202 70.6845 27.5072C70.4514 27.4813 70.3478 27.3907 70.2572 27.1835C69.6873 25.6812 69.1045 24.1789 68.5218 22.6767C68.5218 22.6508 68.4959 22.6119 68.4829 22.573Z" fill="#221F51"/>
<path d="M70.9953 46.48C69.6614 46.9462 68.4958 47.4253 67.4339 48.1117C67.136 48.306 67.0453 48.1635 66.9158 47.9175C66.4755 47.0109 66.0352 46.1044 65.5819 45.2108C65.5042 45.0424 65.4265 44.9129 65.5819 44.7446C65.7373 44.5762 65.8927 44.5762 66.0999 44.6539C67.6929 45.2367 69.2728 45.8324 70.9953 46.48Z" fill="#221F51"/>
<path d="M64.8698 49.7951C64.0798 49.7951 63.769 49.4196 63.8855 48.8238C64.0798 47.7489 64.2611 46.674 64.4554 45.5862C64.4813 45.4437 64.4424 45.2624 64.6496 45.2365C64.8439 45.2106 64.8957 45.366 64.9604 45.4955C65.4267 46.415 65.8929 47.3345 66.3591 48.254C66.4239 48.3706 66.5793 48.5389 66.4239 48.6555C65.8929 49.1087 65.3619 49.575 64.8698 49.7951Z" fill="#221F51"/>
<path d="M63.1601 48.9015C62.2795 48.2151 61.3341 47.7877 60.3628 47.2697C61.347 46.5056 62.2665 45.7933 63.199 45.0681C63.3544 44.9516 63.4839 44.8998 63.6652 45.0293C63.8465 45.1588 63.8336 45.3142 63.7947 45.4825C63.5875 46.5963 63.3803 47.6841 63.1601 48.9015Z" fill="#221F51"/>
<path d="M41.0535 38.3987C41.0275 38.4246 40.9887 38.4894 40.9757 38.4765C40.911 38.4376 40.9239 38.3728 40.9628 38.321C40.9887 38.3469 41.0275 38.3599 41.0535 38.3987Z" fill="#221F51"/>
<path d="M52.7479 30.8226C52.709 30.8355 52.6313 30.8744 52.6184 30.8614C52.5666 30.8096 52.6184 30.7708 52.6702 30.7578C52.709 30.7837 52.7349 30.7967 52.7479 30.8226Z" fill="#221F51"/>
<path d="M45.7546 30.3692C46.7917 30.3692 47.6324 29.5285 47.6324 28.4914C47.6324 27.4543 46.7917 26.6135 45.7546 26.6135C44.7174 26.6135 43.8767 27.4543 43.8767 28.4914C43.8767 29.5285 44.7174 30.3692 45.7546 30.3692Z" fill="white"/>
<path d="M64.6496 45.897C65.8297 45.897 66.7864 44.9403 66.7864 43.7601C66.7864 42.58 65.8297 41.6233 64.6496 41.6233C63.4694 41.6233 62.5127 42.58 62.5127 43.7601C62.5127 44.9403 63.4694 45.897 64.6496 45.897Z" fill="white"/>
<path d="M89.476 43.3069C90.6561 43.3069 91.6128 42.3502 91.6128 41.1701C91.6128 39.9899 90.6561 39.0332 89.476 39.0332C88.2958 39.0332 87.3391 39.9899 87.3391 41.1701C87.3391 42.3502 88.2958 43.3069 89.476 43.3069Z" fill="white"/>
<path d="M45.8839 30.4988C47.0641 30.4988 48.0208 29.5421 48.0208 28.362C48.0208 27.1818 47.0641 26.2251 45.8839 26.2251C44.7038 26.2251 43.7471 27.1818 43.7471 28.362C43.7471 29.5421 44.7038 30.4988 45.8839 30.4988Z" fill="white"/>
<path d="M51.4528 34.2544C52.6329 34.2544 53.5896 33.2977 53.5896 32.1176C53.5896 30.9374 52.6329 29.9807 51.4528 29.9807C50.2726 29.9807 49.3159 30.9374 49.3159 32.1176C49.3159 33.2977 50.2726 34.2544 51.4528 34.2544Z" fill="white"/>
<path d="M81.589 40.1988C82.7692 40.1988 83.7259 39.2421 83.7259 38.0619C83.7259 36.8818 82.7692 35.925 81.589 35.925C80.4089 35.925 79.4521 36.8818 79.4521 38.0619C79.4521 39.2421 80.4089 40.1988 81.589 40.1988Z" fill="white"/>
<path d="M81.589 30.3692C82.7692 30.3692 83.7259 29.4125 83.7259 28.2323C83.7259 27.0522 82.7692 26.0955 81.589 26.0955C80.4089 26.0955 79.4521 27.0522 79.4521 28.2323C79.4521 29.4125 80.4089 30.3692 81.589 30.3692Z" fill="white"/>
<path d="M70.5939 31.2757C71.774 31.2757 72.7307 30.319 72.7307 29.1388C72.7307 27.9587 71.774 27.002 70.5939 27.002C69.4137 27.002 68.457 27.9587 68.457 29.1388C68.457 30.319 69.4137 31.2757 70.5939 31.2757Z" fill="white"/>
<path d="M39.8102 41.753C40.9903 41.753 41.9471 40.7963 41.9471 39.6161C41.9471 38.436 40.9903 37.4792 39.8102 37.4792C38.63 37.4792 37.6733 38.436 37.6733 39.6161C37.6733 40.7963 38.63 41.753 39.8102 41.753Z" fill="white"/>
<path d="M73.702 24.9429C74.8822 24.9429 75.8389 23.9862 75.8389 22.806C75.8389 21.6259 74.8822 20.6692 73.702 20.6692C72.5219 20.6692 71.5652 21.6259 71.5652 22.806C71.5652 23.9862 72.5219 24.9429 73.702 24.9429Z" fill="white"/>
<path d="M67.6154 23.3889C68.7955 23.3889 69.7522 22.4322 69.7522 21.2521C69.7522 20.0719 68.7955 19.1152 67.6154 19.1152C66.4352 19.1152 65.4785 20.0719 65.4785 21.2521C65.4785 22.4322 66.4352 23.3889 67.6154 23.3889Z" fill="white"/>
<path d="M57.1381 24.0364C58.3182 24.0364 59.2749 23.0797 59.2749 21.8996C59.2749 20.7194 58.3182 19.7627 57.1381 19.7627C55.9579 19.7627 55.0012 20.7194 55.0012 21.8996C55.0012 23.0797 55.9579 24.0364 57.1381 24.0364Z" fill="white"/>
<path d="M64.3258 112.981C57.7469 112.981 51.3622 111.699 45.3531 109.161C39.5512 106.713 34.3321 103.217 29.8642 98.7486C25.3832 94.2807 21.8736 89.0875 19.413 83.3115C16.8747 77.3153 15.5796 70.9566 15.5796 64.4035C15.5796 57.8505 16.8747 51.4788 19.413 45.4956C21.8736 39.7067 25.3832 34.5135 29.8642 30.0584C34.3451 25.5905 39.5512 22.0938 45.3531 19.6461C51.3622 17.1078 57.7469 15.8257 64.3258 15.8257C70.9047 15.8257 77.2894 17.1078 83.2985 19.6461C89.1004 22.0938 94.3195 25.5905 98.7874 30.0584C103.268 34.5264 106.778 39.7196 109.239 45.4956C111.777 51.4917 113.072 57.8505 113.072 64.4035C113.072 70.9566 111.777 77.3283 109.239 83.3115C106.778 89.1004 103.268 94.2936 98.7874 98.7486C94.3065 103.217 89.1004 106.713 83.2985 109.161C77.2894 111.686 70.9047 112.981 64.3258 112.981ZM64.3258 16.4473C37.8029 16.4473 16.2271 37.9583 16.2271 64.3906C16.2271 90.8228 37.8029 112.334 64.3258 112.334C90.8487 112.334 112.424 90.8228 112.424 64.3906C112.412 37.9583 90.8358 16.4473 64.3258 16.4473Z" fill="white"/>
<path d="M64.3906 128.937C55.7007 128.937 47.2698 127.227 39.3311 123.873C31.6643 120.622 24.7746 115.973 18.8691 110.055C12.9506 104.136 8.31432 97.2334 5.06371 89.5666C1.70949 81.6149 0 73.1711 0 64.4683C0 55.7655 1.69654 47.3216 5.06371 39.3699C8.30137 31.6902 12.9506 24.8005 18.8691 18.882C24.7875 12.9636 31.6643 8.31432 39.3311 5.06371C47.2698 1.69654 55.7007 0 64.3906 0C73.0805 0 81.5113 1.70949 89.4501 5.06371C97.1169 8.31432 104.007 12.9636 109.912 18.882C115.831 24.8005 120.467 31.7032 123.717 39.3699C127.072 47.3216 128.781 55.7655 128.781 64.4683C128.781 73.1711 127.085 81.6149 123.717 89.5666C120.48 97.2464 115.831 104.136 109.912 110.055C103.994 115.973 97.1169 120.622 89.4501 123.873C81.5113 127.227 73.0805 128.937 64.3906 128.937ZM64.3906 0.841792C29.3591 0.841792 0.854743 29.385 0.854743 64.4553C0.854743 99.5386 29.3591 128.069 64.3906 128.069C99.4221 128.069 127.926 99.5257 127.926 64.4553C127.926 29.3721 99.4221 0.841792 64.3906 0.841792Z" fill="white"/>
</g>
<defs>
<filter id="filter0_d_0_12" x="-4" y="0" width="136.781" height="136.937" filterUnits="userSpaceOnUse" color-interpolation-filters="sRGB">
<feFlood flood-opacity="0" result="BackgroundImageFix"/>
<feColorMatrix in="SourceAlpha" type="matrix" values="0 0 0 0 0 0 0 0 0 0 0 0 0 0 0 0 0 0 127 0" result="hardAlpha"/>
<feOffset dy="4"/>
<feGaussianBlur stdDeviation="2"/>
<feComposite in2="hardAlpha" operator="out"/>
<feColorMatrix type="matrix" values="0 0 0 0 0 0 0 0 0 0 0 0 0 0 0 0 0 0 0.25 0"/>
<feBlend mode="normal" in2="BackgroundImageFix" result="effect1_dropShadow_0_12"/>
<feBlend mode="normal" in="SourceGraphic" in2="effect1_dropShadow_0_12" result="shape"/>
</filter>
</defs>
</svg>
