<svg width="76" height="76" viewBox="0 0 76 76" fill="none" xmlns="http://www.w3.org/2000/svg">
<g clip-path="url(#clip0_25_4546)">
<path d="M37.5363 74.9821C58.1127 74.9821 74.7931 58.2678 74.7931 37.6497C74.7931 17.0316 58.1127 0.317383 37.5363 0.317383C16.96 0.317383 0.279541 17.0316 0.279541 37.6497C0.279541 58.2678 16.96 74.9821 37.5363 74.9821Z" fill="#221F51"/>
<path d="M37.5212 74.34C17.2151 74.3324 0.770752 57.8805 0.770752 37.5744C0.770752 17.2759 17.2378 0.808852 37.5439 0.816409C57.8575 0.823966 74.3094 17.3061 74.2943 37.6273C74.2792 57.9107 57.8121 74.3475 37.5212 74.34ZM14.7817 56.8225C14.6155 57.3439 14.4492 57.8503 14.2829 58.3641C14.1167 58.8856 13.9353 59.407 13.7766 59.936C13.7162 60.1476 13.5877 60.1325 13.4365 60.1174C12.9227 60.0569 12.4088 59.9965 11.8949 59.9436C11.0863 59.8529 10.2852 59.7698 9.47659 59.6791C9.46148 59.7169 9.44636 59.7622 9.43125 59.8C17.1093 68.929 26.8505 73.7052 38.8588 73.2895C50.1039 72.8966 59.1044 67.9164 66.0494 59.135C64.6438 59.2408 63.2533 59.3768 61.8779 59.5582C61.5529 59.6035 61.4622 59.4599 61.3867 59.2105C61.1071 58.3188 60.8199 57.4271 60.5252 56.5202C54.4946 63.4652 46.9525 67.2514 37.7328 67.3194C28.5206 67.3798 20.9181 63.707 14.7817 56.8225ZM8.78889 37.5442C8.71332 53.3084 21.5454 66.2765 37.4078 66.3445C53.3005 66.4125 66.2913 53.5729 66.3064 37.6198C66.3291 21.7119 53.4517 8.82699 37.5514 8.81944C21.5907 8.80432 8.74355 21.8026 8.78889 37.5442ZM17.6761 14.0943C17.6988 14.3437 17.6383 14.5931 17.9104 14.7065C18.1749 14.8198 18.3638 14.6687 18.5527 14.51C18.7114 14.3739 18.8777 14.2379 19.0439 14.1019C19.1875 13.9885 19.1195 13.8978 19.0439 13.7845C18.9457 13.6409 18.8626 13.7089 18.7719 13.7845C18.6359 13.8978 18.5074 14.0188 18.3638 14.117C18.1598 14.2455 18.0615 14.1699 18.0615 13.9356C18.0615 13.8147 18.1069 13.724 18.1749 13.6258C18.5678 13.059 18.6283 12.4544 18.3865 11.8045C18.0917 10.9959 17.2 10.4745 16.3309 10.6332C15.5299 10.7767 14.9631 11.5098 14.9555 12.3713C14.9706 13.4444 16.0438 14.7669 17.6761 14.0943ZM46.6276 5.14666C46.6805 5.29781 46.7258 5.38849 46.7409 5.47917C46.9223 6.34825 47.1339 7.21732 47.2548 8.09395C47.3228 8.57005 47.5646 8.75142 47.9803 8.83455C48.1465 8.87234 48.207 8.827 48.2524 8.68341C48.5773 7.70098 48.9023 6.71855 49.2272 5.73612C49.2877 5.55475 49.2877 5.41116 49.0383 5.3507C48.804 5.29024 48.7209 5.33559 48.6907 5.57742C48.6755 5.721 48.6 5.85703 48.5546 6.00062C48.3204 6.71855 48.0861 7.42892 47.8518 8.15441C47.7309 8.07884 47.746 7.98815 47.7309 7.90502C47.542 6.99817 47.3228 6.0913 47.1717 5.17689C47.1037 4.77636 46.9072 4.63278 46.5671 4.54209C46.3706 4.48919 46.2648 4.47407 46.1892 4.72346C45.8945 5.70589 45.5696 6.68076 45.237 7.64808C45.1615 7.87479 45.2068 7.94281 45.4184 8.01082C45.6376 8.07884 45.698 8.01082 45.7585 7.81434C46.0381 6.93015 46.3253 6.06863 46.6276 5.14666ZM3.06057 34.8085C2.96988 35.1561 3.08324 35.2921 3.4611 35.3224C4.39818 35.3979 5.34283 35.5113 6.27236 35.6322C6.49907 35.6624 6.60487 35.6549 6.65022 35.3828C6.69556 35.073 6.5293 35.0881 6.33282 35.073C6.04564 35.0503 5.75847 35.0125 5.4713 34.9747C5.39573 34.9672 5.3126 34.9596 5.2597 34.9143C5.14635 34.816 5.35794 34.0074 5.50909 33.947C5.90206 33.7883 6.30259 33.6296 6.70312 33.4784C6.99029 33.3726 6.93739 33.1081 6.89205 32.9343C6.82403 32.6925 6.64266 32.9116 6.53686 32.9419C6.22702 33.0477 5.91717 33.161 5.63 33.3046C5.40329 33.418 5.32016 33.3424 5.24459 33.1384C5.07833 32.7152 4.75337 32.5111 4.31506 32.5036C3.86919 32.496 3.55179 32.7152 3.37041 33.1232C3.11347 33.6674 3.15125 34.2568 3.06057 34.8085ZM27.4551 6.88481C27.9916 6.34825 28.0823 5.9326 27.7725 5.42627C27.508 4.98796 26.9638 4.85193 26.3215 5.05598C25.8907 5.192 25.4675 5.34315 25.0368 5.49429C24.9385 5.53207 24.8176 5.54719 24.8781 5.721C25.2333 6.73366 25.5884 7.74632 25.921 8.75898C25.9965 8.99325 26.125 8.90257 26.2686 8.87234C26.4424 8.827 26.4802 8.72875 26.4197 8.57005C26.3064 8.25265 26.2006 7.93525 26.0948 7.61785C26.0721 7.54983 25.9965 7.45915 26.0797 7.42136C26.329 7.30801 26.5935 7.21732 26.858 7.14175C27.0167 7.09641 27.0923 7.27022 27.183 7.35335C27.4551 7.59518 27.712 7.85212 27.969 8.10906C28.1805 8.32066 28.4073 8.18464 28.5433 8.06372C28.6944 7.92769 28.4526 7.84456 28.377 7.76899C28.0899 7.45915 27.7649 7.17198 27.4551 6.88481ZM32.3521 7.27022C33.3345 7.28534 34.0978 6.52206 34.1205 5.50184C34.1431 4.4514 33.3799 3.59744 32.405 3.58233C31.4301 3.56722 30.6517 4.25491 30.614 5.36582C30.5762 6.39359 31.3999 7.25511 32.3521 7.27022ZM60.1851 12.8021C60.2607 12.8776 60.3287 12.9305 60.3891 12.991C60.7368 13.3311 61.0844 13.6787 61.432 14.0263C61.5832 14.1775 61.7041 14.1321 61.8477 13.9885C62.0064 13.8298 61.893 13.7543 61.7872 13.656C61.296 13.1875 60.8123 12.7189 60.3287 12.2428C60.1851 12.0992 60.0642 12.0766 59.9206 12.2277C59.1951 12.991 58.4621 13.7543 57.729 14.51C57.6005 14.6384 57.6383 14.6989 57.7517 14.8047C58.2731 15.2959 58.787 15.7947 59.2934 16.301C59.4596 16.4597 59.5578 16.4068 59.6939 16.2708C59.8526 16.1196 59.7543 16.0441 59.6485 15.9383C59.4143 15.7116 59.18 15.4773 58.9457 15.2506C58.3336 14.6611 58.3412 14.6611 58.9533 14.049C59.1044 13.9054 59.18 13.913 59.316 14.0565C59.6259 14.3739 59.9508 14.6611 60.2607 14.971C60.4269 15.1372 60.5101 15.0239 60.631 14.9181C60.767 14.7971 60.7217 14.7216 60.6159 14.6158C60.3816 14.4042 60.1624 14.1775 59.9357 13.9659C59.4521 13.5049 59.4521 13.5124 59.9357 13.0288C60.0113 12.9532 60.0944 12.8852 60.1851 12.8021ZM67.8178 36.6222C67.8254 36.6222 67.8254 36.6222 67.8329 36.6222C67.8329 36.985 67.8405 37.3553 67.8329 37.718C67.8254 37.8994 67.8934 37.9598 68.0748 37.9598C68.2486 37.9523 68.3695 37.9296 68.3468 37.7104C68.3166 37.3855 68.2939 37.0605 68.2939 36.728C68.2939 35.67 68.0445 35.9421 69.1328 35.8514C69.367 35.8287 69.4048 35.9345 69.4048 36.131C69.4124 36.5315 69.4351 36.9321 69.4577 37.3401C69.4653 37.4913 69.4199 37.6651 69.692 37.6575C69.9867 37.65 69.9338 37.4686 69.9263 37.3024C69.9187 37.0605 69.9187 36.8263 69.896 36.5844C69.8431 35.8136 69.8431 35.8212 70.6366 35.8136C70.8558 35.8136 70.9163 35.8816 70.9163 36.0856C70.9163 36.5769 70.9465 37.0681 70.9465 37.5593C70.9465 37.7785 71.0221 37.8314 71.2337 37.8314C71.4679 37.8314 71.4604 37.7029 71.4528 37.5442C71.4226 36.864 71.3924 36.1839 71.3772 35.5113C71.3697 35.2921 71.3092 35.2317 71.0901 35.2468C70.0699 35.2846 69.0496 35.3224 68.037 35.3375C67.7951 35.3451 67.7347 35.4433 67.7574 35.6624C67.78 35.9723 67.7951 36.2973 67.8178 36.6222ZM4.42086 46.6052C5.39573 46.3785 6.46885 46.1216 7.54952 45.8646C7.64776 45.8419 7.66288 45.7739 7.64021 45.6984C7.46639 44.9578 7.29258 44.2171 7.11121 43.4765C7.06586 43.2952 6.93739 43.3481 6.80892 43.3632C6.65022 43.3859 6.59732 43.4388 6.64266 43.6126C6.73335 43.9527 6.81647 44.2927 6.89205 44.6328C7.06586 45.4263 7.05831 45.4112 6.27992 45.6152C5.99275 45.6908 5.90962 45.6001 5.86428 45.3356C5.7887 44.92 5.67534 44.5119 5.5771 44.0962C5.5242 43.8846 5.37306 43.9678 5.24459 43.9829C5.07833 44.0056 5.101 44.0811 5.13879 44.2172C5.22191 44.527 5.28993 44.852 5.33527 45.1694C5.3655 45.3734 5.5771 45.6152 5.44863 45.7513C5.3126 45.8873 5.02543 45.8646 4.81383 45.9477C4.52666 46.0611 4.44353 45.9251 4.39819 45.6757C4.29994 45.1996 4.17903 44.7235 4.08078 44.2474C4.03544 44.0433 3.92209 44.0736 3.77094 44.1038C3.62736 44.134 3.55179 44.1567 3.59713 44.3456C3.77094 45.0333 3.92964 45.7361 4.0959 46.4314C4.13369 46.5599 4.16391 46.6581 4.42086 46.6052ZM63.4271 18.9989C64.1073 19.339 64.5229 19.3012 64.8932 18.878C65.2333 18.4926 65.1955 17.9258 64.795 17.359C64.5456 17.0114 64.2811 16.6789 64.0392 16.3313C63.9334 16.1801 63.8579 16.1725 63.7143 16.2783C62.8906 16.898 62.0593 17.5102 61.228 18.1072C61.0542 18.2357 61.092 18.3037 61.1902 18.4624C61.3111 18.6588 61.4169 18.5984 61.5454 18.5002C61.8552 18.2659 62.1651 18.0316 62.4976 17.7898C62.6109 17.9334 62.7016 18.077 62.8225 18.2054C63.0644 18.4473 63.1173 18.6891 62.9208 18.9914C62.7696 19.2181 62.6865 19.4901 62.5354 19.7244C62.3313 20.0343 62.4296 20.2459 62.7092 20.4575C62.9964 19.9965 63.1928 19.4901 63.4271 18.9989ZM41.4433 7.2022C42.1613 7.2022 42.7205 6.72611 42.8263 6.01574C42.917 5.37338 42.9926 4.72346 43.0984 4.0811C43.1437 3.82416 43.0833 3.73347 42.8263 3.69569C42.5467 3.6579 42.5467 3.8166 42.524 4.00553C42.4409 4.62522 42.3653 5.25246 42.2671 5.87215C42.1764 6.45405 41.8212 6.74122 41.2922 6.69588C40.7254 6.64298 40.4231 6.30291 40.476 5.69833C40.5365 5.04086 40.6272 4.37583 40.733 3.72591C40.7708 3.51431 40.7556 3.43119 40.5289 3.40096C40.3173 3.37829 40.1813 3.36317 40.1586 3.65034C40.1057 4.24736 40.0226 4.85193 39.9244 5.44139C39.7657 6.47672 40.3853 7.20976 41.4433 7.2022ZM8.31279 19.3012C8.13898 19.339 8.08608 19.5733 7.95005 19.732C7.80646 19.8982 7.89715 19.9889 7.98783 20.1098C8.64531 20.9487 9.29522 21.7951 9.96025 22.6339C10.0434 22.7397 10.1114 22.974 10.2701 22.8304C10.391 22.717 10.6328 22.5206 10.3608 22.2938C9.89224 21.916 9.93758 21.5155 10.3079 21.0998C10.3457 21.0545 10.3759 20.994 10.4061 20.9411C10.7689 20.3517 10.7689 20.3517 11.4641 20.4801C11.517 20.4877 11.5624 20.5104 11.6153 20.5028C11.8344 20.4801 11.8571 20.2685 11.9327 20.1249C11.9856 20.0191 11.842 19.9965 11.7664 19.9814C10.6328 19.7622 9.51438 19.543 8.31279 19.3012ZM7.217 25.7701C7.3757 25.7399 7.45883 25.7248 7.54952 25.7097C7.99539 25.6341 8.44126 25.5661 8.88714 25.4905C9.18942 25.4376 9.20454 25.1504 9.19698 24.9691C9.18942 24.7953 8.96271 24.9313 8.84935 24.9464C8.36569 25.0295 7.88203 25.1202 7.40593 25.2336C7.20189 25.2789 7.08853 25.2411 6.97517 25.0598C6.688 24.629 6.38572 24.2209 6.07587 23.8053C6.03053 23.7448 5.96252 23.5634 5.87183 23.7146C5.75847 23.9035 5.58466 24.1 5.81137 24.3569C6.08343 24.6668 6.30259 25.022 6.56709 25.3394C6.73335 25.5434 6.68044 25.5963 6.44617 25.6266C6.02297 25.687 5.60733 25.7777 5.18413 25.8382C4.88185 25.8835 4.81383 26.1404 4.85161 26.3445C4.8894 26.5636 5.10856 26.3898 5.22947 26.3747C5.66023 26.3067 6.09854 26.2236 6.52174 26.1178C6.76357 26.0573 6.88449 26.1253 7.01296 26.3142C7.30769 26.7526 7.61753 27.1758 7.91982 27.6065C7.97272 27.6821 8.08608 27.8332 8.13142 27.7274C8.20699 27.5385 8.46393 27.3647 8.23722 27.0926C7.88959 26.6845 7.57975 26.2462 7.217 25.7701ZM6.18167 39.5997C5.98519 39.6829 5.8945 39.7206 5.80381 39.7584C4.96497 40.0985 4.13368 40.4537 3.28728 40.7786C2.96988 40.8996 3.07568 41.1338 3.12858 41.3076C3.1966 41.5344 3.36286 41.353 3.46866 41.3076C4.43597 40.9147 5.39573 40.499 6.35549 40.1061C6.56709 40.0154 6.688 39.9247 6.6351 39.6677C6.5822 39.4335 6.69556 39.1614 6.30259 39.0632C5.28993 38.8138 4.29238 38.5115 3.28728 38.2319C3.18148 38.2017 3.04545 38.0732 2.94721 38.2243C2.86408 38.3452 2.92454 38.4964 2.94721 38.6324C2.97744 38.7987 3.1437 38.776 3.2495 38.8062C4.19414 39.0707 5.13878 39.3201 6.18167 39.5997ZM64.334 23.0949C64.3718 23.5937 64.5758 24.0471 64.999 24.3947C65.3617 24.6895 65.8076 24.7121 66.193 24.4627C66.5633 24.2285 66.6691 23.9186 66.5482 23.4199C66.4651 23.0571 66.3744 22.6868 66.2988 22.3241C66.261 22.1427 66.2988 21.9764 66.4726 21.8631C66.6465 21.7497 66.8278 21.7422 67.0016 21.848C67.4702 22.1125 67.6516 22.8304 67.319 23.2309C67.1301 23.4576 67.3417 23.571 67.4097 23.6692C67.4929 23.7902 67.5911 23.6163 67.6591 23.5483C67.7951 23.4123 67.8783 23.246 67.901 23.0496C67.9765 22.4752 67.7422 22.0142 67.3644 21.6213C67.0394 21.2812 66.6238 21.2132 66.2686 21.4097C65.9059 21.6061 65.7698 21.9235 65.8681 22.4072C65.9361 22.7246 66.0268 23.042 66.1175 23.3518C66.2081 23.6617 66.1552 23.9337 65.853 24.0924C65.5356 24.2587 65.2484 24.1529 65.0519 23.8884C64.7345 23.4728 64.5531 22.9815 64.9612 22.5583C65.135 22.3845 64.9914 22.2409 64.8932 22.1351C64.7421 21.9689 64.6816 22.188 64.6136 22.2561C64.4095 22.4752 64.3415 22.7548 64.334 23.0949ZM54.7288 11.8045C54.7288 11.7138 54.7213 11.676 54.7288 11.6458C54.9933 10.7012 55.2352 9.75652 55.5223 8.82699C55.6281 8.49448 55.3636 8.44914 55.2125 8.38112C55.0084 8.29044 55.0462 8.53982 55.0084 8.64562C54.8422 9.1973 54.691 9.74897 54.5399 10.3006C54.4114 10.7692 54.2905 11.2453 54.1545 11.7138C54.0487 12.0841 54.3812 12.1295 54.555 12.2957C54.7288 12.4544 54.8497 12.3713 55.0009 12.2579C55.8473 11.6231 56.7012 11.0035 57.5401 10.3687C57.6232 10.3082 57.8802 10.2629 57.7139 10.0966C57.593 9.97568 57.4418 9.7263 57.1773 9.94546C56.8599 10.21 56.5199 10.4518 56.1874 10.7012C55.7113 11.0639 55.2427 11.4191 54.7288 11.8045ZM23.7521 9.87744C22.9057 9.15195 22.0517 8.42647 21.2204 7.68586C21.0164 7.50449 20.8803 7.44403 20.6158 7.59518C20.3589 7.73876 20.306 7.89746 20.3513 8.16196C20.5327 9.25775 20.7065 10.3535 20.8955 11.472C21.0542 11.3586 21.3489 11.4191 21.296 11.0866C21.1751 10.3233 21.1751 10.3233 21.8325 9.96813C21.9308 9.91523 22.0366 9.86988 22.1273 9.79431C22.4749 9.5147 22.7772 9.49958 23.0719 9.87744C23.2684 10.1722 23.5102 10.1722 23.7521 9.87744ZM67.8103 41.3228C67.6213 41.2472 67.5609 41.3681 67.5231 41.5873C67.4778 41.8366 67.5987 41.8744 67.8027 41.8971C68.6415 42.0029 69.4728 42.1314 70.3117 42.2296C70.546 42.2598 70.6064 42.3279 70.546 42.5546C70.4931 42.7737 70.493 43.0005 70.4553 43.2272C70.4326 43.401 70.5233 43.4388 70.6669 43.4539C70.818 43.469 70.9314 43.4766 70.9616 43.2725C71.0674 42.479 71.1732 41.678 71.2866 40.8844C71.3092 40.7106 71.2941 40.6048 71.075 40.5822C70.8558 40.5595 70.7802 40.6275 70.7651 40.8391C70.75 41.0356 70.6895 41.2396 70.6895 41.4361C70.6895 41.7006 70.5762 41.7006 70.3646 41.6704C69.5333 41.5419 68.6945 41.4361 67.8103 41.3228ZM67.2132 31.506C67.1906 31.7705 67.2964 31.8536 67.576 31.7856C68.1957 31.642 68.8305 31.5287 69.4577 31.4002C70.3117 31.2264 70.3117 31.2264 70.493 32.0728C70.5308 32.2315 70.5308 32.3826 70.7953 32.3297C71.0523 32.2768 70.9994 32.1257 70.9692 31.9746C70.8256 31.2264 70.6744 30.4782 70.5308 29.7225C70.5006 29.5487 70.4401 29.458 70.2361 29.5034C70.0396 29.5412 69.9867 29.6394 70.0396 29.8132C70.085 29.9795 70.1228 30.1533 70.1681 30.3195C70.2437 30.5992 70.1681 30.7276 69.8507 30.7805C69.0572 30.909 68.2713 31.0828 67.4853 31.2415C67.3342 31.2717 67.1452 31.2642 67.2132 31.506ZM11.1392 15.5075C10.9805 15.5604 10.92 15.6964 10.8293 15.7947C10.7462 15.8854 10.8142 15.9761 10.8973 16.0516C11.6984 16.7544 12.4919 17.4648 13.2854 18.1676C13.3836 18.2508 13.4668 18.2961 13.565 18.1752C14.0109 17.6537 14.4643 17.1323 14.9177 16.6109C15.0764 16.4295 14.9253 16.3539 14.8271 16.2481C14.7061 16.1121 14.6306 16.1725 14.5399 16.2859C14.2527 16.6335 13.9353 16.9585 13.6557 17.3137C13.497 17.5102 13.3988 17.5102 13.2174 17.3439C12.6128 16.7847 11.9856 16.2406 11.3659 15.6964C11.2903 15.6209 11.2147 15.5604 11.1392 15.5075ZM70.0245 46.7941C70.2663 46.8546 70.1757 46.575 70.2512 46.4541C70.3721 46.2576 70.1983 46.2576 70.085 46.2274C69.4577 46.0535 68.8229 45.8873 68.1957 45.7135C67.7951 45.6077 67.3946 45.5019 67.0016 45.381C66.7372 45.3054 66.7523 45.5321 66.6994 45.6606C66.6389 45.789 66.6691 45.8948 66.8354 45.9402C67.8858 46.2047 68.9212 46.4919 70.0245 46.7941ZM52.6431 6.99061C52.5902 6.84702 52.4315 6.83947 52.3181 6.77145C52.1821 6.68832 52.1065 6.77901 52.0536 6.89236C51.5926 7.83701 51.1392 8.78165 50.6631 9.71118C50.5497 9.93034 50.648 9.98324 50.7991 10.0739C50.988 10.1797 51.0863 10.1419 51.177 9.95301C51.6228 9.03104 52.0763 8.11662 52.5297 7.2022C52.5675 7.13419 52.6053 7.06618 52.6431 6.99061ZM66.3139 27.8332C66.3593 27.8181 66.3895 27.803 66.4273 27.7955C67.4249 27.4554 68.4224 27.1077 69.4275 26.7677C69.6467 26.6921 69.556 26.5863 69.5106 26.4578C69.4653 26.3218 69.4653 26.1858 69.2461 26.2613C68.241 26.6165 67.2284 26.9642 66.2157 27.3118C66.1023 27.3496 66.0192 27.41 66.1023 27.5234C66.1779 27.6216 66.125 27.8181 66.3139 27.8332Z" fill="white"/>
<path d="M37.5361 73.9541C32.624 73.9541 27.863 72.9943 23.374 71.0899C19.0438 69.2611 15.1518 66.6312 11.8116 63.291C8.47132 59.9507 5.84899 56.0588 4.0126 51.7285C2.11575 47.2396 1.14844 42.4785 1.14844 37.5664C1.14844 32.6543 2.1082 27.8932 4.0126 23.4043C5.84899 19.074 8.47132 15.1821 11.8116 11.8419C15.1518 8.50159 19.0438 5.87926 23.374 4.04287C27.863 2.14602 32.624 1.17871 37.5361 1.17871C42.4483 1.17871 47.2093 2.13847 51.6982 4.04287C56.0285 5.87926 59.9204 8.50159 63.2607 11.8419C66.6009 15.1821 69.2233 19.074 71.0597 23.4043C72.9565 27.8932 73.9238 32.6543 73.9238 37.5664C73.9238 42.4785 72.9641 47.2396 71.0597 51.7285C69.2233 56.0588 66.6009 59.9507 63.2607 63.291C59.9204 66.6312 56.0285 69.2535 51.6982 71.0899C47.2093 72.9943 42.4407 73.9541 37.5361 73.9541ZM37.5361 8.74342C21.6359 8.74342 8.69804 21.6813 8.69804 37.5815C8.69804 53.4818 21.6359 66.4196 37.5361 66.4196C53.4364 66.4196 66.3742 53.4818 66.3742 37.5815C66.3667 21.6737 53.4364 8.74342 37.5361 8.74342Z" fill="white"/>
<path d="M14.8422 56.7542C20.9786 63.6312 28.5811 67.3115 37.8008 67.2435C47.0281 67.1755 54.5701 63.3894 60.5932 56.4443C60.8803 57.3512 61.1751 58.2429 61.4547 59.1347C61.5303 59.3841 61.621 59.5277 61.9459 59.4823C63.3289 59.3085 64.7118 59.1649 66.1175 59.0591C59.1724 67.8405 50.1643 72.8207 38.9268 73.2137C26.9185 73.6369 17.1622 68.8607 9.49927 59.7241C9.51438 59.6864 9.52949 59.641 9.54461 59.6032C10.3532 59.6939 11.1543 59.777 11.9629 59.8677C12.4768 59.9282 12.9907 59.9811 13.5046 60.0415C13.6633 60.0567 13.7842 60.0718 13.8446 59.8602C13.9958 59.3312 14.1771 58.8097 14.351 58.2883C14.5097 57.7895 14.6759 57.2756 14.8422 56.7542ZM35.4203 70.3117C35.4203 70.4477 35.4127 70.5913 35.4203 70.7274C35.443 71.2941 35.8888 71.7173 36.4783 71.7249C37.098 71.74 37.5439 71.3697 37.5816 70.7878C37.5968 70.5233 37.5892 70.2588 37.5892 69.9943C37.5816 69.4351 37.2869 69.0648 36.7881 68.9665C36.2062 68.8532 35.7377 69.0799 35.5034 69.5711C35.3901 69.8129 35.4354 70.0623 35.4203 70.3117ZM38.9873 71.075C39.1838 70.8936 39.3198 70.7803 39.4331 70.6518C39.5616 70.5158 39.6977 70.3797 39.7959 70.221C40.0302 69.8507 39.9848 69.4653 39.6825 69.2008C39.2367 68.8078 38.4583 68.8607 38.088 69.3293C38.0275 69.4049 37.831 69.5484 37.9897 69.6165C38.1635 69.692 38.3449 70.017 38.5868 69.7374C38.7606 69.5409 38.9722 69.4426 39.1686 69.6316C39.3802 69.8281 39.1989 70.017 39.0629 70.1832C38.9873 70.2664 38.9042 70.3495 38.821 70.4251C38.5792 70.6518 38.3449 70.8709 38.1031 71.0901C37.9444 71.2337 37.9822 71.4226 38.0124 71.5813C38.0502 71.7551 38.224 71.672 38.3298 71.672C38.7832 71.6796 39.2367 71.6644 39.6901 71.6796C39.879 71.6871 39.9395 71.6342 39.9546 71.4302C39.9697 71.1354 39.8866 71.0221 39.5843 71.0599C39.418 71.0977 39.2518 71.075 38.9873 71.075ZM41.3905 71.075C41.5643 70.9087 41.6852 70.8029 41.791 70.6971C41.9119 70.5687 42.0404 70.4477 42.1386 70.3042C42.4485 69.8583 42.3729 69.4124 41.9572 69.1252C41.4811 68.7927 40.7254 68.9439 40.4231 69.4275C40.3778 69.4955 40.2796 69.6089 40.4005 69.6467C40.6121 69.7147 40.801 70.0548 41.0655 69.692C41.194 69.5182 41.3905 69.5107 41.5718 69.6316C41.7834 69.7827 41.6701 69.9339 41.5567 70.0774C41.466 70.1908 41.3678 70.3042 41.2544 70.41C41.005 70.6518 40.7481 70.8936 40.4836 71.1279C40.3173 71.2715 40.3778 71.4604 40.408 71.6191C40.4383 71.7551 40.6045 71.6796 40.7028 71.6871C41.1637 71.6947 41.6323 71.6796 42.1008 71.6947C42.2973 71.7022 42.3427 71.6342 42.3578 71.4377C42.3804 71.1279 42.2671 71.0372 41.9799 71.075C41.8212 71.0901 41.6474 71.075 41.3905 71.075ZM34.0751 71.075C34.3396 70.7954 34.6041 70.6216 34.7779 70.3646C34.9366 70.1379 35.0727 69.9036 34.982 69.6013C34.8837 69.2462 34.6419 69.0497 34.3018 68.9741C33.8484 68.8759 33.4479 68.9892 33.1607 69.3595C33.1078 69.42 32.8887 69.5409 33.1003 69.6391C33.2665 69.7147 33.4328 69.9641 33.6444 69.76C33.8409 69.5711 34.0525 69.4351 34.2565 69.6391C34.4832 69.8658 34.2641 70.0774 34.0978 70.2437C33.8031 70.5309 33.5008 70.818 33.1985 71.0977C33.0398 71.2412 33.0776 71.4302 33.1078 71.5889C33.138 71.7627 33.3194 71.6796 33.4252 71.6796C33.8635 71.6871 34.3018 71.672 34.7477 71.6871C35.0047 71.7022 35.05 71.604 35.0576 71.3697C35.0651 71.0977 34.9593 71.0523 34.7326 71.0674C34.5286 71.0901 34.3321 71.075 34.0751 71.075ZM32.1027 69.7298C31.7626 69.7298 31.5057 69.9792 31.5057 70.3193C31.5057 70.6593 31.7551 70.9238 32.0876 70.9314C32.4201 70.939 32.6846 70.6669 32.6922 70.3344C32.6922 70.0019 32.4352 69.7374 32.1027 69.7298ZM43.3326 69.7298C43.0001 69.7298 42.7432 69.9868 42.7356 70.3193C42.7281 70.6518 42.9926 70.9238 43.3175 70.9238C43.6576 70.9314 43.9448 70.6442 43.9372 70.3117C43.9372 69.9943 43.6652 69.7374 43.3326 69.7298Z" fill="#221F51"/>
<path d="M35.4202 70.3119C35.4278 70.0625 35.39 69.8131 35.5034 69.5713C35.7376 69.08 36.2062 68.8533 36.7881 68.9667C37.2868 69.0649 37.5816 69.4352 37.5891 69.9945C37.5967 70.259 37.6042 70.5235 37.5816 70.788C37.5438 71.3699 37.0979 71.7326 36.4782 71.725C35.8888 71.7099 35.4353 71.2943 35.4202 70.7275C35.4202 70.5839 35.4202 70.4479 35.4202 70.3119ZM36.9468 70.3496C36.9468 70.2136 36.9468 70.07 36.9468 69.934C36.9468 69.6544 36.7578 69.5637 36.5311 69.5561C36.3044 69.5486 36.1079 69.6393 36.1004 69.9189C36.0928 70.1985 36.0928 70.4706 36.1004 70.7502C36.1079 71.0298 36.2969 71.1129 36.5311 71.1054C36.7654 71.0978 36.9468 71.0147 36.9468 70.7275C36.9468 70.6066 36.9468 70.4781 36.9468 70.3496Z" fill="white"/>
<path d="M38.9873 71.0753C39.2518 71.0753 39.4256 71.0904 39.5995 71.0678C39.9017 71.03 39.9849 71.1433 39.9698 71.4381C39.9546 71.6421 39.8942 71.695 39.7053 71.6874C39.2518 71.6723 38.7984 71.6874 38.345 71.6799C38.2316 71.6799 38.0578 71.763 38.0276 71.5892C37.9973 71.4305 37.9596 71.2416 38.1183 71.098C38.3601 70.8788 38.6019 70.6597 38.8362 70.433C38.9193 70.3574 39.0024 70.2818 39.078 70.1911C39.214 70.0249 39.3954 69.8284 39.1838 69.6395C38.9873 69.4581 38.7757 69.5488 38.6019 69.7453C38.3525 70.0249 38.1787 69.6924 38.0049 69.6243C37.8462 69.5563 38.0427 69.4127 38.1031 69.3372C38.4659 68.8686 39.2518 68.8157 39.6977 69.2087C39.9924 69.4732 40.0453 69.8662 39.8111 70.2289C39.7128 70.3876 39.5768 70.5236 39.4483 70.6597C39.3047 70.7806 39.1838 70.8939 38.9873 71.0753Z" fill="white"/>
<path d="M41.3904 71.0752C41.6473 71.0752 41.8211 71.0904 41.9874 71.0752C42.2746 71.0375 42.3879 71.1357 42.3652 71.438C42.3501 71.6345 42.3048 71.6949 42.1083 71.6949C41.6473 71.6798 41.1788 71.6949 40.7102 71.6874C40.612 71.6874 40.4457 71.7629 40.4155 71.6194C40.3853 71.4607 40.3248 71.2717 40.4911 71.1281C40.748 70.8939 41.005 70.652 41.2619 70.4102C41.3677 70.3044 41.4659 70.1911 41.5642 70.0777C41.6775 69.9341 41.7833 69.7754 41.5793 69.6318C41.3979 69.5033 41.2014 69.5185 41.073 69.6923C40.816 70.055 40.6195 69.7074 40.4079 69.6469C40.287 69.6092 40.3853 69.4958 40.4306 69.4278C40.7329 68.9441 41.4962 68.8005 41.9647 69.1255C42.3804 69.4127 42.4559 69.8661 42.1461 70.3044C42.0478 70.448 41.9194 70.5689 41.7985 70.6974C41.6851 70.8107 41.5642 70.909 41.3904 71.0752Z" fill="white"/>
<path d="M34.0753 71.0752C34.3398 71.0752 34.5287 71.0903 34.7252 71.0752C34.9519 71.0601 35.0577 71.1054 35.0501 71.3775C35.0426 71.6193 34.9972 71.71 34.7403 71.6949C34.302 71.6722 33.8637 71.6949 33.4178 71.6873C33.3044 71.6873 33.1306 71.7704 33.1004 71.5966C33.0702 71.4379 33.0324 71.249 33.1911 71.1054C33.4934 70.8258 33.7957 70.5386 34.0904 70.2515C34.2642 70.0852 34.4834 69.8812 34.2491 69.6469C34.045 69.4428 33.8259 69.5789 33.637 69.7678C33.4329 69.9718 33.2591 69.7225 33.0928 69.6469C32.8812 69.5486 33.1004 69.4277 33.1533 69.3673C33.4405 68.9894 33.8486 68.8836 34.2944 68.9818C34.6345 69.0574 34.8763 69.2539 34.9746 69.6091C35.0653 69.9114 34.9217 70.1456 34.7705 70.3724C34.6043 70.6218 34.3398 70.7956 34.0753 71.0752Z" fill="white"/>
<path d="M32.1028 69.7295C32.4353 69.7295 32.6998 70.0015 32.6923 70.3341C32.6847 70.6666 32.4202 70.9311 32.0877 70.9311C31.7552 70.9235 31.4982 70.659 31.5058 70.319C31.5058 69.9864 31.7627 69.7295 32.1028 69.7295Z" fill="white"/>
<path d="M43.3325 69.7295C43.665 69.7295 43.9295 69.9864 43.9371 70.319C43.9447 70.6515 43.6575 70.9386 43.3174 70.9311C42.9849 70.9235 42.728 70.659 42.7355 70.3265C42.7431 69.9864 43 69.7295 43.3325 69.7295Z" fill="white"/>
<path d="M6.65778 37.9976L6.81648 40.6728L3.07569 40.8995L2.91699 38.2621L3.30996 38.2394L3.43843 40.4083L4.66269 40.3327L4.54934 38.3981L4.94231 38.3754L5.05567 40.31L6.39328 40.2269L6.25725 38.0202L6.65778 37.9976Z" fill="#221F51"/>
<path d="M3.03027 40.9372L2.86401 38.2242L3.33256 38.194L3.46103 40.3629L4.60971 40.2949L4.49636 38.3602L4.9649 38.33L5.07826 40.2646L6.3403 40.1891L6.20428 37.9824L6.68793 37.9521L6.85419 40.703H6.8164L3.03027 40.9372ZM2.94714 38.2998L3.09828 40.8617L6.7635 40.6425L6.61236 38.0428L6.27985 38.058L6.41588 40.2646L5.00269 40.3553L4.88933 38.4207L4.57193 38.4358L4.68529 40.3704L3.38545 40.4536L3.25699 38.2847L2.94714 38.2998Z" fill="#221F51"/>
<path d="M6.85454 34.3474L6.78652 35.1258L2.93237 36.078L2.97772 35.5792L6.60515 34.7177L3.19687 33.2063L3.24222 32.7075L6.85454 34.3474Z" fill="#221F51"/>
<path d="M2.88672 36.123L2.93962 35.5487L6.48392 34.7098L3.15122 33.2286L3.20412 32.6543L6.89201 34.3244L6.81644 35.1557L2.88672 36.123ZM3.00763 35.6016L2.96985 36.0172L6.74842 35.0877L6.80888 34.3622L3.26458 32.7601L3.22679 33.1757L6.7182 34.7174L3.00763 35.6016Z" fill="#221F51"/>
<path d="M6.4914 28.8454L8.01039 28.4751L7.88192 28.989L6.16645 29.3971L5.89439 30.4778L7.40582 30.8632L7.29246 31.3242L3.65747 30.4022L4.06555 28.8001C4.12601 28.5582 4.22426 28.3466 4.36029 28.1804C4.49631 28.0066 4.65502 27.8857 4.84394 27.8176C5.03287 27.7496 5.22936 27.7421 5.44096 27.795C5.73569 27.8705 5.95485 28.0292 6.09088 28.2711C6.2269 28.5129 6.2798 28.8001 6.23446 29.125C6.29492 28.9588 6.37805 28.8681 6.4914 28.8454ZM5.8037 29.2611C5.86416 29.0117 5.8566 28.7925 5.76591 28.6036C5.67523 28.4147 5.53164 28.2937 5.32004 28.2408C5.10844 28.1879 4.92707 28.2257 4.76081 28.3542C4.59456 28.4827 4.4812 28.664 4.42074 28.9134L4.14113 30.0319L5.52409 30.3795L5.8037 29.2611Z" fill="#221F51"/>
<path d="M7.3153 31.3699L3.60474 30.4329L4.02038 28.793C4.08084 28.5436 4.18664 28.3244 4.32267 28.1582C4.46625 27.9768 4.62495 27.8559 4.82144 27.7879C5.01792 27.7198 5.22197 27.7123 5.44112 27.7652C5.75097 27.8408 5.97768 28.007 6.11371 28.2564C6.22707 28.4604 6.28753 28.6947 6.27997 28.9517C6.34043 28.8761 6.40088 28.8307 6.48401 28.8156L8.06346 28.4302L7.91231 29.0272L6.19684 29.4353L5.9399 30.4555L7.45133 30.8409L7.3153 31.3699ZM3.69542 30.38L7.2624 31.2793L7.36064 30.8938L5.84921 30.5084L6.13638 29.3673L6.15905 29.3597L6.18928 29.1179C6.23463 28.8081 6.18928 28.5285 6.05326 28.2866C5.92478 28.0599 5.71318 27.9012 5.42601 27.8256C5.22197 27.7727 5.03304 27.7803 4.85167 27.8483C4.6703 27.9163 4.51915 28.0297 4.38312 28.1959C4.25465 28.3546 4.15641 28.5587 4.09595 28.8005L3.69542 30.38ZM7.95765 28.5285L6.49913 28.8836C6.40088 28.9063 6.32531 28.9819 6.26486 29.1406L6.17417 29.3597L7.85186 28.9592L7.95765 28.5285ZM5.54693 30.4253L4.09595 30.0626L4.38312 28.9063C4.44358 28.6494 4.55694 28.4604 4.73831 28.3244C4.91212 28.1884 5.10861 28.1506 5.32777 28.2035C5.54692 28.2564 5.69807 28.3849 5.79631 28.5889C5.887 28.7778 5.90211 29.0046 5.8341 29.2691L5.54693 30.4253ZM4.18664 30.0097L5.49402 30.3422L5.76608 29.2615C5.82654 29.0121 5.81142 28.8081 5.72829 28.6267C5.63761 28.4453 5.50158 28.332 5.3051 28.2866C5.10105 28.2337 4.9348 28.2715 4.7761 28.3924C4.61739 28.5209 4.50404 28.6947 4.45114 28.929L4.18664 30.0097Z" fill="#221F51"/>
<path d="M8.65282 22.3767L9.72593 24.1451L9.46899 24.6287L8.35053 22.6336L6.17407 22.8301L6.42346 22.3616L8.40343 22.2407L7.37566 20.5479L7.62505 20.0718L8.69816 21.9762L10.9729 21.7797L10.7235 22.2558L8.65282 22.3767Z" fill="#221F51"/>
<path d="M9.46913 24.7118L8.32801 22.6789L6.1062 22.8829L6.40093 22.3313L8.33556 22.2103L7.33046 20.5553L7.62519 19.9961L8.72098 21.9383L11.041 21.7418L10.7463 22.301L8.72098 22.4219L9.77142 24.1525L9.46913 24.7118ZM8.37335 22.5958L9.46913 24.5531L9.68074 24.1525L8.59251 22.3464L10.701 22.2255L10.905 21.8325L8.67563 22.0214L7.63275 20.1548L7.4287 20.5478L8.47915 22.2708L6.46139 22.3917L6.25734 22.7771L8.37335 22.5958Z" fill="#221F51"/>
<path d="M11.5775 19.1801L12.1368 20.0265L11.842 20.4194L9.68823 17.0414L10.1114 16.4746L13.9429 17.6233L13.6482 18.0163L12.6809 17.714L11.5775 19.1801ZM10.0359 16.86L11.3357 18.8324L12.2879 17.5704L10.0359 16.86Z" fill="#221F51"/>
<path d="M11.8344 20.4869L9.64282 17.0484L10.0963 16.4438L14.0109 17.6152L13.6708 18.0686L12.7035 17.7663L11.6228 19.1871L12.182 20.0335L11.8344 20.4869ZM9.7335 17.0409L11.842 20.3433L12.0913 20.0184L11.5321 19.172L12.6732 17.6681L13.6406 17.9704L13.8899 17.6454L10.134 16.5194L9.7335 17.0409ZM11.3356 18.8999L9.95266 16.799L12.3558 17.5547L11.3356 18.8999ZM10.1265 16.9275L11.3356 18.7639L12.2198 17.585L10.1265 16.9275Z" fill="#221F51"/>
<path d="M16.9735 14.5318L15.19 16.2699L12.5752 13.5796L12.9153 13.2471L15.2504 15.6427L16.6938 14.2371L16.9735 14.5318Z" fill="#221F51"/>
<path d="M15.1899 16.3159L12.5222 13.5802L12.9152 13.1948L15.2503 15.5904L16.6938 14.1848L17.0338 14.5324L15.1899 16.3159ZM12.628 13.5802L15.1975 16.2101L16.928 14.5249L16.6938 14.2831L15.2428 15.6962L12.9076 13.3006L12.628 13.5802Z" fill="#221F51"/>
<path d="M19.9582 12.7788C19.996 12.8393 20.0564 12.8695 20.1244 12.8771C20.1924 12.8846 20.2605 12.8544 20.336 12.8015L20.933 12.3783L21.0993 12.6126L20.2907 13.1794C20.1698 13.2625 20.0489 13.3003 19.9279 13.2927C19.807 13.2852 19.7163 13.2247 19.6408 13.1189C19.5728 13.0207 19.5501 12.9149 19.5728 12.7864C19.5954 12.6655 19.6483 12.537 19.7315 12.4085C19.4518 12.5975 19.1571 12.6957 18.8397 12.7108C18.5223 12.7259 18.22 12.6579 17.9253 12.5143C17.6381 12.3708 17.3887 12.1516 17.1847 11.8644C16.9807 11.5697 16.8522 11.2598 16.8144 10.9349C16.7766 10.6024 16.822 10.2925 16.9504 9.9978C17.0789 9.70307 17.2829 9.45369 17.5626 9.2572C17.8422 9.06072 18.1445 8.94736 18.4694 8.92469C18.7944 8.90202 19.1042 8.97003 19.3989 9.11362C19.6937 9.25721 19.9431 9.47636 20.1471 9.77109C20.3209 10.0205 20.4418 10.2925 20.4947 10.5797C20.5476 10.8669 20.5325 11.1465 20.4569 11.4186C20.3814 11.6906 20.2378 11.9324 20.0413 12.144C19.8977 12.4388 19.8675 12.6504 19.9582 12.7788ZM18.152 12.1138C18.3787 12.2347 18.613 12.2952 18.8548 12.2876C19.0967 12.2801 19.3309 12.2045 19.5425 12.0533C19.7541 11.9022 19.9053 11.7133 19.996 11.479C20.0866 11.2447 20.1093 11.0029 20.064 10.7535C20.0262 10.4966 19.9279 10.2623 19.7768 10.0507C19.6181 9.82399 19.4216 9.65018 19.1949 9.52926C18.9682 9.40835 18.7339 9.34789 18.4845 9.35545C18.2351 9.363 18.0084 9.43858 17.7968 9.58972C17.5852 9.74086 17.4341 9.92979 17.3434 10.1565C17.2527 10.3832 17.23 10.625 17.2678 10.8744C17.3056 11.1238 17.4039 11.3656 17.5626 11.5848C17.7364 11.8115 17.9253 11.9853 18.152 12.1138Z" fill="#221F51"/>
<path d="M19.9508 13.3307C19.9432 13.3307 19.9281 13.3307 19.9206 13.3307C19.7921 13.3232 19.6938 13.2627 19.6032 13.1418C19.5276 13.036 19.5049 12.9151 19.5276 12.7791C19.5427 12.6959 19.5729 12.6052 19.6183 12.5221C19.3764 12.6657 19.1119 12.7337 18.8323 12.7488C18.5149 12.7639 18.2051 12.6959 17.9028 12.5523C17.6081 12.4088 17.3587 12.182 17.1471 11.8949C16.9355 11.585 16.807 11.2676 16.7692 10.9502C16.7314 10.6101 16.7768 10.3003 16.9053 9.99802C17.0337 9.69573 17.2453 9.43879 17.5325 9.2423C17.8197 9.03826 18.1295 8.9249 18.4545 8.90223C18.7719 8.87956 19.0968 8.94757 19.3991 9.09116C19.7014 9.23474 19.9508 9.46146 20.1624 9.76375C20.3438 10.0282 20.4647 10.3003 20.5176 10.5875C20.5705 10.8747 20.5554 11.1618 20.4798 11.4414C20.4042 11.7059 20.2606 11.9553 20.0566 12.1745C19.9206 12.4541 19.8903 12.6506 19.9735 12.7639C20.0037 12.8093 20.049 12.8395 20.1095 12.8471C20.1624 12.8546 20.2153 12.832 20.2984 12.7791L20.9257 12.3332L21.1373 12.6279L20.2984 13.2174C20.1926 13.2929 20.0717 13.3307 19.9508 13.3307ZM19.8601 12.2727L19.7619 12.4314C19.6863 12.5523 19.6334 12.6732 19.6107 12.7942C19.588 12.9075 19.6107 13.0058 19.6712 13.0965C19.7467 13.1947 19.8223 13.2476 19.9281 13.2552C20.0415 13.2627 20.1548 13.2249 20.2682 13.1494L21.0466 12.6052L20.9257 12.4314L20.3589 12.832C20.2682 12.9 20.1926 12.9226 20.1246 12.9151C20.0415 12.9075 19.9735 12.8697 19.9281 12.8017C19.8299 12.6657 19.8601 12.439 20.0112 12.1291L20.0188 12.1216C20.2153 11.91 20.3513 11.6681 20.4269 11.4112C20.5025 11.1391 20.5176 10.8671 20.4647 10.5875C20.4118 10.3154 20.2984 10.0434 20.1246 9.79398C19.9281 9.50681 19.6787 9.28765 19.3916 9.15162C19.0968 9.00803 18.787 8.94757 18.4847 8.97025C18.1749 8.99292 17.8726 9.09872 17.6005 9.2952C17.3285 9.48413 17.132 9.72596 17.0035 10.0207C16.875 10.3079 16.8297 10.6101 16.8675 10.9351C16.9053 11.2449 17.0262 11.5472 17.2302 11.8495C17.4343 12.1291 17.6761 12.3483 17.9557 12.4843C18.2504 12.6279 18.5452 12.6884 18.8474 12.6733C19.1648 12.6581 19.4445 12.5599 19.7165 12.3785L19.8601 12.2727ZM18.8097 12.3256C18.5829 12.3256 18.3487 12.2652 18.1295 12.1443C17.9028 12.0158 17.7139 11.842 17.5325 11.6077C17.3738 11.3885 17.268 11.1391 17.2302 10.8822C17.1924 10.6177 17.2151 10.3759 17.3058 10.1492C17.3965 9.91489 17.5552 9.71841 17.7743 9.56726C17.9935 9.41612 18.2202 9.33299 18.4847 9.32543C18.7341 9.31788 18.9759 9.37833 19.2102 9.5068C19.4445 9.63527 19.6485 9.80909 19.8072 10.0358C19.9659 10.255 20.0641 10.4968 20.1019 10.7537C20.1473 11.0107 20.1246 11.2601 20.0339 11.4943C19.9432 11.7362 19.7921 11.9251 19.5654 12.0838C19.3538 12.2349 19.1119 12.3181 18.855 12.3256C18.8399 12.3256 18.8248 12.3256 18.8097 12.3256ZM18.1673 12.0838C18.394 12.2047 18.6207 12.2576 18.8474 12.2501C19.0893 12.2425 19.316 12.1669 19.5125 12.0233C19.7241 11.8722 19.8677 11.6908 19.9508 11.4641C20.0415 11.2374 20.0641 11.0031 20.0188 10.7613C19.981 10.5119 19.8903 10.2852 19.7392 10.0736C19.588 9.85443 19.3916 9.68062 19.1724 9.56726C18.9457 9.44635 18.719 9.39345 18.4847 9.40101C18.2429 9.40856 18.0237 9.48413 17.8197 9.62772C17.6156 9.77131 17.4645 9.96023 17.3814 10.1794C17.2982 10.391 17.268 10.6328 17.3058 10.8747C17.3436 11.124 17.4418 11.3583 17.593 11.5699C17.7668 11.7966 17.9481 11.9553 18.1673 12.0838Z" fill="#221F51"/>
<path d="M22.9965 9.25717L23.1023 10.2623L22.664 10.4739L22.3088 6.49125L22.9512 6.18896L25.8305 8.97755L25.3922 9.18916L24.6742 8.47123L22.9965 9.25717ZM22.7018 6.49881L22.9512 8.84908L24.3719 8.16894L22.7018 6.49881Z" fill="#221F51"/>
<path d="M22.6335 10.5348L22.2708 6.469L22.9585 6.14404L22.9736 6.15916L25.8906 8.98554L25.3767 9.23492L24.6588 8.51699L23.034 9.28782L23.1398 10.2929L22.6335 10.5348ZM22.3463 6.51435L22.694 10.4214L23.0567 10.2476L22.9509 9.24248L24.6739 8.4263L25.3919 9.14423L25.7546 8.97042L22.9358 6.24229L22.3463 6.51435ZM22.9207 8.9024L22.6562 6.39343L24.4397 8.17692L22.9207 8.9024ZM22.7544 6.59747L22.9887 8.78905L24.3112 8.15425L22.7544 6.59747Z" fill="#221F51"/>
<path d="M29.261 6.40832L30.3568 7.53434L29.8505 7.68548L28.6262 6.40832L27.5531 6.71817L27.9914 8.21448L27.538 8.34296L26.4875 4.73819L28.0746 4.27721C28.3164 4.2092 28.5431 4.18652 28.7623 4.21675C28.9814 4.24698 29.1628 4.32255 29.3215 4.45102C29.4726 4.5795 29.586 4.74575 29.6464 4.95735C29.7296 5.25208 29.7069 5.51658 29.5633 5.75841C29.4197 6.00024 29.2006 6.18917 28.8983 6.31764C29.057 6.28741 29.1855 6.31764 29.261 6.40832ZM28.5582 6.02291C28.8076 5.94734 28.989 5.82643 29.1023 5.66017C29.2232 5.48635 29.2459 5.29743 29.1855 5.09338C29.125 4.88934 28.9965 4.74575 28.8076 4.67018C28.6187 4.59461 28.3995 4.58705 28.1501 4.66262L27.0392 4.98758L27.4398 6.35543L28.5582 6.02291Z" fill="#221F51"/>
<path d="M27.5155 8.38874L26.4424 4.71597L28.0672 4.24742C28.3241 4.17941 28.5508 4.15674 28.77 4.18697C28.9967 4.21719 29.1856 4.30032 29.3443 4.4288C29.5106 4.56482 29.6239 4.74619 29.6844 4.95024C29.7751 5.26008 29.7449 5.53214 29.6013 5.78152C29.4804 5.98557 29.3065 6.15182 29.0798 6.27274C29.1705 6.28785 29.2385 6.32564 29.2914 6.3861L30.425 7.55745L29.8355 7.73127L28.6113 6.45411L27.5986 6.74884L28.0369 8.24516L27.5155 8.38874ZM26.5406 4.76887L27.5684 8.29805L27.9463 8.19226L27.5079 6.69594L28.6415 6.37098L28.6566 6.3861L28.8909 6.28785C29.1781 6.16694 29.3972 5.98557 29.5408 5.74374C29.6768 5.51702 29.6995 5.26008 29.6164 4.97291C29.5635 4.77642 29.4577 4.61772 29.3065 4.48925C29.1554 4.36834 28.9816 4.29277 28.77 4.26254C28.5584 4.23231 28.3392 4.25498 28.0974 4.32299L26.5406 4.76887ZM28.6717 6.40121L29.8658 7.64059L30.289 7.51211L29.2385 6.43144C29.1554 6.3332 29.0118 6.3332 28.9136 6.35587L28.6717 6.40121ZM27.4173 6.40121L26.9941 4.96535L28.1427 4.63283C28.3921 4.55726 28.6188 4.55727 28.8229 4.64039C29.0194 4.71597 29.163 4.87466 29.2234 5.08626C29.2914 5.30542 29.2612 5.50947 29.1327 5.68328C29.0118 5.8571 28.8229 5.98557 28.5659 6.06114L27.4173 6.40121ZM27.0923 5.01825L27.4702 6.31052L28.5508 5.98557C28.7927 5.91 28.9665 5.79664 29.0723 5.63794C29.1856 5.47924 29.2083 5.30542 29.1478 5.10138C29.0874 4.90489 28.974 4.77642 28.7927 4.70085C28.6037 4.62528 28.3921 4.62528 28.1579 4.6933L27.0923 5.01825Z" fill="#221F51"/>
<path d="M32.9341 6.83157C32.6394 6.69554 32.3976 6.49149 32.2086 6.21944C32.0197 5.94738 31.9063 5.63754 31.861 5.28235C31.8157 4.92717 31.861 4.59465 31.9819 4.28481C32.1028 3.97496 32.2918 3.72558 32.5487 3.52154C32.8056 3.32505 33.1004 3.20413 33.4404 3.15879C33.7805 3.121 34.0979 3.16635 34.3926 3.30238C34.6874 3.43841 34.9292 3.64245 35.1181 3.91451C35.3071 4.18656 35.428 4.49641 35.4658 4.85159C35.5035 5.19922 35.4658 5.53174 35.3448 5.84158C35.2239 6.15142 35.035 6.40837 34.7781 6.60485C34.5211 6.8089 34.2264 6.92981 33.8863 6.9676C33.5462 7.0205 33.2288 6.9676 32.9341 6.83157ZM34.5136 6.2799C34.7025 6.1212 34.8385 5.91715 34.9216 5.67533C35.0048 5.4335 35.035 5.18411 35.0048 4.91961C34.9745 4.64755 34.8839 4.39817 34.7478 4.18657C34.6042 3.96741 34.4229 3.80871 34.2037 3.69535C33.9846 3.58199 33.7427 3.5442 33.4933 3.57443C33.2364 3.60466 33.0097 3.70291 32.8283 3.86161C32.6394 4.02031 32.5034 4.21679 32.4202 4.45862C32.3371 4.70045 32.3069 4.9574 32.3447 5.2219C32.3749 5.49395 32.4656 5.74334 32.6016 5.95494C32.7376 6.17409 32.919 6.33279 33.1382 6.44615C33.3573 6.55951 33.5991 6.5973 33.8561 6.56707C34.0979 6.53684 34.3246 6.44616 34.5136 6.2799Z" fill="#221F51"/>
<path d="M33.6293 7.0202C33.3875 7.0202 33.1457 6.9673 32.9189 6.8615C32.6167 6.72547 32.3673 6.51387 32.1783 6.23425C31.9894 5.96219 31.8685 5.6448 31.8232 5.28205C31.7778 4.93442 31.8232 4.59435 31.9441 4.26939C32.065 3.95955 32.2539 3.70261 32.5184 3.49101C32.7829 3.28696 33.0776 3.16605 33.4253 3.1207C33.7729 3.08292 34.1054 3.12826 34.4001 3.26429C34.7024 3.40032 34.9518 3.61192 35.1407 3.89153C35.3372 4.17871 35.4581 4.49611 35.4959 4.84374C35.5337 5.19893 35.4959 5.539 35.375 5.84884C35.2541 6.16624 35.0576 6.43074 34.7931 6.62723C34.5286 6.83883 34.2339 6.95974 33.8863 6.99753C33.8031 7.0202 33.72 7.0202 33.6293 7.0202ZM33.6671 3.18872C33.5915 3.18872 33.5235 3.19628 33.4479 3.20384C33.1154 3.24918 32.8283 3.36254 32.5789 3.55902C32.3219 3.76307 32.1406 4.00489 32.0272 4.30718C31.9063 4.61702 31.8685 4.94954 31.9063 5.28205C31.9516 5.63724 32.065 5.93953 32.2464 6.20403C32.4277 6.46853 32.6696 6.67257 32.9567 6.80104C33.2515 6.93707 33.5689 6.98241 33.8863 6.93707C34.2188 6.89928 34.5059 6.78593 34.7629 6.58188C35.0123 6.39296 35.2012 6.14357 35.3146 5.83372C35.4279 5.539 35.4733 5.20648 35.4355 4.86641C35.3977 4.53389 35.2843 4.22405 35.0954 3.94444C34.914 3.67994 34.6722 3.47589 34.385 3.34742C34.1583 3.24162 33.9165 3.18872 33.6671 3.18872ZM33.6898 6.61211C33.4857 6.61211 33.2968 6.56677 33.123 6.47608C32.8887 6.35517 32.7073 6.18891 32.5713 5.96975C32.4277 5.75059 32.337 5.49365 32.3068 5.2216C32.269 4.96465 32.2993 4.70015 32.3824 4.44321C32.4655 4.19382 32.6015 3.99734 32.798 3.83108C32.987 3.67238 33.2212 3.56658 33.4857 3.53635C33.7502 3.50612 33.9921 3.54391 34.2188 3.66482C34.453 3.78573 34.6344 3.95199 34.778 4.17115C34.9216 4.39031 35.0123 4.64725 35.0425 4.91931C35.0727 5.18381 35.0425 5.43319 34.9594 5.69014C34.8762 5.93952 34.7327 6.15112 34.5437 6.30982C34.3548 6.47608 34.1281 6.57433 33.8636 6.60455C33.8031 6.61211 33.7502 6.61211 33.6898 6.61211ZM33.6595 3.60436C33.6066 3.60436 33.5537 3.60436 33.5008 3.61192C33.2515 3.64215 33.0323 3.73283 32.8585 3.89153C32.6696 4.05023 32.5411 4.23916 32.458 4.47344C32.3748 4.72282 32.3522 4.97221 32.3824 5.2216C32.4126 5.47854 32.4957 5.72793 32.6318 5.93953C32.7602 6.14357 32.9265 6.30227 33.1532 6.41563C33.3573 6.52143 33.5915 6.55921 33.8485 6.52898C34.0979 6.49875 34.3095 6.40807 34.4833 6.24937C34.6646 6.09822 34.8007 5.90174 34.8762 5.65991C34.9594 5.41808 34.9896 5.17625 34.9594 4.91931C34.9291 4.66237 34.846 4.41298 34.71 4.20138C34.574 3.99734 34.4001 3.83863 34.181 3.72528C34.0223 3.6497 33.8485 3.60436 33.6595 3.60436Z" fill="#221F51"/>
<path d="M40.96 3.12102L40.6653 5.39573C40.6199 5.74336 40.6804 6.01541 40.8391 6.23457C40.9978 6.44617 41.2396 6.57465 41.557 6.61999C41.8744 6.65778 42.1389 6.59732 42.3505 6.43106C42.5621 6.2648 42.6906 6.00786 42.7359 5.67535L43.0306 3.40064L43.4992 3.4611L43.2045 5.74336C43.1667 6.04564 43.0684 6.30259 42.9173 6.50663C42.7661 6.71068 42.5621 6.86182 42.3203 6.9525C42.0785 7.04319 41.8064 7.06586 41.5117 7.02807C41.2094 6.99029 40.9524 6.89204 40.7408 6.74846C40.5292 6.59731 40.3781 6.40839 40.2799 6.16656C40.1816 5.92473 40.1589 5.66023 40.1967 5.35794L40.4914 3.07568L40.96 3.12102Z" fill="#221F51"/>
<path d="M41.7758 7.08093C41.6927 7.08093 41.602 7.07337 41.5037 7.06582C41.209 7.02803 40.9445 6.92979 40.7178 6.77865C40.4986 6.61995 40.3399 6.42346 40.2417 6.18163C40.1434 5.9398 40.1132 5.6753 40.1586 5.3579L40.4608 3.04541L41.005 3.09831L40.7027 5.4108C40.6573 5.74332 40.7178 6.00781 40.8689 6.21941C41.0201 6.42346 41.2543 6.54437 41.5642 6.58972C41.874 6.6275 42.1234 6.56704 42.3275 6.40834C42.5315 6.24964 42.6524 6.00782 42.6978 5.6753L43 3.36281L43.5442 3.43083L43.2419 5.75087C43.2041 6.05316 43.1058 6.31766 42.9471 6.52926C42.7884 6.74086 42.5844 6.892 42.335 6.99025C42.1612 7.0507 41.9798 7.08093 41.7758 7.08093ZM40.5289 3.12098L40.2417 5.36546C40.2039 5.66774 40.2266 5.92469 40.3248 6.1514C40.4155 6.38567 40.5666 6.56705 40.7707 6.71819C40.9823 6.86178 41.2392 6.95246 41.5264 6.99025C41.8211 7.02803 42.0856 7.00536 42.3199 6.91467C42.5542 6.82399 42.7507 6.6804 42.9018 6.48392C43.0529 6.27987 43.1436 6.03049 43.1814 5.73576L43.4686 3.49128L43.0756 3.43838L42.7884 5.6753C42.7431 6.02293 42.6071 6.28743 42.3879 6.45369C42.1688 6.61995 41.8967 6.68796 41.5642 6.65017C41.2317 6.60483 40.9823 6.4688 40.8236 6.24965C40.6573 6.01537 40.5969 5.73576 40.6422 5.38057L40.9294 3.14366L40.5289 3.12098Z" fill="#221F51"/>
<path d="M48.1843 8.56236L47.4286 8.32808L46.5066 4.35302L45.4713 7.73107L45.0405 7.6026L46.1439 4.02051L46.892 4.24722L47.814 8.22984L48.8569 4.84424L49.2876 4.97271L48.1843 8.56236Z" fill="#221F51"/>
<path d="M48.2072 8.60787L47.3985 8.35848L46.5068 4.49677L45.5017 7.77658L44.9954 7.62544L46.1214 3.96777L46.9224 4.2096L46.93 4.23227L47.8217 8.07887L48.8344 4.7915L49.3407 4.94265L48.2072 8.60787ZM47.459 8.29802L48.1543 8.51718L49.2349 4.99555L48.8797 4.88975L47.8066 8.37359L46.862 4.27006L46.1743 4.05846L45.0936 7.57254L45.4488 7.67834L46.5144 4.19449L47.459 8.29802Z" fill="#221F51"/>
<path d="M52.1367 6.19648L50.5724 9.60476L50.1416 9.40827L51.7059 6L52.1367 6.19648Z" fill="#221F51"/>
<path d="M50.595 9.65783L50.0962 9.43111L51.6908 5.94727L52.1895 6.17398L50.595 9.65783ZM50.1944 9.39333L50.5572 9.55958L52.0913 6.21932L51.7285 6.05307L50.1944 9.39333Z" fill="#221F51"/>
<path d="M53.9885 11.4644L53.3235 11.0563L54.185 7.18701L54.6082 7.45151L53.7694 11.0865L56.6411 8.69088L57.0718 8.95538L53.9885 11.4644Z" fill="#221F51"/>
<path d="M53.9958 11.5094L53.2854 11.071L54.162 7.11865L54.6532 7.42849L53.8371 10.9804L56.6408 8.6452L57.1395 8.95504L53.9958 11.5094ZM53.3685 11.0408L53.9882 11.4187L57.0035 8.9626L56.6408 8.74344L53.7086 11.192L54.5626 7.47384L54.2074 7.25468L53.3685 11.0408Z" fill="#221F51"/>
<path d="M58.5604 14.9483L56.5125 13.2177L58.9383 10.3535L60.9561 12.0614L60.6991 12.3637L59.0441 10.9581L58.2506 11.8952L59.7318 13.1497L59.4749 13.4519L57.9937 12.1975L57.1246 13.2177L58.8098 14.646L58.5604 14.9483Z" fill="#221F51"/>
<path d="M58.5604 15.0006L56.4595 13.2247L58.9307 10.3076L61.0013 12.0609L60.699 12.4236L59.044 11.018L58.3034 11.8946L59.7846 13.1491L59.4823 13.5118L58.0011 12.2574L57.185 13.2171L58.8702 14.6454L58.5604 15.0006ZM56.5653 13.2096L58.5528 14.8873L58.7568 14.6454L57.0716 13.2171L57.986 12.144L59.4672 13.3985L59.6788 13.1567L58.1976 11.9022L59.0365 10.9122L60.6915 12.3178L60.8955 12.076L58.9382 10.421L56.5653 13.2096Z" fill="#221F51"/>
<path d="M62.4072 17.0416L61.848 18.5077L61.5003 18.1072L62.1427 16.4673L61.4097 15.6284L60.2307 16.6562L59.9209 16.301L62.7548 13.8374L63.8431 15.0843C64.0093 15.2733 64.1227 15.4697 64.1831 15.6813C64.2436 15.8929 64.2512 16.0894 64.2058 16.2859C64.1529 16.4824 64.0471 16.6487 63.8808 16.7922C63.6541 16.9887 63.3972 17.0794 63.1176 17.0567C62.838 17.0341 62.581 16.9056 62.3316 16.6864C62.4223 16.8074 62.445 16.9283 62.4072 17.0416ZM62.4525 16.233C62.6188 16.4295 62.8077 16.5429 63.0118 16.5806C63.2158 16.6184 63.3972 16.5655 63.5635 16.4219C63.7222 16.2784 63.7977 16.1045 63.7902 15.9005C63.7826 15.6965 63.6919 15.4924 63.5257 15.3035L62.77 14.4344L61.6968 15.3715L62.4525 16.233Z" fill="#221F51"/>
<path d="M61.863 18.5827L61.4625 18.1142L62.1048 16.4743L61.4096 15.6808L60.2307 16.7086L59.8679 16.3005L62.7547 13.7915L63.8657 15.0687C64.0395 15.2652 64.1528 15.4616 64.2133 15.6808C64.2737 15.8999 64.2813 16.104 64.236 16.3005C64.1831 16.5045 64.0697 16.6783 63.8959 16.8295C63.6616 17.0335 63.3971 17.1242 63.1024 17.1015C62.8757 17.0864 62.6565 16.9957 62.4374 16.837C62.46 16.9126 62.46 16.9882 62.4374 17.0638L61.863 18.5827ZM61.5456 18.0991L61.8328 18.4316L62.3693 17.026C62.4071 16.9202 62.3769 16.8144 62.3013 16.7086L62.1653 16.5196L61.5456 18.0991ZM62.1729 16.497L62.3542 16.6557C62.6036 16.8748 62.853 16.9957 63.1175 17.0184C63.382 17.0411 63.6314 16.958 63.8505 16.7615C64.0092 16.6254 64.115 16.4667 64.1604 16.2778C64.2057 16.0889 64.1982 15.9 64.1377 15.6959C64.0773 15.4919 63.9715 15.3029 63.8052 15.114L62.7396 13.8973L59.9662 16.308L60.2231 16.6028L61.402 15.575L62.1729 16.4592V16.497ZM63.1326 16.633C63.0873 16.633 63.0419 16.6254 62.9966 16.6179C62.7774 16.5801 62.5809 16.4592 62.4147 16.2551L61.6363 15.3634L62.7623 14.381L63.5407 15.2803C63.7145 15.4768 63.8052 15.6884 63.8128 15.9C63.8203 16.1116 63.7372 16.3005 63.5709 16.4516C63.45 16.5725 63.2989 16.633 63.1326 16.633ZM61.7497 15.3785L62.4827 16.2098C62.6414 16.3912 62.8228 16.5045 63.0192 16.5423C63.2082 16.5801 63.382 16.5272 63.5407 16.3912C63.6918 16.2551 63.7599 16.0964 63.7523 15.9C63.7447 15.7035 63.6541 15.507 63.4954 15.3256L62.7623 14.4868L61.7497 15.3785Z" fill="#221F51"/>
<path d="M63.3743 20.215C63.397 19.89 63.5405 19.6028 63.8126 19.361L64.0544 19.7389C63.8806 19.9202 63.7824 20.1243 63.7673 20.3434C63.7521 20.5626 63.8277 20.7969 63.9789 21.0387C64.13 21.273 64.3038 21.4317 64.5079 21.5072C64.7119 21.5828 64.9008 21.5677 65.0822 21.4543C65.2409 21.3561 65.3392 21.2352 65.3769 21.0916C65.4147 20.948 65.3921 20.7742 65.3165 20.5702L64.9991 19.7162C64.8933 19.4441 64.863 19.2023 64.9084 19.0058C64.9537 18.8093 65.0898 18.6431 65.3089 18.4995C65.4903 18.3861 65.6717 18.3484 65.8682 18.371C66.0571 18.4013 66.246 18.4768 66.4198 18.6204C66.5936 18.764 66.7523 18.9303 66.8808 19.1419C67.0849 19.4668 67.1755 19.7767 67.1529 20.0714C67.1302 20.3661 66.9942 20.6155 66.7372 20.8347L66.4954 20.4568C66.6617 20.3057 66.7448 20.1318 66.7523 19.9354C66.7599 19.7389 66.6994 19.5424 66.5634 19.3308C66.4198 19.1041 66.2611 18.9454 66.0798 18.8622C65.8984 18.7791 65.7321 18.7867 65.5734 18.8849C65.4374 18.9756 65.3467 19.0738 65.3165 19.1948C65.2863 19.3157 65.3089 19.4593 65.3769 19.6406L65.717 20.5324C65.8304 20.8271 65.8606 21.0765 65.8001 21.2881C65.7472 21.4997 65.6036 21.6735 65.3618 21.8246C65.1653 21.9456 64.9688 21.9985 64.7572 21.9909C64.5456 21.9758 64.3492 21.9078 64.1527 21.7717C63.9637 21.6433 63.7975 21.4619 63.6539 21.2352C63.4499 20.88 63.3516 20.5399 63.3743 20.215Z" fill="#221F51"/>
<path d="M64.7952 22.0287C64.7801 22.0287 64.765 22.0287 64.7574 22.0287C64.5307 22.0136 64.3267 21.9381 64.1302 21.802C63.9413 21.6736 63.7674 21.4922 63.6239 21.2579C63.4123 20.8876 63.314 20.54 63.3367 20.215C63.3594 19.875 63.5105 19.5802 63.7901 19.3384L63.8204 19.3082L64.1 19.7465L64.0773 19.7692C63.911 19.943 63.8128 20.1395 63.7977 20.3511C63.7826 20.5551 63.8506 20.7818 64.0017 21.0236C64.1529 21.2579 64.3191 21.4015 64.508 21.4771C64.7045 21.5527 64.8783 21.53 65.0522 21.4242C65.2033 21.3335 65.294 21.2201 65.3318 21.0841C65.3696 20.9481 65.3469 20.7894 65.2713 20.5853L64.9539 19.7314C64.8481 19.4518 64.8179 19.2099 64.8632 18.9983C64.9086 18.7943 65.0446 18.6205 65.2789 18.4693C65.4602 18.356 65.6567 18.3106 65.8608 18.3333C66.0724 18.3711 66.2689 18.4542 66.4351 18.5902C66.6316 18.7565 66.7827 18.9303 66.9037 19.1192C67.1077 19.4518 67.206 19.7692 67.1833 20.0714C67.1606 20.3737 67.017 20.6307 66.7525 20.8574L66.7223 20.8876L66.4427 20.4493L66.4654 20.4266C66.6241 20.283 66.6996 20.1243 66.7072 19.9354C66.7147 19.7465 66.6543 19.5576 66.5258 19.3535C66.3822 19.1268 66.2311 18.9757 66.0573 18.9001C65.891 18.8245 65.7323 18.8321 65.5887 18.9228C65.4527 19.0134 65.3771 19.1041 65.3469 19.2099C65.3167 19.3157 65.3393 19.4518 65.4074 19.6331L65.7474 20.5249C65.8683 20.8347 65.891 21.0841 65.8306 21.3033C65.7777 21.5224 65.6265 21.7038 65.3771 21.8625C65.1882 21.9683 64.9993 22.0287 64.7952 22.0287ZM63.8052 19.4215C63.5634 19.6482 63.4349 19.9127 63.4123 20.2226C63.3896 20.5324 63.4803 20.8649 63.6843 21.2201C63.8279 21.4468 63.9866 21.6207 64.168 21.7416C64.3493 21.8701 64.5458 21.9381 64.7499 21.9532C64.9539 21.9607 65.1429 21.9078 65.3318 21.7945C65.5661 21.6509 65.7021 21.4771 65.755 21.2806C65.8154 21.0766 65.7852 20.8423 65.6719 20.5475L65.3318 19.6558C65.2562 19.4593 65.2411 19.3157 65.2713 19.1873C65.3015 19.0663 65.3922 18.9605 65.5434 18.8547C65.7172 18.7489 65.891 18.7414 66.0875 18.8321C66.2689 18.9152 66.4351 19.0739 66.5863 19.3157C66.7223 19.5349 66.7903 19.7389 66.7828 19.943C66.7752 20.1395 66.6921 20.3208 66.5409 20.472L66.745 20.7894C66.9717 20.5853 67.0926 20.3511 67.1153 20.079C67.1379 19.7918 67.0473 19.4895 66.8508 19.1721C66.7374 18.9832 66.5863 18.817 66.3973 18.6583C66.2386 18.5298 66.0648 18.4467 65.8608 18.4164C65.6643 18.3938 65.498 18.4315 65.3318 18.5373C65.1126 18.6809 64.9917 18.8396 64.9464 19.021C64.901 19.2099 64.9313 19.4442 65.0371 19.7087L65.3544 20.5627C65.4376 20.7818 65.4527 20.9556 65.4149 21.1068C65.3771 21.2579 65.2713 21.3864 65.1051 21.4922C64.9161 21.6131 64.7197 21.6282 64.5005 21.5451C64.2889 21.4695 64.1151 21.3108 63.9564 21.0614C63.7977 20.8045 63.7221 20.5627 63.7372 20.3435C63.7523 20.1243 63.843 19.9203 64.0168 19.7389L63.8052 19.4215Z" fill="#221F51"/>
<path d="M68.9363 23.0111L65.5507 24.6132L65.3467 24.19L68.7323 22.5879L68.9363 23.0111Z" fill="#221F51"/>
<path d="M65.528 24.6665L65.2937 24.1753L68.7549 22.543L68.9891 23.0342L65.528 24.6665ZM65.3919 24.2131L65.5658 24.5683L68.8833 23.004L68.7095 22.6488L65.3919 24.2131Z" fill="#221F51"/>
<path d="M70.0397 26.9256L66.8657 27.9836L66.7146 27.5378L69.8886 26.4797L69.4956 25.3008L69.881 25.1724L70.8181 27.9761L70.4327 28.1045L70.0397 26.9256Z" fill="#221F51"/>
<path d="M70.41 28.1503L70.017 26.9714L66.8506 28.0294L66.6768 27.5155L69.8508 26.4575L69.4578 25.2786L69.9112 25.1274L70.871 27.9992L70.41 28.1503ZM70.0624 26.8731L70.4553 28.0521L70.7652 27.9463L69.8508 25.2181L69.5409 25.3239L69.9339 26.5028L66.7674 27.5608L66.8959 27.9311L70.0624 26.8731Z" fill="#221F51"/>
<path d="M68.1656 33.6138L67.697 30.9688L71.3849 30.3188L71.8459 32.9261L71.4529 32.9941L71.0751 30.8554L69.8735 31.067L70.206 32.9714L69.813 33.0394L69.4805 31.135L68.158 31.3693L68.5434 33.5458L68.1656 33.6138Z" fill="#221F51"/>
<path d="M68.1353 33.6517L68.1277 33.6139L67.6516 30.9311L71.4151 30.2661L71.8912 32.9413L71.4226 33.0245L71.0448 30.8858L69.9188 31.0823L70.2513 32.9867L69.7827 33.0698L69.4502 31.1654L68.2033 31.3846L68.5887 33.561L68.1353 33.6517ZM67.7423 30.9992L68.1957 33.5686L68.5056 33.5157L68.1202 31.3392L69.5182 31.0898L69.8507 32.9942L70.1681 32.9413L69.8356 31.0369L71.1128 30.8102L71.4906 32.9489L71.808 32.896L71.3622 30.3644L67.7423 30.9992Z" fill="#221F51"/>
<path d="M71.7248 36.9096L68.3845 37.0002L68.3694 36.5317L71.7096 36.441L71.6794 35.1941L72.0875 35.1865L72.1631 38.1414L71.755 38.1489L71.7248 36.9096Z" fill="#221F51"/>
<path d="M71.7247 38.1864L71.6945 36.947L68.3542 37.0377L68.3391 36.4936L71.6869 36.4029L71.6567 35.156L72.1404 35.1484L72.2159 38.1789L71.7247 38.1864ZM71.7625 36.8715L71.7927 38.1108L72.1252 38.1033L72.0497 35.224L71.7172 35.2316L71.7474 36.4785L68.4071 36.5692L68.4222 36.9622L71.7625 36.8715Z" fill="#221F51"/>
<path d="M71.9747 40.9673L68.2415 40.6272L68.2868 40.1587L72.02 40.4988L71.9747 40.9673Z" fill="#221F51"/>
<path d="M72.0122 41.005L68.2034 40.6574L68.2563 40.1133L72.0651 40.4609L72.0122 41.005ZM68.2789 40.5894L71.9366 40.9219L71.9744 40.5289L68.3167 40.1964L68.2789 40.5894Z" fill="#221F51"/>
<path d="M36.9468 70.3496C36.9468 70.4781 36.9468 70.599 36.9468 70.7275C36.9468 71.0071 36.7654 71.0978 36.5312 71.1053C36.2969 71.1129 36.108 71.0222 36.1004 70.7501C36.0928 70.4705 36.0928 70.1985 36.1004 69.9188C36.108 69.6392 36.3044 69.5485 36.5312 69.5561C36.7579 69.5637 36.9544 69.6543 36.9468 69.934C36.9468 70.0775 36.9468 70.2136 36.9468 70.3496Z" fill="#221F51"/>
<path d="M45.1994 61.689C48.1316 60.4874 50.5952 58.651 52.6205 56.2328C52.9379 55.8549 53.2327 55.4544 53.5803 55.0085C51.9404 55.0085 50.3988 55.0085 48.8571 55.0009C48.6682 55.0009 48.6304 55.1067 48.585 55.2428C48.1921 56.399 47.6933 57.5099 47.1341 58.5906C46.5748 59.6788 45.8569 60.6612 45.1541 61.6437C45.1239 61.6512 45.0861 61.6588 45.1087 61.7041C45.1163 61.7117 45.1692 61.6966 45.1994 61.689ZM30.1758 61.689C30.206 61.6966 30.2589 61.7192 30.2665 61.7041C30.2967 61.6588 30.2589 61.6512 30.2211 61.6437C30.2136 61.621 30.2136 61.5908 30.1985 61.5757C28.6644 59.709 27.6064 57.5855 26.828 55.3183C26.7373 55.069 26.6164 55.0009 26.367 55.0085C24.9538 55.0236 23.5482 55.0161 22.1426 55.0161C22.0594 55.0161 21.9687 54.9707 21.9007 55.0614C21.8856 55.1521 21.9536 55.205 21.9914 55.2579C23.4122 57.2152 25.1427 58.8324 27.1756 60.1322C28.1203 60.7444 29.1178 61.2809 30.1758 61.689ZM53.7239 39.4105C53.875 39.3652 53.9884 39.3274 54.1093 39.2972C55.258 38.9722 55.9759 38.2165 56.2253 37.0678C56.4974 35.8058 56.4898 34.521 56.2555 33.2514C56.0061 31.9063 55.2051 31.0599 53.8524 30.7651C53.5047 30.6896 53.1571 30.6291 52.8019 30.6291C49.8017 30.6216 46.8167 30.6216 43.8165 30.6216C43.5671 30.6216 43.3933 30.7122 43.2724 30.9465C42.9625 31.5435 42.63 32.1405 42.3126 32.73C40.8767 35.4128 39.4409 38.0805 38.005 40.7633C37.937 40.8993 37.8992 41.0807 37.6725 41.0655C37.476 41.0504 37.4458 40.8917 37.3778 40.7633C35.6094 37.5288 33.8486 34.2868 32.0878 31.0448C31.914 30.7274 31.6948 30.614 31.3321 30.614C28.6266 30.6291 25.9287 30.6216 23.2157 30.6216C22.7774 30.6216 22.339 30.6518 21.9007 30.7122C20.2381 30.9314 19.1726 31.808 18.7645 33.2892C18.5907 33.924 18.5151 34.5739 18.5076 35.2239C18.4849 36.4708 18.4924 37.7177 18.5 38.9571C18.5 39.675 18.568 40.393 18.7418 41.0882C19.0517 42.32 19.7696 43.1967 21.0165 43.5745C21.6589 43.771 22.3239 43.8466 22.989 43.8541C25.4828 43.8617 27.9691 43.8617 30.463 43.8541C30.9089 43.8541 31.0147 43.7483 31.0147 43.2949C31.0222 42.7886 31.0147 42.2898 31.0147 41.7835C31.0147 41.2167 30.924 41.1336 30.3572 41.1336C28.0145 41.1336 25.6793 41.1336 23.3366 41.1336C22.9965 41.1336 22.6564 41.1184 22.3239 41.0429C21.7269 40.8993 21.3491 40.529 21.2357 39.9244C21.1677 39.5541 21.1299 39.1838 21.1072 38.806C21.0921 38.4886 21.1526 38.3828 21.5078 38.3828C24.4324 38.3979 27.3419 38.3903 30.2665 38.3903C30.8257 38.3903 30.9466 38.2694 30.9466 37.7026C30.9466 37.3248 30.9466 36.9469 30.9466 36.569C30.9391 36.1005 30.8106 35.9645 30.3345 35.9645C28.8609 35.9645 27.3872 35.9645 25.9211 35.9645C24.4248 35.9645 22.9209 35.9569 21.4322 35.972C21.1828 35.972 21.1072 35.9116 21.1148 35.6546C21.1299 35.2768 21.1677 34.8989 21.2433 34.5362C21.3491 34.0072 21.6664 33.6369 22.203 33.4782C22.5733 33.3724 22.9436 33.3497 23.3215 33.3497C25.4601 33.3497 27.5988 33.3572 29.7375 33.3421C29.9793 33.3421 30.1078 33.4101 30.2287 33.6369C31.8384 36.5766 33.4707 39.5012 35.0728 42.4485C35.6018 43.4158 36.3424 43.9448 37.4685 43.8617C37.6423 43.8466 37.8236 43.8466 37.9975 43.8617C39.1235 43.975 39.8414 43.4234 40.3553 42.4636C41.9499 39.5012 43.5746 36.5615 45.1768 33.5991C45.2901 33.3875 45.4186 33.2968 45.668 33.3043C47.1567 33.3195 48.6379 33.3119 50.1191 33.3119C50.8144 33.3119 51.5021 33.3043 52.1973 33.3421C52.9606 33.3875 53.3989 33.8409 53.4367 34.5966C53.4594 35.0727 53.4594 35.5564 53.4367 36.0325C53.3989 36.7731 52.9606 37.2114 52.2276 37.287C51.9782 37.3096 51.7212 37.3172 51.4719 37.3172C49.4692 37.3172 47.4741 37.3248 45.4715 37.3096C45.1239 37.3096 45.0483 37.4079 45.0634 37.7253C45.0936 38.2618 45.0861 38.806 45.0634 39.3501C45.0483 39.6372 45.1239 39.7279 45.4261 39.7279C47.066 39.7128 48.6908 39.7279 50.3307 39.7128C50.5877 39.7128 50.7388 39.7959 50.89 40C51.759 41.1865 52.6357 42.3578 53.5123 43.5292C53.6257 43.6803 53.7314 43.8466 53.9506 43.8466C54.8046 43.8541 55.6661 43.8617 56.52 43.8466C56.8299 43.839 56.9432 43.5745 56.777 43.31C56.7316 43.2344 56.6712 43.174 56.6183 43.0984C55.6661 41.8742 54.7063 40.665 53.7239 39.4105ZM25.9136 28.823C28.3092 28.823 30.6897 28.823 33.0853 28.8154C33.4481 28.8154 33.773 28.8759 34.1131 29.0119C34.9066 29.3217 35.6018 29.7903 36.2669 30.3117C37.3173 31.1354 38.3829 30.9012 39.3275 30.289C39.8187 29.9716 40.2948 29.624 40.7936 29.3142C41.3831 28.9439 42.0103 28.8078 42.7207 28.8078C47.3608 28.8305 52.0084 28.823 56.6485 28.823C56.7468 28.823 56.8526 28.8154 56.9508 28.823C57.1775 28.8381 57.2682 28.7247 57.2682 28.5056C57.2682 28.1655 57.2455 27.8254 57.2758 27.4853C57.306 27.115 57.1548 27.0092 56.7997 27.0168C55.4545 27.0319 54.1017 27.0168 52.7641 27.0319C52.4996 27.0319 52.4241 26.9639 52.4316 26.6994C52.4543 26.2233 52.4467 25.7396 52.4316 25.2635C52.4241 25.0746 52.477 24.9839 52.6583 24.8932C53.0891 24.6816 53.2478 24.2736 53.1193 23.8126C53.006 23.3894 52.6659 23.1324 52.1898 23.1551C51.9933 23.1626 51.9026 23.1022 51.8044 22.9435C50.6859 21.0844 49.5599 19.2329 48.4414 17.3739C48.3583 17.2303 48.3281 17.132 48.4263 16.9733C48.6682 16.5577 48.6077 16.1421 48.313 15.8247C48.0258 15.5299 47.6177 15.4619 47.2021 15.6735C47.0736 15.7415 46.9829 15.7491 46.8696 15.6584C45.9551 15.0085 45.0407 14.3661 44.1263 13.7162C44.0054 13.6331 43.9525 13.5348 43.9676 13.3686C44.0054 12.8698 43.8316 12.56 43.4462 12.3786C43.0759 12.2048 42.6829 12.2879 42.3504 12.628C42.2219 12.7564 42.1161 12.7791 41.9499 12.7338C41.5266 12.6129 41.1034 12.5071 40.6727 12.4088C40.4913 12.3635 40.3855 12.303 40.3402 12.0839C40.2419 11.6455 39.917 11.4113 39.5089 11.3886C39.0781 11.3659 38.7607 11.5473 38.602 11.9781C38.5265 12.1821 38.398 12.1897 38.2317 12.2048C37.0755 12.2955 35.9268 12.3786 34.7781 12.4919C34.5061 12.5146 34.3247 12.4919 34.1509 12.2426C33.909 11.8874 33.4934 11.7891 33.1155 11.9252C32.7528 12.0536 32.4807 12.3937 32.5034 12.7867C32.5185 13.0361 32.4127 13.1419 32.2238 13.2477C30.7653 14.0638 29.3143 14.8876 27.8633 15.7113C27.7197 15.7944 27.629 15.8171 27.4703 15.7113C27.0698 15.4468 26.6088 15.4997 26.299 15.8171C25.9891 16.1269 25.9438 16.5804 26.2007 16.9884C26.2914 17.1396 26.299 17.2529 26.2159 17.4041C25.3543 18.9382 24.5004 20.4723 23.6464 21.9988C23.5633 22.15 23.4953 22.2407 23.2837 22.2331C22.8 22.2029 22.46 22.4825 22.339 22.9359C22.2332 23.3365 22.4222 23.7823 22.8227 23.9788C23.0041 24.0695 23.0494 24.1677 23.0419 24.3567C23.0343 25.0973 23.0192 25.8454 23.0494 26.586C23.0645 26.9488 22.989 27.0773 22.5884 27.0697C21.2508 27.0395 19.9207 27.0621 18.5907 27.0546C18.2657 27.0546 18.1221 27.1528 18.1524 27.4853C18.175 27.7196 18.1599 27.9614 18.1599 28.2033C18.1599 28.8305 18.1599 28.8305 18.7645 28.8305C21.1299 28.823 23.518 28.823 25.9136 28.823ZM31.9895 45.6225C30.6141 45.6225 29.2463 45.6301 27.8784 45.615C27.5837 45.615 27.493 45.6754 27.5157 45.9853C27.6366 48.1239 27.9162 50.2324 28.4603 52.303C28.5208 52.5373 28.5964 52.5978 28.8306 52.5978C31.2716 52.5902 33.705 52.5902 36.146 52.5978C36.4482 52.5978 36.486 52.492 36.486 52.2275C36.4785 50.1417 36.4709 48.0559 36.486 45.9701C36.486 45.6527 36.3802 45.6074 36.1006 45.6074C34.7252 45.6301 33.3498 45.6225 31.9895 45.6225ZM42.8643 52.5978C43.8467 52.5978 44.8291 52.5978 45.8116 52.5978C46.9073 52.5978 46.8847 52.5978 47.1189 51.5095C47.5119 49.6731 47.7537 47.8216 47.8595 45.9475C47.8747 45.6754 47.8142 45.6074 47.5421 45.6074C44.7611 45.615 41.9876 45.615 39.199 45.6074C38.9648 45.6074 38.8741 45.6527 38.8816 45.9097C38.8968 48.0408 38.8968 50.1568 38.8816 52.2879C38.8816 52.5524 38.9723 52.5902 39.199 52.5902C40.4233 52.5978 41.6476 52.6053 42.8643 52.5978ZM49.3785 52.5978C51.23 52.5978 53.0211 52.5978 54.8197 52.5978C54.9481 52.5978 55.0086 52.5524 55.0691 52.4239C56.0591 50.3608 56.641 48.1995 56.8601 45.9248C56.8828 45.6754 56.7997 45.6074 56.5578 45.6074C54.5703 45.615 52.5903 45.615 50.6028 45.6074C50.3685 45.6074 50.2854 45.6527 50.2703 45.9097C50.1796 48.1542 49.9075 50.3684 49.3785 52.5978ZM21.8252 45.6225C20.82 45.6225 19.8074 45.6301 18.8023 45.615C18.5453 45.615 18.4924 45.6905 18.5151 45.9324C18.6965 47.9501 19.2255 49.8696 19.9736 51.7514C20.2306 52.4013 20.5556 52.6507 21.2886 52.6129C22.7547 52.5373 24.2359 52.5902 25.702 52.5826C25.8002 52.5826 26.042 52.7111 25.9665 52.3937C25.4375 50.2626 25.2032 48.0937 25.1125 45.9021C25.0974 45.6376 24.9992 45.5998 24.78 45.6074C23.79 45.6301 22.8076 45.6225 21.8252 45.6225ZM29.3521 55.0236C29.3521 55.069 29.337 55.0916 29.3445 55.1143C30.0624 56.9658 30.9769 58.6964 32.2616 60.2229C33.312 61.4623 34.5363 62.4598 36.1082 62.9586C36.4256 63.0569 36.4785 62.9888 36.4785 62.679C36.4634 60.238 36.4709 57.8046 36.4785 55.3561C36.4785 55.0765 36.418 54.9934 36.1308 55.0009C33.9544 55.016 31.7855 55.0085 29.6015 55.0085C29.5183 55.0085 29.4352 55.0161 29.3521 55.0236ZM38.8968 59.0516C38.8968 60.2834 38.9043 61.5152 38.8892 62.7395C38.8892 63.0191 38.9572 63.0493 39.2066 62.9737C40.1815 62.6714 41.0505 62.1802 41.8214 61.5152C43.7862 59.8224 45.0029 57.6384 45.9627 55.2806C46.0534 55.0614 45.9929 55.0009 45.7587 55.0009C43.5595 55.0085 41.3604 55.0085 39.1613 55.0009C38.9043 55.0009 38.8816 55.1067 38.8816 55.3183C38.9043 56.5653 38.8968 57.8046 38.8968 59.0516Z" fill="#221F51"/>
<path d="M53.724 39.4108C54.7064 40.6577 55.6661 41.882 56.6259 43.0911C56.6788 43.1591 56.7393 43.2271 56.7846 43.3027C56.9509 43.5672 56.8375 43.8317 56.5277 43.8393C55.6737 43.8544 54.8122 43.8393 53.9582 43.8393C53.7391 43.8393 53.6333 43.6806 53.5199 43.5219C52.6433 42.343 51.7667 41.164 50.8976 39.9927C50.754 39.7962 50.6029 39.7055 50.3384 39.7055C48.6985 39.7206 47.0737 39.7055 45.4338 39.7206C45.1315 39.7206 45.0559 39.6299 45.071 39.3428C45.0937 38.7987 45.1012 38.2621 45.071 37.718C45.0559 37.393 45.1315 37.2948 45.4791 37.3023C47.4817 37.325 49.4768 37.3099 51.4795 37.3099C51.7289 37.3099 51.9858 37.3023 52.2352 37.2797C52.9682 37.2041 53.4066 36.7658 53.4443 36.0252C53.467 35.5491 53.467 35.0654 53.4443 34.5893C53.4066 33.8336 52.9682 33.3802 52.205 33.3348C51.5173 33.2895 50.822 33.3046 50.1267 33.3046C48.638 33.297 47.1568 33.3122 45.6756 33.297C45.4262 33.297 45.2977 33.3802 45.1844 33.5918C43.5747 36.5466 41.9575 39.4939 40.3629 42.4563C39.849 43.4161 39.1311 43.9602 38.0051 43.8544C37.8313 43.8393 37.6499 43.8393 37.4761 43.8544C36.3501 43.9375 35.6095 43.4085 35.0805 42.4412C33.4783 39.4939 31.846 36.5693 30.2363 33.6296C30.1154 33.4028 29.9869 33.3348 29.7451 33.3348C27.6064 33.3424 25.4678 33.3424 23.3291 33.3424C22.9512 33.3424 22.5734 33.3651 22.2106 33.4709C21.6741 33.6296 21.3642 33.9999 21.2509 34.5289C21.1753 34.8992 21.1375 35.2695 21.1224 35.6473C21.1148 35.9043 21.1904 35.9647 21.4398 35.9647C22.9361 35.9572 24.44 35.9572 25.9287 35.9572C27.4024 35.9572 28.876 35.9572 30.3421 35.9572C30.8182 35.9572 30.9467 36.0856 30.9543 36.5617C30.9618 36.9396 30.9543 37.3174 30.9543 37.6953C30.9543 38.2696 30.8333 38.383 30.2741 38.383C27.3495 38.383 24.44 38.3906 21.5154 38.3755C21.1602 38.3755 21.0997 38.4813 21.1148 38.7987C21.1375 39.1765 21.1677 39.5544 21.2433 39.9171C21.3567 40.5217 21.7345 40.892 22.3315 41.0356C22.6641 41.1111 23.0041 41.1263 23.3442 41.1263C25.6869 41.1263 28.0221 41.1263 30.3648 41.1263C30.9316 41.1263 31.0223 41.2094 31.0223 41.7762C31.0223 42.2825 31.0298 42.7813 31.0223 43.2876C31.0147 43.7486 30.9165 43.8468 30.4706 43.8468C27.9767 43.8468 25.4904 43.8468 22.9966 43.8468C22.324 43.8468 21.6665 43.7637 21.0242 43.5672C19.7697 43.1894 19.0593 42.3127 18.7495 41.0809C18.5756 40.3857 18.5076 39.6677 18.5076 38.9498C18.5076 37.7029 18.4925 36.4559 18.5152 35.2166C18.5303 34.5666 18.5983 33.9167 18.7721 33.2819C19.1727 31.8158 20.2307 30.9317 21.8932 30.7125C22.3315 30.652 22.7699 30.6218 23.2082 30.6218C25.9136 30.6218 28.6115 30.6294 31.3246 30.6143C31.6797 30.6143 31.9065 30.7201 32.0803 31.045C33.8411 34.287 35.6019 37.529 37.3703 40.7635C37.4383 40.892 37.4685 41.0507 37.665 41.0658C37.8917 41.0809 37.9295 40.892 37.9975 40.7635C39.4409 38.0883 40.8768 35.4131 42.3051 32.7303C42.6225 32.1332 42.955 31.5438 43.2649 30.9468C43.3858 30.7125 43.5596 30.6218 43.809 30.6218C46.8092 30.6294 49.7942 30.6294 52.7944 30.6294C53.1496 30.6294 53.4972 30.6898 53.8449 30.7654C55.1976 31.0601 55.9987 31.9065 56.248 33.2517C56.4823 34.5213 56.4899 35.806 56.2178 37.0681C55.9684 38.2168 55.2505 38.9725 54.1018 39.2974C53.9885 39.3352 53.8751 39.3654 53.724 39.4108Z" fill="white"/>
<path d="M25.9133 28.8153C23.5177 28.8153 21.1372 28.8153 18.7416 28.8153C18.137 28.8153 18.137 28.8153 18.137 28.1881C18.137 27.9462 18.1521 27.7044 18.1294 27.4701C18.0992 27.1301 18.2428 27.0318 18.5677 27.0394C19.9054 27.0545 21.2354 27.0243 22.5655 27.0545C22.966 27.0621 23.0416 26.9336 23.0265 26.5708C23.0416 25.7925 23.0416 25.1123 23.0189 24.3415C23.0113 24.1601 22.9811 24.0543 22.7997 23.9636C22.3917 23.7671 22.2103 23.3213 22.3161 22.9207C22.437 22.4673 22.7771 22.1952 23.2607 22.2179C23.4723 22.233 23.5403 22.1423 23.6235 21.9836C24.4774 20.4495 25.3314 18.9154 26.1929 17.3889C26.276 17.2378 26.2685 17.1244 26.1778 16.9733C25.9209 16.5652 25.9738 16.1117 26.276 15.8019C26.5859 15.4921 27.0469 15.4316 27.4474 15.6961C27.6061 15.8019 27.7043 15.7717 27.8404 15.6961C29.2913 14.8724 30.7499 14.0486 32.2008 13.2325C32.3898 13.1267 32.4956 13.0284 32.4805 12.7715C32.4578 12.3785 32.7223 12.0384 33.0926 11.91C33.4704 11.7739 33.8861 11.8722 34.1279 12.2274C34.2942 12.4843 34.4831 12.507 34.7552 12.4767C35.9039 12.3709 37.0601 12.2803 38.2088 12.1896C38.375 12.1745 38.5035 12.1745 38.5791 11.9629C38.7378 11.5397 39.0552 11.3507 39.4859 11.3734C39.9016 11.3961 40.219 11.6303 40.3172 12.0687C40.3701 12.2878 40.4684 12.3483 40.6497 12.3936C41.0805 12.4994 41.5037 12.6052 41.9269 12.7186C42.0932 12.7639 42.199 12.7488 42.3274 12.6128C42.6599 12.2727 43.0529 12.1971 43.4232 12.3634C43.8086 12.5448 43.99 12.847 43.9447 13.3534C43.9296 13.5196 43.9824 13.6103 44.1034 13.701C45.0178 14.3434 45.9322 14.9933 46.8466 15.6432C46.9675 15.7263 47.0506 15.7188 47.1791 15.6583C47.5948 15.4467 48.0029 15.5147 48.29 15.8095C48.5923 16.1193 48.6528 16.5425 48.4034 16.9581C48.3051 17.1244 48.3354 17.2226 48.4185 17.3587C49.5445 19.2177 50.6705 21.0692 51.7814 22.9283C51.8797 23.087 51.9704 23.1474 52.1668 23.1399C52.6429 23.1172 52.983 23.3742 53.0964 23.7974C53.2173 24.2584 53.0586 24.6589 52.6354 24.878C52.454 24.9687 52.4087 25.0594 52.4087 25.2483C52.4087 25.7169 52.4087 26.1703 52.4087 26.6842C52.3936 26.9487 52.4767 27.0243 52.7412 27.0167C54.0864 27.0016 55.4391 27.0243 56.7767 27.0016C57.1319 26.994 57.283 27.0998 57.2528 27.4701C57.2226 27.8102 57.2453 28.1503 57.2453 28.4904C57.2453 28.7095 57.1546 28.8229 56.9279 28.8078C56.8296 28.8002 56.7238 28.8078 56.6256 28.8078C51.9855 28.8078 47.3378 28.8229 42.6977 28.7926C41.9874 28.7851 41.3601 28.9287 40.7707 29.299C40.2719 29.6088 39.7958 29.9564 39.3046 30.2738C38.3599 30.886 37.2868 31.1202 36.2439 30.2965C35.5865 29.7751 34.8836 29.3065 34.0901 28.9967C33.7576 28.8682 33.4251 28.8002 33.0624 28.8002C30.6894 28.8153 28.3014 28.8153 25.9133 28.8153ZM23.956 22.3993C25.6261 21.3337 27.2963 20.2682 28.9664 19.2026C29.042 19.1573 29.0873 19.0968 29.0873 18.991C29.0949 18.598 29.4576 18.6132 29.0797 18.3109C28.9286 18.2353 28.2485 17.7063 28.0746 17.5854C27.795 17.404 27.5079 17.1017 27.0998 17.3587C27.0318 17.3965 26.926 17.3965 26.8428 17.3813C26.6841 17.3436 26.6161 17.4191 26.5481 17.54C25.6639 19.1422 24.7797 20.7443 23.8955 22.3388C23.8729 22.3691 23.8653 22.4068 23.9031 22.4295C23.9106 22.4522 23.9409 22.4144 23.956 22.3993ZM30.7801 17.9784C30.8254 17.9557 30.8708 17.9406 30.9161 17.9103C33.4251 16.1873 35.9265 14.4794 38.4355 12.7564C38.4884 12.7186 38.5413 12.6808 38.496 12.5977C37.1886 12.6959 35.8736 12.8017 34.5662 12.8999C34.4151 12.9151 34.3395 12.9755 34.2791 13.1267C34.1506 13.4441 33.9012 13.7237 33.546 13.6859C33.1228 13.6405 33.0095 13.8975 32.8583 14.1695C32.813 14.2602 32.7601 14.3434 32.7072 14.434C32.0497 15.6054 31.3922 16.7692 30.7348 17.933C30.7045 17.9406 30.6743 17.9557 30.7045 17.9935C30.7121 18.0086 30.7574 17.9859 30.7801 17.9784ZM40.1283 17.3436C39.6749 17.4191 39.1912 17.5023 38.7076 17.5778C36.2213 17.9784 33.7501 18.3864 31.2638 18.787C31.0899 18.8172 30.9237 18.8096 30.8481 19.0666C30.7725 19.3311 30.969 19.3689 31.0824 19.4747C31.2562 19.656 31.4602 19.8072 31.6492 19.9734C33.342 21.4622 35.0197 22.9434 36.7125 24.4246C37.1357 24.7949 37.71 24.6664 37.9216 24.1601C38.2768 23.3288 38.632 22.4975 38.9872 21.6662C39.5086 20.4269 40.0301 19.1951 40.5515 17.9632C40.6649 17.6912 40.4381 17.336 40.1283 17.3436ZM26.4121 27.0469C27.3189 27.0469 28.2258 27.0469 29.1326 27.0469C29.3291 27.0469 29.4652 27.0318 29.4727 26.7749C29.5558 24.4926 29.6465 22.2104 29.7448 19.9281C29.7523 19.7392 29.6768 19.6712 29.5332 19.588C29.3896 19.4973 29.2838 19.4822 29.1326 19.5805C27.5154 20.6234 25.9057 21.6662 24.2885 22.7016C24.1374 22.7998 24.1147 22.8905 24.1374 23.0643C24.1827 23.4573 24.024 23.7974 23.6537 23.9636C23.4421 24.0619 23.427 24.1828 23.427 24.3717C23.4345 25.1501 23.4421 25.936 23.4194 26.7144C23.4119 27.0092 23.5101 27.0621 23.7822 27.0621C24.6588 27.0394 25.543 27.0469 26.4121 27.0469ZM29.8506 26.6918C29.7523 26.994 29.8959 27.0621 30.2133 27.0545C31.1806 27.0394 32.1555 27.0772 33.1228 27.0394C33.6443 27.0167 34.1128 27.1225 34.5738 27.319C34.74 27.3946 34.8458 27.3719 34.9819 27.2661C35.3295 26.9789 35.6998 26.7144 36.055 26.4273C36.4102 26.1401 36.909 25.9285 36.7049 25.3164C36.6974 25.2937 36.7049 25.2635 36.72 25.2408C36.8032 25.0594 36.7276 24.9536 36.584 24.8251C34.6343 23.1248 32.6921 21.4244 30.7499 19.7089C30.6214 19.5956 30.5156 19.5729 30.3493 19.6409C30.1755 19.7089 30.168 19.8147 30.1604 19.9583C30.0546 22.1952 29.9564 24.4246 29.8506 26.6918ZM38.5111 24.9612C38.5791 24.9385 38.6547 24.9158 38.7227 24.8932C41.2694 24.0694 43.8086 23.2457 46.3554 22.4371C46.6274 22.3539 46.6804 22.1877 46.7484 21.9685C46.8164 21.7418 46.635 21.6814 46.5217 21.5831C45.048 20.374 43.5668 19.1648 42.1007 17.9632C41.7002 17.6307 41.0729 17.7819 40.8689 18.258C40.3777 19.4142 39.894 20.5705 39.4028 21.7191C39.0174 22.6336 38.6244 23.5404 38.239 24.4548C38.1332 24.7193 38.2692 24.9763 38.5111 24.9612ZM49.9224 27.0167C49.2573 25.7471 48.6074 24.5304 47.9726 23.3213C47.8895 23.1626 47.7686 23.155 47.625 23.1701C47.3681 23.1852 47.1413 23.1021 46.9826 22.9132C46.8391 22.7545 46.7181 22.7469 46.5217 22.8074C43.9522 23.6462 41.3903 24.4699 38.8209 25.3012C38.7076 25.339 38.5413 25.3239 38.5262 25.4902C38.5111 25.6791 38.7076 25.6791 38.8209 25.7244C39.9016 26.1325 40.9898 26.5331 42.0629 26.9336C42.2065 26.9865 42.3501 27.0318 42.5012 27.0318C44.9724 27.0167 47.4134 27.0167 49.9224 27.0167ZM30.9312 18.394C31.0446 18.4016 31.0824 18.4091 31.1202 18.4016C33.9012 17.9481 36.6747 17.4871 39.4557 17.0413C39.894 16.9733 40.3701 16.9808 40.4759 16.3989C40.4835 16.3687 40.5213 16.3385 40.5515 16.3158C40.6875 16.21 40.6724 16.1042 40.612 15.953C40.3626 15.3334 40.1283 14.7137 39.9016 14.0864C39.7429 13.6405 39.6598 13.1871 39.0325 13.1191C38.8209 13.0964 38.6849 13.0662 38.5035 13.1871C37.4909 13.8899 36.4706 14.5776 35.458 15.2729C33.9692 16.3082 32.488 17.3284 30.9312 18.394ZM47.421 19.3764C47.421 18.9003 47.4134 18.4242 47.421 17.9406C47.4285 17.6232 47.4587 17.3209 47.0582 17.2C46.9675 17.1697 46.8693 17.0564 46.8315 16.9581C46.7559 16.7617 46.6275 16.7465 46.4461 16.7617C45.0934 16.875 43.7406 16.9808 42.403 17.0866C42.267 17.0942 42.1385 17.0791 42.078 17.2604C42.0176 17.4418 42.1536 17.4796 42.2443 17.5552C43.786 18.8248 45.3276 20.0868 46.8617 21.3488C46.9751 21.4471 47.0582 21.4849 47.2245 21.4093C47.3907 21.3262 47.4285 21.2355 47.4285 21.0617C47.421 20.5024 47.421 19.9432 47.421 19.3764ZM31.037 16.5425C31.6114 15.5298 32.1857 14.5247 32.7601 13.5272C32.6845 13.4516 32.6392 13.4818 32.5938 13.5045C31.0597 14.3736 29.5332 15.2427 28.0142 16.1117C27.8026 16.2327 27.7497 16.8372 27.9386 16.9808C28.3618 17.3133 28.8001 17.6307 29.2309 17.9557C29.2913 18.001 29.3518 18.069 29.4274 18.0388M47.9122 17.3587C47.8819 17.3738 47.8442 17.3889 47.8139 17.404C47.8139 18.6585 47.8139 19.913 47.8139 21.1675C47.8139 21.3035 47.8895 21.3413 47.9877 21.3791C48.3278 21.5075 48.5167 21.7796 48.547 22.1272C48.5696 22.3615 48.6754 22.4446 48.8719 22.5126C49.6503 22.8074 50.4136 23.1248 51.192 23.4271C51.2902 23.4648 51.4036 23.5707 51.5018 23.4724C51.6378 23.3364 51.4716 23.2381 51.4187 23.1474C50.5723 21.7343 49.7183 20.3286 48.8644 18.9306C48.5319 18.4091 48.222 17.8801 47.9122 17.3587ZM52.0157 25.4146C51.9552 25.1123 51.993 24.9461 51.7059 24.8176C51.4489 24.7042 51.3129 24.4473 51.3053 24.1752C51.2978 23.941 51.1844 23.8578 50.9879 23.7822C50.2247 23.4875 49.4689 23.1777 48.7057 22.8829C48.5923 22.8376 48.4638 22.694 48.3278 22.83C48.1767 22.9812 48.3203 23.1097 48.3807 23.2306C48.9475 24.3037 49.537 25.3693 50.0735 26.4575M42.471 16.6634C43.7935 16.5576 45.1236 16.4594 46.4385 16.3536C46.5443 16.346 46.6803 16.3687 46.7257 16.2326C46.7861 16.0588 46.6123 16.0286 46.5217 15.9681C45.8037 15.4618 45.0858 14.9555 44.3754 14.4416C43.9976 14.1771 43.6575 13.7992 43.136 14.1393C43.1209 14.1544 43.0831 14.1544 43.0605 14.1469C42.8413 14.1015 42.7582 14.23 42.6751 14.4114C42.4408 14.9101 42.1914 15.4014 41.942 15.8926C41.7229 16.3611 41.9496 16.6936 42.471 16.6634ZM39.962 13.1644C39.9696 13.1871 39.9847 13.2098 39.9923 13.2325C40.3323 14.1091 40.6724 14.9857 41.0049 15.8624C41.0503 15.9833 41.1183 16.0362 41.2543 16.0513C41.3903 16.0664 41.4659 16.0059 41.5188 15.8926C41.7984 15.3031 42.0856 14.7212 42.3652 14.1318C42.3954 14.0713 42.4483 14.0184 42.403 13.9277C42.1763 13.4667 41.9496 13.0284 41.3148 13.0133C41.02 13.0057 40.7329 12.8697 40.4457 12.8017C40.2719 12.7564 39.962 13.0057 39.962 13.1644ZM41.4281 27.115C40.423 26.7371 39.4935 26.397 38.5715 26.0494C38.4506 26.0041 38.3599 26.0116 38.2692 26.1023C38.1786 26.2005 38.2163 26.2761 38.2692 26.3744C38.5337 26.8958 38.7982 27.4248 39.0476 27.9538C39.1156 28.0974 39.1685 28.1805 39.3499 28.0672C39.9696 27.6666 40.6497 27.387 41.4281 27.115ZM37.8536 29.0496C38.1408 28.9211 38.4506 28.6491 38.7605 28.3846C38.8511 28.309 38.7529 28.2183 38.7227 28.1503C38.4582 27.6137 38.1786 27.0772 37.9065 26.5406C37.8687 26.4575 37.8309 26.3744 37.7251 26.3895C37.6042 26.4046 37.6269 26.5104 37.6118 26.5935C37.4984 27.2208 37.3926 27.848 37.2793 28.4828C37.2112 28.838 37.3926 29.0571 37.8536 29.0496ZM36.8561 28.5281C36.9845 27.8102 37.1054 27.1754 37.2264 26.5331C37.2415 26.4348 37.2566 26.3366 37.1508 26.2686C37.045 26.2005 36.9694 26.2232 36.8787 26.2912C36.3422 26.7144 35.7981 27.1301 35.2237 27.5759C35.7905 27.8858 36.3346 28.1352 36.8561 28.5281Z" fill="white"/>
<path d="M31.9896 45.6228C33.365 45.6228 34.7328 45.6303 36.1007 45.6152C36.3727 45.6152 36.4861 45.6606 36.4861 45.978C36.471 48.0637 36.471 50.1495 36.4861 52.2353C36.4861 52.4998 36.4559 52.6056 36.146 52.6056C33.7051 52.5905 31.2717 52.598 28.8307 52.6056C28.5964 52.6056 28.5208 52.5451 28.4604 52.3109C27.9163 50.2327 27.6367 48.1318 27.5157 45.9931C27.5006 45.6832 27.5913 45.6228 27.8785 45.6228C29.2463 45.6303 30.6142 45.6228 31.9896 45.6228Z" fill="white"/>
<path d="M42.8642 52.598C41.6399 52.598 40.4232 52.5904 39.2065 52.6056C38.9722 52.6056 38.8815 52.5678 38.8891 52.3033C38.9042 50.1722 38.9042 48.0562 38.8891 45.925C38.8891 45.6681 38.9722 45.6152 39.2065 45.6227C41.9875 45.6303 44.761 45.6303 47.5496 45.6227C47.8217 45.6227 47.8821 45.6908 47.867 45.9628C47.7612 47.837 47.5194 49.6885 47.1264 51.5249C46.8921 52.6056 46.9072 52.6131 45.819 52.6131C44.829 52.598 43.8466 52.598 42.8642 52.598Z" fill="white"/>
<path d="M49.3784 52.598C49.9074 50.3687 50.1795 48.162 50.2626 45.9175C50.2702 45.6606 50.3609 45.6152 50.5951 45.6152C52.5827 45.6228 54.5626 45.6228 56.5502 45.6152C56.7995 45.6152 56.8827 45.6757 56.8524 45.9326C56.6333 48.2073 56.0514 50.3687 55.0614 52.4318C55.0009 52.5527 54.9405 52.6056 54.812 52.6056C53.0134 52.598 51.2224 52.598 49.3784 52.598Z" fill="white"/>
<path d="M21.825 45.6228C22.8074 45.6228 23.7899 45.6303 24.7723 45.6152C24.999 45.6152 25.0973 45.6455 25.1048 45.91C25.2031 48.1015 25.4298 50.2629 25.9588 52.4016C26.0343 52.719 25.8001 52.5905 25.6943 52.5905C24.2206 52.598 22.747 52.5451 21.2809 52.6207C20.5479 52.6585 20.2229 52.4091 19.9659 51.7592C19.2178 49.8775 18.6888 47.9579 18.5074 45.9402C18.4847 45.6984 18.5376 45.6152 18.7946 45.6228C19.8148 45.6379 20.8123 45.6228 21.825 45.6228Z" fill="white"/>
<path d="M29.3518 55.0237C29.4349 55.0161 29.518 55.0085 29.6011 55.0085C31.7776 55.0085 33.9465 55.0161 36.1305 55.001C36.4177 55.001 36.4857 55.0766 36.4781 55.3562C36.463 57.7971 36.463 60.2305 36.4781 62.679C36.4781 62.9964 36.4252 63.0569 36.1078 62.9587C34.5284 62.4599 33.3041 61.4623 32.2613 60.223C30.9765 58.704 30.0621 56.9658 29.3442 55.1143C29.3366 55.0917 29.3442 55.069 29.3518 55.0237Z" fill="white"/>
<path d="M38.8965 59.0514C38.8965 57.8044 38.904 56.5575 38.8889 55.3257C38.8889 55.1141 38.9116 55.0083 39.1685 55.0083C41.3677 55.0159 43.5668 55.0159 45.7659 55.0083C46.0002 55.0083 46.0531 55.0688 45.97 55.2879C45.0102 57.6458 43.786 59.8298 41.8287 61.5226C41.0578 62.1876 40.1887 62.6788 39.2139 62.9811C38.9645 63.0567 38.8889 63.0264 38.8965 62.7468C38.904 61.5075 38.8965 60.2832 38.8965 59.0514Z" fill="white"/>
<path d="M30.1759 61.6892C29.1103 61.2887 28.1203 60.7445 27.1681 60.1324C25.1353 58.8326 23.4047 57.2078 21.9839 55.258C21.9386 55.1976 21.8781 55.1522 21.8932 55.0616C21.9537 54.9709 22.0519 55.0162 22.1351 55.0162C23.5483 55.0162 24.9539 55.0238 26.3595 55.0087C26.6089 55.0087 26.7374 55.0691 26.8205 55.3185C27.6064 57.5857 28.6644 59.7092 30.191 61.5758C30.2061 61.5909 30.2061 61.6212 30.2137 61.6438C30.2061 61.659 30.191 61.6741 30.1759 61.6892Z" fill="white"/>
<path d="M45.1614 61.6437C45.8717 60.6537 46.5897 59.6713 47.1413 58.5906C47.693 57.5024 48.1994 56.3915 48.5923 55.2428C48.6377 55.1068 48.6755 55.001 48.8644 55.001C50.4136 55.0085 51.9553 55.0085 53.5876 55.0085C53.24 55.4544 52.9452 55.8549 52.6278 56.2328C50.595 58.6586 48.1313 60.4875 45.2067 61.6891C45.184 61.6739 45.1765 61.6588 45.1614 61.6437Z" fill="white"/>
<path d="M45.1997 61.6891C45.1694 61.6966 45.1163 61.7118 45.1163 61.7042C45.0936 61.6587 45.1315 61.6587 45.1618 61.6436C45.177 61.6587 45.1846 61.6739 45.1997 61.6891Z" fill="white"/>
<path d="M30.2213 61.6436C30.2516 61.6511 30.2895 61.6663 30.2668 61.7042C30.2592 61.7118 30.2061 61.6891 30.1758 61.6891C30.1909 61.6739 30.2061 61.6587 30.2213 61.6436Z" fill="white"/>
<path d="M40.1284 17.3439C40.4382 17.3363 40.665 17.6915 40.5516 17.9711C40.0302 19.2105 39.5087 20.4499 38.9873 21.6741C38.6321 22.5054 38.2769 23.3367 37.9217 24.168C37.7101 24.6743 37.1282 24.8028 36.7126 24.4325C35.0198 22.9437 33.3421 21.4625 31.6493 19.9813C31.4603 19.8151 31.2639 19.6564 31.0825 19.4825C30.9767 19.3767 30.7802 19.339 30.8482 19.0745C30.9238 18.8175 31.09 18.8251 31.2639 18.7948C33.7502 18.3868 36.2214 17.9862 38.7077 17.5857C39.2064 17.5026 39.6825 17.4194 40.1284 17.3439Z" fill="#221F51"/>
<path d="M26.4122 27.0545C25.528 27.0545 24.6514 27.047 23.7672 27.0621C23.4951 27.0696 23.3969 27.0167 23.4045 26.7145C23.412 25.9512 23.4196 25.1577 23.412 24.3717C23.412 24.1828 23.4271 24.0619 23.6387 23.9637C24.0015 23.7974 24.1677 23.4573 24.1224 23.0644C24.0997 22.883 24.1224 22.7999 24.2735 22.7016C25.8983 21.6663 27.508 20.631 29.1177 19.5805C29.2688 19.4823 29.3746 19.4974 29.5182 19.5881C29.6542 19.6712 29.7374 19.7392 29.7298 19.9281C29.6316 22.2104 29.5409 24.4927 29.4577 26.7749C29.4502 27.0319 29.3141 27.047 29.1177 27.047C28.2259 27.0545 27.3191 27.0545 26.4122 27.0545Z" fill="#221F51"/>
<path d="M29.8507 26.6997C29.9489 24.4325 30.0472 22.2107 30.1454 19.9738C30.153 19.8302 30.1681 19.7244 30.3344 19.6564C30.5006 19.5884 30.5989 19.6111 30.7349 19.7244C32.6771 21.4399 34.6193 23.1403 36.569 24.8406C36.705 24.9615 36.7882 25.0749 36.705 25.2563C36.6975 25.2789 36.6899 25.3092 36.6899 25.3318C36.8864 25.944 36.3952 26.1556 36.04 26.4427C35.6848 26.7224 35.3221 26.9944 34.9669 27.2816C34.8309 27.3874 34.7251 27.4101 34.5588 27.3345C34.0978 27.1304 33.6293 27.0322 33.1078 27.0549C32.1405 27.1002 31.1732 27.0549 30.1983 27.07C29.9036 27.07 29.76 26.9944 29.8507 26.6997Z" fill="#221F51"/>
<path d="M38.5111 24.9689C38.2692 24.9765 38.1332 24.7271 38.2466 24.4626C38.632 23.5482 39.025 22.6413 39.4104 21.7269C39.9016 20.5707 40.3852 19.4144 40.8765 18.2657C41.0805 17.7896 41.7078 17.6385 42.1083 17.971C43.5819 19.1801 45.0631 20.3893 46.5292 21.5909C46.6426 21.6891 46.8239 21.7496 46.7559 21.9763C46.6879 22.1954 46.635 22.3541 46.363 22.4448C43.8086 23.2459 41.277 24.0772 38.7302 24.9009C38.6547 24.9236 38.5866 24.9463 38.5111 24.9689Z" fill="#221F51"/>
<path d="M49.9224 27.0241C47.4135 27.0241 44.9725 27.0241 42.5164 27.0241C42.3653 27.0241 42.2217 26.9787 42.0781 26.9258C40.9974 26.5253 39.9092 26.1248 38.8361 25.7167C38.7227 25.6713 38.5262 25.6713 38.5414 25.4824C38.5489 25.3162 38.7227 25.3313 38.8361 25.2935C41.4055 24.4622 43.9674 23.6309 46.5368 22.7996C46.7257 22.7392 46.8542 22.7467 46.9978 22.9054C47.1565 23.0944 47.3908 23.1775 47.6402 23.1624C47.7837 23.1548 47.9047 23.1548 47.9878 23.3135C48.615 24.5378 49.2574 25.7545 49.9224 27.0241Z" fill="#221F51"/>
<path d="M30.9314 18.4019C32.4806 17.3364 33.9694 16.3086 35.4581 15.2884C36.4708 14.5931 37.491 13.8979 38.5037 13.2026C38.685 13.0817 38.8211 13.1119 39.0327 13.1346C39.6599 13.2026 39.743 13.656 39.9017 14.1019C40.1285 14.7292 40.3627 15.3488 40.6121 15.9685C40.6726 16.1197 40.6877 16.2255 40.5517 16.3313C40.5214 16.3539 40.4836 16.3842 40.4761 16.4144C40.3703 17.0039 39.8942 16.9887 39.4559 17.0568C36.6748 17.5026 33.9014 17.9636 31.1203 18.417C31.0825 18.417 31.0448 18.4095 30.9314 18.4019Z" fill="#221F51"/>
<path d="M47.4212 19.3767C47.4212 19.9435 47.4136 20.5103 47.4212 21.0695C47.4212 21.2358 47.3834 21.334 47.2171 21.4171C47.0584 21.4927 46.9753 21.4474 46.8544 21.3567C45.3127 20.0871 43.7711 18.825 42.237 17.563C42.1463 17.4874 42.0178 17.4496 42.0707 17.2683C42.1312 17.0869 42.2596 17.102 42.3957 17.0944C43.7484 16.9886 45.1011 16.8828 46.4387 16.7695C46.6201 16.7544 46.7486 16.7695 46.8242 16.966C46.8619 17.0642 46.9526 17.1776 47.0509 17.2078C47.4514 17.3287 47.4212 17.631 47.4136 17.9484C47.4136 18.4245 47.4212 18.9006 47.4212 19.3767Z" fill="#221F51"/>
<path d="M30.7424 17.9481C31.3999 16.7768 32.0574 15.613 32.7149 14.4492C32.7678 14.3585 32.8207 14.2754 32.866 14.1847C33.0171 13.9126 33.1305 13.6557 33.5537 13.701C33.9013 13.7388 34.1583 13.4592 34.2867 13.1418C34.3472 12.9831 34.4228 12.9226 34.5739 12.9151C35.8889 12.8168 37.2038 12.711 38.5036 12.6128C38.549 12.7035 38.4961 12.7413 38.4432 12.7715C35.9342 14.4945 33.4328 16.2024 30.9238 17.9255C30.886 17.9557 30.8331 17.9708 30.7878 17.9935C30.7727 17.9708 30.7575 17.9633 30.7424 17.9481Z" fill="#221F51"/>
<path d="M29.0044 18.2502C29.4352 18.5449 29.0951 18.6129 29.0875 19.0059C29.0875 19.1117 29.0422 19.1722 28.9666 19.2175C27.2965 20.2831 25.6264 21.3486 23.9562 22.4142C23.9411 22.3991 23.926 22.3839 23.9033 22.3688C24.7875 20.7667 25.6717 19.1646 26.5559 17.57C26.6239 17.4491 26.6919 17.366 26.8506 17.4113C26.9337 17.434 27.0395 17.434 27.1076 17.3887" fill="#221F51"/>
<path d="M32.7602 13.5347C32.1934 14.5323 31.6115 15.5449 31.0372 16.55C30.9163 16.7541 30.4855 17.5249 30.3646 17.729C29.8809 18.5829 29.9187 17.865 29.4275 18.0539C29.3444 18.0841 29.2839 18.0161 29.231 17.9708C28.8003 17.6458 28.3619 17.3284 27.9387 16.9959C27.7498 16.8448 27.8027 16.2478 28.0143 16.1268C29.5409 15.2578 31.075 14.3887 32.5939 13.5196C32.6393 13.4894 32.6846 13.4592 32.7602 13.5347Z" fill="#221F51"/>
<path d="M47.9124 17.3662C48.2223 17.8877 48.5397 18.4091 48.8495 18.9305C49.7035 20.3362 50.5574 21.7418 51.4038 23.1474C51.4567 23.2381 51.623 23.3364 51.487 23.4724C51.3812 23.5706 51.2754 23.4648 51.1771 23.427C50.4063 23.1248 49.6355 22.8074 48.8571 22.5126C48.6606 22.4371 48.5548 22.3615 48.5321 22.1272C48.5019 21.7796 48.3205 21.5151 47.9729 21.3791C47.8746 21.3413 47.7991 21.3035 47.7991 21.1675C47.8066 19.913 47.7991 18.6585 47.7991 17.404C47.8444 17.3964 47.8746 17.3813 47.9124 17.3662Z" fill="#221F51"/>
<path d="M51.9404 26.9641C51.7515 27.1304 51.3132 27.0548 50.9958 27.0322C50.6708 27.0095 50.3686 26.8583 50.0889 26.4805C49.5524 25.3923 48.9629 24.3267 48.3961 23.2536C48.3281 23.1251 48.1921 22.9966 48.3432 22.8531C48.4793 22.717 48.6002 22.8606 48.7211 22.906C49.4844 23.2007 50.2401 23.5105 51.0034 23.8053C51.1998 23.8808 51.3132 23.9564 51.3208 24.1982C51.3283 24.4703 51.4643 24.7272 51.7213 24.8406C52.0085 24.9691 52.0462 25.1353 52.0311 25.4376" fill="#221F51"/>
<path d="M42.4712 16.6715C41.9497 16.7017 41.723 16.3617 41.9497 15.9082C42.1916 15.417 42.4485 14.9258 42.6828 14.427C42.7659 14.2532 42.849 14.1247 43.0682 14.1625C43.0909 14.1701 43.1211 14.1625 43.1438 14.155C43.6652 13.8073 44.0128 14.1928 44.3831 14.4573C45.1011 14.9636 45.819 15.4699 46.5294 15.9838C46.6201 16.0518 46.7939 16.082 46.7334 16.2483C46.6881 16.3843 46.552 16.3617 46.4462 16.3692C45.1237 16.4675 43.8012 16.5657 42.4712 16.6715Z" fill="#221F51"/>
<path d="M39.9624 13.1725C39.9624 13.0138 40.2722 12.7644 40.4385 12.8022C40.7332 12.8702 41.0204 13.0062 41.3076 13.0138C41.9424 13.0289 42.1615 13.4672 42.3958 13.9282C42.4412 14.0189 42.3883 14.0718 42.358 14.1322C42.0784 14.7217 41.7988 15.3036 41.5116 15.8931C41.4587 16.0064 41.3831 16.0593 41.2471 16.0518C41.1111 16.0366 41.0506 15.9837 40.9977 15.8628C40.6652 14.9862 40.3251 14.1096 39.9851 13.2329C39.9851 13.2178 39.97 13.1952 39.9624 13.1725Z" fill="#221F51"/>
<path d="M41.4283 27.1227C40.6499 27.3947 39.9698 27.6743 39.3501 28.0749C39.1763 28.1882 39.1234 28.1051 39.0478 27.9615C38.7908 27.4325 38.5339 26.9035 38.2694 26.3821C38.2241 26.2838 38.1787 26.2082 38.2694 26.11C38.3601 26.0118 38.4508 26.0118 38.5717 26.0571C39.5012 26.3972 40.4232 26.7448 41.4283 27.1227Z" fill="#221F51"/>
<path d="M37.8538 29.0568C37.3928 29.0568 37.2114 28.8376 37.2795 28.49C37.3928 27.8628 37.4986 27.2355 37.612 26.6007C37.6271 26.5176 37.6044 26.4118 37.7253 26.3967C37.8387 26.3816 37.8689 26.4723 37.9067 26.5478C38.1788 27.0844 38.4508 27.6209 38.7229 28.1575C38.7607 28.2255 38.8514 28.3238 38.7607 28.3918C38.4508 28.6563 38.141 28.9283 37.8538 29.0568Z" fill="#221F51"/>
<path d="M36.8562 28.5358C36.3423 28.1353 35.7907 27.8859 35.2239 27.5836C35.7982 27.1377 36.3348 26.7221 36.8789 26.2989C36.9696 26.2309 37.0452 26.2006 37.151 26.2762C37.2568 26.3518 37.2492 26.4425 37.2265 26.5407C37.1056 27.1906 36.9847 27.8254 36.8562 28.5358Z" fill="#221F51"/>
<path d="M23.9563 22.4073C23.9412 22.4225 23.9184 22.4604 23.9108 22.4528C23.8729 22.4301 23.8805 22.3921 23.9032 22.3618C23.9184 22.377 23.9412 22.3846 23.9563 22.4073Z" fill="#221F51"/>
<path d="M30.7805 17.9862C30.7578 17.9937 30.7123 18.0165 30.7047 18.0089C30.6744 17.9786 30.7047 17.9558 30.735 17.9482C30.7578 17.9634 30.773 17.971 30.7805 17.9862Z" fill="#221F51"/>
<path d="M26.6995 17.7214C27.3047 17.7214 27.7953 17.2308 27.7953 16.6256C27.7953 16.0204 27.3047 15.5298 26.6995 15.5298C26.0944 15.5298 25.6038 16.0204 25.6038 16.6256C25.6038 17.2308 26.0944 17.7214 26.6995 17.7214Z" fill="white"/>
<path d="M37.7254 26.7829C38.4141 26.7829 38.9724 26.2247 38.9724 25.536C38.9724 24.8473 38.4141 24.2891 37.7254 24.2891C37.0368 24.2891 36.4785 24.8473 36.4785 25.536C36.4785 26.2247 37.0368 26.7829 37.7254 26.7829Z" fill="white"/>
<path d="M52.2123 25.2707C52.9009 25.2707 53.4592 24.7124 53.4592 24.0238C53.4592 23.3351 52.9009 22.7769 52.2123 22.7769C51.5236 22.7769 50.9653 23.3351 50.9653 24.0238C50.9653 24.7124 51.5236 25.2707 52.2123 25.2707Z" fill="white"/>
<path d="M26.775 17.7976C27.4637 17.7976 28.0219 17.2393 28.0219 16.5506C28.0219 15.862 27.4637 15.3037 26.775 15.3037C26.0863 15.3037 25.5281 15.862 25.5281 16.5506C25.5281 17.2393 26.0863 17.7976 26.775 17.7976Z" fill="white"/>
<path d="M30.0245 19.9885C30.7132 19.9885 31.2714 19.4302 31.2714 18.7416C31.2714 18.0529 30.7132 17.4946 30.0245 17.4946C29.3359 17.4946 28.7776 18.0529 28.7776 18.7416C28.7776 19.4302 29.3359 19.9885 30.0245 19.9885Z" fill="white"/>
<path d="M47.6102 23.4572C48.2989 23.4572 48.8571 22.899 48.8571 22.2103C48.8571 21.5216 48.2989 20.9634 47.6102 20.9634C46.9216 20.9634 46.3633 21.5216 46.3633 22.2103C46.3633 22.899 46.9216 23.4572 47.6102 23.4572Z" fill="white"/>
<path d="M47.6102 17.7219C48.2989 17.7219 48.8571 17.1636 48.8571 16.475C48.8571 15.7863 48.2989 15.228 47.6102 15.228C46.9216 15.228 46.3633 15.7863 46.3633 16.475C46.3633 17.1636 46.9216 17.7219 47.6102 17.7219Z" fill="white"/>
<path d="M41.194 18.2507C41.8826 18.2507 42.4409 17.6924 42.4409 17.0038C42.4409 16.3151 41.8826 15.7568 41.194 15.7568C40.5053 15.7568 39.947 16.3151 39.947 17.0038C39.947 17.6924 40.5053 18.2507 41.194 18.2507Z" fill="white"/>
<path d="M23.2308 24.3645C23.9195 24.3645 24.4777 23.8062 24.4777 23.1175C24.4777 22.4289 23.9195 21.8706 23.2308 21.8706C22.5422 21.8706 21.9839 22.4289 21.9839 23.1175C21.9839 23.8062 22.5422 24.3645 23.2308 24.3645Z" fill="white"/>
<path d="M43.0077 14.5549C43.6963 14.5549 44.2546 13.9966 44.2546 13.308C44.2546 12.6193 43.6963 12.061 43.0077 12.061C42.319 12.061 41.7607 12.6193 41.7607 13.308C41.7607 13.9966 42.319 14.5549 43.0077 14.5549Z" fill="white"/>
<path d="M39.4559 13.6482C40.1446 13.6482 40.7028 13.0899 40.7028 12.4012C40.7028 11.7126 40.1446 11.1543 39.4559 11.1543C38.7673 11.1543 38.209 11.7126 38.209 12.4012C38.209 13.0899 38.7673 13.6482 39.4559 13.6482Z" fill="white"/>
<path d="M33.3421 14.0261C34.0308 14.0261 34.5891 13.4678 34.5891 12.7792C34.5891 12.0905 34.0308 11.5322 33.3421 11.5322C32.6535 11.5322 32.0952 12.0905 32.0952 12.7792C32.0952 13.4678 32.6535 14.0261 33.3421 14.0261Z" fill="white"/>
<path d="M37.5362 65.9286C33.6972 65.9286 29.9715 65.1805 26.465 63.6993C23.0794 62.271 20.0338 60.2305 17.4266 57.6233C14.8118 55.0161 12.7638 51.9857 11.328 48.6152C9.84678 45.1162 9.09106 41.4057 9.09106 37.5817C9.09106 33.7578 9.84678 30.0397 11.328 26.5483C12.7638 23.1703 14.8118 20.1398 17.4266 17.5402C20.0414 14.933 23.0794 12.8925 26.465 11.4642C29.9715 9.98302 33.6972 9.23486 37.5362 9.23486C41.3752 9.23486 45.1009 9.98302 48.6074 11.4642C51.993 12.8925 55.0386 14.933 57.6458 17.5402C60.2606 20.1474 62.3085 23.1778 63.7444 26.5483C65.2256 30.0473 65.9813 33.7578 65.9813 37.5817C65.9813 41.4057 65.2256 45.1238 63.7444 48.6152C62.3085 51.9932 60.2606 55.0237 57.6458 57.6233C55.031 60.2305 51.993 62.271 48.6074 63.6993C45.1009 65.1729 41.3752 65.9286 37.5362 65.9286ZM37.5362 9.59761C22.0591 9.59761 9.46892 22.15 9.46892 37.5742C9.46892 52.9983 22.0591 65.5508 37.5362 65.5508C53.0132 65.5508 65.6035 52.9983 65.6035 37.5742C65.5959 22.15 53.0057 9.59761 37.5362 9.59761Z" fill="white"/>
<path d="M37.5742 75.239C32.5033 75.239 27.5836 74.2415 22.9511 72.2842C18.4772 70.3873 14.4568 67.6743 11.0108 64.2207C7.55716 60.7671 4.8517 56.7391 2.95485 52.2653C0.997547 47.6252 0 42.6979 0 37.6195C0 32.5411 0.98999 27.6138 2.95485 22.9737C4.84414 18.4924 7.55716 14.4719 11.0108 11.0183C14.4644 7.56471 18.4772 4.8517 22.9511 2.95485C27.5836 0.98999 32.5033 0 37.5742 0C42.645 0 47.5647 0.997547 52.1973 2.95485C56.6711 4.8517 60.6915 7.56471 64.1376 11.0183C67.5912 14.4719 70.2966 18.4999 72.1935 22.9737C74.1508 27.6138 75.1483 32.5411 75.1483 37.6195C75.1483 42.6979 74.1584 47.6252 72.1935 52.2653C70.3042 56.7467 67.5912 60.7671 64.1376 64.2207C60.684 67.6743 56.6711 70.3873 52.1973 72.2842C47.5647 74.2415 42.645 75.239 37.5742 75.239ZM37.5742 0.491215C17.1321 0.491215 0.498773 17.1472 0.498773 37.6119C0.498773 58.0843 17.1321 74.7327 37.5742 74.7327C58.0163 74.7327 74.6496 58.0767 74.6496 37.6119C74.6496 17.1396 58.0163 0.491215 37.5742 0.491215Z" fill="white"/>
</g>
<defs>
<clipPath id="clip0_25_4546">
<rect width="75.1483" height="75.239" fill="white"/>
</clipPath>
</defs>
</svg>
