<svg width="79" height="66" viewBox="0 0 79 66" fill="none" xmlns="http://www.w3.org/2000/svg">
<g filter="url(#filter0_d_1_231)">
<path d="M17 17.0631C17 16.5159 17.2174 15.9912 17.6043 15.6043C17.9912 15.2174 18.5159 15 19.0631 15H58.9499C59.4971 15 60.0219 15.2174 60.4088 15.6043C60.7957 15.9912 61.013 16.5159 61.013 17.0631C61.013 17.6103 60.7957 18.135 60.4088 18.522C60.0219 18.9089 59.4971 19.1262 58.9499 19.1262H19.0631C18.5159 19.1262 17.9912 18.9089 17.6043 18.522C17.2174 18.135 17 17.6103 17 17.0631ZM17 30.8172C17 30.27 17.2174 29.7453 17.6043 29.3583C17.9912 28.9714 18.5159 28.7541 19.0631 28.7541H58.9499C59.4971 28.7541 60.0219 28.9714 60.4088 29.3583C60.7957 29.7453 61.013 30.27 61.013 30.8172C61.013 31.3644 60.7957 31.8891 60.4088 32.276C60.0219 32.6629 59.4971 32.8803 58.9499 32.8803H19.0631C18.5159 32.8803 17.9912 32.6629 17.6043 32.276C17.2174 31.8891 17 31.3644 17 30.8172ZM19.0631 42.5081C18.5159 42.5081 17.9912 42.7255 17.6043 43.1124C17.2174 43.4993 17 44.0241 17 44.5713C17 45.1184 17.2174 45.6432 17.6043 46.0301C17.9912 46.417 18.5159 46.6344 19.0631 46.6344H58.9499C59.4971 46.6344 60.0219 46.417 60.4088 46.0301C60.7957 45.6432 61.013 45.1184 61.013 44.5713C61.013 44.0241 60.7957 43.4993 60.4088 43.1124C60.0219 42.7255 59.4971 42.5081 58.9499 42.5081H19.0631Z" fill="white"/>
</g>
<defs>
<filter id="filter0_d_1_231" x="0" y="0" width="78.0132" height="65.6348" filterUnits="userSpaceOnUse" color-interpolation-filters="sRGB">
<feFlood flood-opacity="0" result="BackgroundImageFix"/>
<feColorMatrix in="SourceAlpha" type="matrix" values="0 0 0 0 0 0 0 0 0 0 0 0 0 0 0 0 0 0 127 0" result="hardAlpha"/>
<feOffset dy="2"/>
<feGaussianBlur stdDeviation="8.5"/>
<feComposite in2="hardAlpha" operator="out"/>
<feColorMatrix type="matrix" values="0 0 0 0 0 0 0 0 0 0 0 0 0 0 0 0 0 0 0.54 0"/>
<feBlend mode="normal" in2="BackgroundImageFix" result="effect1_dropShadow_1_231"/>
<feBlend mode="normal" in="SourceGraphic" in2="effect1_dropShadow_1_231" result="shape"/>
</filter>
</defs>
</svg>
