<svg width="48" height="48" viewBox="0 0 48 48" fill="none" xmlns="http://www.w3.org/2000/svg">
<g filter="url(#filter0_d_1_22506)">
<path d="M23.9998 4C19.2271 4 14.6455 5.89758 11.2734 9.27198C7.89775 12.6477 6.00094 17.2259 6 21.9998C6 26.7718 7.89842 31.3533 11.2734 34.7277C14.6455 38.1021 19.2271 39.9997 23.9998 39.9997C28.7726 39.9997 33.3541 38.1021 36.7263 34.7277C40.1013 31.3533 41.9997 26.7718 41.9997 21.9998C41.9997 17.2279 40.1013 12.6464 36.7263 9.27198C33.3541 5.89758 28.7726 4 23.9998 4Z" fill="white"/>
</g>
<path d="M32.3034 18.3515C31.8454 17.2607 31.1791 16.2692 30.3417 15.4323C29.5067 14.594 28.5149 13.9275 27.4225 13.4706C26.3034 13.0003 25.1011 12.7593 23.8868 12.7617H23.846C22.611 12.7678 21.4168 13.0123 20.292 13.493C19.209 13.9546 18.2265 14.6223 17.3994 15.4588C16.57 16.2938 15.9113 17.2818 15.46 18.3677C14.9916 19.497 14.7542 20.7084 14.7619 21.9306C14.768 23.3443 15.1069 24.7478 15.7397 26.0027V29.099C15.7397 29.6164 16.1602 30.0361 16.6767 30.0361H19.7755C21.0389 30.6722 22.433 31.0069 23.848 31.0139H23.8909C25.1117 31.0139 26.2936 30.7776 27.4082 30.3151C28.4951 29.8637 29.4832 29.205 30.3172 28.3759C31.1582 27.5427 31.8196 26.569 32.283 25.4832C32.7627 24.3588 33.0077 23.163 33.0138 21.9285C33.0179 20.688 32.777 19.4841 32.3034 18.3515ZM19.8123 22.8656C19.2733 22.8656 18.8344 22.4276 18.8344 21.8878C18.8344 21.348 19.2733 20.91 19.8123 20.91C20.3512 20.91 20.7901 21.348 20.7901 21.8878C20.7901 22.4276 20.3532 22.8656 19.8123 22.8656ZM23.8868 22.8656C23.3479 22.8656 22.909 22.4276 22.909 21.8878C22.909 21.348 23.3479 20.91 23.8868 20.91C24.4258 20.91 24.8647 21.348 24.8647 21.8878C24.8647 22.4276 24.4258 22.8656 23.8868 22.8656ZM27.9614 22.8656C27.4225 22.8656 26.9836 22.4276 26.9836 21.8878C26.9836 21.348 27.4225 20.91 27.9614 20.91C28.5003 20.91 28.9392 21.348 28.9392 21.8878C28.9392 22.4276 28.5003 22.8656 27.9614 22.8656Z" fill="#221F51"/>
<defs>
<filter id="filter0_d_1_22506" x="0" y="0" width="48" height="47.9995" filterUnits="userSpaceOnUse" color-interpolation-filters="sRGB">
<feFlood flood-opacity="0" result="BackgroundImageFix"/>
<feColorMatrix in="SourceAlpha" type="matrix" values="0 0 0 0 0 0 0 0 0 0 0 0 0 0 0 0 0 0 127 0" result="hardAlpha"/>
<feOffset dy="2"/>
<feGaussianBlur stdDeviation="3"/>
<feComposite in2="hardAlpha" operator="out"/>
<feColorMatrix type="matrix" values="0 0 0 0 0 0 0 0 0 0 0 0 0 0 0 0 0 0 0.54 0"/>
<feBlend mode="normal" in2="BackgroundImageFix" result="effect1_dropShadow_1_22506"/>
<feBlend mode="normal" in="SourceGraphic" in2="effect1_dropShadow_1_22506" result="shape"/>
</filter>
</defs>
</svg>
