<svg width="22" height="22" viewBox="0 0 22 22" fill="none" xmlns="http://www.w3.org/2000/svg">
<path d="M19.5556 22C20.2278 22 20.8034 21.7609 21.2826 21.2826C21.7609 20.8034 22 20.2278 22 19.5556V14.6667H19.5556V19.5556H2.44444V2.44444H19.5556V7.33333H22V2.44444C22 1.77222 21.7609 1.19656 21.2826 0.717444C20.8034 0.239148 20.2278 0 19.5556 0H2.44444C1.77222 0 1.19656 0.239148 0.717445 0.717444C0.239149 1.19656 0 1.77222 0 2.44444V19.5556C0 20.2278 0.239149 20.8034 0.717445 21.2826C1.19656 21.7609 1.77222 22 2.44444 22H19.5556ZM12.8333 17.1111L14.5444 15.3389L11.4278 12.2222H22V9.77778H11.4278L14.5444 6.66111L12.8333 4.88889L6.72222 11L12.8333 17.1111Z" fill="white"/>
</svg>
