<svg width="154" height="32" viewBox="0 0 154 32" fill="none" xmlns="http://www.w3.org/2000/svg">
<path d="M61.7624 5.5332C69.7945 5.5332 74.9688 10.1255 74.9688 16.274C74.9688 22.416 69.7945 27.0083 61.7624 27.0083C53.7377 27.0083 48.5635 22.416 48.5635 16.274C48.5635 10.1255 53.7377 5.5332 61.7624 5.5332ZM61.7624 22.1429C65.5904 22.1429 68.3956 19.8182 68.3956 16.274C68.3956 12.8123 65.5378 10.4431 61.7624 10.4431C58.0998 10.4431 55.1893 12.7234 55.1893 16.274C55.1893 19.6848 57.9945 22.1429 61.7624 22.1429Z" fill="#323C8D"/>
<path d="M78.1946 11.7643C78.1946 7.76269 82.0754 5.5332 87.0915 5.5332C91.7773 5.5332 94.7933 6.94331 96.3049 8.12475L93.9882 11.8532C92.529 10.9004 90.0025 9.89683 87.4153 9.89683C85.5274 9.89683 84.3921 10.767 84.3921 11.6753C84.3921 15.0862 97.4926 13.2188 97.4926 20.4597C97.4926 24.5058 93.6119 27.0083 87.6785 27.0083C83.2107 27.0083 78.684 24.9631 77.5479 23.5085L80.571 20.0913C82.0229 21.4124 85.6857 22.6447 88.1146 22.6447C89.8894 22.6447 91.2961 22.0032 91.2961 20.7329C91.2961 17.4109 78.1946 19.2275 78.1946 11.7643Z" fill="#323C8D"/>
<path d="M113.331 5.48926C121.356 5.48926 126.53 10.0815 126.53 16.23C126.53 22.3721 121.356 26.9644 113.331 26.9644C105.299 26.9644 100.125 22.3721 100.125 16.23C100.125 10.0815 105.299 5.48926 113.331 5.48926ZM113.331 22.0989C117.16 22.0989 119.957 19.7743 119.957 16.23C119.957 12.7683 117.099 10.3991 113.331 10.3991C109.669 10.3991 106.758 12.6794 106.758 16.23C106.758 19.6409 109.556 22.0989 113.331 22.0989Z" fill="#323C8D"/>
<path d="M130.569 6.46264H136.766V8.5142C138.225 7.1931 140.812 6.10059 143.722 6.10059C149.649 6.10059 153.688 8.51427 153.688 14.9295V26.9468H147.49V15.8378C147.49 12.5602 145.497 11.0168 142.053 11.0168C139.947 11.0168 138.225 11.7473 136.766 12.9731V26.9468H130.569V6.46264Z" fill="#323C8D"/>
<path fill-rule="evenodd" clip-rule="evenodd" d="M32.0925 13.0078C29.9716 12.2583 27.5349 13.1031 26.6475 14.8879C25.7601 16.6791 26.7603 18.7371 28.8736 19.4865C30.9945 20.2361 33.4311 19.3913 34.3186 17.6064C35.2061 15.8152 34.2058 13.7574 32.0925 13.0078Z" fill="#479FD8"/>
<path fill-rule="evenodd" clip-rule="evenodd" d="M21.0152 25.5843C20.6768 24.568 21.3762 23.52 22.5795 23.2342C23.7753 22.9483 25.0237 23.539 25.3547 24.5489C25.6931 25.5652 24.9936 26.6196 23.7978 26.899C22.5945 27.1848 21.3536 26.5942 21.0152 25.5843Z" fill="#479FD8"/>
<path fill-rule="evenodd" clip-rule="evenodd" d="M12.7042 1.14225C10.5834 0.386356 8.14665 1.23118 7.25923 3.02236C6.37172 4.80713 7.37204 6.8651 9.49289 7.61458C11.6061 8.36413 14.0429 7.52573 14.9303 5.73454C15.8178 3.9497 14.8251 1.89173 12.7042 1.14225Z" fill="#323C8D"/>
<path fill-rule="evenodd" clip-rule="evenodd" d="M24.128 5.61333C22.9773 5.20681 21.6536 5.66414 21.1722 6.6296C20.691 7.60147 21.2324 8.71935 22.3831 9.12587C23.5338 9.53231 24.8574 9.07506 25.3388 8.1096C25.8201 7.13773 25.2786 6.01985 24.128 5.61333Z" fill="#323C8D"/>
<path fill-rule="evenodd" clip-rule="evenodd" d="M12.4561 24.8515C10.3429 24.102 7.90612 24.9467 7.0187 26.7379C6.13119 28.5228 7.12391 30.5807 9.24476 31.3302C11.3581 32.0797 13.7948 31.2413 14.6823 29.4501C15.5697 27.6589 14.577 25.6074 12.4561 24.8515Z" fill="#323C8D"/>
<path fill-rule="evenodd" clip-rule="evenodd" d="M3.74729 14.4873C2.59663 14.0807 1.27292 14.5381 0.791669 15.5099C0.310327 16.4817 0.851826 17.5933 2.00249 18.0061C3.15314 18.4127 4.46926 17.9553 4.9506 16.9835C5.43945 16.0117 4.89795 14.8938 3.74729 14.4873Z" fill="#479FD8"/>
<path fill-rule="evenodd" clip-rule="evenodd" d="M23.6622 13.5153C25.4522 17.1993 23.3614 21.4169 18.9918 22.9222C14.6223 24.434 9.63612 22.6681 7.84618 18.9778C6.05623 15.2875 8.15456 11.0763 12.5166 9.56458C16.8861 8.05928 21.8798 9.82502 23.6622 13.5153ZM13.3212 11.2224C10.0347 12.3593 8.46285 15.5288 9.80908 18.3045C11.1478 21.0738 14.9006 22.4077 18.1872 21.2708C21.4737 20.1338 23.0531 16.9643 21.7068 14.1886C20.3607 11.413 16.6078 10.0855 13.3212 11.2224Z" fill="#323C8D"/>
</svg>
