<svg width="70" height="70" viewBox="0 0 80 60" fill="none" xmlns="http://www.w3.org/2000/svg">
<path d="M40 0C43.0942 0 46.0617 1.52586 48.2496 4.2419C50.4375 6.95795 51.6667 10.6417 51.6667 14.4828C51.6667 18.3238 50.4375 22.0076 48.2496 24.7236C46.0617 27.4397 43.0942 28.9655 40 28.9655C36.9058 28.9655 33.9383 27.4397 31.7504 24.7236C29.5625 22.0076 28.3333 18.3238 28.3333 14.4828C28.3333 10.6417 29.5625 6.95795 31.7504 4.2419C33.9383 1.52586 36.9058 0 40 0ZM16.6667 10.3448C18.5333 10.3448 20.2667 10.9655 21.7667 12.0828C21.2667 18 22.6667 23.8759 25.5333 28.469C23.8667 32.4414 20.5333 35.1724 16.6667 35.1724C14.0145 35.1724 11.471 33.8645 9.5956 31.5365C7.72024 29.2085 6.66667 26.051 6.66667 22.7586C6.66667 19.4663 7.72024 16.3088 9.5956 13.9807C11.471 11.6527 14.0145 10.3448 16.6667 10.3448ZM63.3333 10.3448C65.9855 10.3448 68.529 11.6527 70.4044 13.9807C72.2798 16.3088 73.3333 19.4663 73.3333 22.7586C73.3333 26.051 72.2798 29.2085 70.4044 31.5365C68.529 33.8645 65.9855 35.1724 63.3333 35.1724C59.4667 35.1724 56.1333 32.4414 54.4667 28.469C57.3729 23.8114 58.7219 17.9429 58.2333 12.0828C59.7333 10.9655 61.4667 10.3448 63.3333 10.3448ZM18.3333 52.7586C18.3333 44.1931 28.0333 37.2414 40 37.2414C51.9667 37.2414 61.6667 44.1931 61.6667 52.7586V60H18.3333V52.7586ZM0 60V53.7931C0 48.0414 6.3 43.2 14.8333 41.7931C12.8667 44.6069 11.6667 48.4966 11.6667 52.7586V60H0ZM80 60H68.3333V52.7586C68.3333 48.4966 67.1333 44.6069 65.1667 41.7931C73.7 43.2 80 48.0414 80 53.7931V60Z" fill="white"/>
</svg>
