<svg width="80" height="80" viewBox="0 0 80 80" fill="none" xmlns="http://www.w3.org/2000/svg">
<path d="M3.43983 6.5919L53.7173 0.0186153C54.0011 -0.0186515 54.2902 0.00036297 54.5653 0.0743699C54.8403 0.148377 55.0947 0.275646 55.3113 0.447554C55.5279 0.619462 55.7016 0.83199 55.8206 1.07074C55.9397 1.30948 56.0012 1.56886 56.0012 1.8313V78.1693C56.0012 78.4314 55.9397 78.6904 55.8209 78.9289C55.7021 79.1674 55.5288 79.3797 55.3126 79.5515C55.0965 79.7234 54.8426 79.8507 54.568 79.925C54.2935 79.9993 54.0048 80.0187 53.7213 79.982L3.43583 73.4087C2.48235 73.2844 1.60989 72.8493 0.978706 72.1833C0.347523 71.5173 9.24182e-06 70.6651 0 69.7834V10.2173C9.24182e-06 9.33552 0.347523 8.48337 0.978706 7.81737C1.60989 7.15136 2.48235 6.71623 3.43583 6.5919H3.43983ZM8.0036 13.3959V66.6047L48.0016 71.8377V8.1629L8.0036 13.3959ZM60.001 65.6343H72.0004V14.3663H60.001V7.04233H76.0002C77.061 7.04233 78.0784 7.42815 78.8285 8.1149C79.5786 8.80166 80 9.73311 80 10.7043V69.2963C80 70.2675 79.5786 71.199 78.8285 71.8857C78.0784 72.5725 77.061 72.9583 76.0002 72.9583H60.001V65.6343ZM32.8024 40.0003L44.0018 54.6483H34.4023L28.0026 46.277L21.6029 54.6483H12.0034L23.2028 40.0003L12.0034 25.3523H21.6029L28.0026 33.7237L34.4023 25.3523H44.0018L32.8024 40.0003Z" fill="white"/>
</svg>
