<svg width="48" height="49" viewBox="0 0 48 49" fill="none" xmlns="http://www.w3.org/2000/svg">
<g filter="url(#filter0_d_1_22490)">
<path d="M23.9801 4.61475C19.2126 4.61475 14.6361 6.51024 11.2676 9.88095C7.89567 13.253 6.00093 17.8261 6 22.5948C6 27.3615 7.89634 31.938 11.2676 35.3087C14.6361 38.6795 19.2126 40.575 23.9801 40.575C28.7476 40.575 33.3241 38.6795 36.6926 35.3087C40.0639 31.938 41.9602 27.3615 41.9602 22.5948C41.9602 17.8282 40.0639 13.2517 36.6926 9.88095C33.3241 6.51024 28.7476 4.61475 23.9801 4.61475Z" fill="white"/>
</g>
<path d="M14.139 22.4039C19.3813 20.1204 22.8762 18.6149 24.6236 17.8875C29.6187 15.8106 30.6554 15.4498 31.3324 15.4376C31.4813 15.4352 31.8128 15.472 32.0292 15.6469C32.209 15.7944 32.2595 15.9939 32.2848 16.1339C32.3073 16.2738 32.3382 16.5927 32.3129 16.8416C32.0432 19.6847 30.8717 26.584 30.2761 29.7685C30.0261 31.1158 29.5288 31.5676 29.0484 31.6117C28.0033 31.7078 27.2111 30.9217 26.1997 30.259C24.618 29.2215 23.7246 28.5759 22.1879 27.5636C20.4123 26.3938 21.5642 25.7507 22.5756 24.7C22.8396 24.425 27.4414 20.2404 27.5285 19.8609C27.5398 19.8134 27.551 19.6364 27.4442 19.5431C27.3403 19.4496 27.1858 19.4816 27.0734 19.5069C26.9133 19.5428 24.3876 21.2139 19.488 24.5197C18.7716 25.0124 18.1227 25.2526 17.5383 25.24C16.8978 25.2262 15.6616 24.877 14.743 24.5787C13.6192 24.2126 12.723 24.019 12.8017 23.3973C12.841 23.0737 13.2877 22.7424 14.139 22.4039V22.4039Z" fill="#211E51"/>
<defs>
<filter id="filter0_d_1_22490" x="0" y="0.614746" width="47.96" height="47.9604" filterUnits="userSpaceOnUse" color-interpolation-filters="sRGB">
<feFlood flood-opacity="0" result="BackgroundImageFix"/>
<feColorMatrix in="SourceAlpha" type="matrix" values="0 0 0 0 0 0 0 0 0 0 0 0 0 0 0 0 0 0 127 0" result="hardAlpha"/>
<feOffset dy="2"/>
<feGaussianBlur stdDeviation="3"/>
<feComposite in2="hardAlpha" operator="out"/>
<feColorMatrix type="matrix" values="0 0 0 0 0 0 0 0 0 0 0 0 0 0 0 0 0 0 0.54 0"/>
<feBlend mode="normal" in2="BackgroundImageFix" result="effect1_dropShadow_1_22490"/>
<feBlend mode="normal" in="SourceGraphic" in2="effect1_dropShadow_1_22490" result="shape"/>
</filter>
</defs>
</svg>
