<svg width="16" height="16" viewBox="0 0 16 16" fill="none" xmlns="http://www.w3.org/2000/svg">
<path d="M14.0467 3.48732C12.9733 3.38065 11.9 3.30065 10.82 3.24065V3.23398L10.6733 2.36732C10.5733 1.75398 10.4267 0.833984 8.86667 0.833984H7.12C5.56667 0.833984 5.42 1.71398 5.31334 2.36065L5.17334 3.21398C4.55334 3.25398 3.93334 3.29398 3.31334 3.35398L1.95334 3.48732C1.67334 3.51398 1.47334 3.76065 1.5 4.03398C1.52667 4.30732 1.76667 4.50732 2.04667 4.48065L3.40667 4.34732C6.9 4.00065 10.42 4.13398 13.9533 4.48732C13.9733 4.48732 13.9867 4.48732 14.0067 4.48732C14.26 4.48732 14.48 4.29398 14.5067 4.03398C14.5267 3.76065 14.3267 3.51398 14.0467 3.48732Z" fill="#FFB3B3"/>
<path d="M12.82 5.42602C12.66 5.25935 12.44 5.16602 12.2133 5.16602H3.78667C3.56001 5.16602 3.33334 5.25935 3.18001 5.42602C3.02667 5.59268 2.94001 5.81935 2.95334 6.05268L3.36667 12.8927C3.44001 13.906 3.53334 15.1727 5.86001 15.1727H10.14C12.4667 15.1727 12.56 13.9127 12.6333 12.8927L13.0467 6.05935C13.06 5.81935 12.9733 5.59268 12.82 5.42602ZM9.10667 11.8327H6.88667C6.61334 11.8327 6.38667 11.606 6.38667 11.3327C6.38667 11.0593 6.61334 10.8327 6.88667 10.8327H9.10667C9.38001 10.8327 9.60667 11.0593 9.60667 11.3327C9.60667 11.606 9.38001 11.8327 9.10667 11.8327ZM9.66667 9.16602H6.33334C6.06001 9.16602 5.83334 8.93935 5.83334 8.66602C5.83334 8.39268 6.06001 8.16602 6.33334 8.16602H9.66667C9.94001 8.16602 10.1667 8.39268 10.1667 8.66602C10.1667 8.93935 9.94001 9.16602 9.66667 9.16602Z" fill="#FFB3B3"/>
</svg>
