<svg width="39" height="34" viewBox="0 0 39 34" fill="none" xmlns="http://www.w3.org/2000/svg">
<g filter="url(#filter0_d_0_11754)">
<path d="M18.15 21.875H20.85V16.1L23.01 18.3L24.9 16.375L19.5 10.875L14.1 16.375L15.99 18.3L18.15 16.1V21.875ZM8.7 26C7.9575 26 7.3221 25.731 6.7938 25.1929C6.2646 24.6539 6 24.0063 6 23.25V6.75C6 5.99375 6.2646 5.34658 6.7938 4.8085C7.3221 4.2695 7.9575 4 8.7 4H16.8L19.5 6.75H30.3C31.0425 6.75 31.6784 7.0195 32.2076 7.5585C32.7359 8.09658 33 8.74375 33 9.5V23.25C33 24.0063 32.7359 24.6539 32.2076 25.1929C31.6784 25.731 31.0425 26 30.3 26H8.7Z" fill="white"/>
</g>
<defs>
<filter id="filter0_d_0_11754" x="0" y="0" width="39" height="34" filterUnits="userSpaceOnUse" color-interpolation-filters="sRGB">
<feFlood flood-opacity="0" result="BackgroundImageFix"/>
<feColorMatrix in="SourceAlpha" type="matrix" values="0 0 0 0 0 0 0 0 0 0 0 0 0 0 0 0 0 0 127 0" result="hardAlpha"/>
<feOffset dy="2"/>
<feGaussianBlur stdDeviation="3"/>
<feComposite in2="hardAlpha" operator="out"/>
<feColorMatrix type="matrix" values="0 0 0 0 0 0 0 0 0 0 0 0 0 0 0 0 0 0 0.54 0"/>
<feBlend mode="normal" in2="BackgroundImageFix" result="effect1_dropShadow_0_11754"/>
<feBlend mode="normal" in="SourceGraphic" in2="effect1_dropShadow_0_11754" result="shape"/>
</filter>
</defs>
</svg>
