<svg width="48" height="48" viewBox="0 0 48 48" fill="none" xmlns="http://www.w3.org/2000/svg">
<g filter="url(#filter0_d_1_22513)">
<path d="M23.9998 4C19.2271 4 14.6455 5.89758 11.2734 9.27198C7.89775 12.6477 6.00094 17.2259 6 21.9998C6 26.7718 7.89842 31.3533 11.2734 34.7277C14.6455 38.1021 19.2271 39.9997 23.9998 39.9997C28.7726 39.9997 33.3541 38.1021 36.7263 34.7277C40.1013 31.3533 41.9997 26.7718 41.9997 21.9998C41.9997 17.2279 40.1013 12.6464 36.7263 9.27198C33.3541 5.89758 28.7726 4 23.9998 4Z" fill="white"/>
</g>
<path d="M25.9148 31.0139V28.8758C27.4358 28.4238 28.6611 27.5546 29.5906 26.2683C30.5201 24.982 30.9849 23.5218 30.9849 21.8878C30.9849 20.2538 30.5201 18.7936 29.5906 17.5073C28.6611 16.2209 27.4358 15.3518 25.9148 14.8998V12.7617C28.0104 13.2484 29.7174 14.3391 31.0356 16.0335C32.3538 17.7287 33.0129 19.6802 33.0129 21.8878C33.0129 24.0954 32.3538 26.0465 31.0356 27.741C29.7174 29.4362 28.0104 30.5271 25.9148 31.0139ZM14.7607 25.0428V18.7849H18.8168L23.8868 13.57V30.2577L18.8168 25.0428H14.7607ZM25.9148 26.0858V17.6898C26.7091 18.0722 27.3304 18.6459 27.7786 19.4107C28.2261 20.1756 28.4498 21.0099 28.4498 21.9139C28.4498 22.8004 28.2261 23.6216 27.7786 24.3774C27.3304 25.1339 26.7091 25.7034 25.9148 26.0858Z" fill="#221F51"/>
<defs>
<filter id="filter0_d_1_22513" x="0" y="0" width="48" height="47.9995" filterUnits="userSpaceOnUse" color-interpolation-filters="sRGB">
<feFlood flood-opacity="0" result="BackgroundImageFix"/>
<feColorMatrix in="SourceAlpha" type="matrix" values="0 0 0 0 0 0 0 0 0 0 0 0 0 0 0 0 0 0 127 0" result="hardAlpha"/>
<feOffset dy="2"/>
<feGaussianBlur stdDeviation="3"/>
<feComposite in2="hardAlpha" operator="out"/>
<feColorMatrix type="matrix" values="0 0 0 0 0 0 0 0 0 0 0 0 0 0 0 0 0 0 0.54 0"/>
<feBlend mode="normal" in2="BackgroundImageFix" result="effect1_dropShadow_1_22513"/>
<feBlend mode="normal" in="SourceGraphic" in2="effect1_dropShadow_1_22513" result="shape"/>
</filter>
</defs>
</svg>
