<svg width="48" height="49" viewBox="0 0 48 49" fill="none" xmlns="http://www.w3.org/2000/svg">
<g filter="url(#filter0_d_1_22495)">
<path d="M23.9801 4.07764C19.2126 4.07764 14.6361 5.97313 11.2676 9.34384C7.89567 12.7159 6.00093 17.289 6 22.0577C6 26.8244 7.89634 31.4009 11.2676 34.7716C14.6361 38.1423 19.2126 40.0378 23.9801 40.0378C28.7476 40.0378 33.3241 38.1423 36.6926 34.7716C40.0639 31.4009 41.9602 26.8244 41.9602 22.0577C41.9602 17.291 40.0639 12.7145 36.6926 9.34384C33.3241 5.97313 28.7476 4.07764 23.9801 4.07764Z" fill="white"/>
</g>
<path d="M23.348 13.8312C22.9621 13.1232 22.1555 12.5505 21.1648 12.6518C20.2785 12.7422 18.9627 13.0446 18.0655 14.0365C17.1446 15.0552 16.8012 16.6438 17.5083 19.0241C18.2634 21.5633 19.3848 24.0666 20.7788 26.0863C22.1624 28.0914 23.8666 29.6964 25.8218 30.3118C27.5508 30.8558 28.8731 30.6288 29.8375 30.0311C30.7678 29.4548 31.2785 28.5878 31.5428 27.9874C31.8387 27.3152 31.6437 26.6154 31.2577 26.0994L29.8341 24.1992C29.5195 23.7794 29.0668 23.463 28.542 23.2965C28.0173 23.13 27.4483 23.1222 26.9184 23.2741L24.9509 23.8386C24.8887 23.8582 24.8217 23.8606 24.7581 23.8455C24.6945 23.8304 24.6371 23.7985 24.5931 23.7537C23.7172 22.8122 22.7359 21.4993 22.4692 20.1704C22.4607 20.1349 22.4665 20.0978 22.4855 20.0659C22.775 19.6195 23.2728 19.1136 23.7687 18.6708C24.6084 17.9205 24.9266 16.7279 24.3724 15.7115L23.348 13.8312V13.8312Z" fill="#211E51"/>
<defs>
<filter id="filter0_d_1_22495" x="0" y="0.0776367" width="47.96" height="47.9604" filterUnits="userSpaceOnUse" color-interpolation-filters="sRGB">
<feFlood flood-opacity="0" result="BackgroundImageFix"/>
<feColorMatrix in="SourceAlpha" type="matrix" values="0 0 0 0 0 0 0 0 0 0 0 0 0 0 0 0 0 0 127 0" result="hardAlpha"/>
<feOffset dy="2"/>
<feGaussianBlur stdDeviation="3"/>
<feComposite in2="hardAlpha" operator="out"/>
<feColorMatrix type="matrix" values="0 0 0 0 0 0 0 0 0 0 0 0 0 0 0 0 0 0 0.54 0"/>
<feBlend mode="normal" in2="BackgroundImageFix" result="effect1_dropShadow_1_22495"/>
<feBlend mode="normal" in="SourceGraphic" in2="effect1_dropShadow_1_22495" result="shape"/>
</filter>
</defs>
</svg>
